<svg xmlns="http://www.w3.org/2000/svg" width="72" height="72" viewBox="0 0 72 72">
    <defs>
        <clipPath id="n1epe9pera">
            <path fill="none" d="M0 0H35.824V32.07H0z"/>
        </clipPath>
    </defs>
    <g transform="translate(-636 -467)">
        <circle cx="36" cy="36" r="36" fill="#1e78f0" transform="translate(636 467)"/>
        <g>
            <g clip-path="url(#n1epe9pera)" transform="translate(654.177 487.367)">
                <path fill="#fff" fill-rule="evenodd" d="M35.819 3.817a3.7 3.7 0 0 0-3.77-3.808c-.956-.013-1.912 0-2.869 0h-.713a.8.8 0 0 0-.024.112c0 .9 0 1.81-.008 2.715a.769.769 0 0 1-.87.873H8.254a.78.78 0 0 1-.869-.881V.038a.846.846 0 0 0-.131-.029C6 .009 4.744-.023 3.492.03a3.625 3.625 0 0 0-1.415.38A3.571 3.571 0 0 0 .009 3.824Q-.009 12.894 0 21.963v6.293a3.666 3.666 0 0 0 3.228 3.75 20.009 20.009 0 0 0 2.093.059c.676.009 1.351 0 2.045 0 .007-.137.016-.237.016-.337v-2.437c0-.659.274-.931.941-.931h19.249a.763.763 0 0 1 .86.852c.008.833 0 1.666 0 2.5v.331c1.358 0 2.673.025 3.986-.015a3.138 3.138 0 0 0 1.211-.32 3.619 3.619 0 0 0 2.182-3.5q.013-8.76.006-17.52V3.814M6.187 28.491a1.47 1.47 0 0 1-1.469 1.469h-1.54a1.469 1.469 0 0 1-1.469-1.469v-1.82A1.469 1.469 0 0 1 3.178 25.2h1.54a1.47 1.47 0 0 1 1.469 1.47zm0-7.654a1.47 1.47 0 0 1-1.469 1.469h-1.54a1.47 1.47 0 0 1-1.469-1.469v-1.819a1.469 1.469 0 0 1 1.469-1.469h1.54a1.469 1.469 0 0 1 1.469 1.469zm0-7.654a1.47 1.47 0 0 1-1.469 1.469h-1.54a1.469 1.469 0 0 1-1.469-1.469v-1.819a1.469 1.469 0 0 1 1.469-1.469h1.54a1.469 1.469 0 0 1 1.469 1.469zm0-7.654A1.47 1.47 0 0 1 4.718 7h-1.54a1.469 1.469 0 0 1-1.469-1.47V3.711a1.469 1.469 0 0 1 1.469-1.47h1.54a1.469 1.469 0 0 1 1.469 1.47zM22.3 16.578q-2.966 1.486-5.927 2.985c-.766.386-1.529.777-2.3 1.157-.551.273-.965.014-.966-.6v-4.114-4.091a.6.6 0 0 1 .948-.575q2.761 1.386 5.523 2.77c.909.457 1.815.921 2.725 1.378a.586.586 0 0 1 .4.547.607.607 0 0 1-.407.541m12 11.913a1.469 1.469 0 0 1-1.469 1.469H31.3a1.47 1.47 0 0 1-1.469-1.469v-1.818A1.47 1.47 0 0 1 31.3 25.2h1.539a1.469 1.469 0 0 1 1.469 1.47zm0-7.654a1.47 1.47 0 0 1-1.469 1.469H31.3a1.47 1.47 0 0 1-1.469-1.469v-1.817a1.469 1.469 0 0 1 1.469-1.47h1.539a1.469 1.469 0 0 1 1.469 1.469zm0-7.654a1.469 1.469 0 0 1-1.469 1.469H31.3a1.47 1.47 0 0 1-1.469-1.469v-1.817A1.469 1.469 0 0 1 31.3 9.895h1.539a1.469 1.469 0 0 1 1.469 1.469zm0-7.654A1.469 1.469 0 0 1 32.838 7H31.3a1.47 1.47 0 0 1-1.471-1.47V3.711a1.469 1.469 0 0 1 1.471-1.47h1.539a1.469 1.469 0 0 1 1.469 1.469z" transform="translate(-.001 .001)"/>
            </g>
        </g>
    </g>
</svg>
