<svg xmlns="http://www.w3.org/2000/svg" width="26.188" height="17.202" viewBox="0 0 26.188 17.202">
    <defs>
        <style>
            .cls-3{fill:#d7e0ee}.cls-4{fill:#eef2f8}.cls-9{fill:#1c1c1c}
        </style>
    </defs>
    <g id="그룹_6934" transform="translate(-1.415 -12.411)">
        <g id="그룹_6934-2" transform="translate(1.929 12.924)">
            <path id="사각형_2795" fill="#6387fb" d="M0 0H25.161V3.851H0z"/>
            <path id="사각형_2797" fill="#85a8fc" d="M0 0H24.134V2.824H0z"/>
            <path id="패스_7914" d="M3415.923 972.754h-2.311l-2.567-3.851h2.311z" class="cls-3" transform="translate(-3392.816 -968.902)"/>
            <path id="패스_7915" d="M3415.239 971.727l-1.883-2.824h-2.311l1.883 2.824z" class="cls-4" transform="translate(-3392.816 -968.902)"/>
            <path id="패스_7916" d="M2949.678 972.754h-2.311l-2.567-3.854h2.311z" class="cls-3" transform="translate(-2934.53 -968.902)"/>
            <path id="패스_7917" d="M2948.993 971.727l-1.883-2.824h-2.31l1.883 2.824z" class="cls-4" transform="translate(-2934.53 -968.902)"/>
            <path id="패스_7918" d="M2483.433 972.754h-2.311l-2.568-3.851h2.311z" class="cls-3" transform="translate(-2476.244 -968.902)"/>
            <path id="패스_7919" d="M2482.748 971.727l-1.883-2.824h-2.311l1.883 2.824z" class="cls-4" transform="translate(-2476.244 -968.902)"/>
            <path id="사각형_2799" fill="#c8d4ee" d="M0 0H25.161V12.324H0z" transform="translate(0 3.851)"/>
            <path id="사각형_2800" fill="#dee5f5" d="M0 0H24.134V11.297H0z" transform="translate(0 3.851)"/>
            <path id="패스_7926" fill="#c33d3d" d="M2950.993 1352.9l-5.518-3.218a.452.452 0 0 0-.688.36v6.435a.452.452 0 0 0 .688.36l5.518-3.218a.411.411 0 0 0 0-.719z" transform="translate(-2934.517 -1343.114)"/>
            <path id="패스_7927" fill="#df5f5f" d="M2944.96 1355.807l5.511-3.214-5-2.915a.452.452 0 0 0-.688.36v5.825a.46.46 0 0 0 .177-.056z" transform="translate(-2934.515 -1343.114)"/>
        </g>
        <g id="그룹_6951" transform="translate(1.415 12.411)">
            <g id="그룹_6935" transform="translate(10.27 6.546)">
                <path id="패스_7928" d="M2915.752 1330.525a1.037 1.037 0 0 1-1.033-1.034v-6.147a1.033 1.033 0 0 1 1.549-.894l5.324 3.073a1.032 1.032 0 0 1 0 1.788l-5.324 3.074a1.028 1.028 0 0 1-.516.14zm0-7.444a.274.274 0 0 0-.133.036.258.258 0 0 0-.131.227v6.147a.263.263 0 0 0 .394.228l5.324-3.074a.263.263 0 0 0 0-.454l-5.324-3.073a.256.256 0 0 0-.129-.038z" class="cls-9" transform="translate(-2914.719 -1322.309)"/>
            </g>
            <g id="그룹_6936">
                <path id="패스_7929" d="M2338.916 956.024H2313.5a.385.385 0 0 1-.385-.385v-16.432a.385.385 0 0 1 .385-.385h25.418a.385.385 0 0 1 .385.385v16.432a.385.385 0 0 1-.387.385zm-25.033-.77h24.648v-15.662h-24.648z" class="cls-9" transform="translate(-2313.113 -938.822)"/>
            </g>
            <g id="그룹_6938" transform="translate(.257 4.108)">
                <path id="패스_7931" d="M2353.828 1179.978h-25.418a.257.257 0 1 1 0-.513h25.418a.257.257 0 0 1 0 .513z" class="cls-9" transform="translate(-2328.153 -1179.465)"/>
            </g>
            <g id="그룹_6939" transform="translate(2.311 .257)">
                <path id="패스_7932" d="M2451.294 958.229a.257.257 0 0 1-.214-.114l-2.567-3.851a.257.257 0 0 1 .427-.285l2.567 3.851a.257.257 0 0 1-.213.4z" class="cls-9" transform="translate(-2448.469 -953.864)"/>
            </g>
            <g id="그룹_6940" transform="translate(5.135 .257)">
                <path id="패스_7933" d="M2616.736 958.229a.256.256 0 0 1-.214-.114l-2.567-3.851a.257.257 0 0 1 .427-.285l2.567 3.851a.257.257 0 0 1-.214.4z" class="cls-9" transform="translate(-2613.911 -953.864)"/>
            </g>
            <g id="그룹_6941" transform="translate(10.27 .257)">
                <path id="패스_7934" d="M2917.539 958.229a.256.256 0 0 1-.214-.114l-2.567-3.851a.257.257 0 1 1 .427-.285l2.568 3.851a.257.257 0 0 1-.213.4z" class="cls-9" transform="translate(-2914.714 -953.864)"/>
            </g>
            <g id="그룹_6942" transform="translate(13.094 .257)">
                <path id="패스_7935" d="M3082.981 958.229a.256.256 0 0 1-.214-.114l-2.567-3.851a.257.257 0 1 1 .427-.285l2.567 3.851a.257.257 0 0 1-.213.4z" class="cls-9" transform="translate(-3080.156 -953.864)"/>
            </g>
            <g id="그룹_6943" transform="translate(18.229 .257)">
                <path id="패스_7936" d="M3383.784 958.229a.257.257 0 0 1-.214-.114l-2.57-3.852a.257.257 0 1 1 .427-.285l2.573 3.852a.257.257 0 0 1-.214.4z" class="cls-9" transform="translate(-3380.96 -953.864)"/>
            </g>
            <g id="그룹_6944" transform="translate(21.053 .257)">
                <path id="패스_7937" d="M3549.226 958.229a.256.256 0 0 1-.214-.114l-2.567-3.851a.257.257 0 0 1 .427-.285l2.567 3.851a.257.257 0 0 1-.213.4z" class="cls-9" transform="translate(-3546.401 -953.864)"/>
            </g>
        </g>
    </g>
</svg>
