<svg xmlns="http://www.w3.org/2000/svg" width="20" height="15.983" viewBox="0 0 20 15.983">
  <g id="그룹_394" data-name="그룹 394" transform="translate(-224.242 -82.004)">
    <g id="그룹_393" data-name="그룹 393" transform="translate(-8.259 -8.333)">
      <path id="패스_53" data-name="패스 53" d="M435.632,563.248a.5.5,0,0,0,.672.732l3.392-3.113-.656-.746Z" transform="translate(-202.971 -464.042)"/>
      <path id="패스_54" data-name="패스 54" d="M458.835,540.242l.656.746,3.93-3.607-.681-.723Z" transform="translate(-222.77 -444.157)"/>
      <path id="패스_55" data-name="패스 55" d="M487.286,522.622c-.007-.007-.015-.011-.023-.017a.468.468,0,0,0-.041-.031l-.042-.024-.044-.021-.046-.016-.045-.011L487,522.5l-.047,0-.047,0-.047.007-.046.011-.046.016-.044.021a.471.471,0,0,0-.042.024.452.452,0,0,0-.041.031c-.007.006-.016.01-.023.017l-2.217,2.035.681.723,1.872-1.718,2.248,2.06.675-.728Z" transform="translate(-244.433 -432.156)"/>
      <path id="패스_56" data-name="패스 56" d="M516.5,538.865l-.675.728,3.782,3.466v-1.347Z" transform="translate(-271.067 -446.03)"/>
      <path id="패스_57" data-name="패스 57" d="M549.894,566.036l-2.807-2.572v1.347l2.136,1.958a.5.5,0,0,0,.671-.732Z" transform="translate(-297.554 -466.875)"/>
      <path id="패스_58" data-name="패스 58" d="M481.77,582.96v1.1h.993v-1.1a1.868,1.868,0,0,1,.526-1.3l-.643-.759A2.858,2.858,0,0,0,481.77,582.96Z" transform="translate(-242.204 -481.652)"/>
      <path id="패스_59" data-name="패스 59" d="M481.77,604.5l.883.8a.492.492,0,0,0,.11-.308v-3.42h-.993Z" transform="translate(-242.204 -499.175)"/>
      <path id="패스_60" data-name="패스 60" d="M455.892,580.238a.5.5,0,0,0-.993,0v2.847h.993Z" transform="translate(-219.431 -480.67)"/>
      <path id="패스_61" data-name="패스 61" d="M455.892,601.626H454.9v3.413a.5.5,0,0,0,.145.35l.848-.847Z" transform="translate(-219.431 -499.215)"/>
      <path id="패스_62" data-name="패스 62" d="M489.492,575.6a2.857,2.857,0,0,0-1.993.81l.643.759a1.87,1.87,0,0,1,2.54-.149l.554-.824A2.85,2.85,0,0,0,489.492,575.6Z" transform="translate(-247.06 -477.158)"/>
      <path id="패스_63" data-name="패스 63" d="M456.7,620.717l-.848.847a.494.494,0,0,0,.352.146h4.1a.493.493,0,0,0,.387-.188l-.883-.8Z" transform="translate(-220.238 -515.39)"/>
      <path id="패스_64" data-name="패스 64" d="M540.587,600.428l.848.847a.5.5,0,0,0,.145-.35V596.77h-.993Z" transform="translate(-292.047 -495.101)"/>
      <path id="패스_65" data-name="패스 65" d="M540.587,570.974h.993v-3.741l-.993-.91Z" transform="translate(-292.047 -469.299)"/>
      <path id="패스_66" data-name="패스 66" d="M513.818,601.579h-.993V605a.493.493,0,0,0,.18.38l.813-.876Z" transform="translate(-268.519 -499.175)"/>
      <path id="패스_67" data-name="패스 67" d="M510.015,581.774a2.862,2.862,0,0,0-1.125-2.272l-.554.824a1.872,1.872,0,0,1,.686,1.448v1.1h.993Z" transform="translate(-264.716 -480.466)"/>
      <path id="패스_68" data-name="패스 68" d="M514.818,620.717l-.813.876a.491.491,0,0,0,.316.117h4.241a.5.5,0,0,0,.352-.146l-.848-.847Z" transform="translate(-269.522 -515.39)"/>
      <path id="패스_69" data-name="패스 69" d="M541.58,534.361a.5.5,0,1,0-.993,0v4.462l.993.91v-5.372Z" transform="translate(-292.047 -441.791)"/>
    </g>
  </g>
</svg>
