<svg xmlns="http://www.w3.org/2000/svg" id="그룹_6935" width="29.528" height="29.528" viewBox="0 0 29.528 29.528">
    <defs>
        <style>
            .cls-1{fill:#1c1c1c}.cls-3{fill:#ff8c3f}
        </style>
    </defs>
    <g id="그룹_6963">
        <g id="그룹_6953" transform="translate(4.124 9.064)">
            <path id="패스_7944" d="M605.379 997.7a.423.423 0 0 1-.337-.166 9.289 9.289 0 0 0-1.1-1.2.425.425 0 1 1 .573-.627 10.075 10.075 0 0 1 1.2 1.306.425.425 0 0 1-.079.6.42.42 0 0 1-.257.087zm-13.5-1.772a.425.425 0 0 1-.26-.762q.168-.129.339-.249a.425.425 0 1 1 .489.695c-.1.074-.208.15-.309.228a.423.423 0 0 1-.26.091zm11-.507a.426.426 0 0 1-.226-.065q-.23-.145-.466-.276a.425.425 0 0 1 .411-.744q.258.143.509.3a.425.425 0 0 1-.227.784zm-9.214-.583a.425.425 0 0 1-.18-.809 9.985 9.985 0 0 1 1.665-.605.425.425 0 0 1 .218.821 9.138 9.138 0 0 0-1.523.554.422.422 0 0 1-.176.042zm7.174-.389a.422.422 0 0 1-.136-.023 9.321 9.321 0 0 0-1.577-.384.425.425 0 1 1 .128-.84 10.169 10.169 0 0 1 1.721.419.425.425 0 0 1-.136.828zm-3.908-.479a.425.425 0 0 1-.034-.848q.295-.024.59-.032a.442.442 0 0 1 .435.414.425.425 0 0 1-.414.435q-.271.007-.541.029z" class="cls-1" transform="translate(-591.453 -993.092)"/>
        </g>
        <g id="그룹_6954" transform="translate(15.085 23.788)">
            <path id="사각형_2801" fill="#b7bcc0" d="M0 0H13.593V2.265H0z" transform="translate(.425 .425)"/>
            <path id="패스_7945" d="M1187.38 1777.852h-13.593a.425.425 0 0 1-.425-.425v-2.265a.425.425 0 0 1 .425-.425h13.593a.425.425 0 0 1 .425.425v2.265a.425.425 0 0 1-.425.425zm-13.168-.85h12.743v-1.416h-12.743z" class="cls-1" transform="translate(-1173.362 -1774.737)"/>
        </g>
        <g id="그룹_6955" transform="translate(15.085 18.69)">
            <path id="패스_7946" d="M1209.531 1531.758h-13.593v-2.266a2.832 2.832 0 0 1 2.832-2.832h7.93a2.832 2.832 0 0 1 2.831 2.832z" class="cls-3" transform="translate(-1195.513 -1526.235)"/>
            <path id="패스_7947" d="M1187.38 1510.062h-13.593a.425.425 0 0 1-.425-.425v-2.266a3.261 3.261 0 0 1 3.257-3.257h7.93a3.261 3.261 0 0 1 3.257 3.257v2.266a.425.425 0 0 1-.426.425zm-13.168-.849h12.743v-1.841a2.41 2.41 0 0 0-2.407-2.407h-7.93a2.41 2.41 0 0 0-2.407 2.407z" class="cls-1" transform="translate(-1173.362 -1504.115)"/>
        </g>
        <g id="그룹_6956" transform="translate(19.616 16.425)">
            <path id="사각형_2802" fill="#ffd2b3" d="M2.18 0h1.3a2.18 2.18 0 0 1 2.18 2.18v.085H0V2.18A2.18 2.18 0 0 1 2.18 0z" transform="translate(.425 .425)"/>
            <path id="패스_7948" d="M1420.011 1386.975h-5.664a.425.425 0 0 1-.425-.425v-1.133a1.559 1.559 0 0 1 1.557-1.557h3.4a1.559 1.559 0 0 1 1.558 1.557v1.133a.425.425 0 0 1-.426.425zm-5.239-.85h4.814v-.708a.708.708 0 0 0-.708-.708h-3.4a.709.709 0 0 0-.708.708z" class="cls-1" transform="translate(-1413.923 -1383.86)"/>
        </g>
        <g id="그룹_6957" transform="translate(19.696)">
            <path id="패스_7949" d="M1445.134 550.861h-3.4l-1.052-14.082a2.266 2.266 0 0 1 2.264-2.343h.974a2.265 2.265 0 0 1 2.264 2.343z" class="cls-3" transform="translate(-1440.258 -534.011)"/>
            <path id="패스_7950" d="M1423.041 529.163h-3.4a.425.425 0 0 1-.424-.393l-1.052-14.081a2.69 2.69 0 0 1 2.688-2.8h.974a2.69 2.69 0 0 1 2.689 2.783l-1.053 14.1a.425.425 0 0 1-.422.391zm-3-.849h2.61l1.023-13.689a1.842 1.842 0 0 0-1.84-1.887h-.974a1.841 1.841 0 0 0-1.839 1.9z" class="cls-1" transform="translate(-1418.165 -511.888)"/>
        </g>
        <g id="그룹_6958" transform="translate(0 8.702)">
            <circle id="타원_170" cx="7.363" cy="7.363" r="7.363" fill="#6996fc" transform="rotate(-45 12.57 5.207)"/>
            <path id="패스_7951" d="M519.675 1128.812a7.788 7.788 0 1 1 7.788-7.788 7.8 7.8 0 0 1-7.788 7.788zm0-14.726a6.938 6.938 0 1 0 6.938 6.938 6.946 6.946 0 0 0-6.938-6.939z" class="cls-1" transform="translate(-509.262 -1110.611)"/>
        </g>
        <g id="그룹_6960" transform="translate(5.74 16.157)">
            <g id="그룹_6959">
                <path id="패스_7952" fill="#ededed" d="M703.209 1397.607a1.129 1.129 0 0 1-.8-.332l-2.266-2.265a1.133 1.133 0 0 1 1.6-1.6l1.464 1.464 3.164-3.163a1.132 1.132 0 0 1 1.6 1.6l-3.965 3.965a1.129 1.129 0 0 1-.797.331z" transform="translate(-699.386 -1390.967)"/>
                <path id="패스_7953" d="M681.086 1376.665a1.547 1.547 0 0 1-1.1-.457l-2.266-2.265a1.557 1.557 0 0 1 0-2.2 1.6 1.6 0 0 1 2.2 0l1.164 1.164 2.863-2.863a1.594 1.594 0 0 1 2.2 0 1.558 1.558 0 0 1 0 2.2l-3.965 3.965a1.547 1.547 0 0 1-1.096.456zm-2.266-4.531a.708.708 0 0 0-.5 1.209l2.265 2.266a.725.725 0 0 0 1 0l3.965-3.965a.707.707 0 0 0 0-1 .724.724 0 0 0-1 0l-3.164 3.164a.425.425 0 0 1-.6 0l-1.464-1.464a.7.7 0 0 0-.502-.21z" class="cls-1" transform="translate(-677.263 -1369.6)"/>
            </g>
        </g>
        <g id="그룹_6961" transform="translate(20.183 21.522)">
            <path id="패스_7954" d="M1452.908 1655.308h-2.265a.425.425 0 1 1 0-.849h2.265a.425.425 0 1 1 0 .849zm-3.965 0h-.566a.425.425 0 1 1 0-.849h.566a.425.425 0 1 1 0 .849zm-2.265 0h-2.266a.425.425 0 1 1 0-.849h2.266a.425.425 0 1 1 0 .849z" class="cls-1" transform="translate(-1443.988 -1654.459)"/>
        </g>
        <g id="그룹_6962" transform="translate(22.448 2.266)">
            <path id="패스_7955" d="M1564.692 635.284a.425.425 0 0 1-.425-.425v-2.265a.425.425 0 1 1 .849 0v2.265a.425.425 0 0 1-.424.425z" class="cls-1" transform="translate(-1564.267 -632.169)"/>
        </g>
    </g>
</svg>
