<svg xmlns="http://www.w3.org/2000/svg" width="671.318" height="729.409" viewBox="0 0 671.318 729.409">
    <defs>
        <style>
            .cls-1{fill:#fff;stroke:#e7e7e7;stroke-miterlimit:10;fill-rule:evenodd}
        </style>
    </defs>
    <g id="그룹_582" transform="translate(-16.7 -143.231)">
        <g id="그룹_581" transform="translate(17.198 143.904)">
            <path id="패스_5389" d="M607.24 282.413c-.4 2.022.869 2.022-1.5 2.2s-1.446-.925-3.873.288-2.484 1.675-3.524 1.735-1.735-1.791-2.08.577-2.369 2.369.345 4.1 2.429.867 3.411 2.368.057 2.023 2.31 2.081 2.775-.52 4.162-2.081 1.386-.751 2.194-1.791.406-1.271.521-3.12.4-1.387.4-2.948a7.984 7.984 0 0 0-.576-3.409c-.462-1.271-.462-1.5-.752-1.387s-1.042 1.387-1.042 1.387zM335.618 143.9a5.876 5.876 0 0 0 .995 3.573c1.5 2.485 2.716 1.734 4.045 5.258s2.89 6.127 4.45 9.535 4.392 8.611 4.623 9.131 1.445 6.3 2.832 8.725 3 3.236 3.929 6.126-.578 2.08 1.849 6.24 3.12 2.89 3.93 6.588 1.155 4.161 1.5 5.663.116 4.853 2.89 7.627 2.89 2.543 4.969 6.241 1.965 4.622 4.855 7.512 2.89 2.2 4.276 5.547 1.387 6.356 2.658 7.627 3.7 2.658 4.969 4.507a15.893 15.893 0 0 0 3.814 4.046c1.733 1.387 1.5 1.387 3.7 4.045s1.387 2.2 3.352 4.161a95.466 95.466 0 0 1 7.973 8.9c1.5 2.2 2.659-.116 3.121 3.813s0 5.085 1.155 7.512 1.733 1.965 3.814 5.2 2.658 2.2 3 5.547 0 3.236 1.735 5.2.464 1.849 3.236 4.969 3.813 3.929 4.969 6.818 3.005 4.392 4.507 6.473 1.85 1.964 2.543 4.391.693 3.351 2.2 4.737 4.045 3.468 4.391 6.472 1.04 4.623.81 7.282a9.607 9.607 0 0 0 1.271 6.587c.171.313.329.6.477.862a34.706 34.706 0 0 0-5.369 1.259c-2.429.983-2.6 2.948-5.721 5.663s-1.735 2.6-1.735 6.184-1.559 1.213-5.085.867-3.177-2.023-6.181-4.97-1.214-.693-5.03 0-.576 1.33-4.852 1.619-3.814-.464-5.836-.346a6.9 6.9 0 0 1-5.028-1.272c-1.33-1.1-.981-.115-2.888 1.33s-2.659.981-3.3 0 .117-1.445-.29-3.063-1.848-1.04-5.141-3.178-2.486-.346-5.144.288-2.138 1.561-2.2 3.468.7 2.369.233 3.582a5.732 5.732 0 0 0-.174 3.468c.232 1.617-1.04.635-2.888.635a7.743 7.743 0 0 1-5.434-2.888c-.907-1.156-2.111-1.044-3.481-.17-1.071-1.569-.87-1.075-2.255-2.336-1.616-1.473-2.86-.26-5.721-.433s-4.507-1.243-4.737-1.647a29.978 29.978 0 0 0-4.392-2.89c-1.559-.925-1.675.4-4.276.809s-3 .578-4.161.232-2.022-2.427-3-4.913-2.023-1.444-5.027-.867-2.369 2.253-6.934 1.387-.462-2.888.288-4.219 4.392-3.293 5.143-5.374-2.89-.288-5.085.982-3.7-1.619-5.316-2.948-2.427-1.5-3.352-1.387-3.005 3.467-5.489 3.178-1.619-.751-5.085.348-3.063 2.658-5.779 3.062-1.561-.693-2.08-4.623-3.412-3.814-5.666-3.756-4.565 3.352-4.449 4.913.288 4.217-.636 6.3-2.081 1.791-4.449 1.5-2.255-.058-5.085.867-2.774 1.04-6.126-.29-3.236-2.542-4.524-5.708c.329-.872-.036-1.58.073-2.445.174-1.387 2.484-4.334 2.946-7.975a31.155 31.155 0 0 0 .4-6.01c0-2.426-.288-1.965-.577-4.507s1.7-4.739 1.733-5.143-.2-1.156 1.387-3.526.635-2.514.809-3.9-1.561-4.421-1.561-4.421-1.849-.751-2.138-1.878 1.993-2.225 2.225-2.918 3.351-1.272 5.229-2.023 1.04-2.2-.434-3.266-1.271-1.79-1.907-2.512-1.444-.492-3.987-.838-1.243-.722-2.946-1.589-2.024.576-3.353.576-3.12-1.791-4.1-3.352-5.547-3.524-8.611-4.391-2.2 1.5-3.871 1.849-2.255-.462-1.849-3.872.231-3.813.693-4.391a4.687 4.687 0 0 0 .809-3.178c-.231-1.04-1.445-.232-4.1-.694s-.52-.635-.4-1.733 1.733-2.543 2.427-3.756-.174-1.675-.752-2.774a11.615 11.615 0 0 1-1.849-4.161c-.23-1.792.52-1.675 1.677-3s1.965-1.85 3.294-3.584 1.733-.4 4.218-2.253 1.559-4.911 1.213-8.149-.867-1.155-4.507-2.6-1.04-1.1-2.253-3.41-.636-.693-6.82-2.369-3.582-4.449-3.871-5.258a14.668 14.668 0 0 1-.348-5.317c.232-2.369-.519-2.369-2.311-3.871s-2.022-.174-5.316.4-2.717 1.1-4.276 1.791-1.213-1.1-2.138-1.791-1.734-.52-2.485-4.276.462-2.89-2.832-4.449-1.561 2.426-4.507 3.12-1.04-1.619-2.948-4.045-1.617-.694-1.907 1.387-.751 5.547-1.271 6.472-1.561.288-3.872-1.561a23.85 23.85 0 0 0-4.391-3.12c-3.872-2.485-2.2-.462-3.178-1.85s-.116-3.235-1.849-4.911-1.965-3.236-3.294-4.565a5.378 5.378 0 0 1-.629-.754c3.82-2.662 4.993-5.1 7.781-6.992 2.891-1.965 3.7-2.427 8.669-2.89s3.467-1.271 9.014-1.733 2.427 1.5 5.779 1.039 4.161-1.5 6.356-1.617 3.294-.462 6.53 1.214a22.749 22.749 0 0 0 7.05 2.08 51.261 51.261 0 0 0 7.05-2.2c2.023-.983 1.04-2.659 4.219-1.5s3.582 2.369 5.837 2.023 5.662-2.253 8.783-2.6 3.293-1.907 5.835.635 2.427 5.663 4.971 3.7 4.333-3 6.182-2.774 4.334 1.388 7.282 1.619 4.046.346 7.628.52 6.587-.694 7.858-1.619.52-1.5 3.469-2.023 3.524-2.194 5.142-3.409a19.658 19.658 0 0 0 3.7-3.12c1.619-1.735 1.675-2.543 3.179-3.93s2.6-2.774 2.83-4.161 2.2-3.872 2.427-8.553-.52-4.8.29-8.205-2.66-4.276 2.425-5.489c.926-.212 1.916-.49 2.918-.802z" class="cls-1" transform="translate(23.585 -143.904)"/>
            <path id="패스_5390" d="M265.558 300.748c1.288 3.166 1.174 4.379 4.524 5.708s3.294 1.214 6.126.29 2.716-1.156 5.085-.867 3.524.577 4.449-1.5.751-4.739.636-6.3 2.2-4.855 4.449-4.913 5.146-.173 5.666 3.756-.636 5.027 2.08 4.623 2.311-1.965 5.779-3.062 2.6-.636 5.085-.348 4.565-3.062 5.489-3.178 1.732.058 3.352 1.387 3.12 4.219 5.316 2.948 5.836-3.062 5.085-.982-4.391 4.045-5.143 5.374-4.853 3.352-.288 4.219 3.929-.809 6.934-1.387 4.045-1.617 5.027.867 1.849 4.566 3 4.913 1.561.173 4.161-.232 2.717-1.733 4.276-.809a29.977 29.977 0 0 1 4.392 2.89c.231.4 1.879 1.473 4.737 1.647s4.105-1.04 5.721.433c1.384 1.261 1.183.767 2.255 2.336a11.862 11.862 0 0 0-1.718 1.383c-2.081 1.965-3.179.578-5.547.925s-2.369 2.138-3.352 5.374-4.161 3.41-5.489 4.913-4.276 1.791-6.184 4.276-1.5 3.582-1.561 5.894.058.925 1.04 4.449-.751 3.814-3.352 5.663-5.777 1.04-6.239 1.271.116.694-2.311.52-2.832-1.271-3.582-3-2.2-3.006-4.509-4.161-1.444.23-2.136 1.387-.925 3.178-2.775 4.161-3.756-.4-6.356-1.677-1.619.058-2.2.578-2.89 2.832-5.779 2.774-1.155 1.791-2.08 3.063-.868 2.022-.752 3.929 1.561 2.6 2.427 4.276-1.329 1.04-3.872 1.619-3.351-1.5-7.049-2.311-2.2.925-3.584 3.467-1.617 1.387-5.316 2.2-.694.462-.809 3.929-3.352 0-3.814 3.352-1.387 2.658-2.311 3.235a10.409 10.409 0 0 0-2.774 2.775c-1.04 1.387 1.965 1.5 3.7 1.5s2.427 1.733 3.466 2.888a59.369 59.369 0 0 1 4.046 5.085c.462.81-.462 3.005-2.774 4.046s0 2.2.115 5.547.694 2.2-.577 3.467-.348 2.427 1.271 4.855-.4 5.027-.4 5.027a11.93 11.93 0 0 1-2.832 4.911c-2.023 1.907-.636 1.965.751 3.93s1.387.867 3.294-.232 1.213-.809 3.64-.693.867 1.675 1.733 2.426 4.219 1.1 4.219 1.1 5.085-1.965 6.414-1.849.694.751-.057 2.774.057.982.635 2.716.346 1.907-.635 4.1-.694-.058-1.849-.867-1.561.4-3.063 1.965-.058 2.658.29 5.894-.752.52-1.156 3.236-1.849 3.64-2.485 5.259-.635 1.791-1.271 3.64-2.6.462-4.507 2.2a14.28 14.28 0 0 0-3.178 3.294l-.216.291c-.37-.457-.734-.918-1.032-1.355-1.011-1.474-2.89-.52-4.306-.492s-1.213.694-2.023 1.127a8.064 8.064 0 0 1-3.148.9c-2.109.376-.752-.116-1.069-.78s-.925-.607-1.907-.78-3.12-.635-3.669-1.7-1.446-1.444-2.891-1.646-1.1 1.127-2.6 2.022c-.059.035-.118.069-.177.1-.289-.5-.6-1.065-.92-1.726-1.386-2.89-1.329-1.387-3.062-2.658s-.232-1.214-.578-3.756-1.04-1.214-2.946-3.41-.462-.925-.174-3.12.462-4.507.578-5.375a17.93 17.93 0 0 1 .4-2.658c.4-1.965-.578-1.849-1.156-3s-.115 0-2.774-.982-.751-.4-3.062-1.214-1.561.232-2.543.983-1.387-.058-3.7-1.329.058-.751.348-1.733 1.1-1.329 1.559-3.005c.424-1.534-.413-1.567-1.044-2.049.07-.409-.231-.748-.34-1.818-.17-1.673-.231-.983-.751-2.427a1.571 1.571 0 0 1 .164-1.559 5.7 5.7 0 0 0 2.924-.525 2.553 2.553 0 0 0 1.791-1.589c.462-1.185 1.907-4.623 2.34-4.566s.752-2.08 1.214-3.785.115-1.763-.752-3-1.415.231-2.051.722-.52.925-1.1 2.08-.318 1.1-.954 1.243-.751-.838-1.011-2.109a20.31 20.31 0 0 1-.086-3.236c-.088-1.213-1.995-1.589-3.728-1.849s-.78.867-.867 1.617-1.821.434-3.7-.057-.664-.608-1.1-1.561-.144-2.138-.953-3.322-1.5-.434-2.543-1.012-1.329-.837-1.243-2.166-.954-1.156-.809-2.138.751-.954.809-2.139-.954-.751-2.253-1.907-1.5-1.011-2.341-1.791a10.463 10.463 0 0 1-2.946-3.206c-1.011-1.849.057-1.821.174-2.832s-.694-1.156-1.677-2.109-1.7-.78-2.023-2.051.983-.81 1.358-1.677.9-1.011 1.589-1.733.4-.925.52-2.08a4.213 4.213 0 0 1 .925-2.717 27.8 27.8 0 0 1 3.236-3.845c1.212-1.243.721-.983 1.1-1.907s.867-.578 1.849-.722 1.416.434 2.081.751a5.987 5.987 0 0 0 2.167.983c.981.116.375-.231 1.1-1.069s.03-.78-.4-1.763-1.185-1.935-.9-3.495-.578-1.561-2.368-2.427-2.659-.52-3.988-2.081-.52-1.617-.52-2.832-.925-.867-2.022-1.906-1.33-1.5-2.427-3.93c-.636-1.4-.71-1.571-.895-1.719a6.287 6.287 0 0 0 1.663-1.421c.288-.635-.058-.923.577-1.675s2.253-1.329 2.89-2.139 3.7-1.328 5.027-2.484 1.445-1.675 1.214-2.369.116-1.1.174-2.022 1.849-.752 2.484-.752a4.5 4.5 0 0 0 3.236-2.253c1.04-1.675 1.1-2.6 1.617-3.178s.983-.983 2.716-1.156a7.018 7.018 0 0 0 2.891-.578c1.1-.462 2.888.81 4.161.925s1.559-1.848 2.2-3.062 2.772-.867 4.449-2.542 1.561-2.6 1.907-4.508.52-2.888 1.5-4.1 1.272.752 1.792 1.214 2.2-.116 3.294-1.619.577-2.2 3.12-4.1a4.338 4.338 0 0 0 1.608-1.871z" class="cls-1" transform="translate(28.749 -109.166)"/>
            <path id="패스_5391" d="M214.069 185.106a5.378 5.378 0 0 0 .629.754c1.329 1.329 1.559 2.89 3.294 4.565s.867 3.524 1.849 4.911-.694-.635 3.178 1.85a23.85 23.85 0 0 1 4.391 3.12c2.311 1.849 3.352 2.485 3.872 1.561s.983-4.392 1.271-6.472 0-3.814 1.907-1.387 0 4.739 2.948 4.045 1.213-4.681 4.507-3.12 2.08.693 2.832 4.449 1.559 3.582 2.485 4.276.578 2.485 2.138 1.791.983-1.213 4.276-1.791 3.524-1.907 5.316-.4 2.543 1.5 2.311 3.871a14.668 14.668 0 0 0 .348 5.317c.288.809-2.311 3.582 3.871 5.258s5.605.058 6.82 2.369-1.387 1.965 2.253 3.41 4.161-.636 4.507 2.6 1.272 6.3-1.213 8.149-2.89.52-4.219 2.253-2.138 2.253-3.294 3.584-1.907 1.212-1.677 3a11.615 11.615 0 0 0 1.849 4.161c.578 1.1 1.446 1.561.752 2.774s-2.311 2.658-2.427 3.756-2.253 1.271.4 1.733 3.872-.346 4.1.694a4.687 4.687 0 0 1-.809 3.178c-.462.578-.288.983-.693 4.391s.173 4.219 1.849 3.872.809-2.716 3.871-1.849 7.628 2.832 8.611 4.391 2.774 3.352 4.1 3.352 1.648-1.442 3.353-.576.4 1.243 2.946 1.589 3.352.116 3.987.838.434 1.444 1.907 2.512 2.311 2.515.434 3.266-5 1.329-5.229 2.023-2.514 1.79-2.225 2.918 2.138 1.878 2.138 1.878 1.735 3.034 1.561 4.421.78 1.532-.809 3.9-1.357 3.121-1.387 3.526-2.023 2.6-1.733 5.143.577 2.081.577 4.507a31.155 31.155 0 0 1-.4 6.01c-.462 3.64-2.773 6.588-2.946 7.975s.867 2.369-1.675 4.276-2.023 2.6-3.12 4.1-2.774 2.081-3.294 1.619-.81-2.427-1.792-1.214-1.155 2.2-1.5 4.1-.231 2.833-1.907 4.508-3.814 1.329-4.449 2.542-.925 3.178-2.2 3.062-3.063-1.387-4.161-.925a7.018 7.018 0 0 1-2.891.578c-1.733.174-2.2.578-2.716 1.156s-.577 1.5-1.617 3.178a4.5 4.5 0 0 1-3.236 2.253c-.635 0-2.427-.173-2.484.752s-.406 1.329-.174 2.022.115 1.214-1.214 2.369-4.391 1.675-5.027 2.484-2.253 1.388-2.89 2.139-.288 1.04-.577 1.675a6.287 6.287 0 0 1-1.663 1.421 4.652 4.652 0 0 1-.838-.767c-1.214-1.329-2.2-1.329-4.046-2.138s-2.426-1.387-3.756-2.023-1.1-1.155-1.445-2.484-2.426-1.329-4.623-1.561a9.127 9.127 0 0 0-4.278.578 2.207 2.207 0 0 0-.809 1.473c-.1.651-.26 1.185-.535 1.33a9.639 9.639 0 0 1-2.528.129c-1.04-.028-1.011.361-1.863.607a9.826 9.826 0 0 1-3.439.636 21.822 21.822 0 0 0-3.125-.033 6.394 6.394 0 0 0 .159-1.55c.058-1.271-.809-2.08-.174-2.716s.578-.923 1.791-1.155 2.369 0 2.543-1.271a1.789 1.789 0 0 0-.462-1.734s-1.329-.058-1.791.462.232.462-1.907.694-2.2.231-2.658 1.04-.52.867-.232 2.542 1.675 2.081.232 3.352-3.179.925-4.8.867-1.617.4-2.83.058a3.627 3.627 0 0 1-2.717-1.791c-.751-1.272-.116-1.214-1.445-2.6s-1.675-2.2-2.485-2.946-1.444-.23-2.368-2.023.925-1.617 1.619-2.022 1.387-.232 3.12-.694 2.2.694 2.716-1.156-.232-2.83-.346-4.159a11.489 11.489 0 0 1-.116-2.832 9.767 9.767 0 0 0 .116-2.427c-.116-.4-.174-1.5-.694-.867a3.8 3.8 0 0 0-.809 2.542 5.588 5.588 0 0 1-.288 2.485c-.406.983-1.156 1.329-1.33 2.138s-.288 1.733-.288 1.733.116 1.1-.693.579-.752-1.965-1.446-2.081a2.6 2.6 0 0 0-1.733.577c-.346.232.232.348-.751.694s-.809.348-1.1-.346.81-.983-.635-.983a10.068 10.068 0 0 0-2.717.4 1.146 1.146 0 0 1-.809-.925c-.116-.751.116-.982 1.1-1.849s2.6-1.444 1.04-2.311-2.369-.232-1.733-1.965.751-2.832 1.1-3.64-.232-1.271 2.139-1.271 1.849-.925 3.178-1.329 1.155-.058 2.832-.4 2.136.636 2.022-1.33-.232-3-.809-3a5.833 5.833 0 0 0-3.005 1.387c-.693.751-2.311 1.849-2.774.462s-.346-3.352-1.675-2.716a26.979 26.979 0 0 0-2.948 1.617c-1.039.636-1.039-.231-1.5 1.156s-.117 1.791-1.908 2.484-2.022 1.619-3.119 1.908-2.775.4-2.081-.694 1.561-3 1.271-3.236.346-1.791-1.156-1.1-2.31 1.561-2.772.694-1.156-1.1-.29-1.849a8.379 8.379 0 0 1 2.89-1.907c1.387-.52 2.022-1.271 2.832-1.561s1.906-1.559.462-1.907-1.733-.52-2.427-.058-1.791 1.04-1.907-.4.462-2.484-.174-2.774-1.039.29-1.039-.809-1.387-1.677.635-2.08 1.445-.868 2.6-.983 1.155-.232 2.542.983 1.791 2.484 2.89 2.716-.173-1.272 2.081.52 2.89 2.368 3.12 1.329a12.342 12.342 0 0 0-.058-2.948c0-.867-1.445-1.387.346-1.617s1.965-1.214 2.6-1.849-.694-1.907.925-.81.809 1.214 2.253 2.139 2.774-.29 2.427-.982-.984-.29-1.677-1.907a9.063 9.063 0 0 1-.751-2.832s.809-.867-.694-.4-1.271 1.617-2.022 1.617-.925-.288-3.526-.577-1.444.52-2.2-1.156.4-1.907-1.1-2.022a19.7 19.7 0 0 1-3.757-.348c-.809-.288-2.715-.809-1.733-1.907s1.04-.693 2.485-1.5 1.965.288 1.733-2.139c-.157-1.641 0-2.277-.411-2.607 1.269-2.753 1.269-1.828 2.539-4.256s1.271-2.08 1.5-4.161 1.849-2.311.231-3.813-4.969-3.582-4.507-5.9.809-4.623-.694-5.662-1.378-3.32-5.663-3.93c-2.251-.32-3.542-.911-5.014-1.063a6.121 6.121 0 0 0-.93-.394c-2.426-.81-3.582-.694-4.738-1.735s-3.236-2.2-3.352-3.929-.231-2.427-.462-4.392.288-2.427.116-5.027-.174-2.427-.232-3.584.636-3.293 1.04-3.178-.346.462 1.387.81a6.89 6.89 0 0 0 3.987.115c2.485-.4 4.161-1.328 5.085-.693s1.561-.752 1.965 1.445a11.524 11.524 0 0 1 .174 5.2c-.406 1.5-.578.519-.578 2.426s.809 3.526 1.617 3.93 1.5-.173 3.179 1.677-.231 1.155 1.677 1.965 2.715.4 2.138-.29.983.174-1.445-1.675-2.542-1.675-3.178-2.543-1.445-1.039-1.5-2.774-.925-.867.174-2.542 1.444-1.907 1.559-2.716.058.116-.346-1.965-1.5-2.023-1.155-4.276-.174-1.155.519-3.178a14.178 14.178 0 0 0 .579-4.507s.047-1.414-.711-.667a7.153 7.153 0 0 0 .689-3.977c-.174-2.6-.462-7.4-.058-9.015s-.923-2.311 1.677-2.716 3.582.174 5.547-.982a10.839 10.839 0 0 0 3.236-3.178c.462-.52 6.82-4.794 7.282-7.453s-.231-4.391 1.271-6.356 1.849-3.12 4.623-4.391 4.739-.578 5.547-5.547-.809-6.357 3.352-9.131c.145-.1.287-.192.424-.288zM195.452 272.8c-1.1-1.1-1.271-2.542-2.774-1.617s-1.213.52-1.907 2.253.173.752 1.039 2.542 2.139 2.081 2.2 3.3a10.155 10.155 0 0 0 .462 3.755c.636 2.2 1.5 3.7 2.832 3.294a2.9 2.9 0 0 1 3.12 1.33c.232.693-.578 3.987 3.41 4.68s4.1 1.04 5.374-.115 3.178-2.717 5.143-2.081 1.85 2.022 3.524 2.311 2.2-.867 3.988-1.675a6.153 6.153 0 0 0 2.948-3.64c.116-.636 3.294-3.179 4.276-3.642s-.058-.809 1.155-2.311 2.427 0 2.658-2.484-.751-4.681-1.906-3.872-.926 1.733-3.41 1.387-3.987-1.213-3.12-2.774 1.156-2.253.173-4.449-1.906-1.214-1.445-5.317 2.774-4.565-.057-5.259-2.427-2.542-4.913-1.039-4.507.809-5.374 2.832a27.753 27.753 0 0 0-1.271 4.045c-.462 1.445-3.005 2.542-3.005 2.542s-2.717-.809-3.756.983-1.04 2.369-1.791 3.294.4 2.543-2.89 2.6-3.7-.058-3.872-.346a1.982 1.982 0 0 0-.809-.52zm-17.342 71.441s-.348.116-1.5.434-.03 1.069.086 1.763 2.138.549 3.236.664.52-.376.838-1.272-.058-.115-.809-.895-.838-.52-1.849-.694zm-72.811-.607c.028.491-.29 1.069.26 1.445a2.808 2.808 0 0 0 1.271.491c.491.116.491-1.127.664.26s-.462 1.561-.752 1.531a1.51 1.51 0 0 1-1.589-.376c-.837-.751-1.964-1.213-1.964-1.906s-.55-1.3.549-1.532a2.131 2.131 0 0 1 1.561.087zm-3.7-6.82c.232.578.838-.028.261.925s-.983 1.04-.838 1.416.52.664.2.925-.462.9-1.04.26-.838.116-.81-1.069-.028-1.879.492-2.109a7.9 7.9 0 0 1 1.733-.348zm6.082 2.818c-.058.174-.26.26-.131.737s-.231.693.391.766.664-.174.823-.622.187-.807-.088-.852a8.97 8.97 0 0 0-1-.028zm.6-7.844c-.187.332-.36.274-.245.751s-.549.433.245.593 1.257.274 1.272-.391.159-.968-.361-1.127a1.023 1.023 0 0 0-.911.174zm-3.683-9.275c-.232.636-.376.232-.29.81s.376.693-.288 1.069-.867-.4-.722.52-.028 1.445.809 1.271 1.791-.144 2.023-.838a2.949 2.949 0 0 0 .26-1.762c-.144-.664.088-.9-.664-1.012a4.2 4.2 0 0 0-1.127-.058zm8.932 13.087c-.664.636-1.329.694-1.011 1.185a4.3 4.3 0 0 1 .809 1.791c.116.78-.376 1.445.52 1.011s.809-.288 1.3-.925 1.127-1.5.116-2.34-1.04-.953-1.387-.838l-.346.116zm2.716-10.487c-.2.2-1.415.057-.52 1.328s.346 1.907 1.531 1.532 1.791-.462 1.387-1.589-.693-1.416-1.069-1.5a3.9 3.9 0 0 0-1.329.232zm-1.04-14.1c1.156.23 1.821.346 2.023.953s-.752.26.867 1.445a32.166 32.166 0 0 1 3.15 2.86c1.241 1.1.317 1.156 1.7 2.109s1.012.318 2.4 1.937 1.82 3.467 1.185 3.12-1.965-1.647-2.918-1.849.058.028-1.907.144-2.253.578-3.236-.318-1.647-1.271-1.879-2.716-.837-.722-.288-2.253.664-1.935.058-2.687-.751-.895-1.012-.953-.981-.086-.953-.664.809-1.127.809-1.127zm15.861 13.787a6.985 6.985 0 0 1 2.774.608c1.214.577 1.272.26 1.589 1.357s.984 1.935.954 3.322-.086 2.89-.607 2.369-.925-.809-.983-1.559.694-.867-.346-1.965-.348-1.156-1.33-1.271-1.82.115-2.253-.52-1.039-1.214-1.011-1.619 1.213-.722 1.213-.722zm6.5 1.5s-.549 0 0 .809.722.492 1.1 1.272.549 1.445 1.127 1.127.809-.81.549-1.677-.174-1.473-.722-1.675a3 3 0 0 0-1.243-.26 1.212 1.212 0 0 0-.809.4zm9.823 8.321c.346.375.086.52.867 1.069s1.07.086 1.04 1.011.549 2.081-.953 1.358-2.167-.462-2.167-1.271-.809-2.139.028-2.225a2.707 2.707 0 0 1 1.185.058zm.34-17.048c-.343.224-.462.211-.423.449s-.648.133.145.464.807.45 1.149.2c.231-.26-.1-1.6-.29-1.46a4.965 4.965 0 0 1-.582.348zm-10.37-3.844a3.238 3.238 0 0 1 1.619.78 2.744 2.744 0 0 0 2.08.867c1.5.145 2.427-.635 2.716.058s1.821 1.647-.115 1.993-2.629.953-3.294.174.346-1.213-1.1-1.445a6.433 6.433 0 0 1-1.907-.462c-.375-.144-1.127-.116-1.271-1.1s-.318-1.358.028-1.33a6.061 6.061 0 0 1 1.243.462zm18.433-1.185a9.8 9.8 0 0 1-1.531 1.127c-.288.058-.693-.348-1.039.346s-1.185.636-.694 1.677 1.214.953 1.214 1.907-.666 1.387.519 1.559.984-.058 2.139.174 1.243.288 1.387-.607-.26-1.272.492-1.5 1.011.288 1.27-.664a4.154 4.154 0 0 0 .29-1.907c-.116-.376.03-.4-.635-.78s-.925-.057-1.3-.895-.491-.953-.809-.925a7.359 7.359 0 0 0-1.3.491zm7.946 23.664a4.43 4.43 0 0 0-.231 1.1.525.525 0 0 0 .26.55c.231.173 1.127-.03 1.127-.492s.491-1.213-.088-1.5a4.14 4.14 0 0 0-.721-.319l-.348.666zm8.089-9.449a2.641 2.641 0 0 0-.173 1.849c.232.809-.751 1.619.578 1.156s1.387-.058 1.387-.694 1.1-2.6-.116-2.658a2.471 2.471 0 0 0-1.677.346zm.059-10.4c-1.214-.462-1.329 0-2.369-1.156s-1.271-.809-1.271-1.559.867-1.734-.29-1.677-.693 1.214-1.445 1.733-1.964-.981-2.2-.635a2.362 2.362 0 0 0 1.1 2.715c1.271.579 1.444-.751 1.5.926s.982 2.426-.462 3.294-1.733-.116-1.849 1.1-.231-.058 0 1.792 1.1 3.467 1.561 2.254-1.445-2.254 1.156-2.948 2.83-1.272 3.351-.751 1.329 2.08 1.155.751-2.08-2.081-.865-2.138 1.732.867 2.6.4.867-1.214-.058-2.369a13 13 0 0 0-1.611-1.733z" class="cls-1" transform="translate(1.929 -134.314)"/>
            <path id="패스_5392" d="M190.385 289.016c1.269-2.753 1.269-1.828 2.539-4.255s1.271-2.08 1.5-4.161 1.849-2.311.231-3.813-4.969-3.582-4.507-5.9.809-4.623-.694-5.662-1.378-3.32-5.663-3.93c-2.251-.32-3.542-.911-5.014-1.063a6.788 6.788 0 0 1 3.058 3.534c.462 1.155.058 2.311-.288 4.565s.346 1.733.462 3.468a8.982 8.982 0 0 1-.174 2.83c-.174 1.561 0 .867.346 4.219s-.577.925-1.675 1.733-.116 1.5.578 2.543 1.1 2.83 1.849 3.524 1.675.636 3.409 1.619 1.214.115 2.948.4a2.494 2.494 0 0 1 1.092.339zm-30.1-19.61c-.78.318-1.012.086-1.185.4s-1.5.578-.29 1.213.954 1.069 2.139.376 1.387-.376 1.445-1.127a2.921 2.921 0 0 0-.29-1.791c-1.07-2.239-1.234.685-1.82.925zm-13.551-4.132c.462.346 1.1-.173 1.561.694s1.675 2.022.751 2.426-2.138.867-2.542-.288-1.272-1.849-1.272-2.138 1.5-.694 1.5-.694zm11.211 14.561c1.329 1.156 1.849 2.139 1.155 2.948s-2.772.462-1.849 1.849 1.677 1.677 1.849 2.774a4.6 4.6 0 0 1-.867 3.062c-.346.232-2.427-.693-2.484-2.022a13.5 13.5 0 0 1 .115-2.716c.116-1.1.81-2.485.52-3.062s-1.445-.925-2.022-1.561-3.063-1.156-2.543-2.2c1.345-2.687 4.762-.26 6.126.925zm7.281-5.026c.653-.757 2.832-7.365 2.832-3.236 0 .577 1.675 0 2.6.173s1.907 1.329 2.023 3.526-1.329 1.733-2.6 1.444-1.617.116-3.294 1.214-2.659 1.559-3.7 1.329-.174-.636.231-2.023.809-1.155 1.907-2.426zm-26.842-22.047c1.214.867 1.647.462 2.109 1.474s1.993 1.617.232 1.791-1.966-.03-2.774-.838-1.589-.4-1.792-1.357-.317-1.677 0-1.735c1.6-.293 1.118-.127 2.225.664zm8.552-11.818l-.116-.925c-.115-.925-1.271-.288-2.658-.173s-1.329 1.561-1.791 2.138-.116 1.04-.116 1.849.348 1.561.4 2.485a12.548 12.548 0 0 1-.057 1.5c0 .867.693 1.039 1.964 1.733s1.156.348 2.6 1.1.925 1.33 1.387 1.85 1.675.116 2.484-.636a2.9 2.9 0 0 0 1.156-2.253c0-.867-.809-1.1-1.907-2.254s-.751-.462-1.791-1.33-.983-1.155-1.5-2.426a4.153 4.153 0 0 1-.058-2.659zm9.882-11.152c.925.462 1.734 1.732 3.467 2.888s1.5.116 3.872 2.2 3.062 1.559 3.178 2.946a12.619 12.619 0 0 1 .174 3.12c-.174.752-.983 1.562-.578 3.179a11.7 11.7 0 0 1 .693 2.888c.174 1.734.116 3.468.348 4.624a6.44 6.44 0 0 1 .288 3.178c-.231 1.849.116 1.386-.809 3.236s-2.89 3.062-4.045 2.485-1.907-3.468-2.311-1.965-.52 1.387-1.619 1.907a4.8 4.8 0 0 1-4.623-.348c-1.617-1.1-2.138-.635-2.369-2.022s2.2-1.965 2.369-2.369 1.561-.462.288-1.675-1.155-.694-1.444-2.139a5.321 5.321 0 0 1-.116-2.658c.173-.868.058-1.156-.983-2.023s-1.675-1.1-1.619-2.774a30.061 30.061 0 0 0 .058-3.872 8.862 8.862 0 0 1-.058-3c.232-.29-.057-2.832.925-3.93s1.561-1.155 1.849-2.254.174-1.5 1.619-1.561l1.445-.057zm-15.66 1.271c-.462-.232-.636-1.155-1.907-.4s-1.907.058-2.139 1.445.636.981-.577 2.426-3.872.29-1.677 2.081-.231 2.253 4.334 1.733 3.872.232 5.316.232a2.783 2.783 0 0 0 2.6-1.04c1.04-.925 1.214 0 1.329-1.387s1.849-2.138.058-2.658a26.11 26.11 0 0 0-3.814-.694c-.578-.116-.925-.636-1.733-1.213a3.1 3.1 0 0 0-1.791-.52zm-59.169 31.954c-.288.346-.693.116-.173 1.1s1.1.983 1.559 1.849-.578.982.867 1.617 1.791 1.5 2.139.636.058-.983.4-1.561.867-.346.116-1.849.057-1.617-.868-1.907-1.964-.694-2.253-.462a6.817 6.817 0 0 1-1.155.578zm-.116-6.818s-.751-.174-.346.867 0 1.213.636 1.156.867-.578.925-1.33-.174-.981-.174-.981l-1.04.288zm.232-8.322a2.7 2.7 0 0 1-1.156 2.543c-.981.52-1.5 1.445-1.733.174s-1.617-2.369.058-3.236.694-1.907 1.849-.983.977 1.501.977 1.501z" class="cls-1" transform="translate(-2.939 -123.912)"/>
            <path id="패스_5393" d="M178.242 259.262c-1.1-1.1-1.271-2.542-2.774-1.617s-1.213.52-1.907 2.253.173.752 1.039 2.542 2.139 2.081 2.2 3.3a10.155 10.155 0 0 0 .462 3.755c.636 2.2 1.5 3.7 2.832 3.294a2.9 2.9 0 0 1 3.12 1.33c.232.693-.578 3.987 3.41 4.68s4.1 1.04 5.374-.115 3.178-2.717 5.143-2.081 1.85 2.022 3.524 2.311 2.2-.867 3.988-1.675a6.153 6.153 0 0 0 2.948-3.64c.116-.636 3.294-3.179 4.276-3.642s-.058-.809 1.155-2.311 2.427 0 2.658-2.484-.751-4.681-1.906-3.872-.926 1.733-3.41 1.387-3.987-1.213-3.12-2.774 1.156-2.253.173-4.449-1.906-1.214-1.445-5.317 2.774-4.565-.057-5.259-2.427-2.542-4.913-1.039-4.507.809-5.374 2.832a27.753 27.753 0 0 0-1.271 4.045c-.462 1.445-3.005 2.542-3.005 2.542s-2.717-.809-3.756.983-1.04 2.369-1.791 3.294.4 2.543-2.89 2.6-3.7-.058-3.872-.346a1.982 1.982 0 0 0-.811-.527z" class="cls-1" transform="translate(19.139 -120.778)"/>
            <path id="패스_5394" d="M269.588 456.88l.216-.291a14.281 14.281 0 0 1 3.178-3.294c1.907-1.733 3.872-.346 4.507-2.2s.635-2.023 1.271-3.64 2.081-2.543 2.485-5.259 1.5 0 1.156-3.236-1.792-4.334-.29-5.894 1.907-2.774 3.063-1.965.867 3.062 1.849.867 1.213-2.368.635-4.1-1.387-.693-.635-2.716 1.387-2.658.057-2.774-6.414 1.849-6.414 1.849-3.351-.346-4.219-1.1.694-2.31-1.733-2.426-1.733-.406-3.64.693-1.907 2.2-3.294.232-2.774-2.023-.751-3.93a11.93 11.93 0 0 0 2.832-4.911s2.022-2.6.4-5.027-2.543-3.584-1.271-4.855.692-.116.577-3.467-2.426-4.508-.115-5.547 3.236-3.236 2.774-4.046a59.374 59.374 0 0 0-4.046-5.085c-1.039-1.155-1.733-2.888-3.466-2.888s-4.739-.116-3.7-1.5a10.409 10.409 0 0 1 2.774-2.775c.925-.577 1.849.117 2.311-3.235s3.7.116 3.814-3.352-2.89-3.12.809-3.929 3.929.346 5.316-2.2-.115-4.275 3.584-3.467 4.507 2.89 7.049 2.311 4.739.057 3.872-1.619-2.311-2.369-2.427-4.276-.173-2.658.752-3.929-.81-3.12 2.08-3.063 5.2-2.253 5.779-2.774-.4-1.849 2.2-.578 4.507 2.659 6.356 1.677 2.082-3 2.775-4.161-.175-2.543 2.136-1.387 3.756 2.427 4.509 4.161 1.155 2.832 3.582 3 1.849-.288 2.311-.52 3.639.578 6.239-1.271 4.334-2.139 3.352-5.663-1.1-2.138-1.04-4.449-.346-3.41 1.561-5.894 4.855-2.774 6.184-4.276 4.507-1.677 5.489-4.913.983-5.027 3.352-5.374 3.466 1.04 5.547-.925 3.929-2.832 5.2-1.213a7.743 7.743 0 0 0 5.434 2.888c1.848 0 3.12.982 2.888-.635a5.732 5.732 0 0 1 .174-3.468c.462-1.213-.29-1.675-.233-3.582s-.462-2.832 2.2-3.468 1.849-2.426 5.144-.288 4.736 1.561 5.141 3.178-.346 2.081.29 3.063 1.388 1.445 3.3 0 1.558-2.427 2.888-1.33a6.9 6.9 0 0 0 5.028 1.272c2.022-.117 1.559.635 5.836.346s1.039-.926 4.852-1.619 2.024-2.948 5.03 0 2.658 4.623 6.181 4.97 5.085 2.716 5.085-.867-1.387-3.468 1.735-6.184 3.293-4.681 5.721-5.663a34.706 34.706 0 0 1 5.369-1.259 13.889 13.889 0 0 1 1.95 4.455c.462 2.081.693 2.658 2.774 4.508s3.005.807 2.426 5.2-1.617 1.155-1.039 6.24-.346 4.972.577 8.9.233 3.929.462 7.281 2.313 4.969 2.89 7.627 2.311 6.7 2.311 8.669.346 7.165-1.271 9.708-3-.348-3.582 5.085-.462 7.627.231 10.863a27.148 27.148 0 0 0 2.311 6.241s1.04 1.849.694 5.778-.923 7.166-1.04 8.783.809 1.272-1.619 4.855-4.275 3.813-4.449 6.645-.578 1.214-.116 4.681.694 3.41.52 5.547-1.039 2.138-.865 5.2a10.772 10.772 0 0 0 .981 4.45 2.415 2.415 0 0 1 1.561 1.33 5.559 5.559 0 0 1 1.039 2.832c.462 2.139.753 1.213 1.158 3.64s.52 3.756-.174 5.027-1.792 1.561-2.139 3.584-1.1 1.329-.057 3.12.635 2.311 2.369 2.946 3.524 2.139 5.489.346 1.732-1.387 3.062-3.524 1.156-2.772 3.41-4.507 1.791-3.756 3.756-1.675 3.929 3.813 3.7 5.894a13.831 13.831 0 0 1-.983 5.086c-1.04 2.888-1.445 1.328-1.907 4.39s-2.427 5.2-2.427 7.167a44.911 44.911 0 0 1 .174 5.6c-.174 3.584-1.1 4.566-1.561 6.183a21.6 21.6 0 0 0-.52 2.89c-.346 1.733-1.387 2.08-1.791 4.507s-.288 2.485-.809 5.259-.116 4.161-1.271 6.356c-1.017 1.932-1.767 1.627-2.128 3.141a10.011 10.011 0 0 1-3.781-.032c-3.685-.544-1.677-.693-4.334-1.906s-2.832-.578-3.987 0a34.572 34.572 0 0 1-3.236 1.329c-1.329.521-.867 1.271-1.965 1.675s-1.907-.52-3.582-.809-.867-1.733-.52-3.352 0-1.213-1.907-2.89-2.658-.807-4.853-1.444a29.26 29.26 0 0 0-6.357-1.156c-4.1-.52-2.08.346-3.062 1.1a16.031 16.031 0 0 1-3.352 1.964c-1.5.7-.52 2.485-.635 3.352s.057 1.733-.058 3.872-1.1.288-2.311-.289-1.619.462-2.832.923-2.543 2.6-3.178 3.121-.636.694-2.253.635-1.561-1.271-3.121-2.253a3.573 3.573 0 0 0-3.871.117c-.578.462-1.329-.059-3.526.057s-.635 1.5-1.271 3-1.1 1.733-2.254 1.907a10.2 10.2 0 0 0-3.352.752c-1.733.693-1.04 1.1-2.08 2.311s-3.526.174-4.508.174-1.329-.174-4.969-1.214-2.311-.752-4.565-1.387-2.311.116-3.7.925a4.374 4.374 0 0 1-4.449.406c-2.139-.752-1.965-1.387-4.45-3.237s-1.964-2.426-2.774-5.489.348-3.063-.983-3.755-1.617 1.1-1.733 1.674a10.9 10.9 0 0 1-.4 3.065c-.462.981-1.907 1.155-4.565 1.271s-2.138.519-4.1.925-.694.982-2.6 1.733-.693 1.271-3.409-.81-1.677-2.081-5.663-4.739-1.733.233-3.294 1.1-1.675.288-3.524-.636-1.849.521-3.64.288-.578.407-3.236-.115-1.849-.865-1.561-2.253 1.387-1.1 2.427-2.427.4-.925.4-2.485.288-2.542-.925-4.276-3.756-3.755-4.219-5.6-.693-.348-1.965-1.214-1.329-1.1-1.445-3.294-2.83-2.6-5.374-2.658-3.12.578-5.952-.346-.925-2.139-3.005-3.063-1.906 0-5.432-.462-.693-.4-.983-1.733-.693-1.04-2.426-1.617-1.1-1.272-3.352-2.543c-.271-.153-.521-.3-.756-.452a4.79 4.79 0 0 0 1.591-1.514c.9-1.415 1.07-2.051 1.3-4.477a15.582 15.582 0 0 0-1.127-6.042 13.5 13.5 0 0 0-2-2.776zm73.4 6.413c-1.271-.288-2.2-1.733-2.716-1.387s-.058 1.735.462 3.41.982.52.4 2.716-.693 2.6-1.5 3.12-1.213.462-1.444 1.387a2.671 2.671 0 0 0-.058 2.139c.346 1.271 1.271 1.675.173 2.427s-2.774.693-3.12 1.387-1.965 0-.346 1.906 2.022 1.156 3.352 2.139.519.173 1.675 2.89 2.023 2.946 2.485 3.12-.174-.519 1.5.058 1.1.635 1.791-.578.348-2.427 1.446-2.543 1.1-.751 3.12-.173 1.677-.694 4.276.751 1.155 1.849 3.409 1.561 1.5-1.156 2.891-1.677 1.674 0 2.31-.981a2.634 2.634 0 0 0 .174-2.427c-.174-.462-1.791-2.774-.751-3.236s.75-.694 1.965-1.1a3.1 3.1 0 0 0 2.022-3.062c-.058-1.387.462-3.352-.925-4.913s-1.907-2.253-1.675-3.062a14.147 14.147 0 0 0 .346-3.467c-.058-.81-1.619-2.311-1.675-3.005s.751-1.5-.058-2.254.4-.751-2.139-.925a34.722 34.722 0 0 0-4.8-.288c-1.271.115-.579.231-1.85.693s-2.715.346-3.294 1.04-1.733 2.138-2.2 2.2-1.445-.116-1.849.751-.809 1.965-1.561 2.023a4.028 4.028 0 0 1-1.839-.64z" class="cls-1" transform="translate(39.505 -106.723)"/>
            <path id="패스_5395" d="M235.7 393.917a1.571 1.571 0 0 0-.164 1.559c.52 1.445.581.754.751 2.427.11 1.07.41 1.409.34 1.818a1.46 1.46 0 0 1-.169-.147c-.636-.635-1.156-.116-2.369-.4s-1.965-.058-3.756.174-1.5 1.675-2.08 2.6-2.659.925-4.45.694-.116-.232-.462-2.255-.116-2.484-.4-4.681-.751-1.733-.29-3.7a10.913 10.913 0 0 1 1.156-3.121c.867-2.08 1.965-1.271 3.871-1.329s1.966 1.619 3.063 1.964a6 6 0 0 1 2.6 2.313 8.663 8.663 0 0 0 1.792 1.791 1.38 1.38 0 0 0 .567.293z" class="cls-1" transform="translate(30.577 -87.216)"/>
            <path id="패스_5396" d="M209.686 331.677a21.822 21.822 0 0 1 3.125.033 9.826 9.826 0 0 0 3.439-.636c.852-.245.822-.635 1.863-.607a9.639 9.639 0 0 0 2.528-.129c.275-.145.434-.679.535-1.33a2.207 2.207 0 0 1 .809-1.473 9.127 9.127 0 0 1 4.278-.578c2.2.232 4.276.232 4.623 1.561s.114 1.849 1.444 2.482 1.907 1.214 3.756 2.023 2.832.809 4.046 2.138.635.058 1.733 2.485 1.329 2.89 2.427 3.93 2.022.693 2.022 1.906-.809 1.271.52 2.832 2.2 1.214 3.988 2.081 2.658.867 2.368 2.427.462 2.514.9 3.495 1.127.925.4 1.763-.116 1.185-1.1 1.069a5.987 5.987 0 0 1-2.167-.983c-.664-.317-1.1-.895-2.081-.751s-1.473-.2-1.849.722.115.664-1.1 1.907a27.8 27.8 0 0 0-3.236 3.845 4.213 4.213 0 0 0-.925 2.717c-.116 1.155.173 1.357-.52 2.08s-1.214.867-1.589 1.733-1.677.406-1.358 1.677 1.04 1.1 2.023 2.051 1.791 1.1 1.677 2.109-1.185.983-.174 2.832a10.463 10.463 0 0 0 2.946 3.206c.838.78 1.04.635 2.341 1.791s2.311.722 2.253 1.907-.664 1.156-.809 2.139.895.809.809 2.138.2 1.589 1.243 2.166 1.734-.173 2.543 1.012.519 2.368.953 3.322-.78 1.07 1.1 1.561 3.612.809 3.7.057-.867-1.878.867-1.617 3.64.636 3.728 1.849a20.31 20.31 0 0 0 .086 3.236c.26 1.271.376 2.253 1.011 2.109s.376-.086.954-1.243.462-1.59 1.1-2.08 1.185-1.966 2.051-.722 1.214 1.3.752 3-.78 3.843-1.214 3.785-1.877 3.381-2.34 4.566a2.553 2.553 0 0 1-1.791 1.589c-.434.144-2.512 1.1-3.495.232a8.663 8.663 0 0 1-1.792-1.791 6 6 0 0 0-2.6-2.313c-1.1-.345-1.156-2.022-3.063-1.964s-3-.751-3.871 1.329a10.913 10.913 0 0 0-1.156 3.121c-.461 1.964 0 1.5.29 3.7s.058 2.659.4 4.681-1.329 2.023.462 2.255 3.871.231 4.45-.694.288-2.369 2.08-2.6 2.542-.464 3.756-.174 1.733-.231 2.369.4 1.675.52 1.213 2.2-1.271 2.023-1.559 3.005-2.659.462-.348 1.733 2.716 2.081 3.7 1.329.231-1.791 2.543-.983.4.232 3.062 1.214 2.2-.174 2.774.982 1.561 1.039 1.156 3a17.93 17.93 0 0 0-.4 2.658c-.116.868-.29 3.179-.578 5.375s-1.733.925.174 3.12 2.6.867 2.946 3.41-1.155 2.484.578 3.756 1.677-.232 3.062 2.658c.318.661.631 1.222.92 1.726a4.426 4.426 0 0 1-2.827.449 21.231 21.231 0 0 0-3.756.462c-1.647.406-1.128 1.5-2.283 3.005s-.721 1.127-2.485 2.051-1.415.288-3.38.722a10.893 10.893 0 0 1-4.537.2c-2.022-.2-3.236-.578-4.247-.693s-1.387.115-2.4-.492.116-.462.462-1.561-.232-1.531-.664-2.08-.664-.2-2.8-.636-1.357-1.011-2.2-2.628-1.04-1.907-1.733-3.208-1.935-2.4-3.12-4.219-1.52-.679-1.953-1.142-1.937-.232-3.178.028a6.758 6.758 0 0 0-2.919 1.647c-1.069.809-.982 1.388-1.762 1.04s-.319-.549-1.359-1.069-4.219 1.069-4.71.953a13.6 13.6 0 0 0-2.31.318 5.763 5.763 0 0 1-2.543-.462c-1.416-.375-1.7-.981-2.976-1.415s-1.589-1.155-1.561-2.457 1.387-2.282-1.387-3.264-4.016.116-6.442.433a7.129 7.129 0 0 1-4.508-.779c-1.214-.462-.752-.838-2.109-1.357s-2.484.028-4.045.345-2.341 1.243-3.352 1.879a3.4 3.4 0 0 0-1.675 2.4c-.086.837-.868 5-.954 6.068s-1.58 1.552-1.58 1.552a3.274 3.274 0 0 0-.145-.6s-.694-1.04-1.735.288a6.746 6.746 0 0 1-3.062 2.311c-.867.29.174-.52-2.485.4a8.7 8.7 0 0 0-3.929 2.2c-1.213.982-.462 1.155-2.658 1.617s-2.022.058-4.1.346-2.081 1.677-3.005.406a7.325 7.325 0 0 1-1.329-2.2 4.986 4.986 0 0 0 .058-2.369c-.346-1.617-1.1-1.733-1.791-2.774s-.694-1.329-.694-1.329-.346-.809.174-1.271 1.675-.29-.4-1.5-3.64-1.791-3.756-2.254a11.136 11.136 0 0 0-2.716-2.833 5.8 5.8 0 0 0-2.832-1.04c-1.388-.174-1.33-.288-1.677-.231a15.664 15.664 0 0 0-2.774 1.155c-.4.288-2.253 1.155-.867-.752s.4-2.31 2.542-2.888.579-1.734 3.815-2.543 3.293-.116 4.161.058.981-1.1.115-1.849-.346-1.213-1.733-1.213-1.907.751-2.542.231a3.5 3.5 0 0 1-1.5-2.369c-.116-1.155-.52-1.5 0-2.6s.288-2.427.867-3.121a12.551 12.551 0 0 0 1.271-2.368s0-1.677.925-2.081 2.081-1.733 1.04-1.907-1.734.346-3.41.058-2.774-.52-2.716-1.733-1.445-2.6 1.445-3.063 2.658.116 4.334-.462.29-2.658-.462-2.716-.232.4-2.08-.29-3.063-.983-3.236-1.907-.346-3.468-.4-4.1a1.3 1.3 0 0 1 1.1-1.5c.925-.232 1.329-.462 2.427-1.849s-.983-1.271 1.791-1.907 3.236-.636 4.219-1.561a20.4 20.4 0 0 0 1.907-2.138s.578-.694 0-.578a15.181 15.181 0 0 0-2.832.867 5.8 5.8 0 0 1-2.716.29c-1.156 0-1.445-.635-2.139.4a9.747 9.747 0 0 1-1.444 1.965 5.872 5.872 0 0 1-1.445.635c-.636.174-.636 1.214-1.965.636s-1.619-.4-1.675-1.791.809-2.485-.116-3.121a4.271 4.271 0 0 1-1.733-2.254c0-.462.4-.519.4-1.733a10.54 10.54 0 0 0-.174-2.023c-.116-1.039-.058-1.1-.116-2.774s-.346-.981-.115-2.658-.52-2.2.751-2.716.29-.346 2.253-.578 2.543.81 2.6-.462a3.522 3.522 0 0 0-.231-2.2c-.4-1.155-1.849-3.7-1.907-4.219s-2.369 0-.635-1.559 2.253-.925 2.31-1.735 0-1.271-1.387-2.08-2.022-1.387-1.791-2.716a6.328 6.328 0 0 0 .29-2.023c0-1.271-.29-2.832-.867-3s-.752-1.04-1.792.115-1.155.694-1.271 1.907.52.116-.173 2.023a35.871 35.871 0 0 1-2.139 4.1c-.462 1.04-.346 0-.693 1.907s.231 2.369-1.04 3-.809.058-2.138.81-1.1 1.155-2.139.577-1.04-.288-.693-1.445.693-.925.693-2.2-.058-.81-.058-2.253-.462-.232.116-1.907a6.392 6.392 0 0 0 .578-2.311 10.645 10.645 0 0 1-.983-2.89c-.174-1.675.288-2.081-.636-2.2s-1.677-.577-2.426.174-.636-.115-.752 1.907.4 2.426-.4 3.236-1.675.693-2.023.982-.925-.058-.346 1.444.982 1.156 1.387 2.255a7.9 7.9 0 0 1 .867 2.311c.52 2.08.058 2.31.174 3.293s.636.058.058 1.849a9.584 9.584 0 0 1-1.619 3.121 3.408 3.408 0 0 1-1.907 1.271s-.635-.115-.577-.694a10.221 10.221 0 0 1-.174-3.062 7.4 7.4 0 0 0 .232-3 6.945 6.945 0 0 0-.925-2.311c-.406-.52-1.445-.752-1.5-1.965s-.232-.867-.058-1.965a14.283 14.283 0 0 0 .346-1.965c.058-.983.346-3.12-.4-3.178s-2.427.058-2.774.983.577.925-.925 1.907-2.427 2.369-3.7 2.485-2.485.346-3.005-.058-1.849-.348-1.791-1.907-.694-2.023.232-2.6 1.848-.867 2.6-.346-.4.578 1.387.752 1.387-.348 1.271-1.5.29-1.907-.52-2.716-.4-1.1-1.675-1.272a4.677 4.677 0 0 0-2.2 0c-.983.174-1.619-.809-1.907.983s.867 2.369-.578 3.294-.981 0-1.964-.694a2.172 2.172 0 0 1-.752-2.6 1.958 1.958 0 0 0-.577-2.08c-.406-.232-1.1.4-1.445-.232s-.694-.23-.925-2.542-.174-2.659.115-3.063-.867-.809.81-1.155 1.1-1.156 3.294 0 2.542 1.444 3.293.693.868-1.039 1.907-.751a16.013 16.013 0 0 1 2.832.925c1.156.52 1.1.232 2.543.116s1.445-.925 1.445-.925 1.039-.983-.29-1.156-3-.058-3.294-.4-2.022 1.33-1.155-1.1.694-1.849 1.387-2.6 1.5-1.849.52-2.369-2.081-.809-2.253-1.445-1.04-2.022 0-2.542.925-.116 2.368-.751a7.005 7.005 0 0 0 1.72-.909s.635.115.577 1.329-.751 2.946.058 2.946a14.264 14.264 0 0 0 2.774-.058c2.659-.173 3.063.231 3.178-1.271a4.578 4.578 0 0 0-.231-2.2c-.116-.578-.4-1.5-.4-1.5l-.694-.578s.058-1.039.174-2.484a17.468 17.468 0 0 1 .462-2.427c.288-1.733.52-1.907.867-1.849s.52.462.983 1.619.578.231.693 1.329-.981.4-.173 2.658 1.387 1.387 1.271 3.64.058 2.658-.578 3.64a9 9 0 0 0-.809 1.271c-.462.868-.462.578-.52 1.677s.29 1.5.116 2.542-1.1.693-1.329 1.734-1.271 1.848-.174 2.542 2.311-.232 2.716-.288-.635-1.1 1.04.115 1.214 1.617 2.081 1.445 2.484-.809.635-2.022-2.08-.232-2.138-1.791-.983-2.486 0-3.526 1.445-1.155 1.733-.867-1.675-.116.462.4 2.2.52 2.89-.173 1.733-1.5 1.04-2.255-2.658-.636-1.213-1.675 2.2-.983 3.062-1.561 1.1-2.368.981-3.12a10.991 10.991 0 0 1 .868-3.12s1.213-.288-1.04-.174-3.7.52-4.161-.982-3.294-2.138-1.849-2.83 2.832-.058 2.139-.868a18.6 18.6 0 0 0-2.139-2.138c-.578-.462-1.156-1.791.058-1.849a7.85 7.85 0 0 1 3.12.462c1.04.346.232-1.791 1.329-2.138s2.2-.983 3.93-.174 2.138.809 2.2 1.733.578 1.272-.752 2.2-2.022 1.5-1.848 2.311.288 1.791 1.791 1.964 2.08.174 2.08.174 2.716.058 2.369 1.733-1.619 3.236-2.023 4.1a12.664 12.664 0 0 0-.346 4.565c.174.578.174 1.965.288 2.369s1.734 1.5 2.139 1.04.4-.115.636-2.08a28.122 28.122 0 0 0 .519-5.028 6.774 6.774 0 0 1 .926-3.813c.115-.4 2.6-2.139 3-1.734s.751 2.832 1.213 3.526 2.2 3.524 2.717 3.236 2.252-.809.461-2.543-2.658-1.964-2.774-3.062.174-1.733-1.675-3.756-2.2-2.6-2.081-3.352.116-1.445.925-1.1.348-.058 1.792 1.5 1.965 2.369 2.138 1.561a2.984 2.984 0 0 0-1.155-2.427c-.462-.173-2.2.579-1.907-1.271a9.73 9.73 0 0 0-.983-4.969c-.288-.346-1.965-.809-1.445-1.329a3.111 3.111 0 0 0 .694-.982s.058-.635 1.1 0a6.1 6.1 0 0 1 2.948 3.063 4.979 4.979 0 0 0 1.734 3c.981.752 1.675.983 2.369 2.081s.867.865 1.559 1.733 1.271.867 1.559 2.311a26.7 26.7 0 0 0 .694 2.716c.346 1.271.809 2.427.982 3.12s.694 1.388.752.694.809-2.023.981-2.89-.057-1.387 1.04-1.791 1.619.288 1.907-.751-.174-2.717.52-2.832 1.445-.867 2.427.173a3.655 3.655 0 0 1 1.1 2.716c.174 1.214-1.617 2.369.752 1.272s1.213-1.561 3.12-2.427 2.369-1.271 3.062-.232 1.561.752 1.677 2.543-.752 3.467-.867 4.623-1.388 3.178-.52 3 1.445-1.039 2.253-2.311 2.138-.635 2.542.578.867 1.1.232 3.526a12.566 12.566 0 0 0-.636 4.391 3.882 3.882 0 0 0 .462 2.253c.52 1.04.578-.058.752 1.965s.346 2.542.346 3.178-.578 4.219-.578 4.219a3.171 3.171 0 0 0 1.733-1.1c.752-.925 2.023-.925 1.561-3.12a8.286 8.286 0 0 1 .058-3.929c.058-.288 1.907 0 2.022-.868s-.925-2.08-1.155-2.6-.694-1.733-.232-2.427-1.386-.52 1.387-1.387 2.2-.577 3.584-1.329 7.339-2.484 8.031-4.1a11.6 11.6 0 0 0 .535-1.4zm-70.154 44.394a6.153 6.153 0 0 0-1.734 1.735c-.519.809-1.213 0-.981 2.022s.693 2.774.809 3.988a10.332 10.332 0 0 1 .116 3.294c-.174 2.368-.52 2.6-.578 3.871s-.809 1.677.346 1.445 1.5-1.1 1.675-.231a3.718 3.718 0 0 1-.519 2.368c-.406.983-2.139 1.907-.348 2.311s2.427-1.039 3.121-.346.519 2.543.519 2.543-.809.346-.462.925a1.906 1.906 0 0 0 2.023.693c.983-.116.925.7 1.5 1.621s1.1 1.907 1.849 1.733 1.675 0 .925-2.023-1.387-2.485-1.387-2.832a5.75 5.75 0 0 0-.058-2.253 2.664 2.664 0 0 0-1.156-2.022c-.462-.348-1.444-.579-.867-1.561s1.329-.4.925-1.387-.346-1.04-.925-1.329-.461-.983-.867-1.329a7.462 7.462 0 0 0-1.791-.752s-.751.81-.462-.635.578-1.271.982-2.659.751-2.138.116-3-1.272-1.155-1.445-1.965-1.387-1.733.288-2.254 1.445-.462.636-1.675-.578-1.446-1.04-1.5-1.213 1.211-1.213 1.211zm9.215-63.449l-.607-.2c-.607-.2-.809.433-.954.663a4.571 4.571 0 0 0 .954 2.427c.492.492 1.069.55 1.271 1.012s1.012.751 1.849.895.29-.173.26-.867a6.063 6.063 0 0 0-.577-1.965c-.29-.751-.088-.578-.462-1.155s-1.07-.665-1.734-.809z" class="cls-1" transform="translate(4.824 -104.689)"/>
            <path id="패스_5397" d="M274.33 439.96c.234.149.484.3.756.452 2.254 1.271 1.617 1.965 3.352 2.543s2.138.288 2.426 1.617-2.542 1.271.983 1.733 3.352-.462 5.432.462.174 2.14 3.005 3.063 3.41.289 5.952.346 5.259.462 5.374 2.658.174 2.429 1.445 3.294 1.5-.635 1.965 1.214 3.005 3.871 4.219 5.6.925 2.717.925 4.276.636 1.158-.4 2.485-2.139 1.04-2.427 2.427-1.1 1.733 1.561 2.253 1.445-.116 3.236.115 1.791-1.213 3.64-.288 1.965 1.5 3.524.636-.693-3.756 3.294-1.1 2.948 2.658 5.663 4.739 1.5 1.561 3.409.81.636-1.329 2.6-1.733 1.445-.809 4.1-.925 4.1-.29 4.565-1.271a10.9 10.9 0 0 0 .4-3.065c.116-.577.4-2.368 1.733-1.674s.174.692.983 3.755.29 3.64 2.774 5.489 2.311 2.485 4.45 3.237a4.374 4.374 0 0 0 4.449-.406c1.387-.809 1.445-1.561 3.7-.925s.925.346 4.565 1.387 3.988 1.214 4.969 1.214 3.468 1.04 4.508-.174.346-1.619 2.08-2.311a10.2 10.2 0 0 1 3.352-.752c1.155-.174 1.617-.4 2.254-1.907s-.925-2.888 1.271-3 2.948.406 3.526-.057a3.573 3.573 0 0 1 3.871-.117c1.561.982 1.5 2.2 3.121 2.253s1.617-.116 2.253-.635 1.964-2.659 3.178-3.121 1.617-1.5 2.832-.923 2.2 2.426 2.311.289c.016-.308.026-.591.033-.851.915 6.6 8.279 6.26 1.478 9.526-7.7 3.7-10.787 1.233-9.554 5.856s-.616 1.541 4.006 6.472 5.547-1.541 10.787 8.938 2.157 13.869 6.164 16.334a24.443 24.443 0 0 0 8.767 3.029 23.152 23.152 0 0 1-.981 5.142c-.868 2.775 0 2.542-2.2 4.738-.449.451-.854.837-1.224 1.183-.99-.235-1.81-.422-2.024-.441-.636-.058-1.387-.751-1.849-1.849s-1.677-1.445-2.89-1.733-2.427-2.6-2.485-3.756-.983-2.2-3.062-3.294-2.89 1.1-3.756 1.619a9.913 9.913 0 0 1-4.969 1.617c-2.369.058-2.918 3.671-3.468 5.26s-.982 2.8-1.907 3.524-1.011 1.127-1.647 2.774 0 2.745-.2 4.082a.844.844 0 0 0-.711.116c-1.387.694-.867.464-2.08 2.313s-1.619 2.138-2.2 2.484.52.346-1.849-.346-2.888-1.444-3.293.232.057 3.582-.636 3.814-2.311-.752-4.681-1.33-1.675-.694-3.236-.578a11.528 11.528 0 0 1-5.721-.578c-2.313-.925-2.369-.4-4.162-2.2s-1.213-1.907-3-2.312-2.138.174-3.93-1.1-2.658-1.271-3-2.716a8.724 8.724 0 0 0-.925-2.774c-.694-1.445-1.04-1.964-1.04-3.178s.117-1.155-.173-1.445.115-.288-.52-.346a2.562 2.562 0 0 0-1.965 1.387 6.913 6.913 0 0 0-.809 3.64c.231 1.041.346 1.329.751 3.005s-.057 2.946.52 3.813 1.908.752 2.486 2.774a10.824 10.824 0 0 0 1.963 4.046c.636.751.925.693 1.272 1.733s-.23 3.062-1.156 2.6-2.541-1.155-2.716-1.675.925-2.023-1.907-3.468-2.772-1.1-4.219-1.849 2.023-1.559-1.907-1.155a14.542 14.542 0 0 0-5.085 1.1c-1.155.346-.809-1.1-1.329.4s2.023 1.791.4 3a11.975 11.975 0 0 1-3.756 2.023c-1.617.635-3.351.693-4.217 1.5s-1.1.4-1.561 1.733-.578.983-.636 2.138-1.617 2.716.578 1.5 1.907-2.023 2.89-2.774a17.98 17.98 0 0 1 3.814-1.907c1.617-.693 1.559-2.485 3.178-1.155s2.542 2.254 2.426 3.871-1.5.752-1.1 3.64-2.6 1.562-4.276 2.544-2.2 1.56-2.138 2.774.809 1.849.52 3.7-1.33 1.213-.348 3.294.462 3.466 1.965 3.408 2.253.058 2.081 1.272-1.33 1.675-1.792 2.716-.519 1.733-2.08 1.559-2.772.348-3.987-1.1-.868-2.369-1.792-3.063a6.638 6.638 0 0 0-2.08-.982s-.287-.115-.52-1.387 0-.809-.231-2.83-.23-2.6-.752-3.7-.4-2.774-1.5-1.677-1.154.232-1.675 2.2 1.387 1.734-1.329 3.814-3.524 2.948-3.64.462a4.674 4.674 0 0 0-2.712-3.966c-.52-.116-.346-.809-1.965-.174s-2.543.578-2.6 1.849.057 1.445.057 3.352-.925 2.716-1.559 2.658-.636-.925-2.369-1.387a11.009 11.009 0 0 0-4.276.116s-3.352-.4-4.161-1.329-.867-3.352-.983-3.7-.173-.52-1.387-.982-2.369.578-2.369-1.5-.462-2.369.058-5.374.636-1.791.52-4.739.694-3.41 1.1-5.894.867-3.93.867-4.45-3.294 1.677-4.045 2.717-.4 3.12-2.427 4.275-1.906.81-2.081 1.156 1.1 1.329 1.5 2.022 2.023 2.659.174 3.526-.752 1.329-3.468.751-3.871-1.041-4.391-1.965-.52-3.062-1.445-2.253-1.1-.231-.809 1.791 1.964 2.023-.058 4.8.058 3.294-2.716 2.948-3.756-1.041-5.433-1.041-3.351 1.1-4.1.058-1.213-1.619-1.213-1.619a17.523 17.523 0 0 1-3.92.467 18.787 18.787 0 0 1 .041-2.69c.174-1.387.578-1.734.462-3.7s-.23-3.872-.23-5.491.058-1.733-2.2-3.12-3.236-1.733-4.045-3.409a25.051 25.051 0 0 0-3.178-4.8c-1.675-2.2-1.155-1.041-3.062-1.965s-.81-1.5-1.619-2.6-3.12-2.254-4.449-3.814-1.213-8.205-1.272-10.17a15.057 15.057 0 0 0-.4-4.161c-.032-.152-.064-.288-.095-.415a3.813 3.813 0 0 0 1.506-1.359c.607-1.156 2.514-1.907 3.324-3.728s-.116-1.387-.145-2.86.868-2.225 1.763-4.334 2.2-2.2 2.745-3.15 1.357-1.675.317-2.687-2.166-1.589-2.166-3.062.779-2.629.895-4.276-1.791-3.67-2.311-4.652-2.369-1.559-3.554-3.12.088-1.907.55-4.911 1.1-1.647 2.253-2.485 1.011-.983.925-2.744-.867-1.763-.752-2.861 2.255-2.485 2.4-3.035-.088-1.039.058-2.6 1.011-1.1 1.907-2.86.2-1.5 0-3.988.115-1.935 1.357-3.148a38.694 38.694 0 0 1 4.479-3.5c.838-.55.867-1.937 1.1-2.948s.4-1.185 1.357-2.253 1.445-.549 2.86-.78.664-.376 1.937-1.1 1.877-.346 3.178-.867 4.219-4.507 4.565-5.229a6.339 6.339 0 0 1 1.185-1.561 5.491 5.491 0 0 1 1.153-.8zm131.236 30.1a28.09 28.09 0 0 1 .634-3.351c-1.5.694-.519 2.485-.634 3.351zM277.029 570.576a9.122 9.122 0 0 0-1.907.346c-.925.29-.288.52-1.733 1.619a4.7 4.7 0 0 0-1.907 2.542 14.243 14.243 0 0 1-2.023 2.716 6.991 6.991 0 0 0-1.5 2.485c-.694 1.5.288 2.716.519 3.582s.462 2.543.694 3.93 1.213 2.2 2.311 3.987.636 1.5.462 2.2a7.961 7.961 0 0 0-.288 2.775c.057 1.5 1.1 2.717 2.484 3.755s2.832-.173 3.814-1.848.288-1.619.4-3.237.578-.983 1.329-2.31 2.023-.174 2.369.23-.058 3.3-.116 4.276 1.907 2.83 2.139 3.813 2.2.521 4.045-.057 1.04-.578 1.907-.981 1.965 1.212 2.542 1.791.925.23 2.081-1.156-.346-1.042-.52-1.733.058-.983.346-1.62.29-.981-.116-2.426.636-3.352.983-4.276.636-1.271-.983-3.523-.925-.636-3.7-1.736-2.888.578-4.217 1.329-2.023 1.619-4.45 1.1-.288-1.675-.578-2.832-1.039-.52-2.83-1.849-.348-1.907-.232-3.582a4.078 4.078 0 0 1 1.5-3.178 4.924 4.924 0 0 0 1.445-3.756c0-1.733-2.369-2.312-4.276-2.369zm12.875 1.9c-.346-.058-1.04-.693-1.617.058s-.578.577-.694 1.849-.173 1.965-1.1 2.716-1.677-.23-1.619 1.445-.925 2.08.174 2.774a8.525 8.525 0 0 0 4.045 1.155c.578-.172.983-1.213 2.485-.635s.925.288 2.369.809 1.964 1.619 2.253.578 1.1-4.565-.348-5.721-1.329-2.022-2.368-1.445-1.445.81-1.492 1.97c-.406.578-1.734-1.156-1.272-1.445s.925-.346 1.04-1.733.705-2.133-.578-2.253l-1.282-.121zm18.244 29.216c-.406.143-.664-.112-.664.933s-.435 1.638.4 2.146 1.5 1.018 2.4.452.9-.4 1.07-1.356.492-1.555-.2-1.974a9.857 9.857 0 0 0-3.005-.2zm7.368 8.352a16.835 16.835 0 0 0-1.532 1.445c-.693.607-1.444.4-1.3 1.241s-.605 1.156 1.069 1.387a17.739 17.739 0 0 0 3.466.088 6.376 6.376 0 0 0 1.937-.058c1.648-.2 2.514-.752 1.243-1.907a9.633 9.633 0 0 0-2.717-1.878c-.693-.318-.953-.636-1.387-.578a2.339 2.339 0 0 0-.779.26zm12.858-.9c-.491.086-.838-.229-.9.607s-1.271 1.185.318 1.677 1.357.549 2.109.433 1.473-.289.925-.953a4.117 4.117 0 0 0-1.359-.954 6.856 6.856 0 0 1-.578-.664l-.52-.144zm-6.182-14.5s.26 0 .491.549-.23.549.26.9 1.213.78-.028 1.04-1.791.174-2.023-.288-.9-1.531-.288-1.763.549-.491 1.069-.462l.52.03zm-10.4-13.494s-.867.174-1.907.4-1.039.52-2.022 1.445.058 1.445.867 1.907a8.514 8.514 0 0 0 2.774.578c.693.116.116.635.173 1.155s1.04.348 1.214 1.1.867 1.1 2.716 1.155.809-.751 1.445-1.5.578-.752.52-2.6-.29-.288-1.5-.751-1.1-.4-1.445-1.156-1.5-1.271-2.832-1.733zm19.07 2.14l-.636.23c-.635.232-.288.983-1.155.983a6.075 6.075 0 0 0-1.733.288c-.868.174 0 1.04.288 2.311s.751.752 1.965 1.041.867.52 2.369 1.675 1.039 2.543 1.213 3.7 2.658-.173 3.294-1.559.058-1.677-.578-3.352.4-.693 1.965-1.271 0-2.369-.636-2.543a34.785 34.785 0 0 1-4.623-.577c-1.791-.52-1.271-.925-1.733-.925zm9.3 14.85c.288.348.52.058.578 1.04s.462.578.519 1.619-.288 3.987-1.387 1.617-1.155-1.733-1.039-2.6-.753-1.677.288-1.677zm4.681-2.08c.867.174 2.2.635 1.849 1.617s-2.659 2.369-2.948 1.214-1.675-1.04-.693-1.849a4.7 4.7 0 0 1 1.791-.983zm-4.1-6.53c-.694 1.1-1.216.982-.983 2.2a5.187 5.187 0 0 0 1.155 2.6c.52.577 1.5 1.1 1.849.751s.4.345.29-1.675a6.707 6.707 0 0 0-.983-3.468c-.232-.288-1.329-.4-1.329-.4zm24.557-32.415c-.693.116-2.136-.693-2.367 1.04a19.805 19.805 0 0 0-.291 2.542c-.058 1.156 1.329 1.5.174 2.659s-1.964 1.1-2.081 2.022.232 1.734-1.387 1.849-2.08-.809-3.351.116-1.619.694-1.5 1.849-1.271 1.213.288 2.716 2.544 1.561 2.6 2.311 1.5 2.081.113 2.023-2.08.867-3.7-.578-1.907-2.2-2.369-2.08-3.813.809-3.813.809a1.243 1.243 0 0 0-1.965-.29c-1.213.982-1.906.982-2.311 1.965s-.867.867-1.1 1.733-1.733.983-.983 3.179 1.5 2.716 1.907 3.7-.288 2.08 1.5 2.253a4.5 4.5 0 0 0 3.7-1.214c.867-.751 4.394-2.2 4.739-1.559s.232.983 0 2.138-2.139 1.675-2.6 2.948a4.481 4.481 0 0 0-.288 3.062c.288.983.52 2.774 1.329 2.485s.809-1.677 2.369-.867-1.1 2.369-1.271 2.774.578 1.1 1.387 1.733 1.329.635 0 1.675-3.005.579-1.387 1.329 2.659 1.042 4.8-.635 2.313-1.965 4.046-2.081 2.774-1.907 1.964-2.658-2.136.116-2.08-1.156-.809-2.022.693-3 .116-3.814 1.619-4.219.751 0 2.542.867 2.948 2.543 3.063.636-2.139-1.733-2.139-3.7-.577-1.907.462-2.543 1.387.4 1.849-.693-.4-1.733.983-3.352 2.948-2.89.983-2.658-.983 0-2.832.867-2.194.925-2.022-.346a6.05 6.05 0 0 1 1.039-2.659c.406-.635.058-1.5.752-3.178s.81-2.08-.23-3.062-1.908-.751-2.139-2.543-1.039-1.733.288-2.888 1.734-.81 1.445-2.89-.693-2.312-1.559-2.369l-.868-.058zm-6.356 3.93h-1.5c-1.5 0-.635.4-1.791 1.1s-.635.52-.983 1.965 1.1.694 2.2.578 1.155-.29 2.2-1.271.058-1.387-.116-2.369zm18.782-6.933c-.752.462-1.387.288-.868 1.617s.752.346.578 1.907-.173 2.081.462 3.005.809.4.867 2.022.232 2.948 1.04 1.791.52-1.329.867-2.888-.173-1.33.752-2.023 1.155-.4 1.155-1.156a5.446 5.446 0 0 0-.346-1.791c-.232-.867-.232-1.387-1.387-1.791a7.772 7.772 0 0 1-1.907-.751c-.406-.289-1.214.059-1.214.059z" class="cls-1" transform="translate(34.999 -74.994)"/>
            <path id="패스_5398" d="M376.134 468.636c.036-1.46-.064-2.2.011-2.908l.014-.113a28.1 28.1 0 0 1 .634-3.351 16.033 16.033 0 0 0 3.352-1.964c.982-.752-1.04-1.619 3.062-1.1a29.261 29.261 0 0 1 6.357 1.156c2.2.636 2.946-.231 4.853 1.444s2.253 1.272 1.907 2.89-1.156 3.062.52 3.352 2.484 1.213 3.582.809.636-1.154 1.965-1.675a34.572 34.572 0 0 0 3.236-1.329c1.155-.578 1.329-1.214 3.987 0s.65 1.362 4.334 1.906a10.011 10.011 0 0 0 3.781.032 5.991 5.991 0 0 0-.126.731c-.291 2.368-1.1 1.5.115 4.969s1.156 3.409.752 5.72-1.1 2.89-.867 5.143-.232.752-.983 2.6-.406 2.658-1.216 4.275-2.08 3.179-2.542 1.33a15.536 15.536 0 0 0-.865-3.41c-.81-2.138.288-2.543-2.369-4.276a21.752 21.752 0 0 0-4.162-2.2c-.4-.232-2.253-.809-1.387 0s1.388 1.04 2.543 2.253 1.675.694 2.138 2.543.984 3.12.752 4.565-.81 1.559-1.677 2.426-1.1 2.369-.694 2.89a2.746 2.746 0 0 1 .867 2.253c-.058 1.329-1.5 3.41-1.386 4.161s1.213.636 1.039 2.427.926 2.139-1.5 3.005-.406.635-2.313 3.178-3.87 2.542-4.737 3.93-.983.346-1.33 2.485a24.443 24.443 0 0 1-8.767-3.029c-4.006-2.466-.925-5.856-6.164-16.334s-6.164-4.006-10.787-8.938-2.774-1.849-4.006-6.472 1.849-2.157 9.554-5.856c6.802-3.254-.563-2.921-1.477-9.518z" class="cls-1" transform="translate(64.407 -70.552)"/>
            <path id="패스_5399" d="M365.711 526.433c.2-1.336-.434-2.435.2-4.082s.722-2.051 1.647-2.774 1.358-1.937 1.907-3.524 1.1-5.2 3.468-5.26a9.913 9.913 0 0 0 4.969-1.617c.867-.52 1.675-2.717 3.756-1.619s3 2.138 3.062 3.294 1.272 3.467 2.485 3.756 2.427.635 2.89 1.733 1.213 1.791 1.849 1.849c.214.02 1.034.206 2.024.441a10.44 10.44 0 0 0-2.936 3.557c-.809 1.849-.058 2.485-2.542 2.485s-3.64-.867-4.392-.174-.751 1.04-1.3 2.253.52.26-1.243 2.457-2.109 2.254-3.322 2.514-1.736-.724-.984.547 1.561 1.907 2.022 3.642 2.139 3.872-.231 3.062-3.236.636-3.64-1.56.173-2.891-1.1-3.065-2.948.233-3 .753a8.734 8.734 0 0 1-.868 2.715c-.346.406-1.271-.288-1.733.579s-.577 1.674-1.271 1.907-.4 2.31-1.156.172-1.212-2.081-.925-3.93a37.9 37.9 0 0 0 .694-4.1c.116-1.734.462-2.832.174-3.814-.221-.748-.006-1.966-.504-2.197z" class="cls-1" transform="translate(63.817 -59.33)"/>
            <path id="패스_5400" d="M187.519 425.01s1.494-.483 1.58-1.552.868-5.231.954-6.068a3.4 3.4 0 0 1 1.675-2.4c1.011-.636 1.791-1.559 3.352-1.879s2.687-.865 4.045-.345.895.9 2.109 1.357a7.129 7.129 0 0 0 4.508.779c2.426-.317 3.669-1.414 6.442-.433s1.416 1.965 1.387 3.264.288 2.023 1.561 2.457 1.559 1.04 2.976 1.415a5.763 5.763 0 0 0 2.543.462 13.6 13.6 0 0 1 2.31-.318c.492.116 3.67-1.473 4.71-.953s.578.722 1.359 1.069.693-.232 1.762-1.04a6.758 6.758 0 0 1 2.919-1.647c1.241-.26 2.744-.491 3.178-.028s.768-.678 1.953 1.142 2.426 2.918 3.12 4.219.895 1.589 1.733 3.208.058 2.2 2.2 2.628 2.369.088 2.8.636 1.011.982.664 2.08-1.473.954-.462 1.561 1.387.376 2.4.492 2.225.491 4.247.693a10.893 10.893 0 0 0 4.537-.2c1.965-.434 1.619.2 3.38-.722s1.33-.549 2.485-2.051.636-2.6 2.283-3.005a21.231 21.231 0 0 1 3.756-.462 4.416 4.416 0 0 0 3-.549c1.5-.895 1.156-2.225 2.6-2.022s2.341.577 2.891 1.646 2.686 1.532 3.669 1.7 1.59.116 1.907.78-1.04 1.156 1.069.78a8.063 8.063 0 0 0 3.148-.9c.81-.433.608-1.1 2.023-1.127s3.3-.982 4.306.492 2.745 3.236 3.034 4.131a15.582 15.582 0 0 1 1.127 6.042c-.231 2.426-.4 3.062-1.3 4.477s-2.254 1.734-2.744 2.311a6.34 6.34 0 0 0-1.185 1.561c-.346.722-3.264 4.709-4.565 5.229s-1.907.144-3.178.867-.52.868-1.937 1.1-1.906-.289-2.86.78-1.127 1.243-1.357 2.253-.26 2.4-1.1 2.948a38.694 38.694 0 0 0-4.479 3.5c-1.243 1.213-1.561.664-1.357 3.148s.895 2.225 0 3.988-1.763 1.3-1.907 2.86.086 2.051-.058 2.6-2.283 1.938-2.4 3.035.666 1.1.752 2.861.231 1.906-.925 2.744-1.791-.52-2.253 2.485-1.735 3.351-.55 4.911 3.034 2.138 3.554 3.12 2.427 3.005 2.311 4.652-.895 2.8-.895 4.276 1.127 2.053 2.166 3.062.232 1.733-.317 2.687-1.849 1.04-2.745 3.15-1.791 2.861-1.763 4.334.954 1.039.145 2.86-2.717 2.572-3.323 3.728a3.813 3.813 0 0 1-1.506 1.359c-.412-1.651-.786-1.3-3.256-4.092-2.659-3.005-3.988-2.369-4.855-3.063s-1.445-.462-4.739-.693-1.849.867-4.333 1.617-1.1 1.677-1.619 2.6-.346 1.5-.751 2.89-1.791.057-2.253-.348a11.783 11.783 0 0 0-3.005-.809s-1.271 1.5-4.219.925-1.964.058-3.813-.116-.81-.4-2.427-1.907-1.619-.346-2.6-.346-2.311 1.849-3.755 1.1-.81-.752-2.543-1.04-3.294 1.329-4.045 2.138-1.791 1.04-4.392.462-.462-.751-2.484-1.5-1.561-.983-1.677-2.543.867-1.04 1.5-2.832-.4-1.5-1.791-2.426-.4-.925-.636-2.6.232-2.022.462-3.178.232-1.329-1.329-2.023-.288-1.387-.231-2.658-.925-.867-1.907-.983-.925.116-1.965.52-1.04.867-1.965 3.178a7.355 7.355 0 0 1-2.426 3.467c-.925.925-.694.348-3.352.464s-1.04-.346-1.619-1.849a33.833 33.833 0 0 0-3.7-5.9c-1.849-2.659-1.271-1.848-3.929-3.005s-1.387.925-4.045 1.387-2.311.579-4.623.926-.232.693-1.272 2.774-.346 2.543-1.849 3.352-.346 1.039-1.039 4.506-.81 3.353-3.7 4.162-1.5 1.849-4.392 3.7-2.89.578-5.547-.809-.346 0-3.12 3.236-1.387 0-4.507-1.04-.81-1.04-.81-3.12-.809-2.081-3.467-3.93-.346-1.85-.116-4.045-.462-3.12-3.929-4.739a7.8 7.8 0 0 0-2.6-.827c.354-1.082.727-2.287 1.05-3.365.694-2.311.578-2.774 1.156-3.582a12.443 12.443 0 0 1 3.236-2.774 21.908 21.908 0 0 1 4.045-1.964c1.387-.346.288-.636 2.658-.694s2.6.232 3.988-.635.981-.29 2.716-.578.809-2.024 2.658-2.139 2.139-.4 3.294.577 1.271 1.966 1.849 1.388.116-1.677-.29-3-.288-2.6-.867-3.236-.867-1.042-1.559-.984a3 3 0 0 0-1.791.579 4.076 4.076 0 0 1-3.468.229c-1.675-.52-.346-1.155-3.12-.809s-2.774-.115-4.045.579-.578 1.213-1.965 1.1a9.882 9.882 0 0 1-2.716-.693s-1.965-.348-2.253-1.33-.462-.693-.462-1.964a27.9 27.9 0 0 0-.232-3s2.369-1.794 5.2-3.585 3.236-1.039 5.432-3.812.578-2.2 4.1-4.451 3.526-2.6 6.126-3.755 1.5-1.387 4.045-2.138a28.749 28.749 0 0 1 2.89-.925c.636-.058.636-1.62 2.6-.464s1.848 1.733 2.6 1.214 1.849 0 1.155-1.85-.4-2.945-1.965-3.7-2.31-1.733-3.177-1.907-4.334-2.427-3.526-3.121.752-1.212 2.253-1.328a22.676 22.676 0 0 1 4.739-.288c2.89.115 3.756-1.677 3.756-1.677a16.708 16.708 0 0 0 2.081-1.792c.519-.634 1.675-2.2.981-2.252s-1.617-.288-2.2.058a40.621 40.621 0 0 1-4.507 1.329c-1.214.346.636.4-2.023.694a31.476 31.476 0 0 1-5.2.057c-.981 0-1.5-1.1-3.294-1.213a12.523 12.523 0 0 0-3.294 0c-1.964.174-2.6.462-2.888-.231s-.4-.406-.29-1.561.867-1.5.29-2.081.925-1.965-.29-3.41a12.922 12.922 0 0 0-2.311-2.2s-1.733-.752 2.023-.52 3 .52 4.219.173 1.329-1.039 2.832-1.733 1.387-.346 3.582-.867 2.2-.694 4.045-1.213a54.423 54.423 0 0 0 5.086-2.023c.925-.346 1.907-1.156 2.2-1.213s5.953-2.89 6.068-3.93a4.439 4.439 0 0 0-.027-1.191zm-43.786 30.23c-.635.229-1.1-.81-.982.981s-.462 3.063.925 2.313 1.388.115 1.965-1.272a1.611 1.611 0 0 0-.809-2.255 3.169 3.169 0 0 0-1.099.233z" class="cls-1" transform="translate(11.461 -81.373)"/>
            <path id="패스_5401" d="M168.983 494.7a7.8 7.8 0 0 1 2.6.827c3.467 1.619 4.161 2.543 3.929 4.739s-2.542 2.194.116 4.045 3.467 1.849 3.467 3.93-2.311 2.08.81 3.12 1.733 4.275 4.507 1.04.462-4.623 3.12-3.236 2.658 2.658 5.547.809 1.5-2.89 4.392-3.7 3-.693 3.7-4.162-.462-3.7 1.039-4.506.81-1.271 1.849-3.352-1.039-2.427 1.272-2.774 1.964-.464 4.623-.926 1.387-2.542 4.045-1.387 2.08.346 3.929 3.005a33.833 33.833 0 0 1 3.7 5.9c.578 1.5-1.039 1.964 1.619 1.849s2.427.461 3.352-.464a7.355 7.355 0 0 0 2.426-3.467c.925-2.311.925-2.774 1.965-3.178s.983-.635 1.965-.52 1.965-.288 1.907.983-1.329 1.965.231 2.658 1.561.868 1.329 2.023-.693 1.5-.462 3.178-.751 1.677.636 2.6 2.427.635 1.791 2.426-1.617 1.272-1.5 2.832-.346 1.791 1.677 2.543-.116.925 2.484 1.5 3.64.348 4.392-.462 2.311-2.426 4.045-2.138 1.1.288 2.543 1.04 2.774-1.1 3.755-1.1.983-1.155 2.6.346.578 1.735 2.427 1.907.867-.462 3.813.116 4.219-.925 4.219-.925a11.786 11.786 0 0 1 3.005.809c.462.4 1.849 1.734 2.253.348s.231-1.965.751-2.89-.867-1.849 1.619-2.6 1.039-1.849 4.333-1.617 3.872 0 4.739.693 2.2.058 4.855 3.063 2.888 2.369 3.351 4.507a15.057 15.057 0 0 1 .4 4.161c.059 1.965-.057 8.61 1.272 10.17s3.64 2.716 4.449 3.814-.288 1.675 1.619 2.6 1.387-.231 3.062 1.965a25.051 25.051 0 0 1 3.178 4.8c.809 1.675 1.791 2.022 4.045 3.409s2.2 1.5 2.2 3.12.116 3.526.23 5.491-.288 2.311-.462 3.7a18.786 18.786 0 0 0-.041 2.69 2.9 2.9 0 0 1-1.453-.351 9.59 9.59 0 0 1-2.081-2.311c-.52-.52-.925-1.675-1.387-.809s-.925-.058-.462 1.907 1.965.577.52 2.946-.983 2.081-2.543 3.063a18.351 18.351 0 0 0-2.368 1.559c-1.734 1.272-1.1 2.023-2.89 1.387s-1.964.116-2.774-.867a22.411 22.411 0 0 1-1.445-2.427c-.636-.925-.058-3.929-1.965-2.254s-1.791-.231-2.08 2.543-.52 3.987.288 4.911.809.116 1.791 2.253.346 1.677 1.619 3.526.115 1.213 2.253 2.426 2.022 2.023 3.929 1.445.636.29 2.2-1.155.867-2.485 3.12-2.253a38.067 38.067 0 0 0 4.623.462c1.213-.058 1.155-1.214 2.427-.29s1.271.348.751 2.543-.232 3.062-1.445 3.814-1.445.23-2.08 3.582 1.04 5.316-.693 6.3-3.121 1.329-3.988.694-2.948-3.121-3.988-2.832-2.2.578-2.369 1.617 1.33 1.735-.115 2.369-2.311.4-2.253 1.561-.174.983 1.213 3.12 1.329 3.062 1.155 4.219 1.619 3.813-.462 3.236-2.31.116-3.062-.925 1.213-1.387-1.675-1.733-4.046.23-4.276-1.272a13.138 13.138 0 0 1-.462-4.449c.231-1.965-1.213-2.023.346-3.178s1.849-.751 1.849-2.081a34.982 34.982 0 0 1 1.04-5.085 4.174 4.174 0 0 0-.636-2.253c-.519-.809-2.022-1.849-2.716-3s-1.5-2.832-1.5-2.832a5.012 5.012 0 0 0-1.155-2.253c-.751-.578-.925-.867-.983-2.716s.29-4.1-.115-4.276.462-.462-.462-.174a2.646 2.646 0 0 0-1.849 1.964c-.116.868.173 1.734-.694 3.063s-.231 1.619-2.716 1.734-2.2 0-4.8.058a17.386 17.386 0 0 0-5.085.577c-1.329.4-.577 1.907.752 2.369s2.426-.116 2.716.578 1.1.865-.174 2.485-.635 1.906-2.426 2.022-2.023-1.849-3.353 0-2.426 1.791-.519 2.253.173-.577 2.658.348 2.832 2.022 1.849 2.716-1.733.4-1.213 1.387.923 1.039.983 1.791-2.255 1.329.346 2.6.578 0 3.294 1.677 4.739 3.178 5.085 4.449 1.271 1.733.173 2.2.578.578 2.255 1.214a17.354 17.354 0 0 1 1.733.693s.983 2.081-.116 3.236a6.977 6.977 0 0 1-3.352 1.849c-1.1.346.346 1.156-2.427.288s-2.542-.346-4.853-1.964-3.467-3.352-4.739-1.965-2.946 2.253-2.83 3 .635 1.5 2.136 2.659 2.2 1.039 1.677 1.907-1.849 1.1-.52 1.329a10.566 10.566 0 0 0 4.623-.4c.752-.406 1.965-1.849 2.081-.462a6.351 6.351 0 0 1-.867 3.813c-.752 1.5-1.272 1.561-1.908 3.236s.232 1.849-2.022 2.774a8.836 8.836 0 0 1-2.542.867 2.967 2.967 0 0 0-2.543-.4c-1.213.52-1.329.52-1.675 1.387s.346 1.387-.406 2.369-1.1-.578-2.426-2.2-1.734-3.236-2.254-3.93.288-1.444-1.561-1.964-1.849.173-2.426-1.214a10.371 10.371 0 0 0-1.792-2.946c-.636-.752.868-1.561-1.387-1.1s-2.138-.693-3.987 1.156-.116 3.871-3.467 2.138-3.756-1.675-3.584-3.005a13.287 13.287 0 0 1 1.728-4.395c.4-.4-.521-.636 1.964-2.2s2.6-.81 2.832-2.254-.174-2.081 1.214-3.179 1.5-1.559 1.964-1.329 1.04 1.445.058 3.005-1.156 4.391-.694 4.739.174.693 2.023.751.636.636 2.543-.982 2.427-2.08 1.849-3.756-.462-2.138-.752-2.427-.288-.173-.867-2.138a11.65 11.65 0 0 1-.577-2.542s.057-2.717.809-3.352a2.554 2.554 0 0 1 1.907-.809c.4.115.865 0 .865 1.155s-1.039.809 0 2.254-.173 1.156 1.734 1.677.983 1.038 2.427.115 1.155-.983 1.675-1.271.577.058 1.271-1.04 1.734.116.868-2.311-1.156-2.253-1.042-3.351a13.461 13.461 0 0 0 0-3.756c-.231-.694.29-1.329-.519-.752s-.983.058-1.561 1.561-.174 1.213-.925 1.849-1.155-.058-1.329 1.329 1.04 2.89-.635 2.023-1.85-1.1-1.85-1.735a2.683 2.683 0 0 0-.288-2.2c-.693-1.559-.925-.578-.925-2.2s.578-2.658-.52-2.832-1.733-1.271-2.138.289.867 1.849-.809 2.543-2.659-.694-3.294.867-1.1 1.213-.636 2.253.288.694.693 1.1.868 1.041.578 1.675a6.466 6.466 0 0 1-2.426 1.849c-.636.29-1.677-.635-1.677-.635s.52.4-.288-.348-1.33-1.733-2.023-.983-.058.578-.867 1.33a2.853 2.853 0 0 1-1.965.925c-.925.173-.288-1.445-1.387.577s-.519 2.139-1.906 3.121-1.04 0-3.814 1.906-3.178 2.89-4.276 3.526-2.2-.4-2.832.635-.462-.289-1.5 2.485-.058 3.236-.116 6.068a7.02 7.02 0 0 1-2.427 5.143c-.809.809-1.387-.462-1.906.346s-.81.288-.52 2.081.809 1.964.346 3.524-.52 2.08-1.675 2.023-1.5-1.5-2.6-.462-1.155.867-1.271 1.559.462 1.619-.346 2.253-1.559 1.445-2.542.174-1.388-1.791-2.485-2.2-.52.346-1.907-.867a5.088 5.088 0 0 1-1.734-2.139 3.232 3.232 0 0 1-.519-1.213c-.232-.809-.231-.116-.346-2.139a17.76 17.76 0 0 1-.116-4.217c.173-3.179.462-3.41.173-4.913s.462-2.311-.173-2.774a10.032 10.032 0 0 0-1.907-.925 2.381 2.381 0 0 0-1.5.462c-.636.52-.981-.23-1.04.982s-.635 1.04.116 2.311.867 1.1.867 1.619.809 1.444-.288 2.08-2.253-.058-2.6 1.213-1.965 1.387-.348 2.139 1.965-.058 1.965.983.52 1.271-.462 2.253a4.174 4.174 0 0 1-1.964 1.329c-.348.058-2.833-.116-2.659.809s.925.174.867 1.445 1.445 1.791-.694 1.849-2.311-1.387-2.946 0-.116 1.156-.925 2.081-.174.693-1.791 1.1-1.791-.058-2.081.752-.693 1.213-1.213 2.426-.345.058 1.042.52 1.561.232 2.2-.346-.462-.751 1.329-.809 2.717-.348 3.642.635 1.849.925 2.369 2.369a13.548 13.548 0 0 1 .923 2.832c.348 1.619-.751 1.445.925 2.485s2.255.115 2.832 1.617a4.942 4.942 0 0 1 .174 3.12c-.115.81 1.561 1.1-.577 1.5a15.628 15.628 0 0 1-3.584.4 4.448 4.448 0 0 1-3.236-1.329c-.577-.578-1.039-.4-.867-1.733s2.542-1.213-.173-1.5-2.255 0-3.988-.462-2.484-.116-2.484-2.253.577-2.658-.174-3.466-.81-1.33-1.387-1.33-.868.116-1.156 1.735a9.7 9.7 0 0 1-.925 2.888 9.95 9.95 0 0 1-2.023 3.236c-.4.52-2.716.694-3.467 1.156s-1.1 1.5-2.2 1.733-1.445 1.156-1.965-.288 0-3.814.058-4.334 2.022-1.155-.578-1.907-3.178-.058-3.64-.867-1.213-.809-.636-2.369a20.563 20.563 0 0 1 1.849-3.524c.81-1.445 1.387-2.023 1.619-3.236s1.5-1.1-.636-1.907-2.6.346-2.658-1.445.4-1.675.52-3.236-1.1-2.311-1.619-3a3.457 3.457 0 0 1-.52-1.791s1.388-.694 2.255-1.214.288-.116 2.311-.635a21.338 21.338 0 0 0 2.832-.81c.4-.173 0-1.617-.406-2.022s-1.27-.4-.345-1.965 1.1-2.023.981-2.427.058-1.617-.751-.809-.578 1.329-1.675 1.329-1.791-1.155-2.832-.636-1.5.348-2.139 1.677-.231 2.022-1.619 1.559-.923-1.5-2.136-1.387-1.792 0-2.6.752-1.445.4-1.617-.462-.752-1.387-1.1-1.387a2.467 2.467 0 0 1-1.445-.058c-.867-.288-1.272 0-1.329-.867s0-2.772-1.156-1.849-1.271 1.271-1.733 1.1-.232-.115-.925-.635-1.214-.809-1.733-1.214-.752-.231-.983-.981a5.137 5.137 0 0 0-.578-1.156c-.174-.4.81-1.155 1.445-1.617s2.023-.982.348-1.619a17.979 17.979 0 0 1-2.6-.983c-.4-.288-.52-.809-.348-2.022s-.809-.348-.751-1.619a12.336 12.336 0 0 1 .116-2.369c.231-1.791-.462-1.445.058-2.832s.346-1.733.925-2.658a3.934 3.934 0 0 0 .809-1.907 16.711 16.711 0 0 1 .867-2.89c.288-.462.406-.693.752-.693a2.5 2.5 0 0 1 1.733.346c.925.52 2.139.462 2.543 1.791s-.464.232.4 2.832.81 2.253.636 3.294-.4.578-.577 2.081-1.214.115-.174 2.138 1.675 1.908 1.964 3.582 0 1.677.348 2.6.057-.232.981 1.1 1.965 2.023 2.832 2.023-.809-1.27 1.561.116 2.255 1.271 3.236 1.5 2.485.232 2.485-.577.058-1.272-.693-1.445-1.214 1.5-1.619-.636-.406-2.023-.578-3.062-.232-.925-1.561-2.485-1.213-1.445-2.484-2.023-1.907-.925-1.445-1.849.4-1.733 1.1-2.138 1.156-1.1 2.369-.462-1.155.288 1.388.809 2.888-.577 2.832 1.619-1.214 2.2.288 3.467-.926.4 2.946 2.2 3.294 1.791 3.93 1.849.925-1.041.925-1.561-.578-2.023 1.155-1.5-1.155-.578 1.965 1.156 4.392 1.964 4.623 1.559a1.891 1.891 0 0 0-.752-2.022c-.751-.52.058-.636-1.849-2.311s-1.155-.636-3.467-2.427-3.7-2.427-4.1-3.814-.577-2.832-1.5-3-.288-1.387-1.849-1.272-2.772.406-4.045-.173.348-1.1-1.445-.809-1.906.751-3.294.809a2.54 2.54 0 0 1-2.023-.694s-.693-1.675-.057-1.964a3.659 3.659 0 0 1 2.6-.578c1.5.173 0 .578 3 .346s4.623.52 3.93-1.04-1.271-3.929-1.791-4.737-2.022-1.677-2.948-.52a9.481 9.481 0 0 1-2.946 2.6c-1.1.578-.406 1.561-2.139.925s-2.311-1.155-1.907-2.2.868-2.832 2.313-3.64 3.062-.983 3.582-2.6a8.691 8.691 0 0 0 .232-4.1 3.617 3.617 0 0 1-.29-2.484c.29-1.214-.116-1.156-.462-2.717a18.889 18.889 0 0 1-.52-2.658c-.115-1.04-.635-3.178.462-3.64a9.46 9.46 0 0 0 2.311-1.271c1.329-.867.867-2.717.29-2.948s.519-1.675-1.735-.462-3.062 1.04-3.409 2.254.057 0-.521 2.311-.867 2.485-1.1 2.774a1.719 1.719 0 0 1-.925.636c-.577.231-.4 1.155-1.849.636a2.916 2.916 0 0 1-1.849-2.255 3.2 3.2 0 0 0-.52-.981c-.232-.406-.694-.522-.925-1.445s-2.022-1.619-.231-2.311 2.369-.462 2.542-1.561a20 20 0 0 1 .52-2.254 21.812 21.812 0 0 1 3.178-.4c1.155 0 1.734-.29 1.445-.983s.288-.694-1.214-1.907a5.276 5.276 0 0 1-2.194-3.178 11.862 11.862 0 0 0-1.446-3.294 5.79 5.79 0 0 0-1.559-1.5c-.462-.4-.346-.926-.578-.462s-1.213.925-1.155 1.272 1.1 1.444.867 2.022-.462 2.658-1.04 2.658a1.524 1.524 0 0 1-1.387-.635c-.4-.52-1.791-.868-1.617-1.965s.809-.867.346-1.561a12.117 12.117 0 0 1-1.272-1.733c-.346-.751-1.964-3.929-1.964-3.929s-.636-1.965.4-2.369 3.41-1.1 3.813-.578.52-.117.983 1.1 1.387 2.252 2.485 1.616 1.5-2.138 1.907-2.658.462-2.2 1.675-1.1 1.561.868.984 2.14-1.388.346-1.33 2.2-.809 1.561.288 2.658.636-.752 1.734 1.386 1.444 3.468 2.253 3.468 1.329-.865 1.617.174a22.814 22.814 0 0 1 .462 2.716c.29 1.677-.231 2.369 1.156 2.2s1.617-.116 1.849-.983-.174-.348.751-1.907a8.868 8.868 0 0 0 1.214-2.832 3.891 3.891 0 0 0 .057-3.12 3.593 3.593 0 0 0-1.445-1.907 17.088 17.088 0 0 1-2.946-3.12 31.613 31.613 0 0 0-2.311-2.716c-1.214-1.387-1.387-1.041-1.617-2.14s-.116-2.31-1.1-3.523.174-2.429-.231-2.833a6.8 6.8 0 0 1-.693-2.254s.865-.578-.752-.982-3.294-.751-2.774-1.213.751-1.1 1.677-1.04a8.045 8.045 0 0 1 1.791.346 5.728 5.728 0 0 0 .058-1.849c-.117-1.213-1.04-2.023.577-2.2s1.445.287 2.023-.578-.058-1.329.346-2.427a16.253 16.253 0 0 0 .867-2.6 1.289 1.289 0 0 0-.057-.461c-.058-.348.287-.867.346-1.965s-.29-2.484.693-3.121-.52-2.081 1.791-.925 1.561 3.353 3.063 3.7 2.427.807 1.617-.868-1.155-2.888-1.5-3.351-1.33-.117-1.387-2.2-.29-2.484.173-3.524c.247-.555.625-1.637 1.031-2.876zm57.708 33.461a10.325 10.325 0 0 1-1.079-2.311c-.848-2.389-1.156-3.312-2.235-4.315s-.231-1.31-1.387-1.31 1.079-.693-2.7 0-5.163-.385-5.163 1.541.616 2.159.694 3.852.539 1.387-.154 2.62-.848-.385-.848 1.7.231 2-.308 2.929-2.62.615.232 2.31 4.161-.769 3.389 3.083-1 4.237-.231 4.469 2.157.076 4.161.462 0 .77 4.855.694 6.24.538 6.626-2.7 1-3.467.385-6.626 1.7-2.774-.925-3.621-4.545-1-4.7-1.54a5.571 5.571 0 0 0-.616-1.234zm83.349 40.743c-.664.78-.23 1.011-1.675 1.185s-1.821-.492-1.935.433-1.879.81 0 1.531 1.964 1.849 3.148.492.346-1.387 1.473-2.023 2.225-1.647 1.33-1.849a5.944 5.944 0 0 0-2.341.232zm4.018 24.105c-.29 1.3-.636 1.07-.144 2.139s.807 1.04.635 2.456.29 1.358-.78 2.687a18.117 18.117 0 0 0-1.82 2.4c-.664 1.069-1.5.984-.983 2.6a5.056 5.056 0 0 0 2.138 3.12c1.272.984.867 1.241 2.34 2.311s3.294 1.5 3.67.375-.605-2.369-.779-4.651-.117-1.878.4-3.352 1.214-1.04-.143-2.716-1.995-1.849-1.937-2.716.318-.636.376-1.849a2.9 2.9 0 0 0-.666-2.369 5.322 5.322 0 0 0-1.647-.722 1.082 1.082 0 0 0-.663.289zm7.167 30.974c-.521.434-.925.29-1.04.983s-.521.925.057.954 1.012.375 1.532-.318a5.278 5.278 0 0 0 .722-1.271s.116-.26-.2-.318a7.375 7.375 0 0 0-1.069-.03zm-2.326 5.636c-.505.419-1.054.476-.694 1.04s.838.693.621 1.4-.534 1.012-.563 1.416-.751.362.03 1.1 1.04 1.257 1.43.81.592-.608.708-1.879 0-1.026.131-2.094.317-1.864 0-2.138.4-.593-.55-.333-1.112.679-1.112.679zM310.592 617c-1.358.028-1.937-.52-2.109.317s-.867 1.416.809 2.255 1.445 1.1 2.6 2.254a9.637 9.637 0 0 0 1.937 1.791c.78.491.028.375 1.791.895s2.051.867 2.022-.288a12.442 12.442 0 0 0-.549-2.918c-.173-.664.03-.376-.4-2.2s-.578-2.255-1.445-2.774-.26-.954-1.473-1.012-1.935-.318-2.109.376a2.633 2.633 0 0 1-.664 1.155l-.4.145zm-6.762-3.642c-.664-.317.116-1.011-.895-.779s-1.619.4-1.561.837-.578-.52.346 1.185.694 2.2 1.156 2.253a1.927 1.927 0 0 0 1.617-.722c.578-.607.954-.751 1.185-1.357s1.763-1.069.174-1.329a4.715 4.715 0 0 0-2.023-.088zm-12.6-5.663c-.491.578-1.011.319-.751 1.128s-.03.952.809 1.039 1.127.232 1.329-.144.724-.78.549-1.473.058-1.415-.751-1.069-1.185.519-1.185.519zm-3.9 9.622c1.271.722 1.329 1.04 1.935.232s1.012-.376.664-1.7-1.271-2.572-1.82-2.485c-.295.048-2.589 2.93-.78 3.958zm-5.317 9.968c-.752.174-.868-.346-.752.81s.578 1.387 1.271 2.022.984.232.868 1.445-1.214 1.213.288 1.907 2.081 1.5 3.236.867-.462-.636 1.387-.867 1.5-1.675 1.272-2.485.751-1.1-1.042-2.138-.115-1.849-2.311-1.675a12.2 12.2 0 0 0-3.236.519.967.967 0 0 1-.981-.4zm-1.733-7.569a6.439 6.439 0 0 0-.29 2.716c.174 1.04-1.213.982 1.329 1.675s2.2 1.387 3.063.636 1.906-.29.867-2.139a7.88 7.88 0 0 0-1.792-2.311c-.807-.981-.807-2.484-1.387-2.484s-1.79 1.907-1.79 1.907zm-15.576 62.5c-.4.578-.52-.144-.462 1.011s-.29 1.156.2 1.763.519 1.243 1.213.9 1.069 0 1.1-1.417.2-2.109-.144-2.6-.174-.664-.492-.607a1.743 1.743 0 0 0-.953.549 1.458 1.458 0 0 1-.462.4zm-2.2.116c.491.722.462 1.357.549 2.918s.086 1.849.491 1.907 1.474-.721 1.619.145.318 1.934-.549 1.876-.984 1.214-1.908-.23-1.357-.953-1.445-2.658-.317-2.225-.259-3.324.259-1.791.693-1.647.81 1.012.81 1.012zm-4.855-25.685a9.721 9.721 0 0 1-1.04 1.559 8.668 8.668 0 0 0-.722.722 2.264 2.264 0 0 0-.491 1.185c-.116.52-1.012.434-.116.954s.231.838 1.445.693 1.243.174 1.647-.549.375-1.416.664-1.993a1.929 1.929 0 0 0 .231-1.879c-.346-.809-.318-1.011-.722-1.011a2.05 2.05 0 0 0-.895.318zm11.759-5.259c-.636.578-1.214.607-1.04 1.359s-.086 1.185.636 1.3.722.462 1.357-.4.838-1.04.694-1.415-.26-1.012-.607-1.069a2.749 2.749 0 0 0-1.04.231zm4.681-1.415c-.462.433-1.416.288-.752 1.271s-.232.867 1.185 1.473 1.879.9 1.993-.086.666-.607-.057-1.619-.954-1.213-1.127-1.213-1.243.174-1.243.174zm-15.2-15.312a1.055 1.055 0 0 0-1.069-.376c-.751.117-.375.346-.4 1.156s.2.751.607 1.444a7.193 7.193 0 0 1 .867 2.311c.144.81 1.012.667 2.053.407s.4-1.012.231-1.937-.549-.666-1.5-1.417-.434-1.271-.78-1.589zm-8.843-11.3c-.895 1.3 1.069 1.589-1.733 1.473s-2.977-.607-3.67-.376-2.86-.028-3.264 1.3-.376 2.6 1.04 3.38 1.646-.375 2.05 1.445-.173 2.369 1.706 2.253 1.588-.52 2.859-.9a3.916 3.916 0 0 1 2.717-.146c.694.29-1.069.81 1.213.26s1.792-.549 2.543-1.791.838-.318 1.155-2.253.145-4.277-.519-4.565.057.232-1.763-.434-1.84-1.007-2.48-.747a14.493 14.493 0 0 0-1.849 1.1zm-6.82-3.829a2.684 2.684 0 0 0-.91.088c-.376.129-.189.433-.232.925s-.028 1.3-.043 1.82.4.3 2.023.187.072-.592.2-1.011.129-.462-.232-1.041-.419-.433-.809-.968zm-7.9 9.278s-.779.115-1.718.173-.434.55-.563 1 .346 1.17.693 1.82.766.578 1.113 1.633.938.867 2.268 1.039.433-.173.822-1.026.073-.419.015-1.3a11.86 11.86 0 0 1 .058-1.589c.014-.925-.2-.679-.794-1.127a5.69 5.69 0 0 0-1.894-.621zm4.882 8.047c-.29.346-.29.245-.9.636s-.925.317-.837.867-.433.766.491.953 1.763.187 2.051-.159a2.281 2.281 0 0 0 .318-1.806 1.086 1.086 0 0 0-.65-.607 3.829 3.829 0 0 0-.477.116zm-5.491 2.253a10.564 10.564 0 0 0-1.907-.578c-1.444-.346-.519.982-.519 1.965a5.672 5.672 0 0 0 .635 2.167c.2.607.809.433 1.647.895s.779 1.244 1.359 2.109 1.1-.057 1.791-.75.288-.954 1.213-1.764.086-.664-.2-1.357-.231-.116-1.531-.29-.549-.519-1.359-1.357a6.322 6.322 0 0 0-1.127-1.04zm-6.762 5.2c-.216.231-.677.26-.786 1.155s-1 .608-.161 1.647-.38.982 1.275 1.243 2.06.867 2.591-.028a5.282 5.282 0 0 0-.953-3.526c-.434-.26-.348-.433-.9-.433s-1.069-.058-1.069-.058zm-17.423-1.763c-.2.636 1.387.549-.55 1.042s-2.456.23-3 .491-2.313.491-.752 1.127 2.341.433 3.526.752 1.559.4 1.531.953-1.07.694-.028 1.329 1.212.9 2.368-.086-.722-1.244 1.763-1.128 2.976-.491 2.948-1.039.058-2.022-1.416-2.369-2.63.03-2.946-.375.375-.811-.81-1.071a3.54 3.54 0 0 0-1.993-.086 3.281 3.281 0 0 0-.635.462zm8.552-7.626a15.463 15.463 0 0 1-2.225.144c-1.33 0-.318.578-.549 1.357s.2 1.185.925 2.369a3.924 3.924 0 0 1 .809 1.993c.173.868 1.069.954 1.82 1.156s1.33-.636 1.937-1.243 2.022-1.213 2.253-2.282-.058-.925-.954-1.647-1.415-.318-2.514-.752-1.127-.925-1.5-1.1zm-6.07-1.3c-.577-.346-.317.4-1.068-.78s-.636-1.561-1.416-1.791-1.07-.52-1.791-.346a2.076 2.076 0 0 0-1.5.895 6.306 6.306 0 0 1-1.849 1.619c-1.069.722-1.619.722-2.051 1.617a3.03 3.03 0 0 0-.434 2.167c.174.664 1.185 1.011 1.243 2.427s-1.5 2.775.491 1.561 2.023-2.745 3.208-3.467 1.04-1.012 2.225-.84a5.966 5.966 0 0 0 1.935.144c2.109.059 2.485.26 2.717-1.011s-.03-1.559-.29-1.733a8.563 8.563 0 0 0-1.416-.462zm6.871 57.24c-.231.086-.549 0-.721.577s-.694.492-.058 1.04.462.462 1.011.953.174 1.128 1.185.578 1.445-.724 1.213-1.329-.953-1.5-1.445-1.589-1.185-.231-1.185-.231zm-2.948-30.05a3.9 3.9 0 0 0-1.734 1.155c-.288.462-.4 0-1.328 1.445s-1.388 1.734-1.1 2.311-2.081.174.809 1.271 3.178.578 3.582 1.677.636 1.675 2.255.925 2.774-1.04 2.138-1.965-1.677-1.214-1.791-2.139.4-1.849-.174-2.484-.52-1.1-1.1-1.214-.636-1.906-.926-1.675a4.794 4.794 0 0 0-.635.694zm-14.087 1.5c-.422.4-.886.29-.843 1.214s-.3 1.445.295 1.5.676.578 1.575-.057c.52-.636-.29-2.427-.29-2.427l-.737-.232zm-27.492-.085c.29.4.55.318.434 1.04s-.433.836-.549 1.243-.145.635-.608.577-.635-.115-.635-.577a3.9 3.9 0 0 1 .086-1.156c.116-.462.088-1.07.492-1.186a1.239 1.239 0 0 1 .779.059zm2.948 2.456l-.578-.464c-.578-.462-.635.464-.635 1.156s-.348.868-1.04 1.156-.867.636-1.445 2.2.116 1.907 1.04 2.658 1.791.406 3.7.462 1.561-.346 1.965-.925a8.988 8.988 0 0 1 4.333-1.848c1.04.932 1.561.1 1.733-.729s-.577-1.935-1.271-1.935-1.675.692-3.178.9-.809 0-3.409-.9-.52-.83-1.214-1.728zm13.06-1.5c-1.04.636-1.271.348-1.387.982a5.207 5.207 0 0 0-.058 2.31 2.227 2.227 0 0 1 0 1.736c-.231.867-.751.634-.4 1.387s-.578 1.444.925 2.311 1.733 2.253 1.907 0a8.542 8.542 0 0 0-.116-3.642c-.29-1.156-.983-2.08-.116-2.716s1.1.52 1.04-.925a3.592 3.592 0 0 0-.751-2.2l-1.04.751zm-8.841-4.8s-.694.52.867.752 1.561-.52 2.369.4.925 1.156.925 1.791.288.461.058 1.792-.462 1.791-1.791 1.964-.52 1.213-2.427.232-2.253-.926-2.253-2.543a15.372 15.372 0 0 1 .462-3.757c.232-.98-.4-2.021.694-1.328l1.1.693zm4.1-2.369s-.983.752-.4 1.562-.346 1.213.925 1.039 1.675-.288 1.329-1.213-1.849-1.388-1.849-1.388zm-35.185-19.589c-.3.383-.5.605-.5.886a2.434 2.434 0 0 0 .237 1.31c.346.144 1.617-.29 1.589-.838s.549-.434-.144-.9a2.365 2.365 0 0 0-1.179-.462zm-26.993-15.631c0 .346-.52.751-.636 1.559s-.867.809.116 1.445.751 1.1 1.329.174.636-1.214.232-1.965a4.012 4.012 0 0 0-1.04-1.213zM20.035 672.689c.29 1.069-.722.925.607 2.225s1.532.318 1.995 1.7 1.5 1.993.231 2.34-2.022.838-2.658.144a2.334 2.334 0 0 1-.867-1.878c-.116-1.1-.03-1.359-.9-1.763s-1.3-.058-1.243-1.387-.057-2.08.549-2.253 2.283.867 2.283.867zM32.1 589.7c-.39.489-1.142.766-1.243 1.574s.348 1.155-.39 1.4-1.156.2-1.243.91-.607.608.1 1.445 1.185 1.156 1.748.651a4.954 4.954 0 0 0 1.17-2.008c.245-.7.535-.651.983-1.358a1.769 1.769 0 0 0 .116-2.066c-.434-.9-.636-1.257-.8-1.2s-.447.651-.447.651zm28.95 7.353c-.058.318-.4 1.5-.837 1.7s-.434-.578-.608.346-.664 1.445.288.982a2.662 2.662 0 0 0 1.619-1.473c.376-.78.9-.838.578-1.416s-.03-.607-.376-.607-.664.462-.664.462zm-3.9-4.421c1.04.938 2.311 1 1.156 2.344s-1.445 1.113-2.313 2.461-.981 1.407-1.155 2.109.867.879-.578 1.055-1.559 1.171-1.617-.587-1.329-1.289.288-2.695 1.965-1.7 2.023-3.07c.058-1.444.462-2.426 1.329-2.022l.867.4zm64.112 49.291c-.578.145-.895-.462-1.965.318s-1.964.867-1.155 1.589 1.069 1.531 2.109.694 1.675-.78 2.2-.52-.867.635 1.069.722 2.311.78 2.139-.29-.116-2.051-1.791-2.224-2.6-.29-2.6-.29zm-3.814 8.351s.116-.29.953.809 1.156.664 1.156 1.3.231.953-.549 1.039-.984.406-1.763-.462-1.012-.519-1.213-1.329-.666-1.473.115-1.387a6.466 6.466 0 0 0 1.3.03zm6.53 4.969c-1.069.346-1.387.144-1.359.809s1.965 1.243 2.225 1.156a4.571 4.571 0 0 0 1.1-1.937 11.427 11.427 0 0 0-1.965-.028zm1.7-8.437c-1.012.058-1.619.52-2.716.578s-1.1-.434-1.7.26-1.993.086-.4 1.387 0 1.011 2.109 1.733.115.867 2.6.722 2.716-.4 2.918-1.011a3.744 3.744 0 0 0 .232-2.456c-.348-.722-.03-1.243-1.243-1.532s-2.456-.159-2.4.116.608.2.608.2zm20.6-36.028a7.79 7.79 0 0 0 2.081 2.774c.635.462 1.213 0 .751.982a10.42 10.42 0 0 1-1.619 2.426c-.635.752-1.039 1.5-2.253.81s-.693-.925-2.311-1.33-2.08-.692-2.426-.462-1.5-.751-2.369-.289-.058.81-1.04 1.733-2.023 1.156-1.445 2.139a4.165 4.165 0 0 0 1.733 1.559c.52.348.636.29.636 1.329s.693 1.5-1.329 1.5-1.271-.693-2.543.4-1.907 1.734-2.138 2.716-.694 1.216-1.271 1.792-.868 0-1.1 1.213a10.6 10.6 0 0 0 .549 4.276c.376 1.3-.809 1.85.462 2.224s1.617-.231 2.08-1.155 2.486-.983 2.717-.4.434.607-.086 1.791-1.474 1.647-.2 2.109 2.976 1.445 4.131 1.011.4-.462 1.879-.925 1.415-.519 2.888-.953 2.139-1.213 3.179-1.561 2.08-.028 2.976-.838 2.283-1.791 2.426-2.716.058-2.167 1.04-1.993 1.214 1.935 1.532 2.283.144.491 1.445-.925a5.036 5.036 0 0 0 1.531-2.948c.26-.982.78-1.185 1.214-2.774a6.193 6.193 0 0 1 1.011-2.629c.607-.867.491-1.271.2-2.311s-.348.174-1.7-2.629-1.155-2.022-1.358-3.12-.288-1.935-.693-1.935-.983-.434-1.329.4-.144 1.357-.925 1.213-.925-.318-1.271-1.271-.464-1.5-1.446-1.821-1.011-.375-1.733-1.387a9.871 9.871 0 0 0-1.7-1.675 2.112 2.112 0 0 1-.549-.953s.346-1.561-.549-1.329-1.213.144-1.243 1.329a13.165 13.165 0 0 0 .173 2.311zm-17.711.78a1.757 1.757 0 0 1 1.589.318c.664.607-.058 1.243-1.011 1.907s-.348.2-.954.809-.722.722-2.572.694-.462-.174-.953-.809.26-.636.549-1.07a4.531 4.531 0 0 1 1.214-1.271 5.527 5.527 0 0 1 2.138-.578zm-28.633-9.418a8.037 8.037 0 0 0-1.329 2.89s-.635.867 1.329 1.329 3.178.635 3.178-1.156.867-2.253-.462-2.658a10.623 10.623 0 0 0-2.716-.4zm20.86 2.139c-.26.9-.837 1.069-.317 1.7s1.243.577 1.329 1.414-.318.984 0 1.62-.491.721 1.04.867 1.791.578 1.907-.231.375-1.388-.116-1.794-1.358-.462-1.474-1.183.232-.549-.317-1.675-.4-1.445-.954-1.445a1.076 1.076 0 0 0-.837.4l-.261.318zm5.057-1.675l.318-.434c.318-.433 1.04-.116 1.879.52s.895 1.5 1.213 2.311.81.694 1.473 1.849.261 1.213-.2 2.311-.722.376-1.532-.174-.462-.289-1.647-1.183-.231-.666-.288-2.081-.376-.549-1.271-1.445-.145-.953.057-1.675zm-11.5-2.022c-.4.549-.462.346-.492 1.329s-1.011.925.664 1.445 1.5 1.358 1.995.52.607-.4.693-1.445.288-1.849-.288-2.167-.319-1.1-1.186-.4a2.819 2.819 0 0 1-1.386.722zm19.185-1.531c-.636.116-2.543-.232-1.445 1.04s1.675 1.155 1.213 1.849-1.791.288-.983 1.271.578 1.213 1.907 1.155a15.25 15.25 0 0 0 3.294-.867c.578-.115.464-.867 1.675-.925s2.255-.751.636-2.022-1.617-1.445-2.6-1.5a10.057 10.057 0 0 0-2.659.462l-1.039-.462zm27.043-5c-.593.348-.883.348-.982.911s-.593.895.144.852 1.07-.217 1.3-.737a1.741 1.741 0 0 0 .058-1.243c-.073-.028-.52.217-.52.217zM118.828 580.1c-.809.693 1.322.462-1.985 1.041s-1.543-.752-5.144.577-4.41 2.2-4.484 3.236-1.69 2.255.955 3.468 1.691 2.485 3.528 1.213.073-3.467 1.061-3.871c2.08-.4 6.992 0 7.223-1.445s.621-3.988-.159-4.248-.736-.288-.852-.231-.144.26-.144.26zm10.978 2.949c.954.317 1.59.086 2.253 1.155s.608 1.01 1.185 1.329.694-.346.9.752.462 1.5.174 2.08-.838.232-1.272 1.156.29 1.531-.809 1.357-1.357.116-1.357-.838.288-1.675-.52-2.224-1.127-.348-1.416-.752-1.5.058-.664-1.647.9-1.444.9-1.791-1.1-1.069-.29-1.011.925.434.925.434zm7.252 2.946a5.841 5.841 0 0 0-.838 1.935c-.2.838-.287.406-.317 1.474a7.646 7.646 0 0 0 .231 2.427c.144.289-.4.231.925.433s1.387.751 2.081 0 .925-.086.779-1.733-.115-2.023-.721-2.8a4.64 4.64 0 0 0-1.214-1.271c-.346-.2-.4-.751-.664-.607l-.26.144zm-1.445-6.76a1.3 1.3 0 0 0-.492-.753c-.433-.345-.4.26-.577 1.1s-.2.926-1.04 1.85-.144 1.185.2 1.935.867.722 3.063.55.086-.435.4-1.387.174-1.042-.173-1.88a2.625 2.625 0 0 0-1.387-1.414zm-2.054-10.374s.925-.867 1.5-.752.174 1.04 1.1 2.253.636 1.33.809 2.427.174 2.774-2.311 3.526-.693.23-1.5 1.213-.29.983-1.561 1.791-1.445 0-2.023-.751.058-.636-.462-1.735-.693-.693-1.04-1.617.636-1.271 1.5-1.907.578 0 2.08-.174.579-.635.636-1.733a5.484 5.484 0 0 1 .232-1.907 1.035 1.035 0 0 1 1.039-.635zm-7.4-6.414c-.52.462-.4.4-.925 1.213s.116 1.155-1.445 1.5-2.368.346-2.772.867-.578.52-1.1 1.155-.578 0-1.156 1.156-2.484 1.5-.52 1.849 2.311-.29 3.756 0 .116 1.1 2.023 1.445 3 .809 3.7-.174.173-1.561 1.213-2.427.984-1.733.926-3.524.577-2.658-.752-3.062a21.6 21.6 0 0 0-2.311-.578l-.636.578zm28.315 2.368c-.578-.115-.809-.981-1.156.232s-.981 1.387-.693 2.2 1.907.116.462 1.329-3.871 1.5-4.276 1.791-1.907-.519-1.791 1.445-1.848 2.427 1.271 2.543 1.329-2.2 4.45-1.387 3.929.867 3.813 1.907-2.08-.173-1.039 1.617.173 2.89 2.311 1.5 2.311-.982 2.485-2.427.925-1.848-.462-2.542-2.833-.983-3.121-1.907-1.964-1.1-.346-1.445 2.716-.462 1.965-1.733-1.214-2.081-1.907-2.311-1.965-.81-1.965-.81zm-5.837-1.443c-.52-.232-.232-.868-1.677-.868s-2.888-.173-2.426.636-.983.4.751.983 2.08.462 2.485.174a5.089 5.089 0 0 0 .867-.925zm2.658-4.623a6.363 6.363 0 0 0-.4 1.791c0 .693-1.271.982 0 1.445s2.311 0 2.139-.752-.868-2.774-.868-2.774l-.867.29zm-1.965-5.491s-.809-.173-1.328.925.288 1.1.4 1.907.578.462 1.792-.058.288-.693.173-1.791-.232-.635-1.04-.982zm-13 1.677c-.577.116-1.1.058-1.387.867s-.635.925-.635 2.08-.81 1.965.173 1.561 1.04-.693 2.023-1.561 1.155-.981 2.023-.867 1.561-1.387 1.329-1.675a1.383 1.383 0 0 0-1.387-.694 10.46 10.46 0 0 0-2.139.29zm-.131-4.089c-.537 0-2.287-1.008-2.96-.2s-.943.607-.875 1.547-.74 1.212.672.952c1.33.172 6.241.058 6.241.058s-.578-1.677-1.156-1.849-1.922-.507-1.922-.507zm2.212-5.215c.751.116.694 0 1.271.346s.983-.288 1.213.578 1.5 1.329.29 1.617a4.252 4.252 0 0 1-2.485.174c-.693-.23-.461.116-1.733-.462s-2.255-.578-1.445-1.1a9.381 9.381 0 0 1 2.369-.867l.52-.289zm6.414-6.53a6.488 6.488 0 0 1-1.733-.288c-.925-.29-1.445.058-3.352.346s-.174.867-.4 2.08.058 1.33.231 2.311 1.619.578 1.907.81.116.635.232 1.155.577.52 2.311.752a6.029 6.029 0 0 1 2.888.867c1.5.693.116.983.232 2.946s2.2.348 3-.809-.346-1.733-.462-3.236-1.212-.925-2.658-1.271-1.04-.462-1.617-1.271.52-1.33.751-2.139-.231-1.675-1.329-2.253zm-8.205-7.05a20.53 20.53 0 0 1-2.369 1.791c-2.2 1.619-3.063 1.965-3.814 2.832s.174.578-1.791 2.081-3.005 1.733-3.12 3.062-1.907 1.965 1.559 3.236 4.22 1.965 4.681 1.04.174-1.213 2.023-2.2 2.427-.925 2.2-2.139-1.675-.809-1.445-2.888-.52-2.139 1.04-3.063 2.832-2.6 2.774-3.409-.635-1.5-1.04-1.214a2.755 2.755 0 0 0-.693.867zm20.484-7.887c-.4.116-.983.433-1.039.693s-.086.376.52.752.346.837.9.491a1.027 1.027 0 0 0 .605-1.127c-.057-.462-.288-1.011-.491-1.011a1.158 1.158 0 0 0-.492.2zm-33.515-19.01c-.26.751-.925.607-.549 1.271s-.867.838.52 1.069 1.329 1.1 1.588.03a8.8 8.8 0 0 0 .174-2.311l-.953-.289-.78.231zm29.759-34.44c-.867.925-1.907.4-2.2 1.5s-1.329 2.543-.81 3.063.348 1.155 1.734.462.983-.81 2.311-1.5 2.658-2.08 2.369-2.485a4.829 4.829 0 0 0-2.023-1.155c-.339.001-1.38.113-1.38.113z" class="cls-1" transform="translate(-17.198 -67.863)"/>
            <path id="패스_5402" d="M189.857 518.851a10.325 10.325 0 0 1-1.079-2.311c-.848-2.389-1.156-3.312-2.235-4.315s-.231-1.31-1.387-1.31 1.079-.693-2.7 0-5.163-.385-5.163 1.541.616 2.159.694 3.852.539 1.387-.154 2.62-.848-.385-.848 1.7.231 2-.308 2.929-2.62.615.232 2.31 4.161-.769 3.389 3.083-1 4.237-.231 4.469 2.157.076 4.161.462 0 .77 4.855.694 6.24.538 6.626-2.7 1-3.467.385-6.626 1.7-2.774-.925-3.621-4.545-1-4.7-1.54a5.571 5.571 0 0 0-.612-1.237z" class="cls-1" transform="translate(19.636 -58.55)"/>
            <path id="패스_5403" d="M157.15 710.79c2.311-.231.115.578 4.275-1.5s-1.617-4.161 7.282-4.161 12.135.231 15.718.115 1.387.925 4.969 3.468 5.547 2.427 5.547 2.427a4.066 4.066 0 0 1 2.774 3c.693 2.543-.231 2.543 1.387 3.236s2.542-.925 1.849 1.733-2.427 1.734-2.427 5.085-.346 5.547-1.5 7.282-1.965.925-4.276 3-2.2 2.427-4.739 4.392-6.588 2.08-8.321 2.658-2.311 2.2-5.085 3-2.311.462-6.126.925-4.507.578-5.547 1.5 5.432 1.619-2.427 1.619-8.205-1.156-11.441-.116-.346 1.849-5.663 1.04-4.507-1.619-7.743-.925-3.12-1.04-5.663.925.578 3-3.93 3.467-3.467 2.081-4.969-.346a79.175 79.175 0 0 0-5.547-7.05l-1.733-1.155s-3.7-3.352-3.12-4.97a20.787 20.787 0 0 1 2.658-5.894 42.158 42.158 0 0 1 3.7-5.2c1.849-2.08 3.352-2.542 5.2-4.275s.809-3.121 4.392-4.046a48.292 48.292 0 0 1 6.24-1.5c3.351-.578 4.275-1.272 8.205-2.427s1.5-3.582 6.356-4.161 6.241-.462 7.975-.809l1.734-.348zm44.9.29c-.231.635-.635.231-.462 1.329s-.346 1.733.346 2.138-.345.925.984.4 1.675-.231 1.559-1.039a13.052 13.052 0 0 0-1.1-2.659l-1.33-.173zm-66.98-57.005a7.35 7.35 0 0 1-2.167.722c-.433.028-.318.809-.491 1.271s-.52 1.559-1.04.52-.809-.982-.636-1.907 0-1.647.52-1.907 1.733-.865 2.341-.346.895.26 1.185.953z" class="cls-1" transform="translate(4.549 -25.587)"/>
            <path id="패스_5404" d="M329.141 434.3c-1.271-.288-2.2-1.733-2.716-1.387s-.058 1.735.462 3.41.982.52.4 2.716-.693 2.6-1.5 3.12-1.213.462-1.444 1.387a2.671 2.671 0 0 0-.058 2.139c.346 1.271 1.271 1.675.173 2.427s-2.774.693-3.12 1.387-1.965 0-.346 1.906 2.022 1.156 3.352 2.139.519.173 1.675 2.89 2.023 2.946 2.485 3.12-.174-.519 1.5.058 1.1.635 1.791-.578.348-2.427 1.446-2.543 1.1-.751 3.12-.173 1.677-.694 4.276.751 1.155 1.849 3.409 1.561 1.5-1.156 2.891-1.677 1.674 0 2.31-.981a2.634 2.634 0 0 0 .174-2.427c-.174-.462-1.791-2.774-.751-3.236s.75-.694 1.965-1.1a3.1 3.1 0 0 0 2.022-3.062c-.058-1.387.462-3.352-.925-4.913s-1.907-2.253-1.675-3.062a14.147 14.147 0 0 0 .346-3.467c-.058-.81-1.619-2.311-1.675-3.005s.751-1.5-.058-2.254.4-.751-2.139-.925a34.722 34.722 0 0 0-4.8-.288c-1.271.115-.579.231-1.85.693s-2.715.346-3.294 1.04-1.733 2.138-2.2 2.2-1.445-.116-1.849.751-.809 1.965-1.561 2.023a4.028 4.028 0 0 1-1.836-.64z" class="cls-1" transform="translate(53.349 -77.73)"/>
        </g>
        <path id="패스_5405" d="M559.453 274c-.636.229-1.1-.81-.982.981s-.462 3.063.925 2.313 1.387.115 1.964-1.272a1.611 1.611 0 0 0-.809-2.255 3.16 3.16 0 0 0-1.098.233z" class="cls-1" transform="translate(125.982 30.225)"/>
    </g>
</svg>
