<svg xmlns="http://www.w3.org/2000/svg" xmlns:xlink="http://www.w3.org/1999/xlink" width="190" height="30" viewBox="0 0 190 30">
  <defs>
    <clipPath id="clip-path">
      <rect id="사각형_2088" data-name="사각형 2088" width="41.77" height="13.829" transform="translate(0 0)" fill="none"/>
    </clipPath>
  </defs>
  <g id="그룹_5319" data-name="그룹 5319" transform="translate(-768 -701.5)">
    <g id="그룹_5318" data-name="그룹 5318" transform="translate(-5)">
      <g id="그룹_5317" data-name="그룹 5317" transform="translate(31)">
        <g id="그룹_5314" data-name="그룹 5314" transform="translate(-39 -169)">
          <text id="휴대전화번호_인증하기" data-name="휴대전화번호 인증하기" transform="translate(909 890)" fill="#fff" font-size="12" font-family="MalgunGothicBold, Malgun Gothic"><tspan x="-61.655" y="0">휴대전화번호</tspan><tspan y="0" font-family="SegoeUI-Bold, Segoe UI" font-weight="700"> </tspan><tspan y="0">인증하기</tspan></text>
        </g>
        <g id="그룹_5316" data-name="그룹 5316" transform="translate(742 710)">
          <g id="그룹_5315" data-name="그룹 5315" clip-path="url(#clip-path)">
            <path id="패스_5210" data-name="패스 5210" d="M16.6.48a.581.581,0,0,0-.645-.451H13.1A.619.619,0,0,0,12.45.48L9.055,13.365c-.087.3,0,.451.257.451h2.064a.427.427,0,0,0,.311-.1.662.662,0,0,0,.14-.354l.506-2.035L16.2,9.165l.416,1.841.6,2.359a.735.735,0,0,0,.128.354.426.426,0,0,0,.323.1h2.063c.259,0,.344-.151.259-.451ZM13.247,7.651,14.51,2.573l.988,3.82Z" fill="#fff" fill-rule="evenodd"/>
            <path id="패스_5211" data-name="패스 5211" d="M28.851,6.311A10.935,10.935,0,0,0,25.6,5.582q-1.762-.15-1.763-1.158V4.017a1.949,1.949,0,0,1,.312-1.3,1.628,1.628,0,0,1,1.193-.332h.838a1.763,1.763,0,0,1,1.183.3,1.543,1.543,0,0,1,.322,1.137v.129a.4.4,0,0,0,.452.45h1.827a.4.4,0,0,0,.451-.45V3.545A3.458,3.458,0,0,0,29.475.951,3.63,3.63,0,0,0,26.83.029H24.681a3.594,3.594,0,0,0-2.622.922,3.455,3.455,0,0,0-.946,2.594V4.3a4.2,4.2,0,0,0,.5,2.176,2.536,2.536,0,0,0,1.257,1.136A10.485,10.485,0,0,0,24.5,8.08a13.544,13.544,0,0,0,1.623.246,2.664,2.664,0,0,1,1.257.4,1.075,1.075,0,0,1,.506.954v.258a1.66,1.66,0,0,1-.333,1.2,1.68,1.68,0,0,1-1.172.322h-1.01a1.757,1.757,0,0,1-1.183-.3,1.508,1.508,0,0,1-.322-1.116V9.87a.4.4,0,0,0-.451-.45H21.585a.4.4,0,0,0-.451.45V10.3a3.453,3.453,0,0,0,.946,2.594,3.6,3.6,0,0,0,2.623.922h2.343a3.6,3.6,0,0,0,2.622-.922,3.457,3.457,0,0,0,.946-2.594V9.57a3.991,3.991,0,0,0-.506-2.112,2.747,2.747,0,0,0-1.257-1.147" fill="#fff" fill-rule="evenodd"/>
            <path id="패스_5212" data-name="패스 5212" d="M41.265,7.459a2.752,2.752,0,0,0-1.257-1.147,10.95,10.95,0,0,0-3.246-.729Q35,5.433,35,4.425V4.018a1.961,1.961,0,0,1,.311-1.3A1.632,1.632,0,0,1,36.5,2.388h.839a1.758,1.758,0,0,1,1.182.3,1.538,1.538,0,0,1,.323,1.136v.129a.4.4,0,0,0,.451.45h1.827a.4.4,0,0,0,.451-.45V3.545A3.456,3.456,0,0,0,40.631.952,3.628,3.628,0,0,0,37.987.03h-2.15a3.6,3.6,0,0,0-2.622.922,3.452,3.452,0,0,0-.946,2.593V4.3a4.2,4.2,0,0,0,.5,2.177,2.542,2.542,0,0,0,1.257,1.135,10.577,10.577,0,0,0,1.624.473,13.7,13.7,0,0,0,1.622.246,2.665,2.665,0,0,1,1.258.4,1.074,1.074,0,0,1,.505.954v.257a1.659,1.659,0,0,1-.333,1.2,1.671,1.671,0,0,1-1.171.322H36.525a1.756,1.756,0,0,1-1.182-.3,1.5,1.5,0,0,1-.323-1.115V9.871a.4.4,0,0,0-.451-.451H32.742a.4.4,0,0,0-.452.451V10.3a3.452,3.452,0,0,0,.947,2.6,3.6,3.6,0,0,0,2.622.922H38.2a3.6,3.6,0,0,0,2.622-.922,3.459,3.459,0,0,0,.946-2.6V9.57a4,4,0,0,0-.505-2.111" fill="#fff" fill-rule="evenodd"/>
            <path id="패스_5213" data-name="패스 5213" d="M6.627,0H.323A.323.323,0,0,0,0,.322V13.508a.323.323,0,0,0,.323.322H2.472a.322.322,0,0,0,.322-.322V8.762C3.939,8.135,6.96,6.477,7.188,6.334A3.616,3.616,0,0,0,9.546,2.89C9.546.3,6.627,0,6.627,0M5.836,4.206,2.794,5.738V2.8a.26.26,0,0,1,.237-.175h2.63a.743.743,0,0,1,.753.77.939.939,0,0,1-.578.813" fill="#fff" fill-rule="evenodd"/>
          </g>
        </g>
        <line id="선_786" data-name="선 786" y2="30" transform="translate(799.5 701.5)" fill="none" stroke="#fff" stroke-width="1" opacity="0.203"/>
      </g>
    </g>
  </g>
</svg>
