<svg xmlns="http://www.w3.org/2000/svg" id="그룹_80" width="12.307" height="12.004" viewBox="0 0 12.307 12.004">
    <defs>
        <clipPath id="clip-path">
            <path id="사각형_10" d="M0 0H12.307V12.004H0z" class="cls-1"/>
        </clipPath>
        <style>
            .cls-1{fill:#fff}
        </style>
    </defs>
    <g id="그룹_79" clip-path="url(#clip-path)">
        <path id="패스_13" d="M10.37 12a.4.4 0 0 1-.4-.4V5.756a.4.4 0 0 1 .4-.4h.519L6.153.947 1.417 5.356h.519a.4.4 0 0 1 .4.4V11.2h1.785V8.87a.4.4 0 0 1 .4-.4h3.265a.4.4 0 0 1 .4.4v2.33h.508a.4.4 0 0 1 0 .8h-.908a.4.4 0 0 1-.4-.4V9.27H4.921v2.33a.4.4 0 0 1-.4.4H1.937a.4.4 0 0 1-.4-.4V6.156H.4a.4.4 0 0 1-.273-.693L5.881.107a.4.4 0 0 1 .545 0l5.753 5.356a.4.4 0 0 1-.273.693h-1.135V11.6a.4.4 0 0 1-.4.4" class="cls-1"/>
        <path id="사각형_6" d="M0 0H0.9V0.925H0z" class="cls-1" transform="translate(5.065 4.26)"/>
        <path id="사각형_7" d="M0 0H0.9V0.925H0z" class="cls-1" transform="translate(6.341 4.26)"/>
        <path id="사각형_8" d="M0 0H0.9V0.925H0z" class="cls-1" transform="translate(5.065 5.385)"/>
        <path id="사각형_9" d="M0 0H0.9V0.925H0z" class="cls-1" transform="translate(6.341 5.385)"/>
    </g>
</svg>
