<svg xmlns="http://www.w3.org/2000/svg" width="200.773" height="33.679" viewBox="0 0 200.773 33.679"><g transform="translate(0 0.001)"><g transform="translate(48.68 -0.001)"><circle cx="8.567" cy="8.567" r="8.567" transform="translate(4.865 7.518)" fill="#ffc800"/><path d="M48.916,6.357a8.59,8.59,0,0,0-2.446.352.292.292,0,1,0,.166.56,8.014,8.014,0,0,1,5.5,15.019.292.292,0,0,0-.175.267V25.1h-6.1V22.555a.292.292,0,0,0-.175-.267,8.013,8.013,0,0,1-2.3-13.141.292.292,0,0,0-.4-.422h0a8.521,8.521,0,0,0-2.67,6.227,8.624,8.624,0,0,0,4.961,7.791V25.39a.291.291,0,0,0,.291.291h6.684a.292.292,0,0,0,.291-.291V22.743A8.6,8.6,0,0,0,48.916,6.357Z" transform="translate(-36.773 1.879)"/><path d="M51.126,21.508H44.443a.291.291,0,0,0-.291.291v.886a.291.291,0,0,0,.291.291h6.682a.294.294,0,0,0,.293-.291V21.8A.294.294,0,0,0,51.126,21.508Zm-.291.583v.3h-6.1v-.3Z" transform="translate(-35.642 6.353)"/><path d="M51.126,22.875H44.443a.291.291,0,0,0-.291.291v.886a.291.291,0,0,0,.291.291h6.682a.294.294,0,0,0,.293-.291v-.887A.293.293,0,0,0,51.126,22.875Zm-.291.583v.3h-6.1v-.3Z" transform="translate(-35.642 6.756)"/><path d="M49.925,24.241H45.2a.293.293,0,0,0-.291.293v.886a.291.291,0,0,0,.291.291h4.725a.292.292,0,0,0,.291-.291v-.886A.294.294,0,0,0,49.925,24.241Zm-.293.584v.3H45.487v-.3Z" transform="translate(-35.419 7.16)"/><path d="M47.023,5.588a.292.292,0,0,0,.291-.291V.29a.291.291,0,0,0-.583,0V5.3a.291.291,0,0,0,.291.291Z" transform="translate(-34.88 0.001)"/><path d="M38.081,3.95a.292.292,0,1,0-.413.412h0l2.886,2.886a.293.293,0,0,0,.413-.413Z" transform="translate(-37.582 1.142)"/><path d="M57.105,3.818a.3.3,0,0,0-.412,0L53.739,6.771a.292.292,0,1,0,.412.413L57.105,4.23A.293.293,0,0,0,57.105,3.818Z" transform="translate(-32.836 1.104)"/></g><path d="M32.6,5.177V30.718a.84.84,0,0,0,.935.964h.409q1.986,0,1.987-3.681V5.177Z" transform="translate(9.626 1.529)"/><g transform="translate(0 6.706)"><path d="M17.757,18.577a8.956,8.956,0,0,0-2.674-1.3A12.208,12.208,0,0,0,11.5,16.8a12.236,12.236,0,0,0-3.565.481,8.518,8.518,0,0,0-2.659,1.3,5.793,5.793,0,0,0-1.7,1.9A4.725,4.725,0,0,0,3,22.757a4.805,4.805,0,0,0,.584,2.294,5.73,5.73,0,0,0,1.7,1.913,8.906,8.906,0,0,0,2.659,1.272,12.191,12.191,0,0,0,3.565.482,12.163,12.163,0,0,0,3.58-.482,9.381,9.381,0,0,0,2.674-1.272,5.865,5.865,0,0,0,1.666-1.913,4.82,4.82,0,0,0,.584-2.294,4.739,4.739,0,0,0-.584-2.28A5.931,5.931,0,0,0,17.757,18.577ZM16.3,24.072a3.925,3.925,0,0,1-1.111,1.082,5.429,5.429,0,0,1-1.636.716,8,8,0,0,1-2.045.247,8,8,0,0,1-2.045-.247,5.429,5.429,0,0,1-1.636-.716A4.127,4.127,0,0,1,6.7,24.072a2.312,2.312,0,0,1-.424-1.345A2.171,2.171,0,0,1,6.7,21.455a4.681,4.681,0,0,1,1.126-1.095,5.616,5.616,0,0,1,1.636-.672,8.447,8.447,0,0,1,2.045-.233,8.439,8.439,0,0,1,2.045.233,5.616,5.616,0,0,1,1.636.672A4.426,4.426,0,0,1,16.3,21.455a2.219,2.219,0,0,1,.409,1.272A2.365,2.365,0,0,1,16.3,24.072Z" transform="translate(0.886 -1.746)"/><path d="M14.7,8.071H10.9v2.658h3.8v2.922H10.084v2.661H14.7v2.863q0,.937.877.937h.466a1.645,1.645,0,0,0,1.505-.864,6.032,6.032,0,0,0,.512-2.905V5.177H14.7Z" transform="translate(2.978 -5.177)"/><path d="M9.789,15.136a10.153,10.153,0,0,0,2.149-3.1,8.923,8.923,0,0,0,.745-3.624V7.451q0-1.461-1.521-1.461H.7V8.648H9.263a6.443,6.443,0,0,1-2.294,5A16.136,16.136,0,0,1,.613,16.86.821.821,0,0,0,0,17.707a1.8,1.8,0,0,0,.438,1.286,1.186,1.186,0,0,0,.76.468h.175a.306.306,0,0,0,.175-.06,24.105,24.105,0,0,0,4.72-1.8A15,15,0,0,0,9.789,15.136Z" transform="translate(0 -4.937)"/><path d="M29.215,12.745H25.241v2.806h3.974V30.367q0,.935.877.935h.468q1.927,0,1.927-3.681V5.177H29.215Z" transform="translate(7.454 -5.177)"/><path d="M29.292,20.949A10.371,10.371,0,0,1,27.3,18.394a15.391,15.391,0,0,1-1.2-2.558A15.073,15.073,0,0,1,25.45,12.8a33.611,33.611,0,0,1-.19-3.857h2.455q1.345,0,1.345-1.724,0-1.022-.7-1.022H18.334V8.939h3.39a22.177,22.177,0,0,1-.277,3.74,26.059,26.059,0,0,1-.687,2.982,13.114,13.114,0,0,1-1.082,2.629,11.785,11.785,0,0,1-1.666,2.31,5.624,5.624,0,0,0-.424.51.884.884,0,0,0-.131.512,1.554,1.554,0,0,0,.131.54,1.572,1.572,0,0,0,.424.6,1.224,1.224,0,0,0,.541.337c.184.048.286.073.306.073a5.308,5.308,0,0,0,.584-.03,6.823,6.823,0,0,0,2.177-2.234,11.207,11.207,0,0,0,1.856-3.96,9.914,9.914,0,0,0,1.505,3.316,11.271,11.271,0,0,0,2.79,3.113.958.958,0,0,0,.658,0,1.944,1.944,0,0,0,1.11-.965,1.325,1.325,0,0,0,.189-.613.807.807,0,0,0-.145-.453A4.824,4.824,0,0,0,29.292,20.949Z" transform="translate(5.156 -4.877)"/></g><g transform="translate(75.988 6.501)"><path d="M83.21,13.683H58.664v2.658H82.626q1.315,0,1.315-1.753C83.941,13.985,83.7,13.683,83.21,13.683Z" transform="translate(-58.664 -2.46)"/><path d="M76.038,11.241a29.673,29.673,0,0,1-.863,3.448h1.9a1.2,1.2,0,0,0,1.256-.789,16.113,16.113,0,0,0,1.343-5.816v-1.2q0-1.461-1.519-1.461H61.529V8.084H76.345A17.573,17.573,0,0,1,76.038,11.241Z" transform="translate(-57.818 -4.899)"/><path d="M77.864,17.856H61.529V24.4a3.553,3.553,0,0,0,.687,2.425,2.972,2.972,0,0,0,2.294.759h12.3A2.033,2.033,0,0,0,78.784,26.3a9.836,9.836,0,0,0,.6-3.946v-3.01A1.331,1.331,0,0,0,77.864,17.856ZM76.024,23.2q0,1.725-.819,1.724H65.854c-.663,0-.993-.352-.993-1.052V20.515H76.024Z" transform="translate(-57.818 -1.228)"/><path d="M83.634,13.634a10.694,10.694,0,0,0,2.938,1.11,16.9,16.9,0,0,0,3.872.409,16.679,16.679,0,0,0,3.974-.425A10.9,10.9,0,0,0,97.339,13.6,5,5,0,0,0,99.107,12a3.576,3.576,0,0,0,.6-1.957A3.3,3.3,0,0,0,99.079,8.1,5.73,5.73,0,0,0,97.252,6.5a12.134,12.134,0,0,0-2.924-1.052,16.84,16.84,0,0,0-3.886-.409,17.18,17.18,0,0,0-4,.424,11.163,11.163,0,0,0-2.924,1.1,5.1,5.1,0,0,0-1.8,1.65,3.638,3.638,0,0,0-.6,1.973,3.169,3.169,0,0,0,.642,1.885A5.508,5.508,0,0,0,83.634,13.634Zm1.345-4.559a4.544,4.544,0,0,1,1.258-.789A10.061,10.061,0,0,1,88.061,7.8a13.443,13.443,0,0,1,2.354-.189,12.648,12.648,0,0,1,2.25.189,11.926,11.926,0,0,1,1.869.482,4.945,4.945,0,0,1,1.316.789,1.243,1.243,0,0,1,0,1.987,4.878,4.878,0,0,1-1.316.789,9.233,9.233,0,0,1-1.841.512,12.8,12.8,0,0,1-2.278.19,13.437,13.437,0,0,1-2.354-.19,8.515,8.515,0,0,1-1.825-.512,4.278,4.278,0,0,1-1.258-.8,1.353,1.353,0,0,1-.468-.979A1.335,1.335,0,0,1,84.978,9.074Z" transform="translate(-52.032 -5.012)"/><path d="M103.827,15.033c0-.584-.245-.877-.731-.877H78.55v2.659H85.1v3.623a1.852,1.852,0,0,0-.907.556,4.732,4.732,0,0,0-1.3,1.534,3.793,3.793,0,0,0-.424,1.74,3.685,3.685,0,0,0,.584,1.987,5.431,5.431,0,0,0,1.724,1.666,11.122,11.122,0,0,0,2.762,1.11,14.107,14.107,0,0,0,3.667.438,14.269,14.269,0,0,0,3.681-.438,10.558,10.558,0,0,0,2.747-1.11,5.536,5.536,0,0,0,1.694-1.666,3.686,3.686,0,0,0,.585-1.987,4.262,4.262,0,0,0-2.6-3.8l-.028-3.653h5.2Q103.827,16.815,103.827,15.033Zm-15.4,1.782H93.92V19.3a13.353,13.353,0,0,0-1.447-.19q-.628-.043-1.271-.043-.731,0-1.373.043a11.338,11.338,0,0,0-1.4.19ZM96.2,25.289a3.3,3.3,0,0,1-1.17.819,6.731,6.731,0,0,1-1.738.57,11.1,11.1,0,0,1-2.118.189A11.447,11.447,0,0,1,89,26.678a5.852,5.852,0,0,1-1.68-.57,3.1,3.1,0,0,1-1.184-.819,1.6,1.6,0,0,1-.424-1.052,1.55,1.55,0,0,1,.424-1.038,3.52,3.52,0,0,1,1.184-.833A6.534,6.534,0,0,1,89,21.828a11.331,11.331,0,0,1,2.177-.192,10.993,10.993,0,0,1,2.118.192,7.573,7.573,0,0,1,1.738.539,3.792,3.792,0,0,1,1.17.833,1.525,1.525,0,0,1,.438,1.038A1.573,1.573,0,0,1,96.2,25.289Z" transform="translate(-52.791 -2.321)"/><path d="M121.282,20.128a2.2,2.2,0,0,0-.847-.1,32.246,32.246,0,0,1-4.544,1.258q-1.914.35-3.316.466V13.773h-3.333l-.028,8.123a7,7,0,0,1-1.782,0q-1.753-.087-1.754-.233v-7.89h-3.36v7.364a6.343,6.343,0,0,1-1.345-.337q-1.345-.394-2.1-.54A2.059,2.059,0,0,0,97.8,20.2a1.073,1.073,0,0,0-.541.409,1.46,1.46,0,0,0-.1,1.271,1.6,1.6,0,0,0,.979.8,10.751,10.751,0,0,0,1.782.627,26.8,26.8,0,0,0,2.747.6,29.69,29.69,0,0,0,3.346.424q1.8.132,3.637.131a34.059,34.059,0,0,0,3.61-.189q1.768-.19,3.287-.483a23.607,23.607,0,0,0,2.629-.539,9.967,9.967,0,0,0,1.694-.6,1.767,1.767,0,0,0,1.067-.8,1.452,1.452,0,0,0-.073-1.241A1.062,1.062,0,0,0,121.282,20.128Z" transform="translate(-47.326 -2.434)"/><path d="M114.663,9.68a37.6,37.6,0,0,1-.306,4.692q-.307,2.438-.863,5.01h2.1a.989.989,0,0,0,1.08-.759q.643-2.543.965-4.69a26.786,26.786,0,0,0,.321-3.93V7.518q0-1.461-1.519-1.461H99.877V8.716h14.786Z" transform="translate(-46.493 -4.712)"/><path d="M120.65,13.611a10.581,10.581,0,0,0,2.951,1.11,17.236,17.236,0,0,0,3.916.409,17.172,17.172,0,0,0,3.93-.409,10.612,10.612,0,0,0,2.938-1.11,5.207,5.207,0,0,0,1.812-1.578,3.207,3.207,0,0,0,.584-1.929,3.316,3.316,0,0,0-.584-1.973,5.392,5.392,0,0,0-1.812-1.622,12.546,12.546,0,0,0-2.938-1.067,18.377,18.377,0,0,0-7.846,0A12.492,12.492,0,0,0,120.65,6.51,5.832,5.832,0,0,0,118.8,8.147a3.188,3.188,0,0,0-.6,1.957,3.147,3.147,0,0,0,.6,1.929A5.284,5.284,0,0,0,120.65,13.611Zm1.4-4.53a4.516,4.516,0,0,1,1.256-.789,10.054,10.054,0,0,1,1.841-.482,13.67,13.67,0,0,1,2.367-.189,12.577,12.577,0,0,1,2.266.189,11.091,11.091,0,0,1,1.826.482,5.05,5.05,0,0,1,1.285.789,1.4,1.4,0,0,1,.526.994,1.3,1.3,0,0,1-.5.994,4.869,4.869,0,0,1-1.315.789,9.222,9.222,0,0,1-1.842.512,12.623,12.623,0,0,1-2.25.19,13.665,13.665,0,0,1-2.367-.19,8.523,8.523,0,0,1-1.841-.512,4.253,4.253,0,0,1-1.256-.8,1.348,1.348,0,0,1-.468-.979A1.331,1.331,0,0,1,122.053,9.081Z" transform="translate(-41.084 -5.019)"/><path d="M140.162,14.314H115.646v2.659h6.517V20.1h-2.747v2.659h14.348v5c0,.622.272.935.817.935h.438q2.019,0,2.017-3.566V21.561q0-1.463-1.548-1.461h-1.111V16.973h5.172q1.345,0,1.345-1.753Q140.893,14.315,140.162,14.314ZM131.016,20.1h-5.523V16.973h5.523Z" transform="translate(-41.837 -2.274)"/><path d="M138.918,15.683a29.211,29.211,0,0,0,4.69-1.593,13.319,13.319,0,0,0,3.2-1.943c.1-.1.2-.2.307-.307s.258-.267.453-.482a4.279,4.279,0,0,0,.672.789,13.294,13.294,0,0,0,3.2,1.943,29.149,29.149,0,0,0,4.689,1.593q.878.146,1.316-1.168.379-1.2-.526-1.373a16.236,16.236,0,0,1-5.582-2.4,5.82,5.82,0,0,1-2.075-2.659h6.049q1.345,0,1.345-1.781,0-.878-.7-.878H138.539V8.084h7.217a5.515,5.515,0,0,1-2.075,2.659,14.693,14.693,0,0,1-5.552,2.368q-.876.2-.5,1.4Q138.012,15.828,138.918,15.683Z" transform="translate(-35.378 -4.899)"/><path d="M160.026,16.546H149.768V12.69h-3.332v3.856H135.508v2.631h23.933q1.315,0,1.315-1.782C160.756,16.83,160.511,16.546,160.026,16.546Z" transform="translate(-35.971 -2.754)"/><path d="M155.971,24.414H142.646a.865.865,0,0,1-.964-.994V19.3h-3.332v4.879q0,2.864,3.039,2.864h13.939q1.315,0,1.315-1.782Q156.643,24.414,155.971,24.414Z" transform="translate(-35.132 -0.802)"/></g></g></svg>