<svg xmlns="http://www.w3.org/2000/svg" width="155" height="26.001" viewBox="0 0 155 26.001">
  <g id="그룹_19764" data-name="그룹 19764" transform="translate(0 0.001)">
    <g id="그룹_6917" data-name="그룹 6917">
      <circle id="타원_168" data-name="타원 168" cx="6.614" cy="6.614" r="6.614" transform="translate(41.338 5.803)" fill="#ffc800"/>
      <g id="그룹_6916-2" data-name="그룹 6916-2">
        <path id="패스_7891" data-name="패스 7891" d="M46.957,6.357a6.631,6.631,0,0,0-1.888.272.225.225,0,0,0,.128.432,6.187,6.187,0,0,1,4.249,11.6.225.225,0,0,0-.135.206v1.963H44.6V18.862a.225.225,0,0,0-.135-.206A6.187,6.187,0,0,1,42.694,8.511a.225.225,0,0,0-.311-.326h0a6.578,6.578,0,0,0-2.061,4.807,6.658,6.658,0,0,0,3.83,6.015v2.044a.225.225,0,0,0,.225.225h5.16a.225.225,0,0,0,.225-.225V19.007a6.636,6.636,0,0,0-2.805-12.65Z"/>
        <path id="패스_7892" data-name="패스 7892" d="M49.536,21.508H44.377a.225.225,0,0,0-.225.225v.684a.225.225,0,0,0,.225.225h5.159a.227.227,0,0,0,.226-.225v-.684A.227.227,0,0,0,49.536,21.508Zm-.225.45v.234H44.6v-.234Z"/>
        <path id="패스_7893" data-name="패스 7893" d="M49.536,22.875H44.377a.225.225,0,0,0-.225.225v.684a.225.225,0,0,0,.225.225h5.159a.227.227,0,0,0,.226-.225V23.1A.226.226,0,0,0,49.536,22.875Zm-.225.45v.234H44.6v-.234Z"/>
        <path id="패스_7894" data-name="패스 7894" d="M48.781,24.241H45.133a.226.226,0,0,0-.225.226v.684a.225.225,0,0,0,.225.225h3.648a.225.225,0,0,0,.225-.225v-.684A.227.227,0,0,0,48.781,24.241Zm-.226.451v.234h-3.2v-.234Z"/>
        <path id="패스_7895" data-name="패스 7895" d="M46.957,4.314a.225.225,0,0,0,.225-.225V.224a.225.225,0,0,0-.45,0V4.089a.225.225,0,0,0,.225.225Z"/>
        <path id="패스_7896" data-name="패스 7896" d="M37.967,3.93a.225.225,0,1,0-.319.318h0l2.228,2.228a.226.226,0,0,0,.319-.319Z"/>
        <path id="패스_7897" data-name="패스 7897" d="M56.318,3.8A.23.23,0,0,0,56,3.8l-2.281,2.28a.225.225,0,1,0,.318.319l2.281-2.281A.226.226,0,0,0,56.318,3.8Z"/>
      </g>
    </g>
    <path id="패스_28655" data-name="패스 28655" d="M32.6,5.177V24.9a.648.648,0,0,0,.722.744h.316q1.533,0,1.534-2.842V5.177Z"/>
    <g id="그룹_18298" data-name="그룹 18298">
      <path id="패스_28656" data-name="패스 28656" d="M14.393,18.171a6.914,6.914,0,0,0-2.064-1A9.425,9.425,0,0,0,9.565,16.8a9.446,9.446,0,0,0-2.752.371,6.576,6.576,0,0,0-2.053,1,4.472,4.472,0,0,0-1.309,1.467A3.648,3.648,0,0,0,3,21.4a3.71,3.71,0,0,0,.451,1.771A4.424,4.424,0,0,0,4.76,24.646a6.876,6.876,0,0,0,2.053.982A9.411,9.411,0,0,0,9.565,26a9.39,9.39,0,0,0,2.764-.372,7.242,7.242,0,0,0,2.064-.982,4.528,4.528,0,0,0,1.286-1.477A3.721,3.721,0,0,0,16.13,21.4a3.659,3.659,0,0,0-.451-1.76A4.579,4.579,0,0,0,14.393,18.171Zm-1.128,4.242a3.03,3.03,0,0,1-.858.835,4.191,4.191,0,0,1-1.263.553,6.173,6.173,0,0,1-1.579.191A6.178,6.178,0,0,1,7.986,23.8a4.191,4.191,0,0,1-1.263-.553,3.187,3.187,0,0,1-.869-.835,1.785,1.785,0,0,1-.327-1.038,1.676,1.676,0,0,1,.327-.982,3.614,3.614,0,0,1,.869-.845,4.335,4.335,0,0,1,1.263-.519,6.521,6.521,0,0,1,1.579-.18,6.515,6.515,0,0,1,1.579.18,4.335,4.335,0,0,1,1.263.519,3.417,3.417,0,0,1,.858.845,1.713,1.713,0,0,1,.316.982A1.826,1.826,0,0,1,13.265,22.413Z"/>
      <path id="패스_28657" data-name="패스 28657" d="M13.649,7.411H10.716V9.463h2.933v2.256H10.084v2.054h3.565v2.21q0,.723.677.723h.36a1.27,1.27,0,0,0,1.162-.667,4.657,4.657,0,0,0,.4-2.243V5.177H13.649Z"/>
      <path id="패스_28658" data-name="패스 28658" d="M7.557,13.051A7.838,7.838,0,0,0,9.216,10.66a6.889,6.889,0,0,0,.575-2.8V7.118q0-1.128-1.174-1.128H.541V8.042h6.61A4.974,4.974,0,0,1,5.38,11.9,12.458,12.458,0,0,1,.473,14.382.634.634,0,0,0,0,15.036a1.392,1.392,0,0,0,.338.993.916.916,0,0,0,.587.361H1.06a.236.236,0,0,0,.135-.046,18.61,18.61,0,0,0,3.644-1.387A11.58,11.58,0,0,0,7.557,13.051Z"/>
      <path id="패스_28659" data-name="패스 28659" d="M28.309,11.02H25.241v2.166h3.068V24.624q0,.721.677.722h.361q1.488,0,1.488-2.842V5.177H28.309Z"/>
      <path id="패스_28660" data-name="패스 28660" d="M26.594,17.585a8.007,8.007,0,0,1-1.534-1.973,11.882,11.882,0,0,1-.925-1.975,11.637,11.637,0,0,1-.507-2.346,25.948,25.948,0,0,1-.147-2.978h1.895q1.038,0,1.038-1.331,0-.789-.542-.789H18.134v2.12h2.617a17.121,17.121,0,0,1-.214,2.887,20.118,20.118,0,0,1-.53,2.3,10.124,10.124,0,0,1-.835,2.03,9.1,9.1,0,0,1-1.286,1.783,4.342,4.342,0,0,0-.327.394.682.682,0,0,0-.1.4,1.2,1.2,0,0,0,.1.417,1.213,1.213,0,0,0,.327.463.945.945,0,0,0,.418.26c.142.037.221.056.236.056a4.1,4.1,0,0,0,.451-.023,5.268,5.268,0,0,0,1.681-1.725A8.652,8.652,0,0,0,22.1,14.495a7.654,7.654,0,0,0,1.162,2.56,8.7,8.7,0,0,0,2.154,2.4.739.739,0,0,0,.508,0,1.5,1.5,0,0,0,.857-.745,1.023,1.023,0,0,0,.146-.473.623.623,0,0,0-.112-.35A3.724,3.724,0,0,0,26.594,17.585Z"/>
    </g>
    <g id="그룹_18299" data-name="그룹 18299">
      <path id="패스_28661" data-name="패스 28661" d="M77.614,13.683H58.664v2.052h18.5q1.015,0,1.015-1.353C78.178,13.916,77.989,13.683,77.614,13.683Z"/>
      <path id="패스_28662" data-name="패스 28662" d="M72.73,9.915a22.907,22.907,0,0,1-.666,2.662h1.467a.926.926,0,0,0,.97-.609,12.439,12.439,0,0,0,1.037-4.49V6.553q0-1.128-1.173-1.128H61.529V7.478H72.967A13.566,13.566,0,0,1,72.73,9.915Z"/>
      <path id="패스_28663" data-name="패스 28663" d="M74.14,17.856H61.529V22.91a2.743,2.743,0,0,0,.53,1.872,2.3,2.3,0,0,0,1.771.586h9.5a1.57,1.57,0,0,0,1.522-.992,7.593,7.593,0,0,0,.463-3.046V19.006A1.027,1.027,0,0,0,74.14,17.856Zm-1.421,4.129q0,1.332-.632,1.331H64.868c-.512,0-.767-.272-.767-.812V19.909h8.618Z"/>
      <path id="패스_28664" data-name="패스 28664" d="M83.061,11.675a8.256,8.256,0,0,0,2.268.857,13.044,13.044,0,0,0,2.989.316,12.877,12.877,0,0,0,3.068-.328,8.417,8.417,0,0,0,2.256-.868,3.857,3.857,0,0,0,1.365-1.241A2.761,2.761,0,0,0,95.469,8.9a2.55,2.55,0,0,0-.484-1.5,4.424,4.424,0,0,0-1.41-1.23,9.367,9.367,0,0,0-2.257-.812,13,13,0,0,0-3-.316,13.263,13.263,0,0,0-3.09.327,8.618,8.618,0,0,0-2.257.847A3.934,3.934,0,0,0,81.584,7.49a2.809,2.809,0,0,0-.462,1.523,2.447,2.447,0,0,0,.5,1.455A4.252,4.252,0,0,0,83.061,11.675ZM84.1,8.155a3.508,3.508,0,0,1,.971-.609,7.767,7.767,0,0,1,1.409-.372A10.378,10.378,0,0,1,88.3,7.028a9.764,9.764,0,0,1,1.737.146,9.207,9.207,0,0,1,1.443.372,3.817,3.817,0,0,1,1.016.609.959.959,0,0,1,0,1.534,3.766,3.766,0,0,1-1.016.609,7.128,7.128,0,0,1-1.421.395,9.884,9.884,0,0,1-1.759.147,10.373,10.373,0,0,1-1.817-.147A6.574,6.574,0,0,1,85.07,10.3a3.3,3.3,0,0,1-.971-.62,1.044,1.044,0,0,1-.361-.756A1.031,1.031,0,0,1,84.1,8.155Z"/>
      <path id="패스_28665" data-name="패스 28665" d="M98.064,14.833c0-.451-.189-.677-.564-.677H78.55v2.053H83.6v2.8a1.43,1.43,0,0,0-.7.429,3.653,3.653,0,0,0-1,1.184,2.929,2.929,0,0,0-.327,1.343,2.845,2.845,0,0,0,.451,1.534,4.193,4.193,0,0,0,1.331,1.286,8.587,8.587,0,0,0,2.132.857,10.891,10.891,0,0,0,2.831.338,11.016,11.016,0,0,0,2.842-.338,8.151,8.151,0,0,0,2.121-.857A4.274,4.274,0,0,0,94.589,23.5a2.846,2.846,0,0,0,.452-1.534,3.29,3.29,0,0,0-2.008-2.933l-.022-2.82h4.015Q98.064,16.209,98.064,14.833ZM86.175,16.209h4.241v1.918A10.308,10.308,0,0,0,89.3,17.98q-.485-.033-.981-.033-.564,0-1.06.033a8.753,8.753,0,0,0-1.083.147Zm6,6.542a2.546,2.546,0,0,1-.9.632,5.2,5.2,0,0,1-1.342.44,8.572,8.572,0,0,1-1.635.146,8.837,8.837,0,0,1-1.681-.146,4.518,4.518,0,0,1-1.3-.44,2.392,2.392,0,0,1-.914-.632,1.234,1.234,0,0,1-.327-.812,1.2,1.2,0,0,1,.327-.8,2.717,2.717,0,0,1,.914-.643,5.044,5.044,0,0,1,1.3-.416,8.748,8.748,0,0,1,1.681-.148,8.487,8.487,0,0,1,1.635.148,5.846,5.846,0,0,1,1.342.416,2.927,2.927,0,0,1,.9.643,1.178,1.178,0,0,1,.338.8A1.214,1.214,0,0,1,92.176,22.751Z"/>
      <path id="패스_28666" data-name="패스 28666" d="M115.759,18.679a1.7,1.7,0,0,0-.654-.079,24.9,24.9,0,0,1-3.508.971q-1.478.27-2.56.36V13.773h-2.573l-.022,6.271a5.4,5.4,0,0,1-1.376,0q-1.353-.068-1.354-.18V13.773h-2.594v5.685a4.9,4.9,0,0,1-1.038-.26q-1.038-.3-1.624-.417a1.59,1.59,0,0,0-.823-.045.828.828,0,0,0-.418.316,1.127,1.127,0,0,0-.079.981,1.235,1.235,0,0,0,.756.621,8.3,8.3,0,0,0,1.376.484,20.69,20.69,0,0,0,2.121.463,22.921,22.921,0,0,0,2.583.327q1.388.1,2.808.1a26.294,26.294,0,0,0,2.787-.146q1.365-.147,2.538-.373a18.224,18.224,0,0,0,2.03-.416,7.7,7.7,0,0,0,1.308-.463,1.364,1.364,0,0,0,.824-.621,1.121,1.121,0,0,0-.056-.958A.82.82,0,0,0,115.759,18.679Z"/>
      <path id="패스_28667" data-name="패스 28667" d="M111.292,8.854a29.029,29.029,0,0,1-.236,3.622q-.237,1.883-.666,3.868h1.625a.764.764,0,0,0,.834-.586q.5-1.964.745-3.621a20.678,20.678,0,0,0,.248-3.034V7.185q0-1.128-1.173-1.128H99.877V8.11h11.415Z"/>
      <path id="패스_28668" data-name="패스 28668" d="M120.09,11.652a8.169,8.169,0,0,0,2.278.857,13.307,13.307,0,0,0,3.023.316,13.258,13.258,0,0,0,3.034-.316,8.192,8.192,0,0,0,2.268-.857,4.02,4.02,0,0,0,1.4-1.218,2.476,2.476,0,0,0,.451-1.489,2.56,2.56,0,0,0-.451-1.523,4.163,4.163,0,0,0-1.4-1.252,9.686,9.686,0,0,0-2.268-.824,14.188,14.188,0,0,0-6.057,0,9.644,9.644,0,0,0-2.278.824,4.5,4.5,0,0,0-1.432,1.264,2.462,2.462,0,0,0-.463,1.511,2.43,2.43,0,0,0,.463,1.489A4.079,4.079,0,0,0,120.09,11.652Zm1.083-3.5a3.487,3.487,0,0,1,.97-.609,7.762,7.762,0,0,1,1.421-.372,10.554,10.554,0,0,1,1.827-.146,9.709,9.709,0,0,1,1.749.146,8.562,8.562,0,0,1,1.41.372,3.9,3.9,0,0,1,.992.609,1.084,1.084,0,0,1,.406.767,1.006,1.006,0,0,1-.383.767,3.759,3.759,0,0,1-1.015.609,7.12,7.12,0,0,1-1.422.395,9.745,9.745,0,0,1-1.737.147,10.549,10.549,0,0,1-1.827-.147,6.58,6.58,0,0,1-1.421-.395,3.283,3.283,0,0,1-.97-.62,1.041,1.041,0,0,1-.361-.756A1.027,1.027,0,0,1,121.173,8.155Z"/>
      <path id="패스_28669" data-name="패스 28669" d="M134.573,14.314H115.646v2.053h5.031v2.414h-2.121v2.053h11.077v3.858c0,.48.21.722.631.722h.338q1.559,0,1.557-2.753V19.909q0-1.13-1.195-1.128h-.858V16.367H134.1q1.038,0,1.038-1.353Q135.137,14.315,134.573,14.314Zm-7.061,4.467h-4.264V16.367h4.264Z"/>
      <path id="패스_28670" data-name="패스 28670" d="M138.6,13.344a22.551,22.551,0,0,0,3.621-1.23,10.282,10.282,0,0,0,2.47-1.5l.237-.237q.123-.123.35-.372a3.3,3.3,0,0,0,.519.609,10.263,10.263,0,0,0,2.47,1.5,22.5,22.5,0,0,0,3.62,1.23q.678.112,1.016-.9.293-.926-.406-1.06a12.534,12.534,0,0,1-4.309-1.851,4.493,4.493,0,0,1-1.6-2.053h4.67q1.038,0,1.038-1.375,0-.678-.542-.678H138.306V7.478h5.572a4.258,4.258,0,0,1-1.6,2.053,11.344,11.344,0,0,1-4.286,1.828q-.677.157-.383,1.083Q137.9,13.456,138.6,13.344Z"/>
      <path id="패스_28671" data-name="패스 28671" d="M154.436,15.667h-7.919V12.69h-2.572v2.977h-8.437V17.7h18.477Q155,17.7,155,16.322C155,15.886,154.811,15.667,154.436,15.667Z"/>
      <path id="패스_28672" data-name="패스 28672" d="M151.954,23.248H141.667a.668.668,0,0,1-.744-.767V19.3h-2.572v3.767q0,2.211,2.346,2.211h10.761q1.016,0,1.015-1.376Q152.473,23.248,151.954,23.248Z"/>
    </g>
  </g>
</svg>
