<svg xmlns="http://www.w3.org/2000/svg" width="186" height="105" viewBox="0 0 186 105"><g transform="translate(-500.467 -378)" opacity="0.202"><g transform="translate(473 358)"><g transform="translate(60 20)"><g transform="translate(0 9.53)"><path d="M6.044,29.882V23.265H0V21.625H8.02v1.363h3.713V20.8h1.955V30.929H11.733V28.242H8.02v1.64Zm3.121,9.58a5.011,5.011,0,0,1-1.8-.316,4.447,4.447,0,0,1-1.442-.879,4.058,4.058,0,0,1-.958-1.324,4.1,4.1,0,0,1,0-3.3,4.058,4.058,0,0,1,.958-1.324,4.447,4.447,0,0,1,1.442-.879,5.274,5.274,0,0,1,3.595,0,4.455,4.455,0,0,1,1.442.879,4.064,4.064,0,0,1,.958,1.324,4.1,4.1,0,0,1,0,3.3,4.064,4.064,0,0,1-.958,1.324,4.455,4.455,0,0,1-1.442.879,5.017,5.017,0,0,1-1.8.316m0-1.62a2.58,2.58,0,0,0,1.086-.217,2.466,2.466,0,0,0,.8-.573,2.411,2.411,0,0,0,.494-.82,2.7,2.7,0,0,0,0-1.876,2.415,2.415,0,0,0-.494-.82,2.467,2.467,0,0,0-.8-.573,2.58,2.58,0,0,0-1.086-.217,2.581,2.581,0,0,0-1.087.217,2.466,2.466,0,0,0-.8.573,2.415,2.415,0,0,0-.494.82,2.7,2.7,0,0,0,0,1.876,2.411,2.411,0,0,0,.494.82,2.466,2.466,0,0,0,.8.573,2.581,2.581,0,0,0,1.087.217M8.02,26.6h3.713V24.628H8.02Z" transform="translate(0 -20.796)" fill="#fff"/><path d="M38.359,23.778V22.1h8v1.679h-2l2.568,9.639H44.917l-2.509-9.639h-.02l-2.469,9.639H37.885l2.528-9.639Zm11.456,14.2H47.938V27.985H45.766V26.306h2.172V20.894h1.877Zm3.3.3H51.2V20.795h1.916Z" transform="translate(-20.523 -20.795)" fill="#fff"/><path d="M84.692,30.173V28.592H96.029V24.01H87.062V22.39H98.045v6.2h2.8v1.581Zm13.767,9.56H87.082V32.424H98.459Zm-9.382-1.58h7.387V34H89.077Z" transform="translate(-45.879 -21.659)" fill="#fff"/><path d="M136.612,35.971a3.282,3.282,0,0,1-.326,1.472,3.47,3.47,0,0,1-.928,1.155,4.3,4.3,0,0,1-1.452.76,7.016,7.016,0,0,1-3.832,0,4.178,4.178,0,0,1-1.442-.76,3.521,3.521,0,0,1-.918-1.155,3.474,3.474,0,0,1,.306-3.467V30.8h-4.109v-1.58h16.157V30.8h-4.109v3.18a3.238,3.238,0,0,1,.652,2m-.2-11.3a3.39,3.39,0,0,1-.306,1.461,3.278,3.278,0,0,1-.869,1.126,3.938,3.938,0,0,1-1.392.731,6.264,6.264,0,0,1-1.857.257,6.138,6.138,0,0,1-1.857-.257,4.061,4.061,0,0,1-1.382-.731,3.125,3.125,0,0,1-.869-1.126,3.49,3.49,0,0,1-.3-1.461,3.233,3.233,0,0,1,1.155-2.6,4.885,4.885,0,0,1,3.249-.978,6.279,6.279,0,0,1,1.857.257,3.945,3.945,0,0,1,1.392.731,3.252,3.252,0,0,1,.869,1.136,3.412,3.412,0,0,1,.306,1.452m-7.031,11.3a1.893,1.893,0,0,0,.671,1.481,2.837,2.837,0,0,0,1.936.593,2.883,2.883,0,0,0,1.936-.593,1.933,1.933,0,0,0,0-2.963,2.883,2.883,0,0,0-1.936-.593,2.837,2.837,0,0,0-1.936.593,1.894,1.894,0,0,0-.671,1.482m.2-11.3a1.874,1.874,0,0,0,.6,1.432,2.561,2.561,0,0,0,1.807.563A2.606,2.606,0,0,0,133.8,26.1a1.959,1.959,0,0,0,0-2.864,2.606,2.606,0,0,0-1.807-.563,2.561,2.561,0,0,0-1.807.563,1.874,1.874,0,0,0-.6,1.432m2.41,7.644a6.221,6.221,0,0,1,1.975.3V30.8h-3.951v1.817a6,6,0,0,1,1.976-.3" transform="translate(-67.125 -20.959)" fill="#fff"/><path d="M203.66,35.156V36.8H187.5V35.156h4.069V29.684h2.015v5.471h2.074V29.684h2.015v5.471Zm-4.721-3.082V25.3h-9.264V23.64h11.3v8.434Z" transform="translate(-101.574 -22.336)" fill="#fff"/><path d="M238.279,39.032V35.318H229V33.7h2.035V31.783h-4.306v-1.62h16.157v1.62h-4.306V33.7h1.718v5.333Zm1.007-13.945a3.938,3.938,0,0,1-.3,1.511,3.718,3.718,0,0,1-.869,1.274,4.2,4.2,0,0,1-1.4.879,5.789,5.789,0,0,1-3.832,0,4.2,4.2,0,0,1-1.4-.879,3.726,3.726,0,0,1-.869-1.274,4.005,4.005,0,0,1,0-3.022,3.737,3.737,0,0,1,.869-1.274,4.2,4.2,0,0,1,1.4-.879,5.8,5.8,0,0,1,3.832,0,4.208,4.208,0,0,1,1.4.879,3.728,3.728,0,0,1,.869,1.274,3.937,3.937,0,0,1,.3,1.511m-6.973,0a2.492,2.492,0,0,0,.168.909,2.163,2.163,0,0,0,.494.76,2.34,2.34,0,0,0,.79.514,2.743,2.743,0,0,0,1.037.187,2.669,2.669,0,0,0,1.027-.187,2.359,2.359,0,0,0,.78-.514,2.282,2.282,0,0,0,.5-.76,2.41,2.41,0,0,0,0-1.817,2.289,2.289,0,0,0-.5-.761,2.365,2.365,0,0,0-.78-.513,2.669,2.669,0,0,0-1.027-.188,2.743,2.743,0,0,0-1.037.188,2.345,2.345,0,0,0-.79.513,2.169,2.169,0,0,0-.494.761,2.492,2.492,0,0,0-.168.908m.711,8.612h3.555V31.783h-3.555Z" transform="translate(-122.82 -20.959)" fill="#fff"/></g><path d="M168,4.415a4.415,4.415,0,1,0-4.415,4.415A4.415,4.415,0,0,0,168,4.415" transform="translate(-86.225)" fill="#ffce46"/></g></g><text transform="translate(500.467 464)" fill="#fff" font-size="54" font-family="Poppins-Bold, Poppins" font-weight="700"><tspan x="0" y="0">ON AIR</tspan></text></g></svg>