<svg xmlns="http://www.w3.org/2000/svg" width="679.786" height="378.053" viewBox="0 0 679.786 378.053">
  <g id="그룹_19868" data-name="그룹 19868" transform="translate(370.864 201.433)">
    <g id="그룹_19864" data-name="그룹 19864" transform="translate(-363.704 -163.775)">
      <path id="패스_29689" data-name="패스 29689" d="M-362.286,149.369a7.662,7.662,0,0,1-6.585-7.587c0-183.473,149.263-332.736,332.732-332.733a7.659,7.659,0,0,1,7.659,7.659,7.659,7.659,0,0,1-7.659,7.662c-175.02,0-317.411,142.391-317.411,317.408a7.666,7.666,0,0,1-7.662,7.666A8.08,8.08,0,0,1-362.286,149.369Z" transform="translate(368.871 190.95)" fill="#3d1c60"/>
    </g>
    <g id="그룹_19865" data-name="그룹 19865" transform="translate(-38.634 -201.063)">
      <path id="패스_29690" data-name="패스 29690" d="M-271.8-148.8a7.658,7.658,0,0,1-6.585-7.583v-37.288a7.662,7.662,0,0,1,7.662-7.662,7.66,7.66,0,0,1,7.659,7.662v37.288a7.656,7.656,0,0,1-7.659,7.659A7.621,7.621,0,0,1-271.8-148.8Z" transform="translate(278.38 201.33)" fill="#3d1c60"/>
    </g>
    <g id="그룹_19866" data-name="그룹 19866" transform="translate(-57.278 -201.433)">
      <path id="패스_29691" data-name="패스 29691" d="M-283.495-194.848a7.665,7.665,0,0,1,7.587-6.585h37.288a7.656,7.656,0,0,1,7.659,7.659,7.662,7.662,0,0,1-7.659,7.662h-37.288a7.663,7.663,0,0,1-7.662-7.662A7.57,7.57,0,0,1-283.495-194.848Z" transform="translate(283.57 201.433)" fill="#3d1c60"/>
    </g>
    <path id="패스_29692" data-name="패스 29692" d="M-345.142-167.222a87.82,87.82,0,0,0,0,124.2h0a342.134,342.134,0,0,0,124.2-124.2h0A87.821,87.821,0,0,0-345.142-167.222Z" transform="translate(0 22.008)" fill="#3d1c60"/>
    <circle id="타원_686" data-name="타원 686" cx="8.615" cy="8.615" r="8.615" transform="translate(-39.587 -129.026)" fill="#3d1c60"/>
    <circle id="타원_687" data-name="타원 687" cx="8.615" cy="8.615" r="8.615" transform="translate(-328.789 159.389)" fill="#3d1c60"/>
    <circle id="타원_688" data-name="타원 688" cx="8.615" cy="8.615" r="8.615" transform="translate(-290.043 15.575)" fill="#3d1c60"/>
    <circle id="타원_689" data-name="타원 689" cx="8.615" cy="8.615" r="8.615" transform="translate(-184.188 -90.28)" fill="#3d1c60"/>
    <g id="그룹_19867" data-name="그룹 19867" transform="translate(-38.634 -163.775)">
      <path id="패스_29693" data-name="패스 29693" d="M53.279,149.369a7.671,7.671,0,0,1-6.588-7.587A315.316,315.316,0,0,0-46.275-82.66a315.376,315.376,0,0,0-224.443-92.969,7.671,7.671,0,0,1-7.662-7.659,7.662,7.662,0,0,1,7.662-7.662c183.469,0,332.733,149.263,332.736,332.733a7.667,7.667,0,0,1-8.74,7.587Z" transform="translate(278.38 190.95)" fill="#3d1c60"/>
    </g>
    <path id="패스_29694" data-name="패스 29694" d="M-99.167-167.222a87.821,87.821,0,0,1,0,124.2h0a342.079,342.079,0,0,1-124.2-124.2h0A87.821,87.821,0,0,1-99.167-167.222Z" transform="translate(382.366 22.008)" fill="#3d1c60"/>
    <circle id="타원_690" data-name="타원 690" cx="8.615" cy="8.615" r="8.615" transform="translate(249.615 159.389)" fill="#3d1c60"/>
    <circle id="타원_691" data-name="타원 691" cx="8.615" cy="8.615" r="8.615" transform="translate(210.869 15.575)" fill="#3d1c60"/>
    <circle id="타원_692" data-name="타원 692" cx="8.615" cy="8.615" r="8.615" transform="translate(105.014 -90.28)" fill="#3d1c60"/>
  </g>
</svg>
