<svg xmlns="http://www.w3.org/2000/svg" width="312.299" height="172.115" viewBox="0 0 312.299 172.115">
  <g id="그룹_20371" data-name="그룹 20371" transform="translate(-24 -580)">
    <g id="그룹_20223" data-name="그룹 20223" transform="translate(223 580)">
      <g id="그룹_5509" data-name="그룹 5509" transform="translate(0 0)">
        <g id="그룹_5502" data-name="그룹 5502" transform="translate(111.523 46.079)">
          <path id="패스_5884" data-name="패스 5884" d="M3617.86,866.8a.623.623,0,1,1,.625-.622A.623.623,0,0,1,3617.86,866.8Z" transform="translate(-3617.231 -865.557)" fill="#fff"/>
          <path id="패스_5885" data-name="패스 5885" d="M3617.828,883.9a.624.624,0,1,1,.625-.622A.623.623,0,0,1,3617.828,883.9Z" transform="translate(-3617.202 -880.724)" fill="#fff"/>
          <path id="패스_5886" data-name="패스 5886" d="M3617.8,901a.624.624,0,1,1,.625-.622A.623.623,0,0,1,3617.8,901Z" transform="translate(-3617.174 -895.892)" fill="#fff"/>
        </g>
        <g id="그룹_5503" data-name="그룹 5503" transform="translate(48.496 17.611)">
          <rect id="사각형_2532" data-name="사각형 2532" width="0.473" height="0.635" transform="translate(2.852 1.998) rotate(-89.892)" fill="#fff"/>
          <rect id="사각형_2533" data-name="사각형 2533" width="0.473" height="0.636" transform="matrix(0.709, -0.706, 0.706, 0.709, 2.349, 2.706)" fill="#fff"/>
          <rect id="사각형_2534" data-name="사각형 2534" width="0.635" height="0.473" transform="translate(1.49 3.488) rotate(-89.892)" fill="#fff"/>
          <rect id="사각형_2535" data-name="사각형 2535" width="0.635" height="0.473" transform="matrix(0.708, -0.706, 0.706, 0.708, 0.332, 2.797)" fill="#fff"/>
          <rect id="사각형_2536" data-name="사각형 2536" width="0.473" height="0.635" transform="translate(0 1.963) rotate(-89.892)" fill="#fff"/>
          <rect id="사각형_2537" data-name="사각형 2537" width="0.473" height="0.635" transform="translate(0.356 0.666) rotate(-44.892)" fill="#fff"/>
          <rect id="사각형_2538" data-name="사각형 2538" width="0.636" height="0.473" transform="translate(1.524 0.636) rotate(-89.892)" fill="#fff"/>
          <rect id="사각형_2539" data-name="사각형 2539" width="0.635" height="0.473" transform="translate(2.372 0.805) rotate(-44.892)" fill="#fff"/>
        </g>
        <g id="그룹_5504" data-name="그룹 5504" transform="translate(0 0)">
          <path id="패스_5887" data-name="패스 5887" d="M2628.2,458.944a2.01,2.01,0,1,1,2.006,2.014A2.012,2.012,0,0,1,2628.2,458.944Zm3.547.007a1.537,1.537,0,1,0-1.54,1.534A1.539,1.539,0,0,0,2631.75,458.951Z" transform="translate(-2628.203 -456.938)" fill="#fff"/>
          <path id="패스_5888" data-name="패스 5888" d="M2647.424,458.98a2.01,2.01,0,1,1,2.006,2.014A2.012,2.012,0,0,1,2647.424,458.98Zm3.547.007a1.537,1.537,0,1,0-1.54,1.534A1.538,1.538,0,0,0,2650.971,458.987Z" transform="translate(-2645.257 -456.97)" fill="#fff"/>
          <path id="패스_5889" data-name="패스 5889" d="M2666.643,459.016a2.01,2.01,0,1,1,2.006,2.014A2.012,2.012,0,0,1,2666.643,459.016Zm3.547.007a1.537,1.537,0,1,0-1.54,1.534A1.539,1.539,0,0,0,2670.19,459.023Z" transform="translate(-2662.308 -457.002)" fill="#fff"/>
          <path id="패스_5890" data-name="패스 5890" d="M2685.864,459.052a2.01,2.01,0,1,1,2.006,2.014A2.012,2.012,0,0,1,2685.864,459.052Zm3.547.007a1.537,1.537,0,1,0-1.54,1.534A1.539,1.539,0,0,0,2689.411,459.059Z" transform="translate(-2679.362 -457.034)" fill="#fff"/>
        </g>
        <g id="그룹_5505" data-name="그룹 5505" transform="translate(91.112 22.694)">
          <path id="패스_5891" data-name="패스 5891" d="M3465.609,658.989a.374.374,0,1,1,.375-.373A.374.374,0,0,1,3465.609,658.989Z" transform="translate(-3461.958 -658.236)" fill="#fff"/>
          <path id="패스_5892" data-name="패스 5892" d="M3465.578,675.4a.374.374,0,1,1,.374-.373A.374.374,0,0,1,3465.578,675.4Z" transform="translate(-3461.931 -672.795)" fill="#fff"/>
          <path id="패스_5893" data-name="패스 5893" d="M3465.547,691.809a.374.374,0,1,1,.374-.373A.374.374,0,0,1,3465.547,691.809Z" transform="translate(-3461.904 -687.355)" fill="#fff"/>
          <path id="패스_5894" data-name="패스 5894" d="M3451.108,658.962a.374.374,0,1,1,.375-.373A.373.373,0,0,1,3451.108,658.962Z" transform="translate(-3449.093 -658.212)" fill="#fff"/>
          <path id="패스_5895" data-name="패스 5895" d="M3451.077,675.371a.374.374,0,1,1,.375-.373A.373.373,0,0,1,3451.077,675.371Z" transform="translate(-3449.065 -672.771)" fill="#fff"/>
          <path id="패스_5896" data-name="패스 5896" d="M3451.046,691.781a.374.374,0,1,1,.375-.373A.373.373,0,0,1,3451.046,691.781Z" transform="translate(-3449.038 -687.33)" fill="#fff"/>
          <path id="패스_5897" data-name="패스 5897" d="M3436.608,658.935a.374.374,0,1,1,.375-.373A.374.374,0,0,1,3436.608,658.935Z" transform="translate(-3436.228 -658.188)" fill="#fff"/>
          <path id="패스_5898" data-name="패스 5898" d="M3436.577,675.344a.374.374,0,1,1,.374-.373A.374.374,0,0,1,3436.577,675.344Z" transform="translate(-3436.201 -672.747)" fill="#fff"/>
          <path id="패스_5899" data-name="패스 5899" d="M3436.546,691.754a.374.374,0,1,1,.374-.373A.373.373,0,0,1,3436.546,691.754Z" transform="translate(-3436.173 -687.306)" fill="#fff"/>
        </g>
        <g id="그룹_5506" data-name="그룹 5506" transform="translate(15.655 8.22)">
          <path id="패스_5900" data-name="패스 5900" d="M2767.028,555.552l10.917-2.972-1.6-4.564Z" transform="translate(-2767.028 -545.965)" fill="#ff96a0"/>
          <path id="패스_5901" data-name="패스 5901" d="M2767.028,539.415l5.26-9.587,4.062,2.051Z" transform="translate(-2767.028 -529.828)" fill="#fff"/>
        </g>
        <g id="그룹_5507" data-name="그룹 5507" transform="translate(99.069 6.12)">
          <rect id="사각형_2540" data-name="사각형 2540" width="3.31" height="0.946" transform="matrix(0.708, -0.706, 0.706, 0.708, 0, 2.339)" fill="#fff"/>
          <rect id="사각형_2541" data-name="사각형 2541" width="0.946" height="3.31" transform="matrix(0.708, -0.706, 0.706, 0.708, 0.003, 0.667)" fill="#fff"/>
        </g>
        <g id="그룹_5508" data-name="그룹 5508" transform="translate(24.757 39.643)">
          <rect id="사각형_2542" data-name="사각형 2542" width="0.946" height="3.31" transform="translate(0 2.126) rotate(-89.89)" fill="#fff"/>
          <rect id="사각형_2543" data-name="사각형 2543" width="3.31" height="0.946" transform="translate(1.18 3.31) rotate(-89.892)" fill="#fff"/>
        </g>
      </g>
    </g>
    <g id="그룹_20222" data-name="그룹 20222" transform="translate(24 580)">
      <path id="패스_5902" data-name="패스 5902" d="M1875.366,611.184a1.889,1.889,0,0,0-1.891,1.883.881.881,0,1,1-1.761,0,1.887,1.887,0,0,0-3.773-.007h0a.881.881,0,0,1-1.762,0,1.887,1.887,0,1,0-3.773-.007l1.006,0a.881.881,0,1,1,1.761,0,1.887,1.887,0,0,0,3.773.007h0a.881.881,0,0,1,1.761,0,1.887,1.887,0,0,0,3.774.007.881.881,0,1,1,1.761,0l1.006,0A1.889,1.889,0,0,0,1875.366,611.184Z" transform="translate(-1824.802 -595.978)" fill="#fff"/>
      <g id="그룹_5511" data-name="그룹 5511" transform="translate(26.74 5.829)">
        <path id="패스_5903" data-name="패스 5903" d="M1766.07,530.2a2.01,2.01,0,1,1,2.006,2.014A2.012,2.012,0,0,1,1766.07,530.2Zm3.547.007a1.537,1.537,0,1,0-1.54,1.534A1.539,1.539,0,0,0,1769.617,530.2Z" transform="translate(-1766.07 -528.19)" fill="#fff"/>
        <path id="패스_5904" data-name="패스 5904" d="M1785.291,530.232a2.01,2.01,0,1,1,2.006,2.014A2.012,2.012,0,0,1,1785.291,530.232Zm3.547.007a1.537,1.537,0,1,0-1.54,1.534A1.539,1.539,0,0,0,1788.838,530.239Z" transform="translate(-1783.124 -528.222)" fill="#fff"/>
        <path id="패스_5905" data-name="패스 5905" d="M1804.509,530.269a2.01,2.01,0,1,1,2.006,2.014A2.012,2.012,0,0,1,1804.509,530.269Zm3.547.007a1.537,1.537,0,1,0-1.54,1.534A1.539,1.539,0,0,0,1808.056,530.276Z" transform="translate(-1800.174 -528.255)" fill="#fff"/>
        <path id="패스_5906" data-name="패스 5906" d="M1823.728,530.3a2.01,2.01,0,1,1,2.006,2.014A2.012,2.012,0,0,1,1823.728,530.3Zm3.547.007a1.537,1.537,0,1,0-1.54,1.534A1.539,1.539,0,0,0,1827.275,530.312Z" transform="translate(-1817.226 -528.287)" fill="#fff"/>
      </g>
      <path id="패스_5907" data-name="패스 5907" d="M2095.135,476.5l5.332,3.091-5.343,3.072Z" transform="translate(-2031.277 -476.503)" fill="#fff"/>
      <g id="그룹_5512" data-name="그룹 5512" transform="translate(0 12.002)">
        <path id="패스_5908" data-name="패스 5908" d="M1539.86,582.938l-10.917,2.972,1.6,4.564Z" transform="translate(-1528.943 -582.938)" fill="#fff"/>
        <path id="패스_5909" data-name="패스 5909" d="M1552.418,582.938l-5.26,9.587-4.062-2.051Z" transform="translate(-1541.501 -582.938)" fill="#52c7f2"/>
      </g>
    </g>
    <g id="그룹_20221" data-name="그룹 20221" transform="translate(24 722)">
      <g id="그룹_5519" data-name="그룹 5519" transform="translate(23.56 0)">
        <path id="패스_5927" data-name="패스 5927" d="M1805.869,1576.575a.623.623,0,1,1,.625-.622A.624.624,0,0,1,1805.869,1576.575Z" transform="translate(-1805.24 -1575.328)" fill="#fff"/>
        <path id="패스_5928" data-name="패스 5928" d="M1805.837,1593.67a.623.623,0,1,1,.625-.622A.623.623,0,0,1,1805.837,1593.67Z" transform="translate(-1805.211 -1590.495)" fill="#fff"/>
        <path id="패스_5929" data-name="패스 5929" d="M1805.805,1610.766a.624.624,0,1,1,.625-.622A.624.624,0,0,1,1805.805,1610.766Z" transform="translate(-1805.183 -1605.663)" fill="#fff"/>
      </g>
      <g id="그룹_5520" data-name="그룹 5520" transform="translate(39.128 26.627)">
        <rect id="사각형_2552" data-name="사각형 2552" width="0.473" height="0.635" transform="translate(2.852 1.998) rotate(-89.892)" fill="#fff"/>
        <rect id="사각형_2553" data-name="사각형 2553" width="0.473" height="0.635" transform="translate(2.349 2.706) rotate(-44.891)" fill="#fff"/>
        <rect id="사각형_2554" data-name="사각형 2554" width="0.635" height="0.473" transform="translate(1.49 3.488) rotate(-89.892)" fill="#fff"/>
        <rect id="사각형_2555" data-name="사각형 2555" width="0.635" height="0.473" transform="translate(0.332 2.797) rotate(-44.893)" fill="#fff"/>
        <rect id="사각형_2556" data-name="사각형 2556" width="0.473" height="0.635" transform="translate(0 1.963) rotate(-89.892)" fill="#fff"/>
        <rect id="사각형_2557" data-name="사각형 2557" width="0.473" height="0.636" transform="matrix(0.709, -0.706, 0.706, 0.709, 0.356, 0.666)" fill="#fff"/>
        <rect id="사각형_2558" data-name="사각형 2558" width="0.636" height="0.473" transform="translate(1.524 0.636) rotate(-89.892)" fill="#fff"/>
        <rect id="사각형_2559" data-name="사각형 2559" width="0.635" height="0.473" transform="matrix(0.708, -0.706, 0.706, 0.708, 2.372, 0.805)" fill="#fff"/>
      </g>
      <g id="그룹_5521" data-name="그룹 5521" transform="translate(88.526 16.263)">
        <rect id="사각형_2560" data-name="사각형 2560" width="0.473" height="0.635" transform="translate(2.852 1.998) rotate(-89.892)" fill="#fff"/>
        <rect id="사각형_2561" data-name="사각형 2561" width="0.473" height="0.635" transform="translate(2.349 2.706) rotate(-44.891)" fill="#fff"/>
        <rect id="사각형_2562" data-name="사각형 2562" width="0.635" height="0.473" transform="translate(1.49 3.488) rotate(-89.892)" fill="#fff"/>
        <rect id="사각형_2563" data-name="사각형 2563" width="0.635" height="0.473" transform="translate(0.332 2.797) rotate(-44.893)" fill="#fff"/>
        <rect id="사각형_2564" data-name="사각형 2564" width="0.473" height="0.636" transform="translate(0 1.963) rotate(-89.892)" fill="#fff"/>
        <rect id="사각형_2565" data-name="사각형 2565" width="0.473" height="0.635" transform="matrix(0.708, -0.706, 0.706, 0.708, 0.357, 0.666)" fill="#fff"/>
        <rect id="사각형_2566" data-name="사각형 2566" width="0.636" height="0.473" transform="translate(1.524 0.636) rotate(-89.892)" fill="#fff"/>
        <rect id="사각형_2567" data-name="사각형 2567" width="0.635" height="0.473" transform="matrix(0.708, -0.706, 0.706, 0.708, 2.372, 0.805)" fill="#fff"/>
      </g>
      <g id="그룹_5522" data-name="그룹 5522" transform="translate(15.264 14.645)">
        <path id="패스_5930" data-name="패스 5930" d="M1761.058,1706a.374.374,0,1,1,.374-.373A.374.374,0,0,1,1761.058,1706Z" transform="translate(-1757.408 -1705.247)" fill="#fff"/>
        <path id="패스_5931" data-name="패스 5931" d="M1761.027,1722.409a.374.374,0,1,1,.374-.373A.374.374,0,0,1,1761.027,1722.409Z" transform="translate(-1757.38 -1719.806)" fill="#fff"/>
        <path id="패스_5932" data-name="패스 5932" d="M1761,1738.819a.374.374,0,1,1,.374-.373A.374.374,0,0,1,1761,1738.819Z" transform="translate(-1757.353 -1734.365)" fill="#fff"/>
        <path id="패스_5933" data-name="패스 5933" d="M1746.556,1705.972a.374.374,0,1,1,.374-.373A.374.374,0,0,1,1746.556,1705.972Z" transform="translate(-1744.541 -1705.222)" fill="#fff"/>
        <path id="패스_5934" data-name="패스 5934" d="M1746.525,1722.381a.374.374,0,1,1,.374-.373A.374.374,0,0,1,1746.525,1722.381Z" transform="translate(-1744.514 -1719.781)" fill="#fff"/>
        <path id="패스_5935" data-name="패스 5935" d="M1746.494,1738.792a.374.374,0,1,1,.374-.373A.374.374,0,0,1,1746.494,1738.792Z" transform="translate(-1744.486 -1734.341)" fill="#fff"/>
        <path id="패스_5936" data-name="패스 5936" d="M1732.058,1705.945a.374.374,0,1,1,.374-.373A.373.373,0,0,1,1732.058,1705.945Z" transform="translate(-1731.678 -1705.198)" fill="#fff"/>
        <ellipse id="타원_36" data-name="타원 36" cx="0.374" cy="0.374" rx="0.374" ry="0.374" transform="translate(0.003 2.597) rotate(-89.892)" fill="#fff"/>
        <path id="패스_5937" data-name="패스 5937" d="M1732,1738.764a.374.374,0,1,1,.374-.373A.373.373,0,0,1,1732,1738.764Z" transform="translate(-1731.623 -1734.316)" fill="#fff"/>
      </g>
      <path id="패스_5938" data-name="패스 5938" d="M1601.594,1606.777l-5.332-3.092,5.343-3.072Z" transform="translate(-1596.262 -1597.763)" fill="#fff"/>
      <g id="그룹_5523" data-name="그룹 5523" transform="translate(54.201 19.782)">
        <path id="패스_5939" data-name="패스 5939" d="M2076.9,1776.474l10.917-2.971-1.6-4.564Z" transform="translate(-2076.904 -1766.887)" fill="#ffc9ce"/>
        <path id="패스_5940" data-name="패스 5940" d="M2076.9,1760.338l5.26-9.587,4.062,2.051Z" transform="translate(-2076.904 -1750.751)" fill="#fff"/>
      </g>
      <g id="그룹_5524" data-name="그룹 5524" transform="translate(112.457 24.005)">
        <rect id="사각형_2568" data-name="사각형 2568" width="0.946" height="3.31" transform="translate(0 2.126) rotate(-89.89)" fill="#fff"/>
        <rect id="사각형_2569" data-name="사각형 2569" width="3.31" height="0.946" transform="translate(1.18 3.31) rotate(-89.892)" fill="#fff"/>
      </g>
    </g>
    <g id="그룹_20220" data-name="그룹 20220" transform="translate(263 701)">
      <path id="패스_5910" data-name="패스 5910" d="M3252.4,1841.706a1.889,1.889,0,0,0-1.89,1.883.881.881,0,0,1-1.761,0,1.887,1.887,0,0,0-3.773-.008h0a.881.881,0,1,1-1.761,0,1.887,1.887,0,1,0-3.773-.007l1.006,0a.88.88,0,1,1,1.761,0,1.887,1.887,0,0,0,3.774.008h0a.881.881,0,0,1,1.761,0,1.887,1.887,0,1,0,3.773.007.881.881,0,1,1,1.761,0l1.006,0A1.888,1.888,0,0,0,3252.4,1841.706Z" transform="translate(-3209.621 -1794.468)" fill="#fff"/>
      <g id="그룹_5514" data-name="그룹 5514" transform="translate(0 16.294)">
        <rect id="사각형_2544" data-name="사각형 2544" width="0.473" height="0.635" transform="translate(2.852 1.998) rotate(-89.892)" fill="#fff"/>
        <rect id="사각형_2545" data-name="사각형 2545" width="0.473" height="0.636" transform="matrix(0.708, -0.706, 0.706, 0.708, 2.348, 2.706)" fill="#fff"/>
        <rect id="사각형_2546" data-name="사각형 2546" width="0.635" height="0.473" transform="translate(1.49 3.488) rotate(-89.892)" fill="#fff"/>
        <rect id="사각형_2547" data-name="사각형 2547" width="0.635" height="0.473" transform="matrix(0.709, -0.705, 0.705, 0.709, 0.332, 2.797)" fill="#fff"/>
        <rect id="사각형_2548" data-name="사각형 2548" width="0.473" height="0.635" transform="translate(0 1.963) rotate(-89.892)" fill="#fff"/>
        <rect id="사각형_2549" data-name="사각형 2549" width="0.473" height="0.635" transform="matrix(0.708, -0.706, 0.706, 0.708, 0.356, 0.666)" fill="#fff"/>
        <rect id="사각형_2550" data-name="사각형 2550" width="0.636" height="0.473" transform="translate(1.524 0.636) rotate(-89.892)" fill="#fff"/>
        <rect id="사각형_2551" data-name="사각형 2551" width="0.635" height="0.473" transform="matrix(0.708, -0.706, 0.706, 0.708, 2.372, 0.805)" fill="#fff"/>
      </g>
      <g id="그룹_5515" data-name="그룹 5515" transform="translate(62.715 31.633)">
        <path id="패스_5911" data-name="패스 5911" d="M3531.185,1705.505a2.01,2.01,0,1,1,2.006,2.014A2.012,2.012,0,0,1,3531.185,1705.505Zm3.547.007a1.537,1.537,0,1,0-1.54,1.534A1.539,1.539,0,0,0,3534.732,1705.512Z" transform="translate(-3531.185 -1703.499)" fill="#fff"/>
        <path id="패스_5912" data-name="패스 5912" d="M3550.405,1705.541a2.01,2.01,0,1,1,2.006,2.014A2.012,2.012,0,0,1,3550.405,1705.541Zm3.547.007a1.537,1.537,0,1,0-1.54,1.534A1.539,1.539,0,0,0,3553.952,1705.548Z" transform="translate(-3548.238 -1703.531)" fill="#fff"/>
        <path id="패스_5913" data-name="패스 5913" d="M3569.626,1705.577a2.01,2.01,0,1,1,2.006,2.014A2.013,2.013,0,0,1,3569.626,1705.577Zm3.547.007a1.537,1.537,0,1,0-1.54,1.534A1.539,1.539,0,0,0,3573.173,1705.584Z" transform="translate(-3565.291 -1703.563)" fill="#fff"/>
        <path id="패스_5914" data-name="패스 5914" d="M3588.845,1705.614a2.01,2.01,0,1,1,2.006,2.014A2.012,2.012,0,0,1,3588.845,1705.614Zm3.547.007a1.537,1.537,0,1,0-1.54,1.534A1.539,1.539,0,0,0,3592.392,1705.621Z" transform="translate(-3582.343 -1703.596)" fill="#fff"/>
      </g>
      <g id="그룹_5516" data-name="그룹 5516" transform="translate(69.274 0)">
        <path id="패스_5915" data-name="패스 5915" d="M3618.782,1423.783a.374.374,0,1,1,.375-.373A.374.374,0,0,1,3618.782,1423.783Z" transform="translate(-3615.132 -1423.03)" fill="#fff"/>
        <path id="패스_5916" data-name="패스 5916" d="M3618.751,1440.193a.374.374,0,1,1,.375-.373A.373.373,0,0,1,3618.751,1440.193Z" transform="translate(-3615.104 -1437.589)" fill="#fff"/>
        <path id="패스_5917" data-name="패스 5917" d="M3618.721,1456.6a.374.374,0,1,1,.375-.373A.374.374,0,0,1,3618.721,1456.6Z" transform="translate(-3615.077 -1452.149)" fill="#fff"/>
        <path id="패스_5918" data-name="패스 5918" d="M3604.28,1423.755a.374.374,0,1,1,.375-.373A.374.374,0,0,1,3604.28,1423.755Z" transform="translate(-3602.265 -1423.005)" fill="#fff"/>
        <path id="패스_5919" data-name="패스 5919" d="M3604.25,1440.166a.374.374,0,1,1,.375-.373A.373.373,0,0,1,3604.25,1440.166Z" transform="translate(-3602.238 -1437.565)" fill="#fff"/>
        <path id="패스_5920" data-name="패스 5920" d="M3604.219,1456.576a.374.374,0,1,1,.375-.373A.373.373,0,0,1,3604.219,1456.576Z" transform="translate(-3602.211 -1452.125)" fill="#fff"/>
        <path id="패스_5921" data-name="패스 5921" d="M3589.78,1423.728a.374.374,0,1,1,.374-.373A.374.374,0,0,1,3589.78,1423.728Z" transform="translate(-3589.4 -1422.981)" fill="#fff"/>
        <path id="패스_5922" data-name="패스 5922" d="M3589.75,1440.138a.374.374,0,1,1,.374-.373A.373.373,0,0,1,3589.75,1440.138Z" transform="translate(-3589.374 -1437.541)" fill="#fff"/>
        <path id="패스_5923" data-name="패스 5923" d="M3589.719,1456.548a.374.374,0,1,1,.375-.373A.373.373,0,0,1,3589.719,1456.548Z" transform="translate(-3589.346 -1452.1)" fill="#fff"/>
      </g>
      <path id="패스_5924" data-name="패스 5924" d="M3037.755,1762.634l-5.332-3.091,5.343-3.072Z" transform="translate(-3025.951 -1718.864)" fill="#fff"/>
      <g id="그룹_5517" data-name="그룹 5517" transform="translate(49.618 20.224)">
        <path id="패스_5925" data-name="패스 5925" d="M3425.953,1602.323l-10.917,2.972,1.6,4.564Z" transform="translate(-3415.035 -1602.323)" fill="#fff"/>
        <path id="패스_5926" data-name="패스 5926" d="M3438.513,1602.323l-5.26,9.587-4.062-2.051Z" transform="translate(-3427.595 -1602.323)" fill="#8ed7f2"/>
      </g>
    </g>
  </g>
</svg>
