<svg xmlns="http://www.w3.org/2000/svg" width="690" height="245.299" viewBox="0 0 690 245.299">
  <g id="그룹_20370" data-name="그룹 20370" transform="translate(-60 -665)">
    <g id="그룹_20207" data-name="그룹 20207" transform="translate(60 695)">
      <path id="패스_5902" data-name="패스 5902" d="M1887.637,611.2a3.678,3.678,0,0,0-3.68,3.666,1.714,1.714,0,1,1-3.429-.007,3.673,3.673,0,0,0-7.346-.014h0a1.715,1.715,0,0,1-3.429-.007,3.673,3.673,0,1,0-7.346-.014l1.959,0a1.714,1.714,0,1,1,3.429.007,3.673,3.673,0,0,0,7.346.015h0a1.714,1.714,0,0,1,3.429.007,3.673,3.673,0,0,0,7.346.014,1.714,1.714,0,1,1,3.429.006l1.958,0A3.677,3.677,0,0,0,1887.637,611.2Z" transform="translate(-1789.199 -581.6)" fill="#fff"/>
      <g id="그룹_5511" data-name="그룹 5511" transform="translate(52.058 11.347)">
        <path id="패스_5903" data-name="패스 5903" d="M1766.07,532.1a3.913,3.913,0,1,1,3.905,3.92A3.917,3.917,0,0,1,1766.07,532.1Zm6.9.013a2.992,2.992,0,1,0-3,2.986A3,3,0,0,0,1772.975,532.108Z" transform="translate(-1766.07 -528.19)" fill="#fff"/>
        <path id="패스_5904" data-name="패스 5904" d="M1785.291,532.131a3.913,3.913,0,1,1,3.905,3.92A3.917,3.917,0,0,1,1785.291,532.131Zm6.9.013a2.992,2.992,0,1,0-3,2.987A3,3,0,0,0,1792.2,532.144Z" transform="translate(-1781.071 -528.218)" fill="#fff"/>
        <path id="패스_5905" data-name="패스 5905" d="M1804.509,532.168a3.913,3.913,0,1,1,3.905,3.92A3.917,3.917,0,0,1,1804.509,532.168Zm6.905.013a2.992,2.992,0,1,0-3,2.987A3,3,0,0,0,1811.414,532.181Z" transform="translate(-1796.07 -528.247)" fill="#fff"/>
        <path id="패스_5906" data-name="패스 5906" d="M1823.728,532.2a3.913,3.913,0,1,1,3.906,3.92A3.917,3.917,0,0,1,1823.728,532.2Zm6.905.013a2.992,2.992,0,1,0-3,2.987A3,3,0,0,0,1830.633,532.217Z" transform="translate(-1811.07 -528.275)" fill="#fff"/>
      </g>
      <path id="패스_5907" data-name="패스 5907" d="M2095.146,476.5l10.38,6.018-10.4,5.98Z" transform="translate(-1970.826 -476.503)" fill="#fff"/>
      <g id="그룹_5512" data-name="그룹 5512" transform="translate(0 23.366)">
        <path id="패스_5908" data-name="패스 5908" d="M1550.2,582.938l-21.254,5.785,3.107,8.885Z" transform="translate(-1528.943 -582.938)" fill="#fff"/>
        <path id="패스_5909" data-name="패스 5909" d="M1561.244,582.938,1551,601.6l-7.907-3.993Z" transform="translate(-1539.99 -582.938)" fill="#52c7f2"/>
      </g>
    </g>
    <g id="그룹_20206" data-name="그룹 20206" transform="translate(110 851)">
      <g id="그룹_5519" data-name="그룹 5519" transform="translate(45.866 0)">
        <path id="패스_5927" data-name="패스 5927" d="M1806.459,1577.755a1.214,1.214,0,1,1,1.216-1.212A1.214,1.214,0,0,1,1806.459,1577.755Z" transform="translate(-1805.233 -1575.328)" fill="#fff"/>
        <path id="패스_5928" data-name="패스 5928" d="M1806.427,1594.851a1.214,1.214,0,1,1,1.216-1.211A1.214,1.214,0,0,1,1806.427,1594.851Z" transform="translate(-1805.208 -1588.67)" fill="#fff"/>
        <path id="패스_5929" data-name="패스 5929" d="M1806.395,1611.947a1.214,1.214,0,1,1,1.216-1.211A1.214,1.214,0,0,1,1806.395,1611.947Z" transform="translate(-1805.183 -1602.013)" fill="#fff"/>
      </g>
      <g id="그룹_5520" data-name="그룹 5520" transform="translate(76.174 51.837)">
        <rect id="사각형_2552" data-name="사각형 2552" width="0.921" height="1.237" transform="translate(5.552 3.889) rotate(-89.892)" fill="#fff"/>
        <rect id="사각형_2553" data-name="사각형 2553" width="0.921" height="1.237" transform="translate(4.572 5.269) rotate(-44.891)" fill="#fff"/>
        <rect id="사각형_2554" data-name="사각형 2554" width="1.237" height="0.921" transform="translate(2.901 6.79) rotate(-89.892)" fill="#fff"/>
        <rect id="사각형_2555" data-name="사각형 2555" width="1.237" height="0.92" transform="translate(0.646 5.446) rotate(-44.893)" fill="#fff"/>
        <rect id="사각형_2556" data-name="사각형 2556" width="0.921" height="1.237" transform="translate(0 3.821) rotate(-89.892)" fill="#fff"/>
        <rect id="사각형_2557" data-name="사각형 2557" width="0.921" height="1.237" transform="matrix(0.709, -0.706, 0.706, 0.709, 0.694, 1.296)" fill="#fff"/>
        <rect id="사각형_2558" data-name="사각형 2558" width="1.237" height="0.921" transform="translate(2.968 1.237) rotate(-89.892)" fill="#fff"/>
        <rect id="사각형_2559" data-name="사각형 2559" width="1.237" height="0.92" transform="matrix(0.708, -0.706, 0.706, 0.708, 4.619, 1.568)" fill="#fff"/>
      </g>
      <g id="그룹_5521" data-name="그룹 5521" transform="translate(172.344 31.661)">
        <rect id="사각형_2560" data-name="사각형 2560" width="0.921" height="1.237" transform="translate(5.552 3.889) rotate(-89.892)" fill="#fff"/>
        <rect id="사각형_2561" data-name="사각형 2561" width="0.921" height="1.237" transform="translate(4.572 5.269) rotate(-44.891)" fill="#fff"/>
        <rect id="사각형_2562" data-name="사각형 2562" width="1.237" height="0.921" transform="translate(2.901 6.79) rotate(-89.892)" fill="#fff"/>
        <rect id="사각형_2563" data-name="사각형 2563" width="1.237" height="0.921" transform="translate(0.646 5.446) rotate(-44.893)" fill="#fff"/>
        <rect id="사각형_2564" data-name="사각형 2564" width="0.921" height="1.237" transform="translate(0 3.821) rotate(-89.892)" fill="#fff"/>
        <rect id="사각형_2565" data-name="사각형 2565" width="0.921" height="1.237" transform="matrix(0.708, -0.706, 0.706, 0.708, 0.694, 1.296)" fill="#fff"/>
        <rect id="사각형_2566" data-name="사각형 2566" width="1.237" height="0.921" transform="translate(2.968 1.237) rotate(-89.892)" fill="#fff"/>
        <rect id="사각형_2567" data-name="사각형 2567" width="1.237" height="0.921" transform="matrix(0.708, -0.706, 0.706, 0.708, 4.619, 1.567)" fill="#fff"/>
      </g>
      <g id="그룹_5522" data-name="그룹 5522" transform="translate(29.717 28.511)">
        <path id="패스_5930" data-name="패스 5930" d="M1761.411,1706.708a.727.727,0,1,1,.729-.726A.727.727,0,0,1,1761.411,1706.708Z" transform="translate(-1754.305 -1705.241)" fill="#fff"/>
        <path id="패스_5931" data-name="패스 5931" d="M1761.38,1723.117a.727.727,0,1,1,.729-.726A.727.727,0,0,1,1761.38,1723.117Z" transform="translate(-1754.281 -1718.048)" fill="#fff"/>
        <path id="패스_5932" data-name="패스 5932" d="M1761.349,1739.527a.727.727,0,1,1,.729-.726A.728.728,0,0,1,1761.349,1739.527Z" transform="translate(-1754.256 -1730.855)" fill="#fff"/>
        <path id="패스_5933" data-name="패스 5933" d="M1746.909,1706.68a.727.727,0,1,1,.729-.726A.727.727,0,0,1,1746.909,1706.68Z" transform="translate(-1742.987 -1705.219)" fill="#fff"/>
        <path id="패스_5934" data-name="패스 5934" d="M1746.878,1723.089a.727.727,0,1,1,.729-.726A.727.727,0,0,1,1746.878,1723.089Z" transform="translate(-1742.962 -1718.026)" fill="#fff"/>
        <path id="패스_5935" data-name="패스 5935" d="M1746.847,1739.5a.727.727,0,1,1,.729-.726A.728.728,0,0,1,1746.847,1739.5Z" transform="translate(-1742.938 -1730.834)" fill="#fff"/>
        <path id="패스_5936" data-name="패스 5936" d="M1732.411,1706.653a.727.727,0,1,1,.729-.726A.727.727,0,0,1,1732.411,1706.653Z" transform="translate(-1731.671 -1705.198)" fill="#fff"/>
        <ellipse id="타원_36" data-name="타원 36" cx="0.727" cy="0.727" rx="0.727" ry="0.727" transform="translate(0.005 5.056) rotate(-89.892)" fill="#fff"/>
        <path id="패스_5937" data-name="패스 5937" d="M1732.349,1739.471a.727.727,0,1,1,.728-.726A.727.727,0,0,1,1732.349,1739.471Z" transform="translate(-1731.623 -1730.812)" fill="#fff"/>
      </g>
      <path id="패스_5938" data-name="패스 5938" d="M1606.642,1612.613l-10.379-6.019,10.4-5.98Z" transform="translate(-1596.262 -1595.063)" fill="#fff"/>
      <g id="그룹_5523" data-name="그룹 5523" transform="translate(105.518 38.512)">
        <path id="패스_5939" data-name="패스 5939" d="M2076.9,1783.609l21.254-5.785-3.107-8.886Z" transform="translate(-2076.904 -1764.945)" fill="#ffc9ce"/>
        <path id="패스_5940" data-name="패스 5940" d="M2076.9,1769.415l10.239-18.664,7.907,3.993Z" transform="translate(-2076.904 -1750.751)" fill="#fff"/>
      </g>
      <g id="그룹_5524" data-name="그룹 5524" transform="translate(218.933 46.733)">
        <rect id="사각형_2568" data-name="사각형 2568" width="1.841" height="6.444" transform="translate(0 4.138) rotate(-89.89)" fill="#fff"/>
        <rect id="사각형_2569" data-name="사각형 2569" width="6.444" height="1.841" transform="translate(2.298 6.444) rotate(-89.892)" fill="#fff"/>
      </g>
    </g>
    <g id="그룹_20204" data-name="그룹 20204" transform="translate(500.301 665)">
      <g id="그룹_5509" data-name="그룹 5509" transform="translate(0 0)">
        <g id="그룹_5502" data-name="그룹 5502" transform="translate(217.115 89.707)">
          <path id="패스_5884" data-name="패스 5884" d="M3618.449,867.984a1.214,1.214,0,1,1,1.216-1.212A1.214,1.214,0,0,1,3618.449,867.984Z" transform="translate(-3617.224 -865.557)" fill="#fff"/>
          <path id="패스_5885" data-name="패스 5885" d="M3618.417,885.08a1.214,1.214,0,1,1,1.216-1.211A1.213,1.213,0,0,1,3618.417,885.08Z" transform="translate(-3617.199 -878.899)" fill="#fff"/>
          <path id="패스_5886" data-name="패스 5886" d="M3618.385,902.176a1.214,1.214,0,1,1,1.216-1.211A1.214,1.214,0,0,1,3618.385,902.176Z" transform="translate(-3617.174 -892.242)" fill="#fff"/>
        </g>
        <g id="그룹_5503" data-name="그룹 5503" transform="translate(94.413 34.286)">
          <rect id="사각형_2532" data-name="사각형 2532" width="0.921" height="1.237" transform="translate(5.552 3.889) rotate(-89.892)" fill="#fff"/>
          <rect id="사각형_2533" data-name="사각형 2533" width="0.921" height="1.237" transform="matrix(0.709, -0.706, 0.706, 0.709, 4.572, 5.269)" fill="#fff"/>
          <rect id="사각형_2534" data-name="사각형 2534" width="1.237" height="0.921" transform="translate(2.901 6.79) rotate(-89.892)" fill="#fff"/>
          <rect id="사각형_2535" data-name="사각형 2535" width="1.237" height="0.92" transform="matrix(0.708, -0.706, 0.706, 0.708, 0.646, 5.446)" fill="#fff"/>
          <rect id="사각형_2536" data-name="사각형 2536" width="0.921" height="1.237" transform="translate(0 3.821) rotate(-89.892)" fill="#fff"/>
          <rect id="사각형_2537" data-name="사각형 2537" width="0.921" height="1.237" transform="translate(0.694 1.296) rotate(-44.892)" fill="#fff"/>
          <rect id="사각형_2538" data-name="사각형 2538" width="1.237" height="0.921" transform="translate(2.968 1.237) rotate(-89.892)" fill="#fff"/>
          <rect id="사각형_2539" data-name="사각형 2539" width="1.237" height="0.92" transform="translate(4.619 1.568) rotate(-44.892)" fill="#fff"/>
        </g>
        <g id="그룹_5504" data-name="그룹 5504" transform="translate(0 0)">
          <path id="패스_5887" data-name="패스 5887" d="M2628.2,460.843a3.913,3.913,0,1,1,3.905,3.92A3.917,3.917,0,0,1,2628.2,460.843Zm6.9.013a2.992,2.992,0,1,0-3,2.987A3,3,0,0,0,2635.108,460.856Z" transform="translate(-2628.203 -456.938)" fill="#fff"/>
          <path id="패스_5888" data-name="패스 5888" d="M2647.424,460.879a3.913,3.913,0,1,1,3.905,3.92A3.917,3.917,0,0,1,2647.424,460.879Zm6.9.013a2.992,2.992,0,1,0-3,2.987A3,3,0,0,0,2654.329,460.892Z" transform="translate(-2643.205 -456.966)" fill="#fff"/>
          <path id="패스_5889" data-name="패스 5889" d="M2666.643,460.915a3.913,3.913,0,1,1,3.906,3.92A3.917,3.917,0,0,1,2666.643,460.915Zm6.905.013a2.992,2.992,0,1,0-3,2.987A3,3,0,0,0,2673.548,460.928Z" transform="translate(-2658.204 -456.994)" fill="#fff"/>
          <path id="패스_5890" data-name="패스 5890" d="M2685.864,460.951a3.913,3.913,0,1,1,3.905,3.92A3.917,3.917,0,0,1,2685.864,460.951Zm6.9.013a2.992,2.992,0,1,0-3,2.987A3,3,0,0,0,2692.769,460.964Z" transform="translate(-2673.205 -457.022)" fill="#fff"/>
        </g>
        <g id="그룹_5505" data-name="그룹 5505" transform="translate(177.379 44.182)">
          <path id="패스_5891" data-name="패스 5891" d="M3465.962,659.7a.727.727,0,1,1,.729-.726A.727.727,0,0,1,3465.962,659.7Z" transform="translate(-3458.855 -658.23)" fill="#fff"/>
          <path id="패스_5892" data-name="패스 5892" d="M3465.931,676.107a.727.727,0,1,1,.729-.726A.727.727,0,0,1,3465.931,676.107Z" transform="translate(-3458.832 -671.038)" fill="#fff"/>
          <path id="패스_5893" data-name="패스 5893" d="M3465.9,692.517a.727.727,0,1,1,.729-.726A.727.727,0,0,1,3465.9,692.517Z" transform="translate(-3458.807 -683.845)" fill="#fff"/>
          <path id="패스_5894" data-name="패스 5894" d="M3451.461,659.67a.727.727,0,1,1,.729-.726A.727.727,0,0,1,3451.461,659.67Z" transform="translate(-3447.539 -658.209)" fill="#fff"/>
          <path id="패스_5895" data-name="패스 5895" d="M3451.43,676.079a.727.727,0,1,1,.729-.726A.727.727,0,0,1,3451.43,676.079Z" transform="translate(-3447.514 -671.016)" fill="#fff"/>
          <path id="패스_5896" data-name="패스 5896" d="M3451.4,692.489a.727.727,0,1,1,.729-.726A.727.727,0,0,1,3451.4,692.489Z" transform="translate(-3447.49 -683.823)" fill="#fff"/>
          <path id="패스_5897" data-name="패스 5897" d="M3436.961,659.643a.727.727,0,1,1,.729-.726A.728.728,0,0,1,3436.961,659.643Z" transform="translate(-3436.221 -658.188)" fill="#fff"/>
          <path id="패스_5898" data-name="패스 5898" d="M3436.93,676.052a.727.727,0,1,1,.729-.726A.727.727,0,0,1,3436.93,676.052Z" transform="translate(-3436.197 -670.995)" fill="#fff"/>
          <path id="패스_5899" data-name="패스 5899" d="M3436.9,692.462a.727.727,0,1,1,.729-.726A.726.726,0,0,1,3436.9,692.462Z" transform="translate(-3436.173 -683.802)" fill="#fff"/>
        </g>
        <g id="그룹_5506" data-name="그룹 5506" transform="translate(30.477 16.002)">
          <path id="패스_5900" data-name="패스 5900" d="M2767.028,562.687l21.254-5.785-3.108-8.886Z" transform="translate(-2767.028 -544.023)" fill="#ff96a0"/>
          <path id="패스_5901" data-name="패스 5901" d="M2767.028,548.492l10.24-18.664,7.907,3.993Z" transform="translate(-2767.028 -529.828)" fill="#fff"/>
        </g>
        <g id="그룹_5507" data-name="그룹 5507" transform="translate(192.869 11.914)">
          <rect id="사각형_2540" data-name="사각형 2540" width="6.444" height="1.841" transform="matrix(0.708, -0.706, 0.706, 0.708, 0, 4.554)" fill="#fff"/>
          <rect id="사각형_2541" data-name="사각형 2541" width="1.841" height="6.445" transform="matrix(0.708, -0.706, 0.706, 0.708, 0.006, 1.299)" fill="#fff"/>
        </g>
        <g id="그룹_5508" data-name="그룹 5508" transform="translate(48.197 77.177)">
          <rect id="사각형_2542" data-name="사각형 2542" width="1.841" height="6.444" transform="translate(0 4.138) rotate(-89.89)" fill="#fff"/>
          <rect id="사각형_2543" data-name="사각형 2543" width="6.444" height="1.841" transform="translate(2.297 6.444) rotate(-89.892)" fill="#fff"/>
        </g>
      </g>
    </g>
    <g id="그룹_20205" data-name="그룹 20205" transform="translate(607.301 811)">
      <path id="패스_5910" data-name="패스 5910" d="M3264.668,1841.726a3.677,3.677,0,0,0-3.68,3.666,1.714,1.714,0,0,1-3.429-.007,3.673,3.673,0,0,0-7.346-.015h0a1.715,1.715,0,0,1-3.429-.006,3.673,3.673,0,1,0-7.346-.014l1.959,0a1.714,1.714,0,1,1,3.429.006,3.673,3.673,0,0,0,7.346.015h0a1.715,1.715,0,0,1,3.429.006,3.673,3.673,0,1,0,7.346.014,1.714,1.714,0,1,1,3.429.006l1.958,0A3.677,3.677,0,0,0,3264.668,1841.726Z" transform="translate(-3181.391 -1749.763)" fill="#fff"/>
      <g id="그룹_5514" data-name="그룹 5514" transform="translate(0 31.721)">
        <rect id="사각형_2544" data-name="사각형 2544" width="0.921" height="1.237" transform="translate(5.552 3.89) rotate(-89.892)" fill="#fff"/>
        <rect id="사각형_2545" data-name="사각형 2545" width="0.921" height="1.237" transform="matrix(0.708, -0.706, 0.706, 0.708, 4.572, 5.269)" fill="#fff"/>
        <rect id="사각형_2546" data-name="사각형 2546" width="1.236" height="0.921" transform="translate(2.901 6.79) rotate(-89.892)" fill="#fff"/>
        <rect id="사각형_2547" data-name="사각형 2547" width="1.236" height="0.92" transform="matrix(0.709, -0.705, 0.705, 0.709, 0.646, 5.446)" fill="#fff"/>
        <rect id="사각형_2548" data-name="사각형 2548" width="0.921" height="1.237" transform="translate(0 3.822) rotate(-89.892)" fill="#fff"/>
        <rect id="사각형_2549" data-name="사각형 2549" width="0.921" height="1.237" transform="matrix(0.708, -0.706, 0.706, 0.708, 0.694, 1.296)" fill="#fff"/>
        <rect id="사각형_2550" data-name="사각형 2550" width="1.238" height="0.921" transform="translate(2.968 1.238) rotate(-89.892)" fill="#fff"/>
        <rect id="사각형_2551" data-name="사각형 2551" width="1.237" height="0.921" transform="matrix(0.708, -0.706, 0.706, 0.708, 4.619, 1.568)" fill="#fff"/>
      </g>
      <g id="그룹_5515" data-name="그룹 5515" transform="translate(122.095 61.584)">
        <path id="패스_5911" data-name="패스 5911" d="M3531.185,1707.4a3.913,3.913,0,1,1,3.905,3.92A3.917,3.917,0,0,1,3531.185,1707.4Zm6.9.013a2.992,2.992,0,1,0-3,2.986A3,3,0,0,0,3538.09,1707.417Z" transform="translate(-3531.185 -1703.499)" fill="#fff"/>
        <path id="패스_5912" data-name="패스 5912" d="M3550.405,1707.44a3.913,3.913,0,1,1,3.906,3.92A3.917,3.917,0,0,1,3550.405,1707.44Zm6.9.013a2.992,2.992,0,1,0-3,2.986A3,3,0,0,0,3557.31,1707.453Z" transform="translate(-3546.186 -1703.527)" fill="#fff"/>
        <path id="패스_5913" data-name="패스 5913" d="M3569.626,1707.476a3.913,3.913,0,1,1,3.905,3.92A3.918,3.918,0,0,1,3569.626,1707.476Zm6.9.013a2.992,2.992,0,1,0-3,2.986A3,3,0,0,0,3576.531,1707.489Z" transform="translate(-3561.187 -1703.555)" fill="#fff"/>
        <path id="패스_5914" data-name="패스 5914" d="M3588.845,1707.513a3.913,3.913,0,1,1,3.905,3.92A3.917,3.917,0,0,1,3588.845,1707.513Zm6.9.013a2.992,2.992,0,1,0-3,2.987A3,3,0,0,0,3595.75,1707.526Z" transform="translate(-3576.187 -1703.584)" fill="#fff"/>
      </g>
      <g id="그룹_5516" data-name="그룹 5516" transform="translate(134.864 0)">
        <path id="패스_5915" data-name="패스 5915" d="M3619.135,1424.491a.727.727,0,1,1,.729-.726A.727.727,0,0,1,3619.135,1424.491Z" transform="translate(-3612.029 -1423.024)" fill="#fff"/>
        <path id="패스_5916" data-name="패스 5916" d="M3619.1,1440.9a.727.727,0,1,1,.729-.726A.727.727,0,0,1,3619.1,1440.9Z" transform="translate(-3612.004 -1435.831)" fill="#fff"/>
        <path id="패스_5917" data-name="패스 5917" d="M3619.074,1457.311a.727.727,0,1,1,.729-.726A.727.727,0,0,1,3619.074,1457.311Z" transform="translate(-3611.981 -1448.639)" fill="#fff"/>
        <path id="패스_5918" data-name="패스 5918" d="M3604.633,1424.463a.727.727,0,1,1,.729-.726A.727.727,0,0,1,3604.633,1424.463Z" transform="translate(-3600.71 -1423.002)" fill="#fff"/>
        <path id="패스_5919" data-name="패스 5919" d="M3604.6,1440.874a.727.727,0,1,1,.729-.726A.727.727,0,0,1,3604.6,1440.874Z" transform="translate(-3600.687 -1435.81)" fill="#fff"/>
        <path id="패스_5920" data-name="패스 5920" d="M3604.572,1457.284a.727.727,0,1,1,.729-.726A.727.727,0,0,1,3604.572,1457.284Z" transform="translate(-3600.663 -1448.618)" fill="#fff"/>
        <path id="패스_5921" data-name="패스 5921" d="M3590.134,1424.436a.727.727,0,1,1,.729-.726A.728.728,0,0,1,3590.134,1424.436Z" transform="translate(-3589.394 -1422.981)" fill="#fff"/>
        <path id="패스_5922" data-name="패스 5922" d="M3590.1,1440.846a.727.727,0,1,1,.728-.726A.727.727,0,0,1,3590.1,1440.846Z" transform="translate(-3589.37 -1435.788)" fill="#fff"/>
        <path id="패스_5923" data-name="패스 5923" d="M3590.072,1457.256a.727.727,0,1,1,.729-.726A.727.727,0,0,1,3590.072,1457.256Z" transform="translate(-3589.346 -1448.596)" fill="#fff"/>
      </g>
      <path id="패스_5924" data-name="패스 5924" d="M3042.8,1768.469l-10.38-6.019,10.4-5.98Z" transform="translate(-3019.824 -1683.257)" fill="#fff"/>
      <g id="그룹_5517" data-name="그룹 5517" transform="translate(96.596 39.372)">
        <path id="패스_5925" data-name="패스 5925" d="M3436.29,1602.323l-21.254,5.785,3.108,8.886Z" transform="translate(-3415.035 -1602.323)" fill="#fff"/>
        <path id="패스_5926" data-name="패스 5926" d="M3447.338,1602.323l-10.24,18.664-7.907-3.993Z" transform="translate(-3426.084 -1602.323)" fill="#8ed7f2"/>
      </g>
    </g>
  </g>
</svg>
