<svg xmlns="http://www.w3.org/2000/svg" width="1380" height="267.76" viewBox="0 0 1380 267.76">
  <g id="그룹_19206" data-name="그룹 19206" transform="translate(-200 -805)">
    <g id="그룹_5510" data-name="그룹 5510" transform="translate(1136 805)">
      <g id="그룹_5509" data-name="그룹 5509" transform="translate(0 0)">
        <g id="그룹_5502" data-name="그룹 5502" transform="translate(323.076 133.487)">
          <path id="패스_5884" data-name="패스 5884" d="M3619.041,869.169a1.806,1.806,0,1,1,1.81-1.8A1.806,1.806,0,0,1,3619.041,869.169Z" transform="translate(-3617.218 -865.557)" fill="#fff"/>
          <path id="패스_5885" data-name="패스 5885" d="M3619.008,886.264a1.806,1.806,0,1,1,1.81-1.8A1.805,1.805,0,0,1,3619.008,886.264Z" transform="translate(-3617.196 -877.067)" fill="#fff"/>
          <path id="패스_5886" data-name="패스 5886" d="M3618.977,903.361a1.807,1.807,0,1,1,1.81-1.8A1.806,1.806,0,0,1,3618.977,903.361Z" transform="translate(-3617.174 -888.578)" fill="#fff"/>
        </g>
        <g id="그룹_5503" data-name="그룹 5503" transform="translate(140.489 51.018)">
          <rect id="사각형_2532" data-name="사각형 2532" width="1.37" height="1.841" transform="translate(8.262 5.787) rotate(-89.892)" fill="#fff"/>
          <rect id="사각형_2533" data-name="사각형 2533" width="1.37" height="1.841" transform="matrix(0.709, -0.706, 0.706, 0.709, 6.804, 7.84)" fill="#fff"/>
          <rect id="사각형_2534" data-name="사각형 2534" width="1.841" height="1.37" transform="translate(4.316 10.103) rotate(-89.892)" fill="#fff"/>
          <rect id="사각형_2535" data-name="사각형 2535" width="1.841" height="1.37" transform="matrix(0.708, -0.706, 0.706, 0.708, 0.961, 8.104)" fill="#fff"/>
          <rect id="사각형_2536" data-name="사각형 2536" width="1.37" height="1.841" transform="translate(0 5.686) rotate(-89.892)" fill="#fff"/>
          <rect id="사각형_2537" data-name="사각형 2537" width="1.37" height="1.841" transform="translate(1.032 1.928) rotate(-44.892)" fill="#fff"/>
          <rect id="사각형_2538" data-name="사각형 2538" width="1.841" height="1.37" transform="translate(4.416 1.841) rotate(-89.892)" fill="#fff"/>
          <rect id="사각형_2539" data-name="사각형 2539" width="1.841" height="1.37" transform="translate(6.873 2.333) rotate(-44.892)" fill="#fff"/>
        </g>
        <g id="그룹_5504" data-name="그룹 5504" transform="translate(0 0)">
          <path id="패스_5887" data-name="패스 5887" d="M2628.2,462.749a5.822,5.822,0,1,1,5.811,5.833A5.829,5.829,0,0,1,2628.2,462.749Zm10.275.019a4.452,4.452,0,1,0-4.461,4.444A4.458,4.458,0,0,0,2638.478,462.768Z" transform="translate(-2628.203 -456.938)" fill="#fff"/>
          <path id="패스_5888" data-name="패스 5888" d="M2647.424,462.785a5.823,5.823,0,1,1,5.811,5.833A5.829,5.829,0,0,1,2647.424,462.785Zm10.274.019a4.452,4.452,0,1,0-4.46,4.444A4.457,4.457,0,0,0,2657.7,462.8Z" transform="translate(-2641.145 -456.962)" fill="#fff"/>
          <path id="패스_5889" data-name="패스 5889" d="M2666.643,462.821a5.822,5.822,0,1,1,5.812,5.833A5.829,5.829,0,0,1,2666.643,462.821Zm10.275.019a4.453,4.453,0,1,0-4.461,4.444A4.457,4.457,0,0,0,2676.918,462.841Z" transform="translate(-2654.085 -456.986)" fill="#fff"/>
          <path id="패스_5890" data-name="패스 5890" d="M2685.864,462.857a5.822,5.822,0,1,1,5.811,5.833A5.829,5.829,0,0,1,2685.864,462.857Zm10.274.019a4.452,4.452,0,1,0-4.46,4.444A4.457,4.457,0,0,0,2696.138,462.877Z" transform="translate(-2667.027 -457.011)" fill="#fff"/>
        </g>
        <g id="그룹_5505" data-name="그룹 5505" transform="translate(263.947 65.744)">
          <path id="패스_5891" data-name="패스 5891" d="M3466.317,660.407a1.082,1.082,0,1,1,1.084-1.08A1.082,1.082,0,0,1,3466.317,660.407Z" transform="translate(-3455.741 -658.224)" fill="#fff"/>
          <path id="패스_5892" data-name="패스 5892" d="M3466.286,676.817a1.082,1.082,0,1,1,1.084-1.081A1.082,1.082,0,0,1,3466.286,676.817Z" transform="translate(-3455.721 -669.274)" fill="#fff"/>
          <path id="패스_5893" data-name="패스 5893" d="M3466.255,693.227a1.082,1.082,0,1,1,1.084-1.08A1.082,1.082,0,0,1,3466.255,693.227Z" transform="translate(-3455.7 -680.323)" fill="#fff"/>
          <path id="패스_5894" data-name="패스 5894" d="M3451.815,660.38a1.082,1.082,0,1,1,1.085-1.081A1.081,1.081,0,0,1,3451.815,660.38Z" transform="translate(-3445.978 -658.206)" fill="#fff"/>
          <path id="패스_5895" data-name="패스 5895" d="M3451.784,676.789a1.082,1.082,0,1,1,1.085-1.08A1.081,1.081,0,0,1,3451.784,676.789Z" transform="translate(-3445.957 -669.255)" fill="#fff"/>
          <path id="패스_5896" data-name="패스 5896" d="M3451.753,693.2a1.082,1.082,0,1,1,1.085-1.08A1.082,1.082,0,0,1,3451.753,693.2Z" transform="translate(-3445.936 -680.304)" fill="#fff"/>
          <path id="패스_5897" data-name="패스 5897" d="M3437.315,660.353a1.082,1.082,0,1,1,1.084-1.081A1.083,1.083,0,0,1,3437.315,660.353Z" transform="translate(-3436.215 -658.188)" fill="#fff"/>
          <path id="패스_5898" data-name="패스 5898" d="M3437.285,676.762a1.082,1.082,0,1,1,1.084-1.08A1.082,1.082,0,0,1,3437.285,676.762Z" transform="translate(-3436.194 -669.237)" fill="#fff"/>
          <path id="패스_5899" data-name="패스 5899" d="M3437.254,693.172a1.082,1.082,0,1,1,1.084-1.08A1.082,1.082,0,0,1,3437.254,693.172Z" transform="translate(-3436.173 -680.286)" fill="#fff"/>
        </g>
        <g id="그룹_5506" data-name="그룹 5506" transform="translate(45.351 23.812)">
          <path id="패스_5900" data-name="패스 5900" d="M2767.028,569.847l31.627-8.608-4.625-13.223Z" transform="translate(-2767.028 -542.074)" fill="#ff96a0"/>
          <path id="패스_5901" data-name="패스 5901" d="M2767.028,557.6l15.237-27.773,11.766,5.941Z" transform="translate(-2767.028 -529.828)" fill="#fff"/>
        </g>
        <g id="그룹_5507" data-name="그룹 5507" transform="translate(286.996 17.729)">
          <rect id="사각형_2540" data-name="사각형 2540" width="9.589" height="2.739" transform="matrix(0.708, -0.706, 0.706, 0.708, 0, 6.777)" fill="#fff"/>
          <rect id="사각형_2541" data-name="사각형 2541" width="2.739" height="9.59" transform="matrix(0.708, -0.706, 0.706, 0.708, 0.009, 1.933)" fill="#fff"/>
        </g>
        <g id="그룹_5508" data-name="그룹 5508" transform="translate(71.719 114.842)">
          <rect id="사각형_2542" data-name="사각형 2542" width="2.74" height="9.589" transform="translate(0 6.158) rotate(-89.89)" fill="#fff"/>
          <rect id="사각형_2543" data-name="사각형 2543" width="9.589" height="2.739" transform="translate(3.419 9.589) rotate(-89.892)" fill="#fff"/>
        </g>
      </g>
    </g>
    <g id="그룹_5513" data-name="그룹 5513" transform="translate(200 835)">
      <path id="패스_5902" data-name="패스 5902" d="M1899.951,611.225a5.472,5.472,0,0,0-5.476,5.456,2.551,2.551,0,1,1-5.1-.01,5.466,5.466,0,0,0-10.932-.022h0a2.552,2.552,0,0,1-5.1-.01,5.465,5.465,0,1,0-10.931-.021l2.915.006a2.551,2.551,0,1,1,5.1.01,5.466,5.466,0,0,0,10.932.022h0a2.551,2.551,0,0,1,5.1.01,5.466,5.466,0,1,0,10.932.021,2.551,2.551,0,0,1,5.1.01l2.914.006A5.471,5.471,0,0,0,1899.951,611.225Z" transform="translate(-1753.471 -567.172)" fill="#fff"/>
      <g id="그룹_5511" data-name="그룹 5511" transform="translate(77.464 16.885)">
        <path id="패스_5903" data-name="패스 5903" d="M1766.07,534a5.822,5.822,0,1,1,5.811,5.833A5.829,5.829,0,0,1,1766.07,534Zm10.274.019a4.452,4.452,0,1,0-4.46,4.444A4.458,4.458,0,0,0,1776.344,534.021Z" transform="translate(-1766.07 -528.19)" fill="#fff"/>
        <path id="패스_5904" data-name="패스 5904" d="M1785.291,534.037a5.822,5.822,0,1,1,5.811,5.833A5.829,5.829,0,0,1,1785.291,534.037Zm10.274.019a4.452,4.452,0,1,0-4.461,4.444A4.457,4.457,0,0,0,1795.565,534.057Z" transform="translate(-1779.012 -528.214)" fill="#fff"/>
        <path id="패스_5905" data-name="패스 5905" d="M1804.509,534.074a5.823,5.823,0,1,1,5.811,5.833A5.829,5.829,0,0,1,1804.509,534.074Zm10.275.019a4.453,4.453,0,1,0-4.461,4.444A4.457,4.457,0,0,0,1814.784,534.093Z" transform="translate(-1791.952 -528.239)" fill="#fff"/>
        <path id="패스_5906" data-name="패스 5906" d="M1823.728,534.11a5.822,5.822,0,1,1,5.812,5.833A5.829,5.829,0,0,1,1823.728,534.11Zm10.275.019a4.452,4.452,0,1,0-4.46,4.444A4.458,4.458,0,0,0,1834,534.129Z" transform="translate(-1804.892 -528.263)" fill="#fff"/>
      </g>
      <path id="패스_5907" data-name="패스 5907" d="M2095.157,476.5l15.445,8.956-15.479,8.9Z" transform="translate(-1910.165 -476.503)" fill="#fff"/>
      <g id="그룹_5512" data-name="그룹 5512" transform="translate(0 34.77)">
        <path id="패스_5908" data-name="패스 5908" d="M1560.57,582.938l-31.627,8.609,4.624,13.222Z" transform="translate(-1528.943 -582.938)" fill="#fff"/>
        <path id="패스_5909" data-name="패스 5909" d="M1570.1,582.938l-15.237,27.773-11.766-5.942Z" transform="translate(-1538.473 -582.938)" fill="#52c7f2"/>
      </g>
    </g>
    <g id="그룹_5518" data-name="그룹 5518" transform="translate(1367.658 925)">
      <path id="패스_5910" data-name="패스 5910" d="M3276.982,1841.747a5.472,5.472,0,0,0-5.477,5.456,2.551,2.551,0,0,1-5.1-.01,5.466,5.466,0,0,0-10.932-.022h0a2.552,2.552,0,0,1-5.1-.009,5.465,5.465,0,1,0-10.931-.021l2.915.006a2.551,2.551,0,1,1,5.1.01,5.466,5.466,0,0,0,10.932.022h0a2.551,2.551,0,0,1,5.1.01,5.466,5.466,0,1,0,10.931.021,2.551,2.551,0,1,1,5.1.01l2.914.005A5.471,5.471,0,0,0,3276.982,1841.747Z" transform="translate(-3153.063 -1704.903)" fill="#fff"/>
      <g id="그룹_5514" data-name="그룹 5514" transform="translate(0 47.202)">
        <rect id="사각형_2544" data-name="사각형 2544" width="1.37" height="1.841" transform="translate(8.262 5.788) rotate(-89.892)" fill="#fff"/>
        <rect id="사각형_2545" data-name="사각형 2545" width="1.37" height="1.841" transform="matrix(0.708, -0.706, 0.706, 0.708, 6.803, 7.84)" fill="#fff"/>
        <rect id="사각형_2546" data-name="사각형 2546" width="1.84" height="1.37" transform="translate(4.316 10.103) rotate(-89.892)" fill="#fff"/>
        <rect id="사각형_2547" data-name="사각형 2547" width="1.84" height="1.37" transform="matrix(0.709, -0.705, 0.705, 0.709, 0.961, 8.103)" fill="#fff"/>
        <rect id="사각형_2548" data-name="사각형 2548" width="1.37" height="1.841" transform="translate(0 5.687) rotate(-89.892)" fill="#fff"/>
        <rect id="사각형_2549" data-name="사각형 2549" width="1.37" height="1.841" transform="matrix(0.708, -0.706, 0.706, 0.708, 1.032, 1.929)" fill="#fff"/>
        <rect id="사각형_2550" data-name="사각형 2550" width="1.842" height="1.37" transform="translate(4.416 1.842) rotate(-89.892)" fill="#fff"/>
        <rect id="사각형_2551" data-name="사각형 2551" width="1.841" height="1.37" transform="matrix(0.708, -0.706, 0.706, 0.708, 6.873, 2.333)" fill="#fff"/>
      </g>
      <g id="그룹_5515" data-name="그룹 5515" transform="translate(181.682 91.639)">
        <path id="패스_5911" data-name="패스 5911" d="M3531.185,1709.31a5.823,5.823,0,1,1,5.811,5.833A5.829,5.829,0,0,1,3531.185,1709.31Zm10.274.019a4.452,4.452,0,1,0-4.461,4.444A4.458,4.458,0,0,0,3541.459,1709.33Z" transform="translate(-3531.185 -1703.499)" fill="#fff"/>
        <path id="패스_5912" data-name="패스 5912" d="M3550.405,1709.346a5.823,5.823,0,1,1,5.812,5.833A5.829,5.829,0,0,1,3550.405,1709.346Zm10.275.019a4.452,4.452,0,1,0-4.46,4.444A4.457,4.457,0,0,0,3560.68,1709.366Z" transform="translate(-3544.126 -1703.523)" fill="#fff"/>
        <path id="패스_5913" data-name="패스 5913" d="M3569.626,1709.382a5.822,5.822,0,1,1,5.812,5.833A5.83,5.83,0,0,1,3569.626,1709.382Zm10.274.019a4.452,4.452,0,1,0-4.46,4.444A4.457,4.457,0,0,0,3579.9,1709.4Z" transform="translate(-3557.068 -1703.548)" fill="#fff"/>
        <path id="패스_5914" data-name="패스 5914" d="M3588.845,1709.419a5.822,5.822,0,1,1,5.811,5.833A5.829,5.829,0,0,1,3588.845,1709.419Zm10.274.019a4.452,4.452,0,1,0-4.461,4.444A4.457,4.457,0,0,0,3599.119,1709.438Z" transform="translate(-3570.009 -1703.573)" fill="#fff"/>
      </g>
      <g id="그룹_5516" data-name="그룹 5516" transform="translate(200.682 0)">
        <path id="패스_5915" data-name="패스 5915" d="M3619.489,1425.2a1.082,1.082,0,1,1,1.085-1.081A1.082,1.082,0,0,1,3619.489,1425.2Z" transform="translate(-3608.915 -1423.018)" fill="#fff"/>
        <path id="패스_5916" data-name="패스 5916" d="M3619.458,1441.611a1.082,1.082,0,1,1,1.084-1.08A1.082,1.082,0,0,1,3619.458,1441.611Z" transform="translate(-3608.894 -1434.067)" fill="#fff"/>
        <path id="패스_5917" data-name="패스 5917" d="M3619.428,1458.021a1.082,1.082,0,1,1,1.085-1.08A1.082,1.082,0,0,1,3619.428,1458.021Z" transform="translate(-3608.873 -1445.116)" fill="#fff"/>
        <path id="패스_5918" data-name="패스 5918" d="M3604.988,1425.173a1.082,1.082,0,1,1,1.084-1.08A1.082,1.082,0,0,1,3604.988,1425.173Z" transform="translate(-3599.15 -1422.999)" fill="#fff"/>
        <path id="패스_5919" data-name="패스 5919" d="M3604.957,1441.583a1.082,1.082,0,1,1,1.084-1.081A1.082,1.082,0,0,1,3604.957,1441.583Z" transform="translate(-3599.13 -1434.049)" fill="#fff"/>
        <path id="패스_5920" data-name="패스 5920" d="M3604.926,1457.994a1.082,1.082,0,1,1,1.085-1.081A1.082,1.082,0,0,1,3604.926,1457.994Z" transform="translate(-3599.109 -1445.098)" fill="#fff"/>
        <path id="패스_5921" data-name="패스 5921" d="M3590.488,1425.146a1.082,1.082,0,1,1,1.084-1.08A1.083,1.083,0,0,1,3590.488,1425.146Z" transform="translate(-3589.387 -1422.981)" fill="#fff"/>
        <path id="패스_5922" data-name="패스 5922" d="M3590.458,1441.556a1.082,1.082,0,1,1,1.084-1.081A1.082,1.082,0,0,1,3590.458,1441.556Z" transform="translate(-3589.367 -1434.03)" fill="#fff"/>
        <path id="패스_5923" data-name="패스 5923" d="M3590.427,1457.966a1.082,1.082,0,1,1,1.084-1.08A1.082,1.082,0,0,1,3590.427,1457.966Z" transform="translate(-3589.346 -1445.079)" fill="#fff"/>
      </g>
      <path id="패스_5924" data-name="패스 5924" d="M3047.869,1774.325l-15.446-8.956,15.479-8.9Z" transform="translate(-3013.675 -1647.527)" fill="#fff"/>
      <g id="그룹_5517" data-name="그룹 5517" transform="translate(143.739 58.587)">
        <path id="패스_5925" data-name="패스 5925" d="M3446.663,1602.323l-31.627,8.608,4.625,13.222Z" transform="translate(-3415.035 -1602.323)" fill="#fff"/>
        <path id="패스_5926" data-name="패스 5926" d="M3456.194,1602.323l-15.237,27.773-11.766-5.942Z" transform="translate(-3424.567 -1602.323)" fill="#8ed7f2"/>
      </g>
    </g>
    <g id="그룹_5525" data-name="그룹 5525" transform="translate(317 956)">
      <g id="그룹_5519" data-name="그룹 5519" transform="translate(68.25 0)">
        <path id="패스_5927" data-name="패스 5927" d="M1807.05,1578.94a1.806,1.806,0,1,1,1.809-1.8A1.807,1.807,0,0,1,1807.05,1578.94Z" transform="translate(-1805.226 -1575.328)" fill="#fff"/>
        <path id="패스_5928" data-name="패스 5928" d="M1807.018,1596.035a1.806,1.806,0,1,1,1.809-1.8A1.806,1.806,0,0,1,1807.018,1596.035Z" transform="translate(-1805.205 -1586.838)" fill="#fff"/>
        <path id="패스_5929" data-name="패스 5929" d="M1806.986,1613.132a1.807,1.807,0,1,1,1.809-1.8A1.807,1.807,0,0,1,1806.986,1613.132Z" transform="translate(-1805.183 -1598.349)" fill="#fff"/>
      </g>
      <g id="그룹_5520" data-name="그룹 5520" transform="translate(113.35 77.136)">
        <rect id="사각형_2552" data-name="사각형 2552" width="1.37" height="1.841" transform="translate(8.262 5.787) rotate(-89.892)" fill="#fff"/>
        <rect id="사각형_2553" data-name="사각형 2553" width="1.37" height="1.841" transform="translate(6.804 7.84) rotate(-44.891)" fill="#fff"/>
        <rect id="사각형_2554" data-name="사각형 2554" width="1.841" height="1.37" transform="translate(4.316 10.103) rotate(-89.892)" fill="#fff"/>
        <rect id="사각형_2555" data-name="사각형 2555" width="1.841" height="1.37" transform="translate(0.961 8.104) rotate(-44.893)" fill="#fff"/>
        <rect id="사각형_2556" data-name="사각형 2556" width="1.37" height="1.841" transform="translate(0 5.686) rotate(-89.892)" fill="#fff"/>
        <rect id="사각형_2557" data-name="사각형 2557" width="1.37" height="1.841" transform="matrix(0.709, -0.706, 0.706, 0.709, 1.033, 1.928)" fill="#fff"/>
        <rect id="사각형_2558" data-name="사각형 2558" width="1.841" height="1.37" transform="translate(4.416 1.841) rotate(-89.892)" fill="#fff"/>
        <rect id="사각형_2559" data-name="사각형 2559" width="1.841" height="1.37" transform="matrix(0.708, -0.706, 0.706, 0.708, 6.873, 2.333)" fill="#fff"/>
      </g>
      <g id="그룹_5521" data-name="그룹 5521" transform="translate(256.455 47.112)">
        <rect id="사각형_2560" data-name="사각형 2560" width="1.37" height="1.841" transform="translate(8.262 5.787) rotate(-89.892)" fill="#fff"/>
        <rect id="사각형_2561" data-name="사각형 2561" width="1.37" height="1.841" transform="translate(6.804 7.84) rotate(-44.891)" fill="#fff"/>
        <rect id="사각형_2562" data-name="사각형 2562" width="1.841" height="1.37" transform="translate(4.316 10.103) rotate(-89.892)" fill="#fff"/>
        <rect id="사각형_2563" data-name="사각형 2563" width="1.841" height="1.37" transform="translate(0.961 8.104) rotate(-44.893)" fill="#fff"/>
        <rect id="사각형_2564" data-name="사각형 2564" width="1.37" height="1.841" transform="translate(0 5.686) rotate(-89.892)" fill="#fff"/>
        <rect id="사각형_2565" data-name="사각형 2565" width="1.37" height="1.841" transform="matrix(0.708, -0.706, 0.706, 0.708, 1.033, 1.928)" fill="#fff"/>
        <rect id="사각형_2566" data-name="사각형 2566" width="1.841" height="1.371" transform="translate(4.416 1.841) rotate(-89.892)" fill="#fff"/>
        <rect id="사각형_2567" data-name="사각형 2567" width="1.841" height="1.37" transform="matrix(0.708, -0.706, 0.706, 0.708, 6.873, 2.332)" fill="#fff"/>
      </g>
      <g id="그룹_5522" data-name="그룹 5522" transform="translate(44.219 42.426)">
        <path id="패스_5930" data-name="패스 5930" d="M1761.766,1707.418a1.082,1.082,0,1,1,1.084-1.081A1.082,1.082,0,0,1,1761.766,1707.418Z" transform="translate(-1751.191 -1705.235)" fill="#fff"/>
        <path id="패스_5931" data-name="패스 5931" d="M1761.735,1723.827a1.082,1.082,0,1,1,1.084-1.081A1.083,1.083,0,0,1,1761.735,1723.827Z" transform="translate(-1751.17 -1716.284)" fill="#fff"/>
        <path id="패스_5932" data-name="패스 5932" d="M1761.7,1740.237a1.082,1.082,0,1,1,1.084-1.08A1.082,1.082,0,0,1,1761.7,1740.237Z" transform="translate(-1751.149 -1727.333)" fill="#fff"/>
        <path id="패스_5933" data-name="패스 5933" d="M1747.264,1707.39a1.082,1.082,0,1,1,1.084-1.08A1.082,1.082,0,0,1,1747.264,1707.39Z" transform="translate(-1741.427 -1705.216)" fill="#fff"/>
        <path id="패스_5934" data-name="패스 5934" d="M1747.233,1723.8a1.082,1.082,0,1,1,1.084-1.08A1.082,1.082,0,0,1,1747.233,1723.8Z" transform="translate(-1741.406 -1716.265)" fill="#fff"/>
        <path id="패스_5935" data-name="패스 5935" d="M1747.2,1740.21a1.082,1.082,0,1,1,1.084-1.081A1.083,1.083,0,0,1,1747.2,1740.21Z" transform="translate(-1741.385 -1727.314)" fill="#fff"/>
        <path id="패스_5936" data-name="패스 5936" d="M1732.765,1707.363a1.082,1.082,0,1,1,1.084-1.08A1.082,1.082,0,0,1,1732.765,1707.363Z" transform="translate(-1731.665 -1705.198)" fill="#fff"/>
        <ellipse id="타원_36" data-name="타원 36" cx="1.082" cy="1.082" rx="1.082" ry="1.082" transform="translate(0.008 7.523) rotate(-89.892)" fill="#fff"/>
        <path id="패스_5937" data-name="패스 5937" d="M1732.7,1740.181a1.082,1.082,0,1,1,1.084-1.08A1.082,1.082,0,0,1,1732.7,1740.181Z" transform="translate(-1731.623 -1727.296)" fill="#fff"/>
      </g>
      <path id="패스_5938" data-name="패스 5938" d="M1611.707,1618.469l-15.445-8.956,15.478-8.9Z" transform="translate(-1596.262 -1592.354)" fill="#fff"/>
      <g id="그룹_5523" data-name="그룹 5523" transform="translate(157.015 57.307)">
        <path id="패스_5939" data-name="패스 5939" d="M2076.9,1790.769l31.626-8.608-4.624-13.223Z" transform="translate(-2076.904 -1762.996)" fill="#ffc9ce"/>
        <path id="패스_5940" data-name="패스 5940" d="M2076.9,1778.523l15.236-27.772,11.766,5.941Z" transform="translate(-2076.904 -1750.751)" fill="#fff"/>
      </g>
      <g id="그룹_5524" data-name="그룹 5524" transform="translate(325.781 69.541)">
        <rect id="사각형_2568" data-name="사각형 2568" width="2.739" height="9.589" transform="translate(0 6.158) rotate(-89.89)" fill="#fff"/>
        <rect id="사각형_2569" data-name="사각형 2569" width="9.589" height="2.739" transform="translate(3.419 9.589) rotate(-89.892)" fill="#fff"/>
      </g>
    </g>
  </g>
</svg>
