<svg xmlns="http://www.w3.org/2000/svg" width="286.95" height="185.786" viewBox="0 0 286.95 185.786">
    <defs>
        <style>
            .cls-1{fill:#fece46;opacity:.251}
        </style>
    </defs>
    <g id="그룹_20932" data-name="그룹 20932" transform="translate(-311.525 -903)">
        <path id="패스_29931" data-name="패스 29931" class="cls-1" d="M30.853 84.193a4.56 4.56 0 0 1-6.453-6.449L46.546 55.6a5.084 5.084 0 0 1 7.309 0l17.972 17.973a5.472 5.472 0 0 1-7.739 7.739L48.911 66.135z" transform="translate(308.867 896.768)"/>
        <path id="패스_29932" data-name="패스 29932" d="M282.942 190.688a4.2 4.2 0 0 1-2.405-5.424l9.516-24.679a5.436 5.436 0 0 1 7.053-3.08 5.36 5.36 0 0 1 3.159 7.017l-7.744 20.084 23.885 9.209a4.561 4.561 0 0 1-3.281 8.51z" transform="translate(279.205 884.879)" style="opacity:.355;fill:#fece46"/>
        <path id="패스_29933" data-name="패스 29933" d="M281.883 81.514a4.677 4.677 0 0 1-6.565-.691l-18.942-23.4a4.676 4.676 0 0 1 .691-6.565L284.2 28.894a5.074 5.074 0 1 1 6.385 7.887l-21.3 17.24L281.334 68.9l21.822-17.665a5.074 5.074 0 0 1 6.385 7.888z" transform="translate(282.078 899.801)" style="opacity:.096;fill:#1e78f0"/>
        <path id="패스_29934" data-name="패스 29934" class="cls-1" d="M201 115.1a3.63 3.63 0 0 1-4.722 1.962l-18.715-8.038-1.669 3.884 19.7 8.46a3.617 3.617 0 0 1-2.854 6.644l-24.892-10.69a3.609 3.609 0 0 1-1.8-4.708l4.441-10.341a3.611 3.611 0 0 1 4.656-1.936l18.762 8.059 1.568-3.649-19-8.159a3.617 3.617 0 0 1 2.853-6.645l24.191 10.39a3.608 3.608 0 0 1 1.8 4.708z" transform="translate(292.41 892.658)"/>
        <path id="패스_29935" data-name="패스 29935" d="M1.821 191.893a3.521 3.521 0 0 1-1.391-4.77l10.9-19.867a3.52 3.52 0 0 1 4.77-1.391l22.858 12.54a3.521 3.521 0 0 1 1.391 4.771l-10.9 19.867a3.522 3.522 0 0 1-4.771 1.39zm8.442-3.848 13.126 7.2 7.127-12.992-13.125-7.2z" transform="translate(311.525 883.922)" style="opacity:.096;fill:#fece46"/>
        <path id="패스_29938" data-name="패스 29938" d="m155.4.983 7.016 4.034c4.511 2.593 4.947 9.012 2.282 13.648s-8.431 7.49-12.943 4.9l-7.016-4.033c-4.511-2.594-4.947-9.012-2.282-13.649s8.435-7.493 12.943-4.9m-6.713 14.727 4.384 2.521c2.13 1.224 4.829-.642 6.054-2.772s1.48-5.4-.651-6.626l-4.385-2.521c-2.13-1.224-4.829.642-6.052 2.772s-1.481 5.4.65 6.626" transform="translate(295.286 903)" style="opacity:.602;fill:#1e78f0"/>
        <path id="패스_29942" data-name="패스 29942" d="M155.2 149.428a4.415 4.415 0 0 1 3.882 7.93l-29.854 14.618a4.416 4.416 0 0 1-3.883-7.931zm8.866 19.256-22.83 11.178 2.94 6.005 23.85-11.677a4.415 4.415 0 0 1 3.882 7.93l-30.137 14.756a4.361 4.361 0 0 1-5.823-1.995l-6.8-13.88a4.308 4.308 0 0 1 2.023-5.766l29.118-14.257a4.29 4.29 0 0 1 3.773 7.7" transform="translate(297.35 879.047)" style="opacity:.397;fill:#1e78f0"/>
    </g>
</svg>
