<svg xmlns="http://www.w3.org/2000/svg" width="1440" height="550.001" viewBox="0 0 1440 550.001">
  <g id="그룹_19207" data-name="그룹 19207" transform="translate(-200 -120)">
    <g id="그룹_5599" data-name="그룹 5599" transform="translate(1348.361 391.001)">
      <path id="패스_6147" data-name="패스 6147" d="M63.2,305.4a3.039,3.039,0,0,1-2.145-5.184L297.236,64.031a3.039,3.039,0,0,1,4.3,4.3L65.345,304.511A3,3,0,0,1,63.2,305.4Z" transform="translate(-60.162 -37.868)" fill="#fece46"/>
      <path id="패스_6148" data-name="패스 6148" d="M84.332,199.189a3.032,3.032,0,0,1-2.145-5.177L207.554,68.653a3.028,3.028,0,0,1,4.283,4.283L86.477,198.3A3.031,3.031,0,0,1,84.332,199.189Z" transform="translate(78.916 -7.457)" fill="#3d1c60"/>
      <path id="패스_6149" data-name="패스 6149" d="M68.457,181.026a3.032,3.032,0,0,1-2.145-5.177l92-91.994a3.028,3.028,0,0,1,4.283,4.282l-92,92A3.013,3.013,0,0,1,68.457,181.026Z" transform="translate(-25.535 92.568)" fill="#3d1c60"/>
      <path id="패스_6150" data-name="패스 6150" d="M82.132,191.963a3.032,3.032,0,0,1-2.145-5.177l104.6-104.6a3.034,3.034,0,0,1,4.29,4.29l-104.6,104.6A3.03,3.03,0,0,1,82.132,191.963Z" transform="translate(64.441 81.631)" fill="#3d1c60"/>
      <path id="패스_6151" data-name="패스 6151" d="M80.932,131.779a3.032,3.032,0,0,1-2.145-5.177L144.7,60.7a3.028,3.028,0,0,1,4.283,4.283l-65.9,65.913A3.031,3.031,0,0,1,80.932,131.779Z" transform="translate(56.545 -59.804)" fill="#3d1c60"/>
    </g>
    <g id="그룹_5601" data-name="그룹 5601" transform="translate(317 458.347)">
      <path id="패스_6152" data-name="패스 6152" d="M23.828,98.73l6.261-6.261a3.036,3.036,0,0,0-4.29-4.3L19.53,94.433l-6.261-6.261a3.039,3.039,0,1,0-4.3,4.3l6.261,6.261L8.972,105a3.036,3.036,0,1,0,4.3,4.29l6.261-6.261,6.268,6.261a3.034,3.034,0,0,0,4.29-4.29Z" transform="translate(-8.079 73.07)" fill="#fece46"/>
      <path id="패스_6153" data-name="패스 6153" d="M45.313,102.344l6.1-6.1a3.028,3.028,0,0,0-4.283-4.282l-6.1,6.1-6.1-6.1a3.031,3.031,0,0,0-4.29,4.282l6.1,6.1-6.1,6.1a3.034,3.034,0,0,0,4.29,4.29l6.1-6.1,6.1,6.1a3.031,3.031,0,0,0,4.283-4.29Z" transform="translate(134.519 98.031)" fill="#3d1c60"/>
      <path id="패스_6154" data-name="패스 6154" d="M33.713,67.011a3.038,3.038,0,0,0-4.29,0l-6.17,6.17-6.17-6.17a3.034,3.034,0,0,0-4.29,4.29l6.17,6.17-6.17,6.17a3.034,3.034,0,0,0,4.29,4.29l6.17-6.17,6.17,6.17a3.034,3.034,0,0,0,4.29-4.29l-6.17-6.17,6.17-6.17A3.038,3.038,0,0,0,33.713,67.011Z" transform="translate(17.099 -66.124)" fill="#3d1c60"/>
    </g>
    <g id="그룹_5600" data-name="그룹 5600" transform="translate(1312.607 120)">
      <path id="패스_6155" data-name="패스 6155" d="M89.47,24.014l6.352-6.344a3.034,3.034,0,0,0-4.29-4.29l-6.344,6.352L78.836,13.38a3.034,3.034,0,0,0-4.29,4.29L80.9,24.014l-6.352,6.352a3.036,3.036,0,0,0,2.145,5.177,2.994,2.994,0,0,0,2.145-.894L85.188,28.3l6.344,6.344a3.031,3.031,0,0,0,4.29-4.283Z" transform="translate(-73.659 -12.493)" fill="#3d1c60"/>
      <path id="패스_6156" data-name="패스 6156" d="M104.984,22.486l4.57-4.571a3.036,3.036,0,1,0-4.29-4.3l-4.578,4.571-4.57-4.571a3.039,3.039,0,1,0-4.3,4.3l4.571,4.571-4.571,4.578a3.036,3.036,0,1,0,4.3,4.29l4.57-4.571,4.578,4.571a3.034,3.034,0,1,0,4.29-4.29Z" transform="translate(39.946 -10.965)" fill="#fece46"/>
      <path id="패스_6157" data-name="패스 6157" d="M106.907,36.247a3.033,3.033,0,0,0-4.3,0L96.652,42.2l-5.965-5.958a3.036,3.036,0,0,0-4.29,4.3L92.354,46.5,86.4,52.467a3.034,3.034,0,1,0,4.29,4.29L96.652,50.8l5.958,5.958a3.036,3.036,0,1,0,4.3-4.29L100.95,46.5l5.958-5.958A3.033,3.033,0,0,0,106.907,36.247Z" transform="translate(4.278 137.926)" fill="#fece46"/>
    </g>
    <g id="그룹_5602" data-name="그룹 5602" transform="translate(200 120)">
      <path id="패스_6158" data-name="패스 6158" d="M9.132,187.038a3.032,3.032,0,0,1-2.145-5.177L180.56,8.287a3.034,3.034,0,0,1,4.29,4.29L11.277,186.151A3.031,3.031,0,0,1,9.132,187.038Z" transform="translate(2.995 26.32)" fill="#3d1c60"/>
      <path id="패스_6159" data-name="패스 6159" d="M7.932,91.908a3.032,3.032,0,0,1-2.145-5.177L86.131,6.387a3.034,3.034,0,0,1,4.29,4.29L10.077,91.021A3.031,3.031,0,0,1,7.932,91.908Z" transform="translate(-4.9 13.818)" fill="#3d1c60"/>
      <path id="패스_6160" data-name="패스 6160" d="M8.332,91.953a3.032,3.032,0,0,1-2.145-5.177L78.519,14.444a3.031,3.031,0,0,1,4.29,4.283L10.477,91.067A3.031,3.031,0,0,1,8.332,91.953Z" transform="translate(-2.268 66.83)" fill="#fece46"/>
      <path id="패스_6161" data-name="패스 6161" d="M8.337,91.968a3.039,3.039,0,0,1-2.145-5.184l72.332-72.34a3.039,3.039,0,0,1,4.3,4.3L10.482,91.073A2.994,2.994,0,0,1,8.337,91.968Z" transform="translate(-2.273 66.824)" fill="#fece46"/>
      <path id="패스_6162" data-name="패스 6162" d="M20.582,57.709a3.032,3.032,0,0,1-2.145-5.177l48.32-48.32a3.034,3.034,0,0,1,4.29,4.29l-48.32,48.32A3.031,3.031,0,0,1,20.582,57.709Z" transform="translate(78.332 -0.493)" fill="#fece46"/>
      <path id="패스_6163" data-name="패스 6163" d="M20.587,57.722a3.039,3.039,0,0,1-2.145-5.184l48.32-48.32a3.034,3.034,0,0,1,4.29,4.29l-48.32,48.32A2.994,2.994,0,0,1,20.587,57.722Z" transform="translate(78.327 -0.498)" fill="#fece46"/>
      <path id="패스_6164" data-name="패스 6164" d="M27.932,125.561a3.032,3.032,0,0,1-2.145-5.177L142.331,3.839a3.034,3.034,0,0,1,4.29,4.29L30.077,124.674A3.031,3.031,0,0,1,27.932,125.561Z" transform="translate(126.692 -2.946)" fill="#fece46"/>
      <path id="패스_6165" data-name="패스 6165" d="M27.937,125.573a3.036,3.036,0,0,1-2.145-5.184L142.336,3.844a3.036,3.036,0,0,1,4.29,4.3L30.082,124.686A3.018,3.018,0,0,1,27.937,125.573Z" transform="translate(126.687 -2.951)" fill="#fece46"/>
    </g>
  </g>
</svg>
