<svg xmlns="http://www.w3.org/2000/svg" xmlns:xlink="http://www.w3.org/1999/xlink" width="837.321" height="418.36" viewBox="0 0 837.321 418.36">
  <defs>
    <linearGradient id="linear-gradient" x1="0.633" y1="0.374" x2="0.006" y2="0.769" gradientUnits="objectBoundingBox">
      <stop offset="0" stop-color="#ff6e8d"/>
      <stop offset="1" stop-color="#ff3161"/>
    </linearGradient>
  </defs>
  <g id="그룹_19206" data-name="그룹 19206" transform="translate(-742.679 -79.117)">
    <g id="그룹_18404" data-name="그룹 18404" transform="translate(15829.779 175.505)">
      <path id="패스_28767" data-name="패스 28767" d="M1422.528,602.375l-.04-1.931-3.012-147.924.849-.017L1423.3,598.5l61.56-140.749.778.34Z" transform="translate(-16015.509 -514.652)" fill="#fff"/>
      <path id="패스_28768" data-name="패스 28768" d="M862.943,785.735,789.589,656.984l.738-.42,71.985,126.347L877.333,589.63l.846.066Z" transform="translate(-15563.867 -612.975)" fill="#fff"/>
      <path id="패스_28769" data-name="패스 28769" d="M431.281,667.838c-27.282-5.154-53.453-37.453-63.753-62.564-9.364-22.829-3.615-43.574,10.1-63.189,15.283-21.86,38.046-32.916,64.68-35.724,17.5-1.845,34.523,9.617,45.121,22.7,9.748,12.035,13.358,27.839,18.425,42.172,6.415,18.145,11.746,34.63,27.173,46.51-5.417,1.76-12.734,7.974-18.318,7.946-5.462-.026-8.784-8.65-11.393-13.7-10.023-19.412-12.337-42-22.565-61.159-8.3-15.555-32.9-26.473-49.943-26.842-15.8-.342-29.316,12.39-35.51,26.343-6.778,15.268-4.216,38.28,2.495,53.131,9.177,20.307,27.2,38.791,43.624,51.888" transform="translate(-15257.949 -553.129)" fill="url(#linear-gradient)"/>
      <path id="패스_28770" data-name="패스 28770" d="M311.92,1025.227s-57.164,42.4-107.183,10.94l20.512,24.2-15.137,14.33s72.252,13.942,123.747-35.044Z" transform="translate(-15144.517 -925.307)" fill="#ea1b42"/>
      <g id="그룹_18351" data-name="그룹 18351" transform="translate(-14845.902 38.766)">
        <path id="패스_28771" data-name="패스 28771" d="M1356.338,809.625l133.245,72.484,53.3,16.4-133.245-72.484Z" transform="translate(-1124.335 -809.482)" fill="#e2e2e2"/>
        <path id="패스_28772" data-name="패스 28772" d="M671.832,915.175,538.587,842.692,771.8,809.915,905.05,882.4Z" transform="translate(-537.992 -809.69)" fill="#bababa"/>
        <path id="패스_28773" data-name="패스 28773" d="M545.363,843.506l223.8-31.454L894.064,880l-2.244.315,10.8,1.115L769.7,809.12,536.482,841.9l3.858,2.1,7.311.755Z" transform="translate(-536.482 -809.12)" fill="#fff"/>
      </g>
      <path id="패스_28778" data-name="패스 28778" d="M915.177,953.945c12.663-35.067-20.076-63.189-55.244-43.932-14.765-37.271-57.151-36.274-69.807-1.213-18.4,50.965,32.977,98.419,34.586,99.889l0,.005a.021.021,0,0,0,.013,0l.027.028.01-.024C826.928,1008.591,896.781,1004.909,915.177,953.945Z" transform="translate(-15561.402 -822.812)" fill="#aa152b"/>
      <path id="패스_28779" data-name="패스 28779" d="M725.426,688.737c-4.276-11.522-18.5-11.632-23.254.7-11.649-6.239-22.105,3.033-17.829,14.552,6.215,16.744,29.247,17.753,29.964,17.781h0a.005.005,0,0,0,0,0h.013l0-.008C714.845,721.273,731.643,705.48,725.426,688.737Z" transform="translate(-15487.703 -677.873)" fill="#ff3364"/>
      <path id="패스_28780" data-name="패스 28780" d="M862.161,757.48c-18.829-15.81-43.679-1.936-39.752,24.212-26.428.668-35.445,27.133-16.619,42.937,27.366,22.975,68.42,1.957,69.7,1.3l0,0a.016.016,0,0,0,0-.008l.023-.011-.012-.012C875.929,824.53,889.527,780.452,862.161,757.48Z" transform="translate(-15568.317 -728.53)" fill="#db0034"/>
      <path id="패스_28781" data-name="패스 28781" d="M1515.364,961.807c8.35-23.125-13.239-41.67-36.43-28.971-9.736-24.578-37.688-23.921-46.034-.8-12.135,33.608,21.747,64.9,22.808,65.871v0a.012.012,0,0,0,.008,0l.018.018.007-.015C1457.169,997.843,1503.232,995.414,1515.364,961.807Z" transform="translate(-16023.254 -845.948)" fill="#ba0237"/>
      <path id="패스_28782" data-name="패스 28782" d="M1057.092,448.642c-1.02-13.164-15.684-17.473-24.232-6.135-10.195-9.88-23.732-3.385-22.71,9.776,1.483,19.132,24.98,26.966,25.714,27.207v0a.006.006,0,0,0,0,0l.013,0v-.009C1036.565,479.137,1058.577,467.773,1057.092,448.642Z" transform="translate(-15721.975 -502.803)" fill="#db0034"/>
      <path id="패스_28783" data-name="패스 28783" d="M1404.007,1004.6c1.488-17.446-16.778-26.229-30.4-13.224-11.223-15.116-30.331-9.519-31.816,7.923-2.161,25.354,26.908,40.646,27.816,41.118v0l.006,0,.016.008v-.012C1370.606,1040.106,1401.848,1029.955,1404.007,1004.6Z" transform="translate(-15959.729 -894.751)" fill="#ce1d50"/>
      <path id="패스_28784" data-name="패스 28784" d="M1432.228,764.052c1.051-12.326-11.854-18.532-21.475-9.343-7.929-10.68-21.43-6.725-22.48,5.6-1.527,17.914,19.011,28.717,19.653,29.051h0l.011.006v-.009C1408.629,789.137,1430.7,781.965,1432.228,764.052Z" transform="translate(-15993.078 -726.9)" fill="#ff4d88"/>
      <path id="패스_28785" data-name="패스 28785" d="M699.323,868.525c-4.826-16.775-24.961-18.45-33.01-1.492-15.832-10.079-31.632,1.936-26.805,18.706,7.015,24.378,39.526,28.268,40.54,28.383v0a.012.012,0,0,0,0,0l.018,0,0-.012C680.862,913.476,706.339,892.9,699.323,868.525Z" transform="translate(-15455.622 -803.323)" fill="#ea1567"/>
      <path id="패스_28786" data-name="패스 28786" d="M1591.413,887.832c6.439-10.563-2.344-21.874-15.052-17.941-2.333-13.1-16.181-15.578-22.617-5.016-9.357,15.352,4.206,34.182,4.632,34.767h0l.007.01,0-.007C1559.1,899.756,1582.057,903.184,1591.413,887.832Z" transform="translate(-16109.426 -805.609)" fill="#ff6e8d"/>
      <path id="패스_28787" data-name="패스 28787" d="M1644.491,406.384c1.3-6.191-4.859-10.147-10.316-6.084-3.357-5.916-10.457-4.753-11.76,1.437-1.894,9,7.855,15.764,8.16,15.974h0l.005,0v0C1630.945,417.642,1642.6,415.381,1644.491,406.384Z" transform="translate(-16160.845 -474.444)" fill="#fc1f59"/>
      <path id="패스_28788" data-name="패스 28788" d="M1377.086,340.092c-2.042-9.986-13.686-11.884-19.148-2.38-8.755-6.593-18.5-.322-16.461,9.662,2.967,14.512,21.715,18.266,22.3,18.38h0l0,0,.01,0v-.008C1364.28,365.415,1380.053,354.6,1377.086,340.092Z" transform="translate(-15959.385 -427.895)" fill="#ff97bd"/>
      <g id="그룹_18360" data-name="그룹 18360" transform="translate(-14546.878 2.384)">
        <g id="그룹_18355" data-name="그룹 18355">
          <path id="패스_28789" data-name="패스 28789" d="M1646.606,1207.2a2.076,2.076,0,0,0,.139-.265l-.351.538A1.945,1.945,0,0,0,1646.606,1207.2Z" transform="translate(-1631.335 -1057.975)" fill="#aea481"/>
          <g id="그룹_18354" data-name="그룹 18354" transform="translate(46.563)">
            <rect id="사각형_3429" data-name="사각형 3429" width="11.3" height="5.576" transform="translate(25.312 18.804) rotate(-57.587)" fill="#777776"/>
            <path id="패스_28790" data-name="패스 28790" d="M1790.869,683.775a2.275,2.275,0,0,1,3.14-.7l.348.221a2.274,2.274,0,0,1,.7,3.14L1765.683,732.7a2.274,2.274,0,0,1-3.139.7l-.348-.221a2.275,2.275,0,0,1-.7-3.139Z" transform="translate(-1760.173 -682.106)" fill="#5b5b5b"/>
            <path id="패스_28791" data-name="패스 28791" d="M1787.452,681.607a2.275,2.275,0,0,1,3.14-.7l.348.221a2.275,2.275,0,0,1,.7,3.14l-29.375,46.262a2.275,2.275,0,0,1-3.14.7l-.348-.221a2.275,2.275,0,0,1-.7-3.14Z" transform="translate(-1757.724 -680.551)" fill="#777776"/>
          </g>
          <path id="패스_28792" data-name="패스 28792" d="M1594.231,1174.233c-.012.02-.022.04-.034.059l.059-.1C1594.248,1174.209,1594.239,1174.22,1594.231,1174.233Z" transform="translate(-1593.909 -1034.505)" fill="#aea481"/>
          <path id="패스_28793" data-name="패스 28793" d="M1608,1152.079c-.007.011-.012.023-.019.034l.033-.054Z" transform="translate(-1603.794 -1018.631)" fill="#aea481"/>
          <path id="패스_28794" data-name="패스 28794" d="M1660.806,1185.261a1.914,1.914,0,0,0,.151-.3l-.389.6A1.9,1.9,0,0,0,1660.806,1185.261Z" transform="translate(-1641.498 -1042.226)" fill="#aea481"/>
          <path id="패스_28795" data-name="패스 28795" d="M1598.248,1149.283l-3.842,6.211c.883-1.325,3.275-1.435,6.042-.48a18.146,18.146,0,0,1,6.772,4.3c1.929,1.985,2.852,4.07,2.248,5.443l3.66-5.619.389-.6c.833-1.993-1.518-5.472-5.484-7.99-4.154-2.638-8.51-3.226-9.752-1.322Z" transform="translate(-1594.058 -1015.802)" fill="#f4718e"/>
          <path id="패스_28796" data-name="패스 28796" d="M1593.466,1171.481c-1.142,1.944,1.2,5.584,5.291,8.179,3.919,2.488,8.026,3.119,9.48,1.526l.351-.538c.6-1.373-.318-3.458-2.248-5.442a18.144,18.144,0,0,0-6.771-4.3c-2.768-.955-5.159-.844-6.043.48Z" transform="translate(-1593.178 -1031.694)" fill="#ffcad5"/>
          <path id="패스_28797" data-name="패스 28797" d="M1653.36,887.27,1608.1,961.52c1.243-1.9,5.6-1.316,9.753,1.322,3.966,2.518,6.317,6,5.483,7.99l47.9-72.209-.016-.01a1.191,1.191,0,0,0,.1-.135c1.1-1.733-2.007-5.678-6.941-8.811s-9.826-4.267-10.926-2.534a1.219,1.219,0,0,0-.08.148Z" transform="translate(-1603.878 -828.093)" fill="#ff91bd"/>
          <path id="패스_28798" data-name="패스 28798" d="M1781.493,742.154,1799.52,753.6l28.927-45.559-.07-.044a6.8,6.8,0,0,0,.5-.688c2.494-3.928.488-9.67-4.481-12.825s-11.02-2.528-13.514,1.4a6.856,6.856,0,0,0-.409.746l-.053-.034Z" transform="translate(-1728.203 -689.1)" fill="#ff91bd"/>
          <path id="패스_28799" data-name="패스 28799" d="M1768.933,865.762l-4.6,7.436c1.057-1.586,3.921-1.718,7.234-.575a21.73,21.73,0,0,1,8.108,5.149c2.31,2.376,3.414,4.874,2.692,6.517l4.383-6.727.466-.716c1-2.387-1.817-6.551-6.566-9.567-4.974-3.158-10.189-3.862-11.677-1.583Z" transform="translate(-1715.9 -812.346)" fill="#f4718e"/>
        </g>
        <path id="패스_28800" data-name="패스 28800" d="M1681.759,941.941a2.88,2.88,0,0,1,3.976-.887l1.159.736a2.88,2.88,0,0,1,.888,3.975l-30.991,48.808a2.88,2.88,0,0,1-3.975.888l-1.159-.736a2.88,2.88,0,0,1-.888-3.975Z" transform="translate(-1634.149 -867.015)" fill="#f4718e"/>
        <g id="그룹_18356" data-name="그룹 18356" transform="translate(38.925 76.834)">
          <path id="패스_28801" data-name="패스 28801" d="M1766.133,953.046l-.854-.542c-.029-.018-.044-.034-.045-.048a.1.1,0,0,1,.019-.054l.187-.294a.1.1,0,0,1,.04-.039c.014-.006.034,0,.063.019l2.231,1.417c.024.015.037.031.038.048a.081.081,0,0,1-.014.049l-.389.612a1.239,1.239,0,0,1-.238.281.742.742,0,0,1-.282.154.708.708,0,0,1-.318.01.993.993,0,0,1-.351-.148.894.894,0,0,1-.274-.258.778.778,0,0,1-.124-.306.819.819,0,0,1,.017-.333,1.148,1.148,0,0,1,.148-.338Zm1.059.672-.68-.432-.128.2a.5.5,0,0,0-.1.334.391.391,0,0,0,.2.267.412.412,0,0,0,.3.078.318.318,0,0,0,.215-.153Z" transform="translate(-1755.47 -952.067)" fill="#fff"/>
          <path id="패스_28802" data-name="패스 28802" d="M1761.67,958.074a.086.086,0,0,1,.042-.04.078.078,0,0,1,.058.018L1764,959.47a.064.064,0,0,1,.022.1l-.187.294a.064.064,0,0,1-.1.022l-2.234-1.419c-.024-.015-.038-.031-.04-.045a.085.085,0,0,1,.018-.055Z" transform="translate(-1752.768 -956.345)" fill="#fff"/>
          <path id="패스_28803" data-name="패스 28803" d="M1756.888,962.224a.119.119,0,0,1,.038-.044.141.141,0,0,1,.06,0l2.175.14-1.589-1.009c-.032-.021-.051-.036-.055-.048s0-.033.025-.066l.177-.278c.019-.03.036-.047.049-.05a.117.117,0,0,1,.069.027l2.207,1.4a.16.16,0,0,1,.06.054c.005.014,0,.038-.027.075l-.192.3a.1.1,0,0,1-.04.043.194.194,0,0,1-.07,0l-2.155-.144,1.585,1.007c.031.019.048.035.053.048s0,.034-.022.065l-.175.275c-.023.037-.042.055-.056.055a.152.152,0,0,1-.064-.028l-2.2-1.4q-.058-.037-.064-.058c0-.014.006-.04.029-.076Z" transform="translate(-1749.332 -958.374)" fill="#fff"/>
          <path id="패스_28804" data-name="패스 28804" d="M1752.127,969.9a.107.107,0,0,1,.033-.039.187.187,0,0,1,.059-.005l1.33-.018-.079-.282-.744-.472c-.025-.015-.038-.031-.04-.047a.09.09,0,0,1,.017-.054l.187-.294a.084.084,0,0,1,.042-.04.076.076,0,0,1,.058.017l2.234,1.419a.064.064,0,0,1,.022.1l-.187.294a.064.064,0,0,1-.1.022l-.907-.576.465,1.3.009.04a.063.063,0,0,1-.014.043l-.218.343q-.068.107-.1-.005l-.475-1.363-1.776.045c-.062,0-.075-.023-.039-.081Z" transform="translate(-1745.898 -963.96)" fill="#fff"/>
          <path id="패스_28805" data-name="패스 28805" d="M1745.845,979.982a.113.113,0,0,1,.037-.042.128.128,0,0,1,.058,0l1.148.119.179-.281-.857-.544c-.028-.018-.044-.034-.046-.046a.088.088,0,0,1,.019-.053l.188-.3a.1.1,0,0,1,.04-.039c.013-.006.034,0,.063.019l2.231,1.417c.025.016.037.031.039.048a.082.082,0,0,1-.014.049l-.391.615a1.271,1.271,0,0,1-.24.284.739.739,0,0,1-.282.154.712.712,0,0,1-.318.01,1,1,0,0,1-.351-.148.829.829,0,0,1-.315-.333.814.814,0,0,1-.084-.405l-1.26-.1c-.041,0-.066-.01-.074-.021s0-.032.016-.063Zm2.481.468-.685-.435-.13.2a.514.514,0,0,0-.1.338.39.39,0,0,0,.2.271.411.411,0,0,0,.3.077.33.33,0,0,0,.217-.156Z" transform="translate(-1741.4 -971.233)" fill="#fff"/>
          <path id="패스_28806" data-name="패스 28806" d="M1744.421,985.24a.087.087,0,0,1,.042-.04.079.079,0,0,1,.058.018l2.234,1.418a.064.064,0,0,1,.022.1l-.187.294a.064.064,0,0,1-.1.022l-2.234-1.419q-.037-.023-.04-.045a.082.082,0,0,1,.018-.055Z" transform="translate(-1740.4 -975.823)" fill="#fff"/>
          <path id="패스_28807" data-name="패스 28807" d="M1739.639,989.39a.131.131,0,0,1,.039-.044.143.143,0,0,1,.061,0l2.175.14-1.589-1.009a.147.147,0,0,1-.055-.048c0-.011,0-.033.025-.066l.177-.279c.019-.03.036-.047.049-.05a.119.119,0,0,1,.069.027l2.207,1.4a.157.157,0,0,1,.06.054c.006.014,0,.039-.026.075l-.193.3a.1.1,0,0,1-.04.043.185.185,0,0,1-.07,0l-2.155-.144,1.586,1.007c.031.019.048.035.053.048s0,.035-.022.065l-.175.275c-.024.037-.042.055-.056.055a.151.151,0,0,1-.064-.028l-2.2-1.4c-.038-.025-.06-.044-.064-.058s.005-.039.028-.076Z" transform="translate(-1736.964 -977.853)" fill="#fff"/>
          <path id="패스_28808" data-name="패스 28808" d="M1736.124,996.1q.047-.074.075-.077a.207.207,0,0,1,.1.045l2.139,1.358a.207.207,0,0,1,.08.07c.007.016-.005.049-.035.1l-.692,1.089c-.022.035-.041.05-.055.047a.244.244,0,0,1-.059-.029l-.239-.152a.131.131,0,0,1-.05-.045c-.006-.012,0-.033.021-.063l.49-.771-.582-.369-.464.731c-.021.033-.039.047-.054.045a.193.193,0,0,1-.06-.028l-.239-.152c-.029-.018-.045-.033-.049-.046s0-.034.02-.062l.464-.731-.63-.4-.509.8c-.021.032-.038.048-.051.046a.163.163,0,0,1-.06-.027l-.239-.152a.177.177,0,0,1-.052-.043c-.008-.012,0-.035.019-.067Z" transform="translate(-1734.075 -983.581)" fill="#fff"/>
          <path id="패스_28809" data-name="패스 28809" d="M1730.965,1003.417a.111.111,0,0,1,.037-.042.132.132,0,0,1,.058,0l1.148.119.179-.282-.857-.544c-.029-.018-.044-.034-.046-.046a.088.088,0,0,1,.019-.052l.188-.3a.1.1,0,0,1,.04-.039c.014-.005.035,0,.063.019l2.231,1.417c.024.015.037.031.038.048a.082.082,0,0,1-.014.049l-.391.615a1.239,1.239,0,0,1-.24.283.731.731,0,0,1-.282.154.705.705,0,0,1-.318.011,1.007,1.007,0,0,1-.351-.147.831.831,0,0,1-.315-.333.821.821,0,0,1-.084-.406l-1.26-.1c-.042,0-.066-.01-.075-.021s0-.032.016-.063Zm2.481.468-.686-.435-.13.205a.517.517,0,0,0-.1.338.39.39,0,0,0,.2.271.41.41,0,0,0,.3.078.328.328,0,0,0,.217-.156Z" transform="translate(-1730.731 -988.036)" fill="#fff"/>
        </g>
        <g id="그룹_18359" data-name="그룹 18359" transform="translate(17.284 99.111)">
          <g id="그룹_18357" data-name="그룹 18357" transform="translate(0 13.415)">
            <rect id="사각형_3430" data-name="사각형 3430" width="0.626" height="4.381" transform="matrix(0.536, -0.844, 0.844, 0.536, 0, 12.871)" fill="#ffd2dc"/>
            <rect id="사각형_3431" data-name="사각형 3431" width="1.648" height="4.381" transform="matrix(0.536, -0.844, 0.844, 0.536, 0.575, 11.965)" fill="#ffd2dc"/>
            <rect id="사각형_3432" data-name="사각형 3432" width="0.881" height="4.381" transform="matrix(0.536, -0.844, 0.844, 0.536, 1.753, 10.11)" fill="#ffd2dc"/>
            <rect id="사각형_3433" data-name="사각형 3433" width="0.268" height="4.381" transform="matrix(0.536, -0.844, 0.844, 0.536, 2.41, 9.075)" fill="#ffd2dc"/>
            <rect id="사각형_3434" data-name="사각형 3434" width="0.268" height="4.381" transform="translate(6.778 2.196) rotate(-57.591)" fill="#ffd2dc"/>
            <rect id="사각형_3435" data-name="사각형 3435" width="0.821" height="4.381" transform="translate(3.295 7.681) rotate(-57.589)" fill="#ffd2dc"/>
            <rect id="사각형_3436" data-name="사각형 3436" width="0.566" height="4.381" transform="translate(3.884 6.753) rotate(-57.585)" fill="#ffd2dc"/>
            <rect id="사각형_3437" data-name="사각형 3437" width="0.268" height="4.38" transform="translate(6.395 2.8) rotate(-57.589)" fill="#ffd2dc"/>
            <rect id="사각형_3438" data-name="사각형 3438" width="0.821" height="4.381" transform="translate(7.28 1.405) rotate(-57.59)" fill="#ffd2dc"/>
            <rect id="사각형_3439" data-name="사각형 3439" width="0.566" height="4.381" transform="translate(7.869 0.477) rotate(-57.583)" fill="#ffd2dc"/>
            <rect id="사각형_3440" data-name="사각형 3440" width="0.336" height="4.381" transform="matrix(0.536, -0.844, 0.844, 0.536, 4.336, 6.042)" fill="#ffd2dc"/>
            <rect id="사각형_3441" data-name="사각형 3441" width="2.543" height="4.38" transform="translate(4.758 5.378) rotate(-57.589)" fill="#ffd2dc"/>
          </g>
          <g id="그룹_18358" data-name="그룹 18358" transform="translate(8.518 0)">
            <rect id="사각형_3442" data-name="사각형 3442" width="0.626" height="4.38" transform="translate(0 12.871) rotate(-57.589)" fill="#ffd2dc"/>
            <rect id="사각형_3443" data-name="사각형 3443" width="1.648" height="4.381" transform="matrix(0.536, -0.844, 0.844, 0.536, 0.575, 11.965)" fill="#ffd2dc"/>
            <rect id="사각형_3444" data-name="사각형 3444" width="0.881" height="4.381" transform="matrix(0.536, -0.844, 0.844, 0.536, 1.752, 10.111)" fill="#ffd2dc"/>
            <rect id="사각형_3445" data-name="사각형 3445" width="0.268" height="4.381" transform="translate(2.41 9.076) rotate(-57.59)" fill="#ffd2dc"/>
            <rect id="사각형_3446" data-name="사각형 3446" width="0.268" height="4.381" transform="translate(6.778 2.196) rotate(-57.591)" fill="#ffd2dc"/>
            <rect id="사각형_3447" data-name="사각형 3447" width="0.822" height="4.381" transform="matrix(0.536, -0.844, 0.844, 0.536, 3.295, 7.681)" fill="#ffd2dc"/>
            <rect id="사각형_3448" data-name="사각형 3448" width="0.566" height="4.381" transform="matrix(0.536, -0.844, 0.844, 0.536, 3.884, 6.754)" fill="#ffd2dc"/>
            <rect id="사각형_3449" data-name="사각형 3449" width="0.269" height="4.381" transform="translate(6.395 2.8) rotate(-57.591)" fill="#ffd2dc"/>
            <rect id="사각형_3450" data-name="사각형 3450" width="0.821" height="4.381" transform="translate(7.28 1.405) rotate(-57.583)" fill="#ffd2dc"/>
            <rect id="사각형_3451" data-name="사각형 3451" width="0.566" height="4.381" transform="translate(7.869 0.478) rotate(-57.583)" fill="#ffd2dc"/>
            <rect id="사각형_3452" data-name="사각형 3452" width="0.336" height="4.381" transform="translate(4.336 6.042) rotate(-57.589)" fill="#ffd2dc"/>
            <rect id="사각형_3453" data-name="사각형 3453" width="2.543" height="4.381" transform="matrix(0.536, -0.844, 0.844, 0.536, 4.758, 5.377)" fill="#ffd2dc"/>
          </g>
        </g>
      </g>
      <path id="패스_28810" data-name="패스 28810" d="M965.314,650.846c.482-4.446-4.131-6.8-7.684-3.556-2.777-3.926-7.69-2.609-8.172,1.837-.7,6.462,6.632,10.538,6.861,10.664h0l0,0v0C956.575,659.716,964.613,657.308,965.314,650.846Z" transform="translate(-15678.463 -652.647)" fill="#ff5a81"/>
      <path id="패스_28811" data-name="패스 28811" d="M1182.869,810.84c-8.61-31.16-45.868-34.656-61.106-3.407-29.123-18.976-58.618,2.968-50.007,34.12,12.516,45.285,72.651,53.121,74.526,53.356v0a.015.015,0,0,0,.008-.006l.033,0-.005-.022C1147.8,893.729,1195.388,856.122,1182.869,810.84Z" transform="translate(-15765.097 -753.533)" fill="#ea1b42"/>
      <path id="패스_28812" data-name="패스 28812" d="M988.41,981.3c-.756-23.709-26.721-32.639-42.987-12.988-17.49-18.564-42.315-8.012-41.556,15.691,1.1,34.456,42.63,50.434,43.926,50.925v0a.013.013,0,0,0,.007,0l.022.009v-.016C949.082,1034.355,989.514,1015.759,988.41,981.3Z" transform="translate(-15645.795 -876.772)" fill="#f23663"/>
      <g id="그룹_18361" data-name="그룹 18361" transform="translate(-14887.509 71.768)">
        <path id="패스_28813" data-name="패스 28813" d="M670.432,1156.351l-133.245-72.484.4-158.126,133.245,72.484Z" transform="translate(-495.382 -925.741)" fill="#bababa"/>
        <path id="패스_28814" data-name="패스 28814" d="M1241.665,1066.063l-.4,158.125-233.217,32.777.4-158.126Z" transform="translate(-833.001 -1026.354)" fill="#e2e2e2"/>
        <path id="패스_28815" data-name="패스 28815" d="M389.455,964.144,522.7,1036.628l42.2-38.4L431.656,925.741Z" transform="translate(-389.455 -925.741)" fill="#e2e2e2"/>
        <path id="패스_28816" data-name="패스 28816" d="M1277.361,1119.769l-233.318,32.9-36.551-55.072,233.318-32.9Z" transform="translate(-832.599 -1025.376)" fill="#f4f4f4"/>
        <path id="패스_28817" data-name="패스 28817" d="M901.6,968.679,680.035,999.817l-122.607-66.7-7.311-.755L679.5,1002.749l233.218-32.776-.328-.179Z" transform="translate(-504.653 -930.49)" fill="#fff"/>
      </g>
      <g id="그룹_18362" data-name="그룹 18362" transform="translate(-14876.752 148.159)">
        <path id="패스_28818" data-name="패스 28818" d="M458.319,1195.7v.084l-.043.018-.105.044-.259.109-.04.017-.3.126-.1.043-.216.094-.1.042-.269.118-.046.02-.305.135-.106.047-.22.1-.109.049-.266.12-.054.024-.316.145-.106.049-.228.106-.112.052-.257.121-.072.034-.326.155-.1.047-.242.117-.111.054-.269.132-.067.033-.338.168-.084.042-.263.132-.1.051-.282.144-.063.032-.349.181-.068.035-.279.146-.1.054-.286.152-.062.033-.358.193-.047.026-.305.167-.091.05-.3.166-.057.031-.363.205-.036.021-.322.185-.077.045-.31.181-.05.029-.37.219-.01.006-.343.207-.077.046-.309.189-.048.03q-.364.224-.726.455l-.064.041-.317.205-.042.027q-.364.237-.726.481l-.049.033-.324.22-.038.027q-.363.249-.722.505l-.035.025q-.166.118-.331.238l-.03.022q-.36.262-.714.531l-.025.019c-.111.085-.223.17-.333.256l-.023.017q-.354.275-.7.556l-.015.012q-.168.136-.333.273l-.017.013q-.348.288-.688.583h0c-.111.1-.222.193-.331.29l-.016.014q-.5.447-.987.909l-.008.008q-.485.464-.948.944l-.005.006q-.464.482-.9.98h0c-13.306,15.109-7.977,41.1,98.083,77.74l.722.888-28.644,8.355,16.709,23.273c-1.79,0-85.335-12.532-96.077-65.643C420.365,1209.864,448.053,1198.41,458.319,1195.7Z" transform="translate(-427.467 -1195.695)" fill="#ea1b42"/>
        <path id="패스_28819" data-name="패스 28819" d="M453.684,1208.026l.005-.005q.463-.48.948-.944l.008-.008q.483-.463.987-.909l.016-.014c.109-.1.22-.194.331-.29h0q.34-.294.688-.582l.017-.013q.166-.137.333-.273l.015-.012q.348-.281.7-.556l.023-.017c.11-.086.222-.171.333-.256l.025-.019q.354-.269.714-.531l.03-.022c.11-.081.22-.16.331-.239l.035-.025q.359-.257.722-.506l.039-.026.324-.221.049-.033q.362-.244.726-.481l.042-.027.318-.2.064-.041q.363-.231.726-.455l.048-.03.309-.189.077-.047.343-.207.01-.006.37-.219.05-.029.31-.181.077-.045.322-.185.036-.02.363-.205.057-.032.3-.165.091-.05.305-.167.047-.026.358-.193.062-.033.286-.152.1-.054.279-.146.068-.035.349-.181.063-.032.282-.144.1-.051.263-.132.084-.042.338-.167.067-.033.269-.132.111-.054.242-.117.1-.047.326-.155.072-.034.257-.121.112-.053.228-.106.106-.049.316-.145.054-.024.266-.12.109-.049.22-.1.106-.047.305-.135.046-.02.269-.118.1-.042.216-.093.1-.043.3-.126.04-.017.259-.109.105-.044.043-.018v26.153c-5.915,4.885-11.348,11.275-13.925,19.329-14.824-13.758-12.953-24.592-6.016-32.469h0Q453.219,1208.508,453.684,1208.026Z" transform="translate(-441.869 -1195.91)" fill="#aa152b"/>
      </g>
      <g id="그룹_18363" data-name="그룹 18363" transform="translate(-14696.619 209.044)">
        <path id="패스_28820" data-name="패스 28820" d="M1118.119,1435.753c0-15.9-12.706-26.882-27.892-24.6-14.672,2.2-26.207,16.043-26.207,30.982v59.758l54.1-7.837Z" transform="translate(-1064.021 -1410.85)" fill="#aa152b"/>
      </g>
      <g id="그룹_18364" data-name="그룹 18364" transform="translate(-14593.783 235.045)">
        <path id="패스_28821" data-name="패스 28821" d="M1441.378,1537.6l-13.951,1.693v-13.514l13.951-1.583Z" transform="translate(-1427.427 -1518.12)" fill="#aa152b"/>
        <path id="패스_28822" data-name="패스 28822" d="M1506.464,1530.147l-13.653,1.657v-13.369l13.653-1.55Z" transform="translate(-1474.308 -1512.881)" fill="#aa152b"/>
        <path id="패스_28823" data-name="패스 28823" d="M1570.169,1522.857l-13.365,1.622v-13.226l13.365-1.517Z" transform="translate(-1520.193 -1507.755)" fill="#aa152b"/>
        <path id="패스_28824" data-name="패스 28824" d="M1632.535,1515.718l-13.086,1.588V1504.22l13.086-1.487Z" transform="translate(-1565.11 -1502.733)" fill="#aa152b"/>
      </g>
    </g>
    <g id="그룹_18401" data-name="그룹 18401" transform="translate(15283.554 -3.418)">
      <g id="그룹_18352" data-name="그룹 18352" transform="translate(-13875.934 204.418)">
        <path id="패스_28774" data-name="패스 28774" d="M1854.069,1431.041l36.508-108.194,36.508,108.194Z" transform="translate(-1854.069 -1322.848)" fill="#fff"/>
        <path id="패스_28775" data-name="패스 28775" d="M1932.838,1546.037h-7.607l1.743-87.857h4.325Z" transform="translate(-1892.539 -1396.006)" fill="#e05242"/>
      </g>
      <g id="그룹_18353" data-name="그룹 18353" transform="translate(-13827.3 239.451)">
        <path id="패스_28776" data-name="패스 28776" d="M2009.974,1564.859h-6.687l1.533-77.23h3.8Z" transform="translate(-1983.368 -1446.959)" fill="#fff"/>
        <path id="패스_28777" data-name="패스 28777" d="M2006.447,1448.232c.315,19.456-9.842,35.4-22.686,35.6s-23.511-15.4-23.825-34.853,9.611-49.672,22.455-49.88S2006.133,1428.776,2006.447,1448.232Z" transform="translate(-1959.929 -1399.103)" fill="#ff61ae"/>
      </g>
      <g id="그룹_18374" data-name="그룹 18374" transform="translate(-13885.127 336.087)">
        <g id="그룹_18372" data-name="그룹 18372" transform="translate(6.699 147.178)">
          <path id="패스_28852" data-name="패스 28852" d="M1868.3,1953.006a1.4,1.4,0,0,1-1.511,1.253h-16.643a1.4,1.4,0,0,1-1.511-1.253h0a1.4,1.4,0,0,1,1.511-1.254h16.643a1.4,1.4,0,0,1,1.511,1.254Z" transform="translate(-1848.64 -1941.672)" fill="#7f7f7f"/>
          <path id="패스_28853" data-name="패스 28853" d="M1860.635,1930.094c2.665,5.154-5.728,7.992-10.389,9.4-.249,2.95,12.489,1.655,14.73,1.409,3.159-.346,3.191-1.811,3.041-4.322-.133-2.213-.635-4.388-.685-6.637a25.987,25.987,0,0,0-6.506.147c-.305.186.149.068.243.186" transform="translate(-1849.507 -1929.811)" fill="#fff"/>
          <path id="패스_28854" data-name="패스 28854" d="M1855.44,1945.916l.973,3.272h6.965l-2.817-5.481Z" transform="translate(-1852.316 -1937.323)" fill="#7f7f7f"/>
        </g>
        <g id="그룹_18373" data-name="그룹 18373" transform="translate(35.939 145.776)">
          <path id="패스_28855" data-name="패스 28855" d="M1931.951,1949.955a1.4,1.4,0,0,1-1.511,1.253H1913.8a1.4,1.4,0,0,1-1.511-1.253h0a1.4,1.4,0,0,1,1.511-1.254h16.643a1.4,1.4,0,0,1,1.511,1.254Z" transform="translate(-1912.286 -1938.621)" fill="#7f7f7f"/>
          <path id="패스_28856" data-name="패스 28856" d="M1924.283,1927.043c2.666,5.153-5.728,7.991-10.388,9.4-.249,2.95,12.49,1.655,14.73,1.409,3.159-.345,3.191-1.81,3.04-4.323-.133-2.212-.635-4.387-.684-6.636a25.942,25.942,0,0,0-6.507.147c-.3.186.15.068.243.186" transform="translate(-1913.154 -1926.76)" fill="#fff"/>
          <path id="패스_28857" data-name="패스 28857" d="M1919.087,1942.865l.974,3.271h6.964l-2.817-5.481Z" transform="translate(-1915.963 -1934.272)" fill="#7f7f7f"/>
        </g>
        <path id="패스_28858" data-name="패스 28858" d="M1897.541,1818.5c.189,8.041,4.78,15.9,9.4,22.876,4.594,6.932,4.686,14.5,7.243,21.588,2.724.362,5.71-.83,8.234-1.256a50.72,50.72,0,0,0-.939-14.928c-.886-3.652-3.707-6.662-4.618-10.271-2.262-8.948.9-18.513-2.537-27.375-1.031-2.662-3.208-3.271-6.628-3.643a16.334,16.334,0,0,0-5.951.266c-2.215.584-4.116,2.216-5.817,2.837" transform="translate(-1867.504 -1715.344)" fill="#685a56"/>
        <path id="패스_28859" data-name="패스 28859" d="M1849.455,1808.692c-1.24,7.216,2.653,13.344,4.331,20.315a117.814,117.814,0,0,1,2.64,12.829c.83,6.681,1.753,13.381,2.243,20.174a10.653,10.653,0,0,1,.276,1.775c2.7.631,6.012.449,8.922.368,2.617-9.687.875-19.472,1.656-29.341.443-5.6,3.968-11.9,6.623-17.121,1.554-3.056,3.468-6.834,3.259-10.23-2.72-.066-5.463-1.008-8.268-1.117a61.6,61.6,0,0,0-10.841.185,55.785,55.785,0,0,0-5.767,1.4c-1.474.384-3.4.354-4.613.765" transform="translate(-1842.252 -1715.808)" fill="#827571"/>
        <path id="패스_28860" data-name="패스 28860" d="M1866.656,1619.864c-4.721-1.472-9.953,1.327-12.858,6.448l-2.369,1.822a25.335,25.335,0,0,0,.619,2.693c-1.368,6.463,3.283,10.422,8.63,12.088,5.665,1.765,9.96.287,12.192-6.879S1872.321,1621.628,1866.656,1619.864Z" transform="translate(-1843.449 -1614.868)" fill="#f2c5a9"/>
        <path id="패스_28861" data-name="패스 28861" d="M1848.288,1799.058c.013,2.36.331,4.568.468,6.914,7.93,2.164,16.674-1.052,24.724-1.052,4.194,0,9.456.757,13.245-1.081,3.468-1.682.639-5.4-.7-8-2.923-.372-6.373.18-9.358.18-5.073,0-10.114-.263-15.191-.217-4.212.038-9.305-.193-13.191,1.3" transform="translate(-1841.751 -1710.139)" fill="#eaeaea"/>
        <path id="패스_28862" data-name="패스 28862" d="M1851.235,1670.67c-.972,1.122-4.348,2.813-6.09,4.318a22.7,22.7,0,0,0-5.742,8.274c-2.6,5.757-3.453,12.113-4.573,18.238-2.252,12.325.711,20.693,5.19,31.623,7.737.472,15.256-.415,22.938-.795,3.3-.162,6.9-.436,10.423-.432,5.036,0,5.64-.268,6.176-5.211a85.438,85.438,0,0,0-5.742-41.275,25.349,25.349,0,0,0-7.371-10.507c-4.969-4-8.966-3.8-15.209-3.8" transform="translate(-1834.059 -1642.545)" fill="#9a5f87"/>
        <path id="패스_28863" data-name="패스 28863" d="M1870.967,1611.7c.376-.406-.505-.621-.949-.606a3.152,3.152,0,0,0-1.545.72c-.89.585-2.65,1.576-2.488,3.221.085.871.821.987,1.1,1.786a3.579,3.579,0,0,1-.184,2.123c-.617,2.523.019,3.468,1.78,5.038,1.641,1.464,1.965,1.92,2.047,4.427.087,2.678,1.429,2.4,3.324,2.4,1.268,0,2.989-.285,3.77,1.373a21.167,21.167,0,0,1,.743,3.017,5.67,5.67,0,0,1,.017,1.209,19.7,19.7,0,0,1,3.154-4.085c1.272-1.316,2.893-2.148,3.495-4.208.435-1.483-.071-2.488-.291-3.972-.272-1.825.6-3.027.614-4.821.022-2.424-1.194-1.2-2.225-2.769-.807-1.229-.2-3.073-1.3-4.126-1.239-1.183-2.415-.014-3.708-.266-1.239-.241-1.845-1.893-2.96-2.468-1.624-.838-2.845.714-3.921,2.013" transform="translate(-1851.312 -1609.451)" fill="#a0a0a0"/>
        <path id="패스_28864" data-name="패스 28864" d="M1865.873,1665.894l-2.868,4.055s7.483-2.692,15.068-.874c0,0-2.412-3.846-2.307-3.846S1871.955,1663.026,1865.873,1665.894Z" transform="translate(-1849.707 -1639.167)" fill="#fff"/>
        <path id="패스_28865" data-name="패스 28865" d="M1908.743,1681.539c6.119,1.57,9.679,10,11.778,15.574a143.6,143.6,0,0,1,4.283,15.051c1,3.859,1.932,6.8,1.742,11.062a31.14,31.14,0,0,1-1.9,8.468c-.545,1.616-1.7,3.475-1.607,5.179-5.112.8-4.559-4.212-4.093-7.349.514-3.452.312-7.237.651-10.639.723-7.246-2.054-13.619-3.425-20.626-1.247-6.366-5.35-10.824-7.866-16.284" transform="translate(-1874.197 -1648.421)" fill="#fff"/>
        <path id="패스_28866" data-name="패스 28866" d="M1912.741,1805.842c.21,2.478,2.915,4.67,5.191,4.894,2.251.22,5.934-1.375,2.632-3.23a4.636,4.636,0,0,1-2.3-1.965c-.644-1.055-1.192-2.671-2.3-3.377-2.245-1.426-2.323,2.508-3.518,3.38" transform="translate(-1876.433 -1713.462)" fill="#f2c5a9"/>
        <path id="패스_28867" data-name="패스 28867" d="M1930.5,1797.22c-1.324,1.182-1.655,5.831-1.186,7.711a2.585,2.585,0,0,0,4.593.748c1.512-1.815.315-3.759,0-5.939-.215-1.46-2.09-5.219-3.7-2.372" transform="translate(-1885.445 -1710.475)" fill="#f2c5a9"/>
        <path id="패스_28868" data-name="패스 28868" d="M1841.12,1684.562c-2.377,1.748-2.881,1.7-3.988,4.335-1.617,3.851-.966,8.38.424,12.169,2.547,6.946,7.937,14.985,12.4,20.926,5.663,7.541,12.969,16.732,20.949,21.661,8.436-6.3-5.067-25.008-9.552-31.309-3.47-4.876-10.081-33.375-19.106-28.225" transform="translate(-1835.207 -1649.48)" fill="#fff"/>
        <path id="패스_28869" data-name="패스 28869" d="M1923.236,1800.441a.964.964,0,0,1-.69,1.175l-38.177,9.935a.964.964,0,0,1-1.176-.691h0a.963.963,0,0,1,.69-1.176l38.177-9.934a.963.963,0,0,1,1.176.691Z" transform="translate(-1860.604 -1712.307)" fill="#ff9a61"/>
      </g>
      <g id="그룹_18399" data-name="그룹 18399" transform="translate(-13778.809 269.353)">
        <g id="그룹_18394" data-name="그룹 18394" transform="translate(14.156 90.45)">
          <g id="그룹_18389" data-name="그룹 18389" transform="translate(0.844 60.708)">
            <path id="패스_28915" data-name="패스 28915" d="M2148.94,1809.531h-41.327a6.96,6.96,0,0,1-6.888-7.03h0a6.96,6.96,0,0,1,6.888-7.031h41.327" transform="translate(-2099.533 -1794.434)" fill="#e8e8e8"/>
            <path id="패스_28916" data-name="패스 28916" d="M2148.461,1809.5h-42.186a8.145,8.145,0,0,1,0-16.289h42.186v2.228h-42.186a5.917,5.917,0,0,0,0,11.833h42.186Z" transform="translate(-2098.132 -1793.213)" fill="#ff7575"/>
          </g>
          <g id="그룹_18390" data-name="그룹 18390" transform="translate(0 45.521)">
            <path id="패스_28917" data-name="패스 28917" d="M2147.1,1776.475h-41.329a6.96,6.96,0,0,1-6.888-7.03h0a6.962,6.962,0,0,1,6.888-7.031H2147.1" transform="translate(-2097.695 -1761.377)" fill="#e8e8e8"/>
            <path id="패스_28918" data-name="패스 28918" d="M2146.624,1776.446h-42.186a8.145,8.145,0,0,1,0-16.29h42.186v2.228h-42.186a5.917,5.917,0,0,0,0,11.835h42.186Z" transform="translate(-2096.294 -1760.156)" fill="#ff7575"/>
          </g>
          <g id="그룹_18391" data-name="그룹 18391" transform="translate(8.437 31.179)">
            <path id="패스_28919" data-name="패스 28919" d="M2165.467,1745.258h-41.328a6.96,6.96,0,0,1-6.888-7.03h0a6.96,6.96,0,0,1,6.888-7.031h41.328" transform="translate(-2116.06 -1730.159)" fill="#e8e8e8"/>
            <path id="패스_28920" data-name="패스 28920" d="M2164.988,1745.228H2122.8a8.145,8.145,0,0,1,0-16.29h42.185v2.228H2122.8a5.917,5.917,0,0,0,0,11.835h42.185Z" transform="translate(-2114.659 -1728.938)" fill="#ff7575"/>
          </g>
          <g id="그룹_18392" data-name="그룹 18392" transform="translate(4.821 16.735)">
            <path id="패스_28921" data-name="패스 28921" d="M2154.729,1712.893h-39a6.567,6.567,0,0,1-6.5-6.633h0a6.568,6.568,0,0,1,6.5-6.635h39" transform="translate(-2108.111 -1698.648)" fill="#e8e8e8"/>
            <path id="패스_28922" data-name="패스 28922" d="M2154.276,1712.867h-39.8a7.684,7.684,0,1,1,0-15.369h39.8v2.1h-39.8a5.583,5.583,0,1,0,0,11.166h39.8Z" transform="translate(-2106.788 -1697.498)" fill="#907575"/>
          </g>
          <g id="그룹_18393" data-name="그룹 18393" transform="translate(5.791)">
            <path id="패스_28923" data-name="패스 28923" d="M2162.688,1678.151H2118.7a7.41,7.41,0,0,1-7.333-7.484h0a7.41,7.41,0,0,1,7.333-7.484h43.992" transform="translate(-2110.231 -1662.213)" fill="#e8e8e8"/>
            <path id="패스_28924" data-name="패스 28924" d="M2162.338,1678.143h-44.9a8.535,8.535,0,0,1,0-17.071h44.9v2.1h-44.9a6.432,6.432,0,0,0,0,12.865h44.9Z" transform="translate(-2108.899 -1661.072)" fill="#77b8d4"/>
          </g>
        </g>
        <path id="패스_28925" data-name="패스 28925" d="M2170.533,1474.418s1.769,5.133.884,8.5-1.239,6.549.885,7.611,8.142,3.009,7.965,7.964-5.487,5.134-5.31,5.665-22.3.885-22.3.885-3.009-.708-.177-12.39-6.372-3.54-.177-17.7S2166.284,1468.578,2170.533,1474.418Z" transform="translate(-2111.23 -1465.684)" fill="#56514f"/>
        <path id="패스_28926" data-name="패스 28926" d="M2171.871,1478.584c0,5.728-3.533,12.049-8.04,12.049s-8.279-6.322-8.279-12.049,3.653-10.369,8.159-10.369S2171.871,1472.857,2171.871,1478.584Z" transform="translate(-2114.172 -1466.367)" fill="#f2c5a9"/>
        <rect id="사각형_3457" data-name="사각형 3457" width="3.958" height="7.796" transform="translate(47.74 22.347)" fill="#f2c5a9"/>
        <g id="그룹_18395" data-name="그룹 18395" transform="translate(37.001 28.375)">
          <path id="패스_28927" data-name="패스 28927" d="M2172.008,1527.4a32.057,32.057,0,0,0-6.378-1.413l0-.029-.128.013-.127-.013,0,.029a31.211,31.211,0,0,0-6.836,1.581l7.282,17.391Z" transform="translate(-2152.784 -1525.955)" fill="#f4f4f4"/>
          <path id="패스_28928" data-name="패스 28928" d="M2169.348,1531.6a9.042,9.042,0,0,0-4.105-2.5l-6.192,17.558-7.282-17.391a8.426,8.426,0,0,0-3.646,2.334c-2.433,3.137-3.092,8.226-.155,19.071a55.463,55.463,0,0,1,1.077,21.439h19.38a123.94,123.94,0,0,1,3.608-21.779C2174.969,1539.482,2171.781,1534.732,2169.348,1531.6Z" transform="translate(-2146.019 -1527.652)" fill="#689fff"/>
        </g>
        <path id="패스_28929" data-name="패스 28929" d="M2164.354,1521.662l-4.213,3.137,3.675,4.123,2.778-4.571Z" transform="translate(-2116.653 -1495.259)" fill="#fff"/>
        <path id="패스_28930" data-name="패스 28930" d="M2175.892,1522.053l-1.7,2.51,2.42,5.108,2.509-5.108Z" transform="translate(-2124.247 -1495.47)" fill="#fff"/>
        <g id="그룹_18396" data-name="그룹 18396" transform="translate(48.557 50.35)">
          <path id="패스_28931" data-name="패스 28931" d="M2174.29,1575.013a1.225,1.225,0,1,1-1.226-1.226A1.225,1.225,0,0,1,2174.29,1575.013Z" transform="translate(-2171.533 -1573.787)" fill="#ffff42"/>
          <path id="패스_28932" data-name="패스 28932" d="M2173.956,1588.679a1.225,1.225,0,1,1-1.225-1.226A1.225,1.225,0,0,1,2173.956,1588.679Z" transform="translate(-2171.353 -1581.175)" fill="#ffff42"/>
          <path id="패스_28933" data-name="패스 28933" d="M2173.623,1602.346a1.225,1.225,0,1,1-1.225-1.225A1.225,1.225,0,0,1,2173.623,1602.346Z" transform="translate(-2171.173 -1588.563)" fill="#ffff42"/>
        </g>
        <path id="패스_28934" data-name="패스 28934" d="M2167.707,1491.285c0,.531-.248.962-.553.962s-.553-.431-.553-.962.248-.963.553-.963S2167.707,1490.753,2167.707,1491.285Z" transform="translate(-2120.145 -1478.317)" fill="#49392b"/>
        <path id="패스_28935" data-name="패스 28935" d="M2180.8,1491.39c0,.532-.248.963-.554.963s-.553-.43-.553-.963.248-.962.553-.962S2180.8,1490.858,2180.8,1491.39Z" transform="translate(-2127.222 -1478.375)" fill="#49392b"/>
        <path id="패스_28936" data-name="패스 28936" d="M2125.768,1650.49s6.9-.176,7.611,0,.531-7.256.531-7.256l-10.619-.531Z" transform="translate(-2096.732 -1560.692)" fill="#cc9e85"/>
        <path id="패스_28937" data-name="패스 28937" d="M2135.952,1622.493s14.259,13.758,5.791,21.978-39.6-13.2-39.6-13.2l-9.963,40.35-6.226-.5,7.97-48.818,31.882,4.982Z" transform="translate(-2076.546 -1549.664)" fill="#e0b299"/>
        <g id="그룹_18398" data-name="그룹 18398" transform="translate(19.943 80.283)">
          <path id="패스_28938" data-name="패스 28938" d="M2119.041,1643.139a4.193,4.193,0,0,0-4.193-4.192c-5.737-.22-5.958,7.173-5.958,9.488l4.474,39.448,5.677-.116Z" transform="translate(-2108.89 -1638.942)" fill="#f2c5a9"/>
          <g id="그룹_18397" data-name="그룹 18397" transform="translate(3.233 48.825)">
            <path id="패스_28939" data-name="패스 28939" d="M2119.147,1761.337c2.853-.563,3.952-3.573,4.33-5.094a36.591,36.591,0,0,0-.614-7.769v-3.255l-5.677.116.381,3.36a48.849,48.849,0,0,0-1.606,9.481C2116.18,1759.86,2116.911,1761.779,2119.147,1761.337Z" transform="translate(-2115.945 -1745.219)" fill="#fff"/>
            <path id="패스_28940" data-name="패스 28940" d="M2119.129,1774.309c-2.236.442-2.967-1.477-3.187-3.161-.129,3.425.543,6.33,3.372,5.745,3.043-.63,3.988-4.154,4.145-7.678C2123.081,1770.736,2121.983,1773.746,2119.129,1774.309Z" transform="translate(-2115.927 -1758.191)" fill="#665f5b"/>
          </g>
          <path id="패스_28941" data-name="패스 28941" d="M2116.381,1765.658l-.152-.434c.182-.063,4.48-1.532,7.52-.04l-.2.413C2120.678,1764.186,2116.423,1765.643,2116.381,1765.658Z" transform="translate(-2112.857 -1706.826)" fill="#665f5b"/>
        </g>
        <path id="패스_28942" data-name="패스 28942" d="M2084.231,1731.1c-.541-1.017-1.13-2.189-.946-2.147.322.071,1.234-6.316,1.234-6.316l-6.53-.267-1.09,5.672-6.473,8.184C2071.29,1738.069,2074.233,1740.024,2084.231,1731.1Z" transform="translate(-2068.154 -1603.757)" fill="#fff"/>
        <path id="패스_28943" data-name="패스 28943" d="M2081.558,1741.371c-10,8.927-12.941,6.971-13.806,5.125l-.574.726s-6.744,6.782,6.655,2.289c0,0,5.813-3.811,8.514-6.692C2082.347,1742.82,2081.966,1742.139,2081.558,1741.371Z" transform="translate(-2065.481 -1614.031)" fill="#605c5a"/>
        <path id="패스_28944" data-name="패스 28944" d="M2080.276,1749.174a8.438,8.438,0,0,0-4.056-4.141l.16-.43a8.72,8.72,0,0,1,4.308,4.37Z" transform="translate(-2071.286 -1615.777)" fill="#665f5b"/>
        <path id="패스_28945" data-name="패스 28945" d="M2137.544,1620.742l-1.594,4.248-11.5-2.3s6.2,6.018,3.717,16.107c0,0,35.223,14.514,37.169,1.593,0,0,2.861-6.86-8.57-18.74Z" transform="translate(-2097.356 -1548.82)" fill="#5489d6"/>
        <path id="패스_28946" data-name="패스 28946" d="M2218.452,1658.988c.121-.025.024-.306.323-.154a11.2,11.2,0,0,0,.333,3.556c.547,1.334,1.882,2.174,2,3.678.069.9-2.314,8.265.227,4.828a14.244,14.244,0,0,0,2.075-7.837c-.112-1.418-1.932-6.226-3.718-5.133" transform="translate(-2148.175 -1568.835)" fill="#f2c5a9"/>
        <path id="패스_28947" data-name="패스 28947" d="M2192.253,1530.817s7.08-1.416,9.026,4.957,3.364,30.8,3.364,30.8l3.893,24.071-4.425,1.24-5.31-29.912-2.3-13.275S2196.324,1536.482,2192.253,1530.817Z" transform="translate(-2134.012 -1500.136)" fill="#fff"/>
        <path id="패스_28948" data-name="패스 28948" d="M2169.678,1466.377c-1.47,4.013,5.893,6.372,8.142,8.634a8.515,8.515,0,0,1,2.262,4.857,8.133,8.133,0,0,1,0,3.677c-.306,1.1-1.433,2.316-1.2,3.54.454,2.414,5.173,2.7,7.045,3.89,2.407,1.529,3.732,3.294,3.584,6.2a15.5,15.5,0,0,1-2.318,7.65c-1.108,1.871-1.844,4.929-.167,6.824.885,1,2.146.956,3.308,1.46-1.562-.155-1.973-3.532-2.071-4.827-.172-2.292,1.045-3.031,2.08-4.779,1.572-2.653,2.927-7.93.407-10.364a35.521,35.521,0,0,0-4.429-3.088c-1.292-.884-2.92-1.169-3.594-2.615-1.44-3.091,1-7.472,1.287-10.62.368-4.076-3.257-7.5-6.017-10.1-2.292-2.152-7.121-4.331-8.5-.167" transform="translate(-2121.704 -1464.192)" fill="#56514f"/>
        <path id="패스_28949" data-name="패스 28949" d="M2117.107,1506.962s-4.425-3.363-9.027-2.124-13.806,3.186-13.806,3.186l19.824-17.876-2.3-4.249-26.9,23.718s-3.009,4.6,5.133,5.664,19.293-4.248,22.833,2.478Z" transform="translate(-2075.682 -1475.926)" fill="#fff"/>
        <path id="패스_28950" data-name="패스 28950" d="M2159.064,1467.931c-.5.414-.377,1.336-.655,2.163a9.611,9.611,0,0,1-1.867,2.97c-.984,1.17-2.327,1.739-3.275,2.871-2.188,2.614-2.643,6.835-.619,9.522,1.232,1.636,2.164,2.891,1.99,5.085s-1.829,3.323-2.875,5.036c-1.1,1.807-1.856,4.079-.319,5.814a4.6,4.6,0,0,0,2.486,1.41c.263.034,2.688-.272,1.771-.913,0-.033,0-.066,0-.1-.018,1.929-.235,3.591-2.292,4.194-2.472.724-3.6-.5-4.3-2.521-1.252-3.6.737-5.6,1.269-8.984.518-3.3-.587-5.605-1.407-8.672a20.51,20.51,0,0,1-.314-9.734c.741-3.1,2.172-6.5,4.611-8.634,2.2-1.928,5.822-3.477,6.522.322-.108.364-.165.02-.376-.007" transform="translate(-2110.205 -1464.861)" fill="#56514f"/>
        <path id="패스_28951" data-name="패스 28951" d="M2143.535,1479.965c2.3-1.8,2.286-3.567,5.137-4.381a35.567,35.567,0,0,0,5.27-1.972c.478,1.559-1.5,2.652-2.615,3.3a10.828,10.828,0,0,0-3.234,2.665c-.991,1.176-2.276,3.014-3.84,3.4-1.766.434-2.648-1.9-.9-2.477" transform="translate(-2107.065 -1469.284)" fill="#fcd1b9"/>
      </g>
      <g id="그룹_18400" data-name="그룹 18400" transform="translate(-13946.141 331.66)">
        <path id="패스_28952" data-name="패스 28952" d="M1719.408,1607.686c-4.024-1.254-8.48,1.131-10.956,5.494l-2.018,1.552a21.613,21.613,0,0,0,.527,2.294c-1.166,5.507,2.8,8.88,7.352,10.3,4.828,1.5,8.487.245,10.389-5.861S1724.235,1609.189,1719.408,1607.686Z" transform="translate(-1704.053 -1603.889)" fill="#f2c5a9"/>
        <path id="패스_28953" data-name="패스 28953" d="M1728.274,1649.521l1.174,5.219,2.74-.913.652-5.089Z" transform="translate(-1715.86 -1626.262)" fill="#f2c5a9"/>
        <path id="패스_28954" data-name="패스 28954" d="M1730.745,1656.544a7.052,7.052,0,0,0-6.524,2.218l-2.479,4.7s5.219-6.784,14.353-2.609Z" transform="translate(-1712.328 -1630.414)" fill="#fff"/>
        <path id="패스_28955" data-name="패스 28955" d="M1714.716,1814.045l3.832,20.691,7.152,39.849-5.109,8.685s7.24-4.439,8.174-5.62l2.043-3.32-1.533-2.3s3.576-21.457-2.81-37.8l2.554-9.2Z" transform="translate(-1708.53 -1715.624)" fill="#f2c5a9"/>
        <path id="패스_28956" data-name="패스 28956" d="M1742.442,1841.472l1.386,6.8,11.21,38.289.5,9.571,4.534-8.69-1.889-1.889s-1.133-28.59-6.549-36.022l-1.008-9.069Z" transform="translate(-1723.518 -1729.906)" fill="#f2c5a9"/>
        <path id="패스_28957" data-name="패스 28957" d="M1718.828,1663.526l-4.419,2.369s-3.279,31.3,1.027,41.6l19.181-1.957s-3.262-1.827-2.479-7.569,5.741-27.27,3-31.838S1723.395,1659.48,1718.828,1663.526Z" transform="translate(-1707.718 -1633.09)" fill="#e5e5e5"/>
        <path id="패스_28958" data-name="패스 28958" d="M1715.091,1741.826s9.656,3,16.962-.783l.131,3.524s7.307,9.916,5.61,20.355-1.16,22.8-2.042,25.324c-.1.274-21.314-.272-20.923-.272s-3.131-18.921-1.175-39.014Z" transform="translate(-1707.635 -1676.16)" fill="#b53930"/>
        <path id="패스_28959" data-name="패스 28959" d="M1748.922,1773.7c.678,1.519-3.813,7,.913,6.919,2.821-.05,2.045-4.814,1.937-6.769a11.9,11.9,0,0,1-2.2-.151" transform="translate(-1726.33 -1693.817)" fill="#f2c5a9"/>
        <rect id="사각형_3458" data-name="사각형 3458" width="28.967" height="21.269" transform="translate(8.072 85.926) rotate(-8.016)" fill="#3d3d3d"/>
        <path id="패스_28960" data-name="패스 28960" d="M1753.551,1670.865s2.349-1.044,4.176,11.221,2.74,18.921,2.74,19.312-7.177,18.528-7.177,18.528l-4.566-1.7,5.871-16.832-1.044-10.569S1756.422,1673.605,1753.551,1670.865Z" transform="translate(-1726.914 -1638.211)" fill="#fff"/>
        <path id="패스_28961" data-name="패스 28961" d="M1721.137,1604.145c-2.531-.519-1.885-3.786.554-4.273a6.22,6.22,0,0,1,2.7.37c1.149.238,2.356.293,3.509.46,3.135.454,6.332-.316,8.671,2.444,2.125,2.508,2.056,6.12,1.408,9.117a17.716,17.716,0,0,1-1.873,4.849c-.833,1.515-2.153,2.632-3.133,4.04.927.972,2.546,1.028,3.507,2.218a14.044,14.044,0,0,1,2.2,5.577c1.033,4.754-.68,9.04-2.128,13.473-1.11,3.4-2.148,7.525-.162,10.751a5.321,5.321,0,0,0,2.131,2.284,5.156,5.156,0,0,0,2,.186c-2.322.48-4.429,1.6-6.813.371-4.229-2.18-5.359-7.366-5.362-11.736,0-4.016,2.277-7.94,2.85-11.913.343-2.376.308-4.751.687-7.115a9.362,9.362,0,0,0,.162-2.7c-.149-.986-.429-.881-1.386-1.037-1.894-.309-2.689-1.546-3.585-3.215-.719-1.339-.544-2.9-1.223-4.253-.775-1.544-1.831-2.716-2.383-4.442a25.4,25.4,0,0,0-.92-3.046,11.812,11.812,0,0,0-1.366-2.6c.137-.063.283-.22.417-.262" transform="translate(-1711.129 -1599.814)" fill="#544b46"/>
        <path id="패스_28962" data-name="패스 28962" d="M1725.972,1950.4s-2.141,3.527-4.912,3.905c0,0,5.667,3.274,8.06.125s2.771-4.409,2.771-4.409l1.134,5.417.756-.378s2.3-7.616.458-9.79C1734.238,1945.266,1726.349,1956.189,1725.972,1950.4Z" transform="translate(-1711.96 -1786.56)" fill="#897b74"/>
        <path id="패스_28963" data-name="패스 28963" d="M1765.369,1947.019s-.6,3.6-2.746,4.818c0,0,5.726.823,6.654-2.547a15.576,15.576,0,0,0,.824-4.527l2.711,4.07.5-.558s-.616-7.005-2.843-8.183C1770.464,1940.092,1767.584,1951.648,1765.369,1947.019Z" transform="translate(-1734.428 -1783.763)" fill="#897b74"/>
        <rect id="사각형_3459" data-name="사각형 3459" width="5.973" height="10.107" transform="translate(10.396 90.121) rotate(-9.652)" fill="#fff"/>
        <path id="패스_28964" data-name="패스 28964" d="M1726.012,1788.1a.918.918,0,0,1-1.259.319h0a.918.918,0,0,1-.32-1.259l18.677-31.386a.919.919,0,0,1,1.26-.32h0a.919.919,0,0,1,.32,1.26Z" transform="translate(-1713.714 -1683.88)" fill="#ff9a61"/>
        <path id="패스_28965" data-name="패스 28965" d="M1740.823,1778.1c.957.85,1.8.984,2.384,2.479a7.929,7.929,0,0,1,.467,3.5,2.328,2.328,0,0,0-.35,0c-.233-1.035-.168-1.431-1.066-1.807-.824-.345-1.318.039-2.055-.685-1.421-1.4-.642-2.394.228-3.621" transform="translate(-1721.884 -1696.121)" fill="#f2c5a9"/>
        <path id="패스_28966" data-name="패스 28966" d="M1707.924,1670.607c-.288.713-1.952.723-2.514,1.827-.805,1.579-.794,4.193-1.041,5.964-.667,4.791-1.011,9.623-1.671,14.4-.418,3.028-.352,6.089-.9,9.1-.243,1.325-.411,2.732-.532,4.07-.158,1.749,1.271,2.914,2.254,4.31a43.248,43.248,0,0,0,6.72,7.205c1.6,1.45,3.28,2.573,4.87,3.987.963.856,1.394,2.2,2.734,1.566,1.22-.577,2.141-2.361,3.118-3.258a17.952,17.952,0,0,0-3.017-2.323,16.816,16.816,0,0,1-3.233-3.262c-1.857-2.425-4.5-4.938-5.836-7.594-.67-1.329-.319-2.715-.01-4.153.483-2.253,1.218-4.382,1.537-6.676.627-4.506.926-9.036,1.471-13.547.431-3.569,1.2-10.883-3.929-11.329-.078.343.148.306.375.5" transform="translate(-1701.252 -1638.084)" fill="#fff"/>
      </g>
    </g>
    <g id="그룹_18402" data-name="그룹 18402" transform="translate(15642.418 -128.268)">
      <g id="그룹_18371" data-name="그룹 18371" transform="translate(-14849.304 447.818)">
        <g id="그룹_18365" data-name="그룹 18365" transform="translate(26.021 80.129)">
          <path id="패스_28825" data-name="패스 28825" d="M458.314,1690.486l5.648,19.118,5.5,34.9,3.911-1.013s-4.2-34.324-4.056-34.759-.435-16.221-.435-16.221Z" transform="translate(-458.314 -1690.486)" fill="#f2c5a9"/>
          <path id="패스_28826" data-name="패스 28826" d="M489.208,1700.736l3.186,14.193,20.421,27.518,2.462-2.028s-11.152-21.145-16.655-27.083V1699Z" transform="translate(-475.015 -1695.088)" fill="#f2c5a9"/>
          <path id="패스_28827" data-name="패스 28827" d="M479.607,1792.941l1.033,8.615-10,4.328,5.053-5.991-1.159-5.428Z" transform="translate(-464.979 -1745.872)" fill="#fff"/>
          <path id="패스_28828" data-name="패스 28828" d="M476.349,1808.029l1.217,5.42-2.974.894-.635-1.082-.621,1.1-10.14.431,6.209-3.65S472.393,1813.5,476.349,1808.029Z" transform="translate(-460.953 -1754.028)" fill="#605c5a"/>
          <path id="패스_28829" data-name="패스 28829" d="M535.464,1776.977l4.165,7.613-7.667,7.737,2.46-7.441-3.1-4.608Z" transform="translate(-497.783 -1737.241)" fill="#fff"/>
          <path id="패스_28830" data-name="패스 28830" d="M536.1,1790.359l3.147,4.577-2.428,1.936-.992-.768-.165,1.256-9.252,4.174,4.4-5.7S534.46,1796.906,536.1,1790.359Z" transform="translate(-495.124 -1744.476)" fill="#605c5a"/>
        </g>
        <path id="패스_28831" data-name="패스 28831" d="M443.359,1638.561l-12.418,25.386s39.459,8.553,49.668-5.519l-19.039-24.281S447.223,1631.387,443.359,1638.561Z" transform="translate(-417.496 -1579.619)" fill="#5489d6"/>
        <path id="패스_28832" data-name="패스 28832" d="M439.164,1636.837c-2.122,5.294-4.565,10.732-6.691,15.936-1.8,4.394-5.193,9.753-9.292,12.285,1.318.7,6.391,3.19,7.552,2.655,2.218-1.022,5.364-9.347,6.3-11.624,1.738-4.23,6.627-15.151,5.167-19.528" transform="translate(-413.3 -1581.206)" fill="#689fff"/>
        <path id="패스_28833" data-name="패스 28833" d="M458.6,1632.9s1.38,24.006-3.035,31.18l6.346,1.1,2.207-32.559s4.139,30.076,2.484,32.835l7.45-.552-4.967-32.836,8.278,32.836,8.83-2.484-13.521-30.628,19.039,29.8,7.45-5.519s-17.66-17.935-24.282-24.834C474.884,1631.24,464.4,1623.513,458.6,1632.9Z" transform="translate(-430.808 -1576.712)" fill="#689fff"/>
        <path id="패스_28834" data-name="패스 28834" d="M454.615,1626.01l-1.449,4.967,23.178-1.38-4.057-7.45Z" transform="translate(-429.51 -1573.414)" fill="#fff"/>
        <path id="패스_28835" data-name="패스 28835" d="M426.417,1528.263c0,4.978-3.375,11.634-7.663,11.634s-7.865-6.656-7.865-11.634,3.476-9.011,7.764-9.011S426.417,1523.287,426.417,1528.263Z" transform="translate(-406.656 -1517.79)" fill="#f2c5a9"/>
        <g id="그룹_18366" data-name="그룹 18366" transform="translate(12.067 21.14)">
          <path id="패스_28836" data-name="패스 28836" d="M460.224,1592.714s-7.174-21.246-16.556-30.628l-3.837.887,3.484,14.591-12.675-9.673-2.7,4.68s7.726,6.622,8,12.141l4.967,5.519-.828,4.415Z" transform="translate(-427.94 -1562.086)" fill="#689fff"/>
          <path id="패스_28837" data-name="패스 28837" d="M443.008,1564.016l-2.259.523-5.493,1.9-1.439,2.494,12.675,9.673Z" transform="translate(-431.117 -1563.129)" fill="#fff"/>
        </g>
        <path id="패스_28838" data-name="패스 28838" d="M429.489,1560.246l3.769,4.648,5.4,1.382-.251-4.522-6.282-2.89Z" transform="translate(-416.711 -1539.204)" fill="#f2c5a9"/>
        <path id="패스_28839" data-name="패스 28839" d="M415.428,1560.461c.455-.953-.484-3.626-.908-4.588a12.209,12.209,0,0,0-1.909-2.788c-1.175-1.324-3.973-3.2-3.028-.027.562,1.888,1.431,3.376,1.731,5.288.22,1.4,1.493,4.539,3.416,2.819.5-.445.459-1.2.934-1.645" transform="translate(-405.846 -1535.124)" fill="#f2c5a9"/>
        <path id="패스_28840" data-name="패스 28840" d="M403.15,1561.6c-1.526-.723-1.605-5.367-1.384-6.932.183-1.3,2.208-4.741,2.559-1.88a30.552,30.552,0,0,0,1.2,5.731c.249.792.76,1.968.3,2.823a2.279,2.279,0,0,1-2.418.939.913.913,0,0,1-.493-.916" transform="translate(-401.674 -1535.32)" fill="#f2c5a9"/>
        <g id="그룹_18367" data-name="그룹 18367" transform="translate(0.017 25.049)">
          <path id="패스_28841" data-name="패스 28841" d="M419.737,1592.385h.118c0-1.754.094-3.271-.7-4.818a42.269,42.269,0,0,0-4.23-6.227c-.533-.688-1.511-2.345-2.35-2.349-1,0-1.013.982-1.172,1.765a24.47,24.47,0,0,0-.362,2.959c-.09,1.174,1.4,5.424.594,6.438-1.408-.451-2.623-4.91-2.824-6.146-.28-1.732-.655-3.419-1.053-5.131-.655-2.813-1.325-5.506-1.744-8.282l-4.3.788c.092,1.545.249,3.092.426,4.548.827,6.75,2.089,16.76,8.845,20.454,1.941,1.062,5.351,1.453,7.226,0C419,1595.776,420.731,1593.128,419.737,1592.385Z" transform="translate(-401.712 -1570.594)" fill="#fff"/>
        </g>
        <path id="패스_28842" data-name="패스 28842" d="M418.006,1543.164c0,.641-.292,1.16-.652,1.16s-.651-.519-.651-1.16.292-1.158.651-1.158S418.006,1542.525,418.006,1543.164Z" transform="translate(-409.798 -1530.091)" fill="#49392b"/>
        <path id="패스_28843" data-name="패스 28843" d="M437.394,1543.479c0,.64-.292,1.158-.651,1.158s-.651-.518-.651-1.158.292-1.159.651-1.159S437.394,1542.839,437.394,1543.479Z" transform="translate(-420.279 -1530.261)" fill="#49392b"/>
        <path id="패스_28844" data-name="패스 28844" d="M413.112,1520.309c1.1.209,2.176,1.766,3.034,2.495a16.682,16.682,0,0,0,3.194,2.1c2.168,1.119,4.26,1.254,6.492,1.9.118-2.027.608-5.534-.3-7.368-1.112-2.251-4.169-2.863-6.339-3.193-2.284-.348-4.63-.354-6.192,1.629a9.377,9.377,0,0,0-.728,1.307,3.439,3.439,0,0,1-.868,1.162,5.768,5.768,0,0,0-1.778,2.861,7.471,7.471,0,0,0,.178,3.309c1.845-.321,3.591-4.526,3.45-6.206" transform="translate(-405.918 -1516.071)" fill="#49392b"/>
        <path id="패스_28845" data-name="패스 28845" d="M443.5,1528.054c.645-2,5.407-1.865,7.242-1.342,3.543,1.008,4.777,3.9,5.5,7.279.584,2.723.559,6.37,3.476,7.717,2.314,1.068,4.1-.118,4.076-2.627,2.392.689-.472,4.431-1.611,5.155a8.976,8.976,0,0,1-8.952-.138,16.241,16.241,0,0,1-6.231-8.834c-.663-2.23-1.318-4.575-3.07-6.2" transform="translate(-424.284 -1521.643)" fill="#49392b"/>
        <path id="패스_28846" data-name="패스 28846" d="M495.151,1588.655c-8.8-10.833-24.828-20.353-24.989-20.448l.934-1.583c.668.394,16.469,9.779,25.481,20.871Z" transform="translate(-438.698 -1543.4)" fill="#7f5d54"/>
        <rect id="사각형_3454" data-name="사각형 3454" width="1.838" height="18.792" transform="matrix(0.885, -0.465, 0.465, 0.885, 31.672, 34.427)" fill="#7f5d54"/>
        <g id="그룹_18369" data-name="그룹 18369" transform="translate(37.432 43.124)">
          <path id="패스_28847" data-name="패스 28847" d="M508.3,1630.735l-21.514,5.416-3.631-20.1,20.169-5.077Z" transform="translate(-483.152 -1610.496)" fill="#6d544b"/>
          <g id="그룹_18368" data-name="그룹 18368" transform="translate(3.093)">
            <path id="패스_28848" data-name="패스 28848" d="M511.4,1616.44l-2.56-6.5-18.959,4.772,2.338,7.024c3.291-.041,12.588.015,12.588.015Z" transform="translate(-489.884 -1609.938)" fill="#916d61"/>
            <path id="패스_28849" data-name="패스 28849" d="M519.123,1636.711l-4.97-12.622-6.594,5.31s-9.3-.056-12.588-.015l4.117,12.369Z" transform="translate(-492.634 -1617.588)" fill="#7f5d54"/>
          </g>
          <path id="패스_28850" data-name="패스 28850" d="M520.14,1634.222a1.764,1.764,0,0,1-1.69-1.24l-.711-2.256a1.773,1.773,0,0,1,1.158-2.224,1.771,1.771,0,0,1,2.224,1.157l.711,2.256a1.775,1.775,0,0,1-1.692,2.306Zm-.71-4.883a.864.864,0,0,0-.257.04.855.855,0,0,0-.558,1.071l.71,2.256a.854.854,0,1,0,1.63-.513l-.71-2.256A.851.851,0,0,0,519.43,1629.339Z" transform="translate(-501.804 -1619.929)" fill="#fff"/>
        </g>
        <g id="그룹_18370" data-name="그룹 18370" transform="translate(5.822 20.986)">
          <path id="패스_28851" data-name="패스 28851" d="M442.455,1565.13c-1.135-1.91-3.6-3.628-5.927-3.349-.419.051-.361-.112-.561.209l-.118.117c-1.114,2.557-2.119,22.134-5.613,21.244-.832-.211-1.829-1.771-2.35-2.415-1.426-1.761-2.217-3.765-3.522-5.584a41.679,41.679,0,0,1-4.259-6.639c-.562-1.21-1.22-2.479-1.91-3.665l-3.848,1.258c.491,1.008.933,2.045,1.413,3.06,1.685,3.568,2.633,7.489,4.37,11.046,1.449,2.964,3.045,6.638,5.7,8.721,2.868,2.248,6.761,3,9.9,1.063,3.846-2.369,6.191-8.237,7.262-12.375C443.987,1573.979,444.6,1568.733,442.455,1565.13Z" transform="translate(-414.347 -1561.751)" fill="#fff"/>
        </g>
      </g>
      <g id="그룹_18378" data-name="그룹 18378" transform="translate(-14899.739 439.268)">
        <g id="그룹_18375" data-name="그룹 18375" transform="translate(0.481 82.452)">
          <path id="패스_28870" data-name="패스 28870" d="M336.073,1676.932s17.247,31.375,17.8,31.559,13.211,32.108,13.945,32.292,4.036-2.385,4.036-2.385l-13.027-33.026-4.587-15.963Z" transform="translate(-316.257 -1676.932)" fill="#e5b9a1"/>
          <path id="패스_28871" data-name="패스 28871" d="M337.376,1678.131l-15.045,33.21L310.4,1743.632l-3.486-3.67,10.459-30.09,3.853-21.1Z" transform="translate(-300.496 -1677.58)" fill="#f2c5a9"/>
          <path id="패스_28872" data-name="패스 28872" d="M406.309,1803.533l-5.137,3.119s2.2,6.055,2.752,6.238,10.275-1.1,10.275-1.1l-6.238-4.037Z" transform="translate(-351.449 -1745.371)" fill="#fff"/>
          <path id="패스_28873" data-name="패스 28873" d="M303.852,1801.936l4.954,2.2-2.018,6.789,2.752,6.238-11.009-5.871S300.917,1809.826,303.852,1801.936Z" transform="translate(-295.962 -1744.507)" fill="#fff"/>
          <path id="패스_28874" data-name="패스 28874" d="M404.367,1818.311l.917,6.6h4.037l.55-1.835,1.835,2.019,10.092-4.587-7.522-1.835S411.339,1822.715,404.367,1818.311Z" transform="translate(-353.176 -1753.359)" fill="#605c5a"/>
          <path id="패스_28875" data-name="패스 28875" d="M305.05,1819.669l3.853,7.89-9.357-3.67-2.018-3.853-2.2,1.652-2.386-1.835,3.853-5.138S300.647,1823.155,305.05,1819.669Z" transform="translate(-292.94 -1751.415)" fill="#605c5a"/>
        </g>
        <g id="그룹_18376" data-name="그룹 18376" transform="translate(2.897 60.9)">
          <path id="패스_28876" data-name="패스 28876" d="M320.386,1633.383s-2.252,29.142-11.053,33.624c0,0-.41,2.689,7.471,3.25s26.4,1.794,34.592-7.733l-17.705-32.5-13.407.673Z" transform="translate(-304.216 -1630.02)" fill="#5489d6"/>
          <path id="패스_28877" data-name="패스 28877" d="M313.755,1634.654s-.512,18.942-9.109,26.115l-6.447,6.052,6.14,5.157s12.486-9.752,11.668-37.212Z" transform="translate(-298.199 -1632.525)" fill="#689fff"/>
          <path id="패스_28878" data-name="패스 28878" d="M326.484,1634.636s3.173,26.115-8.9,38.333l8.393,1.681s4.605-20.623,4.4-40.237Z" transform="translate(-308.676 -1632.394)" fill="#689fff"/>
          <path id="패스_28879" data-name="패스 28879" d="M347.052,1633.375s1.945,30.375-.512,39.342l8.7-.672-4.708-39.342Z" transform="translate(-324.331 -1631.47)" fill="#689fff"/>
          <path id="패스_28880" data-name="패스 28880" d="M356.564,1632.156s3.889,34.746,7.267,39.23c0,0,8.8-2.242,8.495-2.354s-14.021-29.254-13.919-37.547Z" transform="translate(-329.75 -1630.811)" fill="#689fff"/>
          <path id="패스_28881" data-name="패스 28881" d="M363.19,1630.66s13.043,27.951,22.356,28.287l-10.235,7.734s-14.226-28.469-14.738-35.642Z" transform="translate(-331.918 -1630.366)" fill="#689fff"/>
        </g>
        <path id="패스_28882" data-name="패스 28882" d="M361.091,1549.348a13.66,13.66,0,0,1-1.239-3.3c-.433-1.709.033-2.1.509-3.5.36-1.056,1.02-1.006-.326-2.06-.916-.718-1.668-.965-2.436.073-1.392-1.328,1.592-2.3,2.569-2.229,2.073.142,2.252,1.778,2.985,3.445a6.187,6.187,0,0,1-.4,6.7c-.616.6-1.7.565-1.845.872" transform="translate(-327.217 -1519.554)" fill="#f2c5a9"/>
        <rect id="사각형_3455" data-name="사각형 3455" width="3.822" height="7.203" transform="translate(18.205 21.541)" fill="#f2c5a9"/>
        <path id="패스_28883" data-name="패스 28883" d="M344.46,1576.287s11.192,10.825,15.045,8.624-2.569-28.991-2.569-28.991l-4.4,1.1,2.936,19.633-8.44-11.927Z" transform="translate(-320.31 -1529.062)" fill="#fff"/>
        <g id="그룹_18377" data-name="그룹 18377" transform="translate(16.082 27.013)">
          <path id="패스_28884" data-name="패스 28884" d="M344.493,1589.378a18.75,18.75,0,0,1-1.517-5.464c-.526-4.749.712-5.4.464-10.231-.323-6.291-7.139-18.285-14.294-17.376v.56c-.062,1.725-1.227,3.29-1.681,4.976a23.361,23.361,0,0,0-.561,6.453c.06,5.474,2.921,10.316,3.091,15.742a19.254,19.254,0,0,1-.4,4.852C330.78,1589.485,336.271,1592.769,344.493,1589.378Z" transform="translate(-326.898 -1556.259)" fill="#689fff"/>
          <path id="패스_28885" data-name="패스 28885" d="M347.118,1627.776c-8.222,3.39-13.713.107-14.9-.487-.067.522-.13,1.174-.176,2.071a15.541,15.541,0,0,1-.29,2.155c2.471,1.149,9.817,3.846,16.645-.761C347.964,1629.7,347.522,1628.737,347.118,1627.776Z" transform="translate(-329.523 -1594.657)" fill="#fff"/>
        </g>
        <path id="패스_28886" data-name="패스 28886" d="M334.692,1514.71l-1.938-2.394a14.365,14.365,0,0,0-.746-4.074,9.938,9.938,0,0,0-18.722,6.662c1.808,5.08,8.878,10.962,14.048,9.123,3.034-1.08,4.737-4.579,5.263-8.312Z" transform="translate(-303.156 -1499.8)" fill="#f2c5a9"/>
        <path id="패스_28887" data-name="패스 28887" d="M329.883,1557.3l.581-3.207,5.009,1.5.061,1.619Z" transform="translate(-312.43 -1528.076)" fill="#fff"/>
        <path id="패스_28888" data-name="패스 28888" d="M349.894,1522.37a.6.6,0,1,1-.578-.751A.683.683,0,0,1,349.894,1522.37Z" transform="translate(-322.623 -1510.52)" fill="#49392b"/>
        <path id="패스_28889" data-name="패스 28889" d="M337.052,1636.6c1.163.079,1.889,1.5,2.018,2.568.191,1.583-.806,2.1-1.339,3.446-.95,2.389.489,4.1.211,6.434-1.352.15-2.988-4.981-3.234-6.25a10.222,10.222,0,0,1-.05-3.812c.476-1.1,1.86-1.16,2.211-2.386" transform="translate(-314.921 -1572.675)" fill="#f2c5a9"/>
        <path id="패스_28890" data-name="패스 28890" d="M310.722,1560.311c-.12.217-1.838.177-2.569.51a8.092,8.092,0,0,0-2.757,2.61c-1.637,2.1-3.006,4.38-4.761,6.422-2.971,3.453-6.927,6.782-8.742,11.05a45.054,45.054,0,0,0,5.068,4.545c2.272,2.015,4.328,4.2,6.564,6.248,2.816,2.577,5.88,5.073,8.849,7.311a14.486,14.486,0,0,0,2-3.642c-2.257-2.844-4.835-5.579-7.312-8.266-2.03-2.2-5.185-4.494-6.775-6.972,2.536-1.523,4.6-3.449,7.5-4.541a10.878,10.878,0,0,1,3.482-.964c1.469-.061,2.2.4,3.257-.964,2.956-3.819,1.31-12.085-3.753-13.35a2.519,2.519,0,0,1,.679.187" transform="translate(-291.893 -1531.434)" fill="#fff"/>
        <path id="패스_28891" data-name="패스 28891" d="M323.26,1500.465c0,5.734-3.553,10.092-4.628,15.412-.474,2.347-1.077,5.908,1.138,7.522,3.771,2.749,4.469-2.917,2.261-2.568,3.555-.395,3.58,4.552.5,5.514a18.984,18.984,0,0,1-8.95-.233c-5.707-1.856-6.029-11.947-6.279-16.839-.27-5.278,2.53-9.89,7.716-11.377a11.465,11.465,0,0,1,6.412.041c1.87.676,3.514,2.1,5.49,2.192-.815.97-2.456,1.047-3.664.77.059.247-.083.282-.174.482" transform="translate(-300.21 -1497.459)" fill="#5e392b"/>
      </g>
      <g id="그룹_18388" data-name="그룹 18388" transform="translate(-14685.135 460.797)">
        <g id="그룹_18380" data-name="그룹 18380" transform="translate(27.162 74.4)">
          <path id="패스_28892" data-name="패스 28892" d="M901.268,1874.006l1.456,6.832s6.5,3.472,9.3-2.241h-5.04a56.192,56.192,0,0,1-2.016-5.711C905.077,1872.549,901.268,1874.006,901.268,1874.006Z" transform="translate(-863.078 -1796.312)" fill="#f2c5a9"/>
          <g id="그룹_18379" data-name="그룹 18379" transform="translate(0 78.142)">
            <path id="패스_28893" data-name="패스 28893" d="M839.065,1876.357v4.256l-4.592,3.248s4.592,3.584,8.063-.672l-.335-6.72Z" transform="translate(-826.969 -1876.357)" fill="#f2c5a9"/>
            <path id="패스_28894" data-name="패스 28894" d="M829,1887.328l-10.863,4.816s3.52,3.235,10.863.784c.336-.112.672,1.12.672,1.12l5.152-.672-.9-5.823-6.832,3.024,2.24-2.464Z" transform="translate(-818.14 -1882.288)" fill="#605c5a"/>
          </g>
          <path id="패스_28895" data-name="패스 28895" d="M903.948,1885.464l.784,5.376,2.576.224.9-1.232s7.728.9,9.632-6.16l-8.288.783-.336,1.568a5.983,5.983,0,0,0,1.12.783C910.669,1886.919,903.836,1887.815,903.948,1885.464Z" transform="translate(-864.526 -1802.17)" fill="#605c5a"/>
          <path id="패스_28896" data-name="패스 28896" d="M838.932,1716.936l-3.473,34.485,3.473,33.989,4.466-.249-.248-34.236,8.187-26.3,13.893,60.286,5.21-.992-9.179-68.97-9.179-8.683-8.435,1.241Z" transform="translate(-827.502 -1706.268)" fill="#5489d6"/>
        </g>
        <path id="패스_28897" data-name="패스 28897" d="M842.023,1698.759l-3.24,14.454,12.71,1.246,1.246-6.978,2.492,7.476,10.965-3.239-5.233-13.707Z" transform="translate(-802.138 -1627.405)" fill="#fff"/>
        <rect id="사각형_3456" data-name="사각형 3456" width="4.838" height="9.529" transform="translate(47.489 23.338)" fill="#f2c5a9"/>
        <g id="그룹_18383" data-name="그룹 18383" transform="translate(34.907 30.167)">
          <g id="그룹_18381" data-name="그룹 18381">
            <path id="패스_28898" data-name="패스 28898" d="M865.338,1611.455a32.773,32.773,0,0,0-6.489-1.438l0-.029-.13.015-.13-.015,0,.029a31.817,31.817,0,0,0-6.955,1.609l7.408,17.693Z" transform="translate(-843.99 -1609.988)" fill="#f4f4f4"/>
            <path id="패스_28899" data-name="패스 28899" d="M860.525,1615.727a9.188,9.188,0,0,0-4.177-2.545l-6.3,17.864-7.409-17.693a8.578,8.578,0,0,0-3.71,2.374c-2.476,3.192-5.72,8.025-2.732,19.058a126.083,126.083,0,0,1,3.671,22.158h19.717a126.058,126.058,0,0,1,3.671-22.158C866.245,1623.751,863,1618.918,860.525,1615.727Z" transform="translate(-835 -1611.714)" fill="#689fff"/>
          </g>
          <g id="그룹_18382" data-name="그룹 18382" transform="translate(13.547 22.357)">
            <path id="패스_28900" data-name="패스 28900" d="M867.659,1659.9a1.247,1.247,0,1,1-1.246-1.247A1.246,1.246,0,0,1,867.659,1659.9Z" transform="translate(-864.854 -1658.652)" fill="#ffff42"/>
            <path id="패스_28901" data-name="패스 28901" d="M867.32,1673.8a1.246,1.246,0,1,1-1.246-1.247A1.246,1.246,0,0,1,867.32,1673.8Z" transform="translate(-864.671 -1666.169)" fill="#ffff42"/>
            <path id="패스_28902" data-name="패스 28902" d="M866.981,1687.708a1.247,1.247,0,1,1-1.247-1.247A1.247,1.247,0,0,1,866.981,1687.708Z" transform="translate(-864.488 -1673.685)" fill="#ffff42"/>
          </g>
        </g>
        <path id="패스_28903" data-name="패스 28903" d="M864.76,1561.957c0,5.728-3.533,12.049-8.039,12.049s-8.28-6.322-8.28-12.049,3.653-10.369,8.16-10.369S864.76,1556.23,864.76,1561.957Z" transform="translate(-807.359 -1548.25)" fill="#f2c5a9"/>
        <path id="패스_28904" data-name="패스 28904" d="M856.224,1605.914l-5.149,3.835,4.492,5.039,3.4-5.588Z" transform="translate(-808.783 -1577.618)" fill="#fff"/>
        <path id="패스_28905" data-name="패스 28905" d="M870.326,1606.393l-2.082,3.067,2.958,6.245,3.067-6.245Z" transform="translate(-818.064 -1577.877)" fill="#fff"/>
        <path id="패스_28906" data-name="패스 28906" d="M857.485,1578.165c0,.532-.248.963-.554.963s-.553-.431-.553-.963.248-.962.553-.962S857.485,1577.634,857.485,1578.165Z" transform="translate(-811.65 -1562.098)" fill="#49392b"/>
        <path id="패스_28907" data-name="패스 28907" d="M876.46,1577.685c0,.532-.248.963-.553.963s-.554-.43-.554-.963.248-.962.554-.962S876.46,1577.154,876.46,1577.685Z" transform="translate(-821.907 -1561.838)" fill="#49392b"/>
        <g id="그룹_18385" data-name="그룹 18385" transform="translate(56.256 29.816)">
          <path id="패스_28908" data-name="패스 28908" d="M943.644,1643.656c2.225-1.536,1.931-5.311,6.4-4.207,1.827.452,2.13,1.52,3.943.933,1.2-.387,2.391-1.916,3.553-2.493-.278,1.354-2.871,5.975-4.288,6.529-1.734.677-5.782-.843-7.963-.714-.089.614-.532.445-.578.487" transform="translate(-915.08 -1624.719)" fill="#f2c5a9"/>
          <g id="그룹_18384" data-name="그룹 18384">
            <path id="패스_28909" data-name="패스 28909" d="M898.564,1642.83l-9.336-33.607-7.759,1.819,6.692,19.252,10.4,21.072,12.952-18.981-3.933-3.338C904.028,1634.331,898.564,1642.83,898.564,1642.83Z" transform="translate(-881.469 -1609.223)" fill="#689fff"/>
            <path id="패스_28910" data-name="패스 28910" d="M941.294,1643.448c0-.26-1.27,1.54-2.984,4.087l3.933,3.338,2.519-3.69S941.294,1644.248,941.294,1643.448Z" transform="translate(-912.196 -1627.711)" fill="#fff"/>
          </g>
        </g>
        <g id="그룹_18387" data-name="그룹 18387" transform="translate(0 29.816)">
          <path id="패스_28911" data-name="패스 28911" d="M772.914,1643.657c-2.226-1.536-1.931-5.311-6.4-4.207-1.827.452-2.13,1.52-3.943.933-1.2-.387-2.391-1.915-3.553-2.492.278,1.353,2.87,5.974,4.288,6.528,1.734.677,5.781-.842,7.963-.714.089.614.532.446.579.488" transform="translate(-759.018 -1624.72)" fill="#f2c5a9"/>
          <g id="그룹_18386" data-name="그룹 18386" transform="translate(9.895)">
            <path id="패스_28912" data-name="패스 28912" d="M798.99,1642.831l9.336-33.608,7.846,1.989-6.78,19.082-10.4,21.072-12.952-18.981,3.933-3.337C793.526,1634.331,798.99,1642.831,798.99,1642.831Z" transform="translate(-783.52 -1609.223)" fill="#689fff"/>
            <path id="패스_28913" data-name="패스 28913" d="M784.024,1643.448c0-.26,1.271,1.54,2.985,4.088l-3.933,3.337-2.518-3.691S784.024,1644.248,784.024,1643.448Z" transform="translate(-780.557 -1627.711)" fill="#fff"/>
          </g>
        </g>
        <path id="패스_28914" data-name="패스 28914" d="M853.438,1545.42c.493-.492-.732-.8-1.186-.819a3.233,3.233,0,0,0-2.206.731c-1.084.813-1.273,2.345-2.187,3.342-1.058,1.153-2.251,1.732-2.688,3.371-.785,2.945,1.445,3.759,3.339,5.367-.69-.6-.634-2.349-.35-3.13-.091,2.659,4.893,3.973,6.82,4.336a12.151,12.151,0,0,1-.945-2.442c.772.2,1.593,1.39,2.024,2a7.709,7.709,0,0,1,.31-1.727c.714.408.248,1.7.183,2.333,2.005-1.014,2.611-3.271,3.973-4.786a6.931,6.931,0,0,1-.316,1.9c.665-.161,1.167-1.011,1.708-1.421a9.357,9.357,0,0,1-.084,1.4c3.163-2.22.9-7.933-1.453-10a6.03,6.03,0,0,0-4.027-1.544,4.24,4.24,0,0,0-1.8.2c-.281.125-1.388.877-1.024.708" transform="translate(-805.503 -1544.323)" fill="#5e3436"/>
      </g>
    </g>
  </g>
</svg>
