<svg xmlns="http://www.w3.org/2000/svg" width="172.325" height="211.49" viewBox="0 0 172.325 211.49">
  <g id="그룹_19831" data-name="그룹 19831" transform="translate(14973.303 1247.699)">
    <g id="그룹_19830" data-name="그룹 19830" transform="translate(-15310.303 -1558.856)">
      <g id="그룹_19829" data-name="그룹 19829" transform="translate(337 311.157)">
        <g id="그룹_19799" data-name="그룹 19799" transform="translate(22.229 20.564)">
          <path id="패스_29596" data-name="패스 29596" d="M506.919,414.014a63.474,63.474,0,0,1-12.7,38.188,37.894,37.894,0,0,0-7.215,22.749v2.52a15.484,15.484,0,0,1-15.5,15.471H416.4a15.49,15.49,0,0,1-15.5-15.471,39.879,39.879,0,0,0-8.476-24.419,63.438,63.438,0,0,1-13.36-40.046c.5-33.241,27.318-61.126,60.527-62.859A63.947,63.947,0,0,1,506.919,414.014Z" transform="translate(-379.052 -350.06)" fill="#fae600"/>
        </g>
        <g id="그룹_19800" data-name="그룹 19800" transform="translate(45.657 63.678)" opacity="0.15">
          <path id="패스_29597" data-name="패스 29597" d="M519.988,444.974a63.709,63.709,0,0,1-12.706,38.221,37.737,37.737,0,0,0-7.225,22.723v2.548a15.477,15.477,0,0,1-15.5,15.463H429.446a15.241,15.241,0,0,1-6.074-1.256,14.733,14.733,0,0,0,2.967,4.189A15.457,15.457,0,0,0,437.3,531.4h55.114a15.5,15.5,0,0,0,15.5-15.463v-2.548a37.705,37.705,0,0,1,7.19-22.723,63.8,63.8,0,0,0,9.208-59.042S519.988,440.378,519.988,444.974Z" transform="translate(-423.372 -431.622)"/>
        </g>
        <g id="그룹_19801" data-name="그룹 19801" transform="translate(22.236 20.573)" opacity="0.7">
          <path id="패스_29598" data-name="패스 29598" d="M439.59,350.163c-33.194,1.71-60.036,29.6-60.525,62.863a69.986,69.986,0,0,1,23.246-40.7,62.712,62.712,0,0,1,35.427-14.983c.962,1.115,3.126,1.894,5.651,1.894,2.464,0,4.574-.745,5.57-1.816a62.677,62.677,0,0,1,35.483,15.5c11.553,10.052,19.511,24.468,22.478,41.117A63.946,63.946,0,0,0,439.59,350.163Z" transform="translate(-379.065 -350.077)" fill="#fff"/>
        </g>
        <g id="그룹_19802" data-name="그룹 19802" transform="translate(20.51 18.849)">
          <path id="패스_29599" data-name="패스 29599" d="M469.969,493.129H414.863a17.207,17.207,0,0,1-17.22-17.187,38.409,38.409,0,0,0-8.117-23.367,64.808,64.808,0,0,1-13.72-41.124,65.646,65.646,0,0,1,110.855-46.588,65.607,65.607,0,0,1,7.4,86.839,36.335,36.335,0,0,0-6.875,21.718v2.522A17.223,17.223,0,0,1,469.969,493.129ZM441.459,350.247q-1.651,0-3.319.086a62.347,62.347,0,0,0-58.9,61.17,61.421,61.421,0,0,0,13,38.966,41.85,41.85,0,0,1,8.838,25.473,13.769,13.769,0,0,0,13.784,13.752h55.106a13.784,13.784,0,0,0,13.784-13.752V473.42a39.782,39.782,0,0,1,7.56-23.778,62.2,62.2,0,0,0-49.854-99.4Z" transform="translate(-375.799 -346.814)" fill="#3d1c60"/>
        </g>
        <g id="그룹_19803" data-name="그룹 19803" transform="translate(51.111 161.104)">
          <path id="패스_29600" data-name="패스 29600" d="M436.943,619.179v28.987a3.4,3.4,0,0,0,3.4,3.4h59.861a3.4,3.4,0,0,0,3.4-3.4V619.179Z" transform="translate(-435.224 -617.462)" fill="#d8ebfc"/>
          <path id="패스_29601" data-name="패스 29601" d="M498.672,651.756h-59.86a5.127,5.127,0,0,1-5.121-5.121V617.648a1.717,1.717,0,0,1,1.718-1.718h66.665a1.717,1.717,0,0,1,1.718,1.718v28.987A5.127,5.127,0,0,1,498.672,651.756Zm-61.545-32.39v27.269a1.686,1.686,0,0,0,1.685,1.685h59.86a1.686,1.686,0,0,0,1.685-1.685V619.366Z" transform="translate(-433.691 -615.93)" fill="#3d1c60"/>
        </g>
        <g id="그룹_19804" data-name="그룹 19804" transform="translate(55.528 193.48)">
          <path id="패스_29602" data-name="패스 29602" d="M503.129,680.43,481.92,695H466.535L445.3,680.43Z" transform="translate(-443.578 -678.711)" fill="#32abe3"/>
          <path id="패스_29603" data-name="패스 29603" d="M480.387,695.188H465a1.729,1.729,0,0,1-.973-.3l-21.24-14.574a1.718,1.718,0,0,1,.973-3.134H501.6a1.718,1.718,0,0,1,.973,3.134l-21.21,14.574A1.712,1.712,0,0,1,480.387,695.188Zm-14.851-3.436h14.317l16.21-11.138H449.3Z" transform="translate(-442.046 -677.178)" fill="#3d1c60"/>
        </g>
        <g id="그룹_19807" data-name="그룹 19807" transform="translate(51.111 172.195)">
          <g id="그룹_19805" data-name="그룹 19805">
            <line id="선_277" data-name="선 277" x2="66.664" transform="translate(1.719 1.718)" fill="#323d53"/>
            <path id="패스_29604" data-name="패스 29604" d="M502.074,640.348H435.409a1.718,1.718,0,0,1,0-3.436h66.665a1.718,1.718,0,1,1,0,3.436Z" transform="translate(-433.691 -636.912)" fill="#3d1c60"/>
          </g>
          <g id="그룹_19806" data-name="그룹 19806" transform="translate(0 10.205)">
            <line id="선_278" data-name="선 278" x2="66.664" transform="translate(1.719 1.719)" fill="#323d53"/>
            <path id="패스_29605" data-name="패스 29605" d="M502.074,659.654H435.409a1.718,1.718,0,0,1,0-3.436h66.665a1.718,1.718,0,1,1,0,3.436Z" transform="translate(-433.691 -656.218)" fill="#3d1c60"/>
          </g>
        </g>
        <g id="그룹_19809" data-name="그룹 19809" transform="translate(84.651)">
          <g id="그룹_19808" data-name="그룹 19808">
            <line id="선_279" data-name="선 279" y1="20.836" transform="translate(1.512 0)" fill="#73c2e5"/>
            <rect id="사각형_3934" data-name="사각형 3934" width="3.023" height="20.836" fill="#3d1c60"/>
          </g>
        </g>
        <g id="그룹_19811" data-name="그룹 19811" transform="translate(51.793 5.981)">
          <g id="그룹_19810" data-name="그룹 19810" transform="translate(0 0)">
            <line id="선_280" data-name="선 280" x1="4.435" y1="10.707" transform="translate(1.396 0.578)" fill="#73c2e5"/>
            <rect id="사각형_3935" data-name="사각형 3935" width="3.023" height="11.588" transform="matrix(0.924, -0.383, 0.383, 0.924, 0, 1.157)" fill="#3d1c60"/>
          </g>
        </g>
        <g id="그룹_19813" data-name="그룹 19813" transform="translate(113.303 5.981)">
          <g id="그룹_19812" data-name="그룹 19812" transform="translate(0 0)">
            <line id="선_281" data-name="선 281" y1="10.707" x2="4.435" transform="translate(1.397 0.578)" fill="#73c2e5"/>
            <rect id="사각형_3936" data-name="사각형 3936" width="11.588" height="3.023" transform="translate(0 10.705) rotate(-67.492)" fill="#3d1c60"/>
          </g>
        </g>
        <g id="그룹_19816" data-name="그룹 19816" transform="translate(5.981 51.793)">
          <g id="그룹_19814" data-name="그룹 19814" transform="translate(148.499 0)">
            <line id="선_282" data-name="선 282" y1="4.435" x2="10.707" transform="translate(0.579 1.397)" fill="#73c2e5"/>
            <rect id="사각형_3937" data-name="사각형 3937" width="11.589" height="3.023" transform="translate(0 4.436) rotate(-22.508)" fill="#3d1c60"/>
          </g>
          <g id="그룹_19815" data-name="그룹 19815" transform="translate(0 61.508)">
            <line id="선_283" data-name="선 283" y1="4.435" x2="10.707" transform="translate(0.577 1.397)" fill="#73c2e5"/>
            <rect id="사각형_3938" data-name="사각형 3938" width="11.589" height="3.023" transform="translate(0 4.436) rotate(-22.508)" fill="#3d1c60"/>
          </g>
        </g>
        <g id="그룹_19819" data-name="그룹 19819" transform="translate(5.984 51.789)">
          <g id="그룹_19817" data-name="그룹 19817" transform="translate(148.497 61.514)">
            <line id="선_284" data-name="선 284" x2="10.707" y2="4.435" transform="translate(0.58 1.397)" fill="#73c2e5"/>
            <rect id="사각형_3939" data-name="사각형 3939" width="3.023" height="11.591" transform="matrix(0.383, -0.924, 0.924, 0.383, 0, 2.793)" fill="#3d1c60"/>
          </g>
          <g id="그룹_19818" data-name="그룹 19818" transform="translate(0 0)">
            <line id="선_285" data-name="선 285" x2="10.707" y2="4.435" transform="translate(0.577 1.397)" fill="#73c2e5"/>
            <rect id="사각형_3940" data-name="사각형 3940" width="3.023" height="11.589" transform="translate(0 2.793) rotate(-67.498)" fill="#3d1c60"/>
          </g>
        </g>
        <g id="그룹_19822" data-name="그룹 19822" transform="translate(24.167 24.168)">
          <g id="그룹_19820" data-name="그룹 19820" transform="translate(107.12 0)">
            <line id="선_286" data-name="선 286" y1="14.733" x2="14.733" transform="translate(1.068 1.068)" fill="#73c2e5"/>
            <rect id="사각형_3941" data-name="사각형 3941" width="20.835" height="3.022" transform="translate(0 14.733) rotate(-45)" fill="#3d1c60"/>
          </g>
          <g id="그룹_19821" data-name="그룹 19821" transform="translate(0 107.119)">
            <line id="선_287" data-name="선 287" y1="14.733" x2="14.733" transform="translate(1.069 1.068)" fill="#73c2e5"/>
            <rect id="사각형_3942" data-name="사각형 3942" width="20.835" height="3.022" transform="translate(0 14.733) rotate(-45)" fill="#3d1c60"/>
          </g>
        </g>
        <g id="그룹_19825" data-name="그룹 19825" transform="translate(0 84.651)">
          <g id="그룹_19823" data-name="그룹 19823" transform="translate(151.489)">
            <line id="선_288" data-name="선 288" x2="20.836" transform="translate(0 1.512)" fill="#73c2e5"/>
            <rect id="사각형_3943" data-name="사각형 3943" width="20.834" height="3.023" transform="translate(0.001)" fill="#3d1c60"/>
          </g>
          <g id="그룹_19824" data-name="그룹 19824">
            <line id="선_289" data-name="선 289" x2="20.836" transform="translate(0 1.511)" fill="#73c2e5"/>
            <rect id="사각형_3944" data-name="사각형 3944" width="20.837" height="3.023" fill="#3d1c60"/>
          </g>
        </g>
        <g id="그룹_19828" data-name="그룹 19828" transform="translate(24.167 24.168)">
          <g id="그룹_19826" data-name="그룹 19826" transform="translate(107.12 107.117)">
            <line id="선_290" data-name="선 290" x2="14.733" y2="14.733" transform="translate(1.068 1.069)" fill="#73c2e5"/>
            <rect id="사각형_3945" data-name="사각형 3945" width="3.022" height="20.836" transform="matrix(0.707, -0.707, 0.707, 0.707, 0, 2.137)" fill="#3d1c60"/>
          </g>
          <g id="그룹_19827" data-name="그룹 19827" transform="translate(0 0)">
            <line id="선_291" data-name="선 291" x2="14.733" y2="14.733" transform="translate(1.07 1.068)" fill="#73c2e5"/>
            <rect id="사각형_3946" data-name="사각형 3946" width="3.022" height="20.837" transform="translate(0 2.137) rotate(-45.006)" fill="#3d1c60"/>
          </g>
        </g>
      </g>
    </g>
  </g>
</svg>
