<svg xmlns="http://www.w3.org/2000/svg" width="67.705" height="76.206" viewBox="0 0 67.705 76.206">
  <g id="그룹_19365" data-name="그룹 19365" transform="translate(905.589 195.361)">
    <g id="그룹_19348" data-name="그룹 19348">
      <g id="그룹_19346" data-name="그룹 19346">
        <path id="패스_29441" data-name="패스 29441" d="M-873.787-121.369c-12.987-3.792-30.252-11.439-30.252-33.963v-29.124l8.44,1.315a22.005,22.005,0,0,0,3.368.251,26.412,26.412,0,0,0,4.818-.455c4.348-.809,8.3-2.615,10.56-4.833l5.118-5.013,5.116,5.014c2.264,2.217,6.21,4.024,10.558,4.832a26.4,26.4,0,0,0,4.819.455,22,22,0,0,0,3.368-.251l8.439-1.314v29.123c0,22.524-17.264,30.171-30.251,33.963l-2.05.6Z" fill="#fff"/>
      </g>
      <g id="그룹_19347" data-name="그룹 19347">
        <path id="패스_29442" data-name="패스 29442" d="M-871.736-119.155l-2.485-.725c-13.466-3.932-31.368-11.885-31.368-35.452v-30.935l10.229,1.594a23.163,23.163,0,0,0,7.664-.2c4.057-.754,7.7-2.4,9.758-4.416l6.2-6.075,6.2,6.076c2.054,2.012,5.7,3.663,9.756,4.416a23.253,23.253,0,0,0,7.666.2l10.228-1.592v30.933c0,23.567-17.9,31.52-31.368,35.452Zm-30.752-63.49v27.313c0,21.483,16.628,28.823,29.136,32.475l1.616.472,1.615-.472c26.116-7.626,29.136-22.186,29.136-32.475v-27.312l-6.651,1.035a26.331,26.331,0,0,1-8.708-.211c-4.637-.862-8.884-2.824-11.359-5.25l-4.032-3.95-4.034,3.95c-2.475,2.424-6.722,4.386-11.36,5.249a26.278,26.278,0,0,1-8.708.212Z" fill="#282d33"/>
      </g>
    </g>
    <g id="그룹_19349" data-name="그룹 19349">
      <path id="패스_29443" data-name="패스 29443" d="M-872.482-125.833c-23.847-6.964-26.905-19.423-26.905-29.5v-23.692l3.072.479a26.649,26.649,0,0,0,4.084.306,31.079,31.079,0,0,0,5.669-.533c5.3-.986,10.022-3.2,12.963-6.082l1.863-1.825,1.862,1.825c2.941,2.881,7.666,5.1,12.963,6.083a31.159,31.159,0,0,0,5.669.532,26.648,26.648,0,0,0,4.084-.306l3.072-.478v23.691c0,19.182-14.378,25.841-26.9,29.5l-.746.218Z" fill="#5eb4e7"/>
    </g>
    <g id="그룹_19350" data-name="그룹 19350">
      <path id="패스_29444" data-name="패스 29444" d="M-852.6-155.33a19.14,19.14,0,0,1-19.139,19.138,19.141,19.141,0,0,1-19.141-19.138,19.141,19.141,0,0,1,19.141-19.141A19.141,19.141,0,0,1-852.6-155.33Z" fill="#fff"/>
    </g>
    <g id="그룹_19353" data-name="그룹 19353">
      <g id="그룹_19351" data-name="그룹 19351">
        <path id="패스_29445" data-name="패스 29445" d="M-857.248-155.33a14.489,14.489,0,0,1-14.488,14.487,14.489,14.489,0,0,1-14.489-14.487,14.488,14.488,0,0,1,14.489-14.489A14.489,14.489,0,0,1-857.248-155.33Z" fill="#fff"/>
      </g>
      <g id="그룹_19352" data-name="그룹 19352">
        <path id="패스_29446" data-name="패스 29446" d="M-871.736-139.293a16.056,16.056,0,0,1-16.04-16.037,16.057,16.057,0,0,1,16.04-16.04A16.057,16.057,0,0,1-855.7-155.33,16.056,16.056,0,0,1-871.736-139.293Zm0-28.976a12.953,12.953,0,0,0-12.939,12.939,12.952,12.952,0,0,0,12.939,12.936A12.951,12.951,0,0,0-858.8-155.33,12.952,12.952,0,0,0-871.736-168.269Z" fill="#282d33"/>
      </g>
    </g>
    <g id="그룹_19357" data-name="그룹 19357">
      <g id="그룹_19356" data-name="그룹 19356">
        <g id="그룹_19354" data-name="그룹 19354">
          <line id="선_226" data-name="선 226" y2="9.294" transform="translate(-871.584 -178.92)" fill="#fff"/>
        </g>
        <g id="그룹_19355" data-name="그룹 19355">
          <rect id="사각형_3841" data-name="사각형 3841" width="3.101" height="9.294" transform="translate(-873.135 -178.92)" fill="#282d33"/>
        </g>
      </g>
    </g>
    <g id="그룹_19361" data-name="그룹 19361">
      <g id="그룹_19360" data-name="그룹 19360">
        <g id="그룹_19358" data-name="그룹 19358">
          <line id="선_227" data-name="선 227" y2="9.294" transform="translate(-871.584 -140.932)" fill="#fff"/>
        </g>
        <g id="그룹_19359" data-name="그룹 19359">
          <rect id="사각형_3842" data-name="사각형 3842" width="3.101" height="9.294" transform="translate(-873.135 -140.932)" fill="#282d33"/>
        </g>
      </g>
    </g>
    <g id="그룹_19364" data-name="그룹 19364">
      <g id="그룹_19362" data-name="그룹 19362">
        <path id="패스_29447" data-name="패스 29447" d="M-867.373-148.517H-870.4l-1.184-5.336-1.184,5.336H-875.8l-2.7-12.16,3.027-.672,1.184,5.336,1.184-5.336h3.027l1.184,5.337,1.184-5.337,3.027.672Z" fill="#282d33"/>
      </g>
      <g id="그룹_19363" data-name="그룹 19363">
        <rect id="사각형_3843" data-name="사각형 3843" width="15.126" height="3.101" transform="translate(-879.147 -156.482)" fill="#282d33"/>
      </g>
    </g>
  </g>
</svg>
