<svg xmlns="http://www.w3.org/2000/svg" width="109.386" height="80.871" viewBox="0 0 109.386 80.871">
  <g id="그룹_5911" data-name="그룹 5911" transform="translate(-495.892 -766.325)">
    <g id="그룹_5905" data-name="그룹 5905" transform="translate(495.893 766.325)">
      <g id="그룹_5899" data-name="그룹 5899" transform="translate(0 3.104)">
        <g id="그룹_5694" data-name="그룹 5694" transform="translate(0 59.773)">
          <path id="패스_6300" data-name="패스 6300" d="M722.7,257.129v-9.135c0-4.036,3.7-7.309,8.257-7.309H767.2c4.561,0,8.257,3.272,8.257,7.309v9.135" transform="translate(-721.149 -239.134)" fill="#fff"/>
          <path id="패스_6301" data-name="패스 6301" d="M776.557,256.681h-3.1v-9.135c0-3.174-3.008-5.757-6.705-5.757H730.51c-3.7,0-6.706,2.583-6.706,5.757v9.135h-3.1v-9.135c0-4.886,4.4-8.86,9.809-8.86h36.239c5.408,0,9.808,3.974,9.808,8.86Z" transform="translate(-720.701 -238.686)" fill="#282d33"/>
        </g>
        <path id="패스_6302" data-name="패스 6302" d="M753.312,256.616h.388a10.873,10.873,0,0,0,10.861-10.861V242.7h-22.11v3.054A10.873,10.873,0,0,0,753.312,256.616Z" transform="translate(-725.578 -179.814)" fill="#f8c44f"/>
        <g id="그룹_5695" data-name="그룹 5695" transform="translate(19.976 42.28)">
          <rect id="사각형_2618" data-name="사각형 2618" width="12.8" height="28.316" rx="6.4" transform="translate(1.551 1.552)" fill="#fff"/>
          <path id="패스_6303" data-name="패스 6303" d="M754.6,247.557h-.388a7.767,7.767,0,0,1-7.758-7.758V223.9a7.767,7.767,0,0,1,7.758-7.758h.388a7.767,7.767,0,0,1,7.758,7.758v15.9A7.767,7.767,0,0,1,754.6,247.557Zm-.388-28.316a4.659,4.659,0,0,0-4.655,4.655v15.9a4.659,4.659,0,0,0,4.655,4.655h.388a4.66,4.66,0,0,0,4.655-4.655V223.9a4.66,4.66,0,0,0-4.655-4.655Z" transform="translate(-746.451 -216.138)" fill="#282d33"/>
        </g>
        <g id="그룹_5696" data-name="그룹 5696" transform="translate(8.316 3.118)">
          <path id="패스_6304" data-name="패스 6304" d="M770.318,200.863a18.448,18.448,0,0,1-18.449,18.45h0a18.448,18.448,0,0,1-18.449-18.45V186.1a18.447,18.447,0,0,1,18.449-18.447h0A18.447,18.447,0,0,1,770.318,186.1Z" transform="translate(-731.868 -166.105)" fill="#fff"/>
          <path id="패스_6305" data-name="패스 6305" d="M751.42,220.416a20.023,20.023,0,0,1-20-20V185.656a20,20,0,0,1,40,0v14.758A20.023,20.023,0,0,1,751.42,220.416Zm0-51.655a16.916,16.916,0,0,0-16.9,16.9v14.758a16.9,16.9,0,1,0,33.795,0V185.656A16.916,16.916,0,0,0,751.42,168.76Z" transform="translate(-731.42 -165.657)" fill="#282d33"/>
        </g>
        <g id="그룹_5697" data-name="그룹 5697" transform="translate(3.685 0)">
          <path id="패스_6306" data-name="패스 6306" d="M734.409,196.609V182.488c0-.2.022-.391.03-.587a81.7,81.7,0,0,0,32.183,0c.008.2.03.389.03.587v14.121h5.208a21.61,21.61,0,0,0,1.75-8.534V185.36a21.722,21.722,0,0,0-21.722-21.722h-2.715a21.722,21.722,0,0,0-21.722,21.722v2.715a21.611,21.611,0,0,0,1.749,8.534Z" transform="translate(-725.899 -162.086)" fill="#5eb4e7"/>
          <path id="패스_6307" data-name="패스 6307" d="M772.436,197.712h-7.784v-14.38a84.088,84.088,0,0,1-29.14,0v14.379h-7.784l-.4-.94a23.1,23.1,0,0,1-1.874-9.145v-2.715a23.3,23.3,0,0,1,23.273-23.273h2.715a23.3,23.3,0,0,1,23.273,23.273v2.715a23.1,23.1,0,0,1-1.874,9.144Zm-4.681-3.1h2.607a20.009,20.009,0,0,0,1.248-6.982v-2.715a20.194,20.194,0,0,0-20.17-20.17h-2.715a20.193,20.193,0,0,0-20.17,20.17v2.715a20,20,0,0,0,1.248,6.982h2.607V182.04c0-.154.009-.3.019-.456l.011-.188.068-1.841,1.8.379a80.157,80.157,0,0,0,31.545,0l1.8-.379.079,2.029c.01.151.019.3.019.456Z" transform="translate(-725.451 -161.638)" fill="#282d33"/>
        </g>
        <g id="그룹_5698" data-name="그룹 5698" transform="translate(42.863 30.82)">
          <path id="패스_6308" data-name="패스 6308" d="M777.952,207.008a3.642,3.642,0,0,1,3.643-3.642h.3a3.643,3.643,0,0,1,3.642,3.642v4.424a3.643,3.643,0,0,1-3.642,3.643h-.3a3.644,3.644,0,0,1-3.334-2.172" transform="translate(-776.4 -201.814)" fill="#fff"/>
          <path id="패스_6309" data-name="패스 6309" d="M781.451,216.178h-.3a5.2,5.2,0,0,1-4.753-3.1l2.838-1.254a2.1,2.1,0,0,0,1.915,1.247h.3a2.093,2.093,0,0,0,2.091-2.092V206.56a2.093,2.093,0,0,0-2.091-2.091h-.3a2.093,2.093,0,0,0-2.091,2.091h-3.1a5.2,5.2,0,0,1,5.195-5.194h.3a5.2,5.2,0,0,1,5.194,5.194v4.424A5.2,5.2,0,0,1,781.451,216.178Z" transform="translate(-775.952 -201.366)" fill="#282d33"/>
        </g>
        <g id="그룹_5699" data-name="그룹 5699" transform="translate(5.474 30.65)">
          <path id="패스_6310" data-name="패스 6310" d="M734.911,203.365c-1.959.2-5.154,1.842-5.154,3.856v4.654c0,2.015,3.2,3.652,5.154,3.856Z" transform="translate(-728.205 -201.644)" fill="#fff"/>
          <path id="패스_6311" data-name="패스 6311" d="M736.014,216.955l-1.712-.178c-2.675-.278-6.545-2.361-6.545-5.4v-4.654c0-3.037,3.87-5.12,6.545-5.4l1.712-.178Zm-3.1-12.041c-1.125.521-2.051,1.312-2.051,1.809v4.654c0,.534.95,1.3,2.051,1.8Z" transform="translate(-727.757 -201.146)" fill="#282d33"/>
        </g>
        <g id="그룹_5700" data-name="그룹 5700" transform="translate(22.696 38.789)">
          <path id="패스_6312" data-name="패스 6312" d="M758.551,211.638a3.3,3.3,0,1,1-6.594,0" transform="translate(-750.405 -211.638)" fill="#fff"/>
          <path id="패스_6313" data-name="패스 6313" d="M754.806,216.487a4.854,4.854,0,0,1-4.849-4.849h3.1a1.746,1.746,0,1,0,3.491,0h3.1A4.854,4.854,0,0,1,754.806,216.487Z" transform="translate(-749.957 -211.638)" fill="#282d33"/>
        </g>
        <g id="그룹_5701" data-name="그룹 5701" transform="translate(18.817 31.419)">
          <rect id="사각형_2619" data-name="사각형 2619" width="3.362" height="3.103" fill="#282d33"/>
        </g>
        <g id="그룹_5702" data-name="그룹 5702" transform="translate(32.781 31.419)">
          <rect id="사각형_2620" data-name="사각형 2620" width="3.362" height="3.103" fill="#282d33"/>
        </g>
        <g id="그룹_5703" data-name="그룹 5703" transform="translate(17.047 45.125)">
          <path id="패스_6314" data-name="패스 6314" d="M746.559,221.8a10.131,10.131,0,0,0,16.521,0Z" transform="translate(-743.546 -220.253)" fill="#fff"/>
          <path id="패스_6315" data-name="패스 6315" d="M753.949,227.174a11.727,11.727,0,0,1-9.523-4.917l-1.75-2.452h22.547l-1.75,2.452A11.728,11.728,0,0,1,753.949,227.174Zm-4.3-4.266a8.544,8.544,0,0,0,8.607,0Z" transform="translate(-742.675 -219.805)" fill="#282d33"/>
        </g>
      </g>
      <g id="그룹_5898" data-name="그룹 5898" transform="translate(58.43 0)">
        <g id="그룹_5705" data-name="그룹 5705" transform="translate(1.306 66.769)">
          <path id="패스_6316" data-name="패스 6316" d="M826.15,258.294v-6.206a6.207,6.207,0,0,1,6.206-6.206h34.134a6.207,6.207,0,0,1,6.206,6.206v6.206" transform="translate(-824.598 -244.33)" fill="#fff"/>
          <path id="패스_6317" data-name="패스 6317" d="M873.8,257.846h-3.1V251.64a4.66,4.66,0,0,0-4.655-4.655H831.908a4.66,4.66,0,0,0-4.655,4.655v6.206h-3.1V251.64a7.767,7.767,0,0,1,7.758-7.758h34.134a7.767,7.767,0,0,1,7.758,7.758Z" transform="translate(-824.15 -243.882)" fill="#282d33"/>
        </g>
        <g id="그룹_5706" data-name="그룹 5706" transform="translate(17.289 21.281)">
          <path id="패스_6318" data-name="패스 6318" d="M854.173,241.81a7.42,7.42,0,0,1-7.42-7.42V194.669a7.422,7.422,0,0,1,7.42-7.421h0a7.421,7.421,0,0,1,7.42,7.421V234.39a7.42,7.42,0,0,1-7.42,7.42Z" transform="translate(-845.201 -185.696)" fill="#fff"/>
          <path id="패스_6319" data-name="패스 6319" d="M853.725,242.913a8.982,8.982,0,0,1-8.972-8.972V194.221a8.972,8.972,0,1,1,17.943,0v39.721A8.981,8.981,0,0,1,853.725,242.913Zm0-54.562a5.875,5.875,0,0,0-5.869,5.87v39.721a5.868,5.868,0,1,0,11.737,0V194.221A5.875,5.875,0,0,0,853.725,188.351Z" transform="translate(-844.753 -185.248)" fill="#282d33"/>
        </g>
        <g id="그룹_5707" data-name="그룹 5707" transform="translate(0 0)">
          <path id="패스_6320" data-name="패스 6320" d="M872.226,223.215V183.694a23.879,23.879,0,0,0-47.759,0v39.521h.8a19.439,19.439,0,0,0,19.415-19.257h7.948a19.439,19.439,0,0,0,19.415,19.257Z" transform="translate(-822.915 -158.264)" fill="#f8c44f"/>
          <path id="패스_6321" data-name="패스 6321" d="M873.329,224.318h-1.737a21.035,21.035,0,0,1-20.9-19.257h-4.983a21.035,21.035,0,0,1-20.9,19.257h-2.347V183.245a25.431,25.431,0,0,1,50.862,0Zm-25.431-63.4a22.352,22.352,0,0,0-22.328,22.326V221.2a17.92,17.92,0,0,0,17.108-17.7l.013-1.538h11.025l.012,1.538a17.924,17.924,0,0,0,16.5,17.667V183.245A22.352,22.352,0,0,0,847.9,160.919Z" transform="translate(-822.467 -157.816)" fill="#282d33"/>
        </g>
        <g id="그룹_5708" data-name="그룹 5708" transform="translate(39.014 28.477)">
          <path id="사각형_2621" data-name="사각형 2621" d="M3.794,0h0A3.791,3.791,0,0,1,7.588,3.791V10.17a3.794,3.794,0,0,1-3.794,3.794h0A3.794,3.794,0,0,1,0,10.17V3.794A3.794,3.794,0,0,1,3.794,0Z" transform="translate(1.552 1.551)" fill="#fff"/>
          <path id="패스_6322" data-name="패스 6322" d="M878.254,211.591h-.3a5.2,5.2,0,0,1-5.192-5.195v-6.678a5.2,5.2,0,0,1,5.192-5.195h.3a5.2,5.2,0,0,1,5.195,5.195V206.4A5.2,5.2,0,0,1,878.254,211.591Zm-.3-13.964a2.092,2.092,0,0,0-2.089,2.091V206.4a2.092,2.092,0,0,0,2.089,2.092h.3a2.093,2.093,0,0,0,2.091-2.092v-6.678a2.093,2.093,0,0,0-2.091-2.091Z" transform="translate(-872.757 -194.524)" fill="#282d33"/>
        </g>
        <g id="그룹_5709" data-name="그룹 5709" transform="translate(5.43 26.426)">
          <path id="패스_6323" data-name="패스 6323" d="M868.365,191.88v13.762a18.449,18.449,0,0,1-18.449,18.45h0a18.449,18.449,0,0,1-18.449-18.45V191.88" transform="translate(-829.915 -191.88)" fill="#fff"/>
          <path id="패스_6324" data-name="패스 6324" d="M849.467,225.643a20.023,20.023,0,0,1-20-20V191.88h3.1v13.762a16.9,16.9,0,1,0,33.795,0V191.88h3.1v13.762A20.023,20.023,0,0,1,849.467,225.643Z" transform="translate(-829.467 -191.88)" fill="#282d33"/>
        </g>
        <g id="그룹_5710" data-name="그룹 5710" transform="translate(0.613 28.345)">
          <path id="패스_6325" data-name="패스 6325" d="M830.075,196.573c-1.832.191-4.818,1.721-4.818,3.605v6.678c0,1.884,2.985,3.415,4.818,3.605Z" transform="translate(-823.705 -194.851)" fill="#fff"/>
          <path id="패스_6326" data-name="패스 6326" d="M831.178,211.684l-1.711-.178c-2.538-.263-6.209-2.248-6.209-5.148V199.68c0-2.9,3.671-4.884,6.209-5.149l1.712-.178Zm-3.1-13.533c-.946.465-1.714,1.119-1.714,1.529v6.678c0,.411.768,1.065,1.714,1.53Z" transform="translate(-823.257 -194.353)" fill="#282d33"/>
        </g>
        <g id="그룹_5711" data-name="그룹 5711" transform="translate(14.447 36.641)">
          <rect id="사각형_2622" data-name="사각형 2622" width="3.362" height="3.103" fill="#282d33"/>
        </g>
        <g id="그룹_5712" data-name="그룹 5712" transform="translate(33.066 36.641)">
          <rect id="사각형_2623" data-name="사각형 2623" width="3.362" height="3.103" fill="#282d33"/>
        </g>
        <g id="그룹_5713" data-name="그룹 5713" transform="translate(24.443 47.617)">
          <path id="패스_6327" data-name="패스 6327" d="M853.974,222.83h2.313a3.3,3.3,0,0,0,3.3-3.3v-.33" transform="translate(-853.974 -219.195)" fill="#fff"/>
          <path id="패스_6328" data-name="패스 6328" d="M856.287,224.381h-2.313v-3.1h2.313a1.755,1.755,0,0,0,1.753-1.753v-.33h3.1v.33A4.861,4.861,0,0,1,856.287,224.381Z" transform="translate(-853.974 -219.195)" fill="#282d33"/>
        </g>
        <g id="그룹_5714" data-name="그룹 5714" transform="translate(5.43 10.849)">
          <path id="패스_6329" data-name="패스 6329" d="M837.289,173.258a18.4,18.4,0,0,0-5.822,13.45v2.548h13.794a5.421,5.421,0,0,0,4.655-2.644,5.422,5.422,0,0,0,4.655,2.644h13.794" transform="translate(-829.915 -172.127)" fill="#f8c44f"/>
          <path id="패스_6330" data-name="패스 6330" d="M867.916,190.481H854.122a6.917,6.917,0,0,1-4.655-1.777,6.915,6.915,0,0,1-4.655,1.777H829.467v-4.1a20.079,20.079,0,0,1,6.312-14.581l2.124,2.262a16.74,16.74,0,0,0-5.333,12.319v1h12.243a3.846,3.846,0,0,0,3.323-1.89l1.33-2.218,1.331,2.217a3.85,3.85,0,0,0,3.324,1.891h13.794Z" transform="translate(-829.467 -171.8)" fill="#282d33"/>
        </g>
      </g>
    </g>
  </g>
</svg>
