<svg xmlns="http://www.w3.org/2000/svg" width="202.765" height="202.766" viewBox="0 0 202.765 202.766">
  <g id="그룹_20423" data-name="그룹 20423" transform="translate(0 0)">
    <ellipse id="타원_121" data-name="타원 121" cx="82.268" cy="82.268" rx="82.268" ry="82.268" transform="translate(0 44.308) rotate(-15.622)" fill="#ffd671"/>
    <g id="그룹_6729" data-name="그룹 6729" transform="translate(47.756 72.461)">
      <path id="패스_7415" data-name="패스 7415" d="M-178.085,199.981a1.71,1.71,0,0,1-1.453-.8,8.512,8.512,0,0,1-1.085-6.471,8.523,8.523,0,0,1,3.811-5.339,8.533,8.533,0,0,1,6.467-1.081,8.5,8.5,0,0,1,5.339,3.809,1.709,1.709,0,0,1-.547,2.358,1.707,1.707,0,0,1-2.358-.545,5.126,5.126,0,0,0-3.2-2.285,5.149,5.149,0,0,0-3.883.651,5.105,5.105,0,0,0-2.283,3.2,5.09,5.09,0,0,0,.649,3.879,1.716,1.716,0,0,1-.542,2.362A1.713,1.713,0,0,1-178.085,199.981Z" transform="translate(180.845 -186.066)" fill="#333"/>
    </g>
    <g id="그룹_6730" data-name="그룹 6730" transform="translate(94.268 43.399)">
      <path id="패스_7416" data-name="패스 7416" d="M-152.153,183.776a1.712,1.712,0,0,1-1.453-.805,8.534,8.534,0,0,1-1.083-6.469,8.518,8.518,0,0,1,3.813-5.341,8.58,8.58,0,0,1,11.806,2.728,1.711,1.711,0,0,1-.545,2.36,1.707,1.707,0,0,1-2.36-.543,5.149,5.149,0,0,0-7.088-1.636,5.119,5.119,0,0,0-2.287,3.2,5.127,5.127,0,0,0,.651,3.881,1.711,1.711,0,0,1-.547,2.36A1.687,1.687,0,0,1-152.153,183.776Z" transform="translate(154.91 -169.862)" fill="#333"/>
    </g>
    <g id="그룹_6731" data-name="그룹 6731" transform="translate(67.133 71.368)">
      <path id="패스_7417" data-name="패스 7417" d="M-152.175,223.6a34.358,34.358,0,0,1-17-4.5,1.711,1.711,0,0,1-.642-2.337,1.705,1.705,0,0,1,2.335-.642,30.924,30.924,0,0,0,31.692-.649,30.908,30.908,0,0,0,14.473-28.2,1.713,1.713,0,0,1,1.605-1.819,1.694,1.694,0,0,1,1.817,1.6,34.335,34.335,0,0,1-16.082,31.319A34.324,34.324,0,0,1-152.175,223.6Z" transform="translate(170.041 -185.457)" fill="#333"/>
    </g>
    <g id="그룹_6732" data-name="그룹 6732" transform="translate(43.657 48.564)">
      <path id="패스_7418" data-name="패스 7418" d="M-170.459,201.286a6.855,6.855,0,0,1-2.183,9.446,6.854,6.854,0,0,1-9.446-2.181,6.855,6.855,0,0,1,2.181-9.446A6.857,6.857,0,0,1-170.459,201.286Z" transform="translate(183.13 -152.65)" fill="#f26071"/>
      <path id="패스_7419" data-name="패스 7419" d="M-129.939,175.965a6.853,6.853,0,0,1-2.181,9.446,6.855,6.855,0,0,1-9.446-2.179,6.857,6.857,0,0,1,2.181-9.448A6.855,6.855,0,0,1-129.939,175.965Z" transform="translate(215.283 -172.742)" fill="#f26071"/>
    </g>
    <g id="그룹_6733" data-name="그룹 6733" transform="translate(17.37 17.421)">
      <path id="패스_7421" data-name="패스 7421" d="M-113.616,323.352a84.732,84.732,0,0,1-19.05-2.183,83.432,83.432,0,0,1-52.328-37.327,83.443,83.443,0,0,1-10.612-63.4,83.443,83.443,0,0,1,37.327-52.328A84.076,84.076,0,0,1-42.554,194.835,84.076,84.076,0,0,1-69.271,310.56,83.429,83.429,0,0,1-113.616,323.352Zm-.291-164.548a80.091,80.091,0,0,0-42.557,12.219,80.034,80.034,0,0,0-35.8,50.2,80.028,80.028,0,0,0,10.176,60.807,80.024,80.024,0,0,0,50.192,35.8,80.036,80.036,0,0,0,60.811-10.174,80.65,80.65,0,0,0,25.625-111A80.581,80.581,0,0,0-113.907,158.8Z" transform="translate(197.788 -155.377)" fill="#333"/>
    </g>
  </g>
</svg>
