<svg id="그룹_5903" data-name="그룹 5903" xmlns="http://www.w3.org/2000/svg" width="133.035" height="77.632" viewBox="0 0 133.035 77.632">
  <g id="그룹_5726" data-name="그룹 5726" transform="translate(0 1.552)">
    <g id="그룹_5716" data-name="그룹 5716" transform="translate(0 57.657)">
      <path id="패스_6331" data-name="패스 6331" d="M724.7,429.242v-9.135c0-4.036,3.7-7.309,8.257-7.309H769.2c4.561,0,8.257,3.272,8.257,7.309v9.135" transform="translate(-723.149 -411.247)" fill="#5eb4e7"/>
      <path id="패스_6332" data-name="패스 6332" d="M778.557,428.794h-3.1v-9.135c0-3.175-3.008-5.757-6.705-5.757H732.51c-3.7,0-6.706,2.583-6.706,5.757v9.135h-3.1v-9.135c0-4.886,4.4-8.86,9.809-8.86h36.239c5.408,0,9.808,3.974,9.808,8.86Z" transform="translate(-722.701 -410.799)" fill="#282d33"/>
    </g>
    <g id="그룹_5717" data-name="그룹 5717" transform="translate(19.201 32.242)">
      <rect id="사각형_2624" data-name="사각형 2624" width="14.352" height="31.748" rx="7.176" transform="translate(1.551 1.551)" fill="#fff"/>
      <path id="패스_6333" data-name="패스 6333" d="M756.4,412.89h-.435a8.52,8.52,0,0,1-8.51-8.51V386.549a8.52,8.52,0,0,1,8.51-8.51h.435a8.52,8.52,0,0,1,8.51,8.51V404.38A8.52,8.52,0,0,1,756.4,412.89Zm-.435-31.748a5.412,5.412,0,0,0-5.406,5.407V404.38a5.413,5.413,0,0,0,5.406,5.407h.435a5.414,5.414,0,0,0,5.407-5.407V386.549a5.413,5.413,0,0,0-5.407-5.407Z" transform="translate(-747.451 -378.039)" fill="#282d33"/>
    </g>
    <g id="그룹_5718" data-name="그룹 5718" transform="translate(40.991 25.601)">
      <rect id="사각형_2625" data-name="사각형 2625" width="7.589" height="13.964" rx="3.795" transform="translate(1.551 1.552)" fill="#fff"/>
      <path id="패스_6334" data-name="패스 6334" d="M781.038,386.545h-.3a5.2,5.2,0,0,1-5.194-5.195v-6.678a5.2,5.2,0,0,1,5.194-5.195h.3a5.2,5.2,0,0,1,5.193,5.195v6.678A5.2,5.2,0,0,1,781.038,386.545Zm-.3-13.964a2.093,2.093,0,0,0-2.091,2.091v6.678a2.093,2.093,0,0,0,2.091,2.091h.3a2.093,2.093,0,0,0,2.09-2.091v-6.678a2.093,2.093,0,0,0-2.09-2.091Z" transform="translate(-775.539 -369.478)" fill="#282d33"/>
    </g>
    <g id="그룹_5719" data-name="그룹 5719" transform="translate(7.408 1.002)">
      <path id="패스_6335" data-name="패스 6335" d="M771.148,372.976A18.448,18.448,0,0,1,752.7,391.424h0a18.448,18.448,0,0,1-18.449-18.449V358.217A18.448,18.448,0,0,1,752.7,339.769h0a18.448,18.448,0,0,1,18.449,18.448Z" transform="translate(-732.698 -338.217)" fill="#fff"/>
      <path id="패스_6336" data-name="패스 6336" d="M752.25,392.528a20.023,20.023,0,0,1-20-20V357.769a20,20,0,0,1,40,0v14.758A20.023,20.023,0,0,1,752.25,392.528Zm0-51.655a16.916,16.916,0,0,0-16.9,16.9v14.758a16.9,16.9,0,1,0,33.795,0V357.769A16.916,16.916,0,0,0,752.25,340.872Z" transform="translate(-732.25 -337.769)" fill="#282d33"/>
    </g>
    <g id="그룹_5720" data-name="그룹 5720" transform="translate(12.838 35.76)">
      <path id="패스_6337" data-name="패스 6337" d="M754.268,395.591a13.032,13.032,0,0,1-13.018-13.018" transform="translate(-739.698 -382.573)" fill="#fff"/>
      <path id="패스_6338" data-name="패스 6338" d="M753.82,397.143a14.586,14.586,0,0,1-14.57-14.57h3.1A11.479,11.479,0,0,0,753.82,394.04Z" transform="translate(-739.25 -382.573)" fill="#282d33"/>
    </g>
    <g id="그룹_5721" data-name="그룹 5721" transform="translate(2.59 0)">
      <path id="패스_6339" data-name="패스 6339" d="M775.223,348.387a8.477,8.477,0,0,0,.527-2.927v-6.982H744.718a8.526,8.526,0,0,0-7.136,3.86h-2.93a6.614,6.614,0,0,0-6.614,6.614V373h4.655V358.648a4.655,4.655,0,0,1,4.655-4.655h.562c4.009,4.575,10.71,7.582,18.319,7.582,10.406,0,19.139-5.611,21.564-13.188Z" transform="translate(-726.487 -336.926)" fill="#f8c44f"/>
      <path id="패스_6340" data-name="패스 6340" d="M733.8,374.1h-7.758V348.5a8.174,8.174,0,0,1,8.165-8.165h2.136a10.057,10.057,0,0,1,7.929-3.86h32.583v8.534a9.958,9.958,0,0,1-.1,1.375h2.715l-.649,2.025c-2.689,8.4-12.165,14.267-23.042,14.267-7.477,0-14.52-2.822-19-7.579a3.107,3.107,0,0,0-2.981,3.1Zm-4.655-3.1h1.552V358.2a6.213,6.213,0,0,1,6.206-6.206h1.265l.464.53c3.87,4.415,10.281,7.052,17.152,7.052,8.612,0,16.179-4.055,19.252-10.085h-2.478l.763-2.085a6.947,6.947,0,0,0,.432-2.393v-5.43H744.27a6.971,6.971,0,0,0-5.839,3.16l-.46.7H734.2a5.068,5.068,0,0,0-5.062,5.062Z" transform="translate(-726.039 -336.478)" fill="#282d33"/>
    </g>
    <g id="그룹_5722" data-name="그룹 5722" transform="translate(2.59 25.47)">
      <path id="패스_6341" data-name="패스 6341" d="M732.857,371.527c-1.832.191-4.818,1.722-4.818,3.605v6.678c0,1.884,2.986,3.415,4.818,3.605Z" transform="translate(-726.487 -369.806)" fill="#fff"/>
      <path id="패스_6342" data-name="패스 6342" d="M733.961,386.639l-1.712-.178c-2.538-.264-6.209-2.249-6.209-5.148v-6.678c0-2.9,3.671-4.884,6.209-5.148l1.712-.178Zm-3.1-13.534c-.948.465-1.715,1.119-1.715,1.529v6.678c0,.41.767,1.065,1.715,1.53Z" transform="translate(-726.039 -369.309)" fill="#282d33"/>
    </g>
    <g id="그룹_5723" data-name="그룹 5723" transform="translate(28.258 25.13)">
      <path id="패스_6343" data-name="패스 6343" d="M761.454,369.251l2.327,12.025h-4.655" transform="translate(-759.127 -368.956)" fill="#fff"/>
      <path id="패스_6344" data-name="패스 6344" d="M765.662,382.742h-6.535v-3.1H761.9l-1.97-10.178,3.046-.589Z" transform="translate(-759.127 -368.871)" fill="#282d33"/>
    </g>
    <g id="그룹_5724" data-name="그룹 5724" transform="translate(20.888 30.079)">
      <rect id="사각형_2626" data-name="사각형 2626" width="3.879" height="3.103" fill="#282d33"/>
    </g>
    <g id="그룹_5725" data-name="그룹 5725" transform="translate(35.628 30.079)">
      <rect id="사각형_2627" data-name="사각형 2627" width="3.879" height="3.103" fill="#282d33"/>
    </g>
  </g>
  <g id="그룹_5738" data-name="그룹 5738" transform="translate(56.022 0)">
    <g id="그룹_5727" data-name="그룹 5727" transform="translate(46.377 20.223)">
      <path id="패스_6345" data-name="패스 6345" d="M870.73,366.732c0,2.617-2.49,4.738-5.562,4.738s-5.562-2.121-5.562-4.738,2.49-4.738,5.562-4.738S870.73,364.115,870.73,366.732Z" transform="translate(-858.054 -360.442)" fill="#fff"/>
      <path id="패스_6346" data-name="패스 6346" d="M864.72,372.573c-3.922,0-7.114-2.822-7.114-6.289s3.192-6.289,7.114-6.289,7.113,2.822,7.113,6.289S868.642,372.573,864.72,372.573Zm0-9.475c-2.212,0-4.011,1.429-4.011,3.186s1.8,3.186,4.011,3.186,4.01-1.429,4.01-3.186S866.932,363.1,864.72,363.1Z" transform="translate(-857.606 -359.994)" fill="#282d33"/>
    </g>
    <g id="그룹_5728" data-name="그룹 5728" transform="translate(5.589 14.219)">
      <path id="패스_6347" data-name="패스 6347" d="M838.994,354.382a58.223,58.223,0,0,0-31.878,12.6c-.051.921-.086,1.846-.086,2.781,0,22.754,15.371,41.2,34.333,41.2,16.609,0,30.463-14.153,33.645-32.958a28.9,28.9,0,0,1-4.805.41C856.349,378.415,844.42,368.563,838.994,354.382Z" transform="translate(-805.478 -352.731)" fill="#f8c44f"/>
      <path id="패스_6348" data-name="패스 6348" d="M840.915,412.037c-19.787,0-35.885-19.178-35.885-42.752,0-.867.028-1.779.088-2.867l.037-.676.522-.433c8.735-7.234,20.357-11.833,32.728-12.949l1.169-.106.42,1.1c5.354,13.994,17.035,23.036,29.76,23.036A27.487,27.487,0,0,0,874.3,376l2.151-.362-.364,2.15C872.731,397.633,857.938,412.037,840.915,412.037Zm-32.733-44.767c-.033.738-.049,1.39-.049,2.015,0,21.862,14.706,39.649,32.781,39.649,14.911,0,27.975-12.32,31.715-29.586-.968.094-1.929.141-2.875.141-13.679,0-26.214-9.349-32.219-23.924A56.9,56.9,0,0,0,808.182,367.271Z" transform="translate(-805.03 -352.254)" fill="#282d33"/>
    </g>
    <g id="그룹_5729" data-name="그룹 5729" transform="translate(57.056 45.457)">
      <path id="패스_6349" data-name="패스 6349" d="M882.707,397.582a30.663,30.663,0,0,1-11.336-2.176l1.143-2.885a27.135,27.135,0,0,0,14.74,1.569l.514,3.06A30.573,30.573,0,0,1,882.707,397.582Z" transform="translate(-871.371 -392.521)" fill="#282d33"/>
    </g>
    <g id="그룹_5730" data-name="그룹 5730" transform="translate(6.825 55.379)">
      <path id="패스_6350" data-name="패스 6350" d="M808.623,428.012V413.445a6.134,6.134,0,0,1,6.133-6.134h31.817a6.134,6.134,0,0,1,6.133,6.134v14.567" transform="translate(-807.071 -405.759)" fill="#5eb4e7"/>
      <path id="패스_6351" data-name="패스 6351" d="M853.81,427.564h-3.1V413a4.587,4.587,0,0,0-4.582-4.583H814.308A4.588,4.588,0,0,0,809.726,413v14.567h-3.1V413a7.694,7.694,0,0,1,7.685-7.686h31.817A7.694,7.694,0,0,1,853.81,413Z" transform="translate(-806.623 -405.311)" fill="#282d33"/>
    </g>
    <g id="그룹_5731" data-name="그룹 5731" transform="translate(21.308 11.228)">
      <path id="패스_6352" data-name="패스 6352" d="M827.292,394.895V357.4a7,7,0,0,1,7-7h0a7,7,0,0,1,7,7v49.784C841.3,406.882,827.218,394.968,827.292,394.895Z" transform="translate(-825.74 -348.847)" fill="#fff"/>
      <path id="패스_6353" data-name="패스 6353" d="M840.852,408.289a1.55,1.55,0,0,1-1.265-.653c-.735-.756-5.595-4.937-8.838-7.728-5.429-4.672-5.429-4.672-5.456-5.4V356.954a8.556,8.556,0,0,1,17.111,0v49.784A1.552,1.552,0,0,1,840.852,408.289ZM828.4,393.771c.814.718,2.62,2.272,4.378,3.786,3.028,2.606,5.1,4.392,6.527,5.645V356.954a5.453,5.453,0,0,0-10.905,0Z" transform="translate(-825.292 -348.399)" fill="#282d33"/>
    </g>
    <g id="그룹_5732" data-name="그룹 5732" transform="translate(0 0.077)">
      <path id="패스_6354" data-name="패스 6354" d="M828.968,336.025A23.56,23.56,0,0,0,806.837,351.5c-2.524-1.048-5.317-.341-6.486,1.755-1.275,2.285-.132,5.351,2.552,6.846a6.327,6.327,0,0,0,2.551.787,23.551,23.551,0,1,0,23.514-24.865Z" transform="translate(-798.275 -334.473)" fill="#fff"/>
      <path id="패스_6355" data-name="패스 6355" d="M828.518,384.233a25.1,25.1,0,0,1-24.965-22.474,8,8,0,0,1-1.856-.748,7.607,7.607,0,0,1-3.458-3.94,5.911,5.911,0,0,1,.306-5.016,6.12,6.12,0,0,1,5.484-3.031,7.46,7.46,0,0,1,1.442.14,25.106,25.106,0,1,1,23.046,35.069ZM804.03,352.126a3.068,3.068,0,0,0-2.773,1.438,2.86,2.86,0,0,0-.109,2.422,4.5,4.5,0,0,0,2.062,2.313,4.8,4.8,0,0,0,1.924.6l1.347.112.074,1.349a21.98,21.98,0,1,0,1.292-8.77l-.556,1.523-1.5-.621A4.64,4.64,0,0,0,804.03,352.126Z" transform="translate(-797.825 -334.025)" fill="#282d33"/>
    </g>
    <g id="그룹_5733" data-name="그룹 5733" transform="translate(6.851 0.077)">
      <path id="패스_6356" data-name="패스 6356" d="M809.034,351.161a11.327,11.327,0,0,0,7.647,2.4c10.041,0,16.479-8.031,19.868-16.88a23.547,23.547,0,0,0-27.515,14.48Z" transform="translate(-807.189 -334.473)" fill="#f8c44f"/>
      <path id="패스_6357" data-name="패스 6357" d="M816.148,354.665A12.877,12.877,0,0,1,807.5,351.9l-.849-.711.4-1.034a25.1,25.1,0,0,1,29.325-15.434l1.72.412-.632,1.652C831.509,352.342,821.552,354.665,816.148,354.665Zm-5.749-4.483a10.393,10.393,0,0,0,5.749,1.38c9.756,0,15.117-8.22,17.718-14.172A21.981,21.981,0,0,0,810.4,350.181Z" transform="translate(-806.656 -334.025)" fill="#282d33"/>
    </g>
    <g id="그룹_5734" data-name="그룹 5734" transform="translate(30.798)">
      <path id="패스_6358" data-name="패스 6358" d="M861.082,355.048A23.559,23.559,0,0,0,840,336.144,23.559,23.559,0,0,0,861.082,355.048Z" transform="translate(-838.08 -334.423)" fill="#f8c44f"/>
      <path id="패스_6359" data-name="패스 6359" d="M862.445,356.272l-2.05-.175a25.176,25.176,0,0,1-22.474-20.151l-.4-2.019,2.051.175a25.177,25.177,0,0,1,22.474,20.151ZM841.5,337.492a22.1,22.1,0,0,0,16.969,15.213A22.1,22.1,0,0,0,841.5,337.492Z" transform="translate(-837.525 -333.926)" fill="#282d33"/>
    </g>
    <g id="그룹_5735" data-name="그룹 5735" transform="translate(15.304 25.284)">
      <path id="패스_6360" data-name="패스 6360" d="M822.053,370.572a6.345,6.345,0,0,1-4.5-1.86l2.194-2.195a3.266,3.266,0,0,0,4.613,0l2.194,2.194A6.341,6.341,0,0,1,822.053,370.572Z" transform="translate(-817.552 -366.517)" fill="#282d33"/>
    </g>
    <g id="그룹_5736" data-name="그룹 5736" transform="translate(34.805 25.284)">
      <path id="패스_6361" data-name="패스 6361" d="M847.19,370.572a6.344,6.344,0,0,1-4.5-1.86l2.194-2.195a3.266,3.266,0,0,0,4.613,0l2.194,2.195A6.345,6.345,0,0,1,847.19,370.572Z" transform="translate(-842.69 -366.517)" fill="#282d33"/>
    </g>
    <g id="그룹_5737" data-name="그룹 5737" transform="translate(28.661 22.323)">
      <rect id="사각형_2628" data-name="사각형 2628" width="3.103" height="10.163" fill="#282d33"/>
    </g>
  </g>
</svg>
