<svg xmlns="http://www.w3.org/2000/svg" width="75.185" height="51.505" viewBox="0 0 75.185 51.505">
  <g id="그룹_18538" data-name="그룹 18538" transform="translate(1277.376 362.768)">
    <g id="그룹_18526" data-name="그룹 18526">
      <g id="그룹_18525" data-name="그룹 18525">
        <path id="패스_29017" data-name="패스 29017" d="M-1203.938-346.232a25.3,25.3,0,0,0-13.463-14.093,25.254,25.254,0,0,0-10.235-2.161,25.51,25.51,0,0,0-23.345,15.2,25.5,25.5,0,0,0,13.042,33.575,25.231,25.231,0,0,0,10.237,2.162,25.508,25.508,0,0,0,23.342-15.2A25.3,25.3,0,0,0-1203.938-346.232Z" fill="#f8c44f"/>
        <g id="그룹_18523" data-name="그룹 18523">
          <g id="그룹_18522" data-name="그룹 18522">
            <path id="패스_29018" data-name="패스 29018" d="M-1251.655-312.814a23.989,23.989,0,0,1-9.726-2.052,24.233,24.233,0,0,1-12.391-31.906,24.237,24.237,0,0,1,22.183-14.446,23.965,23.965,0,0,1,9.724,2.054,24.042,24.042,0,0,1,12.794,13.391,24.039,24.039,0,0,1-.4,18.517,24.235,24.235,0,0,1-22.18,14.442Z" fill="#fff"/>
            <g id="그룹_18521" data-name="그룹 18521">
              <path id="패스_29019" data-name="패스 29019" d="M-1251.589-359.667a22.51,22.51,0,0,1,9.1,1.922,22.679,22.679,0,0,1,11.6,29.863,22.683,22.683,0,0,1-20.762,13.518,22.522,22.522,0,0,1-9.1-1.922,22.679,22.679,0,0,1-11.6-29.861,22.687,22.687,0,0,1,20.764-13.52m0-3.1a25.788,25.788,0,0,0-23.6,15.371,25.784,25.784,0,0,0,13.184,33.949,25.532,25.532,0,0,0,10.352,2.185,25.785,25.785,0,0,0,23.6-15.368,25.579,25.579,0,0,0,.429-19.7,25.579,25.579,0,0,0-13.613-14.249,25.517,25.517,0,0,0-10.35-2.185Z" fill="#282d33"/>
            </g>
          </g>
        </g>
        <g id="그룹_18524" data-name="그룹 18524">
          <path id="패스_29020" data-name="패스 29020" d="M-1229.2-334.114l-3.149,2.452-5.681,4.781-.253-4.639-3.688.665-.411-4.272-2.535,1.354-.731-.567-2.184-2.18-.693,2.969,1.668,1.683-7.305,7.1-1.986.314-.01-3.832,1.428-5.791-2.6-1.275-.263-2.492,3.293-3.461,2.44.454.979,1.51,3.608.636-2.72-3.544-2.768-1.829.242-.969,3.618-.4-.4-2.425,4.1-1.369,2.642,2.468,5.9.661s2.62-.2,5.543-.4A22.7,22.7,0,0,1-1229.2-334.114Z" fill="#5eb4e7"/>
          <path id="패스_29021" data-name="패스 29021" d="M-1257.551-358.846l-2.076,1.515-3.694,2.844a.349.349,0,0,0-.131.325l.426,2.931a.384.384,0,0,0,.208.269.347.347,0,0,0,.336-.034l2.083-1.461,1.14,4.046-6.593,2.15-2.792-.925a.351.351,0,0,0-.364.093l-1.3,1.389a.35.35,0,0,0-.083.323l.789,3.069-2.305-2.6-.383-1.357A22.6,22.6,0,0,1-1257.551-358.846Z" fill="#5eb4e7"/>
          <path id="패스_29022" data-name="패스 29022" d="M-1269.283-333.764l-.266-4.378,3.807-3.47,3.387,7.565-9.023,7.664v-2.637l2.063-4.582A.339.339,0,0,0-1269.283-333.764Z" fill="#5eb4e7"/>
          <path id="패스_29023" data-name="패스 29023" d="M-1255.924-351.226l-.189-5.918a20.9,20.9,0,0,1,7.486.676l-2.983,4.069Z" fill="#5eb4e7"/>
        </g>
      </g>
    </g>
    <g id="그룹_18537" data-name="그룹 18537">
      <g id="그룹_18533" data-name="그룹 18533">
        <g id="그룹_18527" data-name="그룹 18527">
          <line id="선_114" data-name="선 114" y1="4.471" transform="translate(-1215.262 -346.793)" fill="#fff"/>
          <rect id="사각형_3490" data-name="사각형 3490" width="3.101" height="4.471" transform="translate(-1216.812 -346.793)" fill="#282d33"/>
        </g>
        <g id="그룹_18528" data-name="그룹 18528">
          <line id="선_115" data-name="선 115" x1="3.872" y1="2.235" transform="translate(-1223.344 -341.823)" fill="#fff"/>
          <rect id="사각형_3491" data-name="사각형 3491" width="3.101" height="4.47" transform="matrix(0.5, -0.866, 0.866, 0.5, -1224.119, -340.48)" fill="#282d33"/>
        </g>
        <g id="그룹_18529" data-name="그룹 18529">
          <line id="선_116" data-name="선 116" x1="3.872" y2="2.234" transform="translate(-1223.081 -334.574)" fill="#fff"/>
          <rect id="사각형_3492" data-name="사각형 3492" width="4.471" height="3.101" transform="matrix(0.866, -0.5, 0.5, 0.866, -1223.856, -333.683)" fill="#282d33"/>
        </g>
        <g id="그룹_18530" data-name="그룹 18530">
          <line id="선_117" data-name="선 117" y2="4.473" transform="translate(-1214.735 -332.296)" fill="#fff"/>
          <rect id="사각형_3493" data-name="사각형 3493" width="3.101" height="4.473" transform="translate(-1216.285 -332.296)" fill="#282d33"/>
        </g>
        <g id="그룹_18531" data-name="그룹 18531">
          <line id="선_118" data-name="선 118" x2="3.872" y2="2.236" transform="translate(-1210.526 -335.03)" fill="#fff"/>
          <rect id="사각형_3494" data-name="사각형 3494" width="3.101" height="4.471" transform="translate(-1211.301 -333.687) rotate(-60.001)" fill="#282d33"/>
        </g>
        <g id="그룹_18532" data-name="그룹 18532">
          <line id="선_119" data-name="선 119" y1="2.236" x2="3.873" transform="translate(-1210.789 -342.278)" fill="#fff"/>
          <rect id="사각형_3495" data-name="사각형 3495" width="4.472" height="3.101" transform="matrix(0.866, -0.5, 0.5, 0.866, -1211.564, -341.385)" fill="#282d33"/>
        </g>
      </g>
      <g id="그룹_18536" data-name="그룹 18536">
        <g id="그룹_18534" data-name="그룹 18534">
          <path id="패스_29024" data-name="패스 29024" d="M-1214.926-332.749l2.271,4.015,2.27,4.017-4.612-.042-4.615-.042,2.344-3.975Z" fill="#fff"/>
          <path id="패스_29025" data-name="패스 29025" d="M-1207.714-323.142l-14.6-.132,7.414-12.575Zm-9.2-3.185,3.857.035-1.9-3.357Z" fill="#282d33"/>
        </g>
        <g id="그룹_18535" data-name="그룹 18535">
          <rect id="사각형_3496" data-name="사각형 3496" width="5.427" height="3.101" transform="matrix(0.009, -1, 1, 0.009, -1216.598, -319.426)" fill="#282d33"/>
        </g>
      </g>
    </g>
  </g>
</svg>
