<svg xmlns="http://www.w3.org/2000/svg" width="94.561" height="48.536" viewBox="0 0 94.561 48.536">
  <g id="그룹_19489" data-name="그룹 19489" transform="translate(1292.586 849.318)">
    <g id="그룹_19579" data-name="그룹 19579">
      <g id="그룹_19578" data-name="그룹 19578">
        <g id="그룹_19561" data-name="그룹 19561">
          <g id="그룹_19559" data-name="그룹 19559">
            <path id="패스_29528" data-name="패스 29528" d="M-1274.9-822.512a7.275,7.275,0,0,0,3.195,4.759,3.048,3.048,0,0,1,.32-1.519l1.079-2.155a3.066,3.066,0,0,1,4.119-1.369,3.065,3.065,0,0,1,1.366,4.113l-1.078,2.156a3.073,3.073,0,0,1-1.074,1.2l2.422,1.208a3.024,3.024,0,0,1,.313-1.572l2.553-5.1a3.063,3.063,0,0,1,4.114-1.369,3.067,3.067,0,0,1,1.372,4.113l-2.553,5.1a3.027,3.027,0,0,1-1.07,1.2l2.147,1.074a3.015,3.015,0,0,1,.314-1.573l3.15-6.3a3.068,3.068,0,0,1,4.115-1.369,3.073,3.073,0,0,1,1.372,4.117l-3.152,6.291a3.048,3.048,0,0,1-1.071,1.2l2.146,1.073a3.054,3.054,0,0,1,.313-1.578l1.079-2.154a3.071,3.071,0,0,1,4.117-1.37,3.067,3.067,0,0,1,1.375,4.115l-1.082,2.158a3.062,3.062,0,0,1-1.023,1.163c.161.06.324.118.489.168l4.063,2.029a3.064,3.064,0,0,0,4.114-1.364,3.075,3.075,0,0,0-.322-3.258,7.512,7.512,0,0,0,.487-.744l2.6,1.3a3.07,3.07,0,0,0,4.115-1.368,3.071,3.071,0,0,0-1.372-4.117l-2.579-1.293.267-.531,6.065,3.037a3.069,3.069,0,0,0,4.115-1.371,3.065,3.065,0,0,0-1.369-4.116l-6.094-3.049c.078-.187.141-.375.2-.564l8.915,4.463a3.068,3.068,0,0,0,4.115-1.37,3.07,3.07,0,0,0-1.37-4.115l-15.487-7.752a13.525,13.525,0,0,1-2.4-.309,12.063,12.063,0,0,1-7.2-4.493l-.075-.035.01.079-5.982.624-.218,1.145a5.326,5.326,0,0,1-6.279,4.151l-1.737-.354c-.071-.017-.143-.04-.215-.057l2.144-10.442,7.639-1.576,3.89-.747,3.714.822-1.13-3.572-.087-.011-7.678-.767-3.943-.337-12.637,4.207-2.945-1.369" fill="#fff"/>
          </g>
          <g id="그룹_19560" data-name="그룹 19560">
            <path id="패스_29529" data-name="패스 29529" d="M-1240.1-800.782a4.618,4.618,0,0,1-2.086-.5l-3.947-1.971c-.151-.049-.3-.1-.447-.157l-2.885-1.078.253-.172-6.934-3.467,0,0-6.886-3.444.005,0-6.96-3.474.015.316-2.6-1.68a8.909,8.909,0,0,1-3.9-5.8l3.132-.594a5.738,5.738,0,0,0,.874,2.123l.729-1.455a4.627,4.627,0,0,1,2.7-2.337,4.64,4.64,0,0,1,3.563.257,4.631,4.631,0,0,1,2.332,2.7l.016.049.014-.027a4.626,4.626,0,0,1,2.7-2.337,4.63,4.63,0,0,1,3.559.258,4.641,4.641,0,0,1,2.38,2.844,4.647,4.647,0,0,1,1.534-.857,4.631,4.631,0,0,1,3.558.253,4.674,4.674,0,0,1,2.086,6.254l-.485.967a4.631,4.631,0,0,1,3.2.358,4.667,4.667,0,0,1,2.088,6.252l-1.008,2.011,2.741,1.37a1.468,1.468,0,0,0,1.125.083,1.467,1.467,0,0,0,.853-.738,1.488,1.488,0,0,0-.158-1.566l-.746-.962.733-.973a5.759,5.759,0,0,0,.381-.584l.751-1.3,3.944,1.971a1.474,1.474,0,0,0,1.976-.655,1.477,1.477,0,0,0-.658-1.977l-4.01-2.012,1.7-3.376,7.486,3.749a1.467,1.467,0,0,0,1.124.078,1.451,1.451,0,0,0,.85-.735,1.466,1.466,0,0,0,.083-1.13,1.459,1.459,0,0,0-.737-.849l-7.429-3.717.577-1.375c.061-.144.108-.29.154-.435l.57-1.769,10.577,5.294a1.451,1.451,0,0,0,1.119.082,1.465,1.465,0,0,0,.857-.74,1.475,1.475,0,0,0-.659-1.976l-15.187-7.6a15.209,15.209,0,0,1-2.33-.327,14,14,0,0,1-7.532-4.34l-4.028.421a6.933,6.933,0,0,1-8.158,5.395l-1.738-.354c-.1-.024-.166-.04-.226-.058l-1.492-.364.26-1.518,2.355-11.47,8.666-1.788,3.479-.668-4.6-.46-3.594-.307-12.926,4.3-3.52-1.637,1.345-2.891,2.371,1.1,12.347-4.111,4.271.366,8.841.911,2.271,7.181-6.09-1.349-3.567.685-6.589,1.36-1.614,7.862.391.08a3.736,3.736,0,0,0,4.4-2.908l.435-2.288,5.555-.58-.155-1.321,3.042,1.426.242.334a10.5,10.5,0,0,0,6.251,3.871,11.987,11.987,0,0,0,2.119.273l.345.013,15.794,7.906a4.666,4.666,0,0,1,2.082,6.254,4.638,4.638,0,0,1-2.7,2.34,4.63,4.63,0,0,1-2.569.1,4.645,4.645,0,0,1-.495,2.193,4.621,4.621,0,0,1-2.7,2.334,4.633,4.633,0,0,1-3.311-.137,4.653,4.653,0,0,1-.488,2.073,4.668,4.668,0,0,1-6.253,2.084l-.143-.071a4.66,4.66,0,0,1-.488,2.058,4.638,4.638,0,0,1-2.7,2.336A4.671,4.671,0,0,1-1240.1-800.782Zm-6.563-10.287a1.491,1.491,0,0,0-.469.077,1.459,1.459,0,0,0-.851.737l-1.08,2.155a1.454,1.454,0,0,0-.148.752l.181,2.565,2.112-1.437a1.459,1.459,0,0,0,.493-.558l1.083-2.159a1.475,1.475,0,0,0-.663-1.975A1.465,1.465,0,0,0-1246.659-811.069Zm-4.8-7.578a1.481,1.481,0,0,0-.469.076,1.463,1.463,0,0,0-.851.737l-3.15,6.3a1.409,1.409,0,0,0-.15.748l.178,2.509,2.089-1.363a1.451,1.451,0,0,0,.515-.574l3.154-6.295a1.48,1.48,0,0,0-.661-1.978A1.451,1.451,0,0,0-1251.461-818.647Zm-7.479-2.243a1.452,1.452,0,0,0-.464.076,1.461,1.461,0,0,0-.851.738l-2.554,5.1a1.441,1.441,0,0,0-.148.744l.18,2.5,2.093-1.356a1.415,1.415,0,0,0,.508-.569l2.556-5.1a1.474,1.474,0,0,0-.658-1.972A1.467,1.467,0,0,0-1258.94-820.89Zm-8.619-.639a1.472,1.472,0,0,0-.466.076,1.465,1.465,0,0,0-.851.739l-1.08,2.155a1.462,1.462,0,0,0-.153.731l.12,2.571,2.147-1.406a1.468,1.468,0,0,0,.52-.575l1.08-2.158a1.457,1.457,0,0,0,.081-1.123,1.465,1.465,0,0,0-.736-.852A1.475,1.475,0,0,0-1267.559-821.529Z" fill="gray"/>
          </g>
        </g>
        <g id="그룹_19577" data-name="그룹 19577">
          <g id="그룹_19564" data-name="그룹 19564">
            <g id="그룹_19562" data-name="그룹 19562">
              <path id="패스_29530" data-name="패스 29530" d="M-1245.288-812.338a3.071,3.071,0,0,0-4.117,1.37l-1.079,2.154a3.073,3.073,0,0,0,1.372,4.119,3.073,3.073,0,0,0,4.117-1.37l1.082-2.158A3.067,3.067,0,0,0-1245.288-812.338Z" fill="#ccc"/>
            </g>
            <g id="그룹_19563" data-name="그룹 19563">
              <path id="패스_29531" data-name="패스 29531" d="M-1247.745-802.777h0a4.674,4.674,0,0,1-2.08-.492,4.677,4.677,0,0,1-2.086-6.256l1.081-2.157a4.637,4.637,0,0,1,4.172-2.574,4.671,4.671,0,0,1,2.083.493,4.667,4.667,0,0,1,2.088,6.252l-1.083,2.16A4.647,4.647,0,0,1-1247.745-802.777Zm1.087-8.291a1.465,1.465,0,0,0-1.321.813l-1.08,2.155a1.481,1.481,0,0,0,.661,1.98,1.507,1.507,0,0,0,1.979-.661l1.081-2.156a1.475,1.475,0,0,0-.663-1.975A1.45,1.45,0,0,0-1246.658-811.068Z" fill="gray"/>
            </g>
          </g>
          <g id="그룹_19567" data-name="그룹 19567">
            <g id="그룹_19565" data-name="그룹 19565">
              <path id="패스_29532" data-name="패스 29532" d="M-1266.183-822.8a3.066,3.066,0,0,0-4.119,1.369l-1.079,2.155a3.063,3.063,0,0,0,1.37,4.116,3.069,3.069,0,0,0,4.116-1.371l1.078-2.156A3.065,3.065,0,0,0-1266.183-822.8Z" fill="#ccc"/>
            </g>
            <g id="그룹_19566" data-name="그룹 19566">
              <path id="패스_29533" data-name="패스 29533" d="M-1268.642-813.238h0a4.679,4.679,0,0,1-2.081-.492,4.615,4.615,0,0,1-2.338-2.692,4.632,4.632,0,0,1,.255-3.565l1.079-2.154a4.634,4.634,0,0,1,4.169-2.576,4.694,4.694,0,0,1,2.09.5,4.631,4.631,0,0,1,2.332,2.7,4.625,4.625,0,0,1-.256,3.557l-1.077,2.154A4.636,4.636,0,0,1-1268.642-813.238Zm1.084-8.291a1.464,1.464,0,0,0-1.318.815l-1.08,2.155a1.47,1.47,0,0,0-.081,1.128,1.454,1.454,0,0,0,.737.848,1.491,1.491,0,0,0,1.978-.655l1.08-2.158a1.457,1.457,0,0,0,.081-1.123,1.465,1.465,0,0,0-.736-.852A1.458,1.458,0,0,0-1267.558-821.529Z" fill="gray"/>
            </g>
          </g>
          <g id="그룹_19570" data-name="그룹 19570">
            <g id="그룹_19568" data-name="그룹 19568">
              <path id="패스_29534" data-name="패스 29534" d="M-1250.092-819.916a3.068,3.068,0,0,0-4.115,1.369l-3.15,6.3a3.064,3.064,0,0,0,1.37,4.115,3.066,3.066,0,0,0,4.115-1.372l3.152-6.291A3.073,3.073,0,0,0-1250.092-819.916Z" fill="#ccc"/>
            </g>
            <g id="그룹_19569" data-name="그룹 19569">
              <path id="패스_29535" data-name="패스 29535" d="M-1254.618-806.217h0a4.669,4.669,0,0,1-2.083-.494,4.634,4.634,0,0,1-2.338-2.7,4.618,4.618,0,0,1,.26-3.554l3.147-6.291a4.637,4.637,0,0,1,4.172-2.576,4.667,4.667,0,0,1,2.082.493,4.674,4.674,0,0,1,2.086,6.254l-3.154,6.294A4.636,4.636,0,0,1-1254.618-806.217Zm3.157-12.43a1.466,1.466,0,0,0-1.32.813l-3.15,6.3a1.458,1.458,0,0,0-.083,1.121,1.465,1.465,0,0,0,.741.856,1.491,1.491,0,0,0,1.975-.659l3.153-6.293a1.48,1.48,0,0,0-.661-1.978A1.452,1.452,0,0,0-1251.461-818.647Z" fill="gray"/>
            </g>
          </g>
          <g id="그룹_19573" data-name="그룹 19573">
            <g id="그룹_19571" data-name="그룹 19571">
              <path id="패스_29536" data-name="패스 29536" d="M-1257.567-822.158a3.063,3.063,0,0,0-4.114,1.369l-2.553,5.1a3.068,3.068,0,0,0,1.371,4.113,3.063,3.063,0,0,0,4.115-1.369l2.553-5.1A3.067,3.067,0,0,0-1257.567-822.158Z" fill="#ccc"/>
            </g>
            <g id="그룹_19572" data-name="그룹 19572">
              <path id="패스_29537" data-name="패스 29537" d="M-1261.492-809.659h0a4.668,4.668,0,0,1-2.087-.5,4.667,4.667,0,0,1-2.081-6.249l2.554-5.1a4.634,4.634,0,0,1,4.167-2.575,4.669,4.669,0,0,1,2.088.5,4.664,4.664,0,0,1,2.082,6.249l-2.554,5.1A4.638,4.638,0,0,1-1261.492-809.659Zm2.553-11.231a1.462,1.462,0,0,0-1.316.814l-2.554,5.1a1.475,1.475,0,0,0,.66,1.974,1.487,1.487,0,0,0,1.975-.657l2.554-5.1a1.474,1.474,0,0,0-.658-1.972A1.457,1.457,0,0,0-1258.939-820.89Z" fill="gray"/>
            </g>
          </g>
          <g id="그룹_19576" data-name="그룹 19576">
            <g id="그룹_19574" data-name="그룹 19574">
              <path id="패스_29538" data-name="패스 29538" d="M-1212.01-844.435l-19.686,6.553-13.878-3.066-11.354,2.323-.086.018-2.144,10.442c.072.017.144.04.215.057l1.737.354a5.326,5.326,0,0,0,6.279-4.151l.218-1.145,5.982-.624a21.416,21.416,0,0,0,3.137,2.776.129.129,0,0,0,.026.018c.14.086.279.173.423.252a.777.777,0,0,0,.069.036c.132.077.268.15.405.218.034.019.071.035.106.055.124.06.253.125.382.184.052.023.1.043.153.067.12.054.238.106.358.155.067.027.134.052.2.078.109.041.214.083.324.124.086.032.176.059.261.088s.188.066.281.094c.115.036.229.068.342.1.074.02.145.043.22.065q.286.072.576.138c.2.046.4.083.6.118.025,0,.05.009.076.012.176.029.35.057.526.08l.044.006c.187.023.376.042.563.06h.005c.2.013.4.026.588.033h0l15.361,7.687,13.879-4.618Z" fill="#ccc"/>
            </g>
            <g id="그룹_19575" data-name="그룹 19575">
              <path id="패스_29539" data-name="패스 29539" d="M-1219.823-819.508l-15.651-7.833-.229-.014-.1-.007c-.2-.019-.41-.04-.613-.065l-.076-.011c-.208-.028-.38-.055-.553-.083l-.083-.014c-.238-.041-.466-.084-.695-.137-.2-.045-.4-.094-.608-.145l-.645-.189c-.1-.031-.22-.072-.341-.115s-.21-.068-.284-.1l-.563-.216c-.15-.062-.282-.12-.416-.18l-.162-.071c-.1-.046-.2-.094-.3-.142l-.3-.148c-.114-.056-.279-.145-.44-.239l-.1-.052c-.089-.048-.231-.134-.374-.222-.052-.03-.1-.061-.149-.094a19.33,19.33,0,0,1-2.841-2.427l-4.033.421a6.946,6.946,0,0,1-6.774,5.535,6.941,6.941,0,0,1-1.384-.14l-1.738-.354c-.1-.024-.166-.04-.227-.058l-1.491-.364.26-1.518,2.353-11.462,1.1-.236,11.7-2.393,13.779,3.043,20.78-6.917,7.2,21.613Zm-15.717-11.032c.179.012.36.024.533.03l.348.012,15.082,7.548,11.74-3.906-5.182-15.563-18.591,6.188-13.976-3.087-10.078,2.061-1.614,7.861.391.08a3.711,3.711,0,0,0,.748.076,3.741,3.741,0,0,0,3.65-2.984l.435-2.288,7.949-.83.541.579a19.359,19.359,0,0,0,2.817,2.513l.146.091c.087.053.157.095.23.135l.1.053c.1.06.208.117.316.17l.123.063.317.153c.081.034.144.062.2.092.044.017.148.063.253.107l.7.255c.087.031.154.055.222.076l.483.141c.189.05.368.093.548.134s.344.072.514.1c.223.037.381.062.541.083l.054.007C-1235.849-830.57-1235.694-830.554-1235.54-830.54Z" fill="gray"/>
            </g>
          </g>
        </g>
      </g>
    </g>
    <g id="그룹_19583" data-name="그룹 19583">
      <g id="그룹_19582" data-name="그룹 19582">
        <g id="그룹_19580" data-name="그룹 19580">
          <rect id="사각형_3880" data-name="사각형 3880" width="14.789" height="25.734" transform="translate(-1222.2 -842.632) rotate(-18.401)" fill="#fff"/>
        </g>
        <g id="그룹_19581" data-name="그룹 19581">
          <path id="패스_29540" data-name="패스 29540" d="M-1215.082-816.2l-9.136-27.439,17.057-5.68,9.136,27.444Zm-5.1-25.421,7.122,21.39,11.007-3.662-7.122-21.394Z" fill="gray"/>
        </g>
      </g>
    </g>
    <g id="그룹_19584" data-name="그룹 19584">
      <rect id="사각형_3881" data-name="사각형 3881" width="29.297" height="18.193" transform="matrix(0.316, -0.949, 0.949, 0.316, -1292.586, -821.52)" fill="#ccc"/>
    </g>
    <g id="그룹_19586" data-name="그룹 19586">
      <g id="그룹_19585" data-name="그룹 19585">
        <rect id="사각형_3882" data-name="사각형 3882" width="3.188" height="3.361" transform="matrix(0.316, -0.949, 0.949, 0.316, -1280.781, -820.518)" fill="#fff"/>
      </g>
    </g>
    <g id="그룹_19588" data-name="그룹 19588">
      <g id="그룹_19587" data-name="그룹 19587">
        <rect id="사각형_3883" data-name="사각형 3883" width="2.373" height="3.188" transform="translate(-1212.489 -825.539) rotate(-17.944)" fill="gray"/>
      </g>
    </g>
  </g>
</svg>
