<svg xmlns="http://www.w3.org/2000/svg" width="69.385" height="77.87" viewBox="0 0 69.385 77.87">
  <g id="그룹_18520" data-name="그룹 18520" transform="translate(1446.94 382.321)">
    <rect id="사각형_3483" data-name="사각형 3483" width="56.981" height="35.855" transform="translate(-1440.738 -346.509)" fill="#5eb4e7"/>
    <rect id="사각형_3484" data-name="사각형 3484" width="8.14" height="45.546" transform="translate(-1416.318 -351.354)" fill="#f8c44f"/>
    <g id="그룹_18506" data-name="그룹 18506">
      <g id="그룹_18504" data-name="그룹 18504">
        <path id="패스_29010" data-name="패스 29010" d="M-1417.815-326.759H-1435.6c-6.73,0-11.252-5.242-11.252-13.044v-7.961h3.1v7.961c0,4.807,2.141,9.943,8.151,9.943h17.783Z" fill="#282d33"/>
      </g>
      <g id="그룹_18505" data-name="그룹 18505">
        <path id="패스_29011" data-name="패스 29011" d="M-1388.9-326.759h-17.29v-3.1h17.29c6.011,0,8.152-5.176,8.152-10.02v-7.96h3.1v7.96C-1377.644-332.032-1382.166-326.759-1388.9-326.759Z" fill="#282d33"/>
      </g>
    </g>
    <g id="그룹_18507" data-name="그룹 18507">
      <path id="패스_29012" data-name="패스 29012" d="M-1377.555-304.451h-69.385v-48.26h69.385Zm-66.284-3.1h63.183V-349.61h-63.183Z" fill="#282d33"/>
    </g>
    <g id="그룹_18508" data-name="그룹 18508">
      <path id="패스_29013" data-name="패스 29013" d="M-1395.678-352.013h-3.1v-6.227h-26.937v6.227h-3.1v-9.328h33.139Z" fill="#282d33"/>
    </g>
    <g id="그룹_18509" data-name="그룹 18509">
      <path id="패스_29014" data-name="패스 29014" d="M-1420.851-382.321v2.744a6.7,6.7,0,0,0-2.705,5.38v11.675l.125,2.579a2.5,2.5,0,0,0,2.5,2.5c1.381,0,2.5-.5,2.5-1.876v.625a2.5,2.5,0,0,0,2.5,2.5,2.5,2.5,0,0,0,2.5-2.5v1.251a2.5,2.5,0,0,0,2.5,2.5,2.5,2.5,0,0,0,2.5-2.5v-1.408a2.63,2.63,0,0,0,2.611,2.409,2.589,2.589,0,0,0,2.586-2.588l.015-10.692.051,1.233v5.168a3.819,3.819,0,0,0,3.823,3.82h1.271c.055,0-.052-.005,0-.008v-4.782c-.007,0,.01,0,0-.005v-6.345l-7.242-8.428a6.746,6.746,0,0,0-3.034-1.654v-1.6" fill="#f8c44f"/>
      <path id="패스_29015" data-name="패스 29015" d="M-1410.924-353.39a4.048,4.048,0,0,1-3.258-1.646,4.014,4.014,0,0,1-1.745.4,4.05,4.05,0,0,1-3.176-1.539,5.378,5.378,0,0,1-1.826.287,4.056,4.056,0,0,1-4.052-4.051l-.124-2.5,0-11.751a8.185,8.185,0,0,1,2.706-6.109v-2.015h3.1v3.52l-.622.466a5.129,5.129,0,0,0-2.084,4.138v11.675l.124,2.5a.973.973,0,0,0,.953,1.025,1.624,1.624,0,0,0,.941-.183h0a1.421,1.421,0,0,0,.01-.142h3.1v.625a.952.952,0,0,0,.95.952.952.952,0,0,0,.951-.952h3.1v1.251a.953.953,0,0,0,.951.951.952.952,0,0,0,.95-.951v-1.408h3.1a1.125,1.125,0,0,0,1.061.858,1.038,1.038,0,0,0,1.036-1.037l.015-10.694,3.1-.061.051,1.232,0,5.232a2.272,2.272,0,0,0,1.993,2.252v-3.1l-.179-1.23.179-.053v-4.618l-6.812-7.926a5.2,5.2,0,0,0-2.282-1.224l-1.183-.288v-2.817h3.1v.478a8.314,8.314,0,0,1,2.55,1.649l.11.116,7.617,8.863v10.333l.086.01-.086,1.691v1.115l-.065,0-.007.112h-2.75a5.348,5.348,0,0,1-2.372-.551,4.143,4.143,0,0,1-4.1,3.61,4.121,4.121,0,0,1-1.7-.371A4.052,4.052,0,0,1-1410.924-353.39Z" fill="#282d33"/>
    </g>
    <g id="그룹_18519" data-name="그룹 18519">
      <g id="그룹_18518" data-name="그룹 18518">
        <g id="그룹_18512" data-name="그룹 18512">
          <g id="그룹_18510" data-name="그룹 18510">
            <rect id="사각형_3485" data-name="사각형 3485" width="3.101" height="15.402" transform="translate(-1410.682 -350.958)" fill="#282d33"/>
          </g>
          <g id="그룹_18511" data-name="그룹 18511">
            <rect id="사각형_3486" data-name="사각형 3486" width="3.101" height="15.402" transform="translate(-1416.915 -350.958)" fill="#282d33"/>
          </g>
        </g>
        <g id="그룹_18515" data-name="그룹 18515">
          <g id="그룹_18513" data-name="그룹 18513">
            <rect id="사각형_3487" data-name="사각형 3487" width="3.101" height="14.627" transform="translate(-1410.682 -321.177)" fill="#282d33"/>
          </g>
          <g id="그룹_18514" data-name="그룹 18514">
            <rect id="사각형_3488" data-name="사각형 3488" width="3.101" height="14.627" transform="translate(-1416.915 -321.177)" fill="#282d33"/>
          </g>
        </g>
        <g id="그룹_18516" data-name="그룹 18516">
          <path id="패스_29016" data-name="패스 29016" d="M-1408.514-319.277h-7.466a2.811,2.811,0,0,1-2.808-2.808V-333.92a2.81,2.81,0,0,1,2.808-2.807h7.466a2.811,2.811,0,0,1,2.807,2.807v11.835A2.811,2.811,0,0,1-1408.514-319.277Zm-7.173-3.1h6.879v-11.248h-6.879Z" fill="#282d33"/>
        </g>
        <g id="그룹_18517" data-name="그룹 18517">
          <rect id="사각형_3489" data-name="사각형 3489" width="3.101" height="4.206" transform="translate(-1413.798 -325.815)" fill="#282d33"/>
        </g>
      </g>
    </g>
  </g>
</svg>
