<svg xmlns="http://www.w3.org/2000/svg" width="82.319" height="78.745" viewBox="0 0 82.319 78.745">
  <g id="그룹_19154" data-name="그룹 19154" transform="translate(-848.999 -1352)">
    <g id="그룹_19153" data-name="그룹 19153" transform="translate(1950.15 2047.456)">
      <g id="그룹_19146" data-name="그룹 19146">
        <path id="패스_29354" data-name="패스 29354" d="M-1088.323-659.156l1.793-.584c2.976-.968,6.036,1.194,7.5,4.029l5.379,8.254a15.463,15.463,0,0,1-8.028,1.027l-6.862-12.637C-1088.467-659.1-1088.4-659.131-1088.323-659.156Z" fill="#fff"/>
        <path id="패스_29355" data-name="패스 29355" d="M-1079.51-644.76a22.251,22.251,0,0,1-2.337-.128l-.809-.087-8.074-14.871,1.6-.656c.137-.058.229-.095.327-.127l1.794-.585a6.29,6.29,0,0,1,1.956-.311c2.874,0,5.756,1.972,7.362,5.031l6.318,9.7-1.632.75A15.491,15.491,0,0,1-1079.51-644.76Zm-1.206-3.142a15.221,15.221,0,0,0,4.685-.364L-1080.41-655c-1.263-2.449-3.667-3.905-5.64-3.265l-.249.082Z" fill="gray"/>
      </g>
      <g id="그룹_19147" data-name="그룹 19147">
        <path id="패스_29356" data-name="패스 29356" d="M-1038.769-631.03h-12.494l-29.02-10.772-18.592-12.792c.052-.062.1-.122.156-.179l1.333-1.334c2.213-2.213,5.919-1.673,8.508.191l11.059,6.369,4.349,2.529h18.64l-.005-1.7-11.556.027c-2.961-.085-5.294-3.384-5.21-6.348,0,0,.065-.673.072-.747h20.621l7.973,7.009h4.166" fill="#fff"/>
        <path id="패스_29357" data-name="패스 29357" d="M-1038.769-629.48h-12.772L-1081-640.415l-20.148-13.864,1.083-1.3a3.748,3.748,0,0,1,.252-.285l1.333-1.334c2.857-2.858,7.4-2.174,10.445-.018l14.987,8.653h2.936a8.4,8.4,0,0,1-3.036-6.515l.007-.1.2-2.149h22.62l7.974,7.009h3.581v3.1h-4.75l-7.974-7.009H-1070c.3,1.912,1.832,3.943,3.653,3.995l13.059-.031.013,4.8h-20.613l-4.71-2.74-11.186-6.45c-1.932-1.392-4.87-1.989-6.506-.353l-.185.185,16.912,11.636,28.579,10.608h12.215Z" fill="gray"/>
      </g>
      <path id="패스_29358" data-name="패스 29358" d="M-1018.832-652.125h-17.492v35.414h17.492" fill="#ccc"/>
      <g id="그룹_19148" data-name="그룹 19148">
        <line id="선_218" data-name="선 218" y1="9.82" transform="translate(-1066.141 -690.546)" fill="#fff"/>
        <rect id="사각형_3784" data-name="사각형 3784" width="3.101" height="9.82" transform="translate(-1067.691 -690.546)" fill="gray"/>
      </g>
      <g id="그룹_19149" data-name="그룹 19149">
        <line id="선_219" data-name="선 219" y1="9.82" transform="translate(-1081.388 -690.546)" fill="#fff"/>
        <rect id="사각형_3785" data-name="사각형 3785" width="3.101" height="9.82" transform="translate(-1082.938 -690.546)" fill="gray"/>
      </g>
      <g id="그룹_19150" data-name="그룹 19150">
        <line id="선_220" data-name="선 220" y1="9.82" transform="translate(-1073.893 -695.456)" fill="#fff"/>
        <rect id="사각형_3786" data-name="사각형 3786" width="3.101" height="9.82" transform="translate(-1075.444 -695.456)" fill="gray"/>
      </g>
      <g id="그룹_19151" data-name="그룹 19151">
        <path id="패스_29359" data-name="패스 29359" d="M-1083.03-668.988a9.5,9.5,0,0,0,9.5,9.5,9.5,9.5,0,0,0,9.5-9.5,9.5,9.5,0,0,0-9.5-9.5A9.5,9.5,0,0,0-1083.03-668.988Z" fill="#ccc"/>
      </g>
      <g id="그룹_19152" data-name="그룹 19152">
        <rect id="사각형_3787" data-name="사각형 3787" width="2.972" height="3.101" transform="translate(-1033.471 -622.86)" fill="#fff"/>
      </g>
    </g>
  </g>
</svg>
