<svg xmlns="http://www.w3.org/2000/svg" width="108.956" height="80.768" viewBox="0 0 108.956 80.768">
  <g id="그룹_19878" data-name="그룹 19878" transform="translate(-718.932 -799)">
    <g id="그룹_19877" data-name="그룹 19877" transform="translate(468.932)">
      <g id="그룹_19207" data-name="그룹 19207" transform="translate(250 802)">
        <g id="그룹_5802" data-name="그룹 5802" transform="translate(0 0)">
          <g id="그룹_5792" data-name="그룹 5792" transform="translate(0 59.773)">
            <path id="패스_6432" data-name="패스 6432" d="M722.7,728.487v-9.135c0-4.036,3.7-7.309,8.257-7.309H767.2c4.561,0,8.257,3.272,8.257,7.309v9.135" transform="translate(-721.149 -710.492)" fill="#fff"/>
            <path id="패스_6433" data-name="패스 6433" d="M776.557,728.039h-3.1V718.9c0-3.175-3.008-5.757-6.705-5.757H730.51c-3.7,0-6.706,2.583-6.706,5.757v9.135h-3.1V718.9c0-4.886,4.4-8.86,9.809-8.86h36.239c5.408,0,9.808,3.974,9.808,8.86Z" transform="translate(-720.701 -710.044)" fill="gray"/>
          </g>
          <path id="패스_6434" data-name="패스 6434" d="M753.312,727.974h.388a10.873,10.873,0,0,0,10.861-10.861v-3.055h-22.11v3.055A10.873,10.873,0,0,0,753.312,727.974Z" transform="translate(-725.578 -651.172)" fill="#ccc"/>
          <g id="그룹_5793" data-name="그룹 5793" transform="translate(19.976 42.28)">
            <rect id="사각형_2639" data-name="사각형 2639" width="12.8" height="28.316" rx="6.4" transform="translate(1.551 1.551)" fill="#fff"/>
            <path id="패스_6435" data-name="패스 6435" d="M754.6,718.915h-.388a7.767,7.767,0,0,1-7.758-7.758v-15.9a7.767,7.767,0,0,1,7.758-7.758h.388a7.767,7.767,0,0,1,7.758,7.758v15.9A7.767,7.767,0,0,1,754.6,718.915Zm-.388-28.316a4.659,4.659,0,0,0-4.655,4.655v15.9a4.659,4.659,0,0,0,4.655,4.655h.388a4.66,4.66,0,0,0,4.655-4.655v-15.9A4.66,4.66,0,0,0,754.6,690.6Z" transform="translate(-746.451 -687.496)" fill="gray"/>
          </g>
          <g id="그룹_5794" data-name="그룹 5794" transform="translate(8.316 3.117)">
            <path id="패스_6436" data-name="패스 6436" d="M770.318,672.221a18.448,18.448,0,0,1-18.449,18.449h0a18.448,18.448,0,0,1-18.449-18.449V657.462a18.448,18.448,0,0,1,18.449-18.448h0a18.448,18.448,0,0,1,18.449,18.448Z" transform="translate(-731.868 -637.462)" fill="#fff"/>
            <path id="패스_6437" data-name="패스 6437" d="M751.42,691.773a20.023,20.023,0,0,1-20-20V657.014a20,20,0,0,1,40,0v14.758A20.023,20.023,0,0,1,751.42,691.773Zm0-51.656a16.916,16.916,0,0,0-16.9,16.9v14.758a16.9,16.9,0,1,0,33.795,0V657.014A16.916,16.916,0,0,0,751.42,640.117Z" transform="translate(-731.42 -637.014)" fill="gray"/>
          </g>
          <g id="그룹_5795" data-name="그룹 5795" transform="translate(3.685 0)">
            <path id="패스_6438" data-name="패스 6438" d="M734.409,667.967V653.846c0-.2.022-.391.03-.587a81.733,81.733,0,0,0,32.183,0c.008.2.03.389.03.587v14.121h5.208a21.612,21.612,0,0,0,1.75-8.534v-2.715A21.722,21.722,0,0,0,751.888,635h-2.715a21.722,21.722,0,0,0-21.722,21.722v2.715a21.613,21.613,0,0,0,1.749,8.534Z" transform="translate(-725.899 -633.444)" fill="#ccc"/>
            <path id="패스_6439" data-name="패스 6439" d="M772.436,669.07h-7.784V654.69a84.143,84.143,0,0,1-29.14,0V669.07h-7.784l-.4-.941a23.092,23.092,0,0,1-1.874-9.144v-2.715A23.3,23.3,0,0,1,748.724,633h2.715a23.3,23.3,0,0,1,23.273,23.273v2.715a23.1,23.1,0,0,1-1.874,9.144Zm-4.681-3.1h2.607a20.012,20.012,0,0,0,1.248-6.982v-2.715a20.193,20.193,0,0,0-20.17-20.17h-2.715a20.193,20.193,0,0,0-20.17,20.17v2.715a20,20,0,0,0,1.248,6.982h2.607V653.4c0-.154.009-.3.019-.456l.011-.188.068-1.841,1.8.379a80.194,80.194,0,0,0,31.545,0l1.8-.379.079,2.029c.01.151.019.3.019.456Z" transform="translate(-725.451 -632.996)" fill="gray"/>
          </g>
          <g id="그룹_5796" data-name="그룹 5796" transform="translate(42.863 30.82)">
            <path id="패스_6440" data-name="패스 6440" d="M777.952,678.366a3.643,3.643,0,0,1,3.643-3.643h.3a3.643,3.643,0,0,1,3.642,3.643v4.423a3.643,3.643,0,0,1-3.642,3.643h-.3a3.644,3.644,0,0,1-3.334-2.172" transform="translate(-776.4 -673.171)" fill="#fff"/>
            <path id="패스_6441" data-name="패스 6441" d="M781.451,687.536h-.3a5.2,5.2,0,0,1-4.753-3.1l2.838-1.254a2.1,2.1,0,0,0,1.915,1.247h.3a2.093,2.093,0,0,0,2.091-2.092v-4.423a2.093,2.093,0,0,0-2.091-2.091h-.3a2.093,2.093,0,0,0-2.091,2.091h-3.1a5.2,5.2,0,0,1,5.195-5.195h.3a5.2,5.2,0,0,1,5.194,5.195v4.423A5.2,5.2,0,0,1,781.451,687.536Z" transform="translate(-775.952 -672.723)" fill="gray"/>
          </g>
          <g id="그룹_5797" data-name="그룹 5797" transform="translate(5.474 30.65)">
            <path id="패스_6442" data-name="패스 6442" d="M734.911,674.723c-1.959.2-5.154,1.842-5.154,3.856v4.654c0,2.015,3.2,3.652,5.154,3.856Z" transform="translate(-728.205 -673.002)" fill="#fff"/>
            <path id="패스_6443" data-name="패스 6443" d="M736.014,688.313l-1.712-.178c-2.675-.278-6.545-2.361-6.545-5.4v-4.654c0-3.037,3.87-5.12,6.545-5.4l1.712-.178Zm-3.1-12.041c-1.125.521-2.051,1.312-2.051,1.809v4.654c0,.534.95,1.3,2.051,1.8Z" transform="translate(-727.757 -672.504)" fill="gray"/>
          </g>
          <g id="그룹_5798" data-name="그룹 5798" transform="translate(22.696 38.789)">
            <path id="패스_6444" data-name="패스 6444" d="M758.551,683a3.3,3.3,0,0,1-6.594,0" transform="translate(-750.405 -682.996)" fill="#fff"/>
            <path id="패스_6445" data-name="패스 6445" d="M754.806,687.845A4.854,4.854,0,0,1,749.957,683h3.1a1.746,1.746,0,0,0,3.491,0h3.1A4.854,4.854,0,0,1,754.806,687.845Z" transform="translate(-749.957 -682.996)" fill="gray"/>
          </g>
          <g id="그룹_5799" data-name="그룹 5799" transform="translate(18.817 31.419)">
            <rect id="사각형_2640" data-name="사각형 2640" width="3.362" height="3.103" fill="gray"/>
          </g>
          <g id="그룹_5800" data-name="그룹 5800" transform="translate(32.781 31.419)">
            <rect id="사각형_2641" data-name="사각형 2641" width="3.362" height="3.103" fill="gray"/>
          </g>
          <g id="그룹_5801" data-name="그룹 5801" transform="translate(17.047 45.124)">
            <path id="패스_6446" data-name="패스 6446" d="M746.559,693.162a10.13,10.13,0,0,0,16.521,0Z" transform="translate(-743.546 -691.61)" fill="#fff"/>
            <path id="패스_6447" data-name="패스 6447" d="M753.949,698.532a11.726,11.726,0,0,1-9.523-4.917l-1.75-2.453h22.547l-1.75,2.453A11.728,11.728,0,0,1,753.949,698.532Zm-4.3-4.267a8.539,8.539,0,0,0,8.607,0Z" transform="translate(-742.675 -691.162)" fill="gray"/>
          </g>
        </g>
      </g>
      <g id="그룹_19208" data-name="그룹 19208" transform="translate(308 799)">
        <g id="그룹_5814" data-name="그룹 5814" transform="translate(0 0)">
          <g id="그룹_5804" data-name="그룹 5804" transform="translate(1.306 66.768)">
            <path id="패스_6448" data-name="패스 6448" d="M826.15,729.652v-6.206a6.206,6.206,0,0,1,6.206-6.206h34.134a6.206,6.206,0,0,1,6.206,6.206v6.206" transform="translate(-824.598 -715.688)" fill="#fff"/>
            <path id="패스_6449" data-name="패스 6449" d="M873.8,729.2h-3.1V723a4.659,4.659,0,0,0-4.655-4.655H831.908A4.659,4.659,0,0,0,827.253,723V729.2h-3.1V723a7.767,7.767,0,0,1,7.758-7.758h34.134A7.767,7.767,0,0,1,873.8,723Z" transform="translate(-824.15 -715.24)" fill="gray"/>
          </g>
          <g id="그룹_5805" data-name="그룹 5805" transform="translate(17.289 21.281)">
            <path id="패스_6450" data-name="패스 6450" d="M854.173,713.168a7.421,7.421,0,0,1-7.42-7.42V666.027a7.422,7.422,0,0,1,7.42-7.421h0a7.421,7.421,0,0,1,7.42,7.421v39.721a7.42,7.42,0,0,1-7.42,7.42Z" transform="translate(-845.201 -657.054)" fill="#fff"/>
            <path id="패스_6451" data-name="패스 6451" d="M853.725,714.271a8.982,8.982,0,0,1-8.972-8.972V665.579a8.972,8.972,0,1,1,17.943,0V705.3A8.981,8.981,0,0,1,853.725,714.271Zm0-54.562a5.875,5.875,0,0,0-5.869,5.87V705.3a5.868,5.868,0,1,0,11.737,0V665.579A5.875,5.875,0,0,0,853.725,659.709Z" transform="translate(-844.753 -656.606)" fill="gray"/>
          </g>
          <g id="그룹_5806" data-name="그룹 5806" transform="translate(0 0)">
            <path id="패스_6452" data-name="패스 6452" d="M872.226,694.573V655.052a23.879,23.879,0,0,0-47.759,0v39.521h.8a19.439,19.439,0,0,0,19.415-19.258h7.948a19.439,19.439,0,0,0,19.415,19.258Z" transform="translate(-822.915 -629.622)" fill="#ccc"/>
            <path id="패스_6453" data-name="패스 6453" d="M873.329,695.676h-1.737a21.035,21.035,0,0,1-20.9-19.258h-4.983a21.035,21.035,0,0,1-20.9,19.258h-2.347V654.6a25.431,25.431,0,0,1,50.862,0Zm-25.431-63.4A22.352,22.352,0,0,0,825.57,654.6v37.954a17.92,17.92,0,0,0,17.108-17.7l.013-1.539h11.025l.012,1.539a17.925,17.925,0,0,0,16.5,17.667V654.6A22.352,22.352,0,0,0,847.9,632.277Z" transform="translate(-822.467 -629.174)" fill="gray"/>
          </g>
          <g id="그룹_5807" data-name="그룹 5807" transform="translate(39.014 28.477)">
            <path id="사각형_2642" data-name="사각형 2642" d="M3.794,0h0A3.791,3.791,0,0,1,7.588,3.791V10.17a3.794,3.794,0,0,1-3.794,3.794h0A3.794,3.794,0,0,1,0,10.17V3.794A3.794,3.794,0,0,1,3.794,0Z" transform="translate(1.552 1.551)" fill="#fff"/>
            <path id="패스_6454" data-name="패스 6454" d="M878.254,682.949h-.3a5.2,5.2,0,0,1-5.192-5.195v-6.678a5.2,5.2,0,0,1,5.192-5.195h.3a5.2,5.2,0,0,1,5.195,5.195v6.678A5.2,5.2,0,0,1,878.254,682.949Zm-.3-13.964a2.092,2.092,0,0,0-2.089,2.091v6.678a2.093,2.093,0,0,0,2.089,2.092h.3a2.093,2.093,0,0,0,2.091-2.092v-6.678a2.093,2.093,0,0,0-2.091-2.091Z" transform="translate(-872.757 -665.882)" fill="gray"/>
          </g>
          <g id="그룹_5808" data-name="그룹 5808" transform="translate(5.43 26.426)">
            <path id="패스_6455" data-name="패스 6455" d="M868.365,663.238V677a18.449,18.449,0,0,1-18.449,18.45h0A18.449,18.449,0,0,1,831.467,677V663.238" transform="translate(-829.915 -663.238)" fill="#fff"/>
            <path id="패스_6456" data-name="패스 6456" d="M849.467,697a20.023,20.023,0,0,1-20-20V663.238h3.1V677a16.9,16.9,0,1,0,33.795,0V663.238h3.1V677A20.023,20.023,0,0,1,849.467,697Z" transform="translate(-829.467 -663.238)" fill="gray"/>
          </g>
          <g id="그룹_5809" data-name="그룹 5809" transform="translate(0.613 28.345)">
            <path id="패스_6457" data-name="패스 6457" d="M830.075,667.93c-1.832.191-4.818,1.722-4.818,3.606v6.678c0,1.884,2.985,3.415,4.818,3.605Z" transform="translate(-823.705 -666.209)" fill="#fff"/>
            <path id="패스_6458" data-name="패스 6458" d="M831.178,683.042l-1.711-.178c-2.538-.263-6.209-2.248-6.209-5.148v-6.678c0-2.9,3.671-4.884,6.209-5.149l1.712-.178Zm-3.1-13.533c-.946.465-1.714,1.119-1.714,1.529v6.678c0,.411.768,1.065,1.714,1.529Z" transform="translate(-823.257 -665.711)" fill="gray"/>
          </g>
          <g id="그룹_5810" data-name="그룹 5810" transform="translate(14.447 36.641)">
            <rect id="사각형_2643" data-name="사각형 2643" width="3.362" height="3.103" fill="gray"/>
          </g>
          <g id="그룹_5811" data-name="그룹 5811" transform="translate(33.066 36.641)">
            <rect id="사각형_2644" data-name="사각형 2644" width="3.362" height="3.103" fill="gray"/>
          </g>
          <g id="그룹_5812" data-name="그룹 5812" transform="translate(24.443 47.617)">
            <path id="패스_6459" data-name="패스 6459" d="M853.974,694.188h2.313a3.3,3.3,0,0,0,3.3-3.3v-.33" transform="translate(-853.974 -690.553)" fill="#fff"/>
            <path id="패스_6460" data-name="패스 6460" d="M856.287,695.739h-2.313v-3.1h2.313a1.755,1.755,0,0,0,1.753-1.753v-.33h3.1v.33A4.861,4.861,0,0,1,856.287,695.739Z" transform="translate(-853.974 -690.553)" fill="gray"/>
          </g>
          <g id="그룹_5813" data-name="그룹 5813" transform="translate(5.43 10.849)">
            <path id="패스_6461" data-name="패스 6461" d="M837.289,644.616a18.4,18.4,0,0,0-5.822,13.45v2.548h13.794a5.421,5.421,0,0,0,4.655-2.644,5.422,5.422,0,0,0,4.655,2.644h13.794" transform="translate(-829.915 -643.485)" fill="#ccc"/>
            <path id="패스_6462" data-name="패스 6462" d="M867.916,661.839H854.122a6.914,6.914,0,0,1-4.655-1.777,6.912,6.912,0,0,1-4.655,1.777H829.467v-4.1a20.078,20.078,0,0,1,6.312-14.581l2.124,2.262a16.74,16.74,0,0,0-5.333,12.319v1h12.243a3.847,3.847,0,0,0,3.323-1.891l1.33-2.217,1.331,2.217a3.849,3.849,0,0,0,3.324,1.891h13.794Z" transform="translate(-829.467 -643.158)" fill="gray"/>
          </g>
        </g>
      </g>
    </g>
  </g>
</svg>
