<svg xmlns="http://www.w3.org/2000/svg" width="75.649" height="62.725" viewBox="0 0 75.649 62.725">
  <g id="그룹_19493" data-name="그룹 19493" transform="translate(906.328 669.251)">
    <g id="그룹_19713" data-name="그룹 19713">
      <g id="그룹_19712" data-name="그룹 19712">
        <g id="그룹_19684" data-name="그룹 19684">
          <g id="그룹_19682" data-name="그룹 19682">
            <rect id="사각형_3900" data-name="사각형 3900" width="61.051" height="33.544" transform="translate(-904.777 -667.701)" fill="#fff"/>
          </g>
          <g id="그룹_19683" data-name="그룹 19683">
            <path id="패스_29567" data-name="패스 29567" d="M-842.176-632.606h-64.152v-36.645h64.152Zm-61.051-3.1h57.95V-666.15h-57.95Z" fill="gray"/>
          </g>
        </g>
        <g id="그룹_19685" data-name="그룹 19685">
          <path id="패스_29568" data-name="패스 29568" d="M-896.431-638.768a4.476,4.476,0,0,0-3.736-3.627v-17.142a4.47,4.47,0,0,0,3.721-3.553h44.388a4.469,4.469,0,0,0,3.72,3.553v17.145a4.466,4.466,0,0,0-3.734,3.624Z" fill="#ccc"/>
        </g>
        <g id="그룹_19688" data-name="그룹 19688">
          <g id="그룹_19686" data-name="그룹 19686">
            <path id="패스_29569" data-name="패스 29569" d="M-867.157-650.929a7.1,7.1,0,0,1-7.1,7.1,7.1,7.1,0,0,1-7.094-7.1,7.1,7.1,0,0,1,7.094-7.095A7.1,7.1,0,0,1-867.157-650.929Z" fill="#fff"/>
          </g>
          <g id="그룹_19687" data-name="그룹 19687">
            <path id="패스_29570" data-name="패스 29570" d="M-874.253-642.284a8.655,8.655,0,0,1-8.645-8.645,8.655,8.655,0,0,1,8.645-8.645,8.655,8.655,0,0,1,8.646,8.645A8.655,8.655,0,0,1-874.253-642.284Zm0-14.189a5.55,5.55,0,0,0-5.544,5.544,5.55,5.55,0,0,0,5.544,5.544,5.55,5.55,0,0,0,5.545-5.544A5.55,5.55,0,0,0-874.253-656.473Z" fill="gray"/>
          </g>
        </g>
        <g id="그룹_19711" data-name="그룹 19711">
          <g id="그룹_19699" data-name="그룹 19699">
            <g id="그룹_19691" data-name="그룹 19691">
              <g id="그룹_19689" data-name="그룹 19689">
                <line id="선_249" data-name="선 249" x2="10.488" transform="translate(-863.354 -650.929)" fill="#fff"/>
              </g>
              <g id="그룹_19690" data-name="그룹 19690">
                <rect id="사각형_3901" data-name="사각형 3901" width="10.488" height="3.101" transform="translate(-863.354 -652.48)" fill="gray"/>
              </g>
            </g>
            <g id="그룹_19698" data-name="그룹 19698">
              <g id="그룹_19694" data-name="그룹 19694">
                <g id="그룹_19692" data-name="그룹 19692">
                  <line id="선_250" data-name="선 250" x2="6.264" transform="translate(-863.354 -656.798)" fill="#fff"/>
                </g>
                <g id="그룹_19693" data-name="그룹 19693">
                  <rect id="사각형_3902" data-name="사각형 3902" width="6.264" height="3.101" transform="translate(-863.354 -658.349)" fill="gray"/>
                </g>
              </g>
              <g id="그룹_19697" data-name="그룹 19697">
                <g id="그룹_19695" data-name="그룹 19695">
                  <line id="선_251" data-name="선 251" x2="6.264" transform="translate(-863.354 -645.06)" fill="#fff"/>
                </g>
                <g id="그룹_19696" data-name="그룹 19696">
                  <rect id="사각형_3903" data-name="사각형 3903" width="6.264" height="3.101" transform="translate(-863.354 -646.611)" fill="gray"/>
                </g>
              </g>
            </g>
          </g>
          <g id="그룹_19710" data-name="그룹 19710">
            <g id="그룹_19702" data-name="그룹 19702">
              <g id="그룹_19700" data-name="그룹 19700">
                <line id="선_252" data-name="선 252" x1="10.487" transform="translate(-895.637 -650.929)" fill="#fff"/>
              </g>
              <g id="그룹_19701" data-name="그룹 19701">
                <rect id="사각형_3904" data-name="사각형 3904" width="10.487" height="3.101" transform="translate(-895.637 -652.48)" fill="gray"/>
              </g>
            </g>
            <g id="그룹_19709" data-name="그룹 19709">
              <g id="그룹_19705" data-name="그룹 19705">
                <g id="그룹_19703" data-name="그룹 19703">
                  <line id="선_253" data-name="선 253" x1="6.263" transform="translate(-891.413 -645.06)" fill="#fff"/>
                </g>
                <g id="그룹_19704" data-name="그룹 19704">
                  <rect id="사각형_3905" data-name="사각형 3905" width="6.263" height="3.101" transform="translate(-891.413 -646.611)" fill="gray"/>
                </g>
              </g>
              <g id="그룹_19708" data-name="그룹 19708">
                <g id="그룹_19706" data-name="그룹 19706">
                  <line id="선_254" data-name="선 254" x1="6.263" transform="translate(-891.413 -656.798)" fill="#fff"/>
                </g>
                <g id="그룹_19707" data-name="그룹 19707">
                  <rect id="사각형_3906" data-name="사각형 3906" width="6.263" height="3.101" transform="translate(-891.413 -658.349)" fill="gray"/>
                </g>
              </g>
            </g>
          </g>
        </g>
      </g>
    </g>
    <g id="그룹_19718" data-name="그룹 19718">
      <g id="그룹_19717" data-name="그룹 19717">
        <g id="그룹_19716" data-name="그룹 19716">
          <g id="그룹_19714" data-name="그룹 19714">
            <line id="선_255" data-name="선 255" x2="64.131" transform="translate(-906.317 -627.696)" fill="#fff"/>
          </g>
          <g id="그룹_19715" data-name="그룹 19715">
            <rect id="사각형_3907" data-name="사각형 3907" width="64.131" height="3.101" transform="translate(-906.317 -629.247)" fill="gray"/>
          </g>
        </g>
      </g>
    </g>
    <g id="그룹_19723" data-name="그룹 19723">
      <g id="그룹_19722" data-name="그룹 19722">
        <g id="그룹_19721" data-name="그룹 19721">
          <g id="그룹_19719" data-name="그룹 19719">
            <line id="선_256" data-name="선 256" x2="64.131" transform="translate(-906.317 -621.236)" fill="#fff"/>
          </g>
          <g id="그룹_19720" data-name="그룹 19720">
            <rect id="사각형_3908" data-name="사각형 3908" width="64.131" height="3.101" transform="translate(-906.317 -622.786)" fill="gray"/>
          </g>
        </g>
      </g>
    </g>
    <g id="그룹_19728" data-name="그룹 19728">
      <g id="그룹_19727" data-name="그룹 19727">
        <g id="그룹_19726" data-name="그룹 19726">
          <g id="그룹_19724" data-name="그룹 19724">
            <line id="선_257" data-name="선 257" x2="64.131" transform="translate(-906.317 -614.775)" fill="#fff"/>
          </g>
          <g id="그룹_19725" data-name="그룹 19725">
            <rect id="사각형_3909" data-name="사각형 3909" width="64.131" height="3.101" transform="translate(-906.317 -616.326)" fill="gray"/>
          </g>
        </g>
      </g>
    </g>
    <g id="그룹_19733" data-name="그룹 19733">
      <g id="그룹_19729" data-name="그룹 19729">
        <path id="패스_29571" data-name="패스 29571" d="M-830.679-618.609a12.086,12.086,0,0,1-12.085,12.083,12.083,12.083,0,0,1-12.081-12.083,12.081,12.081,0,0,1,12.081-12.081A12.084,12.084,0,0,1-830.679-618.609Z" fill="#ccc"/>
      </g>
      <g id="그룹_19732" data-name="그룹 19732">
        <g id="그룹_19730" data-name="그룹 19730">
          <path id="패스_29572" data-name="패스 29572" d="M-838.6-612.192h-3.027l-1.184-5.337L-844-612.192h-3.027l-2.7-12.16,3.027-.672,1.184,5.337,1.184-5.337h3.027l1.184,5.337,1.184-5.337,3.027.672Z" fill="gray"/>
        </g>
        <g id="그룹_19731" data-name="그룹 19731">
          <rect id="사각형_3910" data-name="사각형 3910" width="15.126" height="3.101" transform="translate(-850.377 -620.158)" fill="gray"/>
        </g>
      </g>
    </g>
  </g>
</svg>
