<svg xmlns="http://www.w3.org/2000/svg" width="82.319" height="78.745" viewBox="0 0 82.319 78.745">
  <g id="그룹_18803" data-name="그룹 18803" transform="translate(1101.151 26.05)">
    <g id="그룹_18796" data-name="그룹 18796">
      <path id="패스_29172" data-name="패스 29172" d="M-1088.323,10.249l1.793-.584c2.976-.968,6.036,1.194,7.5,4.029l5.379,8.254a15.462,15.462,0,0,1-8.028,1.027l-6.862-12.637C-1088.467,10.307-1088.4,10.274-1088.323,10.249Z" fill="#fff"/>
      <path id="패스_29173" data-name="패스 29173" d="M-1079.51,24.645a21.981,21.981,0,0,1-2.337-.128l-.809-.087-8.074-14.871,1.6-.656c.137-.058.229-.1.327-.127l1.794-.585a6.291,6.291,0,0,1,1.956-.311c2.874,0,5.756,1.972,7.362,5.031l6.318,9.7-1.632.75A15.491,15.491,0,0,1-1079.51,24.645Zm-1.206-3.142a15.222,15.222,0,0,0,4.685-.364l-4.379-6.735c-1.263-2.449-3.667-3.905-5.64-3.265l-.249.082Z" fill="#282d33"/>
    </g>
    <g id="그룹_18797" data-name="그룹 18797">
      <path id="패스_29174" data-name="패스 29174" d="M-1038.769,38.375h-12.494l-29.02-10.772-18.592-12.792c.052-.062.1-.122.156-.179l1.333-1.334c2.213-2.213,5.919-1.673,8.508.192l11.059,6.368,4.349,2.53h18.64l-.005-1.7-11.556.027c-2.961-.085-5.294-3.384-5.21-6.348,0,0,.065-.673.072-.747h20.621l7.973,7.009h4.166" fill="#fff"/>
      <path id="패스_29175" data-name="패스 29175" d="M-1038.769,39.925h-12.772L-1081,28.99l-20.148-13.864,1.083-1.305a3.747,3.747,0,0,1,.252-.285l1.333-1.334c2.857-2.857,7.4-2.174,10.445-.018l14.987,8.653h2.936a8.4,8.4,0,0,1-3.036-6.515l.007-.1.2-2.148h22.62l7.974,7.009h3.581v3.1h-4.75l-7.974-7.009H-1070c.3,1.912,1.832,3.942,3.653,4l13.059-.032.013,4.805h-20.613l-4.71-2.739-11.186-6.451c-1.932-1.392-4.87-1.989-6.506-.353l-.185.185,16.912,11.636,28.579,10.608h12.215Z" fill="#282d33"/>
    </g>
    <path id="패스_29176" data-name="패스 29176" d="M-1018.832,17.28h-17.492V52.694h17.492" fill="#5eb4e7"/>
    <g id="그룹_18798" data-name="그룹 18798">
      <line id="선_162" data-name="선 162" y1="9.82" transform="translate(-1066.141 -21.141)" fill="#fff"/>
      <rect id="사각형_3621" data-name="사각형 3621" width="3.101" height="9.82" transform="translate(-1067.691 -21.141)" fill="#282d33"/>
    </g>
    <g id="그룹_18799" data-name="그룹 18799">
      <line id="선_163" data-name="선 163" y1="9.82" transform="translate(-1081.388 -21.141)" fill="#fff"/>
      <rect id="사각형_3622" data-name="사각형 3622" width="3.101" height="9.82" transform="translate(-1082.938 -21.141)" fill="#282d33"/>
    </g>
    <g id="그룹_18800" data-name="그룹 18800">
      <line id="선_164" data-name="선 164" y1="9.82" transform="translate(-1073.893 -26.05)" fill="#fff"/>
      <rect id="사각형_3623" data-name="사각형 3623" width="3.101" height="9.82" transform="translate(-1075.444 -26.05)" fill="#282d33"/>
    </g>
    <g id="그룹_18801" data-name="그룹 18801">
      <path id="패스_29177" data-name="패스 29177" d="M-1083.03.417a9.5,9.5,0,0,0,9.5,9.5,9.5,9.5,0,0,0,9.5-9.5,9.5,9.5,0,0,0-9.5-9.5A9.5,9.5,0,0,0-1083.03.417Z" fill="#f8c44f"/>
    </g>
    <g id="그룹_18802" data-name="그룹 18802">
      <rect id="사각형_3624" data-name="사각형 3624" width="2.972" height="3.101" transform="translate(-1033.471 46.545)" fill="#fff"/>
    </g>
  </g>
</svg>
