<svg xmlns="http://www.w3.org/2000/svg" width="77.939" height="61.819" viewBox="0 0 77.939 61.819">
  <g id="그룹_19492" data-name="그룹 19492" transform="translate(1272.967 673.946)">
    <g id="그룹_19661" data-name="그룹 19661">
      <g id="그룹_19652" data-name="그룹 19652">
        <g id="그룹_19647" data-name="그룹 19647">
          <g id="그룹_19645" data-name="그룹 19645">
            <path id="패스_29553" data-name="패스 29553" d="M-1254.8-641.753l-3.423-3.617V-655.8c-.435-2.664-2.331-5.206-4.979-5.208h-1.6c-.07,0-.133.009-.2.014l.2,18.786,2.575,4.321A12.976,12.976,0,0,0-1254.8-641.753Z" fill="#fff"/>
          </g>
          <g id="그룹_19646" data-name="그룹 19646">
            <path id="패스_29554" data-name="패스 29554" d="M-1263.032-636.211l-3.315-5.564-.22-20.653,1.444-.114c.125-.011.212-.017.305-.018h1.612c3.578,0,5.982,3.276,6.51,6.509l.02.249v9.816l4.031,4.257-1.056,1.067a14.5,14.5,0,0,1-8.312,4.31Zm-.223-6.434,1.807,3.033a11.289,11.289,0,0,0,4.43-2.226l-2.759-2.915v-10.916c-.342-1.859-1.64-3.79-3.429-3.791h-.228Z" fill="gray"/>
          </g>
        </g>
        <g id="그룹_19650" data-name="그룹 19650">
          <g id="그룹_19648" data-name="그룹 19648">
            <path id="패스_29555" data-name="패스 29555" d="M-1257.007-623.937l-14.193-23.819-.2-18.786c.067,0,.131-.013.2-.013h1.6c2.649,0,4.544,2.544,4.979,5.207v10.433l3.9,4.118,11.157,11.156,1.013-1.022-6.932-6.9c-1.722-1.823-1.144-5.195.681-6.918,0,0,.442-.364.489-.4l12.344,12.343.577,8.967v14" fill="#fff"/>
          </g>
          <g id="그룹_19649" data-name="그룹 19649">
            <path id="패스_29556" data-name="패스 29556" d="M-1239.849-615.575h-3.1v-13.951l-.536-8.335-10.813-10.811c-.785,1.244-.988,3.065-.064,4.044l8,7.958-3.2,3.224-12.257-12.256-4.352-4.6v-10.917c-.342-1.858-1.64-3.788-3.428-3.79h-.229l.179,16.815,13.979,23.459-2.664,1.588-14.407-24.178-.221-20.686,1.48-.084c.115-.009.2-.014.287-.014l1.595,0c3.578,0,5.983,3.276,6.51,6.508l.02.25v9.815l3.473,3.671,1.541,1.539a7.368,7.368,0,0,1,2.188-5.285l.077-.069,1.567-1.308,13.763,13.76.617,9.65Z" fill="gray"/>
          </g>
        </g>
        <g id="그룹_19651" data-name="그룹 19651">
          <path id="패스_29557" data-name="패스 29557" d="M-1236.323-612.127v-8.714h-24.828v8.714" fill="#ccc"/>
        </g>
      </g>
      <g id="그룹_19660" data-name="그룹 19660">
        <g id="그룹_19655" data-name="그룹 19655">
          <g id="그룹_19653" data-name="그룹 19653">
            <path id="패스_29558" data-name="패스 29558" d="M-1213.177-641.753l3.425-3.617V-655.8c.433-2.664,2.329-5.206,4.977-5.208h1.6c.07,0,.133.009.2.014l-.2,18.786-2.574,4.321A12.979,12.979,0,0,1-1213.177-641.753Z" fill="#fff"/>
          </g>
          <g id="그룹_19654" data-name="그룹 19654">
            <path id="패스_29559" data-name="패스 29559" d="M-1204.948-636.211l-1.018-.142a14.5,14.5,0,0,1-8.313-4.31l-1.056-1.067,4.032-4.258.021-10.063c.525-3.234,2.929-6.508,6.506-6.51h1.6c.108,0,.195.007.283.015l1.43.126.038,1.439-.206,19.2Zm-6.014-5.626a11.3,11.3,0,0,0,4.431,2.225l1.806-3.033.18-16.815h-.231c-1.788,0-3.084,1.932-3.426,3.79v10.918Z" fill="gray"/>
          </g>
        </g>
        <g id="그룹_19658" data-name="그룹 19658">
          <g id="그룹_19656" data-name="그룹 19656">
            <path id="패스_29560" data-name="패스 29560" d="M-1210.972-623.937l14.192-23.819.2-18.786c-.068,0-.133-.013-.2-.013h-1.595c-2.649,0-4.545,2.544-4.979,5.207v10.433l-3.9,4.118-11.157,11.156-1.015-1.022,6.933-6.9c1.723-1.823,1.145-5.195-.679-6.918l-.491-.4L-1226-638.543l-.577,8.967v14" fill="#fff"/>
          </g>
          <g id="그룹_19657" data-name="그룹 19657">
            <path id="패스_29561" data-name="패스 29561" d="M-1225.029-615.575h-3.1l0-14.1.614-9.551,13.755-13.755,1.653,1.372a7.279,7.279,0,0,1,2.145,4.36,6.771,6.771,0,0,1,.051.916l1.561-1.561,3.444-3.64.02-10.064c.526-3.233,2.931-6.507,6.508-6.509l1.6,0c.087,0,.17.005.254.012l1.441.117.056,1.45-.206,19.205-14.406,24.178-2.665-1.588,13.979-23.459.181-16.815h-.232c-1.787,0-3.084,1.932-3.426,3.79V-650.3l-4.322,4.567-12.286,12.286-3.2-3.224,8.032-7.993a2.76,2.76,0,0,0,.545-2.209,4.414,4.414,0,0,0-.641-1.8l-10.814,10.813-.536,8.335Z" fill="gray"/>
          </g>
        </g>
        <g id="그룹_19659" data-name="그룹 19659">
          <path id="패스_29562" data-name="패스 29562" d="M-1231.657-612.127v-8.714h24.827v8.714" fill="#ccc"/>
        </g>
      </g>
    </g>
    <g id="그룹_19680" data-name="그룹 19680">
      <g id="그룹_19664" data-name="그룹 19664">
        <g id="그룹_19662" data-name="그룹 19662">
          <line id="선_246" data-name="선 246" y2="18.397" transform="translate(-1233.756 -670.693)" fill="#fff"/>
        </g>
        <g id="그룹_19663" data-name="그룹 19663">
          <rect id="사각형_3897" data-name="사각형 3897" width="3.101" height="18.397" transform="translate(-1235.306 -670.693)" fill="gray"/>
        </g>
      </g>
      <g id="그룹_19679" data-name="그룹 19679">
        <g id="그룹_19671" data-name="그룹 19671">
          <g id="그룹_19667" data-name="그룹 19667">
            <g id="그룹_19665" data-name="그룹 19665">
              <path id="패스_29563" data-name="패스 29563" d="M-1249.406-660.972c2.687,2.687,6.769,3.376,10.925,2.278,1.1-4.155.411-8.236-2.278-10.924s-6.769-3.375-10.924-2.279C-1252.781-667.741-1252.093-663.66-1249.406-660.972Z" fill="#fff"/>
            </g>
            <g id="그룹_19666" data-name="그룹 19666">
              <path id="패스_29564" data-name="패스 29564" d="M-1242.188-656.644h0a11.45,11.45,0,0,1-8.315-3.232c-3-3-3.972-7.523-2.679-12.417l.231-.872.873-.231a16.114,16.114,0,0,1,4.1-.55,11.455,11.455,0,0,1,8.315,3.231c3,3,3.974,7.522,2.682,12.417l-.231.872-.873.231A16.092,16.092,0,0,1-1242.188-656.644Zm-8.2-13.959c-.679,3.439.061,6.513,2.082,8.535a8.418,8.418,0,0,0,6.121,2.323h0a12.566,12.566,0,0,0,2.416-.242c.677-3.44-.062-6.514-2.083-8.534a8.421,8.421,0,0,0-6.123-2.324A12.54,12.54,0,0,0-1250.391-670.6Z" fill="gray"/>
            </g>
          </g>
          <g id="그룹_19670" data-name="그룹 19670">
            <g id="그룹_19668" data-name="그룹 19668">
              <line id="선_247" data-name="선 247" x2="17.585" y2="17.584" transform="translate(-1251.682 -671.894)" fill="#fff"/>
            </g>
            <g id="그룹_19669" data-name="그룹 19669">
              <rect id="사각형_3898" data-name="사각형 3898" width="3.101" height="24.868" transform="translate(-1252.779 -670.798) rotate(-45.001)" fill="gray"/>
            </g>
          </g>
        </g>
        <g id="그룹_19678" data-name="그룹 19678">
          <g id="그룹_19674" data-name="그룹 19674">
            <g id="그룹_19672" data-name="그룹 19672">
              <path id="패스_29565" data-name="패스 29565" d="M-1218.59-660.972c-2.685,2.687-6.767,3.376-10.923,2.278-1.1-4.155-.411-8.236,2.278-10.924s6.77-3.375,10.924-2.279C-1215.213-667.741-1215.9-663.66-1218.59-660.972Z" fill="#fff"/>
            </g>
            <g id="그룹_19673" data-name="그룹 19673">
              <path id="패스_29566" data-name="패스 29566" d="M-1225.806-656.644a16.093,16.093,0,0,1-4.1-.551l-.872-.231-.231-.872c-1.293-4.9-.315-9.421,2.681-12.417a11.455,11.455,0,0,1,8.315-3.231,16.114,16.114,0,0,1,4.1.55l.873.231.23.873c1.293,4.894.316,9.42-2.682,12.416A11.439,11.439,0,0,1-1225.806-656.644Zm-2.415-3.343a12.563,12.563,0,0,0,2.415.242,8.415,8.415,0,0,0,6.12-2.323c2.022-2.022,2.761-5.1,2.083-8.535a12.539,12.539,0,0,0-2.413-.242,8.424,8.424,0,0,0-6.123,2.324C-1228.16-666.5-1228.9-663.427-1228.221-659.987Z" fill="gray"/>
            </g>
          </g>
          <g id="그룹_19677" data-name="그룹 19677">
            <g id="그룹_19675" data-name="그룹 19675">
              <line id="선_248" data-name="선 248" x1="17.585" y2="17.584" transform="translate(-1233.896 -671.894)" fill="#fff"/>
            </g>
            <g id="그룹_19676" data-name="그룹 19676">
              <rect id="사각형_3899" data-name="사각형 3899" width="24.868" height="3.101" transform="translate(-1234.991 -655.405) rotate(-45.009)" fill="gray"/>
            </g>
          </g>
        </g>
      </g>
    </g>
  </g>
</svg>
