<svg xmlns="http://www.w3.org/2000/svg" width="75.185" height="51.505" viewBox="0 0 75.185 51.505">
  <g id="그룹_18881" data-name="그룹 18881" transform="translate(1277.376 1032.173)">
    <g id="그룹_18869" data-name="그룹 18869">
      <g id="그룹_18868" data-name="그룹 18868">
        <path id="패스_29199" data-name="패스 29199" d="M-1203.938-1015.637a25.3,25.3,0,0,0-13.463-14.093,25.254,25.254,0,0,0-10.235-2.161,25.51,25.51,0,0,0-23.345,15.2,25.5,25.5,0,0,0,13.042,33.575,25.231,25.231,0,0,0,10.237,2.162,25.508,25.508,0,0,0,23.342-15.2A25.3,25.3,0,0,0-1203.938-1015.637Z" fill="#ccc"/>
        <g id="그룹_18866" data-name="그룹 18866">
          <g id="그룹_18865" data-name="그룹 18865">
            <path id="패스_29200" data-name="패스 29200" d="M-1251.655-982.219a23.974,23.974,0,0,1-9.726-2.053,24.232,24.232,0,0,1-12.391-31.905,24.237,24.237,0,0,1,22.183-14.446,23.965,23.965,0,0,1,9.724,2.054,24.042,24.042,0,0,1,12.794,13.391,24.039,24.039,0,0,1-.4,18.517,24.235,24.235,0,0,1-22.18,14.442Z" fill="#fff"/>
            <g id="그룹_18864" data-name="그룹 18864">
              <path id="패스_29201" data-name="패스 29201" d="M-1251.589-1029.072a22.526,22.526,0,0,1,9.1,1.921,22.681,22.681,0,0,1,11.6,29.864,22.683,22.683,0,0,1-20.762,13.518,22.54,22.54,0,0,1-9.1-1.922,22.679,22.679,0,0,1-11.6-29.861,22.686,22.686,0,0,1,20.764-13.52m0-3.1a25.788,25.788,0,0,0-23.6,15.371,25.784,25.784,0,0,0,13.184,33.949,25.532,25.532,0,0,0,10.352,2.185,25.786,25.786,0,0,0,23.6-15.369,25.576,25.576,0,0,0,.429-19.7,25.584,25.584,0,0,0-13.613-14.25,25.532,25.532,0,0,0-10.35-2.184Z" fill="gray"/>
            </g>
          </g>
        </g>
        <g id="그룹_18867" data-name="그룹 18867">
          <path id="패스_29202" data-name="패스 29202" d="M-1229.2-1003.519l-3.149,2.452-5.681,4.781-.253-4.639-3.688.665-.411-4.272-2.535,1.354-.731-.567-2.184-2.18-.693,2.968,1.668,1.684-7.305,7.1-1.986.314-.01-3.832,1.428-5.792-2.6-1.274-.263-2.492,3.293-3.461,2.44.454.979,1.51,3.608.636-2.72-3.544-2.768-1.829.242-.969,3.618-.4-.4-2.426,4.1-1.368,2.642,2.468,5.9.661s2.62-.2,5.543-.4A22.693,22.693,0,0,1-1229.2-1003.519Z" fill="#ccc"/>
          <path id="패스_29203" data-name="패스 29203" d="M-1257.551-1028.251l-2.076,1.515-3.694,2.844a.349.349,0,0,0-.131.325l.426,2.931a.384.384,0,0,0,.208.269.347.347,0,0,0,.336-.034l2.083-1.461,1.14,4.046-6.593,2.15-2.792-.925a.351.351,0,0,0-.364.093l-1.3,1.389a.35.35,0,0,0-.083.323l.789,3.068-2.305-2.6-.383-1.358A22.6,22.6,0,0,1-1257.551-1028.251Z" fill="#ccc"/>
          <path id="패스_29204" data-name="패스 29204" d="M-1269.283-1003.169l-.266-4.379,3.807-3.469,3.387,7.565-9.023,7.663v-2.636l2.063-4.582A.339.339,0,0,0-1269.283-1003.169Z" fill="#ccc"/>
          <path id="패스_29205" data-name="패스 29205" d="M-1255.924-1020.631l-.189-5.918a20.9,20.9,0,0,1,7.486.676l-2.983,4.069Z" fill="#ccc"/>
        </g>
      </g>
    </g>
    <g id="그룹_18880" data-name="그룹 18880">
      <g id="그룹_18876" data-name="그룹 18876">
        <g id="그룹_18870" data-name="그룹 18870">
          <line id="선_170" data-name="선 170" y1="4.471" transform="translate(-1215.262 -1016.198)" fill="#fff"/>
          <rect id="사각형_3653" data-name="사각형 3653" width="3.101" height="4.471" transform="translate(-1216.812 -1016.198)" fill="gray"/>
        </g>
        <g id="그룹_18871" data-name="그룹 18871">
          <line id="선_171" data-name="선 171" x1="3.872" y1="2.235" transform="translate(-1223.344 -1011.228)" fill="#fff"/>
          <rect id="사각형_3654" data-name="사각형 3654" width="3.101" height="4.47" transform="matrix(0.5, -0.866, 0.866, 0.5, -1224.119, -1009.885)" fill="gray"/>
        </g>
        <g id="그룹_18872" data-name="그룹 18872">
          <line id="선_172" data-name="선 172" x1="3.872" y2="2.234" transform="translate(-1223.081 -1003.979)" fill="#fff"/>
          <rect id="사각형_3655" data-name="사각형 3655" width="4.471" height="3.101" transform="matrix(0.866, -0.5, 0.5, 0.866, -1223.856, -1003.088)" fill="gray"/>
        </g>
        <g id="그룹_18873" data-name="그룹 18873">
          <line id="선_173" data-name="선 173" y2="4.473" transform="translate(-1214.735 -1001.701)" fill="#fff"/>
          <rect id="사각형_3656" data-name="사각형 3656" width="3.101" height="4.473" transform="translate(-1216.285 -1001.701)" fill="gray"/>
        </g>
        <g id="그룹_18874" data-name="그룹 18874">
          <line id="선_174" data-name="선 174" x2="3.872" y2="2.236" transform="translate(-1210.526 -1004.435)" fill="#fff"/>
          <rect id="사각형_3657" data-name="사각형 3657" width="3.101" height="4.471" transform="translate(-1211.301 -1003.092) rotate(-60.001)" fill="gray"/>
        </g>
        <g id="그룹_18875" data-name="그룹 18875">
          <line id="선_175" data-name="선 175" y1="2.236" x2="3.873" transform="translate(-1210.789 -1011.683)" fill="#fff"/>
          <rect id="사각형_3658" data-name="사각형 3658" width="4.472" height="3.101" transform="matrix(0.866, -0.5, 0.5, 0.866, -1211.564, -1010.79)" fill="gray"/>
        </g>
      </g>
      <g id="그룹_18879" data-name="그룹 18879">
        <g id="그룹_18877" data-name="그룹 18877">
          <path id="패스_29206" data-name="패스 29206" d="M-1214.926-1002.154l2.271,4.015,2.27,4.017-4.612-.042-4.615-.042,2.344-3.975Z" fill="#fff"/>
          <path id="패스_29207" data-name="패스 29207" d="M-1207.714-992.548l-14.6-.131,7.414-12.575Zm-9.2-3.184,3.857.035-1.9-3.357Z" fill="gray"/>
        </g>
        <g id="그룹_18878" data-name="그룹 18878">
          <rect id="사각형_3659" data-name="사각형 3659" width="5.427" height="3.101" transform="matrix(0.009, -1, 1, 0.009, -1216.598, -988.831)" fill="gray"/>
        </g>
      </g>
    </g>
  </g>
</svg>
