<svg xmlns="http://www.w3.org/2000/svg" width="50.956" height="80.733" viewBox="0 0 50.956 80.733">
  <g id="그룹_5906" data-name="그룹 5906" transform="translate(0)">
    <g id="그룹_5705" data-name="그룹 5705" transform="translate(1.306 66.769)">
      <path id="패스_6316" data-name="패스 6316" d="M826.15,258.294v-6.206a6.207,6.207,0,0,1,6.206-6.206h34.134a6.207,6.207,0,0,1,6.206,6.206v6.206" transform="translate(-824.598 -244.33)" fill="#fff"/>
      <path id="패스_6317" data-name="패스 6317" d="M873.8,257.846h-3.1V251.64a4.66,4.66,0,0,0-4.655-4.655H831.908a4.66,4.66,0,0,0-4.655,4.655v6.206h-3.1V251.64a7.767,7.767,0,0,1,7.758-7.758h34.134a7.767,7.767,0,0,1,7.758,7.758Z" transform="translate(-824.15 -243.882)" fill="#282d33"/>
    </g>
    <g id="그룹_5706" data-name="그룹 5706" transform="translate(17.289 21.281)">
      <path id="패스_6318" data-name="패스 6318" d="M854.173,241.81a7.42,7.42,0,0,1-7.42-7.42V194.669a7.422,7.422,0,0,1,7.42-7.421h0a7.421,7.421,0,0,1,7.42,7.421V234.39a7.42,7.42,0,0,1-7.42,7.42Z" transform="translate(-845.201 -185.696)" fill="#fff"/>
      <path id="패스_6319" data-name="패스 6319" d="M853.725,242.913a8.982,8.982,0,0,1-8.972-8.972V194.221a8.972,8.972,0,1,1,17.943,0v39.721A8.981,8.981,0,0,1,853.725,242.913Zm0-54.562a5.875,5.875,0,0,0-5.869,5.87v39.721a5.868,5.868,0,1,0,11.737,0V194.221A5.875,5.875,0,0,0,853.725,188.351Z" transform="translate(-844.753 -185.248)" fill="#282d33"/>
    </g>
    <g id="그룹_5707" data-name="그룹 5707" transform="translate(0 0)">
      <path id="패스_6320" data-name="패스 6320" d="M872.226,223.215V183.694a23.879,23.879,0,0,0-47.759,0v39.521h.8a19.439,19.439,0,0,0,19.415-19.257h7.948a19.439,19.439,0,0,0,19.415,19.257Z" transform="translate(-822.915 -158.264)" fill="#f8c44f"/>
      <path id="패스_6321" data-name="패스 6321" d="M873.329,224.318h-1.737a21.035,21.035,0,0,1-20.9-19.257h-4.983a21.035,21.035,0,0,1-20.9,19.257h-2.347V183.245a25.431,25.431,0,0,1,50.862,0Zm-25.431-63.4a22.352,22.352,0,0,0-22.328,22.326V221.2a17.92,17.92,0,0,0,17.108-17.7l.013-1.538h11.025l.012,1.538a17.924,17.924,0,0,0,16.5,17.667V183.245A22.352,22.352,0,0,0,847.9,160.919Z" transform="translate(-822.467 -157.816)" fill="#282d33"/>
    </g>
    <g id="그룹_5708" data-name="그룹 5708" transform="translate(39.014 28.477)">
      <path id="사각형_2621" data-name="사각형 2621" d="M3.794,0h0A3.791,3.791,0,0,1,7.588,3.791V10.17a3.794,3.794,0,0,1-3.794,3.794h0A3.794,3.794,0,0,1,0,10.17V3.794A3.794,3.794,0,0,1,3.794,0Z" transform="translate(1.552 1.551)" fill="#fff"/>
      <path id="패스_6322" data-name="패스 6322" d="M878.254,211.591h-.3a5.2,5.2,0,0,1-5.192-5.195v-6.678a5.2,5.2,0,0,1,5.192-5.195h.3a5.2,5.2,0,0,1,5.195,5.195V206.4A5.2,5.2,0,0,1,878.254,211.591Zm-.3-13.964a2.092,2.092,0,0,0-2.089,2.091V206.4a2.092,2.092,0,0,0,2.089,2.092h.3a2.093,2.093,0,0,0,2.091-2.092v-6.678a2.093,2.093,0,0,0-2.091-2.091Z" transform="translate(-872.757 -194.524)" fill="#282d33"/>
    </g>
    <g id="그룹_5709" data-name="그룹 5709" transform="translate(5.431 26.426)">
      <path id="패스_6323" data-name="패스 6323" d="M868.365,191.88v13.762a18.449,18.449,0,0,1-18.449,18.45h0a18.449,18.449,0,0,1-18.449-18.45V191.88" transform="translate(-829.915 -191.88)" fill="#fff"/>
      <path id="패스_6324" data-name="패스 6324" d="M849.467,225.643a20.023,20.023,0,0,1-20-20V191.88h3.1v13.762a16.9,16.9,0,1,0,33.795,0V191.88h3.1v13.762A20.023,20.023,0,0,1,849.467,225.643Z" transform="translate(-829.467 -191.88)" fill="#282d33"/>
    </g>
    <g id="그룹_5710" data-name="그룹 5710" transform="translate(0.613 28.345)">
      <path id="패스_6325" data-name="패스 6325" d="M830.075,196.573c-1.832.191-4.818,1.721-4.818,3.605v6.678c0,1.884,2.985,3.415,4.818,3.605Z" transform="translate(-823.705 -194.851)" fill="#fff"/>
      <path id="패스_6326" data-name="패스 6326" d="M831.178,211.684l-1.711-.178c-2.538-.263-6.209-2.248-6.209-5.148V199.68c0-2.9,3.671-4.884,6.209-5.149l1.712-.178Zm-3.1-13.533c-.946.465-1.714,1.119-1.714,1.529v6.678c0,.411.768,1.065,1.714,1.53Z" transform="translate(-823.257 -194.353)" fill="#282d33"/>
    </g>
    <g id="그룹_5711" data-name="그룹 5711" transform="translate(14.447 36.641)">
      <rect id="사각형_2622" data-name="사각형 2622" width="3.362" height="3.103" fill="#282d33"/>
    </g>
    <g id="그룹_5712" data-name="그룹 5712" transform="translate(33.066 36.641)">
      <rect id="사각형_2623" data-name="사각형 2623" width="3.362" height="3.103" fill="#282d33"/>
    </g>
    <g id="그룹_5713" data-name="그룹 5713" transform="translate(24.443 47.617)">
      <path id="패스_6327" data-name="패스 6327" d="M853.974,222.83h2.313a3.3,3.3,0,0,0,3.3-3.3v-.33" transform="translate(-853.974 -219.195)" fill="#fff"/>
      <path id="패스_6328" data-name="패스 6328" d="M856.287,224.381h-2.313v-3.1h2.313a1.755,1.755,0,0,0,1.753-1.753v-.33h3.1v.33A4.861,4.861,0,0,1,856.287,224.381Z" transform="translate(-853.974 -219.195)" fill="#282d33"/>
    </g>
    <g id="그룹_5714" data-name="그룹 5714" transform="translate(5.431 10.849)">
      <path id="패스_6329" data-name="패스 6329" d="M837.289,173.258a18.4,18.4,0,0,0-5.822,13.45v2.548h13.794a5.421,5.421,0,0,0,4.655-2.644,5.422,5.422,0,0,0,4.655,2.644h13.794" transform="translate(-829.915 -172.127)" fill="#f8c44f"/>
      <path id="패스_6330" data-name="패스 6330" d="M867.916,190.481H854.122a6.917,6.917,0,0,1-4.655-1.777,6.915,6.915,0,0,1-4.655,1.777H829.467v-4.1a20.079,20.079,0,0,1,6.312-14.581l2.124,2.262a16.74,16.74,0,0,0-5.333,12.319v1h12.243a3.846,3.846,0,0,0,3.323-1.89l1.33-2.218,1.331,2.217a3.85,3.85,0,0,0,3.324,1.891h13.794Z" transform="translate(-829.467 -171.8)" fill="#282d33"/>
    </g>
  </g>
</svg>
