<svg xmlns="http://www.w3.org/2000/svg" width="87.104" height="84.653" viewBox="0 0 87.104 84.653">
  <g id="그룹_20415" data-name="그룹 20415" transform="translate(-1606.521 -218.427)">
    <path id="패스_30032" data-name="패스 30032" d="M1670.625,289.51l-.682-.681a1.553,1.553,0,0,0-1.733-.318,9.166,9.166,0,0,1-3.69.914h0c-1.7,0-3.991-1.381-6.206-2.716a22.654,22.654,0,0,0-6.128-2.939l-1.055-.244a33.667,33.667,0,0,0-5.743-.921,1.089,1.089,0,0,1-.734-.422c.436-1.647,3.249-2.647,5.563-3.11a5.157,5.157,0,0,0,4.052,1.775,4.628,4.628,0,0,0,3.45-1.341,5.294,5.294,0,0,0,1.361-3.569v-.009a6.362,6.362,0,0,0,1.282.117,4.414,4.414,0,0,0,3.3-1.385,6.692,6.692,0,0,0,1.449-4.56V256.3l1.317,1.316,11.02,11.875a7.633,7.633,0,0,1,1.784,7.493,1.553,1.553,0,0,0,.4,1.516l1.008,1.007,2.193-2.193-.393-.393a10.653,10.653,0,0,0-2.8-9.629l-9.818-10.585a5.58,5.58,0,0,0,4.468-.854,2.922,2.922,0,0,0,1.082-2.039,4.147,4.147,0,0,0-.9-3.14,30.721,30.721,0,0,1-3.174-4.384l-.58-.928a20.822,20.822,0,0,1-1.873-5.509c-.725-2.923-1.475-5.946-3.285-7.757a11.364,11.364,0,0,0-3.226-2.184h3.839a1.551,1.551,0,0,0,1.551-1.551v-8.384a1.55,1.55,0,0,0-1.551-1.55h-27.462a1.55,1.55,0,0,0-1.551,1.55v8.384a1.551,1.551,0,0,0,1.551,1.551h3.148v.554a10.647,10.647,0,0,0-4.823,8.794l-.608,16.119.005-.124-3.006,3.006c-.675-2.882-2.225-6.736-5.71-7.26a2.942,2.942,0,0,0-2.206.676,4.147,4.147,0,0,0-1.58,2.861,30.873,30.873,0,0,1-.853,5.334l-.249,1.076a20.81,20.81,0,0,1-2.57,5.217c-1.556,2.58-3.164,5.249-3.164,7.811a11.378,11.378,0,0,0,.738,3.826l-2.716-2.715a1.6,1.6,0,0,0-2.194,0l-5.927,5.928a1.549,1.549,0,0,0,0,2.192l19.419,19.419a1.552,1.552,0,0,0,2.194,0l5.927-5.928a1.549,1.549,0,0,0,0-2.192l-2.228-2.228.392-.392a10.664,10.664,0,0,0,9.632-2.807l3.565-3.307c-.248-.026-.5-.052-.793-.08a30.77,30.77,0,0,1,5.34.854l1.07.248a20.808,20.808,0,0,1,5.216,2.571c2.579,1.554,5.247,3.161,7.807,3.161h0a11.356,11.356,0,0,0,3.826-.738Z" fill="#282d33"/>
    <rect id="사각형_4173" data-name="사각형 4173" width="24.358" height="5.283" transform="translate(1640.243 221.528)" fill="#5eb4e7"/>
    <path id="패스_30033" data-name="패스 30033" d="M1640.115,239.248a7.628,7.628,0,0,1,4.035-6.561,1.551,1.551,0,0,0,.792-1.352v-1.423h14.147v.964a1.55,1.55,0,0,0,1,1.449,9.146,9.146,0,0,1,3.257,1.963c1.2,1.2,1.848,3.8,2.47,6.312a22.738,22.738,0,0,0,2.255,6.411l.573.917a33.886,33.886,0,0,0,3.414,4.717,1.086,1.086,0,0,1,.219.815c-1.923,1.124-6-1.444-7.712-2.916a1.552,1.552,0,0,0-2.563,1.177l.005,18.486a3.772,3.772,0,0,1-.627,2.348,1.318,1.318,0,0,1-1.048.39c-1.193.037-1.235-.454-1.259-.763,0-.043-.025-.079-.031-.122a1.559,1.559,0,0,0,.036-.18V258.638a1.552,1.552,0,0,0-3.1,0V271.88a1.485,1.485,0,0,0,.042.209,1.411,1.411,0,0,0-.042.215l0,3.681a2.284,2.284,0,0,1-.484,1.363,1.541,1.541,0,0,1-1.226.4,1.913,1.913,0,0,1-2.15-1.612,8.312,8.312,0,0,0-.054-1.116V257.848a1.552,1.552,0,0,0-3.1,0v17.06c-.1.3-.418.816-1.592.774-1.129-.039-1.731-.569-1.731-.937V256.76a1.552,1.552,0,0,0-3.1,0V269.6a1.571,1.571,0,0,1-1.484.536c-1.538-.122-1.538-.825-1.538-1.124l0-13.577Z" fill="#fff"/>
    <rect id="사각형_4174" data-name="사각형 4174" width="5.282" height="24.361" transform="translate(1610.265 282.111) rotate(-45.002)" fill="#5eb4e7"/>
    <path id="패스_30034" data-name="패스 30034" d="M1644.412,277.928a5.74,5.74,0,0,0-2.867,3.978,2.915,2.915,0,0,0,.676,2.2,4.07,4.07,0,0,0,.421.44h0l-2.529,2.347a7.644,7.644,0,0,1-7.5,1.785,1.544,1.544,0,0,0-1.516.4l-1.006,1.006-10-10,.683-.683a1.554,1.554,0,0,0,.317-1.732,9.173,9.173,0,0,1-.913-3.692c0-1.7,1.379-3.993,2.716-6.21a22.7,22.7,0,0,0,2.938-6.126l.245-1.065a33.818,33.818,0,0,0,.918-5.736,1.093,1.093,0,0,1,.424-.733c2.164.574,3.217,5.263,3.39,7.516a1.551,1.551,0,0,0,2.644.979l2.954-2.956v9.37c0,1.868,1.156,3.957,4.394,4.216a5.253,5.253,0,0,0,1.731-.137v1.652a3.781,3.781,0,0,0,1.88,3.183Z" fill="#fff"/>
    <path id="패스_30035" data-name="패스 30035" d="M1693.172,281.015l-5.927-5.928a1.551,1.551,0,0,0-2.195,0l-19.421,19.419a1.547,1.547,0,0,0,0,2.192l5.929,5.928a1.554,1.554,0,0,0,2.2,0l19.419-19.419A1.551,1.551,0,0,0,1693.172,281.015Z" fill="#282d33"/>
    <rect id="사각형_4175" data-name="사각형 4175" width="24.362" height="5.282" transform="translate(1668.922 295.605) rotate(-45.018)" fill="#5eb4e7"/>
    <path id="패스_30036" data-name="패스 30036" d="M1626.649,296.421a1.661,1.661,0,1,0-1.661-1.661A1.662,1.662,0,0,0,1626.649,296.421Z"/>
    <path id="패스_30037" data-name="패스 30037" d="M1643.365,222.507a1.662,1.662,0,1,0,1.661,1.662A1.662,1.662,0,0,0,1643.365,222.507Z"/>
  </g>
</svg>
