<svg xmlns="http://www.w3.org/2000/svg" width="112.145" height="79.347" viewBox="0 0 112.145 79.347">
  <g id="그룹_19928" data-name="그룹 19928" transform="translate(975.991 -1981.05)">
    <g id="그룹_19913" data-name="그룹 19913">
      <g id="그룹_19900" data-name="그룹 19900">
        <path id="패스_29722" data-name="패스 29722" d="M-974.441,2060.4v-5.363a9.3,9.3,0,0,1,9.3-9.3h27.522a9.3,9.3,0,0,1,9.3,9.3v5.363" fill="#f8c44f"/>
        <path id="패스_29723" data-name="패스 29723" d="M-926.763,2060.4h-3.1v-5.363a7.761,7.761,0,0,0-7.752-7.752h-27.522a7.761,7.761,0,0,0-7.752,7.752v5.363h-3.1v-5.363a10.866,10.866,0,0,1,10.853-10.853h27.522a10.865,10.865,0,0,1,10.853,10.853Z" fill="#282d33"/>
      </g>
      <g id="그룹_19901" data-name="그룹 19901">
        <path id="패스_29724" data-name="패스 29724" d="M-943.493,2051.253l-7.884,4.552-7.884-4.552v-17.215h15.768Z" fill="#fff"/>
        <path id="패스_29725" data-name="패스 29725" d="M-951.377,2057.595l-9.434-5.447v-19.66h18.869v19.66Zm-6.333-7.237,6.333,3.656,6.334-3.656v-14.769H-957.71Z" fill="#282d33"/>
      </g>
      <g id="그룹_19902" data-name="그룹 19902">
        <rect id="사각형_3959" data-name="사각형 3959" width="7.584" height="10.853" rx="3.64" transform="translate(-969.241 2017.934)" fill="#fff"/>
        <path id="패스_29726" data-name="패스 29726" d="M-965.3,2030.338h-.3a5.2,5.2,0,0,1-5.191-5.191v-3.573a5.2,5.2,0,0,1,5.191-5.19h.3a5.2,5.2,0,0,1,5.191,5.19v3.573A5.2,5.2,0,0,1-965.3,2030.338Zm-.3-10.853a2.091,2.091,0,0,0-2.09,2.089v3.573a2.092,2.092,0,0,0,2.09,2.09h.3a2.092,2.092,0,0,0,2.09-2.09v-3.573a2.092,2.092,0,0,0-2.09-2.089Z" fill="#282d33"/>
      </g>
      <g id="그룹_19903" data-name="그룹 19903">
        <rect id="사각형_3960" data-name="사각형 3960" width="7.584" height="10.853" rx="3.64" transform="translate(-932.029 2017.934)" fill="#fff"/>
        <path id="패스_29727" data-name="패스 29727" d="M-928.085,2030.338h-.3a5.2,5.2,0,0,1-5.191-5.191v-3.573a5.2,5.2,0,0,1,5.191-5.19h.3a5.2,5.2,0,0,1,5.191,5.19v3.573A5.2,5.2,0,0,1-928.085,2030.338Zm-.3-10.853a2.091,2.091,0,0,0-2.09,2.089v3.573a2.092,2.092,0,0,0,2.09,2.09h.3a2.092,2.092,0,0,0,2.09-2.09v-3.573a2.092,2.092,0,0,0-2.09-2.089Z" fill="#282d33"/>
      </g>
      <g id="그룹_19904" data-name="그룹 19904">
        <rect id="사각형_3961" data-name="사각형 3961" width="36.437" height="46.127" rx="9.303" transform="translate(-965.365 1994.629)" fill="#fff"/>
        <path id="패스_29728" data-name="패스 29728" d="M-938.231,2042.307h-17.831a10.866,10.866,0,0,1-10.853-10.853v-27.522a10.866,10.866,0,0,1,10.853-10.853h17.831a10.866,10.866,0,0,1,10.854,10.853v27.522A10.866,10.866,0,0,1-938.231,2042.307Zm-17.831-46.127a7.76,7.76,0,0,0-7.752,7.752v27.522a7.76,7.76,0,0,0,7.752,7.752h17.831a7.761,7.761,0,0,0,7.753-7.752v-27.522a7.761,7.761,0,0,0-7.753-7.752Z" fill="#282d33"/>
      </g>
      <g id="그룹_19906" data-name="그룹 19906">
        <g id="그룹_19905" data-name="그룹 19905">
          <path id="패스_29729" data-name="패스 29729" d="M-958.646,2024.283v6.69a3.069,3.069,0,0,0,3.065,3.065h6.689Z" fill="#fff"/>
          <path id="패스_29730" data-name="패스 29730" d="M-945.149,2035.588h-10.432a4.62,4.62,0,0,1-4.615-4.615V2020.54Zm-11.946-7.561v2.946a1.516,1.516,0,0,0,1.514,1.514h2.946Z" fill="#282d33"/>
        </g>
      </g>
      <g id="그룹_19907" data-name="그룹 19907">
        <path id="패스_29731" data-name="패스 29731" d="M-952.526,2017.53a6.9,6.9,0,0,1-4.9-2.024l2.193-2.193a3.827,3.827,0,0,0,5.407,0l2.193,2.193A6.9,6.9,0,0,1-952.526,2017.53Z" fill="#282d33"/>
      </g>
      <g id="그룹_19908" data-name="그룹 19908">
        <path id="패스_29732" data-name="패스 29732" d="M-935.988,2017.529a6.9,6.9,0,0,1-4.9-2.024l2.192-2.193a3.828,3.828,0,0,0,5.408,0l2.192,2.193A6.9,6.9,0,0,1-935.988,2017.529Z" fill="#282d33"/>
      </g>
      <g id="그룹_19909" data-name="그룹 19909">
        <path id="패스_29733" data-name="패스 29733" d="M-952.894,1986.683a12.655,12.655,0,0,0-12.258,9.545,9.292,9.292,0,0,0-4.089,7.7V2019.4h.816a9.3,9.3,0,0,0,9.3-9.3V2005.6a9.276,9.276,0,0,0,2.867.46h24.42a9.3,9.3,0,0,0,9.3-9.3v-10.078Z" fill="#5eb4e7"/>
        <path id="패스_29734" data-name="패스 29734" d="M-968.425,2020.947h-2.366v-17.015a10.848,10.848,0,0,1,4.29-8.644,14.186,14.186,0,0,1,13.607-10.155h31.912v11.628a10.865,10.865,0,0,1-10.853,10.854h-24.42a10.71,10.71,0,0,1-1.316-.082v2.56A10.866,10.866,0,0,1-968.425,2020.947Zm15.531-32.713a11.09,11.09,0,0,0-10.755,8.375l-.145.571-.488.331a7.753,7.753,0,0,0-3.408,6.421v13.879a7.763,7.763,0,0,0,7.018-7.718v-6.621l2.028.658a7.769,7.769,0,0,0,2.389.384h24.42a7.761,7.761,0,0,0,7.752-7.753v-8.527Z" fill="#282d33"/>
      </g>
      <g id="그룹_19912" data-name="그룹 19912">
        <g id="그룹_19910" data-name="그룹 19910">
          <path id="패스_29735" data-name="패스 29735" d="M-939.347,2028.74v-3.1a1.551,1.551,0,0,0,1.55-1.55,1.552,1.552,0,0,0-1.55-1.551,1.553,1.553,0,0,0-1.551,1.551H-944a4.657,4.657,0,0,1,4.652-4.652,4.657,4.657,0,0,1,4.651,4.652A4.656,4.656,0,0,1-939.347,2028.74Z" fill="#282d33"/>
        </g>
        <g id="그룹_19911" data-name="그룹 19911">
          <rect id="사각형_3962" data-name="사각형 3962" width="3.101" height="17.831" transform="translate(-944.386 2006.258)" fill="#282d33"/>
        </g>
      </g>
    </g>
    <g id="그룹_19927" data-name="그룹 19927">
      <g id="그룹_19914" data-name="그룹 19914">
        <path id="패스_29736" data-name="패스 29736" d="M-918.114,2060.4v-9.129c0-4.033,3.7-7.3,8.252-7.3h36.214c4.558,0,8.251,3.27,8.251,7.3v9.129" fill="#fff"/>
        <path id="패스_29737" data-name="패스 29737" d="M-863.846,2060.4h-3.1v-9.129c0-3.172-3.006-5.753-6.7-5.753h-36.214c-3.7,0-6.7,2.581-6.7,5.753v9.129h-3.1v-9.129c0-4.882,4.4-8.854,9.8-8.854h36.214c5.405,0,9.8,3.972,9.8,8.854Z" fill="#282d33"/>
      </g>
      <g id="그룹_19915" data-name="그룹 19915">
        <path id="패스_29738" data-name="패스 29738" d="M-883.871,2043.763l-7.884,4.552-7.884-4.552v-17.214h15.768Z" fill="#fff"/>
        <path id="패스_29739" data-name="패스 29739" d="M-891.755,2050.106l-9.435-5.447V2025h18.869v19.661Zm-6.334-7.238,6.334,3.657,6.333-3.657V2028.1h-12.667Z" fill="#282d33"/>
      </g>
      <g id="그룹_19916" data-name="그룹 19916">
        <path id="패스_29740" data-name="패스 29740" d="M-882.825,1991.645a9.044,9.044,0,0,1-9.044,9.044,9.044,9.044,0,0,1-9.045-9.044,9.045,9.045,0,0,1,9.045-9.045A9.045,9.045,0,0,1-882.825,1991.645Z" fill="#f8c44f"/>
        <path id="패스_29741" data-name="패스 29741" d="M-891.869,2002.24a10.607,10.607,0,0,1-10.6-10.595,10.607,10.607,0,0,1,10.6-10.595,10.606,10.606,0,0,1,10.594,10.595A10.606,10.606,0,0,1-891.869,2002.24Zm0-18.089a7.5,7.5,0,0,0-7.495,7.494,7.5,7.5,0,0,0,7.495,7.494,7.5,7.5,0,0,0,7.493-7.494A7.5,7.5,0,0,0-891.869,1984.151Z" fill="#282d33"/>
      </g>
      <g id="그룹_19917" data-name="그룹 19917">
        <path id="사각형_3963" data-name="사각형 3963" d="M3.64,0h.3A3.638,3.638,0,0,1,7.583,3.638v6.678a3.638,3.638,0,0,1-3.638,3.638h-.3A3.64,3.64,0,0,1,0,10.314V3.64A3.64,3.64,0,0,1,3.64,0Z" transform="translate(-876.713 2011.155)" fill="#fff"/>
        <path id="패스_29742" data-name="패스 29742" d="M-872.77,2026.66h-.3a5.2,5.2,0,0,1-5.189-5.19V2014.8a5.2,5.2,0,0,1,5.189-5.191h.3a5.2,5.2,0,0,1,5.191,5.191v6.674A5.2,5.2,0,0,1-872.77,2026.66Zm-.3-13.954a2.09,2.09,0,0,0-2.088,2.09v6.674a2.09,2.09,0,0,0,2.088,2.089h.3a2.091,2.091,0,0,0,2.09-2.089V2014.8a2.092,2.092,0,0,0-2.09-2.09Z" fill="#282d33"/>
      </g>
      <g id="그룹_19918" data-name="그룹 19918">
        <path id="패스_29743" data-name="패스 29743" d="M-873.4,2021.308a18.436,18.436,0,0,1-18.437,18.436h0a18.436,18.436,0,0,1-18.435-18.436v-14.749a18.435,18.435,0,0,1,18.435-18.435h0a18.436,18.436,0,0,1,18.437,18.435Z" fill="#fff"/>
        <path id="패스_29744" data-name="패스 29744" d="M-891.838,2041.3a20.01,20.01,0,0,1-19.986-19.987v-14.749a20.008,20.008,0,0,1,19.986-19.985,20.008,20.008,0,0,1,19.987,19.985v14.749A20.01,20.01,0,0,1-891.838,2041.3Zm0-51.62a16.9,16.9,0,0,0-16.885,16.884v14.749a16.9,16.9,0,0,0,16.885,16.886,16.905,16.905,0,0,0,16.886-16.886v-14.749A16.9,16.9,0,0,0-891.838,1989.675Z" fill="#282d33"/>
      </g>
      <g id="그룹_19919" data-name="그룹 19919">
        <path id="패스_29745" data-name="패스 29745" d="M-910.273,2011.193c-1.832.191-4.815,1.721-4.815,3.6v6.674c0,1.882,2.983,3.412,4.815,3.6Z" fill="#fff"/>
        <path id="패스_29746" data-name="패스 29746" d="M-908.723,2026.792l-1.71-.178c-2.536-.263-6.205-2.247-6.205-5.144V2014.8c0-2.9,3.668-4.881,6.2-5.145l1.711-.178Zm-3.1-13.524c-.946.464-1.713,1.118-1.713,1.528v6.674c0,.41.767,1.064,1.713,1.528Z" fill="#282d33"/>
      </g>
      <g id="그룹_19920" data-name="그룹 19920">
        <rect id="사각형_3964" data-name="사각형 3964" width="3.101" height="3.033" transform="translate(-893.306 2052.115)" fill="#282d33"/>
      </g>
      <g id="그룹_19921" data-name="그룹 19921">
        <rect id="사각형_3965" data-name="사각형 3965" width="3.101" height="3.033" transform="translate(-893.306 2057.351)" fill="#282d33"/>
      </g>
      <g id="그룹_19922" data-name="그룹 19922">
        <path id="패스_29747" data-name="패스 29747" d="M-891.838,1988.124a18.435,18.435,0,0,0-18.435,18.435v3.434H-886.3l3.222-5.58,3.222,5.58h6.46v-3.434A18.436,18.436,0,0,0-891.838,1988.124Z" fill="#f8c44f"/>
        <path id="패스_29748" data-name="패스 29748" d="M-871.851,2011.544h-8.9l-2.327-4.031-2.327,4.031h-26.414v-4.985a20.008,20.008,0,0,1,19.986-19.985,20.008,20.008,0,0,1,19.987,19.985Zm-7.114-3.1h4.013v-1.884a16.9,16.9,0,0,0-16.886-16.884,16.9,16.9,0,0,0-16.885,16.884v1.884H-887.2l4.117-7.131Z" fill="#282d33"/>
      </g>
      <g id="그룹_19923" data-name="그룹 19923">
        <path id="패스_29749" data-name="패스 29749" d="M-894.479,2023.6a3.307,3.307,0,0,0,2.81,1.8,3.308,3.308,0,0,0,2.81-1.8" fill="#fff"/>
        <path id="패스_29750" data-name="패스 29750" d="M-891.669,2026.952a4.843,4.843,0,0,1-4.154-2.573l2.687-1.548a1.8,1.8,0,0,0,1.467,1.02,1.779,1.779,0,0,0,1.467-1.02l2.686,1.549A4.845,4.845,0,0,1-891.669,2026.952Z" fill="#282d33"/>
      </g>
      <g id="그룹_19924" data-name="그룹 19924">
        <rect id="사각형_3966" data-name="사각형 3966" width="3.36" height="3.101" transform="translate(-902.814 2015.437)" fill="#282d33"/>
      </g>
      <g id="그룹_19925" data-name="그룹 19925">
        <rect id="사각형_3967" data-name="사각형 3967" width="3.36" height="3.101" transform="translate(-884.208 2015.437)" fill="#282d33"/>
      </g>
      <g id="그룹_19926" data-name="그룹 19926">
        <path id="패스_29751" data-name="패스 29751" d="M-896.127,2030.282v.33a3.3,3.3,0,0,0,3.3,3.3h2.312a3.3,3.3,0,0,0,3.3-3.3v-.33Z" fill="#fff"/>
        <path id="패스_29752" data-name="패스 29752" d="M-890.513,2035.464h-2.312a4.857,4.857,0,0,1-4.852-4.852v-1.881h12.016v1.881A4.858,4.858,0,0,1-890.513,2035.464Zm-3.567-3.632a1.742,1.742,0,0,0,1.255.531h2.312a1.746,1.746,0,0,0,1.255-.531Z" fill="#282d33"/>
      </g>
    </g>
  </g>
</svg>
