<svg xmlns="http://www.w3.org/2000/svg" width="74.206" height="80.303" viewBox="0 0 74.206 80.303">
  <g id="그룹_18753" data-name="그룹 18753" transform="translate(546.427 199.37)">
    <g id="그룹_18727" data-name="그룹 18727">
      <path id="패스_29154" data-name="패스 29154" d="M-534.8-165.939l25.471-16.682,25.471,16.682" fill="#5eb4e7"/>
      <g id="그룹_18711" data-name="그룹 18711">
        <rect id="사각형_3572" data-name="사각형 3572" width="69.056" height="4.673" transform="translate(-543.852 -165.785)" fill="#fff"/>
        <path id="패스_29155" data-name="패스 29155" d="M-473.246-159.562H-545.4v-7.774h72.157Zm-69.056-3.1h65.955v-1.572H-542.3Z" fill="#282d33"/>
      </g>
      <g id="그룹_18712" data-name="그룹 18712">
        <path id="패스_29156" data-name="패스 29156" d="M-473.071-164.229h-72.507l-.849-2.848,36.253-23.742h1.7l36.254,23.742Zm-67.309-3.1h62.112l-31.057-20.338Z" fill="#282d33"/>
      </g>
      <g id="그룹_18713" data-name="그룹 18713">
        <line id="선_137" data-name="선 137" y1="9.632" transform="translate(-509.448 -199.37)" fill="#fff"/>
        <rect id="사각형_3573" data-name="사각형 3573" width="3.101" height="9.632" transform="translate(-510.998 -199.37)" fill="#282d33"/>
      </g>
      <g id="그룹_18714" data-name="그룹 18714">
        <path id="패스_29157" data-name="패스 29157" d="M-505.867-190.726v-7.024h10.793l-1.559,3.512,1.559,3.512Z" fill="#f8c44f"/>
      </g>
      <g id="그룹_18717" data-name="그룹 18717">
        <g id="그룹_18715" data-name="그룹 18715">
          <rect id="사각형_3574" data-name="사각형 3574" width="3.101" height="11.047" transform="translate(-542.698 -161.124)" fill="#282d33"/>
        </g>
        <g id="그룹_18716" data-name="그룹 18716">
          <rect id="사각형_3575" data-name="사각형 3575" width="3.101" height="11.047" transform="translate(-536.496 -161.124)" fill="#282d33"/>
        </g>
      </g>
      <g id="그룹_18720" data-name="그룹 18720">
        <g id="그룹_18718" data-name="그룹 18718">
          <rect id="사각형_3576" data-name="사각형 3576" width="3.101" height="11.047" transform="translate(-524.027 -161.124)" fill="#282d33"/>
        </g>
        <g id="그룹_18719" data-name="그룹 18719">
          <rect id="사각형_3577" data-name="사각형 3577" width="3.101" height="11.047" transform="translate(-517.825 -161.124)" fill="#282d33"/>
        </g>
      </g>
      <g id="그룹_18723" data-name="그룹 18723">
        <g id="그룹_18721" data-name="그룹 18721">
          <rect id="사각형_3578" data-name="사각형 3578" width="3.101" height="11.047" transform="translate(-505.356 -161.124)" fill="#282d33"/>
        </g>
        <g id="그룹_18722" data-name="그룹 18722">
          <rect id="사각형_3579" data-name="사각형 3579" width="3.101" height="11.047" transform="translate(-499.154 -161.124)" fill="#282d33"/>
        </g>
      </g>
      <g id="그룹_18726" data-name="그룹 18726">
        <g id="그룹_18724" data-name="그룹 18724">
          <rect id="사각형_3580" data-name="사각형 3580" width="3.101" height="11.047" transform="translate(-486.686 -161.124)" fill="#282d33"/>
        </g>
        <g id="그룹_18725" data-name="그룹 18725">
          <rect id="사각형_3581" data-name="사각형 3581" width="3.101" height="16.474" transform="translate(-480.484 -161.124)" fill="#282d33"/>
        </g>
      </g>
    </g>
    <g id="그룹_18751" data-name="그룹 18751">
      <g id="그룹_18728" data-name="그룹 18728">
        <path id="사각형_3582" data-name="사각형 3582" d="M.961,0H58.631a.961.961,0,0,1,.961.961V24.691a.96.96,0,0,1-.96.96H.961A.961.961,0,0,1,0,24.691V.961A.961.961,0,0,1,.961,0Z" transform="translate(-544.708 -146.269)" fill="#fff"/>
        <path id="패스_29158" data-name="패스 29158" d="M-486.077-119.067h-57.67a2.514,2.514,0,0,1-2.511-2.512v-23.73a2.513,2.513,0,0,1,2.511-2.51h57.67a2.514,2.514,0,0,1,2.511,2.51v23.73A2.515,2.515,0,0,1-486.077-119.067Zm-57.08-3.1h56.49v-22.55h-56.49Z" fill="#282d33"/>
      </g>
      <g id="그룹_18750" data-name="그룹 18750">
        <g id="그룹_18736" data-name="그룹 18736">
          <g id="그룹_18729" data-name="그룹 18729">
            <line id="선_138" data-name="선 138" x2="4.52" transform="translate(-539.856 -139.727)" fill="#fff"/>
            <rect id="사각형_3583" data-name="사각형 3583" width="4.52" height="3.101" transform="translate(-539.856 -141.277)" fill="#5eb4e7"/>
          </g>
          <g id="그룹_18730" data-name="그룹 18730">
            <line id="선_139" data-name="선 139" x2="4.52" transform="translate(-532.294 -139.727)" fill="#fff"/>
            <rect id="사각형_3584" data-name="사각형 3584" width="4.52" height="3.101" transform="translate(-532.294 -141.277)" fill="#5eb4e7"/>
          </g>
          <g id="그룹_18731" data-name="그룹 18731">
            <line id="선_140" data-name="선 140" x2="4.518" transform="translate(-524.732 -139.727)" fill="#fff"/>
            <rect id="사각형_3585" data-name="사각형 3585" width="4.518" height="3.101" transform="translate(-524.732 -141.277)" fill="#5eb4e7"/>
          </g>
          <g id="그룹_18732" data-name="그룹 18732">
            <line id="선_141" data-name="선 141" x2="4.518" transform="translate(-517.17 -139.727)" fill="#fff"/>
            <rect id="사각형_3586" data-name="사각형 3586" width="4.518" height="3.101" transform="translate(-517.17 -141.277)" fill="#5eb4e7"/>
          </g>
          <g id="그룹_18733" data-name="그룹 18733">
            <line id="선_142" data-name="선 142" x2="4.518" transform="translate(-509.609 -139.727)" fill="#fff"/>
            <rect id="사각형_3587" data-name="사각형 3587" width="4.518" height="3.101" transform="translate(-509.609 -141.277)" fill="#5eb4e7"/>
          </g>
          <g id="그룹_18734" data-name="그룹 18734">
            <line id="선_143" data-name="선 143" x2="4.518" transform="translate(-502.047 -139.727)" fill="#fff"/>
            <rect id="사각형_3588" data-name="사각형 3588" width="4.518" height="3.101" transform="translate(-502.047 -141.277)" fill="#5eb4e7"/>
          </g>
          <g id="그룹_18735" data-name="그룹 18735">
            <line id="선_144" data-name="선 144" x2="4.518" transform="translate(-494.487 -139.727)" fill="#fff"/>
            <rect id="사각형_3589" data-name="사각형 3589" width="4.518" height="3.101" transform="translate(-494.487 -141.277)" fill="#5eb4e7"/>
          </g>
        </g>
        <g id="그룹_18744" data-name="그룹 18744">
          <g id="그룹_18737" data-name="그룹 18737">
            <line id="선_145" data-name="선 145" x2="4.52" transform="translate(-539.856 -133.442)" fill="#fff"/>
            <rect id="사각형_3590" data-name="사각형 3590" width="4.52" height="3.101" transform="translate(-539.856 -134.993)" fill="#5eb4e7"/>
          </g>
          <g id="그룹_18738" data-name="그룹 18738">
            <line id="선_146" data-name="선 146" x2="4.52" transform="translate(-532.294 -133.442)" fill="#fff"/>
            <rect id="사각형_3591" data-name="사각형 3591" width="4.52" height="3.101" transform="translate(-532.294 -134.993)" fill="#5eb4e7"/>
          </g>
          <g id="그룹_18739" data-name="그룹 18739">
            <line id="선_147" data-name="선 147" x2="4.518" transform="translate(-524.732 -133.442)" fill="#fff"/>
            <rect id="사각형_3592" data-name="사각형 3592" width="4.518" height="3.101" transform="translate(-524.732 -134.993)" fill="#5eb4e7"/>
          </g>
          <g id="그룹_18740" data-name="그룹 18740">
            <line id="선_148" data-name="선 148" x2="4.518" transform="translate(-517.17 -133.442)" fill="#fff"/>
            <rect id="사각형_3593" data-name="사각형 3593" width="4.518" height="3.101" transform="translate(-517.17 -134.993)" fill="#5eb4e7"/>
          </g>
          <g id="그룹_18741" data-name="그룹 18741">
            <line id="선_149" data-name="선 149" x2="4.518" transform="translate(-509.609 -133.442)" fill="#fff"/>
            <rect id="사각형_3594" data-name="사각형 3594" width="4.518" height="3.101" transform="translate(-509.609 -134.993)" fill="#5eb4e7"/>
          </g>
          <g id="그룹_18742" data-name="그룹 18742">
            <line id="선_150" data-name="선 150" x2="4.518" transform="translate(-502.047 -133.442)" fill="#fff"/>
            <rect id="사각형_3595" data-name="사각형 3595" width="4.518" height="3.101" transform="translate(-502.047 -134.993)" fill="#5eb4e7"/>
          </g>
          <g id="그룹_18743" data-name="그룹 18743">
            <line id="선_151" data-name="선 151" x2="4.518" transform="translate(-494.487 -133.442)" fill="#fff"/>
            <rect id="사각형_3596" data-name="사각형 3596" width="4.518" height="3.101" transform="translate(-494.487 -134.993)" fill="#5eb4e7"/>
          </g>
        </g>
        <g id="그룹_18749" data-name="그룹 18749">
          <g id="그룹_18745" data-name="그룹 18745">
            <line id="선_152" data-name="선 152" x2="4.52" transform="translate(-539.856 -127.159)" fill="#fff"/>
            <rect id="사각형_3597" data-name="사각형 3597" width="4.52" height="3.101" transform="translate(-539.856 -128.71)" fill="#5eb4e7"/>
          </g>
          <g id="그룹_18746" data-name="그룹 18746">
            <line id="선_153" data-name="선 153" x2="4.52" transform="translate(-532.294 -127.159)" fill="#fff"/>
            <rect id="사각형_3598" data-name="사각형 3598" width="4.52" height="3.101" transform="translate(-532.294 -128.71)" fill="#5eb4e7"/>
          </g>
          <g id="그룹_18747" data-name="그룹 18747">
            <line id="선_154" data-name="선 154" x2="27.273" transform="translate(-524.732 -127.159)" fill="#fff"/>
            <rect id="사각형_3599" data-name="사각형 3599" width="27.273" height="3.101" transform="translate(-524.732 -128.71)" fill="#5eb4e7"/>
          </g>
          <g id="그룹_18748" data-name="그룹 18748">
            <line id="선_155" data-name="선 155" x2="4.518" transform="translate(-494.487 -127.159)" fill="#fff"/>
            <rect id="사각형_3600" data-name="사각형 3600" width="4.518" height="3.101" transform="translate(-494.487 -128.71)" fill="#5eb4e7"/>
          </g>
        </g>
      </g>
    </g>
    <g id="그룹_18752" data-name="그룹 18752">
      <path id="패스_29159" data-name="패스 29159" d="M-480.484-132.731h-3.392v-3.1h3.392v-15.505h3.1v15.505A3.1,3.1,0,0,1-480.484-132.731Z" fill="#282d33"/>
    </g>
  </g>
</svg>
