<svg xmlns="http://www.w3.org/2000/svg" width="88.842" height="59.879" viewBox="0 0 88.842 59.879">
  <g id="그룹_20419" data-name="그룹 20419" transform="translate(-459.884 -733.209)">
    <path id="패스_30060" data-name="패스 30060" d="M539.256,771.331a18.529,18.529,0,0,0,8.275-13.308c.376-1.222,1.7-6.957-1.794-19.409a2.029,2.029,0,0,0-1.876-1.48c-.081,0-8.173-.308-14.351-.189a16.328,16.328,0,0,0-3.08.4,18.654,18.654,0,0,0-15.172,13c-.127.337-.228.675-.331,1.013a18.545,18.545,0,0,0-25.922-12.463,9.787,9.787,0,0,0-2.735-3.65,10.162,10.162,0,0,0-7.865-1.933c-4.182.485-7.111,1.963-8.953,4.519-2.4,3.327-2.81,8.254-1.294,15.509,2.032,9.718-3.163,11.264-3.371,11.322a1.193,1.193,0,0,0,.124,2.338,5.127,5.127,0,0,0,.668.037,7.928,7.928,0,0,0,5.112-1.872c2.369-2.014,3.625-5.413,3.732-10.1.112-4.86,1.335-8.054,3.639-9.493a6.648,6.648,0,0,1,3.858-.879,18.466,18.466,0,0,0-3.569,13.063v0a18.522,18.522,0,0,0,5,10.826c-6.592,1.578-10.109,3.84-10.439,9.4-.222,3.684,3.127,7.142,4.657,8.526a28.693,28.693,0,0,0-.589,5,1.547,1.547,0,0,0,1.549,1.585h72.644a1.547,1.547,0,0,0,1.549-1.585A26.776,26.776,0,0,0,539.256,771.331Z" fill="gray"/>
    <path id="패스_30061" data-name="패스 30061" d="M520.852,750.3l17.019.1,5.53,7.612a14.526,14.526,0,0,1-1.272,4.13c-.162.319-.339.63-.523.937-.17.292-.355.572-.544.85a14.673,14.673,0,0,1-1,1.307c-.044.05-.092.1-.136.146a14.9,14.9,0,0,1-5.131,3.708c-.018.008-.026.027-.044.036a14.453,14.453,0,0,1-19.229-8.12Z" fill="#fff"/>
    <path id="패스_30062" data-name="패스 30062" d="M510.917,760.19c.1.295.214.585.33.877a18.631,18.631,0,0,0,2.843,5.754c-1.726-.159-3.733-.318-5.949-.445A18.675,18.675,0,0,0,510.917,760.19Z" fill="#fff"/>
    <path id="패스_30063" data-name="패스 30063" d="M478.471,757.989l.035-.056c.3-.484.658-1.029,1.04-1.6.07-.1.142-.211.215-.318.39-.571.814-1.166,1.265-1.768.076-.1.155-.2.232-.3.476-.625.976-1.252,1.5-1.856.051-.059.1-.114.155-.172.559-.637,1.138-1.253,1.733-1.809.23.165.55.381.836.578.194.133.35.245.568.392s.506.327.756.491c.368.241.72.473,1.141.737.292.183.629.38.945.572.45.273.888.541,1.387.829.361.209.76.424,1.145.638.52.29,1.033.576,1.6.873.427.225.884.45,1.335.677.584.295,1.166.586,1.789.881.124.059.231.118.357.176a2.118,2.118,0,0,0-.205.891,2.154,2.154,0,0,0,4.147.819c.273.11.572.21.85.318.7.272,1.4.537,2.132.8.6.211,1.2.41,1.815.61.427.139.829.293,1.265.426a14.557,14.557,0,0,1-28.034-2.825Z" fill="#fff"/>
    <path id="패스_30064" data-name="패스 30064" d="M474.49,783.023c-1.253-1.383-2.575-3.268-2.48-4.864.235-3.93,2.626-5.5,10.332-7.05l.207.141A25.571,25.571,0,0,0,474.49,783.023Z" fill="#fff"/>
    <path id="패스_30065" data-name="패스 30065" d="M481.245,789.986h-5.079a25.2,25.2,0,0,1,1.621-6.942l3.458,1.862Z" fill="#fff"/>
    <path id="패스_30066" data-name="패스 30066" d="M507.535,783.98v6.006H484.349V783.98a1.552,1.552,0,0,0-.816-1.365l-4.447-2.4a21.461,21.461,0,0,1,6.465-7.352,18.657,18.657,0,0,0,17.779-1.7,20.685,20.685,0,0,1,9.445,9.065l-4.425,2.383A1.551,1.551,0,0,0,507.535,783.98Z" fill="#ccc"/>
    <path id="패스_30067" data-name="패스 30067" d="M510.638,789.986v-5.08l3.425-1.844a25.277,25.277,0,0,1,1.589,6.924Z" fill="#fff"/>
    <path id="패스_30068" data-name="패스 30068" d="M537.359,783.98v6.007H518.7a28.178,28.178,0,0,0-2.449-9.68,1.35,1.35,0,0,0-.049-.161c-.022-.042-.062-.067-.088-.106a24.421,24.421,0,0,0-9.472-10.62c4.572.225,8.524.614,10.747.861a18.663,18.663,0,0,0,18.851,2.644,21.49,21.49,0,0,1,6.379,7.294l-4.449,2.4A1.551,1.551,0,0,0,537.359,783.98Z" fill="#ccc"/>
    <path id="패스_30069" data-name="패스 30069" d="M540.462,789.987v-5.081l3.459-1.863a25.1,25.1,0,0,1,1.622,6.944Z" fill="#fff"/>
    <path id="패스_30070" data-name="패스 30070" d="M523.473,760a2.156,2.156,0,1,0-2.155-2.157A2.159,2.159,0,0,0,523.473,760Z" fill="gray"/>
    <path id="패스_30071" data-name="패스 30071" d="M534.468,760a2.156,2.156,0,1,0-2.158-2.157A2.158,2.158,0,0,0,534.468,760Z" fill="gray"/>
    <path id="패스_30072" data-name="패스 30072" d="M528.969,767.368a12.58,12.58,0,0,0,8.1-2.965,1.55,1.55,0,1,0-2-2.37,9.693,9.693,0,0,1-12.2,0,1.552,1.552,0,0,0-2,2.37A12.578,12.578,0,0,0,528.969,767.368Z" fill="gray"/>
    <path id="패스_30073" data-name="패스 30073" d="M487.459,760a2.156,2.156,0,1,0-2.158-2.157A2.158,2.158,0,0,0,487.459,760Z" fill="gray"/>
    <path id="패스_30074" data-name="패스 30074" d="M492.955,767.368a12.578,12.578,0,0,0,8.1-2.965,1.552,1.552,0,0,0-2-2.37,9.687,9.687,0,0,1-12.2,0,1.552,1.552,0,0,0-2,2.37A12.576,12.576,0,0,0,492.955,767.368Z" fill="gray"/>
  </g>
</svg>
