<svg xmlns="http://www.w3.org/2000/svg" width="87.104" height="84.654" viewBox="0 0 87.104 84.654">
  <g id="그룹_20418" data-name="그룹 20418" transform="translate(-573.276 -762.395)">
    <path id="패스_30053" data-name="패스 30053" d="M637.379,833.479l-.681-.682a1.553,1.553,0,0,0-1.733-.318,9.17,9.17,0,0,1-3.69.915h0c-1.7,0-3.991-1.382-6.206-2.717a22.7,22.7,0,0,0-6.128-2.939l-1.055-.243a33.669,33.669,0,0,0-5.743-.922,1.092,1.092,0,0,1-.734-.421c.436-1.647,3.249-2.647,5.563-3.11a5.157,5.157,0,0,0,4.052,1.775,4.633,4.633,0,0,0,3.45-1.341,5.3,5.3,0,0,0,1.361-3.569v-.01a6.289,6.289,0,0,0,1.281.118,4.418,4.418,0,0,0,3.3-1.385,6.694,6.694,0,0,0,1.449-4.561v-13.8l1.317,1.316L644.2,813.46a7.632,7.632,0,0,1,1.784,7.493,1.552,1.552,0,0,0,.4,1.515l1.008,1.007,2.193-2.192-.393-.393a10.651,10.651,0,0,0-2.8-9.629l-9.818-10.585a5.577,5.577,0,0,0,4.468-.855,2.915,2.915,0,0,0,1.081-2.038,4.14,4.14,0,0,0-.9-3.141,30.783,30.783,0,0,1-3.173-4.383l-.58-.929a20.808,20.808,0,0,1-1.873-5.509c-.725-2.922-1.475-5.945-3.285-7.757a11.4,11.4,0,0,0-3.227-2.184h3.84a1.55,1.55,0,0,0,1.551-1.55v-8.384a1.551,1.551,0,0,0-1.551-1.551H605.446a1.551,1.551,0,0,0-1.551,1.551v8.384a1.55,1.55,0,0,0,1.551,1.55h3.148v.555a10.644,10.644,0,0,0-4.823,8.793l-.608,16.119.005-.124-3.006,3.006c-.675-2.882-2.225-6.735-5.71-7.259a2.944,2.944,0,0,0-2.207.675,4.152,4.152,0,0,0-1.579,2.861,30.845,30.845,0,0,1-.853,5.334l-.249,1.077a20.838,20.838,0,0,1-2.57,5.216c-1.556,2.58-3.164,5.249-3.164,7.812a11.377,11.377,0,0,0,.738,3.826l-2.716-2.716a1.6,1.6,0,0,0-2.194,0l-5.927,5.928a1.55,1.55,0,0,0,0,2.193l19.418,19.419a1.553,1.553,0,0,0,2.2,0l5.927-5.929a1.549,1.549,0,0,0,0-2.192l-2.228-2.228.392-.392a10.667,10.667,0,0,0,9.632-2.806l3.565-3.307-.793-.081a30.871,30.871,0,0,1,5.34.854l1.07.248a20.878,20.878,0,0,1,5.216,2.571c2.579,1.554,5.247,3.162,7.807,3.162h0a11.362,11.362,0,0,0,3.826-.738Z" fill="gray"/>
    <rect id="사각형_4176" data-name="사각형 4176" width="24.358" height="5.283" transform="translate(606.998 765.496)" fill="#ccc"/>
    <path id="패스_30054" data-name="패스 30054" d="M606.87,783.217a7.628,7.628,0,0,1,4.035-6.561,1.552,1.552,0,0,0,.792-1.352V773.88h14.147v.965a1.551,1.551,0,0,0,1,1.449,9.132,9.132,0,0,1,3.257,1.963c1.2,1.2,1.848,3.8,2.47,6.311a22.708,22.708,0,0,0,2.255,6.412l.573.916a33.882,33.882,0,0,0,3.413,4.717,1.08,1.08,0,0,1,.219.816c-1.922,1.124-6-1.445-7.711-2.916a1.552,1.552,0,0,0-2.563,1.176l.005,18.486a3.774,3.774,0,0,1-.627,2.349,1.322,1.322,0,0,1-1.049.39c-1.192.036-1.234-.454-1.258-.763,0-.044-.025-.08-.031-.122a1.576,1.576,0,0,0,.036-.181V802.607a1.551,1.551,0,0,0-3.1,0v13.241a1.458,1.458,0,0,0,.042.209,1.434,1.434,0,0,0-.042.215l0,3.681a2.284,2.284,0,0,1-.484,1.363,1.536,1.536,0,0,1-1.226.4,1.913,1.913,0,0,1-2.15-1.612,8.319,8.319,0,0,0-.054-1.117v-17.17a1.552,1.552,0,0,0-3.1,0v17.06c-.1.3-.418.816-1.592.773-1.13-.038-1.731-.568-1.731-.936V800.729a1.551,1.551,0,0,0-3.1,0v12.842a1.573,1.573,0,0,1-1.484.536c-1.538-.123-1.538-.825-1.538-1.125l0-13.577Z" fill="#fff"/>
    <rect id="사각형_4177" data-name="사각형 4177" width="5.282" height="24.361" transform="translate(577.02 826.08) rotate(-45.002)" fill="#ccc"/>
    <path id="패스_30055" data-name="패스 30055" d="M611.167,821.9a5.743,5.743,0,0,0-2.867,3.978,2.915,2.915,0,0,0,.676,2.2,3.984,3.984,0,0,0,.421.44h0l-2.529,2.347a7.646,7.646,0,0,1-7.495,1.785,1.542,1.542,0,0,0-1.516.4l-1.006,1.006-10-10,.683-.682a1.555,1.555,0,0,0,.317-1.733,9.174,9.174,0,0,1-.913-3.691c0-1.7,1.379-3.994,2.716-6.21a22.687,22.687,0,0,0,2.938-6.127l.245-1.064a33.837,33.837,0,0,0,.918-5.736,1.094,1.094,0,0,1,.424-.733c2.164.573,3.217,5.263,3.389,7.516a1.552,1.552,0,0,0,2.645.978l2.954-2.955v9.369c0,1.869,1.156,3.958,4.394,4.216a5.229,5.229,0,0,0,1.731-.136v1.652a3.783,3.783,0,0,0,1.88,3.183Z" fill="#fff"/>
    <path id="패스_30056" data-name="패스 30056" d="M659.926,824.983,654,819.055a1.554,1.554,0,0,0-2.2,0l-19.421,19.419a1.548,1.548,0,0,0,0,2.192l5.929,5.929a1.553,1.553,0,0,0,2.2,0l19.418-19.419A1.55,1.55,0,0,0,659.926,824.983Z" fill="gray"/>
    <rect id="사각형_4178" data-name="사각형 4178" width="24.362" height="5.282" transform="translate(635.677 839.574) rotate(-45.018)" fill="#ccc"/>
    <path id="패스_30057" data-name="패스 30057" d="M650.971,826.347a1.662,1.662,0,1,0,1.662-1.661A1.662,1.662,0,0,0,650.971,826.347Z" fill="gray"/>
    <path id="패스_30058" data-name="패스 30058" d="M593.4,840.39a1.661,1.661,0,1,0-1.661-1.662A1.662,1.662,0,0,0,593.4,840.39Z" fill="gray"/>
    <path id="패스_30059" data-name="패스 30059" d="M610.12,766.476a1.661,1.661,0,1,0,1.661,1.662A1.662,1.662,0,0,0,610.12,766.476Z" fill="gray"/>
  </g>
</svg>
