<svg xmlns="http://www.w3.org/2000/svg" width="74.206" height="80.303" viewBox="0 0 74.206 80.303">
  <g id="그룹_19101" data-name="그룹 19101" transform="translate(546.427 868.775)">
    <g id="그룹_19075" data-name="그룹 19075">
      <path id="패스_29336" data-name="패스 29336" d="M-534.8-835.344l25.471-16.682,25.471,16.682" fill="#ccc"/>
      <g id="그룹_19059" data-name="그룹 19059">
        <rect id="사각형_3735" data-name="사각형 3735" width="69.056" height="4.673" transform="translate(-543.852 -835.19)" fill="#fff"/>
        <path id="패스_29337" data-name="패스 29337" d="M-473.246-828.967H-545.4v-7.774h72.157Zm-69.056-3.1h65.955v-1.572H-542.3Z" fill="gray"/>
      </g>
      <g id="그룹_19060" data-name="그룹 19060">
        <path id="패스_29338" data-name="패스 29338" d="M-473.071-833.634h-72.507l-.849-2.848,36.253-23.742h1.7l36.254,23.742Zm-67.309-3.1h62.112l-31.057-20.338Z" fill="gray"/>
      </g>
      <g id="그룹_19061" data-name="그룹 19061">
        <line id="선_193" data-name="선 193" y1="9.632" transform="translate(-509.448 -868.775)" fill="#fff"/>
        <rect id="사각형_3736" data-name="사각형 3736" width="3.101" height="9.632" transform="translate(-510.998 -868.775)" fill="gray"/>
      </g>
      <g id="그룹_19062" data-name="그룹 19062">
        <path id="패스_29339" data-name="패스 29339" d="M-505.867-860.131v-7.024h10.793l-1.559,3.512,1.559,3.512Z" fill="#ccc"/>
      </g>
      <g id="그룹_19065" data-name="그룹 19065">
        <g id="그룹_19063" data-name="그룹 19063">
          <rect id="사각형_3737" data-name="사각형 3737" width="3.101" height="11.047" transform="translate(-542.698 -830.529)" fill="gray"/>
        </g>
        <g id="그룹_19064" data-name="그룹 19064">
          <rect id="사각형_3738" data-name="사각형 3738" width="3.101" height="11.047" transform="translate(-536.496 -830.529)" fill="gray"/>
        </g>
      </g>
      <g id="그룹_19068" data-name="그룹 19068">
        <g id="그룹_19066" data-name="그룹 19066">
          <rect id="사각형_3739" data-name="사각형 3739" width="3.101" height="11.047" transform="translate(-524.027 -830.529)" fill="gray"/>
        </g>
        <g id="그룹_19067" data-name="그룹 19067">
          <rect id="사각형_3740" data-name="사각형 3740" width="3.101" height="11.047" transform="translate(-517.825 -830.529)" fill="gray"/>
        </g>
      </g>
      <g id="그룹_19071" data-name="그룹 19071">
        <g id="그룹_19069" data-name="그룹 19069">
          <rect id="사각형_3741" data-name="사각형 3741" width="3.101" height="11.047" transform="translate(-505.356 -830.529)" fill="gray"/>
        </g>
        <g id="그룹_19070" data-name="그룹 19070">
          <rect id="사각형_3742" data-name="사각형 3742" width="3.101" height="11.047" transform="translate(-499.154 -830.529)" fill="gray"/>
        </g>
      </g>
      <g id="그룹_19074" data-name="그룹 19074">
        <g id="그룹_19072" data-name="그룹 19072">
          <rect id="사각형_3743" data-name="사각형 3743" width="3.101" height="11.047" transform="translate(-486.686 -830.529)" fill="gray"/>
        </g>
        <g id="그룹_19073" data-name="그룹 19073">
          <rect id="사각형_3744" data-name="사각형 3744" width="3.101" height="16.474" transform="translate(-480.484 -830.529)" fill="gray"/>
        </g>
      </g>
    </g>
    <g id="그룹_19099" data-name="그룹 19099">
      <g id="그룹_19076" data-name="그룹 19076">
        <path id="사각형_3745" data-name="사각형 3745" d="M.961,0H58.631a.961.961,0,0,1,.961.961V24.691a.96.96,0,0,1-.96.96H.961A.961.961,0,0,1,0,24.691V.961A.961.961,0,0,1,.961,0Z" transform="translate(-544.708 -815.674)" fill="#fff"/>
        <path id="패스_29340" data-name="패스 29340" d="M-486.077-788.472h-57.67a2.514,2.514,0,0,1-2.511-2.512v-23.73a2.513,2.513,0,0,1,2.511-2.51h57.67a2.514,2.514,0,0,1,2.511,2.51v23.73A2.515,2.515,0,0,1-486.077-788.472Zm-57.08-3.1h56.49v-22.55h-56.49Z" fill="gray"/>
      </g>
      <g id="그룹_19098" data-name="그룹 19098">
        <g id="그룹_19084" data-name="그룹 19084">
          <g id="그룹_19077" data-name="그룹 19077">
            <line id="선_194" data-name="선 194" x2="4.52" transform="translate(-539.856 -809.132)" fill="#fff"/>
            <rect id="사각형_3746" data-name="사각형 3746" width="4.52" height="3.101" transform="translate(-539.856 -810.682)" fill="#ccc"/>
          </g>
          <g id="그룹_19078" data-name="그룹 19078">
            <line id="선_195" data-name="선 195" x2="4.52" transform="translate(-532.294 -809.132)" fill="#fff"/>
            <rect id="사각형_3747" data-name="사각형 3747" width="4.52" height="3.101" transform="translate(-532.294 -810.682)" fill="#ccc"/>
          </g>
          <g id="그룹_19079" data-name="그룹 19079">
            <line id="선_196" data-name="선 196" x2="4.518" transform="translate(-524.732 -809.132)" fill="#fff"/>
            <rect id="사각형_3748" data-name="사각형 3748" width="4.518" height="3.101" transform="translate(-524.732 -810.682)" fill="#ccc"/>
          </g>
          <g id="그룹_19080" data-name="그룹 19080">
            <line id="선_197" data-name="선 197" x2="4.518" transform="translate(-517.17 -809.132)" fill="#fff"/>
            <rect id="사각형_3749" data-name="사각형 3749" width="4.518" height="3.101" transform="translate(-517.17 -810.682)" fill="#ccc"/>
          </g>
          <g id="그룹_19081" data-name="그룹 19081">
            <line id="선_198" data-name="선 198" x2="4.518" transform="translate(-509.609 -809.132)" fill="#fff"/>
            <rect id="사각형_3750" data-name="사각형 3750" width="4.518" height="3.101" transform="translate(-509.609 -810.682)" fill="#ccc"/>
          </g>
          <g id="그룹_19082" data-name="그룹 19082">
            <line id="선_199" data-name="선 199" x2="4.518" transform="translate(-502.047 -809.132)" fill="#fff"/>
            <rect id="사각형_3751" data-name="사각형 3751" width="4.518" height="3.101" transform="translate(-502.047 -810.682)" fill="#ccc"/>
          </g>
          <g id="그룹_19083" data-name="그룹 19083">
            <line id="선_200" data-name="선 200" x2="4.518" transform="translate(-494.487 -809.132)" fill="#fff"/>
            <rect id="사각형_3752" data-name="사각형 3752" width="4.518" height="3.101" transform="translate(-494.487 -810.682)" fill="#ccc"/>
          </g>
        </g>
        <g id="그룹_19092" data-name="그룹 19092">
          <g id="그룹_19085" data-name="그룹 19085">
            <line id="선_201" data-name="선 201" x2="4.52" transform="translate(-539.856 -802.847)" fill="#fff"/>
            <rect id="사각형_3753" data-name="사각형 3753" width="4.52" height="3.101" transform="translate(-539.856 -804.398)" fill="#ccc"/>
          </g>
          <g id="그룹_19086" data-name="그룹 19086">
            <line id="선_202" data-name="선 202" x2="4.52" transform="translate(-532.294 -802.847)" fill="#fff"/>
            <rect id="사각형_3754" data-name="사각형 3754" width="4.52" height="3.101" transform="translate(-532.294 -804.398)" fill="#ccc"/>
          </g>
          <g id="그룹_19087" data-name="그룹 19087">
            <line id="선_203" data-name="선 203" x2="4.518" transform="translate(-524.732 -802.847)" fill="#fff"/>
            <rect id="사각형_3755" data-name="사각형 3755" width="4.518" height="3.101" transform="translate(-524.732 -804.398)" fill="#ccc"/>
          </g>
          <g id="그룹_19088" data-name="그룹 19088">
            <line id="선_204" data-name="선 204" x2="4.518" transform="translate(-517.17 -802.847)" fill="#fff"/>
            <rect id="사각형_3756" data-name="사각형 3756" width="4.518" height="3.101" transform="translate(-517.17 -804.398)" fill="#ccc"/>
          </g>
          <g id="그룹_19089" data-name="그룹 19089">
            <line id="선_205" data-name="선 205" x2="4.518" transform="translate(-509.609 -802.847)" fill="#fff"/>
            <rect id="사각형_3757" data-name="사각형 3757" width="4.518" height="3.101" transform="translate(-509.609 -804.398)" fill="#ccc"/>
          </g>
          <g id="그룹_19090" data-name="그룹 19090">
            <line id="선_206" data-name="선 206" x2="4.518" transform="translate(-502.047 -802.847)" fill="#fff"/>
            <rect id="사각형_3758" data-name="사각형 3758" width="4.518" height="3.101" transform="translate(-502.047 -804.398)" fill="#ccc"/>
          </g>
          <g id="그룹_19091" data-name="그룹 19091">
            <line id="선_207" data-name="선 207" x2="4.518" transform="translate(-494.487 -802.847)" fill="#fff"/>
            <rect id="사각형_3759" data-name="사각형 3759" width="4.518" height="3.101" transform="translate(-494.487 -804.398)" fill="#ccc"/>
          </g>
        </g>
        <g id="그룹_19097" data-name="그룹 19097">
          <g id="그룹_19093" data-name="그룹 19093">
            <line id="선_208" data-name="선 208" x2="4.52" transform="translate(-539.856 -796.564)" fill="#fff"/>
            <rect id="사각형_3760" data-name="사각형 3760" width="4.52" height="3.101" transform="translate(-539.856 -798.115)" fill="#ccc"/>
          </g>
          <g id="그룹_19094" data-name="그룹 19094">
            <line id="선_209" data-name="선 209" x2="4.52" transform="translate(-532.294 -796.564)" fill="#fff"/>
            <rect id="사각형_3761" data-name="사각형 3761" width="4.52" height="3.101" transform="translate(-532.294 -798.115)" fill="#ccc"/>
          </g>
          <g id="그룹_19095" data-name="그룹 19095">
            <line id="선_210" data-name="선 210" x2="27.273" transform="translate(-524.732 -796.564)" fill="#fff"/>
            <rect id="사각형_3762" data-name="사각형 3762" width="27.273" height="3.101" transform="translate(-524.732 -798.115)" fill="#ccc"/>
          </g>
          <g id="그룹_19096" data-name="그룹 19096">
            <line id="선_211" data-name="선 211" x2="4.518" transform="translate(-494.487 -796.564)" fill="#fff"/>
            <rect id="사각형_3763" data-name="사각형 3763" width="4.518" height="3.101" transform="translate(-494.487 -798.115)" fill="#ccc"/>
          </g>
        </g>
      </g>
    </g>
    <g id="그룹_19100" data-name="그룹 19100">
      <path id="패스_29341" data-name="패스 29341" d="M-480.484-802.136h-3.392v-3.1h3.392v-15.505h3.1v15.505A3.1,3.1,0,0,1-480.484-802.136Z" fill="gray"/>
    </g>
  </g>
</svg>
