<svg xmlns="http://www.w3.org/2000/svg" width="75.874" height="74.054" viewBox="0 0 75.874 74.054">
  <g id="그룹_19490" data-name="그룹 19490" transform="translate(1086.014 867.708)">
    <g id="그룹_19596" data-name="그룹 19596">
      <g id="그룹_19595" data-name="그룹 19595">
        <g id="그룹_19594" data-name="그룹 19594">
          <g id="그룹_19591" data-name="그룹 19591">
            <g id="그룹_19590" data-name="그룹 19590">
              <path id="패스_29541" data-name="패스 29541" d="M-1014.37-793.688h-43.752a4.234,4.234,0,0,1-4.229-4.23v-.223a4.243,4.243,0,0,1,2.147-3.681v-22.466a18.791,18.791,0,0,1-.074-1.921c0-9.962,6.708-23.871,16.5-28.866l-2.363-8.565a2.587,2.587,0,0,1,.361-2.162,3.772,3.772,0,0,1,2.744-1.545,4.391,4.391,0,0,1,2.321.338,4.159,4.159,0,0,1,2.208-.7l.181,0a4.235,4.235,0,0,1,2.089.529,4.224,4.224,0,0,1,2.089-.528l.167,0a4.2,4.2,0,0,1,2.208.7,4.315,4.315,0,0,1,2.328-.338,3.769,3.769,0,0,1,2.744,1.549,2.586,2.586,0,0,1,.351,2.176l-2.354,8.543c9.785,4.992,16.5,18.9,16.495,28.892.007.578-.016,1.2-.072,1.87v22.494a4.247,4.247,0,0,1,2.145,3.681v.223A4.235,4.235,0,0,1-1014.37-793.688Zm-28.7-70.473,2.628,9.525a1.55,1.55,0,0,1-.893,1.841c-9.818,4.137-15.843,18.286-15.84,26.609a15.9,15.9,0,0,0,.068,1.691c0,.046.006.092.006.139v23.588a1.551,1.551,0,0,1-1.244,1.52,1.132,1.132,0,0,0-.9,1.107v.223a1.13,1.13,0,0,0,1.128,1.129h43.752a1.131,1.131,0,0,0,1.129-1.129v-.223a1.131,1.131,0,0,0-.9-1.107,1.551,1.551,0,0,1-1.243-1.52v-23.614c0-.045,0-.089.005-.133a16.382,16.382,0,0,0,.067-1.652c0-8.347-6.023-22.5-15.838-26.631a1.552,1.552,0,0,1-.894-1.841l2.624-9.522a1.292,1.292,0,0,0-.4-.106,1.227,1.227,0,0,0-.717.1,1.55,1.55,0,0,1-1.708,1.142,1.543,1.543,0,0,1-1.341-1.458,1.241,1.241,0,0,0-.519-.124,1.343,1.343,0,0,0-.614.122,1.562,1.562,0,0,1-1.53,1.308h0a1.541,1.541,0,0,1-1.531-1.314,1.177,1.177,0,0,0-.549-.117,1.379,1.379,0,0,0-.583.126,1.561,1.561,0,0,1-1.341,1.457,1.543,1.543,0,0,1-1.707-1.142,1.3,1.3,0,0,0-.715-.1A1.292,1.292,0,0,0-1043.072-864.161Z" fill="gray"/>
            </g>
          </g>
          <g id="그룹_19593" data-name="그룹 19593">
            <g id="그룹_19592" data-name="그룹 19592">
              <path id="패스_29542" data-name="패스 29542" d="M-1028.475-853.167h-15.808a1.55,1.55,0,0,1-1.55-1.55,1.55,1.55,0,0,1,1.55-1.551h15.808a1.551,1.551,0,0,1,1.551,1.551A1.551,1.551,0,0,1-1028.475-853.167Z" fill="gray"/>
            </g>
          </g>
        </g>
      </g>
    </g>
    <g id="그룹_19597" data-name="그룹 19597">
      <path id="패스_29543" data-name="패스 29543" d="M-1036.238-815.665a12.965,12.965,0,0,1-12.969-12.963,12.96,12.96,0,0,1,12.969-12.954,12.95,12.95,0,0,1,12.954,12.954A12.954,12.954,0,0,1-1036.238-815.665Z" fill="#ccc"/>
    </g>
    <g id="그룹_19608" data-name="그룹 19608">
      <g id="그룹_19599" data-name="그룹 19599">
        <g id="그룹_19598" data-name="그룹 19598">
          <rect id="사각형_3884" data-name="사각형 3884" width="10.166" height="3.101" transform="translate(-1072.923 -827.78)" fill="gray"/>
        </g>
      </g>
      <g id="그룹_19601" data-name="그룹 19601">
        <g id="그룹_19600" data-name="그룹 19600">
          <rect id="사각형_3885" data-name="사각형 3885" width="10.166" height="3.101" transform="translate(-1072.923 -822.094)" fill="gray"/>
        </g>
      </g>
      <g id="그룹_19603" data-name="그룹 19603">
        <g id="그룹_19602" data-name="그룹 19602">
          <rect id="사각형_3886" data-name="사각형 3886" width="10.166" height="3.101" transform="translate(-1072.923 -816.409)" fill="gray"/>
        </g>
      </g>
      <g id="그룹_19605" data-name="그룹 19605">
        <g id="그룹_19604" data-name="그룹 19604">
          <rect id="사각형_3887" data-name="사각형 3887" width="10.166" height="3.101" transform="translate(-1072.923 -810.724)" fill="gray"/>
        </g>
      </g>
      <g id="그룹_19607" data-name="그룹 19607">
        <g id="그룹_19606" data-name="그룹 19606">
          <rect id="사각형_3888" data-name="사각형 3888" width="10.166" height="3.101" transform="translate(-1072.923 -805.039)" fill="gray"/>
        </g>
      </g>
    </g>
    <g id="그룹_19615" data-name="그룹 19615">
      <g id="그룹_19610" data-name="그룹 19610">
        <g id="그룹_19609" data-name="그룹 19609">
          <rect id="사각형_3889" data-name="사각형 3889" width="10.166" height="3.101" transform="translate(-1086.014 -816.409)" fill="gray"/>
        </g>
      </g>
      <g id="그룹_19612" data-name="그룹 19612">
        <g id="그룹_19611" data-name="그룹 19611">
          <rect id="사각형_3890" data-name="사각형 3890" width="10.166" height="3.101" transform="translate(-1086.014 -810.724)" fill="gray"/>
        </g>
      </g>
      <g id="그룹_19614" data-name="그룹 19614">
        <g id="그룹_19613" data-name="그룹 19613">
          <rect id="사각형_3891" data-name="사각형 3891" width="10.166" height="3.101" transform="translate(-1086.014 -805.039)" fill="gray"/>
        </g>
      </g>
    </g>
    <g id="그룹_19620" data-name="그룹 19620">
      <g id="그룹_19616" data-name="그룹 19616">
        <path id="패스_29544" data-name="패스 29544" d="M-1065.762-801.344a7.692,7.692,0,0,1-7.691,7.69,7.691,7.691,0,0,1-7.689-7.69,7.69,7.69,0,0,1,7.689-7.689A7.69,7.69,0,0,1-1065.762-801.344Z" fill="#ccc"/>
      </g>
      <g id="그룹_19619" data-name="그룹 19619">
        <g id="그룹_19618" data-name="그룹 19618">
          <g id="그룹_19617" data-name="그룹 19617">
            <rect id="사각형_3892" data-name="사각형 3892" width="3.101" height="7.094" transform="translate(-1075.003 -804.891)" fill="gray"/>
          </g>
        </g>
      </g>
    </g>
    <g id="그룹_19623" data-name="그룹 19623">
      <g id="그룹_19621" data-name="그룹 19621">
        <path id="패스_29545" data-name="패스 29545" d="M-1032.034-822.208h-3.027l-1.184-5.337-1.184,5.337h-3.027l-2.7-12.16,3.027-.672,1.184,5.336,1.184-5.336h3.027l1.184,5.337,1.184-5.337,3.027.672Z" fill="gray"/>
      </g>
      <g id="그룹_19622" data-name="그룹 19622">
        <rect id="사각형_3893" data-name="사각형 3893" width="15.126" height="3.101" transform="translate(-1043.809 -830.174)" fill="gray"/>
      </g>
    </g>
  </g>
</svg>
