<svg xmlns="http://www.w3.org/2000/svg" width="120.187" height="77.965" viewBox="0 0 120.187 77.965">
  <g id="그룹_20006" data-name="그룹 20006" transform="translate(364.001 -2230.967)">
    <g id="그룹_19996" data-name="그룹 19996">
      <g id="그룹_19995" data-name="그룹 19995">
        <g id="그룹_19981" data-name="그룹 19981">
          <path id="패스_29821" data-name="패스 29821" d="M-362.451,2308.932v-4.284c0-4.587,4.2-8.306,9.385-8.306h41.184c5.183,0,9.383,3.719,9.383,8.306v4.284" fill="#5eb4e7"/>
          <path id="패스_29822" data-name="패스 29822" d="M-300.949,2308.932h-3.1v-4.284c0-3.725-3.513-6.755-7.832-6.755h-41.184c-4.32,0-7.834,3.03-7.834,6.755v4.284H-364v-4.284c0-5.435,4.9-9.856,10.935-9.856h41.184c6.029,0,10.933,4.421,10.933,9.856Z" fill="#282d33"/>
        </g>
        <g id="그룹_19982" data-name="그룹 19982">
          <path id="패스_29823" data-name="패스 29823" d="M-351.6,2308.932v-2.877a5.793,5.793,0,0,1,5.987-5.578h26.272a5.791,5.791,0,0,1,5.985,5.578v2.877" fill="#fff"/>
          <path id="패스_29824" data-name="패스 29824" d="M-311.8,2308.932h-3.1v-2.877a4.251,4.251,0,0,0-4.435-4.028H-345.61a4.252,4.252,0,0,0-4.437,4.028v2.877h-3.1v-2.877a7.351,7.351,0,0,1,7.538-7.129h26.272a7.349,7.349,0,0,1,7.536,7.129Z" fill="#282d33"/>
        </g>
        <g id="그룹_19983" data-name="그룹 19983">
          <path id="패스_29825" data-name="패스 29825" d="M-332.51,2306.244c7.105,0,12.067-3.266,12.067-7.941v-1.961h-24.134v1.961C-344.577,2302.978-339.614,2306.244-332.51,2306.244Z" fill="#5eb4e7"/>
          <path id="패스_29826" data-name="패스 29826" d="M-332.51,2307.794c-8.018,0-13.617-3.9-13.617-9.491v-3.511h27.235v3.511C-318.892,2303.891-324.492,2307.794-332.51,2307.794Zm-10.516-9.9v.41c0,3.762,4.324,6.39,10.516,6.39s10.517-2.628,10.517-6.39v-.41Z" fill="#282d33"/>
        </g>
        <g id="그룹_19984" data-name="그룹 19984">
          <path id="패스_29827" data-name="패스 29827" d="M-332.51,2301.592c-4.1,0-7.415-1.473-7.415-3.289v-17.609c0-1.816,3.32-3.289,7.415-3.289h0c4.1,0,7.416,1.473,7.416,3.289V2298.3c0,1.816-3.321,3.289-7.416,3.289Z" fill="#fff"/>
          <path id="패스_29828" data-name="패스 29828" d="M-332.51,2303.143c-4.455,0-8.966-1.663-8.966-4.84v-17.609c0-3.177,4.511-4.84,8.966-4.84s8.966,1.663,8.966,4.84V2298.3C-323.544,2301.48-328.054,2303.143-332.51,2303.143Zm0-24.188c-3.831,0-5.773,1.327-5.866,1.749v17.6c.092.412,2.033,1.739,5.865,1.739s5.773-1.327,5.866-1.749v-17.6C-326.737,2280.282-328.679,2278.955-332.51,2278.955Z" fill="#282d33"/>
        </g>
        <g id="그룹_19985" data-name="그룹 19985">
          <path id="패스_29829" data-name="패스 29829" d="M-314.257,2273.917c0,5.138-5.715,17.055-10.853,17.055h-14.73c-5.137,0-10.853-11.917-10.853-17.055v-19.769a9.3,9.3,0,0,1,9.3-9.3h17.83a9.3,9.3,0,0,1,9.3,9.3Z" fill="#fff"/>
          <path id="패스_29830" data-name="패스 29830" d="M-325.11,2292.523h-14.73c-6.506,0-12.4-13.4-12.4-18.606v-19.769a10.866,10.866,0,0,1,10.854-10.854h17.83a10.866,10.866,0,0,1,10.854,10.854v19.769C-312.706,2279.128-318.6,2292.523-325.11,2292.523Zm-16.28-46.128a7.762,7.762,0,0,0-7.753,7.753v19.769c0,2.272,1.386,6.345,3.3,9.684,2.053,3.59,4.355,5.821,6.007,5.821h14.73c1.653,0,3.955-2.231,6.008-5.82,1.909-3.339,3.295-7.413,3.295-9.685v-19.769a7.762,7.762,0,0,0-7.753-7.753Z" fill="#282d33"/>
        </g>
        <g id="그룹_19986" data-name="그룹 19986">
          <path id="패스_29831" data-name="패스 29831" d="M-332.927,2274.442h-3.1V2264.01a1.853,1.853,0,0,0-1.851-1.851v-3.1a4.958,4.958,0,0,1,4.952,4.952Z" fill="#282d33"/>
        </g>
        <g id="그룹_19987" data-name="그룹 19987">
          <path id="패스_29832" data-name="패스 29832" d="M-332.893,2285.653h-.583a5.936,5.936,0,0,1-5.93-5.929,6.139,6.139,0,0,1,.037-.655l.151-1.383h12.066l.151,1.383a6.139,6.139,0,0,1,.037.655A5.936,5.936,0,0,1-332.893,2285.653Zm-3.2-4.866a2.833,2.833,0,0,0,2.621,1.765h.583a2.832,2.832,0,0,0,2.62-1.765Z" fill="#282d33"/>
        </g>
        <g id="그룹_19988" data-name="그룹 19988">
          <path id="패스_29833" data-name="패스 29833" d="M-350.758,2259.316h-1.292a3.1,3.1,0,0,0-3.1,3.1v7.236a3.1,3.1,0,0,0,3.1,3.1h1.292Z" fill="#fff"/>
          <path id="패스_29834" data-name="패스 29834" d="M-349.207,2274.3h-2.843a4.656,4.656,0,0,1-4.651-4.651v-7.236a4.656,4.656,0,0,1,4.651-4.651h2.843Zm-3.1-13.415a1.552,1.552,0,0,0-1.292,1.528v7.236a1.552,1.552,0,0,0,1.292,1.529Z" fill="#282d33"/>
        </g>
        <g id="그룹_19989" data-name="그룹 19989">
          <path id="패스_29835" data-name="패스 29835" d="M-314.063,2272.754h1.293a3.1,3.1,0,0,0,3.1-3.1v-7.236a3.1,3.1,0,0,0-3.1-3.1h-1.293Z" fill="#fff"/>
          <path id="패스_29836" data-name="패스 29836" d="M-312.77,2274.3h-2.843v-16.538h2.843a4.656,4.656,0,0,1,4.651,4.651v7.236A4.656,4.656,0,0,1-312.77,2274.3Zm.258-13.415v10.293a1.553,1.553,0,0,0,1.292-1.529v-7.236A1.553,1.553,0,0,0-312.512,2260.889Z" fill="#282d33"/>
        </g>
        <g id="그룹_19990" data-name="그룹 19990">
          <path id="패스_29837" data-name="패스 29837" d="M-318.391,2240.451h-1.236c2.4-1.055,3.867-2.43,3.867-3.94,0-3.318-8.635-4.658-17.249-3.683a25.48,25.48,0,0,0-15.94,8.141c-2.675,0-6.4,2.169-6.4,4.845a4.791,4.791,0,0,0,.048.566l-.048.015v14.342h4.652v-6.589a9.279,9.279,0,0,1,3.849-7.525l1.9-.453c2.519,2.887,7.021,5.108,12.344,5.72a21.114,21.114,0,0,0,11.236-1.566,19.63,19.63,0,0,1-5.062-5.678l8.316,1.977a9.281,9.281,0,0,1,3.848,7.525v6.589h4.652v-17.443Z" fill="#5eb4e7"/>
          <path id="패스_29838" data-name="패스 29838" d="M-308.055,2262.288h-7.752v-8.14a7.78,7.78,0,0,0-2.972-6.092l-3.819-.907a19.185,19.185,0,0,0,2.18,1.943l2.027,1.547-2.307,1.087a22.783,22.783,0,0,1-12.074,1.7c-5.093-.585-9.751-2.635-12.682-5.544l-.716.17a7.778,7.778,0,0,0-2.973,6.092v8.14h-7.752l.035-17.038c.4-3.25,4.225-5.461,7.175-5.79a27.174,27.174,0,0,1,16.5-8.172,50.2,50.2,0,0,1,5.623-.321c8.36,0,13.351,2.072,13.351,5.544a4.487,4.487,0,0,1-1.441,3.2l7.6,2.458Zm-4.651-3.1h1.55v-14.765l-7.479-2.42h-.992l-.624-2.97c2.17-.954,2.94-1.954,2.94-2.521,0-.719-2.949-2.443-10.25-2.443a47.114,47.114,0,0,0-5.274.3,24.174,24.174,0,0,0-14.913,7.58l-.465.567-.736,0c-2,0-4.845,1.7-4.845,3.295a2.623,2.623,0,0,0,.028.31l.153,1.274-.181.069v11.72h1.55v-5.039a10.887,10.887,0,0,1,4.489-8.78l.251-.182,3.117-.741.616.706c2.365,2.71,6.61,4.653,11.353,5.2a21.209,21.209,0,0,0,8.069-.563,20.547,20.547,0,0,1-3.412-4.359l-1.823-3.126,12.139,2.885.251.182a10.89,10.89,0,0,1,4.488,8.78Z" fill="#282d33"/>
        </g>
        <g id="그룹_19991" data-name="그룹 19991">
          <rect id="사각형_3980" data-name="사각형 3980" width="15.505" height="8.915" rx="2.326" transform="translate(-330.102 2261.513)" fill="#fff"/>
          <path id="패스_29839" data-name="패스 29839" d="M-316.923,2271.979h-10.853a3.881,3.881,0,0,1-3.877-3.877v-4.264a3.881,3.881,0,0,1,3.877-3.876h10.853a3.881,3.881,0,0,1,3.876,3.876v4.264A3.881,3.881,0,0,1-316.923,2271.979Zm-10.853-8.916a.776.776,0,0,0-.776.775v4.264a.777.777,0,0,0,.776.776h10.853a.776.776,0,0,0,.775-.776v-4.264a.776.776,0,0,0-.775-.775Z" fill="#282d33"/>
        </g>
        <g id="그룹_19992" data-name="그룹 19992">
          <rect id="사각형_3981" data-name="사각형 3981" width="15.505" height="8.915" rx="2.326" transform="translate(-350.259 2261.513)" fill="#fff"/>
          <path id="패스_29840" data-name="패스 29840" d="M-337.079,2271.979h-10.854a3.881,3.881,0,0,1-3.876-3.877v-4.264a3.881,3.881,0,0,1,3.876-3.876h10.854a3.881,3.881,0,0,1,3.876,3.876v4.264A3.881,3.881,0,0,1-337.079,2271.979Zm-10.854-8.916a.776.776,0,0,0-.775.775v4.264a.776.776,0,0,0,.775.776h10.854a.776.776,0,0,0,.775-.776v-4.264a.776.776,0,0,0-.775-.775Z" fill="#282d33"/>
        </g>
        <g id="그룹_19993" data-name="그룹 19993">
          <rect id="사각형_3982" data-name="사각형 3982" width="3.781" height="3.101" transform="translate(-343.507 2264.086)" fill="#282d33"/>
        </g>
        <g id="그룹_19994" data-name="그룹 19994">
          <rect id="사각형_3983" data-name="사각형 3983" width="3.781" height="3.101" transform="translate(-327.486 2264.086)" fill="#282d33"/>
        </g>
      </g>
    </g>
    <g id="그룹_20005" data-name="그룹 20005">
      <g id="그룹_19997" data-name="그룹 19997">
        <rect id="사각형_3984" data-name="사각형 3984" width="35.661" height="56.206" rx="14.73" transform="translate(-289.251 2248.102)" fill="#f8c44f"/>
        <path id="패스_29841" data-name="패스 29841" d="M-268.32,2305.858h-6.2a16.3,16.3,0,0,1-16.28-16.28v-26.746a16.3,16.3,0,0,1,16.28-16.28h6.2a16.3,16.3,0,0,1,16.281,16.28v26.746A16.3,16.3,0,0,1-268.32,2305.858Zm-6.2-56.2a13.194,13.194,0,0,0-13.179,13.179v26.746a13.2,13.2,0,0,0,13.179,13.179h6.2a13.2,13.2,0,0,0,13.18-13.179v-26.746a13.2,13.2,0,0,0-13.18-13.179Z" fill="#282d33"/>
        <path id="패스_29842" data-name="패스 29842" d="M-271.868,2295.263c-12.023,0-23.034,5.366-28.053,13.669h3.752c4.872-6.47,14.158-10.568,24.3-10.568s19.429,4.1,24.3,10.568h3.752C-248.833,2300.629-259.844,2295.263-271.868,2295.263Z" fill="#282d33"/>
        <path id="패스_29843" data-name="패스 29843" d="M-296.169,2308.932c4.872-6.47,14.158-10.568,24.3-10.568s19.429,4.1,24.3,10.568" fill="#fff"/>
      </g>
      <g id="그룹_19998" data-name="그룹 19998">
        <path id="패스_29844" data-name="패스 29844" d="M-248.227,2275.236a6.309,6.309,0,0,1-6.309,6.308H-288.3a6.309,6.309,0,0,1-6.309-6.308h0a6.309,6.309,0,0,1,6.309-6.309h33.769a6.309,6.309,0,0,1,6.309,6.309Z" fill="#fff"/>
        <path id="패스_29845" data-name="패스 29845" d="M-254.536,2283.095H-288.3a7.868,7.868,0,0,1-7.859-7.859,7.867,7.867,0,0,1,7.859-7.859h33.769a7.868,7.868,0,0,1,7.859,7.859A7.868,7.868,0,0,1-254.536,2283.095Zm-33.769-12.617a4.763,4.763,0,0,0-4.758,4.758,4.763,4.763,0,0,0,4.758,4.758h33.769a4.763,4.763,0,0,0,4.758-4.758,4.763,4.763,0,0,0-4.758-4.758Z" fill="#282d33"/>
      </g>
      <g id="그룹_19999" data-name="그룹 19999">
        <path id="패스_29846" data-name="패스 29846" d="M-271.868,2304.889a6.589,6.589,0,0,1-6.589-6.589v-35.274a6.589,6.589,0,0,1,6.589-6.59h0a6.589,6.589,0,0,1,6.59,6.59V2298.3a6.589,6.589,0,0,1-6.59,6.589Z" fill="#fff"/>
        <path id="패스_29847" data-name="패스 29847" d="M-271.868,2306.44a8.15,8.15,0,0,1-8.14-8.14v-35.274a8.149,8.149,0,0,1,8.14-8.14,8.149,8.149,0,0,1,8.141,8.14V2298.3A8.15,8.15,0,0,1-271.868,2306.44Zm0-48.453a5.045,5.045,0,0,0-5.039,5.039V2298.3a5.046,5.046,0,0,0,5.039,5.039,5.046,5.046,0,0,0,5.04-5.039v-35.274A5.045,5.045,0,0,0-271.868,2257.987Z" fill="#282d33"/>
      </g>
      <g id="그룹_20000" data-name="그룹 20000">
        <rect id="사각형_3985" data-name="사각형 3985" width="35.661" height="56.206" rx="14.73" transform="translate(-289.251 2236.473)" fill="#fff"/>
        <path id="패스_29848" data-name="패스 29848" d="M-268.32,2294.23h-6.2a16.3,16.3,0,0,1-16.28-16.281V2251.2a16.3,16.3,0,0,1,16.28-16.28h6.2a16.3,16.3,0,0,1,16.281,16.28v26.746A16.3,16.3,0,0,1-268.32,2294.23Zm-6.2-56.206A13.2,13.2,0,0,0-287.7,2251.2v26.746a13.2,13.2,0,0,0,13.179,13.18h6.2a13.2,13.2,0,0,0,13.18-13.18V2251.2a13.2,13.2,0,0,0-13.18-13.179Z" fill="#282d33"/>
      </g>
      <g id="그룹_20001" data-name="그룹 20001">
        <path id="패스_29849" data-name="패스 29849" d="M-268.32,2236.473h-6.2a14.729,14.729,0,0,0-14.729,14.73v17.639c7.356-.669,14.355-7.532,17.83-17.356,3.475,9.825,10.475,16.688,17.831,17.356V2251.2A14.73,14.73,0,0,0-268.32,2236.473Z" fill="#f8c44f"/>
        <path id="패스_29850" data-name="패스 29850" d="M-252.039,2270.54l-1.691-.154c-7-.636-13.678-6.325-17.691-14.826-4.012,8.5-10.687,14.19-17.69,14.826l-1.691.154V2251.2a16.3,16.3,0,0,1,16.28-16.28h6.2a16.3,16.3,0,0,1,16.281,16.28Zm-19.382-23.7,1.462,4.133c3.016,8.526,8.706,14.62,14.819,16.054V2251.2a13.2,13.2,0,0,0-13.18-13.179h-6.2A13.2,13.2,0,0,0-287.7,2251.2v15.819c6.113-1.434,11.8-7.528,14.819-16.053Z" fill="#282d33"/>
      </g>
      <g id="그룹_20002" data-name="그룹 20002">
        <path id="패스_29851" data-name="패스 29851" d="M-273.548,2271.755h-3.1c0-.3-1.024-1.169-2.978-1.169s-2.977.869-2.977,1.169h-3.1c0-2.394,2.67-4.27,6.078-4.27S-273.548,2269.361-273.548,2271.755Z" fill="#282d33"/>
      </g>
      <g id="그룹_20003" data-name="그룹 20003">
        <path id="패스_29852" data-name="패스 29852" d="M-258.818,2271.755h-3.1c0-.3-1.024-1.169-2.978-1.169s-2.977.869-2.977,1.169h-3.1c0-2.394,2.67-4.27,6.078-4.27S-258.818,2269.361-258.818,2271.755Z" fill="#282d33"/>
      </g>
      <g id="그룹_20004" data-name="그룹 20004">
        <path id="패스_29853" data-name="패스 29853" d="M-277.741,2278.337v2.713a3.877,3.877,0,0,0,3.876,3.877h2.714a3.877,3.877,0,0,0,3.876-3.877v-2.713Z" fill="#fff"/>
        <path id="패스_29854" data-name="패스 29854" d="M-271.151,2286.477h-2.714a5.432,5.432,0,0,1-5.426-5.427v-4.264h13.566v4.264A5.432,5.432,0,0,1-271.151,2286.477Zm-5.039-6.59v1.163a2.328,2.328,0,0,0,2.325,2.326h2.714a2.328,2.328,0,0,0,2.325-2.326v-1.163Z" fill="#282d33"/>
      </g>
    </g>
  </g>
</svg>
