<svg xmlns="http://www.w3.org/2000/svg" width="75.702" height="54.423" viewBox="0 0 75.702 54.423">
  <g id="그룹_19395" data-name="그룹 19395" transform="translate(721.804 7.675)">
    <g id="그룹_19366" data-name="그룹 19366">
      <line id="선_228" data-name="선 228" y2="18.731" transform="translate(-653.098 26.04)" fill="#fff"/>
    </g>
    <g id="그룹_19367" data-name="그룹 19367">
      <rect id="사각형_3844" data-name="사각형 3844" width="3.101" height="18.731" transform="translate(-654.648 26.04)" fill="#282d33"/>
    </g>
    <g id="그룹_19368" data-name="그룹 19368">
      <path id="패스_29448" data-name="패스 29448" d="M-720.254,44.771V2.184A2.3,2.3,0,0,1-717.96-.11h33.349" fill="#fff"/>
    </g>
    <g id="그룹_19369" data-name="그룹 19369">
      <path id="패스_29449" data-name="패스 29449" d="M-718.7,44.771h-3.1V2.184A3.848,3.848,0,0,1-717.96-1.66h33.349v3.1H-717.96a.743.743,0,0,0-.743.743Z" fill="#282d33"/>
    </g>
    <g id="그룹_19370" data-name="그룹 19370">
      <rect id="사각형_3845" data-name="사각형 3845" width="57.392" height="35.049" transform="translate(-715.37 4.773)" fill="#f8c44f"/>
    </g>
    <g id="그룹_19371" data-name="그룹 19371">
      <path id="패스_29450" data-name="패스 29450" d="M-650-6.125h-27.274a2.55,2.55,0,0,0-2.347,2.715V18.768a2.548,2.548,0,0,0,2.347,2.712h4.181v5.2l6.136-5.2H-650a2.55,2.55,0,0,0,2.351-2.712V-3.41A2.552,2.552,0,0,0-650-6.125Z" fill="#fff"/>
    </g>
    <g id="그룹_19372" data-name="그룹 19372">
      <path id="패스_29451" data-name="패스 29451" d="M-674.646,30.026V23.031h-2.631a4.1,4.1,0,0,1-3.9-4.263V-3.41a4.1,4.1,0,0,1,3.9-4.265H-650a4.1,4.1,0,0,1,3.9,4.265V18.768a4.1,4.1,0,0,1-3.9,4.263h-16.389Zm-2.631-34.6c-.377,0-.8.478-.8,1.164V18.768c0,.685.42,1.162.8,1.162h5.732v3.4l4.016-3.4H-650c.378,0,.8-.477.8-1.162V-3.41c0-.686-.422-1.164-.8-1.164Z" fill="#282d33"/>
    </g>
    <g id="그룹_19382" data-name="그룹 19382">
      <g id="그룹_19373" data-name="그룹 19373">
        <path id="패스_29452" data-name="패스 29452" d="M-712.921,43.647V39.885a4.141,4.141,0,0,1,4.369-3.868h19.176a4.141,4.141,0,0,1,4.369,3.868v3.762" fill="#5eb4e7"/>
      </g>
      <g id="그룹_19374" data-name="그룹 19374">
        <path id="패스_29453" data-name="패스 29453" d="M-683.457,43.647h-3.1V39.885a2.607,2.607,0,0,0-2.818-2.317h-19.176a2.608,2.608,0,0,0-2.819,2.317v3.762h-3.1V39.885a5.692,5.692,0,0,1,5.92-5.418h19.176a5.691,5.691,0,0,1,5.919,5.418Z" fill="#282d33"/>
      </g>
      <g id="그룹_19375" data-name="그룹 19375">
        <path id="패스_29454" data-name="패스 29454" d="M-695.379,36.057l-3.671,2.12-3.67-2.12V28.042h7.341Z" fill="#fff"/>
      </g>
      <g id="그룹_19376" data-name="그룹 19376">
        <path id="패스_29455" data-name="패스 29455" d="M-699.05,39.967l-5.221-3.015V26.492h10.442v10.46Zm-2.12-4.805,2.12,1.224,2.12-1.224V29.593h-4.24Z" fill="#282d33"/>
      </g>
      <g id="그룹_19377" data-name="그룹 19377">
        <path id="패스_29456" data-name="패스 29456" d="M-690.38,16.21v8.24c0,4.741-3.843,7.771-8.585,7.771h0c-4.741,0-8.584-3.03-8.584-7.771V16.21" fill="#fff"/>
      </g>
      <g id="그룹_19378" data-name="그룹 19378">
        <path id="패스_29457" data-name="패스 29457" d="M-698.965,33.771c-5.872,0-10.134-3.92-10.134-9.321V16.21h3.1v8.24c0,3.663,2.892,6.22,7.033,6.22s7.034-2.557,7.034-6.22V16.21h3.1v8.24C-688.83,29.851-693.092,33.771-698.965,33.771Z" fill="#282d33"/>
      </g>
      <g id="그룹_19379" data-name="그룹 19379">
        <path id="패스_29458" data-name="패스 29458" d="M-703.042,8.505a4.518,4.518,0,0,0-3.78,2.044h-1.551a3.5,3.5,0,0,0-3.5,3.5v6.8l4.124,5.723V19.188a2.466,2.466,0,0,1,2.466-2.465h14.158a4.52,4.52,0,0,0,4.52-4.52v-3.7Z" fill="#fff"/>
      </g>
      <g id="그룹_19380" data-name="그룹 19380">
        <path id="패스_29459" data-name="패스 29459" d="M-706.2,31.38l-7.225-10.025v-7.3A5.059,5.059,0,0,1-708.373,9h.79a6.053,6.053,0,0,1,4.541-2.043h17.985V12.2a6.078,6.078,0,0,1-6.071,6.07h-14.158a.916.916,0,0,0-.915.915Zm-4.124-11.026,1.023,1.42V19.188a4.02,4.02,0,0,1,4.016-4.016h14.158a2.973,2.973,0,0,0,2.97-2.969V10.056h-14.884a2.966,2.966,0,0,0-2.484,1.345l-.46.7h-2.387a1.954,1.954,0,0,0-1.952,1.953Z" fill="#282d33"/>
      </g>
      <g id="그룹_19381" data-name="그룹 19381">
        <rect id="사각형_3846" data-name="사각형 3846" width="3.101" height="4.918" transform="translate(-700.743 38.729)" fill="#282d33"/>
      </g>
    </g>
    <g id="그룹_19393" data-name="그룹 19393">
      <g id="그룹_19385" data-name="그룹 19385">
        <g id="그룹_19383" data-name="그룹 19383">
          <line id="선_229" data-name="선 229" x2="21.028" transform="translate(-674.126 7.818)" fill="#fff"/>
        </g>
        <g id="그룹_19384" data-name="그룹 19384">
          <rect id="사각형_3847" data-name="사각형 3847" width="21.028" height="3.101" transform="translate(-674.126 6.267)" fill="#282d33"/>
        </g>
      </g>
      <g id="그룹_19392" data-name="그룹 19392">
        <g id="그룹_19388" data-name="그룹 19388">
          <g id="그룹_19386" data-name="그룹 19386">
            <line id="선_230" data-name="선 230" x2="12.56" transform="translate(-674.126 1.949)" fill="#fff"/>
          </g>
          <g id="그룹_19387" data-name="그룹 19387">
            <rect id="사각형_3848" data-name="사각형 3848" width="12.56" height="3.101" transform="translate(-674.126 0.398)" fill="#282d33"/>
          </g>
        </g>
        <g id="그룹_19391" data-name="그룹 19391">
          <g id="그룹_19389" data-name="그룹 19389">
            <line id="선_231" data-name="선 231" x2="12.56" transform="translate(-674.126 13.687)" fill="#fff"/>
          </g>
          <g id="그룹_19390" data-name="그룹 19390">
            <rect id="사각형_3849" data-name="사각형 3849" width="12.56" height="3.101" transform="translate(-674.126 12.136)" fill="#282d33"/>
          </g>
        </g>
      </g>
    </g>
    <g id="그룹_19394" data-name="그룹 19394">
      <rect id="사각형_3850" data-name="사각형 3850" width="70.257" height="3.101" transform="translate(-721.804 43.647)" fill="#282d33"/>
    </g>
  </g>
</svg>
