<svg xmlns="http://www.w3.org/2000/svg" width="88.976" height="77.912" viewBox="0 0 88.976 77.912">
  <g id="그룹_18592" data-name="그룹 18592" transform="translate(918.554 381.808)">
    <g id="그룹_18576" data-name="그룹 18576">
      <g id="그룹_18575" data-name="그룹 18575">
        <g id="그룹_18567" data-name="그룹 18567">
          <path id="패스_29095" data-name="패스 29095" d="M-829.578-315.973h-30.527v-3.1h27.426v-30.443h-27.426v-3.1h30.527Z" fill="#282d33"/>
        </g>
        <path id="패스_29096" data-name="패스 29096" d="M-860.1-346.457h20.645a4.466,4.466,0,0,0,3.719,3.553v17.145a4.467,4.467,0,0,0-3.734,3.624H-860.1" fill="#5eb4e7"/>
        <g id="그룹_18568" data-name="그룹 18568">
          <path id="패스_29097" data-name="패스 29097" d="M-860.1-341.391a7.1,7.1,0,0,1,7.1,7.1,7.1,7.1,0,0,1-7.1,7.094" fill="#fff"/>
          <path id="패스_29098" data-name="패스 29098" d="M-860.1-325.651v-3.1a5.55,5.55,0,0,0,5.545-5.544,5.55,5.55,0,0,0-5.545-5.544v-3.1a8.656,8.656,0,0,1,8.646,8.645A8.655,8.655,0,0,1-860.1-325.651Z" fill="#282d33"/>
        </g>
        <g id="그룹_18574" data-name="그룹 18574">
          <g id="그룹_18573" data-name="그룹 18573">
            <g id="그룹_18569" data-name="그룹 18569">
              <line id="선_120" data-name="선 120" x2="8.937" transform="translate(-849.206 -334.296)" fill="#fff"/>
              <rect id="사각형_3497" data-name="사각형 3497" width="8.937" height="3.101" transform="translate(-849.206 -335.847)" fill="#282d33"/>
            </g>
            <g id="그룹_18572" data-name="그룹 18572">
              <g id="그룹_18570" data-name="그룹 18570">
                <line id="선_121" data-name="선 121" x2="4.714" transform="translate(-849.206 -340.165)" fill="#fff"/>
                <rect id="사각형_3498" data-name="사각형 3498" width="4.714" height="3.101" transform="translate(-849.206 -341.716)" fill="#282d33"/>
              </g>
              <g id="그룹_18571" data-name="그룹 18571">
                <line id="선_122" data-name="선 122" x2="4.714" transform="translate(-849.206 -328.427)" fill="#fff"/>
                <rect id="사각형_3499" data-name="사각형 3499" width="4.714" height="3.101" transform="translate(-849.206 -329.978)" fill="#282d33"/>
              </g>
            </g>
          </g>
        </g>
      </g>
    </g>
    <g id="그룹_18577" data-name="그룹 18577">
      <path id="패스_29099" data-name="패스 29099" d="M-866.73-303.9h-33.251a3.929,3.929,0,0,1-3.924-3.926v-15.621h3.1v15.621a.825.825,0,0,0,.823.825h33.251a.826.826,0,0,0,.824-.825v-70.062a.825.825,0,0,0-.824-.823h-33.251a.824.824,0,0,0-.823.823v16.842h-3.1v-16.842a3.928,3.928,0,0,1,3.924-3.924h33.251a3.929,3.929,0,0,1,3.925,3.924v70.062A3.93,3.93,0,0,1-866.73-303.9Z" fill="#282d33"/>
    </g>
    <g id="그룹_18579" data-name="그룹 18579">
      <g id="그룹_18578" data-name="그룹 18578">
        <rect id="사각형_3500" data-name="사각형 3500" width="12.695" height="3.101" transform="translate(-889.703 -376.504)" fill="#282d33"/>
      </g>
    </g>
    <g id="그룹_18581" data-name="그룹 18581">
      <g id="그룹_18580" data-name="그룹 18580">
        <rect id="사각형_3501" data-name="사각형 3501" width="38.233" height="3.101" transform="translate(-902.47 -369.267)" fill="#282d33"/>
      </g>
    </g>
    <g id="그룹_18583" data-name="그룹 18583">
      <g id="그룹_18582" data-name="그룹 18582">
        <rect id="사각형_3502" data-name="사각형 3502" width="38.233" height="3.101" transform="translate(-902.47 -319.074)" fill="#282d33"/>
      </g>
    </g>
    <g id="그룹_18584" data-name="그룹 18584">
      <rect id="사각형_3503" data-name="사각형 3503" width="3.101" height="3.101" transform="translate(-884.906 -313.19)" fill="#282d33"/>
    </g>
    <g id="그룹_18591" data-name="그룹 18591">
      <g id="그룹_18585" data-name="그룹 18585">
        <path id="사각형_3504" data-name="사각형 3504" d="M2.411,0H44.537A2.412,2.412,0,0,1,46.95,2.412V26.929a2.414,2.414,0,0,1-2.414,2.414H2.412A2.412,2.412,0,0,1,0,26.932V2.411A2.411,2.411,0,0,1,2.411,0Z" transform="translate(-917.004 -356.664)" fill="#fff"/>
        <path id="패스_29100" data-name="패스 29100" d="M-872.466-325.769h-42.126a3.967,3.967,0,0,1-3.962-3.962v-24.518a3.968,3.968,0,0,1,3.962-3.965h42.126a3.968,3.968,0,0,1,3.962,3.965v24.518A3.967,3.967,0,0,1-872.466-325.769Zm-42.126-29.344a.864.864,0,0,0-.861.864v24.518a.862.862,0,0,0,.861.861h42.126a.872.872,0,0,0,.861-.861v-24.518a.874.874,0,0,0-.861-.864Z" fill="#282d33"/>
      </g>
      <g id="그룹_18586" data-name="그룹 18586">
        <line id="선_123" data-name="선 123" x1="7.647" transform="translate(-881.36 -340.302)" fill="#fff"/>
        <rect id="사각형_3505" data-name="사각형 3505" width="7.647" height="3.101" transform="translate(-881.36 -341.852)" fill="#282d33"/>
      </g>
      <g id="그룹_18587" data-name="그룹 18587">
        <line id="선_124" data-name="선 124" x1="13.43" transform="translate(-887.144 -333.578)" fill="#fff"/>
        <rect id="사각형_3506" data-name="사각형 3506" width="13.43" height="3.101" transform="translate(-887.144 -335.128)" fill="#282d33"/>
      </g>
      <g id="그룹_18588" data-name="그룹 18588">
        <line id="선_125" data-name="선 125" x1="7.648" transform="translate(-891.908 -340.302)" fill="#fff"/>
        <rect id="사각형_3507" data-name="사각형 3507" width="7.648" height="3.101" transform="translate(-891.908 -341.852)" fill="#282d33"/>
      </g>
      <g id="그룹_18589" data-name="그룹 18589">
        <line id="선_126" data-name="선 126" x1="7.646" transform="translate(-902.454 -340.302)" fill="#fff"/>
        <rect id="사각형_3508" data-name="사각형 3508" width="7.646" height="3.101" transform="translate(-902.454 -341.852)" fill="#282d33"/>
      </g>
      <g id="그룹_18590" data-name="그룹 18590">
        <line id="선_127" data-name="선 127" x1="7.647" transform="translate(-913 -340.302)" fill="#fff"/>
        <rect id="사각형_3509" data-name="사각형 3509" width="7.647" height="3.101" transform="translate(-913 -341.852)" fill="#282d33"/>
      </g>
      <rect id="사각형_3510" data-name="사각형 3510" width="43.599" height="5.176" transform="translate(-915.396 -350.594)" fill="#5eb4e7"/>
    </g>
  </g>
</svg>
