<svg xmlns="http://www.w3.org/2000/svg" width="120.879" height="77.001" viewBox="0 0 120.879 77.001">
  <g id="그룹_20033" data-name="그룹 20033" transform="translate(131.765 -2543.509)">
    <g id="그룹_20046" data-name="그룹 20046">
      <g id="그룹_20033-2" data-name="그룹 20033">
        <path id="패스_29889" data-name="패스 29889" d="M-63.154,2620.51v-9.3a6.2,6.2,0,0,1,6.2-6.2h34.111a6.2,6.2,0,0,1,6.2,6.2v9.3" fill="#ccc"/>
        <path id="패스_29890" data-name="패스 29890" d="M-15.089,2620.51h-3.1v-9.3a4.656,4.656,0,0,0-4.651-4.651H-56.952a4.657,4.657,0,0,0-4.652,4.651v9.3h-3.1v-9.3a7.762,7.762,0,0,1,7.753-7.752h34.111a7.761,7.761,0,0,1,7.752,7.752Z" fill="gray"/>
      </g>
      <g id="그룹_20034" data-name="그룹 20034">
        <path id="패스_29891" data-name="패스 29891" d="M-51.913,2620.51v-8.6c0-3.168,1.435-5.737,3.2-5.737h17.624c1.77,0,3.2,2.569,3.2,5.737v8.6" fill="#fff"/>
        <path id="패스_29892" data-name="패스 29892" d="M-26.33,2620.51h-3.1v-8.6c0-2.556-1.086-4.186-1.654-4.186H-48.709c-.568,0-1.653,1.63-1.653,4.186v8.6h-3.1v-8.6c0-4.154,2.044-7.287,4.754-7.287h17.624c2.711,0,4.755,3.133,4.755,7.287Z" fill="gray"/>
      </g>
      <g id="그룹_20035" data-name="그룹 20035">
        <rect id="사각형_3992" data-name="사각형 3992" width="10.854" height="20.156" transform="translate(-45.323 2591.051)" fill="#fff"/>
        <path id="패스_29893" data-name="패스 29893" d="M-32.919,2612.758H-46.874V2589.5h13.955Zm-10.854-3.1h7.753V2592.6h-7.753Z" fill="gray"/>
      </g>
      <g id="그룹_20036" data-name="그룹 20036">
        <path id="패스_29894" data-name="패스 29894" d="M-43.514,2564.174a13.188,13.188,0,0,1-12.921,13.438,13.188,13.188,0,0,1-12.921-13.438,13.187,13.187,0,0,1,12.921-13.438A13.187,13.187,0,0,1-43.514,2564.174Z" fill="#ccc"/>
        <path id="패스_29895" data-name="패스 29895" d="M-56.435,2579.162a14.754,14.754,0,0,1-14.472-14.988,14.754,14.754,0,0,1,14.472-14.988,14.753,14.753,0,0,1,14.471,14.988A14.754,14.754,0,0,1-56.435,2579.162Zm0-26.875a11.65,11.65,0,0,0-11.371,11.887,11.65,11.65,0,0,0,11.371,11.887,11.65,11.65,0,0,0,11.37-11.887A11.65,11.65,0,0,0-56.435,2552.287Z" fill="gray"/>
      </g>
      <g id="그룹_20037" data-name="그룹 20037">
        <path id="패스_29896" data-name="패스 29896" d="M-51.267,2578.832a8.439,8.439,0,0,1-8.269,8.6,8.44,8.44,0,0,1-8.27-8.6,8.44,8.44,0,0,1,8.27-8.6A8.439,8.439,0,0,1-51.267,2578.832Z" fill="#ccc"/>
        <path id="패스_29897" data-name="패스 29897" d="M-59.536,2588.982a10,10,0,0,1-9.82-10.15,10,10,0,0,1,9.82-10.151,10,10,0,0,1,9.82,10.151A10,10,0,0,1-59.536,2588.982Zm0-17.2a6.9,6.9,0,0,0-6.719,7.05,6.9,6.9,0,0,0,6.719,7.049,6.9,6.9,0,0,0,6.719-7.049A6.9,6.9,0,0,0-59.536,2571.782Z" fill="gray"/>
      </g>
      <g id="그룹_20038" data-name="그룹 20038">
        <path id="패스_29898" data-name="패스 29898" d="M-49.716,2572.113a8.44,8.44,0,0,1-8.27,8.6,8.439,8.439,0,0,1-8.269-8.6,8.439,8.439,0,0,1,8.269-8.6A8.44,8.44,0,0,1-49.716,2572.113Z" fill="#fff"/>
        <path id="패스_29899" data-name="패스 29899" d="M-57.986,2582.263a10,10,0,0,1-9.82-10.15,10,10,0,0,1,9.82-10.151,10,10,0,0,1,9.82,10.151A10,10,0,0,1-57.986,2582.263Zm0-17.2a6.9,6.9,0,0,0-6.719,7.05,6.9,6.9,0,0,0,6.719,7.049,6.9,6.9,0,0,0,6.719-7.049A6.9,6.9,0,0,0-57.986,2565.063Z" fill="gray"/>
      </g>
      <g id="그룹_20039" data-name="그룹 20039">
        <path id="패스_29900" data-name="패스 29900" d="M-17.156,2578.832a8.439,8.439,0,0,1-8.269,8.6,8.44,8.44,0,0,1-8.27-8.6,8.44,8.44,0,0,1,8.27-8.6A8.439,8.439,0,0,1-17.156,2578.832Z" fill="#ccc"/>
        <path id="패스_29901" data-name="패스 29901" d="M-25.425,2588.982a10,10,0,0,1-9.82-10.15,10,10,0,0,1,9.82-10.151,10,10,0,0,1,9.82,10.151A10,10,0,0,1-25.425,2588.982Zm0-17.2a6.9,6.9,0,0,0-6.719,7.05,6.9,6.9,0,0,0,6.719,7.049,6.9,6.9,0,0,0,6.719-7.049A6.9,6.9,0,0,0-25.425,2571.782Z" fill="gray"/>
      </g>
      <g id="그룹_20040" data-name="그룹 20040">
        <path id="패스_29902" data-name="패스 29902" d="M-24.439,2580.123a18.436,18.436,0,0,1-18.436,18.436h0a18.436,18.436,0,0,1-18.436-18.436v-14.749a18.436,18.436,0,0,1,18.436-18.435h0a18.436,18.436,0,0,1,18.436,18.435Z" fill="#fff"/>
        <path id="패스_29903" data-name="패스 29903" d="M-42.875,2600.11a20.009,20.009,0,0,1-19.986-19.987v-14.749a20.008,20.008,0,0,1,19.986-19.985,20.009,20.009,0,0,1,19.987,19.985v14.749A20.01,20.01,0,0,1-42.875,2600.11Zm0-51.62a16.9,16.9,0,0,0-16.885,16.884v14.749a16.9,16.9,0,0,0,16.885,16.886,16.905,16.905,0,0,0,16.886-16.886v-14.749A16.9,16.9,0,0,0-42.875,2548.49Z" fill="gray"/>
      </g>
      <g id="그룹_20041" data-name="그룹 20041">
        <path id="패스_29904" data-name="패스 29904" d="M-26.213,2551.88l13.134,13.134-2.376,2.376a18.607,18.607,0,0,1-26.313,0l-16.418-16.419A23.291,23.291,0,0,1-26.213,2551.88Z" fill="#ccc"/>
        <path id="패스_29905" data-name="패스 29905" d="M-28.612,2574.389a20.024,20.024,0,0,1-14.252-5.9l-17.578-17.578,1.223-1.093a24.789,24.789,0,0,1,16.54-6.306,24.675,24.675,0,0,1,17.562,7.275l14.231,14.23-3.473,3.472A20.025,20.025,0,0,1-28.612,2574.389Zm-27.274-23.31,15.215,15.214a16.939,16.939,0,0,0,12.059,5,16.94,16.94,0,0,0,12.06-5l1.28-1.279-12.037-12.038a21.6,21.6,0,0,0-15.37-6.366A21.7,21.7,0,0,0-55.886,2551.079Z" fill="gray"/>
      </g>
      <g id="그룹_20042" data-name="그룹 20042">
        <path id="패스_29906" data-name="패스 29906" d="M-44.93,2573.355h-3.1a2.98,2.98,0,0,0-2.977-2.978,2.981,2.981,0,0,0-2.978,2.978h-3.1a6.086,6.086,0,0,1,6.079-6.079A6.086,6.086,0,0,1-44.93,2573.355Z" fill="gray"/>
      </g>
      <g id="그룹_20043" data-name="그룹 20043">
        <rect id="사각형_3993" data-name="사각형 3993" width="6.977" height="3.101" transform="translate(-46.874 2584.847)" fill="gray"/>
      </g>
      <g id="그룹_20044" data-name="그룹 20044">
        <rect id="사각형_3994" data-name="사각형 3994" width="8.528" height="3.101" transform="translate(-44.16 2614.567)" fill="gray"/>
      </g>
      <g id="그룹_20045" data-name="그룹 20045">
        <rect id="사각형_3995" data-name="사각형 3995" width="3.101" height="4.524" transform="translate(-41.447 2615.469)" fill="gray"/>
      </g>
    </g>
    <g id="그룹_20059" data-name="그룹 20059">
      <g id="그룹_20047" data-name="그룹 20047">
        <path id="패스_29907" data-name="패스 29907" d="M-130.214,2620.51v-10.381c0-4.588,4.2-8.306,9.385-8.306h41.184c5.183,0,9.382,3.718,9.382,8.306v10.381" fill="#fff"/>
        <path id="패스_29908" data-name="패스 29908" d="M-68.712,2620.51h-3.1v-10.381c0-3.725-3.514-6.755-7.832-6.755h-41.184c-4.32,0-7.835,3.03-7.835,6.755v10.381h-3.1v-10.381c0-5.435,4.906-9.856,10.936-9.856h41.184c6.028,0,10.933,4.421,10.933,9.856Z" fill="gray"/>
      </g>
      <g id="그룹_20048" data-name="그룹 20048">
        <path id="패스_29909" data-name="패스 29909" d="M-92.538,2601.909l-7.884,4.552-7.884-4.552v-17.214h15.768Z" fill="#fff"/>
        <path id="패스_29910" data-name="패스 29910" d="M-100.423,2608.252l-9.434-5.447v-19.661h18.87V2602.8Zm-6.333-7.238,6.333,3.657,6.334-3.657v-14.769h-12.668Z" fill="gray"/>
      </g>
      <path id="패스_29911" data-name="패스 29911" d="M-109.66,2614.334l9.2-6.084-8.478-4.9Z" fill="#ccc"/>
      <path id="패스_29912" data-name="패스 29912" d="M-91.2,2614.335l-9.2-6.084,8.478-4.9Z" fill="#ccc"/>
      <g id="그룹_20049" data-name="그룹 20049">
        <rect id="사각형_3996" data-name="사각형 3996" width="7.584" height="13.954" rx="3.64" transform="translate(-85.115 2568.591)" fill="#fff"/>
        <path id="패스_29913" data-name="패스 29913" d="M-81.17,2584.1h-.305a5.2,5.2,0,0,1-5.19-5.191v-6.674a5.2,5.2,0,0,1,5.19-5.191h.305a5.2,5.2,0,0,1,5.19,5.191v6.674A5.2,5.2,0,0,1-81.17,2584.1Zm-.305-13.955a2.092,2.092,0,0,0-2.089,2.09v6.674a2.092,2.092,0,0,0,2.089,2.09h.305a2.093,2.093,0,0,0,2.089-2.09v-6.674a2.093,2.093,0,0,0-2.089-2.09Z" fill="gray"/>
      </g>
      <g id="그룹_20050" data-name="그룹 20050">
        <path id="패스_29914" data-name="패스 29914" d="M-81.8,2579.518a18.436,18.436,0,0,1-18.436,18.436h0a18.436,18.436,0,0,1-18.437-18.436V2564.77a18.436,18.436,0,0,1,18.437-18.436h0A18.436,18.436,0,0,1-81.8,2564.77Z" fill="#fff"/>
        <path id="패스_29915" data-name="패스 29915" d="M-100.238,2599.5a20.009,20.009,0,0,1-19.987-19.987V2564.77a20.009,20.009,0,0,1,19.987-19.986,20.009,20.009,0,0,1,19.987,19.986v14.748A20.009,20.009,0,0,1-100.238,2599.5Zm0-51.62a16.9,16.9,0,0,0-16.886,16.885v14.748a16.905,16.905,0,0,0,16.886,16.886,16.905,16.905,0,0,0,16.886-16.886V2564.77A16.9,16.9,0,0,0-100.238,2547.885Z" fill="gray"/>
      </g>
      <g id="그룹_20051" data-name="그룹 20051">
        <path id="패스_29916" data-name="패스 29916" d="M-106.822,2545.333a8.519,8.519,0,0,0-7.13,3.857h-2.928a6.61,6.61,0,0,0-6.61,6.609v31.786h4.652V2565.49a4.652,4.652,0,0,1,4.651-4.652H-84.34a8.527,8.527,0,0,0,8.528-8.527v-6.978Z" fill="#ccc"/>
        <path id="패스_29917" data-name="패스 29917" d="M-117.288,2589.135h-7.752V2555.8a8.168,8.168,0,0,1,8.16-8.159h2.135a10.047,10.047,0,0,1,7.923-3.857h32.561v8.528a10.09,10.09,0,0,1-10.079,10.078h-29.847a3.1,3.1,0,0,0-3.1,3.1Zm-4.651-3.1h1.55V2565.49a6.209,6.209,0,0,1,6.2-6.2H-84.34a6.985,6.985,0,0,0,6.978-6.977v-5.427h-29.46a6.965,6.965,0,0,0-5.834,3.157l-.459.7h-3.765a5.064,5.064,0,0,0-5.059,5.058Z" fill="gray"/>
      </g>
      <g id="그룹_20052" data-name="그룹 20052">
        <path id="패스_29918" data-name="패스 29918" d="M-118.675,2568.629c-1.83.19-4.815,1.72-4.815,3.6v6.674c0,1.882,2.985,3.412,4.815,3.6Z" fill="#fff"/>
        <path id="패스_29919" data-name="패스 29919" d="M-117.124,2584.227l-1.711-.178c-2.536-.263-6.205-2.247-6.205-5.144v-6.674c0-2.9,3.669-4.88,6.205-5.144l1.711-.178Zm-3.1-13.524c-.947.464-1.714,1.118-1.714,1.528v6.674c0,.41.767,1.064,1.714,1.528Z" fill="gray"/>
      </g>
      <g id="그룹_20053" data-name="그룹 20053">
        <path id="패스_29920" data-name="패스 29920" d="M-104.136,2586.548a4.674,4.674,0,0,0,3.972,2.54,4.674,4.674,0,0,0,3.973-2.54" fill="#fff"/>
        <path id="패스_29921" data-name="패스 29921" d="M-100.164,2590.639a6.215,6.215,0,0,1-5.316-3.317l2.687-1.548a3.126,3.126,0,0,0,2.629,1.764,3.127,3.127,0,0,0,2.63-1.765l2.687,1.549A6.218,6.218,0,0,1-100.164,2590.639Z" fill="gray"/>
      </g>
      <g id="그룹_20054" data-name="그룹 20054">
        <path id="패스_29922" data-name="패스 29922" d="M-110.623,2580.819a9.191,9.191,0,0,1-9.18-9.181v-4.509h18.36v4.509A9.191,9.191,0,0,1-110.623,2580.819Zm-6.079-10.589v1.408a6.086,6.086,0,0,0,6.079,6.08,6.086,6.086,0,0,0,6.079-6.08v-1.408Z" fill="gray"/>
      </g>
      <g id="그룹_20055" data-name="그룹 20055">
        <path id="패스_29923" data-name="패스 29923" d="M-89.446,2580.819a9.191,9.191,0,0,1-9.18-9.181v-4.509h18.36v4.509A9.191,9.191,0,0,1-89.446,2580.819Zm-6.079-10.589v1.408a6.086,6.086,0,0,0,6.079,6.08,6.086,6.086,0,0,0,6.079-6.08v-1.408Z" fill="gray"/>
      </g>
      <g id="그룹_20056" data-name="그룹 20056">
        <rect id="사각형_3997" data-name="사각형 3997" width="3.36" height="3.101" transform="translate(-110.759 2571.257)" fill="gray"/>
      </g>
      <g id="그룹_20057" data-name="그룹 20057">
        <rect id="사각형_3998" data-name="사각형 3998" width="3.36" height="3.101" transform="translate(-92.153 2571.257)" fill="gray"/>
      </g>
      <g id="그룹_20058" data-name="그룹 20058">
        <rect id="사각형_3999" data-name="사각형 3999" width="6.977" height="3.101" transform="translate(-103.007 2567.129)" fill="gray"/>
      </g>
    </g>
  </g>
</svg>
