<svg xmlns="http://www.w3.org/2000/svg" width="65.653" height="76.613" viewBox="0 0 65.653 76.613">
  <g id="그룹_18773" data-name="그룹 18773" transform="translate(1451.615 20.786)">
    <g id="그룹_18757" data-name="그룹 18757">
      <path id="패스_29160" data-name="패스 29160" d="M-1401.1,6.211a13.249,13.249,0,0,1-13.249,13.246,13.247,13.247,0,0,1-13.245-13.246,13.246,13.246,0,0,1,13.245-13.244A13.248,13.248,0,0,1-1401.1,6.211Z" fill="#f8c44f"/>
      <g id="그룹_18756" data-name="그룹 18756">
        <g id="그룹_18754" data-name="그룹 18754">
          <path id="패스_29161" data-name="패스 29161" d="M-1412.82,11.535h-3.1V3.16l-1.533,1.591-2.233-2.152,4.2-4.358,2.667,1.076Z" fill="#282d33"/>
        </g>
        <g id="그룹_18755" data-name="그룹 18755">
          <rect id="사각형_3601" data-name="사각형 3601" width="5.699" height="3.101" transform="translate(-1417.253 9.943)" fill="#282d33"/>
        </g>
      </g>
    </g>
    <g id="그룹_18759" data-name="그룹 18759">
      <g id="그룹_18758" data-name="그룹 18758">
        <path id="패스_29162" data-name="패스 29162" d="M-1393.832,55.827h-3.1v-29.1a1.548,1.548,0,0,1,.453-1.095A25.219,25.219,0,0,0-1389.063,7.7a25.415,25.415,0,0,0-25.386-25.387A25.417,25.417,0,0,0-1439.838,7.7c0,.387.014.769.03,1.153a1.557,1.557,0,0,1-.2.841l-7.366,12.759h3.573a1.55,1.55,0,0,1,1.551,1.55V34.64a5.719,5.719,0,0,0,5.71,5.715h11.505a1.551,1.551,0,0,1,1.551,1.55V55.827h-3.1V43.456h-9.955a8.824,8.824,0,0,1-8.811-8.816V25.556h-4.708a1.551,1.551,0,0,1-1.343-.775,1.551,1.551,0,0,1,0-1.551l8.484-14.7c-.01-.276-.016-.553-.016-.832a28.521,28.521,0,0,1,28.49-28.488A28.52,28.52,0,0,1-1385.962,7.7a28.29,28.29,0,0,1-7.87,19.658Z" fill="#282d33"/>
      </g>
    </g>
    <g id="그룹_18772" data-name="그룹 18772">
      <g id="그룹_18760" data-name="그룹 18760">
        <rect id="사각형_3602" data-name="사각형 3602" width="3.101" height="4.264" transform="translate(-1416.09 -13.945)" fill="#282d33"/>
      </g>
      <g id="그룹_18761" data-name="그룹 18761">
        <rect id="사각형_3603" data-name="사각형 3603" width="3.101" height="4.264" transform="matrix(0.866, -0.5, 0.5, 0.866, -1425.935, -10.372)" fill="#282d33"/>
      </g>
      <g id="그룹_18762" data-name="그룹 18762">
        <rect id="사각형_3604" data-name="사각형 3604" width="3.101" height="4.264" transform="translate(-1432.675 -2.356) rotate(-60.003)" fill="#282d33"/>
      </g>
      <g id="그룹_18763" data-name="그룹 18763">
        <rect id="사각형_3605" data-name="사각형 3605" width="4.264" height="3.101" transform="translate(-1434.503 4.855)" fill="#282d33"/>
      </g>
      <g id="그룹_18764" data-name="그룹 18764">
        <rect id="사각형_3606" data-name="사각형 3606" width="4.264" height="3.101" transform="translate(-1432.481 15.114) rotate(-29.995)" fill="#282d33"/>
      </g>
      <g id="그룹_18765" data-name="그룹 18765">
        <rect id="사각형_3607" data-name="사각형 3607" width="4.264" height="3.101" transform="matrix(0.5, -0.866, 0.866, 0.5, -1425.601, 22.989)" fill="#282d33"/>
      </g>
      <g id="그룹_18766" data-name="그룹 18766">
        <rect id="사각형_3608" data-name="사각형 3608" width="3.101" height="4.264" transform="translate(-1415.704 22.104)" fill="#282d33"/>
      </g>
      <g id="그룹_18767" data-name="그룹 18767">
        <rect id="사각형_3609" data-name="사각형 3609" width="3.101" height="4.264" transform="matrix(0.866, -0.5, 0.5, 0.866, -1407.576, 20.654)" fill="#282d33"/>
      </g>
      <g id="그룹_18768" data-name="그룹 18768">
        <rect id="사각형_3610" data-name="사각형 3610" width="3.101" height="4.264" transform="matrix(0.5, -0.866, 0.866, 0.5, -1401.262, 15.333)" fill="#282d33"/>
      </g>
      <g id="그룹_18769" data-name="그룹 18769">
        <rect id="사각형_3611" data-name="사각형 3611" width="4.264" height="3.101" transform="translate(-1398.455 4.468)" fill="#282d33"/>
      </g>
      <g id="그룹_18770" data-name="그룹 18770">
        <rect id="사각형_3612" data-name="사각형 3612" width="4.264" height="3.101" transform="matrix(0.866, -0.5, 0.5, 0.866, -1401.456, -3.244)" fill="#282d33"/>
      </g>
      <g id="그룹_18771" data-name="그룹 18771">
        <rect id="사각형_3613" data-name="사각형 3613" width="4.264" height="3.102" transform="translate(-1407.912 -8.423) rotate(-60.006)" fill="#282d33"/>
      </g>
    </g>
  </g>
</svg>
