<svg xmlns="http://www.w3.org/2000/svg" width="67.705" height="76.206" viewBox="0 0 67.705 76.206">
  <g id="그룹_19491" data-name="그룹 19491" transform="translate(905.589 864.766)">
    <g id="그룹_19627" data-name="그룹 19627">
      <g id="그룹_19625" data-name="그룹 19625">
        <path id="패스_29546" data-name="패스 29546" d="M-873.787-790.774c-12.987-3.792-30.252-11.439-30.252-33.963v-29.124l8.44,1.315a22.006,22.006,0,0,0,3.368.25,26.325,26.325,0,0,0,4.818-.455c4.348-.808,8.3-2.614,10.56-4.832l5.118-5.013,5.116,5.014c2.264,2.217,6.21,4.024,10.558,4.832a26.4,26.4,0,0,0,4.819.454,22.005,22.005,0,0,0,3.368-.25l8.439-1.314v29.123c0,22.524-17.264,30.171-30.251,33.963l-2.05.6Z" fill="#fff"/>
      </g>
      <g id="그룹_19626" data-name="그룹 19626">
        <path id="패스_29547" data-name="패스 29547" d="M-871.736-788.56l-2.485-.725c-13.466-3.933-31.368-11.885-31.368-35.452v-30.935l10.229,1.594a23.162,23.162,0,0,0,7.664-.2c4.057-.754,7.7-2.4,9.758-4.416l6.2-6.075,6.2,6.076c2.054,2.012,5.7,3.663,9.756,4.416a23.253,23.253,0,0,0,7.666.2l10.228-1.592v30.933c0,23.567-17.9,31.52-31.368,35.452Zm-30.752-63.49v27.313c0,21.482,16.628,28.823,29.136,32.475l1.616.472,1.615-.472c26.116-7.626,29.136-22.186,29.136-32.475v-27.312l-6.651,1.035a26.333,26.333,0,0,1-8.708-.211c-4.637-.862-8.884-2.824-11.359-5.25l-4.032-3.95-4.034,3.95c-2.475,2.424-6.722,4.386-11.36,5.249a26.305,26.305,0,0,1-8.708.212Z" fill="gray"/>
      </g>
    </g>
    <g id="그룹_19628" data-name="그룹 19628">
      <path id="패스_29548" data-name="패스 29548" d="M-872.482-795.238c-23.847-6.965-26.905-19.423-26.905-29.5v-23.692l3.072.479a26.649,26.649,0,0,0,4.084.306,31.079,31.079,0,0,0,5.669-.533c5.3-.986,10.022-3.2,12.963-6.082l1.863-1.825,1.862,1.825c2.941,2.881,7.666,5.1,12.963,6.083a31.156,31.156,0,0,0,5.669.532,26.648,26.648,0,0,0,4.084-.306l3.072-.478v23.691c0,19.182-14.378,25.841-26.9,29.5l-.746.218Z" fill="#ccc"/>
    </g>
    <g id="그룹_19629" data-name="그룹 19629">
      <path id="패스_29549" data-name="패스 29549" d="M-852.6-824.736A19.141,19.141,0,0,1-871.736-805.6a19.141,19.141,0,0,1-19.141-19.139,19.141,19.141,0,0,1,19.141-19.14A19.141,19.141,0,0,1-852.6-824.736Z" fill="#fff"/>
    </g>
    <g id="그룹_19632" data-name="그룹 19632">
      <g id="그룹_19630" data-name="그룹 19630">
        <path id="패스_29550" data-name="패스 29550" d="M-857.248-824.736a14.489,14.489,0,0,1-14.488,14.488,14.489,14.489,0,0,1-14.489-14.488,14.489,14.489,0,0,1,14.489-14.489A14.49,14.49,0,0,1-857.248-824.736Z" fill="#fff"/>
      </g>
      <g id="그룹_19631" data-name="그룹 19631">
        <path id="패스_29551" data-name="패스 29551" d="M-871.736-808.7a16.056,16.056,0,0,1-16.04-16.038,16.057,16.057,0,0,1,16.04-16.039A16.057,16.057,0,0,1-855.7-824.736,16.056,16.056,0,0,1-871.736-808.7Zm0-28.976a12.953,12.953,0,0,0-12.939,12.938A12.952,12.952,0,0,0-871.736-811.8,12.951,12.951,0,0,0-858.8-824.736,12.952,12.952,0,0,0-871.736-837.674Z" fill="gray"/>
      </g>
    </g>
    <g id="그룹_19635" data-name="그룹 19635">
      <g id="그룹_19633" data-name="그룹 19633">
        <path id="패스_29552" data-name="패스 29552" d="M-867.373-818.321H-870.4l-1.184-5.336-1.184,5.336H-875.8l-2.7-12.16,3.027-.672,1.184,5.336,1.184-5.336h3.027l1.184,5.337,1.184-5.337,3.027.672Z" fill="gray"/>
      </g>
      <g id="그룹_19634" data-name="그룹 19634">
        <rect id="사각형_3894" data-name="사각형 3894" width="15.126" height="3.101" transform="translate(-879.147 -826.287)" fill="gray"/>
      </g>
    </g>
    <g id="그룹_19639" data-name="그룹 19639">
      <g id="그룹_19638" data-name="그룹 19638">
        <g id="그룹_19636" data-name="그룹 19636">
          <line id="선_244" data-name="선 244" y2="9.294" transform="translate(-871.584 -848.325)" fill="#fff"/>
        </g>
        <g id="그룹_19637" data-name="그룹 19637">
          <rect id="사각형_3895" data-name="사각형 3895" width="3.101" height="9.294" transform="translate(-873.135 -848.325)" fill="gray"/>
        </g>
      </g>
    </g>
    <g id="그룹_19643" data-name="그룹 19643">
      <g id="그룹_19642" data-name="그룹 19642">
        <g id="그룹_19640" data-name="그룹 19640">
          <line id="선_245" data-name="선 245" y2="9.294" transform="translate(-871.584 -810.337)" fill="#fff"/>
        </g>
        <g id="그룹_19641" data-name="그룹 19641">
          <rect id="사각형_3896" data-name="사각형 3896" width="3.101" height="9.294" transform="translate(-873.135 -810.337)" fill="gray"/>
        </g>
      </g>
    </g>
  </g>
</svg>
