<svg xmlns="http://www.w3.org/2000/svg" width="76.815" height="57.488" viewBox="0 0 76.815 57.488">
  <g id="그룹_18909" data-name="그룹 18909" transform="translate(1091.553 1040.486)">
    <g id="그룹_18903" data-name="그룹 18903">
      <g id="그룹_18882" data-name="그룹 18882">
        <path id="패스_29208" data-name="패스 29208" d="M-1062.2-1023.971c.187,0,.12-.295.384-.217.359.141.56.452,1.06.432.327-.256-.46-.48-.194-.648.144.06.241.165.39.216.071-.372-.117-.453-.2-.646.8-.044.535-1.128.389-1.721a1.967,1.967,0,0,1,.866-.1c-.025-.474-.517-.429-.773-.647.3.049.216-.328.581-.219.071-.319-.169-.313-.093-.642.342.062.237-.377.579-.322.238-.086.825.21.769-.214.092-.392-.416-.109-.482-.33-.228-.025-.18-.367-.485-.321-.416-.058-.869.4-1.062.222.063-.542.855-.274.966-.752-.2-.311-.627-.377-1.154-.326-.32-.121-.7-.282-.874,0-.08-.158-.309-.15-.484-.216-.38.284-1.334-.05-1.729.216-.444.015-.986-.08-1.167.22,0,.23.27.693.1.751a16.219,16.219,0,0,1-1.739-.115c-.967.152-1.413.859-2.415.973-.09.391.44.092.387.429-.28.262-.8.259-1.062.539-.237-.14-.546-.115-.676.322.307-.094.3.172.482.213a.242.242,0,0,1,.482,0c.245-.061.659-.481.684.111-.412.046-1-.106-1.263.108.094.4.453.495.779.645.294.076.18-.3.484-.22a1.325,1.325,0,0,0,1.151.327,1.335,1.335,0,0,0,.2.966,1.812,1.812,0,0,0-.1.752c.39.207.449-.5.676-.1.054.381-.286.325-.573.321.074.48.728.33.863.755a5.068,5.068,0,0,0-.678.535c.273.136-.3.227-.185.538.677.513.148,1.747.666,2.475h.68c.276.008.169.453.483.424.1-.214.165-.457.391-.535-.121-.813.473-.829.381-1.616.251,0,.137-.416.387-.428.366.218.366-.259.773,0a3.5,3.5,0,0,1,.484-.427c.462-.13.67-.546,1.159-.645.032-.39.842-.484.574-.861C-1061.532-1023.513-1061.939-1023.94-1062.2-1023.971Zm.967-.433c-.263-.19,0-.71.283-.645C-1061-1024.783-1061.211-1024.692-1061.236-1024.4Zm.673-5.161c-.012.323-.221.4-.39.533a1.925,1.925,0,0,0-1.25-.206C-1061.881-1029.687-1060.978-1029.493-1060.563-1029.565Z" fill="#ccc"/>
        <path id="패스_29209" data-name="패스 29209" d="M-1074.177-1027.951v.646c.3-.075.354.111.576.111.046-.495.627-.952.972-.757.147.454-.509.015-.487.322.293.163-.336.192-.291.435.255-.068.347.039.291.317-.224.005-.279-.185-.576-.1.013.3-.326.212-.194.648.579-.086.989-.152,1.257.32-.766.179-1.263-.429-1.741-.22-.077.524.585.214.579.655.731-.122,1.706.473,1.933-.328.247.031.416-.041.381-.327.073-.291-.453.08-.381-.209h.678c-.006-.574.586-.5.482-1.187.5-.01.544-.533,1.164-.431a.657.657,0,0,1,.67-.428c.121-.268-.217-.521,0-.544.4-.2.994.115,1.155-.533,0-.176-.271-.054-.284-.215-1.586.246-3.733-.313-5.414.427-.125.651.42.548.481.973-.621.052-.429-.805-1.152-.652-.031.154-.142.209-.1.439-.154.008-.332-.015-.29.213C-1074.554-1028.039-1074.22-1028.154-1074.177-1027.951Zm2.025,1.938c.058.051-.063.138-.1.107C-1072.3-1025.962-1072.177-1026.05-1072.152-1026.013Z" fill="#ccc"/>
        <path id="패스_29210" data-name="패스 29210" d="M-1050.434-1028.166c.056-.3.511-.162.39-.639a16.4,16.4,0,0,0-2.511-.227.694.694,0,0,0,.1.439A3.654,3.654,0,0,0-1050.434-1028.166Z" fill="#ccc"/>
        <path id="패스_29211" data-name="패스 29211" d="M-1054.192-1027.629c-.014.271-.178.336,0,.539.393-.022.412-.477.868-.434-.028.483-.481.481-.485.969a.7.7,0,0,0,.68.222c-.049.33.207.343.477.32.09-.406.175-.814.3-1.181.255.28.4.7,1.057.536.086-.816-.507-.869-.771-1.293-.026.259-.256-.121-.389-.109a.441.441,0,0,1-.476-.211c.226-.287-.078-.633-.483-.534-.286.169.149.552-.1.639-.209-.511-1.127-1.012-1.163,0C-1054.632-1027.854-1054.258-1027.907-1054.192-1027.629Z" fill="#ccc"/>
        <path id="패스_29212" data-name="패스 29212" d="M-1044.446-1028.38c0-.677-.9-.446-.865.109C-1044.982-1027.94-1044.8-1028.422-1044.446-1028.38Z" fill="#ccc"/>
        <path id="패스_29213" data-name="패스 29213" d="M-1039.033-1027.734c.754-.142,1.552.376,1.731-.326a1.4,1.4,0,0,0-1.634-.32C-1039.153-1028.365-1038.98-1027.928-1039.033-1027.734Z" fill="#ccc"/>
        <path id="패스_29214" data-name="패스 29214" d="M-1019.535-1021.282c.226-.037.178-.376.477-.323.508.008.435.664,1.058.533.129-.193-.077-.544.107-.854-.261-.133-.632-.7-.875-.217a.748.748,0,0,0-.1-.538c-.522-.21-.8-.688-1.633-.535-.114-.2-.381-.236-.486-.434-.629.093-.765-.37-1.453-.216-.127.311.264.55,0,.65-.276-.046-.227-.466-.479-.54-.284.333-.8.026-1.353.209-.352-.246-.327-.927-1.056-.745-.141.025-.041.321-.2.321a10.659,10.659,0,0,1-1.162-.647c-.04.1-.08.194-.19.214.122-.42-.23-.317-.482-.321.236-.252-.113-.243-.2-.429-.459.186-.43-.066-.869-.107-.03.14-.24.089-.388.107-.091.2.295.357,0,.429-.824-.144-1.875.191-2.6,0-.245-.066-.34-.4-.584-.324a1.655,1.655,0,0,1-1.058-.212c-.116-.041-.264.025-.383,0-.24-.05-.423-.346-.965-.218.029-.277.284-.324.284-.645-.134-.309-.445-.433-.574-.753a2.97,2.97,0,0,1-1.162.111c-.237-.092-.2-.49-.577-.428-.231.1-.308.367-.288.752-.485-.178-.315.377-.681.318-.185-.039-.073-.415-.386-.318a1.247,1.247,0,0,1-1.151.429c-.168.134-.255.361-.578.323-.136.132-.049.524-.3.536-.2.062-.67-.173-.577.214,0,.4.564.157.48.648-.353-.116-.449-.505-.96-.433,0,.284.051.633-.2.645a1,1,0,0,1-.1-.645c-.378-.087-.157.47-.579.321-.151-.19-.13-.568-.582-.43a9.447,9.447,0,0,1-.963,1.184c-.628.054-.576-.2-1.252-.216-.158.53.5.161.381.65a13.549,13.549,0,0,0-1.448,0c-.435.193-.67.609-1.159.75v-.647c-.237.016-.463.018-.574-.1.023.6,0,1.141-.577,1.073.025.4-.351.32-.579.426-.246.14.164.326-.106.435-.56.124-.594-.781-.569-.968a3.281,3.281,0,0,1,1.254.107c.253-.678-.548-1.022-1.165-1.073a.894.894,0,0,0-.771-.434,1.846,1.846,0,0,0-.477-.642h-.874c-.266.2-.506.437-.769.642-.046-.16-.125.042-.3,0-.342.405-.78.71-1.152,1.076a2.523,2.523,0,0,1-.581,1.179c-.014-.124-.179-.089-.284-.1v.426c-.614.04-.686.682-.874,1.185a1.89,1.89,0,0,1,.188,1.185c.1.291.612.112.777.322-.208.315-.386.434-.386.752.208-.051.178.153.187.324a6.348,6.348,0,0,0-.862.209c-.088.192-.272.277-.2.645-.547-.181-.216.619-.669.541.01.127-.029.189-.1.214-.426-.05-.509.289-.775.432-.232.058-.492.091-.472.427.122.144.414.112.667.112-.039.486.453.362.39.86-.1.143-.1.4-.29.427-.447-.255-.855.1-1.453,0-.1.355.218,1.169-.187,1.185.072.311.288.464.187.963.454-.106.589.144.871.218.367-.208.413-.208.775,0a2.27,2.27,0,0,0,.479-1.506c.424-.139.356-.827.875-.86.4.268.574-.078.965-.107a2.208,2.208,0,0,0,0,1.613c.609-.059.231-.609.289-1.184-.1,0-.125-.186,0-.215v.215c.2.033.188.288.29.43a.808.808,0,0,1,.864.645c-.017.234-.245.234-.481.215-.014.379.341.338.481.536-.042-.474.266-.569.483-.751.054-.243-.179-.152-.193-.321.177-.338.326.358.488,0-.264-.571-1.463-.664-1.158-1.5.29.489.834.72,1.158,1.179.054.085.137.336.19.433.076.134.236.255.2.427v.643c.126.151.414.107.671.111.165-.371-.174-.9.1-1.29h.282c-.1.418-.011.4-.09.855.216-.039.136.311.3.435a1.208,1.208,0,0,0,1.248,0c.293.157-.249.556.195.54.4.078.015-.7.49-.54v.642c-.291.188-.093.91-.49.965a7.878,7.878,0,0,0-2.511-.424c-.28.082-.231.534-.483.647-.445-.511-1.322-.536-1.734-1.08.073-.371-.111-.449-.2-.645.226-.029.221-.286.094-.429a3.059,3.059,0,0,0-1.442.324,2.245,2.245,0,0,0-1.842.433.531.531,0,0,0-.574-.328c-.077.377-.425.456-.674.645-.258.505-.165,1.17-.384,1.612-.149.288-.662.577-.873.865a2.432,2.432,0,0,1-.487,1.4v2.791a3.888,3.888,0,0,1,.781,1.507c.445.29.74.752,1.348.861a4.377,4.377,0,0,1,1.351-.109c.2-.176.19-.577.582-.544.179.02.057.368.192.437.448-.07.619.171.966.216.164-.1.247-.3.579-.216.1.826-.208,1.205-.2,1.937.277.55.749.966.582,1.715a4.65,4.65,0,0,1,.391,1.506c-.247.49-.185,1.3-.391,1.829a3.5,3.5,0,0,1,.874,1.719v.967c.424.555.419,1.609.865,2.153.932-.076,1.395-.659,2.219-.861a2.09,2.09,0,0,1,.87-1.292c-.048-.411.173-.526.1-.967.174-.1.242-.3.581-.212a2.584,2.584,0,0,1,1.159-2.471,10.551,10.551,0,0,0,0-3.012,5.991,5.991,0,0,0,.479-1.4,7.785,7.785,0,0,1,.68-.541c.458-.741.872-1.534,1.351-2.25.072-.406.2-.956-.1-1.189-.419-.062-.39.348-.773.321h-.869c-.049-.732-.531-.988-.871-1.4.085-.705-.572-.579-.386-1.4-.168-.239-.464-.344-.579-.645.093-.324-.133-.83,0-.855.232.181.488.748.388.968.4.449.671,1.039,1.057,1.5.226.447.2,1.118.681,1.5a9.89,9.89,0,0,1,1.926-.86c.136-.065.02-.416.2-.43.409-.076.588-.414.96-.538-.062-.469.281-.474.3-.853-.169-.391-.667-.412-.583-1.084a.808.808,0,0,0-.767.21c-.084-.4-.44-.512-.393-1.073-.315.032-.282-.322-.482-.425.142-.055.246-.155.39-.214.536.369.366,1.517,1.348,1.395.045.21.274.2.192.542.469.052.535-.336.972-.322.091.066.1.242.285.208.671-.1.84.361,1.254.539-.158-.036-.183.086-.191.224.1.2.443.141.583.313-.047.338.173.383.093.757a4.556,4.556,0,0,1,.578,1.4,1.649,1.649,0,0,1,.488.753v.651c.116.142.415.1.67.1a5.719,5.719,0,0,0,.382-2.04h.387v-.432c.367.156.19-.293.484-.213-.025-.5.352-.544.483-.859a1.762,1.762,0,0,1,.87-.425c.22.288.226.829.583.961.039.257-.178.234-.107.536.116.349.768.081.972.324-.125.228.048.314-.091.645a.8.8,0,0,1,.477.648c-.033.2-.27.191-.193.537.034.322.3.38.193.854a10.789,10.789,0,0,0,1.448,1.3c.024-.713-.453-.859-.482-1.513a1.932,1.932,0,0,1-.675-.75c.043-.346-.127-.921.187-.966.214.3.363.674.781.748a.71.71,0,0,1,.092.433c.938-.136,1.165-1.067,1.064-2.364-.126-.111-.357-.107-.482-.214.119-.476-.466-.444-.194-.752s.249.352.676.212c.067-.459.555-.455,1.061-.431a4.972,4.972,0,0,0,.863-1.611c.163.033.172-.1.3-.1.15-.439-.025-1.245.281-1.507-.2-.1-.281-.317-.281-.645-.174-.136-.384-.226-.39-.542-.042-.253.177-.236.09-.537.2.037.307-.017.3-.217.266-.138-.442-.64.19-.64.112.34.444.432.576.751a.686.686,0,0,0,.486.864c.581-.47-.023-1.653.286-2.475a2.512,2.512,0,0,1,.777-.431,4.946,4.946,0,0,1,.769-1.4c.129-.863-.219-1.755,0-2.363-.13.612.226.683.288,1.075.022.664.048,1.31.49,1.5.177-.188-.084-.273,0-.642.259-.012.185.178.386,0,.013-.341-.263-.364-.2-.754-.341-.078-.439-.443-.578-.751-.033-.39.034-.9-.288-.971-.2.029-.022.48-.282.435-.165-.79-.824.492-1.066-.324a1.382,1.382,0,0,1,.381-.539c.116-.339.077-.848.385-.973.229.269.184-.153.485-.1a4.551,4.551,0,0,0,1.448.219c-.035.187.075.2.19.212.13-.146.422-.106.679-.106.045-.343-.17-.38-.1-.749.2-.033.188-.288.386-.326.2.038.193.293.38.326-.034-.243.294-.6.392-.326a6.5,6.5,0,0,0-.868,2.147c.062.289.275.412.386.648.042.412.115.808.384.964.245-.268.379-.651.679-.86-.091-.533.31-.453.1-.854.029-.222.263-.211.29-.431-.144-.13-.435-.093-.386-.433.09-.946.724-.74,1.442-.645.141-.162.131-.5.3-.643.559-.045.989-.342,1.347-.323C-1019.058-1020.888-1019.535-1020.818-1019.535-1021.282Zm-32.436,1.181a1.283,1.283,0,0,0,.769.433v1.074c-.214-.048.05-.635-.382-.431-.211.366-.082,1.127-.387,1.4-.324.033-.554-.051-.778,0-.264.062-.325.313-.575.324.03-.134-.279-.369-.289-.11a.163.163,0,1,1,0-.325,1.655,1.655,0,0,1-.386-1.074c.484.047.3,1.517,1.16,1.074.216-.433.362-.952.573-1.4a2.5,2.5,0,0,0-.193-.639c.059-1.015.744-1.324,1.063-2.044.118-.015.174.02.194.106C-1051.278-1020.979-1052.062-1021.026-1051.971-1020.1Zm1.058.754c0-.329.339-.263.585-.321C-1050.323-1019.339-1050.623-1019.351-1050.913-1019.347Zm.774-4.2c-.051-.049.07-.135.1-.1C-1049.99-1023.59-1050.111-1023.513-1050.139-1023.547Zm1.744,15.489c-.057-.06.059-.145.091-.111C-1048.256-1008.118-1048.375-1008.026-1048.4-1008.058Zm.091-13.337c-.048-.05.061-.132.095-.1C-1048.161-1021.443-1048.28-1021.362-1048.3-1021.4Zm7.142-1.718c-.184-.046-.411-.038-.382-.322-.293-.021.091-.449,0,0C-1041.476-1023.262-1041.074-1023.46-1041.162-1023.113Zm5.978-1.936c-.042-.047.076-.137.107-.105C-1035.024-1025.1-1035.154-1025.018-1035.184-1025.049Zm.3-.105c-.053-.057.072-.135.091-.107C-1034.744-1025.209-1034.854-1025.125-1034.884-1025.154Zm.285-.219c-.048-.053.073-.131.1-.106C-1034.449-1025.426-1034.569-1025.343-1034.6-1025.373Zm4.342,13.548c.14-.2.217-.474.578-.427.011.171-.042.408.1.427C-1029.721-1011.506-1030-1011.916-1030.257-1011.825Z" fill="#ccc"/>
        <path id="패스_29215" data-name="패스 29215" d="M-1064.527-999.141c-.165-.2-.279.047-.478.109-.154-.367-.527-.491-.87-.648h-.676c-.175-.311-.817-.094-.869-.531-.255-.008-.57.057-.573-.219.272-.5-.286-1.871-1.16-1.391a1.257,1.257,0,0,1-.585-.974c-.5-.159-.859-.474-1.352-.641-.126.033-.146.188-.284.208-.133-.383-.606-.4-.678-.856-.308-.094-.2.275-.386.322-.228-.076-.261-.356-.488-.428-.087.188-.174.373-.481.321-.14.443-.527.621-.77.97.027-.354-.11-.521-.387-.537-.25.113-.355.385-.676.426-.23-.523.1-1.024,0-1.719-.173-.374-.82-.232-1.157-.43.1-.467.376-.728.288-1.391a2.5,2.5,0,0,1-.959,0c-.181.227-.092.75-.392.853-1.29.078-.485-1.846-.769-2.691.343-.087.541-.321.863-.429.527-.051.659.348,1.162.32-.005-.144-.021-.3.095-.32.471.025,1.086-.132,1.16.32-.044.628.213.921.675.976a2.131,2.131,0,0,1,0-1.077c-.11-.161-.28-.264-.29-.538a1.582,1.582,0,0,1,1.257-1.293.822.822,0,0,0,0-.642.589.589,0,0,0,.484-.111c-.243-.587.309-.458.194-1.179.317-.148.625-.3.958-.433.049-.337-.288-.243-.187-.643a4.684,4.684,0,0,1,1.353-.647c.072.293-.193.22-.193.431a3.026,3.026,0,0,0,1.057-.64c-.237-.174-.717-.071-.676-.543.058-.295.376-.295.579-.427.043-.258-.174-.233-.1-.539.473.354,1.018-.52,1.351-.322-.22.575-.679.884-.869,1.5.363.08.419-.178.774-.1.011.163-.044.409.095.431.1-.268.369.147.677,0-.047-.248-.186-.553,0-.755-.351-.037-.433-.371-.579-.647a9.638,9.638,0,0,0,0-1.4c-.182-.2-.241-.01-.478,0,.01-.508-.444-.508-.489-.964a.664.664,0,0,0,.1-.435c-.366-.231-.231-1.03-.769-1.071-.052.152.113.556-.095.54-.2-.064-.643.134-.675-.115v-1.07c-.523.262-.424-.254-.876-.323-.259.3-.2-.128-.481-.1-.234-.045-.205.194-.477.1.142,1.071-.268,1.673-.1,2.474-.167.029-.476-.307-.577,0,.091.3.32.068.381.212-.332.234-.339.835-.481,1.3a5.189,5.189,0,0,1-.384-1.3c-.192-.212-.188.05-.386.108-.086-.3-.138-.114-.387-.108a2.425,2.425,0,0,0-1.06-.747c.154-.538-.334-.345-.3-.753.207.048.189-.16.2-.321.318-.19.454-.569.773-.756.213-.377.362-.823.871-.858.012-.2-.117-.226-.1-.435a6.4,6.4,0,0,0,1.447-.426,2.965,2.965,0,0,1,.1-1.073c-.118-.163-.375-.178-.487-.331.386-.028.718,0,.868.215.179-.326.466.124.771,0-.134.55.444.3.387.758-.09.788-1.15.515-1.251,1.292.159.25.559.233.967.21.6.3.837,1.009,1.636,1.078-.213-.56.169-.544.1-1.183-.035-.28-.287-.321-.291-.646.367.02.47.339.779.428-.03-.285-.039-.531.289-.428-.07-.324.1-.393.1-.643-.265.074-.183-.224-.294-.326a4.327,4.327,0,0,1-.87-.321c.025-.219.266-.206.291-.434-.12-.249-.421-.317-.384-.745h-.873c.051-.342-.256-.289-.282-.542a3.112,3.112,0,0,0-.972.109c.058-.664-.754-.449-.869-.109.043-.4-.072-.629-.386-.645-.5.344-1.079,1.442-.479,2.044.14.062.5-.122.479.1a2.494,2.494,0,0,1-.479.758c-.245-.264.2-.231.095-.642a1.834,1.834,0,0,1-.773-.972c-.367.052-.307-.372-.766-.216.028.26-.184.235-.1.538.335.147.209,1,0,1.185a.561.561,0,0,1-.191-.535c-.489-.079-.485.391-.872.424a2.05,2.05,0,0,1-.964-.643c.433-.081.579.144.964.1.215-.223-.043-.308,0-.639.538-.124.747-.6,1.256-.754a2.374,2.374,0,0,1-.193-.853h-1.448c-.211.3-.686.3-.766.744-.053-.157-.146-.268-.194-.427-.262,0-.6.1-.484-.317.711.168,1.572-.4,2.216-.655,0,.5.828.374.966.109a4.518,4.518,0,0,0-.187-.753c-.572.083-.852.495-1.455.544v-.648c-.524-.2-.622.506-.283.648a9.5,9.5,0,0,1-1.353-.109c.145.555-.444.3-.483.639.236.143.305-.051.38.113a.394.394,0,0,1-.38.211c-.154-.614-.922-.553-1.647-.534a1.56,1.56,0,0,1-.579,1.073c-.015.339.254.359.2.752a2.238,2.238,0,0,0,1.056-.323c-.2.585.532.128.582.431.071.294-.455-.077-.383.214,0,.581,1.053-.027.863.753.37-.236.478-.172.869,0h.1c-.037-.128.274-.371.285-.1-.011.125-.15.111-.285.1.023.271.409.607,0,.755-.117-.022-.082-.2-.1-.323-.854-.087-1.287-.638-2.312-.535-.294-.1-.3-.526-.675-.54-.043.3-.3.377-.581.424a.81.81,0,0,0-.091-.534c-.379.021-.379.453-.776.431-.363.082-.46-.132-.774-.112-.1.031-.063.215-.195.215-.091,0-.078-.128-.091-.215-.23.038-.366.178-.679.112-.775-.536-2.256-.28-3.087-.753a8.213,8.213,0,0,1-2.12.538c-.223.415.17.425.286.755.366-.05.6.041.674.321-.391-.153-.345.194-.482.324-.178-.093-.265-.274-.478-.324-.372.417-1.252.264-1.549.751.534-.022.72.343.771.865.506-.205.894.029,1.347-.114-.467.946-2.477.184-2.313,1.828.319.262.4.293.289.864.177.014.2-.134.387-.114.006.175-.048.417.1.435.139-.344.045.441.287.32a.5.5,0,0,1,.87-.21c-.415.358-.57,1.011-1.059,1.287-.442.155-.594.629-1.162.645.089.343-.146.328-.19.536.444.062.6-.19,1.062-.107.107-.309.411-.4.774-.429a6.525,6.525,0,0,1,1.537-1.722h.2c.1-.1.029-.4.288-.32.009-.068.013-.13.093-.108,0,.067-.007.127-.093.108.041.482-.263.567-.389.86.8.1.995-.47,1.641-.54a4.241,4.241,0,0,0-.1-1.18c.448.1.47-.271.87-.221a2.826,2.826,0,0,1,.676.76,1.307,1.307,0,0,1,1.063,1.5c.468-.071.019-.6.389-.643a6.305,6.305,0,0,0,.285,2.473c-.289.28-.1.4,0,.755,0,.209-.264.133-.188.429a21.1,21.1,0,0,0,0,3.112c.252.184.427.46.67.65.272.415.248,1.153.583,1.5-.111.017-.084.193-.093.326.39.156.491.659.676,1.073.289-.085.275.187.569.1.015-.456-.187-.359-.187-.962-.054,0-.107-.091,0-.111v.111c.207-.058.179.148.187.317a3.683,3.683,0,0,1,.778.865,2.793,2.793,0,0,0,.381,1.61c.8.22,1.272.775,2.229.537a3.591,3.591,0,0,0,.38.753c.364-.08.464.126.771.107a1.138,1.138,0,0,0,.485.538v.321c.555.067.666.619,1.16.75.095-.14.091-.4.287-.42a4.464,4.464,0,0,0,.29.961c0,.216-.26.138-.193.432.051.548-.3.657-.384,1.076-.191.748.39,1.158,0,1.5.167.2.477.255.674.426-.082.163-.313.155-.488.213a1.236,1.236,0,0,0,.874,1.4c.045.261-.172.238-.095.539.363.314.491.884,1.063.969a3.659,3.659,0,0,1,.482,1.5c-.1.146-.1.393-.191.537.13.071.175.233.191.432-.264.484.118,1.048,0,1.716-.525.346-.285,1.554-.482,2.261.144.3.4-.188.482.105.087.528-.328.5-.482.754-.121.348.309.082.194.429-.184.263.1.523-.1.859.093.731.418,1.107.2,1.721.284.259.259.857.579,1.077-.009.192.11.229.095.426a1.829,1.829,0,0,1,.577.322c.363-.061.991.182,1.061-.211a.883.883,0,0,1-.575-.436c.066-.358-.391-.13-.295-.532-.035-.469.276-.552.295-.968.245-.012.371-.153.385-.429.044-.383-.337-.264-.288-.642.251-.339.651-1.4,0-1.509.647.181.621-.38.766-.748.52.035.7-.3,1.068-.431.063-.507-.159-.692-.2-1.071h.779c0-.114.109-.091.19-.114.05-.262.086-.554.384-.537-.03-.607.367-.74.577-1.081v-.749c.181-.186.3-.451.481-.644a6.985,6.985,0,0,0,.869-.321c.044-.688.511-1.29.2-2.04a.555.555,0,0,0,.193-.544c.151.037.168-.1.3-.1.029-.354.28-.478.381-.754.259-.277-.015-.518.292-.643-.074-.327.095-.389.095-.647A2.552,2.552,0,0,0-1064.527-999.141Zm-4.439-17.842c.052.056-.067.138-.1.1C-1069.108-1016.931-1068.99-1017.012-1068.966-1016.983Zm-7.431-8.39c.294.108-.112.291-.1.433C-1076.79-1025.043-1076.452-1025.3-1076.4-1025.373Zm-.388.539c.305-.047.343.2.676.109,0,.429-.376.445-.676.537Zm-2.984.216c-.057-.05.059-.136.092-.107C-1079.629-1024.668-1079.749-1024.585-1079.769-1024.618Zm-2.032,15.482c.018-.121.09-.06.09,0C-1081.725-1009.014-1081.8-1009.077-1081.8-1009.136Zm.09.214c.229.033.223.328.392.425C-1081.445-1008.221-1081.789-1008.6-1081.711-1008.922Z" fill="#ccc"/>
        <path id="패스_29216" data-name="패스 29216" d="M-1044.826-1023.756c-.142-.491-.6-.631-.485-1.4.683-.066.933-.606,1.443-.859.61.066.919-.2.966-.753h-.477c-.024.085-.005.211-.1.211a6.06,6.06,0,0,0-1.83.649c.045.555-.468.48-.391,1.072-.118.228-.362.317-.381.646a6.413,6.413,0,0,0,.962.641A.263.263,0,0,1-1044.826-1023.756Z" fill="#ccc"/>
        <path id="패스_29217" data-name="패스 29217" d="M-1028.707-1025.69c.232-.172.341-.473.586-.643-.378-.053-.451-.5-.785-.433-.036.005-.091.252-.187.211h-.586C-1029.8-1025.768-1028.978-1026.032-1028.707-1025.69Z" fill="#ccc"/>
        <path id="패스_29218" data-name="패스 29218" d="M-1059.5-1020.855c.014-.276.362-.171.482-.322.1-.548-.216-.615-.188-1.073-.43.14-.57-.071-.97.107-.265-.064-.242-.451-.579-.431.115.521-.381.358-.381.751.268.09.245-.147.482-.1-.059.255-.378.226-.3.644.483-.146.378.367.676.427C-1060.191-1021.073-1059.607-1020.969-1059.5-1020.855Z" fill="#ccc"/>
        <path id="패스_29219" data-name="패스 29219" d="M-1072.73-1020.855c-.386-.115-.136-.272-.386-.54-.291.078-.279-.182-.576-.1-.143.2-.054.655-.485.54.017.375.315.426.672.425C-1073.532-1021.377-1072.841-1020.184-1072.73-1020.855Z" fill="#ccc"/>
        <path id="패스_29220" data-name="패스 29220" d="M-1055.737-1016.983c-.13-.112-.295-.179-.382-.321.112-.637-.648-.739-.295-1.29a1.778,1.778,0,0,1-.39-.325c.144-.1.309-.16.293-.428a1.44,1.44,0,0,0-.775.207c.075.589-.152.835-.094,1.4a1.774,1.774,0,0,0,.479.218c.042.379-.324.59-.479.426a1.361,1.361,0,0,0,.194.971c-.169.1-.517-.008-.487.322a6.761,6.761,0,0,1,1.554-.107C-1056.046-1016.367-1056.1-1016.676-1055.737-1016.983Z" fill="#ccc"/>
        <path id="패스_29221" data-name="패스 29221" d="M-1058.344-1016.55c.216-.122.582-.069.771-.218a2.554,2.554,0,0,1,0-.971h-.483c-.01.48-.216.139-.385.325C-1058.427-1017.1-1058.491-1016.713-1058.344-1016.55Z" fill="#ccc"/>
        <path id="패스_29222" data-name="패스 29222" d="M-1025.24-1013.437c.189.013.076.355.3.322.206-.26.18-.8.579-.858-.513-.082-.831-.375-1.358-.432a7.076,7.076,0,0,1-.1,1.183C-1025.549-1012.932-1025.567-1013.5-1025.24-1013.437Z" fill="#ccc"/>
        <path id="패스_29223" data-name="패스 29223" d="M-1027.454-1010.1c-.017.374.23.461.388.638a1.027,1.027,0,0,1,.575-.746.39.39,0,0,1,.285.108c.32-.414.952-.458,1.267-.864-.025-.764-.218-1.336-.2-2.149h-.38c.111.5-.059.754.1,1.29-.078.028-.115.088-.1.216a2.585,2.585,0,0,0-.873.643c-.338.2-.957.085-.961.645-.045.3.52-.08.482.219Z" fill="#ccc"/>
        <path id="패스_29224" data-name="패스 29224" d="M-1051.005-1010.966c.025.3.318.088.571.328.072-.406-.146-.478-.479-.433C-1050.9-1010.984-1050.947-1010.972-1051.005-1010.966Z" fill="#ccc"/>
        <path id="패스_29225" data-name="패스 29225" d="M-1029.487-1007.313a1.134,1.134,0,0,1,.3.648c.392-.023.364-.523.378-.969C-1029.046-1007.867-1029.377-1007.552-1029.487-1007.313Z" fill="#ccc"/>
        <path id="패스_29226" data-name="패스 29226" d="M-1074.177-1007.634v.435h.386C-1073.8-1007.473-1073.93-1007.618-1074.177-1007.634Z" fill="#ccc"/>
        <path id="패스_29227" data-name="패스 29227" d="M-1073.116-1007.1a.739.739,0,0,0-.093-.538h-.3C-1073.532-1007.265-1073.476-1007.016-1073.116-1007.1Z" fill="#ccc"/>
        <path id="패스_29228" data-name="패스 29228" d="M-1073.021-1007.2v.534c.208.043.26-.071.392-.109C-1072.646-1007.045-1072.769-1007.188-1073.021-1007.2Z" fill="#ccc"/>
        <path id="패스_29229" data-name="패스 29229" d="M-1073.209-1005.48c.343-.062.468.125.677.214.008-.307.4-.2.674-.214-.14-.717-.674-.617-1.258-.645.075-.293-.191-.223-.191-.425-.213-.123-.531-.132-.579-.439h-1.444c-.045.2-.209.27-.2.543.395.042.39-.355.863-.219.417.086.46.574.874.649.226.066.7-.138.77.1C-1073.375-1005.9-1073.258-1005.754-1073.209-1005.48Z" fill="#ccc"/>
        <path id="패스_29230" data-name="패스 29230" d="M-1072.248-1006.665c-.025-.145-.239-.091-.381-.109C-1072.838-1006.372-1072.139-1006.282-1072.248-1006.665Z" fill="#ccc"/>
        <path id="패스_29231" data-name="패스 29231" d="M-1029.093-1005.48a2.088,2.088,0,0,0,.579.645c.12-.336.443-.435.393-.969A.543.543,0,0,0-1029.093-1005.48Z" fill="#ccc"/>
        <path id="패스_29232" data-name="패스 29232" d="M-1031.411-1005.159c.27-.064.27-.414.385-.645a.479.479,0,0,0-.385-.109C-1031.595-1005.495-1031.537-1005.827-1031.411-1005.159Z" fill="#ccc"/>
        <path id="패스_29233" data-name="패스 29233" d="M-1074.274-1005.7v.431c.326-.117.335.037.673-.107C-1073.532-1005.8-1073.963-1005.682-1074.274-1005.7Z" fill="#ccc"/>
        <path id="패스_29234" data-name="패스 29234" d="M-1071.671-1005.266c.35.025.668.025.581-.431h-.581Z" fill="#ccc"/>
        <path id="패스_29235" data-name="패스 29235" d="M-1061.532-1005.266c0,.21-.266.14-.2.431h.388C-1061.312-1005.083-1061.365-1005.241-1061.532-1005.266Z" fill="#ccc"/>
        <path id="패스_29236" data-name="패스 29236" d="M-1028.324-1003.548c.2.234.274-.051.583,0-.029.246-.209.468.092.538a.747.747,0,0,1,.875-.426c.085-.5-.311-.443-.484-.648.018-.352-.116-.52-.391-.537-.135.14-.092.466-.092.752C-1028.071-1004.053-1028.161-1003.8-1028.324-1003.548Z" fill="#ccc"/>
        <path id="패스_29237" data-name="패스 29237" d="M-1037.884-1003.228c.142.643-.36.768,0,1.08.305.047.257-.289.485-.326A1.49,1.49,0,0,0-1037.884-1003.228Z" fill="#ccc"/>
        <path id="패스_29238" data-name="패스 29238" d="M-1031.514-1000.322c.1.433.519.5.488,1.075.628-.161.531.483,1.16.324-.035-.246.276-.122.289-.324-.071-.025-.192,0-.192-.109.32-.15.163-.822.486-.966-.22-.346.079-.714-.1-.965a.469.469,0,0,0,.29-.534c-.236-.208-.426-.467-.872-.439C-1030.051-1001.138-1031.339-1001.353-1031.514-1000.322Z" fill="#ccc"/>
        <path id="패스_29239" data-name="패스 29239" d="M-1033.348-1001.077c-.138-.249-.449-.424-.377-.744-.266.072-.2-.224-.392-.224.021.476-.231-.009-.482.1,0,1.261,1.358,1,1.163,2.477.476.06.609.768,1.058.54.223-.414-.2-.88-.189-1.4A3.449,3.449,0,0,1-1033.348-1001.077Z" fill="#ccc"/>
        <path id="패스_29240" data-name="패스 29240" d="M-1027.935-1000.211c-.023-.48-.608-.33-.772-.647-.5.443-.838,1.636-.1,2.04-.014-.31.03-.544.2-.645.21.206.225.546.576.322-.048-.444-.376-.588-.39-1.07A.342.342,0,0,0-1027.935-1000.211Z" fill="#ccc"/>
        <path id="패스_29241" data-name="패스 29241" d="M-1025.815-1000.644c-.313-.218-1.086-.177-1.057.322C-1026.542-1000.088-1025.834-1000.2-1025.815-1000.644Z" fill="#ccc"/>
        <path id="패스_29242" data-name="패스 29242" d="M-1024.752-1000.211h-.671c-.089.154-.144.338-.392.322-.293.079-.184-.3-.473-.215.024.276-.384.081-.3.424.016.243.243-.134.485,0a9.9,9.9,0,0,1,1.351,1.08v.644c.517-.347.676.221,1.068.323.337-.019.227-.528.671-.435.227.155.478.822.87.435-.207-.1-.3-.32-.294-.648-.252-.252-.6-.393-.769-.751v-.324C-1023.951-999.383-1024.156-1000.017-1024.752-1000.211Z" fill="#ccc"/>
        <path id="패스_29243" data-name="패스 29243" d="M-1029.866-997.745c.048-.377-.342-.261-.29-.641a4.875,4.875,0,0,1-1.931-.432c-.088.194-.272.28-.193.647C-1031.353-998.159-1030.925-997.607-1029.866-997.745Z" fill="#ccc"/>
        <path id="패스_29244" data-name="패스 29244" d="M-1022.724-993.549c.035-.509-.173-.742-.1-1.29-.187-.073-.219-.33-.384-.431-.039-.82-.69-.952-.58-1.932-.184.02-.212-.124-.382-.108-.251.437.1,1.55-.3,1.83-.377.134-.19-.36-.577-.218-.014-.3-.459-.132-.381-.536-.053-.344.47-.043.381-.432-.337-.413-1.323-.106-1.83-.322-.168.066.007.507-.194.535a3.364,3.364,0,0,0-.965.326c-.124.324-.04.9-.39.969-.229-.258-.469.012-.766,0-.19.074.015.6-.2.642-.2-.061-.194-.323-.386-.109-.237.27-.132.929-.488,1.076-.212.15-.638.072-.769.323a2.592,2.592,0,0,1,.1,1.616c.184.07.258.28.292.532.051.495-.175.671-.1,1.182.283-.024.3.245.583.219.4-.194.637-.577,1.347-.431a1.991,1.991,0,0,1,1.836-.537,1.9,1.9,0,0,1,.58.968c.375-.2.261.247.675,0,0,.28.034.614-.1.754a2.975,2.975,0,0,0,1.933.431c.246-.2.425-.466.766-.546-.048-.548.469-.482.392-1.07.328-.026.252-.517.581-.537-.107-.382.164-.607.193-.965a8.211,8.211,0,0,0-.29-1.939C-1022.483-993.7-1022.641-993.23-1022.724-993.549Z" fill="#ccc"/>
        <path id="패스_29245" data-name="패스 29245" d="M-1045.214-996.988a3.412,3.412,0,0,0-.391,1.078,1.6,1.6,0,0,0-.863.752c-.079.371.139.416.095.75a2.4,2.4,0,0,1-.293.651c.212.48-.071.906.293,1.282.309.024.405-.186.768-.108a11.23,11.23,0,0,1,.391-1.174v-.544c.014-.119.1-.167.188-.215-.174-.47.185-.914.2-1.718C-1045.191-996.234-1044.814-997.036-1045.214-996.988Z" fill="#ccc"/>
        <path id="패스_29246" data-name="패스 29246" d="M-1017.415-989.677c.023-.307.011-.589-.284-.534v.855c-.083.313-.46.277-.394.751.653-.1.222.321.2.65.608-.032.632-.733.864-1.185.146-.162.4-.2.488-.434C-1016.778-989.9-1016.963-989.635-1017.415-989.677Z" fill="#ccc"/>
        <path id="패스_29247" data-name="패스 29247" d="M-1018.478-988.389c-.083.228-.29.322-.29.645a.521.521,0,0,0-.382.107c-.168.215-.229.535-.482.645-.4.167-.523.645-.682,1.078.314-.178.523-.053.87,0,.091-.256.392-.29.294-.754h.382c.029-.614.763-.442.768-1.076C-1018.029-988.1-1018.282-988.208-1018.478-988.389Z" fill="#ccc"/>
        <path id="패스_29248" data-name="패스 29248" d="M-1025.042-988.067c-.106.162.313.645.387.965.468-.049.773-.28.676-.965C-1024.4-987.983-1024.873-988.2-1025.042-988.067Z" fill="#ccc"/>
        <path id="패스_29249" data-name="패스 29249" d="M-1068.768-984.736h.382C-1068.318-985.158-1068.792-985.086-1068.768-984.736Z" fill="#ccc"/>
      </g>
      <g id="그룹_18884" data-name="그룹 18884">
        <g id="그룹_18883" data-name="그룹 18883">
          <path id="패스_29250" data-name="패스 29250" d="M-1078-1011.572a1.271,1.271,0,0,0-1.271,1.27,2.976,2.976,0,0,0,1.271,1.971c.346,0,1.27-1.271,1.27-1.971A1.271,1.271,0,0,0-1078-1011.572Zm0,1.993a.765.765,0,0,1-.777-.75.764.764,0,0,1,.777-.752.763.763,0,0,1,.776.752A.764.764,0,0,1-1078-1009.579Z" fill="#ccc"/>
        </g>
        <path id="패스_29251" data-name="패스 29251" d="M-1078-1009.579a.765.765,0,0,1-.777-.75.764.764,0,0,1,.777-.752.763.763,0,0,1,.776.752A.764.764,0,0,1-1078-1009.579Z" fill="#ccc"/>
      </g>
      <g id="그룹_18886" data-name="그룹 18886">
        <g id="그룹_18885" data-name="그룹 18885">
          <path id="패스_29252" data-name="패스 29252" d="M-1071.251-1015.831a1.27,1.27,0,0,0-1.271,1.27,2.972,2.972,0,0,0,1.271,1.971c.345,0,1.268-1.271,1.268-1.971A1.268,1.268,0,0,0-1071.251-1015.831Zm0,1.993a.766.766,0,0,1-.779-.751.766.766,0,0,1,.779-.752.765.765,0,0,1,.776.752A.765.765,0,0,1-1071.251-1013.838Z" fill="#ccc"/>
        </g>
        <path id="패스_29253" data-name="패스 29253" d="M-1071.251-1013.838a.766.766,0,0,1-.779-.751.766.766,0,0,1,.779-.752.765.765,0,0,1,.776.752A.765.765,0,0,1-1071.251-1013.838Z" fill="#ccc"/>
      </g>
      <g id="그룹_18888" data-name="그룹 18888">
        <g id="그룹_18887" data-name="그룹 18887">
          <path id="패스_29254" data-name="패스 29254" d="M-1052.532-1014.9a1.271,1.271,0,0,0-1.27,1.274,2.981,2.981,0,0,0,1.27,1.97c.346,0,1.268-1.272,1.268-1.97A1.27,1.27,0,0,0-1052.532-1014.9Zm0,1.993a.763.763,0,0,1-.776-.752.763.763,0,0,1,.776-.75.763.763,0,0,1,.774.75A.762.762,0,0,1-1052.532-1012.907Z" fill="#ccc"/>
        </g>
        <path id="패스_29255" data-name="패스 29255" d="M-1052.532-1012.907a.763.763,0,0,1-.776-.752.763.763,0,0,1,.776-.75.763.763,0,0,1,.774.75A.762.762,0,0,1-1052.532-1012.907Z" fill="#ccc"/>
      </g>
      <g id="그룹_18890" data-name="그룹 18890">
        <g id="그룹_18889" data-name="그룹 18889">
          <path id="패스_29256" data-name="패스 29256" d="M-1037.178-1021.815a1.266,1.266,0,0,0-1.269,1.267,2.978,2.978,0,0,0,1.269,1.972c.348,0,1.27-1.271,1.27-1.972A1.267,1.267,0,0,0-1037.178-1021.815Zm0,1.99a.765.765,0,0,1-.775-.754.761.761,0,0,1,.775-.746.761.761,0,0,1,.776.746A.765.765,0,0,1-1037.178-1019.825Z" fill="#ccc"/>
        </g>
        <path id="패스_29257" data-name="패스 29257" d="M-1037.178-1019.825a.765.765,0,0,1-.775-.754.761.761,0,0,1,.775-.746.761.761,0,0,1,.776.746A.765.765,0,0,1-1037.178-1019.825Z" fill="#ccc"/>
      </g>
      <g id="그룹_18892" data-name="그룹 18892">
        <g id="그룹_18891" data-name="그룹 18891">
          <path id="패스_29258" data-name="패스 29258" d="M-1032.565-1011.211a1.271,1.271,0,0,0-1.269,1.269,2.972,2.972,0,0,0,1.269,1.972c.346,0,1.27-1.269,1.27-1.972A1.27,1.27,0,0,0-1032.565-1011.211Zm0,1.991a.763.763,0,0,1-.776-.747.762.762,0,0,1,.776-.752.762.762,0,0,1,.776.752A.762.762,0,0,1-1032.565-1009.22Z" fill="#ccc"/>
        </g>
        <path id="패스_29259" data-name="패스 29259" d="M-1032.565-1009.22a.763.763,0,0,1-.776-.747.762.762,0,0,1,.776-.752.762.762,0,0,1,.776.752A.762.762,0,0,1-1032.565-1009.22Z" fill="#ccc"/>
      </g>
      <g id="그룹_18894" data-name="그룹 18894">
        <g id="그룹_18893" data-name="그룹 18893">
          <path id="패스_29260" data-name="패스 29260" d="M-1044.251-1011.561a1.27,1.27,0,0,0-1.272,1.269,2.978,2.978,0,0,0,1.272,1.97c.346,0,1.269-1.269,1.269-1.97A1.268,1.268,0,0,0-1044.251-1011.561Zm0,1.989a.762.762,0,0,1-.776-.749.762.762,0,0,1,.776-.75.763.763,0,0,1,.777.75A.764.764,0,0,1-1044.251-1009.572Z" fill="#ccc"/>
        </g>
        <path id="패스_29261" data-name="패스 29261" d="M-1044.251-1009.572a.762.762,0,0,1-.776-.749.762.762,0,0,1,.776-.75.763.763,0,0,1,.777.75A.764.764,0,0,1-1044.251-1009.572Z" fill="#ccc"/>
      </g>
      <g id="그룹_18896" data-name="그룹 18896">
        <g id="그룹_18895" data-name="그룹 18895">
          <path id="패스_29262" data-name="패스 29262" d="M-1022.786-996.028a1.27,1.27,0,0,0-1.27,1.269,2.981,2.981,0,0,0,1.27,1.976c.345,0,1.269-1.275,1.269-1.976A1.269,1.269,0,0,0-1022.786-996.028Zm0,1.991a.765.765,0,0,1-.779-.75.767.767,0,0,1,.779-.751.766.766,0,0,1,.776.751A.764.764,0,0,1-1022.786-994.037Z" fill="#ccc"/>
        </g>
        <path id="패스_29263" data-name="패스 29263" d="M-1022.786-994.037a.765.765,0,0,1-.779-.75.767.767,0,0,1,.779-.751.766.766,0,0,1,.776.751A.764.764,0,0,1-1022.786-994.037Z" fill="#ccc"/>
      </g>
      <g id="그룹_18898" data-name="그룹 18898">
        <g id="그룹_18897" data-name="그룹 18897">
          <path id="패스_29264" data-name="패스 29264" d="M-1075.24-1006.723a1.271,1.271,0,0,0-1.27,1.271,2.973,2.973,0,0,0,1.27,1.973c.346,0,1.271-1.27,1.271-1.973A1.272,1.272,0,0,0-1075.24-1006.723Zm0,1.994a.765.765,0,0,1-.777-.751.767.767,0,0,1,.777-.753.769.769,0,0,1,.779.753A.767.767,0,0,1-1075.24-1004.729Z" fill="#ccc"/>
        </g>
        <path id="패스_29265" data-name="패스 29265" d="M-1075.24-1004.729a.765.765,0,0,1-.777-.751.767.767,0,0,1,.777-.753.769.769,0,0,1,.779.753A.767.767,0,0,1-1075.24-1004.729Z" fill="#ccc"/>
      </g>
      <g id="그룹_18900" data-name="그룹 18900">
        <g id="그룹_18899" data-name="그룹 18899">
          <path id="패스_29266" data-name="패스 29266" d="M-1056.8-1020.913a1.27,1.27,0,0,0-1.269,1.274,2.975,2.975,0,0,0,1.269,1.97c.346,0,1.269-1.27,1.269-1.97A1.271,1.271,0,0,0-1056.8-1020.913Zm0,1.994a.762.762,0,0,1-.776-.749.766.766,0,0,1,.776-.754.766.766,0,0,1,.776.754A.762.762,0,0,1-1056.8-1018.919Z" fill="#ccc"/>
        </g>
        <path id="패스_29267" data-name="패스 29267" d="M-1056.8-1018.919a.762.762,0,0,1-.776-.749.766.766,0,0,1,.776-.754.766.766,0,0,1,.776.754A.762.762,0,0,1-1056.8-1018.919Z" fill="#ccc"/>
      </g>
      <g id="그룹_18902" data-name="그룹 18902">
        <g id="그룹_18901" data-name="그룹 18901">
          <path id="패스_29268" data-name="패스 29268" d="M-1046.807-1021.259a1.269,1.269,0,0,0-1.27,1.269,2.974,2.974,0,0,0,1.27,1.97c.345,0,1.268-1.269,1.268-1.97A1.267,1.267,0,0,0-1046.807-1021.259Zm0,1.991a.762.762,0,0,1-.776-.748.762.762,0,0,1,.776-.753.762.762,0,0,1,.775.753A.761.761,0,0,1-1046.807-1019.268Z" fill="#ccc"/>
        </g>
        <path id="패스_29269" data-name="패스 29269" d="M-1046.807-1019.268a.762.762,0,0,1-.776-.748.762.762,0,0,1,.776-.753.762.762,0,0,1,.775.753A.761.761,0,0,1-1046.807-1019.268Z" fill="#ccc"/>
      </g>
    </g>
    <g id="그룹_18905" data-name="그룹 18905">
      <g id="그룹_18904" data-name="그룹 18904">
        <path id="패스_29270" data-name="패스 29270" d="M-1071.791-1038.936a8.792,8.792,0,0,0-8.794,8.793c0,4.86,8.794,12.357,8.794,12.357s8.794-7.5,8.794-12.357A8.792,8.792,0,0,0-1071.791-1038.936Z" fill="#fff"/>
        <path id="패스_29271" data-name="패스 29271" d="M-1071.791-1015.748l-1.006-.858c-.956-.815-9.339-8.118-9.339-13.537a10.356,10.356,0,0,1,10.345-10.343,10.355,10.355,0,0,1,10.344,10.343c0,5.419-8.382,12.722-9.338,13.537Zm0-21.637a7.252,7.252,0,0,0-7.244,7.242c0,2.717,4.1,7.394,7.244,10.285,3.144-2.894,7.243-7.573,7.243-10.285A7.251,7.251,0,0,0-1071.791-1037.385Z" fill="gray"/>
      </g>
      <path id="패스_29272" data-name="패스 29272" d="M-1071.791-1025.778a4.365,4.365,0,0,1-4.367-4.365,4.364,4.364,0,0,1,4.367-4.364,4.361,4.361,0,0,1,4.363,4.364A4.362,4.362,0,0,1-1071.791-1025.778Z" fill="#ccc"/>
    </g>
    <g id="그룹_18908" data-name="그룹 18908">
      <g id="그룹_18906" data-name="그룹 18906">
        <path id="패스_29273" data-name="패스 29273" d="M-1025.082-1018a8.791,8.791,0,0,0-8.794,8.793c0,4.859,8.794,12.356,8.794,12.356s8.794-7.5,8.794-12.356A8.791,8.791,0,0,0-1025.082-1018Z" fill="#fff"/>
        <path id="패스_29274" data-name="패스 29274" d="M-1025.082-994.818l-1.006-.857c-.955-.815-9.338-8.117-9.338-13.536a10.355,10.355,0,0,1,10.344-10.343,10.355,10.355,0,0,1,10.344,10.343c0,5.419-8.382,12.721-9.338,13.536Zm0-21.635a7.251,7.251,0,0,0-7.243,7.242c0,2.711,4.1,7.39,7.243,10.283,3.145-2.893,7.243-7.572,7.243-10.283A7.251,7.251,0,0,0-1025.082-1016.453Z" fill="gray"/>
      </g>
      <g id="그룹_18907" data-name="그룹 18907">
        <path id="패스_29275" data-name="패스 29275" d="M-1025.083-1005.63a3.582,3.582,0,0,1-3.583-3.581,3.581,3.581,0,0,1,3.583-3.58,3.578,3.578,0,0,1,3.58,3.58A3.579,3.579,0,0,1-1025.083-1005.63Z" fill="#fff"/>
        <path id="패스_29276" data-name="패스 29276" d="M-1025.083-1004.079a5.138,5.138,0,0,1-5.133-5.132,5.138,5.138,0,0,1,5.133-5.131,5.136,5.136,0,0,1,5.13,5.131A5.137,5.137,0,0,1-1025.083-1004.079Zm0-7.162a2.033,2.033,0,0,0-2.032,2.03,2.034,2.034,0,0,0,2.032,2.031,2.032,2.032,0,0,0,2.029-2.031A2.031,2.031,0,0,0-1025.083-1011.241Z" fill="gray"/>
      </g>
    </g>
  </g>
</svg>
