<svg xmlns="http://www.w3.org/2000/svg" width="76.815" height="57.489" viewBox="0 0 76.815 57.489">
  <g id="그룹_18566" data-name="그룹 18566" transform="translate(1091.553 371.081)">
    <g id="그룹_18560" data-name="그룹 18560">
      <g id="그룹_18539" data-name="그룹 18539">
        <path id="패스_29026" data-name="패스 29026" d="M-1062.2-354.566c.187,0,.12-.295.384-.217.359.141.56.452,1.06.432.327-.256-.46-.48-.194-.647.144.059.241.164.39.215.071-.372-.117-.452-.2-.646.8-.043.535-1.128.389-1.721a1.967,1.967,0,0,1,.866-.1c-.025-.474-.517-.429-.773-.647.3.05.216-.328.581-.218.071-.32-.169-.314-.093-.643.342.062.237-.377.579-.322.238-.086.825.21.769-.214.092-.392-.416-.109-.482-.329-.228-.025-.18-.368-.485-.322-.416-.058-.869.4-1.062.222.063-.542.855-.274.966-.752-.2-.311-.627-.377-1.154-.326-.32-.121-.7-.282-.874,0-.08-.158-.309-.15-.484-.216-.38.284-1.334-.049-1.729.216-.444.015-.986-.08-1.167.221,0,.229.27.692.1.75a16.243,16.243,0,0,1-1.739-.115c-.967.152-1.413.859-2.415.973-.09.391.44.092.387.43-.28.262-.8.258-1.062.538-.237-.14-.546-.115-.676.322.307-.093.3.172.482.213,0-.288.482-.288.482,0,.245-.061.659-.481.684.111-.412.046-1-.106-1.263.108.094.4.453.495.779.645.294.076.18-.3.484-.22a1.325,1.325,0,0,0,1.151.327,1.339,1.339,0,0,0,.2.967,1.8,1.8,0,0,0-.1.751c.39.207.449-.5.676-.1.054.381-.286.325-.573.321.074.481.728.33.863.755a5.151,5.151,0,0,0-.678.535c.273.136-.3.227-.185.538.677.514.148,1.748.666,2.475h.68c.276.008.169.454.483.424.1-.214.165-.457.391-.535-.121-.813.473-.828.381-1.616.251,0,.137-.416.387-.428.366.218.366-.258.773,0a3.5,3.5,0,0,1,.484-.427c.462-.13.67-.546,1.159-.645.032-.389.842-.484.574-.861C-1061.532-354.108-1061.939-354.535-1062.2-354.566Zm.967-.432c-.263-.19,0-.711.283-.645C-1061-355.378-1061.211-355.287-1061.236-355Zm.673-5.162c-.012.323-.221.406-.39.534a1.918,1.918,0,0,0-1.25-.207C-1061.881-360.282-1060.978-360.088-1060.563-360.16Z" fill="#5eb4e7"/>
        <path id="패스_29027" data-name="패스 29027" d="M-1074.177-358.545v.645c.3-.075.354.111.576.111.046-.494.627-.952.972-.756.147.453-.509.014-.487.321.293.163-.336.192-.291.435.255-.067.347.039.291.317-.224,0-.279-.185-.576-.1.013.3-.326.212-.194.649.579-.087.989-.153,1.257.319-.766.179-1.263-.429-1.741-.22-.077.524.585.214.579.655.731-.122,1.706.473,1.933-.328.247.031.416-.041.381-.327.073-.291-.453.08-.381-.209h.678c-.006-.574.586-.5.482-1.187.5-.009.544-.533,1.164-.43a.657.657,0,0,1,.67-.429c.121-.268-.217-.521,0-.543.4-.2.994.115,1.155-.534,0-.176-.271-.054-.284-.214-1.586.245-3.733-.314-5.414.426-.125.651.42.548.481.973-.621.053-.429-.8-1.152-.651-.031.153-.142.208-.1.438-.154.008-.332-.015-.29.213C-1074.554-358.634-1074.22-358.749-1074.177-358.545Zm2.025,1.937c.058.051-.063.138-.1.107C-1072.3-356.557-1072.177-356.645-1072.152-356.608Z" fill="#5eb4e7"/>
        <path id="패스_29028" data-name="패스 29028" d="M-1050.434-358.761c.056-.3.511-.161.39-.639a16.261,16.261,0,0,0-2.511-.226.693.693,0,0,0,.1.438A3.655,3.655,0,0,0-1050.434-358.761Z" fill="#5eb4e7"/>
        <path id="패스_29029" data-name="패스 29029" d="M-1054.192-358.224c-.014.271-.178.337,0,.539.393-.022.412-.477.868-.433-.028.482-.481.48-.485.968a.7.7,0,0,0,.68.223c-.049.33.207.342.477.319.09-.406.175-.814.3-1.181.255.28.4.7,1.057.536.086-.816-.507-.869-.771-1.292-.026.258-.256-.122-.389-.109a.443.443,0,0,1-.476-.212c.226-.287-.078-.633-.483-.534-.286.169.149.552-.1.639-.209-.511-1.127-1.012-1.163,0C-1054.632-358.449-1054.258-358.5-1054.192-358.224Z" fill="#5eb4e7"/>
        <path id="패스_29030" data-name="패스 29030" d="M-1044.446-358.975c0-.676-.9-.446-.865.109C-1044.982-358.535-1044.8-359.017-1044.446-358.975Z" fill="#5eb4e7"/>
        <path id="패스_29031" data-name="패스 29031" d="M-1039.033-358.329c.754-.142,1.552.376,1.731-.325a1.4,1.4,0,0,0-1.634-.321C-1039.153-358.959-1038.98-358.523-1039.033-358.329Z" fill="#5eb4e7"/>
        <path id="패스_29032" data-name="패스 29032" d="M-1019.535-351.877c.226-.037.178-.376.477-.323.508.008.435.664,1.058.533.129-.193-.077-.544.107-.854-.261-.133-.632-.705-.875-.217a.748.748,0,0,0-.1-.538c-.522-.21-.8-.688-1.633-.535-.114-.2-.381-.236-.486-.433-.629.092-.765-.371-1.453-.217-.127.311.264.551,0,.65-.276-.046-.227-.466-.479-.54-.284.333-.8.026-1.353.21-.352-.247-.327-.928-1.056-.746-.141.025-.041.321-.2.321a10.5,10.5,0,0,1-1.162-.647c-.04.1-.08.194-.19.215.122-.421-.23-.318-.482-.322.236-.252-.113-.243-.2-.429-.459.186-.43-.066-.869-.106-.03.14-.24.088-.388.106-.091.2.295.357,0,.429-.824-.144-1.875.191-2.6,0-.245-.066-.34-.395-.584-.323a1.661,1.661,0,0,1-1.058-.212c-.116-.042-.264.024-.383,0-.24-.05-.423-.347-.965-.219.029-.277.284-.324.284-.645-.134-.309-.445-.433-.574-.753a2.969,2.969,0,0,1-1.162.111c-.237-.092-.2-.489-.577-.428-.231.1-.308.367-.288.752-.485-.178-.315.378-.681.318-.185-.039-.073-.414-.386-.318a1.246,1.246,0,0,1-1.151.429c-.168.134-.255.361-.578.323-.136.132-.049.524-.3.536-.2.062-.67-.173-.577.215,0,.4.564.156.48.647-.353-.116-.449-.505-.96-.433,0,.284.051.633-.2.645a1,1,0,0,1-.1-.645c-.378-.086-.157.47-.579.322-.151-.19-.13-.569-.582-.431a9.529,9.529,0,0,1-.963,1.185c-.628.053-.576-.2-1.252-.217-.158.53.5.161.381.65a13.541,13.541,0,0,0-1.448,0c-.435.193-.67.609-1.159.75v-.647c-.237.016-.463.018-.574-.1.023.6,0,1.141-.577,1.073.025.4-.351.32-.579.426-.246.14.164.326-.106.435-.56.124-.594-.781-.569-.968a3.3,3.3,0,0,1,1.254.107c.253-.678-.548-1.022-1.165-1.073a.891.891,0,0,0-.771-.433,1.84,1.84,0,0,0-.477-.643h-.874c-.266.2-.506.437-.769.643-.046-.161-.125.041-.3,0-.342.4-.78.709-1.152,1.075a2.523,2.523,0,0,1-.581,1.179c-.014-.124-.179-.088-.284-.1v.426c-.614.04-.686.683-.874,1.185a1.89,1.89,0,0,1,.188,1.185c.1.291.612.112.777.322-.208.315-.386.434-.386.752.208-.051.178.153.187.324a6.352,6.352,0,0,0-.862.209c-.088.192-.272.277-.2.645-.547-.181-.216.619-.669.541.01.127-.029.189-.1.214-.426-.05-.509.289-.775.433-.232.057-.492.09-.472.426.122.144.414.112.667.112-.039.486.453.362.39.861-.1.142-.1.4-.29.427-.447-.256-.855.094-1.453,0-.1.354.218,1.168-.187,1.184.072.312.288.464.187.963.454-.106.589.144.871.218.367-.208.413-.208.775,0a2.27,2.27,0,0,0,.479-1.506c.424-.139.356-.827.875-.859.4.268.574-.079.965-.108a2.208,2.208,0,0,0,0,1.613c.609-.059.231-.609.289-1.184-.1,0-.125-.186,0-.215v.215c.2.033.188.288.29.43a.808.808,0,0,1,.864.645c-.017.234-.245.234-.481.215-.014.379.341.338.481.536-.042-.474.266-.569.483-.751.054-.243-.179-.152-.193-.321.177-.338.326.358.488,0-.264-.571-1.463-.664-1.158-1.5.29.488.834.719,1.158,1.178.054.085.137.336.19.433.076.134.236.256.2.427v.643c.126.151.414.107.671.111.165-.371-.174-.9.1-1.29h.282c-.1.418-.011.4-.09.855.216-.039.136.311.3.435a1.208,1.208,0,0,0,1.248,0c.293.157-.249.556.195.54.4.078.015-.7.49-.54v.642c-.291.188-.093.91-.49.965a7.877,7.877,0,0,0-2.511-.424c-.28.082-.231.534-.483.647-.445-.511-1.322-.536-1.734-1.08.073-.371-.111-.449-.2-.645.226-.029.221-.286.094-.429a3.058,3.058,0,0,0-1.442.324,2.245,2.245,0,0,0-1.842.433.531.531,0,0,0-.574-.328c-.077.377-.425.456-.674.645-.258.5-.165,1.17-.384,1.612-.149.288-.662.577-.873.865a2.429,2.429,0,0,1-.487,1.4v2.791a3.888,3.888,0,0,1,.781,1.507c.445.29.74.752,1.348.861a4.408,4.408,0,0,1,1.351-.109c.2-.175.19-.577.582-.544.179.02.057.369.192.437.448-.07.619.171.966.216.164-.1.247-.3.579-.216.1.826-.208,1.2-.2,1.937.277.55.749.966.582,1.715a4.65,4.65,0,0,1,.391,1.506c-.247.49-.185,1.3-.391,1.83a3.5,3.5,0,0,1,.874,1.718v.967c.424.556.419,1.609.865,2.153.932-.076,1.395-.659,2.219-.861a2.09,2.09,0,0,1,.87-1.292c-.048-.41.173-.526.1-.967.174-.1.242-.3.581-.212a2.585,2.585,0,0,1,1.159-2.471,10.551,10.551,0,0,0,0-3.012,5.991,5.991,0,0,0,.479-1.4,7.779,7.779,0,0,1,.68-.541c.458-.741.872-1.534,1.351-2.25.072-.406.2-.956-.1-1.188-.419-.063-.39.347-.773.321h-.869c-.049-.733-.531-.989-.871-1.4.085-.7-.572-.579-.386-1.4-.168-.239-.464-.344-.579-.645.093-.323-.133-.83,0-.855.232.181.488.748.388.968.4.449.671,1.039,1.057,1.5.226.447.2,1.118.681,1.5a9.769,9.769,0,0,1,1.926-.86c.136-.066.02-.417.2-.43.409-.077.588-.415.96-.539-.062-.469.281-.474.3-.853-.169-.391-.667-.412-.583-1.084a.808.808,0,0,0-.767.21c-.084-.4-.44-.512-.393-1.073-.315.032-.282-.322-.482-.425.142-.055.246-.154.39-.214.536.369.366,1.517,1.348,1.395.045.211.274.2.192.542.469.052.535-.336.972-.322.091.066.1.242.285.209.671-.1.84.36,1.254.538-.158-.036-.183.086-.191.224.1.2.443.141.583.313-.047.338.173.384.093.757a4.552,4.552,0,0,1,.578,1.4,1.641,1.641,0,0,1,.488.752v.651c.116.143.415.1.67.1a5.719,5.719,0,0,0,.382-2.04h.387v-.432c.367.156.19-.293.484-.213-.025-.5.352-.544.483-.859a1.762,1.762,0,0,1,.87-.425c.22.288.226.829.583.961.039.257-.178.234-.107.536.116.35.768.082.972.325-.125.227.048.313-.091.645a.8.8,0,0,1,.477.647c-.033.2-.27.191-.193.537.034.322.3.38.193.854a10.789,10.789,0,0,0,1.448,1.3c.024-.713-.453-.859-.482-1.513a1.925,1.925,0,0,1-.675-.75c.043-.346-.127-.921.187-.966.214.3.363.674.781.748a.711.711,0,0,1,.092.433c.938-.136,1.165-1.067,1.064-2.363-.126-.112-.357-.108-.482-.215.119-.476-.466-.443-.194-.752s.249.353.676.212c.067-.459.555-.455,1.061-.431a4.972,4.972,0,0,0,.863-1.611c.163.033.172-.1.3-.1.15-.439-.025-1.245.281-1.507-.2-.1-.281-.317-.281-.645-.174-.136-.384-.226-.39-.542-.042-.253.177-.236.09-.537.2.037.307-.017.3-.217.266-.138-.442-.64.19-.64.112.34.444.432.576.751a.686.686,0,0,0,.486.864c.581-.47-.023-1.652.286-2.475a2.51,2.51,0,0,1,.777-.43,4.938,4.938,0,0,1,.769-1.4c.129-.863-.219-1.755,0-2.363-.13.612.226.684.288,1.075.022.664.048,1.311.49,1.5.177-.188-.084-.273,0-.641.259-.013.185.177.386,0,.013-.342-.263-.365-.2-.755-.341-.078-.439-.442-.578-.751-.033-.39.034-.9-.288-.971-.2.029-.022.48-.282.435-.165-.79-.824.492-1.066-.324a1.382,1.382,0,0,1,.381-.539c.116-.339.077-.848.385-.973.229.269.184-.153.485-.1a4.553,4.553,0,0,0,1.448.219c-.035.188.075.2.19.212.13-.146.422-.105.679-.105.045-.344-.17-.381-.1-.75.2-.033.188-.288.386-.325.2.037.193.292.38.325-.034-.243.294-.6.392-.325a6.478,6.478,0,0,0-.868,2.147c.062.288.275.411.386.647.042.412.115.808.384.964.245-.268.379-.651.679-.86-.091-.533.31-.453.1-.854.029-.221.263-.211.29-.431-.144-.13-.435-.093-.386-.433.09-.946.724-.74,1.442-.645.141-.162.131-.5.3-.643.559-.045.989-.342,1.347-.323C-1019.058-351.483-1019.535-351.413-1019.535-351.877Zm-32.436,1.181a1.283,1.283,0,0,0,.769.433v1.074c-.214-.048.05-.635-.382-.431-.211.366-.082,1.127-.387,1.4-.324.033-.554-.051-.778,0-.264.062-.325.313-.575.324.03-.134-.279-.369-.289-.11a.163.163,0,1,1,0-.325,1.655,1.655,0,0,1-.386-1.074c.484.048.3,1.517,1.16,1.074.216-.433.362-.952.573-1.4a2.5,2.5,0,0,0-.193-.639c.059-1.015.744-1.324,1.063-2.044.118-.015.174.02.194.106C-1051.278-351.574-1052.062-351.621-1051.971-350.7Zm1.058.754c0-.329.339-.263.585-.321C-1050.323-349.934-1050.623-349.946-1050.913-349.942Zm.774-4.2c-.051-.05.07-.136.1-.1C-1049.99-354.185-1050.111-354.108-1050.139-354.141Zm1.744,15.488c-.057-.06.059-.145.091-.111C-1048.256-338.713-1048.375-338.621-1048.4-338.653Zm.091-13.337c-.048-.05.061-.132.095-.1C-1048.161-352.037-1048.28-351.956-1048.3-351.99Zm7.142-1.718c-.184-.046-.411-.038-.382-.322-.293-.021.091-.449,0,0C-1041.476-353.857-1041.074-354.055-1041.162-353.708Zm5.978-1.935c-.042-.047.076-.138.107-.106C-1035.024-355.69-1035.154-355.613-1035.184-355.643Zm.3-.106c-.053-.057.072-.135.091-.106C-1034.744-355.8-1034.854-355.72-1034.884-355.749Zm.285-.219c-.048-.052.073-.13.1-.106C-1034.449-356.02-1034.569-355.938-1034.6-355.968Zm4.342,13.548c.14-.2.217-.474.578-.427.011.172-.042.408.1.427C-1029.721-342.1-1030-342.51-1030.257-342.42Z" fill="#5eb4e7"/>
        <path id="패스_29033" data-name="패스 29033" d="M-1064.527-329.736c-.165-.2-.279.047-.478.109-.154-.367-.527-.491-.87-.648h-.676c-.175-.311-.817-.094-.869-.531-.255-.008-.57.058-.573-.219.272-.5-.286-1.87-1.16-1.391a1.257,1.257,0,0,1-.585-.974c-.5-.159-.859-.474-1.352-.641-.126.033-.146.188-.284.208-.133-.383-.606-.4-.678-.855-.308-.1-.2.274-.386.321-.228-.076-.261-.356-.488-.428-.087.188-.174.373-.481.322-.14.442-.527.62-.77.969.027-.354-.11-.52-.387-.537-.25.113-.355.385-.676.426-.23-.523.1-1.023,0-1.718-.173-.375-.82-.233-1.157-.43.1-.468.376-.729.288-1.392a2.5,2.5,0,0,1-.959,0c-.181.227-.092.75-.392.853-1.29.078-.485-1.845-.769-2.69.343-.088.541-.322.863-.43.527-.051.659.349,1.162.32-.005-.144-.021-.3.095-.32.471.025,1.086-.131,1.16.32-.044.628.213.921.675.976a2.131,2.131,0,0,1,0-1.077c-.11-.161-.28-.264-.29-.538a1.582,1.582,0,0,1,1.257-1.293.822.822,0,0,0,0-.642.589.589,0,0,0,.484-.111c-.243-.587.309-.458.194-1.179.317-.148.625-.3.958-.433.049-.337-.288-.243-.187-.642a4.66,4.66,0,0,1,1.353-.648c.072.293-.193.221-.193.431a3.026,3.026,0,0,0,1.057-.64c-.237-.174-.717-.071-.676-.543.058-.3.376-.3.579-.426.043-.259-.174-.234-.1-.54.473.354,1.018-.52,1.351-.322-.22.575-.679.884-.869,1.5.363.08.419-.178.774-.1.011.163-.044.409.095.431.1-.268.369.147.677,0-.047-.248-.186-.553,0-.755-.351-.037-.433-.371-.579-.647a9.639,9.639,0,0,0,0-1.4c-.182-.2-.241-.009-.478,0,.01-.508-.444-.508-.489-.964a.662.662,0,0,0,.1-.435c-.366-.231-.231-1.03-.769-1.071-.052.152.113.556-.095.54-.2-.064-.643.134-.675-.115v-1.07c-.523.262-.424-.254-.876-.323-.259.3-.2-.128-.481-.1-.234-.045-.205.194-.477.1.142,1.071-.268,1.673-.1,2.474-.167.029-.476-.307-.577,0,.091.3.32.068.381.213-.332.233-.339.834-.481,1.3a5.194,5.194,0,0,1-.384-1.3c-.192-.213-.188.049-.386.107-.086-.3-.138-.113-.387-.107a2.427,2.427,0,0,0-1.06-.748c.154-.538-.334-.345-.3-.753.207.048.189-.16.2-.321.318-.19.454-.569.773-.756.213-.377.362-.822.871-.858.012-.195-.117-.226-.1-.435a6.346,6.346,0,0,0,1.447-.426,2.968,2.968,0,0,1,.1-1.073c-.118-.163-.375-.178-.487-.33.386-.029.718,0,.868.214.179-.326.466.124.771,0-.134.55.444.3.387.758-.09.788-1.15.515-1.251,1.292.159.25.559.233.967.21.6.3.837,1.009,1.636,1.079-.213-.561.169-.545.1-1.184-.035-.28-.287-.321-.291-.646.367.02.47.34.779.428-.03-.284-.039-.531.289-.428-.07-.324.1-.392.1-.643-.265.074-.183-.223-.294-.326a4.322,4.322,0,0,1-.87-.321c.025-.219.266-.206.291-.433-.12-.25-.421-.318-.384-.746h-.873c.051-.342-.256-.289-.282-.542a3.116,3.116,0,0,0-.972.109c.058-.663-.754-.449-.869-.109.043-.4-.072-.629-.386-.645-.5.344-1.079,1.442-.479,2.044.14.062.5-.122.479.1a2.494,2.494,0,0,1-.479.758c-.245-.264.2-.231.095-.642a1.834,1.834,0,0,1-.773-.972c-.367.053-.307-.372-.766-.215.028.259-.184.234-.1.537.335.147.209,1,0,1.185a.561.561,0,0,1-.191-.535c-.489-.079-.485.391-.872.424a2.05,2.05,0,0,1-.964-.643c.433-.08.579.144.964.1.215-.223-.043-.308,0-.639.538-.124.747-.6,1.256-.754a2.369,2.369,0,0,1-.193-.853h-1.448c-.211.3-.686.3-.766.744-.053-.157-.146-.268-.194-.426-.262,0-.6.1-.484-.318.711.168,1.572-.4,2.216-.655,0,.5.828.374.966.109a4.518,4.518,0,0,0-.187-.753c-.572.083-.852.495-1.455.545v-.649c-.524-.2-.622.506-.283.649a9.64,9.64,0,0,1-1.353-.11c.145.555-.444.295-.483.639.236.143.305-.051.38.113a.394.394,0,0,1-.38.211c-.154-.614-.922-.553-1.647-.534a1.565,1.565,0,0,1-.579,1.074c-.015.338.254.358.2.751a2.238,2.238,0,0,0,1.056-.323c-.2.585.532.128.582.431.071.294-.455-.077-.383.214,0,.582,1.053-.026.863.753.37-.236.478-.171.869,0h.1c-.037-.128.274-.371.285-.1-.011.125-.15.111-.285.1.023.271.409.608,0,.755-.117-.022-.082-.2-.1-.323-.854-.086-1.287-.638-2.312-.535-.294-.1-.3-.526-.675-.54-.043.3-.3.377-.581.424a.81.81,0,0,0-.091-.534c-.379.021-.379.454-.776.431-.363.082-.46-.132-.774-.111-.1.031-.063.214-.195.214-.091,0-.078-.128-.091-.214-.23.037-.366.177-.679.111-.775-.536-2.256-.28-3.087-.753a8.264,8.264,0,0,1-2.12.539c-.223.414.17.424.286.754.366-.05.6.041.674.321-.391-.153-.345.194-.482.324-.178-.093-.265-.274-.478-.324-.372.417-1.252.264-1.549.751.534-.022.72.343.771.865.506-.2.894.029,1.347-.114-.467.946-2.477.184-2.313,1.828.319.262.4.293.289.864.177.014.2-.134.387-.114.006.175-.048.417.1.435.139-.344.045.441.287.32a.5.5,0,0,1,.87-.21c-.415.358-.57,1.011-1.059,1.287-.442.155-.594.629-1.162.645.089.343-.146.328-.19.536.444.062.6-.19,1.062-.107.107-.309.411-.4.774-.429a6.525,6.525,0,0,1,1.537-1.722h.2c.1-.1.029-.4.288-.32.009-.068.013-.13.093-.108,0,.067-.007.127-.093.108.041.482-.263.567-.389.86.8.1.995-.47,1.641-.54a4.23,4.23,0,0,0-.1-1.179c.448.1.47-.272.87-.222a2.825,2.825,0,0,1,.676.76,1.308,1.308,0,0,1,1.063,1.5c.468-.071.019-.6.389-.643a6.305,6.305,0,0,0,.285,2.473c-.289.28-.1.4,0,.755,0,.209-.264.133-.188.43a21.086,21.086,0,0,0,0,3.111c.252.184.427.461.67.65.272.415.248,1.154.583,1.5-.111.017-.084.193-.093.326.39.156.491.659.676,1.073.289-.085.275.187.569.1.015-.456-.187-.359-.187-.962-.054,0-.107-.091,0-.111v.111c.207-.058.179.148.187.317a3.7,3.7,0,0,1,.778.865,2.791,2.791,0,0,0,.381,1.61c.8.22,1.272.775,2.229.538a3.607,3.607,0,0,0,.38.752c.364-.08.464.126.771.108a1.136,1.136,0,0,0,.485.537v.321c.555.067.666.619,1.16.75.095-.14.091-.395.287-.42a4.464,4.464,0,0,0,.29.961c0,.216-.26.138-.193.432.051.548-.3.657-.384,1.076-.191.748.39,1.158,0,1.5.167.2.477.255.674.427-.082.162-.313.154-.488.212a1.236,1.236,0,0,0,.874,1.4c.045.261-.172.238-.095.539.363.314.491.884,1.063.969a3.659,3.659,0,0,1,.482,1.5c-.1.146-.1.394-.191.537.13.071.175.234.191.432-.264.484.118,1.048,0,1.716-.525.346-.285,1.554-.482,2.261.144.3.4-.188.482.1.087.528-.328.5-.482.754-.121.348.309.082.194.429-.184.263.1.523-.1.859.093.731.418,1.107.2,1.721.284.259.259.857.579,1.077-.009.192.11.23.095.426a1.83,1.83,0,0,1,.577.322c.363-.061.991.182,1.061-.21a.89.89,0,0,1-.575-.436c.066-.359-.391-.131-.295-.533-.035-.469.276-.552.295-.968.245-.012.371-.153.385-.429.044-.383-.337-.264-.288-.642.251-.339.651-1.4,0-1.509.647.182.621-.379.766-.748.52.035.7-.3,1.068-.431.063-.506-.159-.692-.2-1.071h.779c0-.114.109-.091.19-.114.05-.262.086-.554.384-.537-.03-.607.367-.74.577-1.081v-.749c.181-.186.3-.451.481-.644a6.99,6.99,0,0,0,.869-.321c.044-.688.511-1.29.2-2.04a.555.555,0,0,0,.193-.544c.151.038.168-.1.3-.1.029-.354.28-.478.381-.754.259-.277-.015-.517.292-.643-.074-.327.095-.389.095-.647A2.552,2.552,0,0,0-1064.527-329.736Zm-4.439-17.842c.052.056-.067.138-.1.105C-1069.108-347.526-1068.99-347.607-1068.966-347.578Zm-7.431-8.39c.294.108-.112.291-.1.434C-1076.79-355.637-1076.452-355.9-1076.4-355.968Zm-.388.539c.305-.047.343.2.676.109,0,.429-.376.445-.676.537Zm-2.984.216c-.057-.05.059-.136.092-.107C-1079.629-355.263-1079.749-355.18-1079.769-355.213Zm-2.032,15.482c.018-.121.09-.06.09,0C-1081.725-339.609-1081.8-339.671-1081.8-339.731Zm.09.214c.229.033.223.328.392.425C-1081.445-338.816-1081.789-339.2-1081.711-339.517Z" fill="#5eb4e7"/>
        <path id="패스_29034" data-name="패스 29034" d="M-1044.826-354.351c-.142-.491-.6-.631-.485-1.4.683-.066.933-.605,1.443-.859.61.066.919-.2.966-.753h-.477c-.024.085-.005.211-.1.211a6.057,6.057,0,0,0-1.83.649c.045.555-.468.481-.391,1.072-.118.228-.362.317-.381.646a6.5,6.5,0,0,0,.962.642A.264.264,0,0,1-1044.826-354.351Z" fill="#5eb4e7"/>
        <path id="패스_29035" data-name="패스 29035" d="M-1028.707-356.285c.232-.172.341-.473.586-.642-.378-.054-.451-.5-.785-.434-.036.005-.091.253-.187.211h-.586C-1029.8-356.363-1028.978-356.627-1028.707-356.285Z" fill="#5eb4e7"/>
        <path id="패스_29036" data-name="패스 29036" d="M-1059.5-351.45c.014-.276.362-.171.482-.322.1-.548-.216-.615-.188-1.073-.43.14-.57-.071-.97.107-.265-.063-.242-.451-.579-.431.115.521-.381.359-.381.751.268.091.245-.147.482-.1-.059.255-.378.226-.3.644.483-.146.378.367.676.427C-1060.191-351.668-1059.607-351.564-1059.5-351.45Z" fill="#5eb4e7"/>
        <path id="패스_29037" data-name="패스 29037" d="M-1072.73-351.45c-.386-.115-.136-.272-.386-.54-.291.078-.279-.182-.576-.1-.143.2-.054.655-.485.54.017.375.315.426.672.425C-1073.532-351.972-1072.841-350.778-1072.73-351.45Z" fill="#5eb4e7"/>
        <path id="패스_29038" data-name="패스 29038" d="M-1055.737-347.578c-.13-.112-.295-.179-.382-.321.112-.637-.648-.738-.295-1.29a1.8,1.8,0,0,1-.39-.324c.144-.1.309-.161.293-.429a1.44,1.44,0,0,0-.775.207c.075.589-.152.836-.094,1.4a1.774,1.774,0,0,0,.479.218c.042.379-.324.59-.479.426a1.361,1.361,0,0,0,.194.971c-.169.1-.517-.008-.487.322a6.82,6.82,0,0,1,1.554-.107C-1056.046-346.962-1056.1-347.271-1055.737-347.578Z" fill="#5eb4e7"/>
        <path id="패스_29039" data-name="패스 29039" d="M-1058.344-347.145c.216-.122.582-.068.771-.218a2.554,2.554,0,0,1,0-.971h-.483c-.01.48-.216.139-.385.325C-1058.427-347.7-1058.491-347.308-1058.344-347.145Z" fill="#5eb4e7"/>
        <path id="패스_29040" data-name="패스 29040" d="M-1025.24-344.031c.189.012.076.354.3.321.206-.26.18-.8.579-.857-.513-.083-.831-.376-1.358-.433a7.076,7.076,0,0,1-.1,1.183C-1025.549-343.527-1025.567-344.091-1025.24-344.031Z" fill="#5eb4e7"/>
        <path id="패스_29041" data-name="패스 29041" d="M-1027.454-340.7c-.017.375.23.461.388.638a1.027,1.027,0,0,1,.575-.746.39.39,0,0,1,.285.108c.32-.414.952-.457,1.267-.864-.025-.764-.218-1.336-.2-2.149h-.38c.111.5-.059.754.1,1.29-.078.028-.115.088-.1.216a2.585,2.585,0,0,0-.873.643c-.338.2-.957.085-.961.645-.045.3.52-.08.482.219Z" fill="#5eb4e7"/>
        <path id="패스_29042" data-name="패스 29042" d="M-1051.005-341.561c.025.3.318.089.571.328.072-.406-.146-.478-.479-.433C-1050.9-341.579-1050.947-341.567-1051.005-341.561Z" fill="#5eb4e7"/>
        <path id="패스_29043" data-name="패스 29043" d="M-1029.487-337.907a1.128,1.128,0,0,1,.3.647c.392-.023.364-.523.378-.969C-1029.046-338.462-1029.377-338.147-1029.487-337.907Z" fill="#5eb4e7"/>
        <path id="패스_29044" data-name="패스 29044" d="M-1074.177-338.229v.435h.386A.388.388,0,0,0-1074.177-338.229Z" fill="#5eb4e7"/>
        <path id="패스_29045" data-name="패스 29045" d="M-1073.116-337.691a.739.739,0,0,0-.093-.538h-.3C-1073.532-337.86-1073.476-337.611-1073.116-337.691Z" fill="#5eb4e7"/>
        <path id="패스_29046" data-name="패스 29046" d="M-1073.021-337.794v.534c.208.043.26-.07.392-.109C-1072.646-337.639-1072.769-337.783-1073.021-337.794Z" fill="#5eb4e7"/>
        <path id="패스_29047" data-name="패스 29047" d="M-1073.209-336.075c.343-.062.468.125.677.214.008-.307.4-.2.674-.214-.14-.717-.674-.616-1.258-.645.075-.293-.191-.223-.191-.425-.213-.123-.531-.132-.579-.439h-1.444c-.045.2-.209.27-.2.543.395.042.39-.355.863-.219.417.086.46.575.874.649.226.066.7-.138.77.1C-1073.375-336.495-1073.258-336.349-1073.209-336.075Z" fill="#5eb4e7"/>
        <path id="패스_29048" data-name="패스 29048" d="M-1072.248-337.26c-.025-.145-.239-.091-.381-.109C-1072.838-336.967-1072.139-336.877-1072.248-337.26Z" fill="#5eb4e7"/>
        <path id="패스_29049" data-name="패스 29049" d="M-1029.093-336.075a2.087,2.087,0,0,0,.579.645c.12-.336.443-.435.393-.969A.543.543,0,0,0-1029.093-336.075Z" fill="#5eb4e7"/>
        <path id="패스_29050" data-name="패스 29050" d="M-1031.411-335.753c.27-.065.27-.415.385-.646a.479.479,0,0,0-.385-.109C-1031.595-336.09-1031.537-336.422-1031.411-335.753Z" fill="#5eb4e7"/>
        <path id="패스_29051" data-name="패스 29051" d="M-1074.274-336.292v.431c.326-.117.335.037.673-.107C-1073.532-336.4-1073.963-336.277-1074.274-336.292Z" fill="#5eb4e7"/>
        <path id="패스_29052" data-name="패스 29052" d="M-1071.671-335.861c.35.025.668.025.581-.431h-.581Z" fill="#5eb4e7"/>
        <path id="패스_29053" data-name="패스 29053" d="M-1061.532-335.861c0,.211-.266.14-.2.431h.388C-1061.312-335.678-1061.365-335.836-1061.532-335.861Z" fill="#5eb4e7"/>
        <path id="패스_29054" data-name="패스 29054" d="M-1028.324-334.142c.2.233.274-.052.583,0-.029.245-.209.467.092.537a.747.747,0,0,1,.875-.426c.085-.495-.311-.443-.484-.647.018-.352-.116-.521-.391-.538-.135.14-.092.466-.092.753C-1028.071-334.647-1028.161-334.4-1028.324-334.142Z" fill="#5eb4e7"/>
        <path id="패스_29055" data-name="패스 29055" d="M-1037.884-333.823c.142.643-.36.769,0,1.08.305.047.257-.289.485-.326A1.49,1.49,0,0,0-1037.884-333.823Z" fill="#5eb4e7"/>
        <path id="패스_29056" data-name="패스 29056" d="M-1031.514-330.917c.1.433.519.5.488,1.076.628-.162.531.482,1.16.323-.035-.245.276-.122.289-.323-.071-.025-.192,0-.192-.11.32-.15.163-.822.486-.966-.22-.346.079-.713-.1-.965a.469.469,0,0,0,.29-.534c-.236-.208-.426-.467-.872-.439C-1030.051-331.733-1031.339-331.948-1031.514-330.917Z" fill="#5eb4e7"/>
        <path id="패스_29057" data-name="패스 29057" d="M-1033.348-331.672c-.138-.249-.449-.424-.377-.744-.266.072-.2-.224-.392-.224.021.476-.231-.009-.482.105,0,1.261,1.358,1,1.163,2.477.476.06.609.768,1.058.54.223-.414-.2-.88-.189-1.4A3.449,3.449,0,0,1-1033.348-331.672Z" fill="#5eb4e7"/>
        <path id="패스_29058" data-name="패스 29058" d="M-1027.935-330.806c-.023-.48-.608-.33-.772-.647-.5.443-.838,1.636-.1,2.04-.014-.31.03-.544.2-.645.21.206.225.546.576.322-.048-.444-.376-.588-.39-1.07A.34.34,0,0,0-1027.935-330.806Z" fill="#5eb4e7"/>
        <path id="패스_29059" data-name="패스 29059" d="M-1025.815-331.239c-.313-.218-1.086-.177-1.057.322C-1026.542-330.683-1025.834-330.8-1025.815-331.239Z" fill="#5eb4e7"/>
        <path id="패스_29060" data-name="패스 29060" d="M-1024.752-330.806h-.671c-.089.154-.144.338-.392.322-.293.079-.184-.3-.473-.215.024.276-.384.081-.3.424.016.244.243-.133.485,0a9.9,9.9,0,0,1,1.351,1.08v.644c.517-.347.676.221,1.068.323.337-.019.227-.528.671-.435.227.155.478.823.87.435-.207-.1-.3-.32-.294-.647-.252-.253-.6-.394-.769-.752v-.324C-1023.951-329.978-1024.156-330.612-1024.752-330.806Z" fill="#5eb4e7"/>
        <path id="패스_29061" data-name="패스 29061" d="M-1029.866-328.339c.048-.377-.342-.262-.29-.642a4.874,4.874,0,0,1-1.931-.432c-.088.194-.272.28-.193.647C-1031.353-328.753-1030.925-328.2-1029.866-328.339Z" fill="#5eb4e7"/>
        <path id="패스_29062" data-name="패스 29062" d="M-1022.724-324.144c.035-.509-.173-.742-.1-1.29-.187-.072-.219-.33-.384-.431-.039-.819-.69-.952-.58-1.932-.184.02-.212-.124-.382-.108-.251.437.1,1.55-.3,1.83-.377.134-.19-.36-.577-.218-.014-.3-.459-.132-.381-.536-.053-.344.47-.043.381-.432-.337-.413-1.323-.106-1.83-.322-.168.066.007.507-.194.535a3.362,3.362,0,0,0-.965.326c-.124.324-.04.895-.39.969-.229-.258-.469.012-.766,0-.19.074.015.6-.2.643-.2-.062-.194-.324-.386-.11-.237.27-.132.929-.488,1.076-.212.15-.638.072-.769.324a2.589,2.589,0,0,1,.1,1.615c.184.071.258.28.292.532.051.495-.175.671-.1,1.182.283-.024.3.246.583.219.4-.194.637-.577,1.347-.431a1.991,1.991,0,0,1,1.836-.537,1.9,1.9,0,0,1,.58.968c.375-.2.261.248.675,0,0,.28.034.614-.1.754a2.968,2.968,0,0,0,1.933.431c.246-.2.425-.466.766-.546-.048-.548.469-.482.392-1.07.328-.026.252-.517.581-.537-.107-.382.164-.607.193-.965a8.211,8.211,0,0,0-.29-1.939C-1022.483-324.291-1022.641-323.825-1022.724-324.144Z" fill="#5eb4e7"/>
        <path id="패스_29063" data-name="패스 29063" d="M-1045.214-327.583a3.412,3.412,0,0,0-.391,1.078,1.6,1.6,0,0,0-.863.752c-.079.371.139.416.095.75a2.4,2.4,0,0,1-.293.651c.212.48-.071.906.293,1.282.309.024.405-.186.768-.108a11.225,11.225,0,0,1,.391-1.174v-.544c.014-.119.1-.167.188-.214-.174-.471.185-.915.2-1.719C-1045.191-326.829-1044.814-327.631-1045.214-327.583Z" fill="#5eb4e7"/>
        <path id="패스_29064" data-name="패스 29064" d="M-1017.415-320.272c.023-.307.011-.589-.284-.534v.855c-.083.313-.46.277-.394.751.653-.1.222.321.2.65.608-.032.632-.732.864-1.184.146-.162.4-.2.488-.435C-1016.778-320.5-1016.963-320.23-1017.415-320.272Z" fill="#5eb4e7"/>
        <path id="패스_29065" data-name="패스 29065" d="M-1018.478-318.984c-.083.228-.29.322-.29.645a.52.52,0,0,0-.382.107c-.168.215-.229.536-.482.645-.4.167-.523.645-.682,1.078.314-.177.523-.053.87,0,.091-.255.392-.29.294-.754h.382c.029-.614.763-.442.768-1.076C-1018.029-318.7-1018.282-318.8-1018.478-318.984Z" fill="#5eb4e7"/>
        <path id="패스_29066" data-name="패스 29066" d="M-1025.042-318.662c-.106.162.313.645.387.966.468-.05.773-.28.676-.966C-1024.4-318.578-1024.873-318.8-1025.042-318.662Z" fill="#5eb4e7"/>
        <path id="패스_29067" data-name="패스 29067" d="M-1068.768-315.33h.382C-1068.318-315.753-1068.792-315.681-1068.768-315.33Z" fill="#5eb4e7"/>
      </g>
      <g id="그룹_18541" data-name="그룹 18541">
        <g id="그룹_18540" data-name="그룹 18540">
          <path id="패스_29068" data-name="패스 29068" d="M-1078-342.167a1.271,1.271,0,0,0-1.271,1.27,2.976,2.976,0,0,0,1.271,1.971c.346,0,1.27-1.271,1.27-1.971A1.271,1.271,0,0,0-1078-342.167Zm0,1.993a.765.765,0,0,1-.777-.75.764.764,0,0,1,.777-.752.763.763,0,0,1,.776.752A.764.764,0,0,1-1078-340.174Z" fill="#5eb4e7"/>
        </g>
        <path id="패스_29069" data-name="패스 29069" d="M-1078-340.174a.765.765,0,0,1-.777-.75.764.764,0,0,1,.777-.752.763.763,0,0,1,.776.752A.764.764,0,0,1-1078-340.174Z" fill="#5eb4e7"/>
      </g>
      <g id="그룹_18543" data-name="그룹 18543">
        <g id="그룹_18542" data-name="그룹 18542">
          <path id="패스_29070" data-name="패스 29070" d="M-1071.251-346.426a1.271,1.271,0,0,0-1.271,1.27,2.972,2.972,0,0,0,1.271,1.971c.345,0,1.268-1.271,1.268-1.971A1.269,1.269,0,0,0-1071.251-346.426Zm0,1.993a.766.766,0,0,1-.779-.751.765.765,0,0,1,.779-.751.765.765,0,0,1,.776.751A.765.765,0,0,1-1071.251-344.433Z" fill="#5eb4e7"/>
        </g>
        <path id="패스_29071" data-name="패스 29071" d="M-1071.251-344.433a.766.766,0,0,1-.779-.751.765.765,0,0,1,.779-.751.765.765,0,0,1,.776.751A.765.765,0,0,1-1071.251-344.433Z" fill="#5eb4e7"/>
      </g>
      <g id="그룹_18545" data-name="그룹 18545">
        <g id="그룹_18544" data-name="그룹 18544">
          <path id="패스_29072" data-name="패스 29072" d="M-1052.532-345.495a1.271,1.271,0,0,0-1.27,1.274,2.981,2.981,0,0,0,1.27,1.97c.346,0,1.268-1.272,1.268-1.97A1.27,1.27,0,0,0-1052.532-345.495Zm0,1.993a.763.763,0,0,1-.776-.752.763.763,0,0,1,.776-.75.763.763,0,0,1,.774.75A.762.762,0,0,1-1052.532-343.5Z" fill="#5eb4e7"/>
        </g>
        <path id="패스_29073" data-name="패스 29073" d="M-1052.532-343.5a.763.763,0,0,1-.776-.752.763.763,0,0,1,.776-.75.763.763,0,0,1,.774.75A.762.762,0,0,1-1052.532-343.5Z" fill="#5eb4e7"/>
      </g>
      <g id="그룹_18547" data-name="그룹 18547">
        <g id="그룹_18546" data-name="그룹 18546">
          <path id="패스_29074" data-name="패스 29074" d="M-1037.178-352.41a1.266,1.266,0,0,0-1.269,1.267,2.978,2.978,0,0,0,1.269,1.972c.348,0,1.27-1.271,1.27-1.972A1.267,1.267,0,0,0-1037.178-352.41Zm0,1.99a.765.765,0,0,1-.775-.754.761.761,0,0,1,.775-.746.761.761,0,0,1,.776.746A.765.765,0,0,1-1037.178-350.42Z" fill="#5eb4e7"/>
        </g>
        <path id="패스_29075" data-name="패스 29075" d="M-1037.178-350.42a.765.765,0,0,1-.775-.754.761.761,0,0,1,.775-.746.761.761,0,0,1,.776.746A.765.765,0,0,1-1037.178-350.42Z" fill="#5eb4e7"/>
      </g>
      <g id="그룹_18549" data-name="그룹 18549">
        <g id="그룹_18548" data-name="그룹 18548">
          <path id="패스_29076" data-name="패스 29076" d="M-1032.565-341.806a1.271,1.271,0,0,0-1.269,1.269,2.972,2.972,0,0,0,1.269,1.972c.346,0,1.27-1.269,1.27-1.972A1.27,1.27,0,0,0-1032.565-341.806Zm0,1.991a.763.763,0,0,1-.776-.747.761.761,0,0,1,.776-.751.761.761,0,0,1,.776.751A.762.762,0,0,1-1032.565-339.815Z" fill="#5eb4e7"/>
        </g>
        <path id="패스_29077" data-name="패스 29077" d="M-1032.565-339.815a.763.763,0,0,1-.776-.747.761.761,0,0,1,.776-.751.761.761,0,0,1,.776.751A.762.762,0,0,1-1032.565-339.815Z" fill="#5eb4e7"/>
      </g>
      <g id="그룹_18551" data-name="그룹 18551">
        <g id="그룹_18550" data-name="그룹 18550">
          <path id="패스_29078" data-name="패스 29078" d="M-1044.251-342.156a1.27,1.27,0,0,0-1.272,1.27,2.979,2.979,0,0,0,1.272,1.969c.346,0,1.269-1.269,1.269-1.969A1.268,1.268,0,0,0-1044.251-342.156Zm0,1.989a.762.762,0,0,1-.776-.749.762.762,0,0,1,.776-.75.763.763,0,0,1,.777.75A.764.764,0,0,1-1044.251-340.167Z" fill="#5eb4e7"/>
        </g>
        <path id="패스_29079" data-name="패스 29079" d="M-1044.251-340.167a.762.762,0,0,1-.776-.749.762.762,0,0,1,.776-.75.763.763,0,0,1,.777.75A.764.764,0,0,1-1044.251-340.167Z" fill="#5eb4e7"/>
      </g>
      <g id="그룹_18553" data-name="그룹 18553">
        <g id="그룹_18552" data-name="그룹 18552">
          <path id="패스_29080" data-name="패스 29080" d="M-1022.786-326.623a1.27,1.27,0,0,0-1.27,1.27,2.982,2.982,0,0,0,1.27,1.975c.345,0,1.269-1.275,1.269-1.975A1.269,1.269,0,0,0-1022.786-326.623Zm0,1.991a.765.765,0,0,1-.779-.75.767.767,0,0,1,.779-.751.766.766,0,0,1,.776.751A.764.764,0,0,1-1022.786-324.632Z" fill="#5eb4e7"/>
        </g>
        <path id="패스_29081" data-name="패스 29081" d="M-1022.786-324.632a.765.765,0,0,1-.779-.75.767.767,0,0,1,.779-.751.766.766,0,0,1,.776.751A.764.764,0,0,1-1022.786-324.632Z" fill="#5eb4e7"/>
      </g>
      <g id="그룹_18555" data-name="그룹 18555">
        <g id="그룹_18554" data-name="그룹 18554">
          <path id="패스_29082" data-name="패스 29082" d="M-1075.24-337.318a1.271,1.271,0,0,0-1.27,1.272,2.973,2.973,0,0,0,1.27,1.972c.346,0,1.271-1.27,1.271-1.972A1.272,1.272,0,0,0-1075.24-337.318Zm0,1.995a.766.766,0,0,1-.777-.752.767.767,0,0,1,.777-.753.769.769,0,0,1,.779.753A.768.768,0,0,1-1075.24-335.323Z" fill="#5eb4e7"/>
        </g>
        <path id="패스_29083" data-name="패스 29083" d="M-1075.24-335.323a.766.766,0,0,1-.777-.752.767.767,0,0,1,.777-.753.769.769,0,0,1,.779.753A.768.768,0,0,1-1075.24-335.323Z" fill="#5eb4e7"/>
      </g>
      <g id="그룹_18557" data-name="그룹 18557">
        <g id="그룹_18556" data-name="그룹 18556">
          <path id="패스_29084" data-name="패스 29084" d="M-1056.8-351.508a1.27,1.27,0,0,0-1.269,1.274,2.975,2.975,0,0,0,1.269,1.97c.346,0,1.269-1.27,1.269-1.97A1.27,1.27,0,0,0-1056.8-351.508Zm0,1.995a.762.762,0,0,1-.776-.75.766.766,0,0,1,.776-.754.766.766,0,0,1,.776.754A.763.763,0,0,1-1056.8-349.513Z" fill="#5eb4e7"/>
        </g>
        <path id="패스_29085" data-name="패스 29085" d="M-1056.8-349.513a.762.762,0,0,1-.776-.75.766.766,0,0,1,.776-.754.766.766,0,0,1,.776.754A.763.763,0,0,1-1056.8-349.513Z" fill="#5eb4e7"/>
      </g>
      <g id="그룹_18559" data-name="그룹 18559">
        <g id="그룹_18558" data-name="그룹 18558">
          <path id="패스_29086" data-name="패스 29086" d="M-1046.807-351.854a1.269,1.269,0,0,0-1.27,1.269,2.974,2.974,0,0,0,1.27,1.97c.345,0,1.268-1.269,1.268-1.97A1.267,1.267,0,0,0-1046.807-351.854Zm0,1.991a.762.762,0,0,1-.776-.748.763.763,0,0,1,.776-.753.762.762,0,0,1,.775.753A.761.761,0,0,1-1046.807-349.863Z" fill="#5eb4e7"/>
        </g>
        <path id="패스_29087" data-name="패스 29087" d="M-1046.807-349.863a.762.762,0,0,1-.776-.748.763.763,0,0,1,.776-.753.762.762,0,0,1,.775.753A.761.761,0,0,1-1046.807-349.863Z" fill="#5eb4e7"/>
      </g>
    </g>
    <g id="그룹_18562" data-name="그룹 18562">
      <g id="그룹_18561" data-name="그룹 18561">
        <path id="패스_29088" data-name="패스 29088" d="M-1071.791-369.531a8.792,8.792,0,0,0-8.794,8.793c0,4.86,8.794,12.357,8.794,12.357s8.794-7.5,8.794-12.357A8.792,8.792,0,0,0-1071.791-369.531Z" fill="#fff"/>
        <path id="패스_29089" data-name="패스 29089" d="M-1071.791-346.343l-1.006-.858c-.956-.815-9.339-8.118-9.339-13.537a10.356,10.356,0,0,1,10.345-10.343,10.355,10.355,0,0,1,10.344,10.343c0,5.419-8.382,12.722-9.338,13.537Zm0-21.637a7.252,7.252,0,0,0-7.244,7.242c0,2.717,4.1,7.394,7.244,10.285,3.144-2.894,7.243-7.573,7.243-10.285A7.251,7.251,0,0,0-1071.791-367.98Z" fill="#282d33"/>
      </g>
      <path id="패스_29090" data-name="패스 29090" d="M-1071.791-356.373a4.365,4.365,0,0,1-4.367-4.365,4.365,4.365,0,0,1,4.367-4.364,4.361,4.361,0,0,1,4.363,4.364A4.362,4.362,0,0,1-1071.791-356.373Z" fill="#f8c44f"/>
    </g>
    <g id="그룹_18565" data-name="그룹 18565">
      <g id="그룹_18563" data-name="그룹 18563">
        <path id="패스_29091" data-name="패스 29091" d="M-1025.082-348.6a8.791,8.791,0,0,0-8.794,8.793c0,4.86,8.794,12.356,8.794,12.356s8.794-7.5,8.794-12.356A8.791,8.791,0,0,0-1025.082-348.6Z" fill="#fff"/>
        <path id="패스_29092" data-name="패스 29092" d="M-1025.082-325.413l-1.006-.857c-.955-.815-9.338-8.117-9.338-13.536a10.354,10.354,0,0,1,10.344-10.343,10.354,10.354,0,0,1,10.344,10.343c0,5.419-8.382,12.721-9.338,13.536Zm0-21.635a7.251,7.251,0,0,0-7.243,7.242c0,2.711,4.1,7.39,7.243,10.283,3.145-2.893,7.243-7.572,7.243-10.283A7.251,7.251,0,0,0-1025.082-347.048Z" fill="#282d33"/>
      </g>
      <g id="그룹_18564" data-name="그룹 18564">
        <path id="패스_29093" data-name="패스 29093" d="M-1025.083-336.224a3.583,3.583,0,0,1-3.583-3.582,3.581,3.581,0,0,1,3.583-3.58,3.578,3.578,0,0,1,3.58,3.58A3.58,3.58,0,0,1-1025.083-336.224Z" fill="#fff"/>
        <path id="패스_29094" data-name="패스 29094" d="M-1025.083-334.674a5.138,5.138,0,0,1-5.133-5.132,5.138,5.138,0,0,1,5.133-5.131,5.136,5.136,0,0,1,5.13,5.131A5.136,5.136,0,0,1-1025.083-334.674Zm0-7.162a2.034,2.034,0,0,0-2.032,2.03,2.034,2.034,0,0,0,2.032,2.031,2.032,2.032,0,0,0,2.029-2.031A2.032,2.032,0,0,0-1025.083-341.836Z" fill="#282d33"/>
      </g>
    </g>
  </g>
</svg>
