<svg xmlns="http://www.w3.org/2000/svg" width="94.561" height="48.536" viewBox="0 0 94.561 48.536">
  <g id="그룹_19310" data-name="그룹 19310" transform="translate(1283.945 180.415)">
    <g id="그룹_19300" data-name="그룹 19300">
      <g id="그룹_19299" data-name="그룹 19299">
        <g id="그룹_19282" data-name="그룹 19282">
          <g id="그룹_19280" data-name="그룹 19280">
            <path id="패스_29423" data-name="패스 29423" d="M-1266.255-153.609a7.271,7.271,0,0,0,3.194,4.759,3.06,3.06,0,0,1,.321-1.519l1.079-2.155a3.066,3.066,0,0,1,4.119-1.369,3.066,3.066,0,0,1,1.366,4.113l-1.078,2.156a3.073,3.073,0,0,1-1.074,1.2l2.422,1.209a3.016,3.016,0,0,1,.313-1.573l2.553-5.1a3.063,3.063,0,0,1,4.114-1.368,3.066,3.066,0,0,1,1.371,4.112l-2.553,5.1a3.027,3.027,0,0,1-1.069,1.2l2.147,1.073a3,3,0,0,1,.314-1.572l3.149-6.3a3.069,3.069,0,0,1,4.116-1.37,3.074,3.074,0,0,1,1.372,4.118l-3.153,6.29a3.042,3.042,0,0,1-1.071,1.2l2.147,1.073a3.046,3.046,0,0,1,.313-1.579l1.079-2.154a3.069,3.069,0,0,1,4.117-1.369,3.068,3.068,0,0,1,1.375,4.114l-1.082,2.158a3.055,3.055,0,0,1-1.023,1.163c.16.06.324.118.489.169l4.063,2.029a3.065,3.065,0,0,0,4.114-1.365,3.077,3.077,0,0,0-.322-3.258,7.406,7.406,0,0,0,.487-.744l2.6,1.3a3.069,3.069,0,0,0,4.114-1.368,3.07,3.07,0,0,0-1.371-4.117l-2.58-1.293.268-.531,6.065,3.037a3.068,3.068,0,0,0,4.114-1.371,3.064,3.064,0,0,0-1.368-4.116l-6.094-3.049c.078-.187.141-.375.2-.564l8.915,4.463a3.066,3.066,0,0,0,4.114-1.37,3.069,3.069,0,0,0-1.37-4.115l-15.486-7.752a13.523,13.523,0,0,1-2.4-.309,12.059,12.059,0,0,1-7.2-4.493l-.075-.035.01.079-5.983.624-.218,1.145a5.324,5.324,0,0,1-6.278,4.151l-1.737-.354c-.072-.017-.143-.04-.215-.057l2.144-10.442,7.638-1.576,3.89-.747,3.715.822-1.131-3.572-.087-.011-7.677-.767-3.943-.337-12.638,4.207-2.945-1.369" fill="#fff"/>
          </g>
          <g id="그룹_19281" data-name="그룹 19281">
            <path id="패스_29424" data-name="패스 29424" d="M-1231.455-131.879a4.637,4.637,0,0,1-2.087-.5l-3.946-1.971c-.151-.05-.3-.1-.447-.157l-2.885-1.079.253-.172-6.935-3.467.005,0-6.887-3.444.005,0-6.959-3.474.015.316-2.6-1.68a8.909,8.909,0,0,1-3.9-5.8l3.132-.594a5.738,5.738,0,0,0,.874,2.123l.729-1.454a4.625,4.625,0,0,1,2.7-2.338,4.636,4.636,0,0,1,3.563.258,4.629,4.629,0,0,1,2.332,2.7l.016.049.013-.027a4.629,4.629,0,0,1,2.7-2.336,4.623,4.623,0,0,1,3.558.257,4.638,4.638,0,0,1,2.38,2.844,4.656,4.656,0,0,1,1.535-.857,4.631,4.631,0,0,1,3.558.253,4.674,4.674,0,0,1,2.085,6.254l-.485.968a4.628,4.628,0,0,1,3.2.357,4.667,4.667,0,0,1,2.088,6.252l-1.008,2.011,2.741,1.37a1.465,1.465,0,0,0,1.124.083,1.466,1.466,0,0,0,.854-.738,1.488,1.488,0,0,0-.158-1.565l-.746-.963.733-.973a5.766,5.766,0,0,0,.38-.584l.752-1.3,3.943,1.971a1.473,1.473,0,0,0,1.976-.655,1.477,1.477,0,0,0-.657-1.977l-4.01-2.012,1.7-3.376,7.486,3.749a1.472,1.472,0,0,0,1.124.079,1.462,1.462,0,0,0,.85-.736,1.465,1.465,0,0,0,.082-1.129,1.459,1.459,0,0,0-.736-.85l-7.43-3.717.578-1.375c.06-.144.107-.289.154-.435l.569-1.769,10.578,5.295a1.449,1.449,0,0,0,1.118.081,1.463,1.463,0,0,0,.857-.74,1.475,1.475,0,0,0-.658-1.976l-15.187-7.6a15.19,15.19,0,0,1-2.33-.327,14.008,14.008,0,0,1-7.533-4.339l-4.028.42a6.932,6.932,0,0,1-8.157,5.4l-1.738-.354c-.106-.024-.166-.04-.227-.057l-1.491-.365.26-1.518,2.354-11.47,8.667-1.788,3.478-.668-4.6-.46-3.593-.307-12.926,4.3-3.52-1.637,1.344-2.891,2.371,1.1,12.348-4.11,4.271.365,8.84.911,2.272,7.181-6.091-1.348-3.566.685-6.589,1.359-1.614,7.862.39.081a3.736,3.736,0,0,0,4.4-2.909l.436-2.288,5.555-.58-.156-1.321,3.042,1.427.242.333a10.506,10.506,0,0,0,6.252,3.871,11.983,11.983,0,0,0,2.119.273l.344.013,15.8,7.906a4.667,4.667,0,0,1,2.081,6.255,4.635,4.635,0,0,1-2.7,2.339,4.63,4.63,0,0,1-2.569.1,4.634,4.634,0,0,1-.5,2.193,4.621,4.621,0,0,1-2.694,2.335,4.633,4.633,0,0,1-3.311-.138,4.648,4.648,0,0,1-.488,2.073,4.669,4.669,0,0,1-6.254,2.084l-.143-.071a4.645,4.645,0,0,1-.487,2.058,4.636,4.636,0,0,1-2.7,2.336A4.66,4.66,0,0,1-1231.455-131.879Zm-6.563-10.286a1.486,1.486,0,0,0-.469.076,1.456,1.456,0,0,0-.851.737l-1.08,2.155a1.454,1.454,0,0,0-.148.752l.181,2.565,2.111-1.437a1.452,1.452,0,0,0,.494-.558l1.083-2.159a1.476,1.476,0,0,0-.663-1.975A1.467,1.467,0,0,0-1238.018-142.165Zm-4.8-7.579a1.507,1.507,0,0,0-.468.076,1.463,1.463,0,0,0-.852.738l-3.149,6.3a1.4,1.4,0,0,0-.15.747l.177,2.509,2.089-1.363a1.436,1.436,0,0,0,.515-.574l3.154-6.295a1.479,1.479,0,0,0-.66-1.978A1.455,1.455,0,0,0-1242.821-149.744Zm-7.479-2.243a1.46,1.46,0,0,0-.464.076,1.456,1.456,0,0,0-.85.738l-2.554,5.1a1.434,1.434,0,0,0-.148.744l.18,2.5,2.092-1.356a1.438,1.438,0,0,0,.509-.569l2.555-5.1a1.472,1.472,0,0,0-.658-1.972A1.464,1.464,0,0,0-1250.3-151.987Zm-8.618-.639a1.473,1.473,0,0,0-.466.076,1.462,1.462,0,0,0-.851.739l-1.08,2.156a1.444,1.444,0,0,0-.153.73l.12,2.571,2.146-1.406a1.462,1.462,0,0,0,.521-.575l1.08-2.158a1.462,1.462,0,0,0,.08-1.123,1.462,1.462,0,0,0-.736-.852A1.468,1.468,0,0,0-1258.918-152.626Z" fill="#282d33"/>
          </g>
        </g>
        <g id="그룹_19298" data-name="그룹 19298">
          <g id="그룹_19285" data-name="그룹 19285">
            <g id="그룹_19283" data-name="그룹 19283">
              <path id="패스_29425" data-name="패스 29425" d="M-1236.647-143.434a3.069,3.069,0,0,0-4.117,1.369l-1.079,2.154a3.073,3.073,0,0,0,1.371,4.119,3.074,3.074,0,0,0,4.118-1.37l1.082-2.158A3.068,3.068,0,0,0-1236.647-143.434Z" fill="#f8c44f"/>
            </g>
            <g id="그룹_19284" data-name="그룹 19284">
              <path id="패스_29426" data-name="패스 29426" d="M-1239.1-133.874h0a4.674,4.674,0,0,1-2.08-.492,4.675,4.675,0,0,1-2.086-6.256l1.081-2.156a4.635,4.635,0,0,1,4.171-2.575,4.672,4.672,0,0,1,2.084.493,4.667,4.667,0,0,1,2.088,6.252l-1.083,2.16A4.647,4.647,0,0,1-1239.1-133.874Zm1.086-8.291a1.464,1.464,0,0,0-1.32.813l-1.08,2.155a1.482,1.482,0,0,0,.661,1.981,1.507,1.507,0,0,0,1.978-.662l1.082-2.156a1.476,1.476,0,0,0-.663-1.975A1.467,1.467,0,0,0-1238.018-142.165Z" fill="#282d33"/>
            </g>
          </g>
          <g id="그룹_19288" data-name="그룹 19288">
            <g id="그룹_19286" data-name="그룹 19286">
              <path id="패스_29427" data-name="패스 29427" d="M-1257.542-153.893a3.066,3.066,0,0,0-4.119,1.369l-1.079,2.155a3.062,3.062,0,0,0,1.37,4.116,3.069,3.069,0,0,0,4.116-1.371l1.078-2.156A3.066,3.066,0,0,0-1257.542-153.893Z" fill="#f8c44f"/>
            </g>
            <g id="그룹_19287" data-name="그룹 19287">
              <path id="패스_29428" data-name="패스 29428" d="M-1260-144.335h0a4.679,4.679,0,0,1-2.081-.492,4.622,4.622,0,0,1-2.339-2.691,4.639,4.639,0,0,1,.256-3.566l1.079-2.153a4.634,4.634,0,0,1,4.169-2.577,4.681,4.681,0,0,1,2.09.5,4.629,4.629,0,0,1,2.332,2.7,4.625,4.625,0,0,1-.256,3.557l-1.077,2.154A4.635,4.635,0,0,1-1260-144.335Zm1.084-8.291a1.466,1.466,0,0,0-1.318.815l-1.08,2.156a1.463,1.463,0,0,0-.081,1.127,1.449,1.449,0,0,0,.736.848,1.492,1.492,0,0,0,1.979-.655l1.08-2.158a1.462,1.462,0,0,0,.08-1.123,1.462,1.462,0,0,0-.736-.852A1.458,1.458,0,0,0-1258.917-152.626Z" fill="#282d33"/>
            </g>
          </g>
          <g id="그룹_19291" data-name="그룹 19291">
            <g id="그룹_19289" data-name="그룹 19289">
              <path id="패스_29429" data-name="패스 29429" d="M-1241.451-151.013a3.069,3.069,0,0,0-4.116,1.37l-3.149,6.3a3.063,3.063,0,0,0,1.37,4.114,3.065,3.065,0,0,0,4.114-1.372l3.153-6.29A3.074,3.074,0,0,0-1241.451-151.013Z" fill="#f8c44f"/>
            </g>
            <g id="그룹_19290" data-name="그룹 19290">
              <path id="패스_29430" data-name="패스 29430" d="M-1245.978-137.314h0a4.656,4.656,0,0,1-2.083-.494,4.631,4.631,0,0,1-2.338-2.7,4.613,4.613,0,0,1,.26-3.554l3.146-6.291a4.64,4.64,0,0,1,4.173-2.576,4.68,4.68,0,0,1,2.082.493,4.674,4.674,0,0,1,2.085,6.254l-3.153,6.294A4.638,4.638,0,0,1-1245.978-137.314Zm3.158-12.43a1.467,1.467,0,0,0-1.321.814l-3.149,6.3a1.455,1.455,0,0,0-.083,1.12,1.465,1.465,0,0,0,.741.856,1.49,1.49,0,0,0,1.974-.659l3.153-6.293a1.479,1.479,0,0,0-.66-1.978A1.455,1.455,0,0,0-1242.82-149.744Z" fill="#282d33"/>
            </g>
          </g>
          <g id="그룹_19294" data-name="그룹 19294">
            <g id="그룹_19292" data-name="그룹 19292">
              <path id="패스_29431" data-name="패스 29431" d="M-1248.926-153.254a3.063,3.063,0,0,0-4.114,1.368l-2.553,5.1a3.068,3.068,0,0,0,1.371,4.114,3.063,3.063,0,0,0,4.114-1.37l2.553-5.1A3.066,3.066,0,0,0-1248.926-153.254Z" fill="#f8c44f"/>
            </g>
            <g id="그룹_19293" data-name="그룹 19293">
              <path id="패스_29432" data-name="패스 29432" d="M-1252.851-140.756h0a4.668,4.668,0,0,1-2.087-.5,4.668,4.668,0,0,1-2.082-6.249l2.554-5.1a4.635,4.635,0,0,1,4.168-2.575,4.677,4.677,0,0,1,2.087.5,4.664,4.664,0,0,1,2.083,6.249l-2.554,5.1A4.638,4.638,0,0,1-1252.851-140.756Zm2.553-11.231a1.462,1.462,0,0,0-1.316.814l-2.554,5.1a1.475,1.475,0,0,0,.66,1.974,1.487,1.487,0,0,0,1.975-.657l2.553-5.1a1.472,1.472,0,0,0-.658-1.972A1.449,1.449,0,0,0-1250.3-151.987Z" fill="#282d33"/>
            </g>
          </g>
          <g id="그룹_19297" data-name="그룹 19297">
            <g id="그룹_19295" data-name="그룹 19295">
              <path id="패스_29433" data-name="패스 29433" d="M-1203.37-175.532l-19.685,6.553-13.878-3.065-11.355,2.322-.085.018-2.144,10.442c.072.017.143.04.215.057l1.737.354a5.324,5.324,0,0,0,6.278-4.151l.218-1.145,5.983-.624a21.447,21.447,0,0,0,3.136,2.776.09.09,0,0,0,.027.018c.14.086.278.173.423.253.022.013.047.024.068.035q.2.115.405.218c.035.019.072.035.106.055.125.06.254.125.383.184.052.024.1.043.153.067.12.054.238.106.358.156l.2.077c.109.041.213.083.324.124.086.032.176.059.261.088s.187.067.281.1c.115.035.228.067.342.1.073.02.145.043.22.065.191.048.383.1.576.138s.4.083.6.118l.076.013c.177.028.351.056.527.079l.043.006c.187.023.377.043.564.06h.005c.2.013.4.026.588.033h0l15.36,7.687,13.88-4.618Z" fill="#f8c44f"/>
            </g>
            <g id="그룹_19296" data-name="그룹 19296">
              <path id="패스_29434" data-name="패스 29434" d="M-1211.183-150.6l-15.651-7.832-.228-.015-.1-.007c-.2-.019-.409-.04-.612-.065l-.076-.011c-.208-.027-.38-.055-.553-.083l-.083-.014c-.239-.041-.466-.084-.695-.137-.2-.044-.4-.094-.608-.145l-.646-.189c-.1-.031-.219-.072-.341-.114s-.21-.069-.284-.1l-.563-.216c-.149-.061-.282-.12-.416-.18l-.161-.07c-.1-.047-.2-.1-.3-.143l-.3-.148c-.114-.055-.28-.145-.441-.238l-.1-.053c-.09-.047-.231-.134-.374-.222-.053-.03-.1-.061-.149-.094a19.331,19.331,0,0,1-2.841-2.427l-4.034.421a6.945,6.945,0,0,1-6.773,5.535,6.942,6.942,0,0,1-1.384-.14l-1.738-.354c-.106-.024-.166-.04-.227-.057l-1.491-.365.26-1.518,2.353-11.462,1.1-.236,11.7-2.393,13.78,3.043,20.78-6.917,7.2,21.613Zm-15.717-11.031c.179.012.36.024.533.03l.348.012,15.082,7.547,11.741-3.906-5.182-15.563-18.591,6.188-13.977-3.087-10.077,2.061-1.614,7.861.39.081a3.781,3.781,0,0,0,.749.075,3.74,3.74,0,0,0,3.649-2.984l.436-2.288,7.948-.829.542.578a19.366,19.366,0,0,0,2.817,2.513l.146.091c.087.053.157.1.229.136l.1.052c.1.06.209.117.316.17l.123.063.318.153c.081.034.144.062.2.092.044.018.148.064.253.107l.695.255c.087.031.154.055.223.076l.483.142c.189.049.368.093.548.133s.344.072.514.1c.222.037.381.063.541.083l.054.007C-1227.208-161.667-1227.053-161.651-1226.9-161.636Z" fill="#282d33"/>
            </g>
          </g>
        </g>
      </g>
    </g>
    <g id="그룹_19304" data-name="그룹 19304">
      <g id="그룹_19303" data-name="그룹 19303">
        <g id="그룹_19301" data-name="그룹 19301">
          <rect id="사각형_3827" data-name="사각형 3827" width="14.789" height="25.734" transform="translate(-1213.559 -173.729) rotate(-18.401)" fill="#fff"/>
        </g>
        <g id="그룹_19302" data-name="그룹 19302">
          <path id="패스_29435" data-name="패스 29435" d="M-1206.442-147.3l-9.135-27.438,17.056-5.681,9.137,27.444Zm-5.1-25.421,7.122,21.39,11.007-3.662-7.122-21.394Z" fill="#282d33"/>
        </g>
      </g>
    </g>
    <g id="그룹_19305" data-name="그룹 19305">
      <rect id="사각형_3828" data-name="사각형 3828" width="29.297" height="18.193" transform="matrix(0.316, -0.949, 0.949, 0.316, -1283.945, -152.617)" fill="#5eb4e7"/>
    </g>
    <g id="그룹_19307" data-name="그룹 19307">
      <g id="그룹_19306" data-name="그룹 19306">
        <rect id="사각형_3829" data-name="사각형 3829" width="3.188" height="3.361" transform="matrix(0.316, -0.949, 0.949, 0.316, -1272.14, -151.615)" fill="#fff"/>
      </g>
    </g>
    <g id="그룹_19309" data-name="그룹 19309">
      <g id="그룹_19308" data-name="그룹 19308">
        <rect id="사각형_3830" data-name="사각형 3830" width="2.373" height="3.188" transform="translate(-1203.848 -156.636) rotate(-17.944)" fill="#282d33"/>
      </g>
    </g>
  </g>
</svg>
