<svg xmlns="http://www.w3.org/2000/svg" width="112.143" height="79.35" viewBox="0 0 112.143 79.35">
  <g id="그룹_19928" data-name="그룹 19928" transform="translate(826.764 -2541.73)">
    <g id="그룹_19913" data-name="그룹 19913">
      <g id="그룹_19900" data-name="그룹 19900">
        <path id="패스_29722" data-name="패스 29722" d="M-825.216,2621.08v-5.363a9.3,9.3,0,0,1,9.3-9.3h27.522a9.3,9.3,0,0,1,9.3,9.3h0v5.363" fill="#ccc"/>
        <path id="패스_29723" data-name="패스 29723" d="M-777.538,2621.08h-3.1v-5.363a7.761,7.761,0,0,0-7.752-7.752h-27.522a7.761,7.761,0,0,0-7.752,7.752v5.363h-3.1v-5.363a10.866,10.866,0,0,1,10.853-10.853h27.522a10.865,10.865,0,0,1,10.853,10.853Z" fill="gray"/>
      </g>
      <g id="그룹_19901" data-name="그룹 19901">
        <path id="패스_29724" data-name="패스 29724" d="M-794.268,2611.933l-7.884,4.552-7.884-4.552v-17.215h15.768Z" fill="#fff"/>
        <path id="패스_29725" data-name="패스 29725" d="M-802.152,2618.275l-9.434-5.447v-19.66h18.869v19.66Zm-6.333-7.237,6.333,3.656,6.334-3.656v-14.769h-12.667Z" fill="gray"/>
      </g>
      <g id="그룹_19902" data-name="그룹 19902">
        <rect id="사각형_3959" data-name="사각형 3959" width="7.584" height="10.853" rx="3.64" transform="translate(-820.016 2578.614)" fill="#fff"/>
        <path id="패스_29726" data-name="패스 29726" d="M-816.075,2591.018h-.3a5.2,5.2,0,0,1-5.191-5.191v-3.573a5.2,5.2,0,0,1,5.191-5.19h.3a5.2,5.2,0,0,1,5.191,5.19v3.573A5.2,5.2,0,0,1-816.075,2591.018Zm-.3-10.853a2.092,2.092,0,0,0-2.09,2.089v3.573a2.092,2.092,0,0,0,2.09,2.09h.3a2.092,2.092,0,0,0,2.09-2.09v-3.573a2.091,2.091,0,0,0-2.09-2.089Z" fill="gray"/>
      </g>
      <g id="그룹_19903" data-name="그룹 19903">
        <rect id="사각형_3960" data-name="사각형 3960" width="7.584" height="10.853" rx="3.64" transform="translate(-782.804 2578.614)" fill="#fff"/>
        <path id="패스_29727" data-name="패스 29727" d="M-778.86,2591.018h-.3a5.2,5.2,0,0,1-5.191-5.191v-3.573a5.2,5.2,0,0,1,5.191-5.19h.3a5.2,5.2,0,0,1,5.191,5.19v3.573A5.2,5.2,0,0,1-778.86,2591.018Zm-.3-10.853a2.092,2.092,0,0,0-2.09,2.089v3.573a2.092,2.092,0,0,0,2.09,2.09h.3a2.092,2.092,0,0,0,2.09-2.09v-3.573a2.091,2.091,0,0,0-2.09-2.089Z" fill="gray"/>
      </g>
      <g id="그룹_19904" data-name="그룹 19904">
        <rect id="사각형_3961" data-name="사각형 3961" width="36.437" height="46.127" rx="9.303" transform="translate(-816.14 2555.309)" fill="#fff"/>
        <path id="패스_29728" data-name="패스 29728" d="M-789.006,2602.987h-17.831a10.866,10.866,0,0,1-10.853-10.853v-27.522a10.867,10.867,0,0,1,10.853-10.853h17.831a10.866,10.866,0,0,1,10.854,10.853v27.522A10.865,10.865,0,0,1-789.006,2602.987Zm-17.831-46.127a7.761,7.761,0,0,0-7.752,7.752v27.522a7.76,7.76,0,0,0,7.752,7.752h17.831a7.76,7.76,0,0,0,7.753-7.752v-27.522a7.761,7.761,0,0,0-7.753-7.752Z" fill="gray"/>
      </g>
      <g id="그룹_19906" data-name="그룹 19906">
        <g id="그룹_19905" data-name="그룹 19905">
          <path id="패스_29729" data-name="패스 29729" d="M-809.421,2584.963v6.69a3.07,3.07,0,0,0,3.065,3.065h6.689Z" fill="#fff"/>
          <path id="패스_29730" data-name="패스 29730" d="M-795.924,2596.268h-10.432a4.62,4.62,0,0,1-4.615-4.615V2581.22Zm-11.946-7.561v2.946a1.516,1.516,0,0,0,1.514,1.514h2.946Z" fill="gray"/>
        </g>
      </g>
      <g id="그룹_19907" data-name="그룹 19907">
        <path id="패스_29731" data-name="패스 29731" d="M-803.3,2578.21a6.9,6.9,0,0,1-4.9-2.024l2.193-2.193a3.827,3.827,0,0,0,5.407,0l2.193,2.193A6.9,6.9,0,0,1-803.3,2578.21Z" fill="gray"/>
      </g>
      <g id="그룹_19908" data-name="그룹 19908">
        <path id="패스_29732" data-name="패스 29732" d="M-786.763,2578.209a6.9,6.9,0,0,1-4.9-2.024l2.192-2.193a3.827,3.827,0,0,0,5.408,0l2.192,2.193A6.9,6.9,0,0,1-786.763,2578.209Z" fill="gray"/>
      </g>
      <g id="그룹_19909" data-name="그룹 19909">
        <path id="패스_29733" data-name="패스 29733" d="M-803.669,2547.363a12.656,12.656,0,0,0-12.258,9.545,9.3,9.3,0,0,0-4.089,7.7v15.472h.816a9.3,9.3,0,0,0,9.3-9.3h0v-4.5a9.277,9.277,0,0,0,2.867.46h24.42a9.3,9.3,0,0,0,9.3-9.3h0v-10.078Z" fill="#ccc"/>
        <path id="패스_29734" data-name="패스 29734" d="M-819.2,2581.627h-2.366v-17.015a10.85,10.85,0,0,1,4.29-8.644,14.188,14.188,0,0,1,13.607-10.155h31.912v11.628a10.864,10.864,0,0,1-10.853,10.854h-24.42a10.5,10.5,0,0,1-1.316-.082v2.56A10.865,10.865,0,0,1-819.2,2581.627Zm15.531-32.713a11.091,11.091,0,0,0-10.755,8.375l-.145.571-.488.331a7.755,7.755,0,0,0-3.408,6.421v13.88a7.763,7.763,0,0,0,7.018-7.719v-6.62l2.028.657a7.8,7.8,0,0,0,2.389.385h24.42a7.762,7.762,0,0,0,7.752-7.754v-8.527Z" fill="gray"/>
      </g>
      <g id="그룹_19912" data-name="그룹 19912">
        <g id="그룹_19910" data-name="그룹 19910">
          <path id="패스_29735" data-name="패스 29735" d="M-790.122,2589.42v-3.1a1.55,1.55,0,0,0,1.55-1.55,1.552,1.552,0,0,0-1.55-1.551,1.553,1.553,0,0,0-1.551,1.551h-3.1a4.658,4.658,0,0,1,4.652-4.652,4.657,4.657,0,0,1,4.651,4.652A4.655,4.655,0,0,1-790.122,2589.42Z" fill="gray"/>
        </g>
        <g id="그룹_19911" data-name="그룹 19911">
          <rect id="사각형_3962" data-name="사각형 3962" width="3.101" height="17.831" transform="translate(-795.161 2566.938)" fill="gray"/>
        </g>
      </g>
    </g>
    <g id="그룹_19927" data-name="그룹 19927">
      <g id="그룹_19914" data-name="그룹 19914">
        <path id="패스_29736" data-name="패스 29736" d="M-768.889,2621.08v-9.129c0-4.033,3.7-7.3,8.252-7.3h36.214c4.558,0,8.251,3.27,8.251,7.3v9.129" fill="#fff"/>
        <path id="패스_29737" data-name="패스 29737" d="M-714.621,2621.08h-3.1v-9.129c0-3.172-3.006-5.753-6.7-5.753h-36.214c-3.7,0-6.7,2.581-6.7,5.753v9.129h-3.1v-9.129c0-4.882,4.4-8.854,9.8-8.854h36.214c5.405,0,9.8,3.972,9.8,8.854Z" fill="gray"/>
      </g>
      <g id="그룹_19915" data-name="그룹 19915">
        <path id="패스_29738" data-name="패스 29738" d="M-734.646,2604.443-742.53,2609l-7.884-4.552v-17.214h15.768Z" fill="#fff"/>
        <path id="패스_29739" data-name="패스 29739" d="M-742.53,2610.786l-9.435-5.447V2585.68H-733.1v19.661Zm-6.334-7.238,6.334,3.657,6.333-3.657V2588.78h-12.667Z" fill="gray"/>
      </g>
      <g id="그룹_19916" data-name="그룹 19916">
        <path id="패스_29740" data-name="패스 29740" d="M-733.6,2552.325a9.044,9.044,0,0,1-9.044,9.044,9.044,9.044,0,0,1-9.045-9.043h0a9.046,9.046,0,0,1,9.045-9.045h0A9.045,9.045,0,0,1-733.6,2552.325Z" fill="#ccc"/>
        <path id="패스_29741" data-name="패스 29741" d="M-742.644,2562.92a10.607,10.607,0,0,1-10.6-10.595,10.608,10.608,0,0,1,10.6-10.595,10.606,10.606,0,0,1,10.594,10.595A10.6,10.6,0,0,1-742.644,2562.92Zm0-18.089a7.5,7.5,0,0,0-7.495,7.494,7.5,7.5,0,0,0,7.495,7.494,7.5,7.5,0,0,0,7.493-7.494A7.5,7.5,0,0,0-742.644,2544.831Z" fill="gray"/>
      </g>
      <g id="그룹_19917" data-name="그룹 19917">
        <path id="사각형_3963" data-name="사각형 3963" d="M-723.848,2571.835h.3a3.638,3.638,0,0,1,3.643,3.633v6.683a3.637,3.637,0,0,1-3.638,3.638h-.3a3.64,3.64,0,0,1-3.645-3.635v-6.679a3.641,3.641,0,0,1,3.64-3.64Z" fill="#fff"/>
        <path id="패스_29742" data-name="패스 29742" d="M-723.545,2587.34h-.3a5.2,5.2,0,0,1-5.189-5.19v-6.67a5.2,5.2,0,0,1,5.189-5.191h.3a5.2,5.2,0,0,1,5.191,5.191v6.674A5.2,5.2,0,0,1-723.545,2587.34Zm-.3-13.954a2.091,2.091,0,0,0-2.088,2.09v6.674a2.09,2.09,0,0,0,2.088,2.089h.3a2.09,2.09,0,0,0,2.09-2.089v-6.67a2.093,2.093,0,0,0-2.09-2.09Z" fill="gray"/>
      </g>
      <g id="그룹_19918" data-name="그룹 19918">
        <path id="패스_29743" data-name="패스 29743" d="M-724.175,2581.988a18.436,18.436,0,0,1-18.436,18.436h0a18.436,18.436,0,0,1-18.435-18.436v-14.749a18.436,18.436,0,0,1,18.435-18.435h0a18.436,18.436,0,0,1,18.437,18.435h0Z" fill="#fff"/>
        <path id="패스_29744" data-name="패스 29744" d="M-742.613,2601.98a20.01,20.01,0,0,1-19.986-19.987v-14.749a20.009,20.009,0,0,1,19.986-19.985,20.008,20.008,0,0,1,19.987,19.985v14.749A20.008,20.008,0,0,1-742.613,2601.98Zm0-51.62a16.9,16.9,0,0,0-16.885,16.884v14.749a16.9,16.9,0,0,0,16.885,16.886,16.9,16.9,0,0,0,16.886-16.886v-14.749a16.9,16.9,0,0,0-16.886-16.889Z" fill="gray"/>
      </g>
      <g id="그룹_19919" data-name="그룹 19919">
        <path id="패스_29745" data-name="패스 29745" d="M-761.048,2571.873c-1.832.191-4.815,1.721-4.815,3.6v6.674c0,1.882,2.983,3.412,4.815,3.6Z" fill="#fff"/>
        <path id="패스_29746" data-name="패스 29746" d="M-759.5,2587.472l-1.71-.178c-2.536-.263-6.205-2.247-6.205-5.144v-6.67c0-2.9,3.668-4.881,6.2-5.145l1.711-.178Zm-3.1-13.524c-.946.464-1.713,1.118-1.713,1.528v6.674c0,.41.767,1.064,1.713,1.528Z" fill="gray"/>
      </g>
      <g id="그룹_19920" data-name="그룹 19920">
        <rect id="사각형_3964" data-name="사각형 3964" width="3.101" height="3.033" transform="translate(-744.081 2612.795)" fill="gray"/>
      </g>
      <g id="그룹_19921" data-name="그룹 19921">
        <rect id="사각형_3965" data-name="사각형 3965" width="3.101" height="3.033" transform="translate(-744.081 2618.031)" fill="gray"/>
      </g>
      <g id="그룹_19922" data-name="그룹 19922">
        <path id="패스_29747" data-name="패스 29747" d="M-742.613,2548.8a18.436,18.436,0,0,0-18.435,18.435h0v3.434h23.973l3.222-5.58,3.222,5.58h6.46v-3.434a18.437,18.437,0,0,0-18.437-18.435Z" fill="#ccc"/>
        <path id="패스_29748" data-name="패스 29748" d="M-722.626,2572.224h-8.9l-2.327-4.031-2.327,4.031h-26.414v-4.985a20.009,20.009,0,0,1,19.986-19.985,20.008,20.008,0,0,1,19.987,19.985Zm-7.114-3.1h4.013v-1.884a16.9,16.9,0,0,0-16.886-16.884A16.9,16.9,0,0,0-759.5,2567.24v1.884h21.523l4.117-7.131Z" fill="gray"/>
      </g>
      <g id="그룹_19923" data-name="그룹 19923">
        <path id="패스_29749" data-name="패스 29749" d="M-745.254,2584.28a3.3,3.3,0,0,0,2.81,1.8,3.308,3.308,0,0,0,2.81-1.8" fill="#fff"/>
        <path id="패스_29750" data-name="패스 29750" d="M-742.444,2587.632a4.843,4.843,0,0,1-4.154-2.573l2.687-1.548a1.8,1.8,0,0,0,1.467,1.02,1.777,1.777,0,0,0,1.467-1.02l2.686,1.549A4.843,4.843,0,0,1-742.444,2587.632Z" fill="gray"/>
      </g>
      <g id="그룹_19924" data-name="그룹 19924">
        <rect id="사각형_3966" data-name="사각형 3966" width="3.36" height="3.101" transform="translate(-753.589 2576.117)" fill="gray"/>
      </g>
      <g id="그룹_19925" data-name="그룹 19925">
        <rect id="사각형_3967" data-name="사각형 3967" width="3.36" height="3.101" transform="translate(-734.983 2576.117)" fill="gray"/>
      </g>
      <g id="그룹_19926" data-name="그룹 19926">
        <path id="패스_29751" data-name="패스 29751" d="M-746.9,2590.962v.33a3.3,3.3,0,0,0,3.3,3.3h2.312a3.3,3.3,0,0,0,3.3-3.3h0v-.33Z" fill="#fff"/>
        <path id="패스_29752" data-name="패스 29752" d="M-741.288,2596.144H-743.6a4.857,4.857,0,0,1-4.852-4.852v-1.881h12.016v1.881A4.857,4.857,0,0,1-741.288,2596.144Zm-3.567-3.632a1.741,1.741,0,0,0,1.255.531h2.312a1.741,1.741,0,0,0,1.255-.531Z" fill="gray"/>
      </g>
    </g>
  </g>
</svg>
