<svg xmlns="http://www.w3.org/2000/svg" width="120.879" height="77.001" viewBox="0 0 120.879 77.001">
  <g id="그룹_19980" data-name="그룹 19980" transform="translate(131.765 -2232.059)">
    <g id="그룹_19966" data-name="그룹 19966">
      <g id="그룹_19953" data-name="그룹 19953">
        <path id="패스_29786" data-name="패스 29786" d="M-63.154,2309.06v-9.3a6.2,6.2,0,0,1,6.2-6.2h34.111a6.2,6.2,0,0,1,6.2,6.2v9.3" fill="#5eb4e7"/>
        <path id="패스_29787" data-name="패스 29787" d="M-15.089,2309.06h-3.1v-9.3a4.656,4.656,0,0,0-4.651-4.651H-56.952a4.657,4.657,0,0,0-4.652,4.651v9.3h-3.1v-9.3A7.762,7.762,0,0,1-56.952,2292h34.111a7.761,7.761,0,0,1,7.752,7.752Z" fill="#282d33"/>
      </g>
      <g id="그룹_19954" data-name="그룹 19954">
        <path id="패스_29788" data-name="패스 29788" d="M-51.913,2309.06v-8.6c0-3.168,1.435-5.737,3.2-5.737h17.624c1.77,0,3.2,2.569,3.2,5.737v8.6" fill="#fff"/>
        <path id="패스_29789" data-name="패스 29789" d="M-26.33,2309.06h-3.1v-8.6c0-2.556-1.086-4.186-1.654-4.186H-48.709c-.568,0-1.653,1.63-1.653,4.186v8.6h-3.1v-8.6c0-4.154,2.044-7.287,4.754-7.287h17.624c2.711,0,4.755,3.133,4.755,7.287Z" fill="#282d33"/>
      </g>
      <g id="그룹_19955" data-name="그룹 19955">
        <rect id="사각형_3972" data-name="사각형 3972" width="10.854" height="20.156" transform="translate(-45.323 2279.601)" fill="#fff"/>
        <path id="패스_29790" data-name="패스 29790" d="M-32.919,2301.308H-46.874V2278.05h13.955Zm-10.854-3.1h7.753v-17.056h-7.753Z" fill="#282d33"/>
      </g>
      <g id="그룹_19956" data-name="그룹 19956">
        <path id="패스_29791" data-name="패스 29791" d="M-43.514,2252.724a13.188,13.188,0,0,1-12.921,13.438,13.188,13.188,0,0,1-12.921-13.438,13.188,13.188,0,0,1,12.921-13.438A13.188,13.188,0,0,1-43.514,2252.724Z" fill="#5eb4e7"/>
        <path id="패스_29792" data-name="패스 29792" d="M-56.435,2267.712a14.754,14.754,0,0,1-14.472-14.988,14.754,14.754,0,0,1,14.472-14.988,14.753,14.753,0,0,1,14.471,14.988A14.753,14.753,0,0,1-56.435,2267.712Zm0-26.875a11.651,11.651,0,0,0-11.371,11.887,11.65,11.65,0,0,0,11.371,11.887,11.65,11.65,0,0,0,11.37-11.887A11.65,11.65,0,0,0-56.435,2240.837Z" fill="#282d33"/>
      </g>
      <g id="그룹_19957" data-name="그룹 19957">
        <path id="패스_29793" data-name="패스 29793" d="M-51.267,2267.382a8.439,8.439,0,0,1-8.269,8.6,8.44,8.44,0,0,1-8.27-8.6,8.44,8.44,0,0,1,8.27-8.6A8.439,8.439,0,0,1-51.267,2267.382Z" fill="#5eb4e7"/>
        <path id="패스_29794" data-name="패스 29794" d="M-59.536,2277.532a10,10,0,0,1-9.82-10.15,10,10,0,0,1,9.82-10.151,10,10,0,0,1,9.82,10.151A10,10,0,0,1-59.536,2277.532Zm0-17.2a6.9,6.9,0,0,0-6.719,7.05,6.9,6.9,0,0,0,6.719,7.049,6.9,6.9,0,0,0,6.719-7.049A6.9,6.9,0,0,0-59.536,2260.332Z" fill="#282d33"/>
      </g>
      <g id="그룹_19958" data-name="그룹 19958">
        <path id="패스_29795" data-name="패스 29795" d="M-49.716,2260.663a8.44,8.44,0,0,1-8.27,8.6,8.439,8.439,0,0,1-8.269-8.6,8.439,8.439,0,0,1,8.269-8.6A8.44,8.44,0,0,1-49.716,2260.663Z" fill="#fff"/>
        <path id="패스_29796" data-name="패스 29796" d="M-57.986,2270.813a10,10,0,0,1-9.82-10.15,10,10,0,0,1,9.82-10.151,10,10,0,0,1,9.82,10.151A10,10,0,0,1-57.986,2270.813Zm0-17.2a6.9,6.9,0,0,0-6.719,7.05,6.9,6.9,0,0,0,6.719,7.049,6.9,6.9,0,0,0,6.719-7.049A6.9,6.9,0,0,0-57.986,2253.613Z" fill="#282d33"/>
      </g>
      <g id="그룹_19959" data-name="그룹 19959">
        <path id="패스_29797" data-name="패스 29797" d="M-17.156,2267.382a8.439,8.439,0,0,1-8.269,8.6,8.44,8.44,0,0,1-8.27-8.6,8.44,8.44,0,0,1,8.27-8.6A8.439,8.439,0,0,1-17.156,2267.382Z" fill="#5eb4e7"/>
        <path id="패스_29798" data-name="패스 29798" d="M-25.425,2277.532a10,10,0,0,1-9.82-10.15,10,10,0,0,1,9.82-10.151,10,10,0,0,1,9.82,10.151A10,10,0,0,1-25.425,2277.532Zm0-17.2a6.9,6.9,0,0,0-6.719,7.05,6.9,6.9,0,0,0,6.719,7.049,6.9,6.9,0,0,0,6.719-7.049A6.9,6.9,0,0,0-25.425,2260.332Z" fill="#282d33"/>
      </g>
      <g id="그룹_19960" data-name="그룹 19960">
        <path id="패스_29799" data-name="패스 29799" d="M-24.439,2268.673a18.436,18.436,0,0,1-18.436,18.436h0a18.436,18.436,0,0,1-18.436-18.436v-14.749a18.436,18.436,0,0,1,18.436-18.435h0a18.436,18.436,0,0,1,18.436,18.435Z" fill="#fff"/>
        <path id="패스_29800" data-name="패스 29800" d="M-42.875,2288.66a20.008,20.008,0,0,1-19.986-19.987v-14.749a20.008,20.008,0,0,1,19.986-19.985,20.009,20.009,0,0,1,19.987,19.985v14.749A20.01,20.01,0,0,1-42.875,2288.66Zm0-51.62a16.9,16.9,0,0,0-16.885,16.884v14.749a16.9,16.9,0,0,0,16.885,16.886,16.905,16.905,0,0,0,16.886-16.886v-14.749A16.9,16.9,0,0,0-42.875,2237.04Z" fill="#282d33"/>
      </g>
      <g id="그룹_19961" data-name="그룹 19961">
        <path id="패스_29801" data-name="패스 29801" d="M-26.213,2240.43l13.134,13.134-2.376,2.376a18.607,18.607,0,0,1-26.313,0l-16.418-16.418A23.289,23.289,0,0,1-26.213,2240.43Z" fill="#5eb4e7"/>
        <path id="패스_29802" data-name="패스 29802" d="M-28.612,2262.939a20.023,20.023,0,0,1-14.252-5.9l-17.578-17.578,1.223-1.093a24.789,24.789,0,0,1,16.54-6.306,24.675,24.675,0,0,1,17.562,7.275l14.231,14.23-3.473,3.472A20.024,20.024,0,0,1-28.612,2262.939Zm-27.274-23.31,15.215,15.214a16.939,16.939,0,0,0,12.059,4.995,16.94,16.94,0,0,0,12.06-4.995l1.28-1.279-12.037-12.038a21.6,21.6,0,0,0-15.37-6.366A21.7,21.7,0,0,0-55.886,2239.629Z" fill="#282d33"/>
      </g>
      <g id="그룹_19962" data-name="그룹 19962">
        <path id="패스_29803" data-name="패스 29803" d="M-44.93,2261.905h-3.1a2.98,2.98,0,0,0-2.977-2.978,2.981,2.981,0,0,0-2.978,2.978h-3.1a6.086,6.086,0,0,1,6.079-6.079A6.086,6.086,0,0,1-44.93,2261.905Z" fill="#282d33"/>
      </g>
      <g id="그룹_19963" data-name="그룹 19963">
        <rect id="사각형_3973" data-name="사각형 3973" width="6.977" height="3.101" transform="translate(-46.874 2273.397)" fill="#282d33"/>
      </g>
      <g id="그룹_19964" data-name="그룹 19964">
        <rect id="사각형_3974" data-name="사각형 3974" width="8.528" height="3.101" transform="translate(-44.16 2303.117)" fill="#282d33"/>
      </g>
      <g id="그룹_19965" data-name="그룹 19965">
        <rect id="사각형_3975" data-name="사각형 3975" width="3.101" height="4.524" transform="translate(-41.447 2304.019)" fill="#282d33"/>
      </g>
    </g>
    <g id="그룹_19979" data-name="그룹 19979">
      <g id="그룹_19967" data-name="그룹 19967">
        <path id="패스_29804" data-name="패스 29804" d="M-130.214,2309.06v-10.381c0-4.588,4.2-8.306,9.385-8.306h41.184c5.183,0,9.382,3.718,9.382,8.306v10.381" fill="#fff"/>
        <path id="패스_29805" data-name="패스 29805" d="M-68.712,2309.06h-3.1v-10.381c0-3.725-3.514-6.755-7.832-6.755h-41.184c-4.32,0-7.835,3.03-7.835,6.755v10.381h-3.1v-10.381c0-5.435,4.906-9.856,10.936-9.856h41.184c6.028,0,10.933,4.421,10.933,9.856Z" fill="#282d33"/>
      </g>
      <g id="그룹_19968" data-name="그룹 19968">
        <path id="패스_29806" data-name="패스 29806" d="M-92.538,2290.459l-7.884,4.552-7.884-4.552v-17.214h15.768Z" fill="#fff"/>
        <path id="패스_29807" data-name="패스 29807" d="M-100.423,2296.8l-9.434-5.447v-19.661h18.87v19.661Zm-6.333-7.238,6.333,3.657,6.334-3.657v-14.769h-12.668Z" fill="#282d33"/>
      </g>
      <path id="패스_29808" data-name="패스 29808" d="M-109.66,2302.885l9.2-6.084-8.478-4.9Z" fill="#5eb4e7"/>
      <path id="패스_29809" data-name="패스 29809" d="M-91.2,2302.885l-9.2-6.084,8.478-4.9Z" fill="#5eb4e7"/>
      <g id="그룹_19969" data-name="그룹 19969">
        <rect id="사각형_3976" data-name="사각형 3976" width="7.584" height="13.954" rx="3.64" transform="translate(-85.115 2257.141)" fill="#fff"/>
        <path id="패스_29810" data-name="패스 29810" d="M-81.17,2272.646h-.305a5.2,5.2,0,0,1-5.19-5.191v-6.674a5.2,5.2,0,0,1,5.19-5.191h.305a5.2,5.2,0,0,1,5.19,5.191v6.674A5.2,5.2,0,0,1-81.17,2272.646Zm-.305-13.955a2.092,2.092,0,0,0-2.089,2.09v6.674a2.092,2.092,0,0,0,2.089,2.09h.305a2.093,2.093,0,0,0,2.089-2.09v-6.674a2.093,2.093,0,0,0-2.089-2.09Z" fill="#282d33"/>
      </g>
      <g id="그룹_19970" data-name="그룹 19970">
        <path id="패스_29811" data-name="패스 29811" d="M-81.8,2268.068a18.436,18.436,0,0,1-18.436,18.436h0a18.436,18.436,0,0,1-18.437-18.436V2253.32a18.436,18.436,0,0,1,18.437-18.436h0A18.436,18.436,0,0,1-81.8,2253.32Z" fill="#fff"/>
        <path id="패스_29812" data-name="패스 29812" d="M-100.238,2288.055a20.009,20.009,0,0,1-19.987-19.987V2253.32a20.009,20.009,0,0,1,19.987-19.986,20.009,20.009,0,0,1,19.987,19.986v14.748A20.009,20.009,0,0,1-100.238,2288.055Zm0-51.62a16.9,16.9,0,0,0-16.886,16.885v14.748a16.905,16.905,0,0,0,16.886,16.886,16.905,16.905,0,0,0,16.886-16.886V2253.32A16.9,16.9,0,0,0-100.238,2236.435Z" fill="#282d33"/>
      </g>
      <g id="그룹_19971" data-name="그룹 19971">
        <path id="패스_29813" data-name="패스 29813" d="M-106.822,2233.883a8.519,8.519,0,0,0-7.13,3.857h-2.928a6.61,6.61,0,0,0-6.61,6.609v31.786h4.652V2254.04a4.652,4.652,0,0,1,4.651-4.652H-84.34a8.527,8.527,0,0,0,8.528-8.527v-6.978Z" fill="#5eb4e7"/>
        <path id="패스_29814" data-name="패스 29814" d="M-117.288,2277.685h-7.752v-33.336a8.168,8.168,0,0,1,8.16-8.159h2.135a10.047,10.047,0,0,1,7.923-3.857h32.561v8.528a10.09,10.09,0,0,1-10.079,10.078h-29.847a3.1,3.1,0,0,0-3.1,3.1Zm-4.651-3.1h1.55V2254.04a6.21,6.21,0,0,1,6.2-6.2H-84.34a6.985,6.985,0,0,0,6.978-6.977v-5.427h-29.46a6.965,6.965,0,0,0-5.834,3.157l-.459.7h-3.765a5.064,5.064,0,0,0-5.059,5.058Z" fill="#282d33"/>
      </g>
      <g id="그룹_19972" data-name="그룹 19972">
        <path id="패스_29815" data-name="패스 29815" d="M-118.675,2257.179c-1.83.19-4.815,1.72-4.815,3.6v6.674c0,1.882,2.985,3.412,4.815,3.6Z" fill="#fff"/>
        <path id="패스_29816" data-name="패스 29816" d="M-117.124,2272.777l-1.711-.178c-2.536-.263-6.205-2.247-6.205-5.144v-6.674c0-2.9,3.669-4.88,6.205-5.144l1.711-.178Zm-3.1-13.524c-.947.464-1.714,1.118-1.714,1.528v6.674c0,.41.767,1.064,1.714,1.528Z" fill="#282d33"/>
      </g>
      <g id="그룹_19973" data-name="그룹 19973">
        <path id="패스_29817" data-name="패스 29817" d="M-104.136,2275.1a4.674,4.674,0,0,0,3.972,2.54,4.674,4.674,0,0,0,3.973-2.54" fill="#fff"/>
        <path id="패스_29818" data-name="패스 29818" d="M-100.164,2279.189a6.215,6.215,0,0,1-5.316-3.317l2.687-1.548a3.126,3.126,0,0,0,2.629,1.764,3.126,3.126,0,0,0,2.63-1.765l2.687,1.549A6.218,6.218,0,0,1-100.164,2279.189Z" fill="#282d33"/>
      </g>
      <g id="그룹_19974" data-name="그룹 19974">
        <path id="패스_29819" data-name="패스 29819" d="M-110.623,2269.369a9.191,9.191,0,0,1-9.18-9.181v-4.509h18.36v4.509A9.191,9.191,0,0,1-110.623,2269.369Zm-6.079-10.589v1.408a6.086,6.086,0,0,0,6.079,6.08,6.086,6.086,0,0,0,6.079-6.08v-1.408Z" fill="#282d33"/>
      </g>
      <g id="그룹_19975" data-name="그룹 19975">
        <path id="패스_29820" data-name="패스 29820" d="M-89.446,2269.369a9.191,9.191,0,0,1-9.18-9.181v-4.509h18.36v4.509A9.191,9.191,0,0,1-89.446,2269.369Zm-6.079-10.589v1.408a6.086,6.086,0,0,0,6.079,6.08,6.086,6.086,0,0,0,6.079-6.08v-1.408Z" fill="#282d33"/>
      </g>
      <g id="그룹_19976" data-name="그룹 19976">
        <rect id="사각형_3977" data-name="사각형 3977" width="3.36" height="3.101" transform="translate(-110.759 2259.807)" fill="#282d33"/>
      </g>
      <g id="그룹_19977" data-name="그룹 19977">
        <rect id="사각형_3978" data-name="사각형 3978" width="3.36" height="3.101" transform="translate(-92.153 2259.807)" fill="#282d33"/>
      </g>
      <g id="그룹_19978" data-name="그룹 19978">
        <rect id="사각형_3979" data-name="사각형 3979" width="6.977" height="3.101" transform="translate(-103.007 2255.679)" fill="#282d33"/>
      </g>
    </g>
  </g>
</svg>
