<svg xmlns="http://www.w3.org/2000/svg" width="88.976" height="77.913" viewBox="0 0 88.976 77.913">
  <g id="그룹_18935" data-name="그룹 18935" transform="translate(918.554 1051.214)">
    <g id="그룹_18919" data-name="그룹 18919">
      <g id="그룹_18918" data-name="그룹 18918">
        <g id="그룹_18910" data-name="그룹 18910">
          <path id="패스_29277" data-name="패스 29277" d="M-829.578-985.379h-30.527v-3.1h27.426v-30.443h-27.426v-3.1h30.527Z" fill="gray"/>
        </g>
        <path id="패스_29278" data-name="패스 29278" d="M-860.1-1015.862h20.645a4.466,4.466,0,0,0,3.719,3.553v17.145a4.466,4.466,0,0,0-3.734,3.624H-860.1" fill="#ccc"/>
        <g id="그룹_18911" data-name="그룹 18911">
          <path id="패스_29279" data-name="패스 29279" d="M-860.1-1010.8a7.1,7.1,0,0,1,7.1,7.1,7.1,7.1,0,0,1-7.1,7.094" fill="#fff"/>
          <path id="패스_29280" data-name="패스 29280" d="M-860.1-995.056v-3.1a5.55,5.55,0,0,0,5.545-5.544,5.551,5.551,0,0,0-5.545-5.545v-3.1a8.656,8.656,0,0,1,8.646,8.646A8.656,8.656,0,0,1-860.1-995.056Z" fill="gray"/>
        </g>
        <g id="그룹_18917" data-name="그룹 18917">
          <g id="그룹_18916" data-name="그룹 18916">
            <g id="그룹_18912" data-name="그룹 18912">
              <line id="선_176" data-name="선 176" x2="8.937" transform="translate(-849.206 -1003.701)" fill="#fff"/>
              <rect id="사각형_3660" data-name="사각형 3660" width="8.937" height="3.101" transform="translate(-849.206 -1005.252)" fill="gray"/>
            </g>
            <g id="그룹_18915" data-name="그룹 18915">
              <g id="그룹_18913" data-name="그룹 18913">
                <line id="선_177" data-name="선 177" x2="4.714" transform="translate(-849.206 -1009.57)" fill="#fff"/>
                <rect id="사각형_3661" data-name="사각형 3661" width="4.714" height="3.101" transform="translate(-849.206 -1011.121)" fill="gray"/>
              </g>
              <g id="그룹_18914" data-name="그룹 18914">
                <line id="선_178" data-name="선 178" x2="4.714" transform="translate(-849.206 -997.833)" fill="#fff"/>
                <rect id="사각형_3662" data-name="사각형 3662" width="4.714" height="3.101" transform="translate(-849.206 -999.383)" fill="gray"/>
              </g>
            </g>
          </g>
        </g>
      </g>
    </g>
    <g id="그룹_18920" data-name="그룹 18920">
      <path id="패스_29281" data-name="패스 29281" d="M-866.73-973.3h-33.251a3.929,3.929,0,0,1-3.924-3.926v-15.621h3.1v15.621a.825.825,0,0,0,.823.825h33.251a.826.826,0,0,0,.824-.825v-70.062a.825.825,0,0,0-.824-.824h-33.251a.825.825,0,0,0-.823.824v16.841h-3.1v-16.841a3.929,3.929,0,0,1,3.924-3.925h33.251a3.93,3.93,0,0,1,3.925,3.925v70.062A3.93,3.93,0,0,1-866.73-973.3Z" fill="gray"/>
    </g>
    <g id="그룹_18922" data-name="그룹 18922">
      <g id="그룹_18921" data-name="그룹 18921">
        <rect id="사각형_3663" data-name="사각형 3663" width="12.695" height="3.101" transform="translate(-889.703 -1045.909)" fill="gray"/>
      </g>
    </g>
    <g id="그룹_18924" data-name="그룹 18924">
      <g id="그룹_18923" data-name="그룹 18923">
        <rect id="사각형_3664" data-name="사각형 3664" width="38.233" height="3.101" transform="translate(-902.47 -1038.672)" fill="gray"/>
      </g>
    </g>
    <g id="그룹_18926" data-name="그룹 18926">
      <g id="그룹_18925" data-name="그룹 18925">
        <rect id="사각형_3665" data-name="사각형 3665" width="38.233" height="3.101" transform="translate(-902.47 -988.48)" fill="gray"/>
      </g>
    </g>
    <g id="그룹_18927" data-name="그룹 18927">
      <rect id="사각형_3666" data-name="사각형 3666" width="3.101" height="3.101" transform="translate(-884.906 -982.596)" fill="gray"/>
    </g>
    <g id="그룹_18934" data-name="그룹 18934">
      <g id="그룹_18928" data-name="그룹 18928">
        <path id="사각형_3667" data-name="사각형 3667" d="M2.411,0H44.537A2.412,2.412,0,0,1,46.95,2.412V26.929a2.414,2.414,0,0,1-2.414,2.414H2.412A2.412,2.412,0,0,1,0,26.932V2.411A2.411,2.411,0,0,1,2.411,0Z" transform="translate(-917.004 -1026.069)" fill="#fff"/>
        <path id="패스_29282" data-name="패스 29282" d="M-872.466-995.174h-42.126a3.967,3.967,0,0,1-3.962-3.962v-24.518a3.968,3.968,0,0,1,3.962-3.965h42.126a3.968,3.968,0,0,1,3.962,3.965v24.518A3.967,3.967,0,0,1-872.466-995.174Zm-42.126-29.344a.863.863,0,0,0-.861.864v24.518a.862.862,0,0,0,.861.861h42.126a.873.873,0,0,0,.861-.861v-24.518a.873.873,0,0,0-.861-.864Z" fill="gray"/>
      </g>
      <g id="그룹_18929" data-name="그룹 18929">
        <line id="선_179" data-name="선 179" x1="7.647" transform="translate(-881.36 -1009.707)" fill="#fff"/>
        <rect id="사각형_3668" data-name="사각형 3668" width="7.647" height="3.101" transform="translate(-881.36 -1011.257)" fill="gray"/>
      </g>
      <g id="그룹_18930" data-name="그룹 18930">
        <line id="선_180" data-name="선 180" x1="13.43" transform="translate(-887.144 -1002.983)" fill="#fff"/>
        <rect id="사각형_3669" data-name="사각형 3669" width="13.43" height="3.101" transform="translate(-887.144 -1004.533)" fill="gray"/>
      </g>
      <g id="그룹_18931" data-name="그룹 18931">
        <line id="선_181" data-name="선 181" x1="7.648" transform="translate(-891.908 -1009.707)" fill="#fff"/>
        <rect id="사각형_3670" data-name="사각형 3670" width="7.648" height="3.101" transform="translate(-891.908 -1011.257)" fill="gray"/>
      </g>
      <g id="그룹_18932" data-name="그룹 18932">
        <line id="선_182" data-name="선 182" x1="7.646" transform="translate(-902.454 -1009.707)" fill="#fff"/>
        <rect id="사각형_3671" data-name="사각형 3671" width="7.646" height="3.101" transform="translate(-902.454 -1011.257)" fill="gray"/>
      </g>
      <g id="그룹_18933" data-name="그룹 18933">
        <line id="선_183" data-name="선 183" x1="7.647" transform="translate(-913 -1009.707)" fill="#fff"/>
        <rect id="사각형_3672" data-name="사각형 3672" width="7.647" height="3.101" transform="translate(-913 -1011.257)" fill="gray"/>
      </g>
      <rect id="사각형_3673" data-name="사각형 3673" width="43.599" height="5.176" transform="translate(-915.396 -1019.999)" fill="#ccc"/>
    </g>
  </g>
</svg>
