<svg xmlns="http://www.w3.org/2000/svg" width="65.653" height="76.613" viewBox="0 0 65.653 76.613">
  <g id="그룹_19122" data-name="그룹 19122" transform="translate(-282.174 -1796.694)">
    <g id="그룹_19121" data-name="그룹 19121" transform="translate(1733.789 2486.885)">
      <g id="그룹_19105" data-name="그룹 19105">
        <path id="패스_29342" data-name="패스 29342" d="M-1401.1-663.194a13.249,13.249,0,0,1-13.249,13.246,13.247,13.247,0,0,1-13.245-13.246,13.246,13.246,0,0,1,13.245-13.244A13.248,13.248,0,0,1-1401.1-663.194Z" fill="#ccc"/>
        <g id="그룹_19104" data-name="그룹 19104">
          <g id="그룹_19102" data-name="그룹 19102">
            <path id="패스_29343" data-name="패스 29343" d="M-1412.82-657.87h-3.1v-8.375l-1.533,1.591-2.233-2.152,4.2-4.358,2.667,1.076Z" fill="gray"/>
          </g>
          <g id="그룹_19103" data-name="그룹 19103">
            <rect id="사각형_3764" data-name="사각형 3764" width="5.699" height="3.101" transform="translate(-1417.253 -659.462)" fill="gray"/>
          </g>
        </g>
      </g>
      <g id="그룹_19107" data-name="그룹 19107">
        <g id="그룹_19106" data-name="그룹 19106">
          <path id="패스_29344" data-name="패스 29344" d="M-1393.832-613.578h-3.1v-29.1a1.546,1.546,0,0,1,.453-1.095,25.219,25.219,0,0,0,7.417-17.932,25.416,25.416,0,0,0-25.386-25.387,25.417,25.417,0,0,0-25.389,25.387c0,.387.014.768.03,1.153a1.557,1.557,0,0,1-.2.841l-7.366,12.759h3.573a1.55,1.55,0,0,1,1.551,1.55v10.635a5.719,5.719,0,0,0,5.71,5.714h11.505a1.552,1.552,0,0,1,1.551,1.551v13.922h-3.1V-625.95h-9.955a8.823,8.823,0,0,1-8.811-8.815v-9.084h-4.708a1.551,1.551,0,0,1-1.343-.775,1.551,1.551,0,0,1,0-1.551l8.484-14.7c-.01-.276-.016-.553-.016-.832a28.521,28.521,0,0,1,28.49-28.488,28.52,28.52,0,0,1,28.487,28.488,28.29,28.29,0,0,1-7.87,19.658Z" fill="gray"/>
        </g>
      </g>
      <g id="그룹_19120" data-name="그룹 19120">
        <g id="그룹_19108" data-name="그룹 19108">
          <rect id="사각형_3765" data-name="사각형 3765" width="3.101" height="4.264" transform="translate(-1416.09 -683.35)" fill="gray"/>
        </g>
        <g id="그룹_19109" data-name="그룹 19109">
          <rect id="사각형_3766" data-name="사각형 3766" width="3.101" height="4.264" transform="matrix(0.866, -0.5, 0.5, 0.866, -1425.935, -679.777)" fill="gray"/>
        </g>
        <g id="그룹_19110" data-name="그룹 19110">
          <rect id="사각형_3767" data-name="사각형 3767" width="3.101" height="4.264" transform="translate(-1432.675 -671.761) rotate(-60.003)" fill="gray"/>
        </g>
        <g id="그룹_19111" data-name="그룹 19111">
          <rect id="사각형_3768" data-name="사각형 3768" width="4.264" height="3.101" transform="translate(-1434.503 -664.55)" fill="gray"/>
        </g>
        <g id="그룹_19112" data-name="그룹 19112">
          <rect id="사각형_3769" data-name="사각형 3769" width="4.264" height="3.101" transform="translate(-1432.481 -654.291) rotate(-29.995)" fill="gray"/>
        </g>
        <g id="그룹_19113" data-name="그룹 19113">
          <rect id="사각형_3770" data-name="사각형 3770" width="4.264" height="3.101" transform="matrix(0.5, -0.866, 0.866, 0.5, -1425.601, -646.416)" fill="gray"/>
        </g>
        <g id="그룹_19114" data-name="그룹 19114">
          <rect id="사각형_3771" data-name="사각형 3771" width="3.101" height="4.264" transform="translate(-1415.704 -647.301)" fill="gray"/>
        </g>
        <g id="그룹_19115" data-name="그룹 19115">
          <rect id="사각형_3772" data-name="사각형 3772" width="3.101" height="4.264" transform="matrix(0.866, -0.5, 0.5, 0.866, -1407.576, -648.751)" fill="gray"/>
        </g>
        <g id="그룹_19116" data-name="그룹 19116">
          <rect id="사각형_3773" data-name="사각형 3773" width="3.101" height="4.264" transform="matrix(0.5, -0.866, 0.866, 0.5, -1401.262, -654.072)" fill="gray"/>
        </g>
        <g id="그룹_19117" data-name="그룹 19117">
          <rect id="사각형_3774" data-name="사각형 3774" width="4.264" height="3.101" transform="translate(-1398.455 -664.937)" fill="gray"/>
        </g>
        <g id="그룹_19118" data-name="그룹 19118">
          <rect id="사각형_3775" data-name="사각형 3775" width="4.264" height="3.101" transform="matrix(0.866, -0.5, 0.5, 0.866, -1401.456, -672.65)" fill="gray"/>
        </g>
        <g id="그룹_19119" data-name="그룹 19119">
          <rect id="사각형_3776" data-name="사각형 3776" width="4.264" height="3.102" transform="translate(-1407.912 -677.828) rotate(-60.006)" fill="gray"/>
        </g>
      </g>
    </g>
  </g>
</svg>
