<svg xmlns="http://www.w3.org/2000/svg" width="88.842" height="59.879" viewBox="0 0 88.842 59.879">
  <g id="그룹_20417" data-name="그룹 20417" transform="translate(-846 -1162)">
    <g id="그룹_20416" data-name="그룹 20416" transform="translate(-647.129 972.759)">
      <path id="패스_30038" data-name="패스 30038" d="M1572.5,227.362a18.525,18.525,0,0,0,8.275-13.307c.376-1.222,1.695-6.958-1.794-19.41a2.028,2.028,0,0,0-1.876-1.479c-.081,0-8.173-.309-14.351-.19a16.248,16.248,0,0,0-3.08.4,18.651,18.651,0,0,0-15.172,13c-.127.337-.227.674-.331,1.013a18.545,18.545,0,0,0-25.922-12.463,9.8,9.8,0,0,0-2.735-3.651,10.161,10.161,0,0,0-7.865-1.932c-4.182.484-7.111,1.963-8.953,4.518-2.4,3.327-2.81,8.255-1.293,15.51,2.031,9.718-3.164,11.263-3.372,11.322a1.193,1.193,0,0,0,.124,2.338,5.346,5.346,0,0,0,.668.037,7.928,7.928,0,0,0,5.112-1.872c2.369-2.014,3.625-5.413,3.732-10.1.112-4.86,1.335-8.054,3.64-9.492a6.636,6.636,0,0,1,3.857-.88,18.469,18.469,0,0,0-3.569,13.063v0a18.522,18.522,0,0,0,5,10.826c-6.592,1.579-10.109,3.84-10.439,9.4-.222,3.684,3.127,7.143,4.657,8.527a28.672,28.672,0,0,0-.589,5,1.547,1.547,0,0,0,1.549,1.586h72.644a1.547,1.547,0,0,0,1.549-1.586A26.777,26.777,0,0,0,1572.5,227.362Z" fill="#282d33"/>
      <path id="패스_30039" data-name="패스 30039" d="M1554.1,206.331l17.019.1,5.53,7.612a14.526,14.526,0,0,1-1.272,4.13c-.162.32-.339.631-.523.937s-.354.573-.544.851a14.821,14.821,0,0,1-1,1.306c-.044.051-.092.1-.136.146a14.9,14.9,0,0,1-5.131,3.708c-.018.008-.026.028-.044.036a14.45,14.45,0,0,1-19.229-8.12Z" fill="#fff"/>
      <path id="패스_30040" data-name="패스 30040" d="M1544.162,216.221c.1.3.214.586.331.877a18.624,18.624,0,0,0,2.842,5.755c-1.726-.159-3.733-.319-5.948-.445A18.7,18.7,0,0,0,1544.162,216.221Z" fill="#fff"/>
      <path id="패스_30041" data-name="패스 30041" d="M1511.716,214.021l.035-.056c.3-.485.658-1.029,1.04-1.6.07-.1.142-.211.215-.318.391-.571.814-1.167,1.265-1.769.076-.1.155-.2.232-.3.476-.625.976-1.251,1.5-1.856.051-.059.1-.114.155-.172.559-.636,1.138-1.252,1.733-1.808.23.164.551.38.836.577.194.134.35.246.568.393s.506.327.756.491c.368.24.72.473,1.141.737.292.182.629.38.945.572.45.273.888.54,1.387.828.361.209.76.424,1.145.639.52.29,1.033.576,1.6.873.427.225.884.449,1.335.676.584.295,1.166.587,1.789.882.124.058.231.117.357.176a2.115,2.115,0,0,0-.2.891,2.154,2.154,0,0,0,4.147.819c.273.11.572.209.85.317.7.272,1.4.537,2.132.8.595.211,1.2.41,1.815.61.427.139.829.292,1.265.425a14.557,14.557,0,0,1-28.034-2.824Z" fill="#fff"/>
      <path id="패스_30042" data-name="패스 30042" d="M1507.735,239.055c-1.253-1.384-2.575-3.269-2.48-4.865.235-3.93,2.626-5.5,10.332-7.05l.207.141A25.574,25.574,0,0,0,1507.735,239.055Z" fill="#fff"/>
      <path id="패스_30043" data-name="패스 30043" d="M1514.49,246.018h-5.079a25.178,25.178,0,0,1,1.621-6.942l3.458,1.862Z" fill="#fff"/>
      <path id="패스_30044" data-name="패스 30044" d="M1540.78,240.011v6.007h-23.186v-6.007a1.553,1.553,0,0,0-.816-1.365l-4.447-2.394a21.451,21.451,0,0,1,6.465-7.352,18.657,18.657,0,0,0,17.779-1.7,20.675,20.675,0,0,1,9.445,9.065l-4.425,2.382A1.552,1.552,0,0,0,1540.78,240.011Z" fill="#f8c44f"/>
      <path id="패스_30045" data-name="패스 30045" d="M1543.883,246.018v-5.08l3.425-1.845a25.3,25.3,0,0,1,1.589,6.925Z" fill="#fff"/>
      <path id="패스_30046" data-name="패스 30046" d="M1570.6,240.011v6.008h-18.655a28.19,28.19,0,0,0-2.449-9.68,1.345,1.345,0,0,0-.049-.16c-.022-.043-.062-.067-.088-.107a24.432,24.432,0,0,0-9.472-10.62c4.572.225,8.524.614,10.747.862a18.663,18.663,0,0,0,18.851,2.644,21.481,21.481,0,0,1,6.379,7.294l-4.449,2.395A1.552,1.552,0,0,0,1570.6,240.011Z" fill="#5eb4e7"/>
      <path id="패스_30047" data-name="패스 30047" d="M1573.707,246.019v-5.081l3.459-1.863a25.1,25.1,0,0,1,1.622,6.944Z" fill="#fff"/>
      <path id="패스_30048" data-name="패스 30048" d="M1556.718,216.034a2.156,2.156,0,1,0-2.155-2.156A2.159,2.159,0,0,0,1556.718,216.034Z" fill="#282d33"/>
      <path id="패스_30049" data-name="패스 30049" d="M1567.713,216.034a2.156,2.156,0,1,0-2.158-2.156A2.158,2.158,0,0,0,1567.713,216.034Z" fill="#282d33"/>
      <path id="패스_30050" data-name="패스 30050" d="M1562.214,223.4a12.576,12.576,0,0,0,8.1-2.966,1.55,1.55,0,1,0-2-2.369,9.692,9.692,0,0,1-12.2,0,1.551,1.551,0,0,0-2,2.369A12.574,12.574,0,0,0,1562.214,223.4Z" fill="#282d33"/>
      <path id="패스_30051" data-name="패스 30051" d="M1520.7,216.034a2.156,2.156,0,1,0-2.157-2.156A2.158,2.158,0,0,0,1520.7,216.034Z" fill="#282d33"/>
      <path id="패스_30052" data-name="패스 30052" d="M1526.2,223.4a12.574,12.574,0,0,0,8.1-2.966,1.551,1.551,0,0,0-2-2.369,9.685,9.685,0,0,1-12.2,0,1.551,1.551,0,0,0-2,2.369A12.571,12.571,0,0,0,1526.2,223.4Z" fill="#282d33"/>
    </g>
  </g>
</svg>
