<svg xmlns="http://www.w3.org/2000/svg" width="77.939" height="61.819" viewBox="0 0 77.939 61.819">
  <g id="그룹_19485" data-name="그룹 19485" transform="translate(1273.208 18.851)">
    <g id="그룹_19465" data-name="그룹 19465">
      <g id="그룹_19456" data-name="그룹 19456">
        <g id="그룹_19451" data-name="그룹 19451">
          <g id="그룹_19449" data-name="그룹 19449">
            <path id="패스_29466" data-name="패스 29466" d="M-1255.044,13.342l-3.424-3.617V-.708c-.434-2.664-2.33-5.206-4.978-5.208h-1.6c-.07,0-.134.009-.2.014l.2,18.786,2.575,4.321A12.979,12.979,0,0,0-1255.044,13.342Z" fill="#fff"/>
          </g>
          <g id="그룹_19450" data-name="그룹 19450">
            <path id="패스_29467" data-name="패스 29467" d="M-1263.273,18.884l-3.315-5.564-.221-20.653,1.445-.114c.124-.011.212-.017.305-.018h1.612c3.577,0,5.982,3.276,6.51,6.509l.02.249V9.108l4.03,4.257-1.055,1.067a14.5,14.5,0,0,1-8.312,4.31Zm-.223-6.434,1.806,3.033a11.292,11.292,0,0,0,4.431-2.226l-2.759-2.915V-.574c-.343-1.859-1.64-3.79-3.429-3.791h-.229Z" fill="#282d33"/>
          </g>
        </g>
        <g id="그룹_19454" data-name="그룹 19454">
          <g id="그룹_19452" data-name="그룹 19452">
            <path id="패스_29468" data-name="패스 29468" d="M-1257.248,31.158l-14.193-23.819-.2-18.787c.068,0,.131-.012.2-.012h1.6c2.648,0,4.544,2.544,4.978,5.207V4.179l3.9,4.118,11.156,11.156,1.014-1.022-6.933-6.9c-1.721-1.823-1.144-5.2.682-6.918l.489-.4,12.344,12.343.576,8.967v14" fill="#fff"/>
          </g>
          <g id="그룹_19453" data-name="그룹 19453">
            <path id="패스_29469" data-name="패스 29469" d="M-1240.09,39.52h-3.1V25.569l-.536-8.335L-1254.54,6.423c-.786,1.244-.988,3.065-.064,4.044l8,7.958-3.2,3.224-12.256-12.256-4.352-4.6V-6.121c-.343-1.858-1.64-3.788-3.429-3.79h-.229l.18,16.815,13.979,23.459-2.664,1.588-14.407-24.178-.221-20.686,1.479-.084c.116-.009.2-.014.288-.014l1.594,0c3.578,0,5.983,3.276,6.511,6.508l.02.25V3.561l3.473,3.671,1.54,1.539a7.371,7.371,0,0,1,2.188-5.285l.078-.069,1.566-1.308,13.764,13.76.617,9.65Z" fill="#282d33"/>
          </g>
        </g>
        <g id="그룹_19455" data-name="그룹 19455">
          <path id="패스_29470" data-name="패스 29470" d="M-1236.564,42.968V34.254h-24.828v8.714" fill="#5eb4e7"/>
        </g>
      </g>
      <g id="그룹_19464" data-name="그룹 19464">
        <g id="그룹_19459" data-name="그룹 19459">
          <g id="그룹_19457" data-name="그룹 19457">
            <path id="패스_29471" data-name="패스 29471" d="M-1213.419,13.342l3.426-3.617V-.708c.433-2.664,2.328-5.206,4.977-5.208h1.595c.07,0,.134.009.2.014l-.2,18.786-2.574,4.321A12.981,12.981,0,0,1-1213.419,13.342Z" fill="#fff"/>
          </g>
          <g id="그룹_19458" data-name="그룹 19458">
            <path id="패스_29472" data-name="패스 29472" d="M-1205.189,18.884l-1.019-.142a14.5,14.5,0,0,1-8.313-4.31l-1.055-1.067,4.032-4.258.02-10.063c.525-3.234,2.929-6.508,6.507-6.51h1.6c.109,0,.2.007.283.015l1.43.126.038,1.439-.206,19.2Zm-6.014-5.626a11.3,11.3,0,0,0,4.431,2.225l1.806-3.033.18-16.815h-.231c-1.788,0-3.085,1.932-3.426,3.79V10.343Z" fill="#282d33"/>
          </g>
        </g>
        <g id="그룹_19462" data-name="그룹 19462">
          <g id="그룹_19460" data-name="그룹 19460">
            <path id="패스_29473" data-name="패스 29473" d="M-1211.214,31.158l14.192-23.819.2-18.787c-.068,0-.132-.012-.2-.012h-1.595c-2.648,0-4.545,2.544-4.978,5.207V4.179l-3.9,4.118-11.156,11.156-1.015-1.022,6.933-6.9c1.723-1.823,1.145-5.2-.68-6.918l-.491-.4-12.343,12.343-.576,8.967v14" fill="#fff"/>
          </g>
          <g id="그룹_19461" data-name="그룹 19461">
            <path id="패스_29474" data-name="패스 29474" d="M-1225.271,39.52h-3.1l0-14.1.614-9.551L-1214,2.114l1.653,1.372a7.278,7.278,0,0,1,2.145,4.36,6.915,6.915,0,0,1,.052.916l1.561-1.561,3.443-3.64.02-10.064c.527-3.233,2.931-6.507,6.508-6.509l1.6,0c.086,0,.17.005.254.012l1.441.117.056,1.45-.207,19.2-14.406,24.178-2.664-1.588,13.978-23.459.181-16.815h-.231c-1.788,0-3.085,1.932-3.427,3.79V4.8l-4.322,4.567-12.286,12.286-3.2-3.224,8.032-7.993a2.756,2.756,0,0,0,.545-2.209,4.412,4.412,0,0,0-.64-1.8l-10.815,10.813-.536,8.335Z" fill="#282d33"/>
          </g>
        </g>
        <g id="그룹_19463" data-name="그룹 19463">
          <path id="패스_29475" data-name="패스 29475" d="M-1231.9,42.968V34.254h24.827v8.714" fill="#5eb4e7"/>
        </g>
      </g>
    </g>
    <g id="그룹_19484" data-name="그룹 19484">
      <g id="그룹_19468" data-name="그룹 19468">
        <g id="그룹_19466" data-name="그룹 19466">
          <line id="선_241" data-name="선 241" y2="18.397" transform="translate(-1233.997 -15.598)" fill="#fff"/>
        </g>
        <g id="그룹_19467" data-name="그룹 19467">
          <rect id="사각형_3862" data-name="사각형 3862" width="3.101" height="18.397" transform="translate(-1235.548 -15.598)" fill="#282d33"/>
        </g>
      </g>
      <g id="그룹_19483" data-name="그룹 19483">
        <g id="그룹_19475" data-name="그룹 19475">
          <g id="그룹_19471" data-name="그룹 19471">
            <g id="그룹_19469" data-name="그룹 19469">
              <path id="패스_29476" data-name="패스 29476" d="M-1249.647-5.877c2.686,2.687,6.769,3.376,10.925,2.278,1.1-4.155.41-8.236-2.278-10.924s-6.77-3.375-10.924-2.279C-1253.023-12.646-1252.334-8.565-1249.647-5.877Z" fill="#fff"/>
            </g>
            <g id="그룹_19470" data-name="그룹 19470">
              <path id="패스_29477" data-name="패스 29477" d="M-1242.429-1.549h0a11.448,11.448,0,0,1-8.315-3.232c-3-3-3.973-7.523-2.679-12.417l.231-.872.872-.231a16.113,16.113,0,0,1,4.1-.55,11.455,11.455,0,0,1,8.315,3.231c3,3,3.974,7.522,2.681,12.417l-.231.872-.872.231A16.093,16.093,0,0,1-1242.429-1.549Zm-8.2-13.959c-.679,3.439.06,6.513,2.081,8.535a8.42,8.42,0,0,0,6.121,2.323h0a12.564,12.564,0,0,0,2.415-.242c.678-3.44-.061-6.514-2.082-8.534a8.423,8.423,0,0,0-6.123-2.324A12.528,12.528,0,0,0-1250.632-15.508Z" fill="#282d33"/>
            </g>
          </g>
          <g id="그룹_19474" data-name="그룹 19474">
            <g id="그룹_19472" data-name="그룹 19472">
              <line id="선_242" data-name="선 242" x2="17.585" y2="17.584" transform="translate(-1251.924 -16.799)" fill="#fff"/>
            </g>
            <g id="그룹_19473" data-name="그룹 19473">
              <rect id="사각형_3863" data-name="사각형 3863" width="3.101" height="24.868" transform="translate(-1253.021 -15.703) rotate(-45.001)" fill="#282d33"/>
            </g>
          </g>
        </g>
        <g id="그룹_19482" data-name="그룹 19482">
          <g id="그룹_19478" data-name="그룹 19478">
            <g id="그룹_19476" data-name="그룹 19476">
              <path id="패스_29478" data-name="패스 29478" d="M-1218.831-5.877c-2.686,2.687-6.768,3.376-10.923,2.278-1.1-4.155-.412-8.236,2.278-10.924s6.769-3.375,10.924-2.279C-1215.455-12.646-1216.143-8.565-1218.831-5.877Z" fill="#fff"/>
            </g>
            <g id="그룹_19477" data-name="그룹 19477">
              <path id="패스_29479" data-name="패스 29479" d="M-1226.047-1.549a16.087,16.087,0,0,1-4.1-.551l-.873-.231-.231-.872c-1.292-4.9-.315-9.421,2.682-12.417a11.455,11.455,0,0,1,8.315-3.231,16.113,16.113,0,0,1,4.1.55l.873.231.231.873c1.293,4.894.315,9.42-2.682,12.416A11.441,11.441,0,0,1-1226.047-1.549Zm-2.415-3.343a12.55,12.55,0,0,0,2.415.242,8.415,8.415,0,0,0,6.119-2.323c2.022-2.022,2.762-5.1,2.084-8.535a12.536,12.536,0,0,0-2.413-.242,8.425,8.425,0,0,0-6.124,2.324C-1228.4-11.407-1229.141-8.332-1228.462-4.892Z" fill="#282d33"/>
            </g>
          </g>
          <g id="그룹_19481" data-name="그룹 19481">
            <g id="그룹_19479" data-name="그룹 19479">
              <line id="선_243" data-name="선 243" x1="17.585" y2="17.584" transform="translate(-1234.137 -16.799)" fill="#fff"/>
            </g>
            <g id="그룹_19480" data-name="그룹 19480">
              <rect id="사각형_3864" data-name="사각형 3864" width="24.868" height="3.101" transform="translate(-1235.232 -0.31) rotate(-45.009)" fill="#282d33"/>
            </g>
          </g>
        </g>
      </g>
    </g>
  </g>
</svg>
