<svg xmlns="http://www.w3.org/2000/svg" width="50.956" height="80.733" viewBox="0 0 50.956 80.733">
  <g id="그룹_19216" data-name="그룹 19216" transform="translate(0 0)">
    <g id="그룹_5814" data-name="그룹 5814" transform="translate(0 0)">
      <g id="그룹_5804" data-name="그룹 5804" transform="translate(1.306 66.768)">
        <path id="패스_6448" data-name="패스 6448" d="M826.15,729.652v-6.206a6.206,6.206,0,0,1,6.206-6.206h34.134a6.206,6.206,0,0,1,6.206,6.206v6.206" transform="translate(-824.598 -715.688)" fill="#fff"/>
        <path id="패스_6449" data-name="패스 6449" d="M873.8,729.2h-3.1V723a4.659,4.659,0,0,0-4.655-4.655H831.908A4.659,4.659,0,0,0,827.253,723V729.2h-3.1V723a7.767,7.767,0,0,1,7.758-7.758h34.134A7.767,7.767,0,0,1,873.8,723Z" transform="translate(-824.15 -715.24)" fill="gray"/>
      </g>
      <g id="그룹_5805" data-name="그룹 5805" transform="translate(17.289 21.281)">
        <path id="패스_6450" data-name="패스 6450" d="M854.173,713.168a7.421,7.421,0,0,1-7.42-7.42V666.027a7.422,7.422,0,0,1,7.42-7.421h0a7.421,7.421,0,0,1,7.42,7.421v39.721a7.42,7.42,0,0,1-7.42,7.42Z" transform="translate(-845.201 -657.054)" fill="#fff"/>
        <path id="패스_6451" data-name="패스 6451" d="M853.725,714.271a8.982,8.982,0,0,1-8.972-8.972V665.579a8.972,8.972,0,1,1,17.943,0V705.3A8.981,8.981,0,0,1,853.725,714.271Zm0-54.562a5.875,5.875,0,0,0-5.869,5.87V705.3a5.868,5.868,0,1,0,11.737,0V665.579A5.875,5.875,0,0,0,853.725,659.709Z" transform="translate(-844.753 -656.606)" fill="gray"/>
      </g>
      <g id="그룹_5806" data-name="그룹 5806" transform="translate(0 0)">
        <path id="패스_6452" data-name="패스 6452" d="M872.226,694.573V655.052a23.879,23.879,0,0,0-47.759,0v39.521h.8a19.439,19.439,0,0,0,19.415-19.258h7.948a19.439,19.439,0,0,0,19.415,19.258Z" transform="translate(-822.915 -629.622)" fill="#ccc"/>
        <path id="패스_6453" data-name="패스 6453" d="M873.329,695.676h-1.737a21.035,21.035,0,0,1-20.9-19.258h-4.983a21.035,21.035,0,0,1-20.9,19.258h-2.347V654.6a25.431,25.431,0,0,1,50.862,0Zm-25.431-63.4A22.352,22.352,0,0,0,825.57,654.6v37.954a17.92,17.92,0,0,0,17.108-17.7l.013-1.539h11.025l.012,1.539a17.925,17.925,0,0,0,16.5,17.667V654.6A22.352,22.352,0,0,0,847.9,632.277Z" transform="translate(-822.467 -629.174)" fill="gray"/>
      </g>
      <g id="그룹_5807" data-name="그룹 5807" transform="translate(39.014 28.477)">
        <path id="사각형_2642" data-name="사각형 2642" d="M3.794,0h0A3.791,3.791,0,0,1,7.588,3.791V10.17a3.794,3.794,0,0,1-3.794,3.794h0A3.794,3.794,0,0,1,0,10.17V3.794A3.794,3.794,0,0,1,3.794,0Z" transform="translate(1.552 1.551)" fill="#fff"/>
        <path id="패스_6454" data-name="패스 6454" d="M878.254,682.949h-.3a5.2,5.2,0,0,1-5.192-5.195v-6.678a5.2,5.2,0,0,1,5.192-5.195h.3a5.2,5.2,0,0,1,5.195,5.195v6.678A5.2,5.2,0,0,1,878.254,682.949Zm-.3-13.964a2.092,2.092,0,0,0-2.089,2.091v6.678a2.093,2.093,0,0,0,2.089,2.092h.3a2.093,2.093,0,0,0,2.091-2.092v-6.678a2.093,2.093,0,0,0-2.091-2.091Z" transform="translate(-872.757 -665.882)" fill="gray"/>
      </g>
      <g id="그룹_5808" data-name="그룹 5808" transform="translate(5.43 26.426)">
        <path id="패스_6455" data-name="패스 6455" d="M868.365,663.238V677a18.449,18.449,0,0,1-18.449,18.45h0A18.449,18.449,0,0,1,831.467,677V663.238" transform="translate(-829.915 -663.238)" fill="#fff"/>
        <path id="패스_6456" data-name="패스 6456" d="M849.467,697a20.023,20.023,0,0,1-20-20V663.238h3.1V677a16.9,16.9,0,1,0,33.795,0V663.238h3.1V677A20.023,20.023,0,0,1,849.467,697Z" transform="translate(-829.467 -663.238)" fill="gray"/>
      </g>
      <g id="그룹_5809" data-name="그룹 5809" transform="translate(0.613 28.345)">
        <path id="패스_6457" data-name="패스 6457" d="M830.075,667.93c-1.832.191-4.818,1.722-4.818,3.606v6.678c0,1.884,2.985,3.415,4.818,3.605Z" transform="translate(-823.705 -666.209)" fill="#fff"/>
        <path id="패스_6458" data-name="패스 6458" d="M831.178,683.042l-1.711-.178c-2.538-.263-6.209-2.248-6.209-5.148v-6.678c0-2.9,3.671-4.884,6.209-5.149l1.712-.178Zm-3.1-13.533c-.946.465-1.714,1.119-1.714,1.529v6.678c0,.411.768,1.065,1.714,1.529Z" transform="translate(-823.257 -665.711)" fill="gray"/>
      </g>
      <g id="그룹_5810" data-name="그룹 5810" transform="translate(14.447 36.641)">
        <rect id="사각형_2643" data-name="사각형 2643" width="3.362" height="3.103" fill="gray"/>
      </g>
      <g id="그룹_5811" data-name="그룹 5811" transform="translate(33.066 36.641)">
        <rect id="사각형_2644" data-name="사각형 2644" width="3.362" height="3.103" fill="gray"/>
      </g>
      <g id="그룹_5812" data-name="그룹 5812" transform="translate(24.443 47.617)">
        <path id="패스_6459" data-name="패스 6459" d="M853.974,694.188h2.313a3.3,3.3,0,0,0,3.3-3.3v-.33" transform="translate(-853.974 -690.553)" fill="#fff"/>
        <path id="패스_6460" data-name="패스 6460" d="M856.287,695.739h-2.313v-3.1h2.313a1.755,1.755,0,0,0,1.753-1.753v-.33h3.1v.33A4.861,4.861,0,0,1,856.287,695.739Z" transform="translate(-853.974 -690.553)" fill="gray"/>
      </g>
      <g id="그룹_5813" data-name="그룹 5813" transform="translate(5.43 10.849)">
        <path id="패스_6461" data-name="패스 6461" d="M837.289,644.616a18.4,18.4,0,0,0-5.822,13.45v2.548h13.794a5.421,5.421,0,0,0,4.655-2.644,5.422,5.422,0,0,0,4.655,2.644h13.794" transform="translate(-829.915 -643.485)" fill="#ccc"/>
        <path id="패스_6462" data-name="패스 6462" d="M867.916,661.839H854.122a6.914,6.914,0,0,1-4.655-1.777,6.912,6.912,0,0,1-4.655,1.777H829.467v-4.1a20.078,20.078,0,0,1,6.312-14.581l2.124,2.262a16.74,16.74,0,0,0-5.333,12.319v1h12.243a3.847,3.847,0,0,0,3.323-1.891l1.33-2.217,1.331,2.217a3.849,3.849,0,0,0,3.324,1.891h13.794Z" transform="translate(-829.467 -643.158)" fill="gray"/>
      </g>
    </g>
  </g>
</svg>
