<svg id="그룹_19215" data-name="그룹 19215" xmlns="http://www.w3.org/2000/svg" width="55.856" height="77.768" viewBox="0 0 55.856 77.768">
  <g id="그룹_5802" data-name="그룹 5802" transform="translate(0 0)">
    <g id="그룹_5792" data-name="그룹 5792" transform="translate(0 59.773)">
      <path id="패스_6432" data-name="패스 6432" d="M722.7,728.487v-9.135c0-4.036,3.7-7.309,8.257-7.309H767.2c4.561,0,8.257,3.272,8.257,7.309v9.135" transform="translate(-721.149 -710.492)" fill="#fff"/>
      <path id="패스_6433" data-name="패스 6433" d="M776.557,728.039h-3.1V718.9c0-3.175-3.008-5.757-6.705-5.757H730.51c-3.7,0-6.706,2.583-6.706,5.757v9.135h-3.1V718.9c0-4.886,4.4-8.86,9.809-8.86h36.239c5.408,0,9.808,3.974,9.808,8.86Z" transform="translate(-720.701 -710.044)" fill="gray"/>
    </g>
    <path id="패스_6434" data-name="패스 6434" d="M753.312,727.974h.388a10.873,10.873,0,0,0,10.861-10.861v-3.055h-22.11v3.055A10.873,10.873,0,0,0,753.312,727.974Z" transform="translate(-725.578 -651.172)" fill="#ccc"/>
    <g id="그룹_5793" data-name="그룹 5793" transform="translate(19.976 42.28)">
      <rect id="사각형_2639" data-name="사각형 2639" width="12.8" height="28.316" rx="6.4" transform="translate(1.551 1.551)" fill="#fff"/>
      <path id="패스_6435" data-name="패스 6435" d="M754.6,718.915h-.388a7.767,7.767,0,0,1-7.758-7.758v-15.9a7.767,7.767,0,0,1,7.758-7.758h.388a7.767,7.767,0,0,1,7.758,7.758v15.9A7.767,7.767,0,0,1,754.6,718.915Zm-.388-28.316a4.659,4.659,0,0,0-4.655,4.655v15.9a4.659,4.659,0,0,0,4.655,4.655h.388a4.66,4.66,0,0,0,4.655-4.655v-15.9A4.66,4.66,0,0,0,754.6,690.6Z" transform="translate(-746.451 -687.496)" fill="gray"/>
    </g>
    <g id="그룹_5794" data-name="그룹 5794" transform="translate(8.316 3.117)">
      <path id="패스_6436" data-name="패스 6436" d="M770.318,672.221a18.448,18.448,0,0,1-18.449,18.449h0a18.448,18.448,0,0,1-18.449-18.449V657.462a18.448,18.448,0,0,1,18.449-18.448h0a18.448,18.448,0,0,1,18.449,18.448Z" transform="translate(-731.868 -637.462)" fill="#fff"/>
      <path id="패스_6437" data-name="패스 6437" d="M751.42,691.773a20.023,20.023,0,0,1-20-20V657.014a20,20,0,0,1,40,0v14.758A20.023,20.023,0,0,1,751.42,691.773Zm0-51.656a16.916,16.916,0,0,0-16.9,16.9v14.758a16.9,16.9,0,1,0,33.795,0V657.014A16.916,16.916,0,0,0,751.42,640.117Z" transform="translate(-731.42 -637.014)" fill="gray"/>
    </g>
    <g id="그룹_5795" data-name="그룹 5795" transform="translate(3.685 0)">
      <path id="패스_6438" data-name="패스 6438" d="M734.409,667.967V653.846c0-.2.022-.391.03-.587a81.733,81.733,0,0,0,32.183,0c.008.2.03.389.03.587v14.121h5.208a21.612,21.612,0,0,0,1.75-8.534v-2.715A21.722,21.722,0,0,0,751.888,635h-2.715a21.722,21.722,0,0,0-21.722,21.722v2.715a21.613,21.613,0,0,0,1.749,8.534Z" transform="translate(-725.899 -633.444)" fill="#ccc"/>
      <path id="패스_6439" data-name="패스 6439" d="M772.436,669.07h-7.784V654.69a84.143,84.143,0,0,1-29.14,0V669.07h-7.784l-.4-.941a23.092,23.092,0,0,1-1.874-9.144v-2.715A23.3,23.3,0,0,1,748.724,633h2.715a23.3,23.3,0,0,1,23.273,23.273v2.715a23.1,23.1,0,0,1-1.874,9.144Zm-4.681-3.1h2.607a20.012,20.012,0,0,0,1.248-6.982v-2.715a20.193,20.193,0,0,0-20.17-20.17h-2.715a20.193,20.193,0,0,0-20.17,20.17v2.715a20,20,0,0,0,1.248,6.982h2.607V653.4c0-.154.009-.3.019-.456l.011-.188.068-1.841,1.8.379a80.194,80.194,0,0,0,31.545,0l1.8-.379.079,2.029c.01.151.019.3.019.456Z" transform="translate(-725.451 -632.996)" fill="gray"/>
    </g>
    <g id="그룹_5796" data-name="그룹 5796" transform="translate(42.863 30.82)">
      <path id="패스_6440" data-name="패스 6440" d="M777.952,678.366a3.643,3.643,0,0,1,3.643-3.643h.3a3.643,3.643,0,0,1,3.642,3.643v4.423a3.643,3.643,0,0,1-3.642,3.643h-.3a3.644,3.644,0,0,1-3.334-2.172" transform="translate(-776.4 -673.171)" fill="#fff"/>
      <path id="패스_6441" data-name="패스 6441" d="M781.451,687.536h-.3a5.2,5.2,0,0,1-4.753-3.1l2.838-1.254a2.1,2.1,0,0,0,1.915,1.247h.3a2.093,2.093,0,0,0,2.091-2.092v-4.423a2.093,2.093,0,0,0-2.091-2.091h-.3a2.093,2.093,0,0,0-2.091,2.091h-3.1a5.2,5.2,0,0,1,5.195-5.195h.3a5.2,5.2,0,0,1,5.194,5.195v4.423A5.2,5.2,0,0,1,781.451,687.536Z" transform="translate(-775.952 -672.723)" fill="gray"/>
    </g>
    <g id="그룹_5797" data-name="그룹 5797" transform="translate(5.474 30.65)">
      <path id="패스_6442" data-name="패스 6442" d="M734.911,674.723c-1.959.2-5.154,1.842-5.154,3.856v4.654c0,2.015,3.2,3.652,5.154,3.856Z" transform="translate(-728.205 -673.002)" fill="#fff"/>
      <path id="패스_6443" data-name="패스 6443" d="M736.014,688.313l-1.712-.178c-2.675-.278-6.545-2.361-6.545-5.4v-4.654c0-3.037,3.87-5.12,6.545-5.4l1.712-.178Zm-3.1-12.041c-1.125.521-2.051,1.312-2.051,1.809v4.654c0,.534.95,1.3,2.051,1.8Z" transform="translate(-727.757 -672.504)" fill="gray"/>
    </g>
    <g id="그룹_5798" data-name="그룹 5798" transform="translate(22.696 38.789)">
      <path id="패스_6444" data-name="패스 6444" d="M758.551,683a3.3,3.3,0,0,1-6.594,0" transform="translate(-750.405 -682.996)" fill="#fff"/>
      <path id="패스_6445" data-name="패스 6445" d="M754.806,687.845A4.854,4.854,0,0,1,749.957,683h3.1a1.746,1.746,0,0,0,3.491,0h3.1A4.854,4.854,0,0,1,754.806,687.845Z" transform="translate(-749.957 -682.996)" fill="gray"/>
    </g>
    <g id="그룹_5799" data-name="그룹 5799" transform="translate(18.817 31.419)">
      <rect id="사각형_2640" data-name="사각형 2640" width="3.362" height="3.103" fill="gray"/>
    </g>
    <g id="그룹_5800" data-name="그룹 5800" transform="translate(32.781 31.419)">
      <rect id="사각형_2641" data-name="사각형 2641" width="3.362" height="3.103" fill="gray"/>
    </g>
    <g id="그룹_5801" data-name="그룹 5801" transform="translate(17.047 45.124)">
      <path id="패스_6446" data-name="패스 6446" d="M746.559,693.162a10.13,10.13,0,0,0,16.521,0Z" transform="translate(-743.546 -691.61)" fill="#fff"/>
      <path id="패스_6447" data-name="패스 6447" d="M753.949,698.532a11.726,11.726,0,0,1-9.523-4.917l-1.75-2.453h22.547l-1.75,2.453A11.728,11.728,0,0,1,753.949,698.532Zm-4.3-4.267a8.539,8.539,0,0,0,8.607,0Z" transform="translate(-742.675 -691.162)" fill="gray"/>
    </g>
  </g>
</svg>
