<svg xmlns="http://www.w3.org/2000/svg" width="75.702" height="54.424" viewBox="0 0 75.702 54.424">
  <g id="그룹_19494" data-name="그룹 19494" transform="translate(743.469 662.339)">
    <g id="그룹_19735" data-name="그룹 19735">
      <line id="선_258" data-name="선 258" y2="18.731" transform="translate(-674.762 -628.623)" fill="#fff"/>
    </g>
    <g id="그룹_19736" data-name="그룹 19736">
      <rect id="사각형_3911" data-name="사각형 3911" width="3.101" height="18.731" transform="translate(-676.313 -628.623)" fill="gray"/>
    </g>
    <g id="그룹_19737" data-name="그룹 19737">
      <path id="패스_29573" data-name="패스 29573" d="M-741.918-609.892v-42.587a2.3,2.3,0,0,1,2.293-2.294h33.349" fill="#fff"/>
    </g>
    <g id="그룹_19738" data-name="그룹 19738">
      <path id="패스_29574" data-name="패스 29574" d="M-740.368-609.892h-3.1v-42.587a3.849,3.849,0,0,1,3.844-3.845h33.349v3.1h-33.349a.745.745,0,0,0-.743.744Z" fill="gray"/>
    </g>
    <g id="그룹_19739" data-name="그룹 19739">
      <rect id="사각형_3912" data-name="사각형 3912" width="57.392" height="35.049" transform="translate(-737.035 -649.89)" fill="#ccc"/>
    </g>
    <g id="그룹_19740" data-name="그룹 19740">
      <path id="패스_29575" data-name="패스 29575" d="M-671.668-660.788h-27.274a2.55,2.55,0,0,0-2.347,2.715V-635.9a2.548,2.548,0,0,0,2.347,2.712h4.181v5.2l6.136-5.2h16.957a2.55,2.55,0,0,0,2.351-2.712v-22.178A2.551,2.551,0,0,0-671.668-660.788Z" fill="#fff"/>
    </g>
    <g id="그룹_19741" data-name="그룹 19741">
      <path id="패스_29576" data-name="패스 29576" d="M-696.311-624.638v-6.995h-2.631a4.1,4.1,0,0,1-3.9-4.262v-22.178a4.1,4.1,0,0,1,3.9-4.266h27.274a4.1,4.1,0,0,1,3.9,4.266V-635.9a4.1,4.1,0,0,1-3.9,4.262h-16.389Zm-2.631-34.6c-.377,0-.8.479-.8,1.165V-635.9c0,.684.419,1.161.8,1.161h5.732v3.4l4.016-3.4h17.526c.378,0,.8-.477.8-1.161v-22.178c0-.686-.422-1.165-.8-1.165Z" fill="gray"/>
    </g>
    <g id="그룹_19751" data-name="그룹 19751">
      <g id="그룹_19742" data-name="그룹 19742">
        <path id="패스_29577" data-name="패스 29577" d="M-734.586-611.016v-3.762a4.141,4.141,0,0,1,4.369-3.868h19.176a4.141,4.141,0,0,1,4.369,3.868v3.762" fill="#ccc"/>
      </g>
      <g id="그룹_19743" data-name="그룹 19743">
        <path id="패스_29578" data-name="패스 29578" d="M-705.122-611.016h-3.1v-3.762a2.608,2.608,0,0,0-2.818-2.318h-19.176a2.609,2.609,0,0,0-2.819,2.318v3.762h-3.1v-3.762a5.693,5.693,0,0,1,5.92-5.419h19.176a5.692,5.692,0,0,1,5.919,5.419Z" fill="gray"/>
      </g>
      <g id="그룹_19744" data-name="그룹 19744">
        <path id="패스_29579" data-name="패스 29579" d="M-717.044-618.606l-3.671,2.12-3.67-2.12v-8.015h7.341Z" fill="#fff"/>
      </g>
      <g id="그룹_19745" data-name="그룹 19745">
        <path id="패스_29580" data-name="패스 29580" d="M-720.715-614.7l-5.221-3.015v-10.461h10.442v10.461Zm-2.12-4.8,2.12,1.224,2.12-1.225v-5.569h-4.24Z" fill="gray"/>
      </g>
      <g id="그룹_19746" data-name="그룹 19746">
        <path id="패스_29581" data-name="패스 29581" d="M-712.045-638.453v8.24c0,4.741-3.843,7.771-8.584,7.771h0c-4.741,0-8.584-3.03-8.584-7.771v-8.24" fill="#fff"/>
      </g>
      <g id="그룹_19747" data-name="그룹 19747">
        <path id="패스_29582" data-name="패스 29582" d="M-720.629-620.892c-5.873,0-10.135-3.92-10.135-9.321v-8.24h3.1v8.24c0,3.662,2.892,6.22,7.034,6.22s7.033-2.558,7.033-6.22v-8.24h3.1v8.24C-710.495-624.812-714.757-620.892-720.629-620.892Z" fill="gray"/>
      </g>
      <g id="그룹_19748" data-name="그룹 19748">
        <path id="패스_29583" data-name="패스 29583" d="M-724.707-646.158a4.52,4.52,0,0,0-3.78,2.043h-1.551a3.5,3.5,0,0,0-3.5,3.5v6.8l4.125,5.723v-7.39a2.465,2.465,0,0,1,2.465-2.465h14.158a4.52,4.52,0,0,0,4.52-4.519v-3.7Z" fill="#fff"/>
      </g>
      <g id="그룹_19749" data-name="그룹 19749">
        <path id="패스_29584" data-name="패스 29584" d="M-727.866-623.283l-7.225-10.026v-7.3a5.059,5.059,0,0,1,5.053-5.054h.79a6.054,6.054,0,0,1,4.541-2.044h17.985v5.249a6.077,6.077,0,0,1-6.071,6.07h-14.158a.916.916,0,0,0-.915.914Zm-4.124-11.027,1.023,1.42v-2.586a4.02,4.02,0,0,1,4.016-4.015h14.158a2.973,2.973,0,0,0,2.97-2.969v-2.148h-14.884a2.968,2.968,0,0,0-2.484,1.345l-.459.7h-2.388a1.955,1.955,0,0,0-1.952,1.953Z" fill="gray"/>
      </g>
      <g id="그룹_19750" data-name="그룹 19750">
        <rect id="사각형_3913" data-name="사각형 3913" width="3.101" height="4.918" transform="translate(-722.408 -615.934)" fill="gray"/>
      </g>
    </g>
    <g id="그룹_19762" data-name="그룹 19762">
      <g id="그룹_19754" data-name="그룹 19754">
        <g id="그룹_19752" data-name="그룹 19752">
          <line id="선_259" data-name="선 259" x2="21.028" transform="translate(-695.791 -646.845)" fill="#fff"/>
        </g>
        <g id="그룹_19753" data-name="그룹 19753">
          <rect id="사각형_3914" data-name="사각형 3914" width="21.028" height="3.101" transform="translate(-695.791 -648.396)" fill="gray"/>
        </g>
      </g>
      <g id="그룹_19761" data-name="그룹 19761">
        <g id="그룹_19757" data-name="그룹 19757">
          <g id="그룹_19755" data-name="그룹 19755">
            <line id="선_260" data-name="선 260" x2="12.56" transform="translate(-695.791 -652.715)" fill="#fff"/>
          </g>
          <g id="그룹_19756" data-name="그룹 19756">
            <rect id="사각형_3915" data-name="사각형 3915" width="12.56" height="3.101" transform="translate(-695.791 -654.265)" fill="gray"/>
          </g>
        </g>
        <g id="그룹_19760" data-name="그룹 19760">
          <g id="그룹_19758" data-name="그룹 19758">
            <line id="선_261" data-name="선 261" x2="12.56" transform="translate(-695.791 -640.976)" fill="#fff"/>
          </g>
          <g id="그룹_19759" data-name="그룹 19759">
            <rect id="사각형_3916" data-name="사각형 3916" width="12.56" height="3.101" transform="translate(-695.791 -642.527)" fill="gray"/>
          </g>
        </g>
      </g>
    </g>
    <g id="그룹_19763" data-name="그룹 19763">
      <rect id="사각형_3917" data-name="사각형 3917" width="70.257" height="3.101" transform="translate(-743.469 -611.016)" fill="gray"/>
    </g>
  </g>
</svg>
