<svg xmlns="http://www.w3.org/2000/svg" width="55.856" height="77.768" viewBox="0 0 55.856 77.768">
  <g id="그룹_5704" data-name="그룹 5704" transform="translate(0)">
    <g id="그룹_5694" data-name="그룹 5694" transform="translate(0 59.773)">
      <path id="패스_6300" data-name="패스 6300" d="M722.7,257.129v-9.135c0-4.036,3.7-7.309,8.257-7.309H767.2c4.561,0,8.257,3.272,8.257,7.309v9.135" transform="translate(-721.149 -239.134)" fill="#fff"/>
      <path id="패스_6301" data-name="패스 6301" d="M776.557,256.681h-3.1v-9.135c0-3.174-3.008-5.757-6.705-5.757H730.51c-3.7,0-6.706,2.583-6.706,5.757v9.135h-3.1v-9.135c0-4.886,4.4-8.86,9.809-8.86h36.239c5.408,0,9.808,3.974,9.808,8.86Z" transform="translate(-720.701 -238.686)" fill="#282d33"/>
    </g>
    <path id="패스_6302" data-name="패스 6302" d="M753.312,256.616h.388a10.873,10.873,0,0,0,10.861-10.861V242.7h-22.11v3.054A10.873,10.873,0,0,0,753.312,256.616Z" transform="translate(-725.578 -179.814)" fill="#f8c44f"/>
    <g id="그룹_5695" data-name="그룹 5695" transform="translate(19.976 42.28)">
      <rect id="사각형_2618" data-name="사각형 2618" width="12.8" height="28.316" rx="6.4" transform="translate(1.551 1.552)" fill="#fff"/>
      <path id="패스_6303" data-name="패스 6303" d="M754.6,247.557h-.388a7.767,7.767,0,0,1-7.758-7.758V223.9a7.767,7.767,0,0,1,7.758-7.758h.388a7.767,7.767,0,0,1,7.758,7.758v15.9A7.767,7.767,0,0,1,754.6,247.557Zm-.388-28.316a4.659,4.659,0,0,0-4.655,4.655v15.9a4.659,4.659,0,0,0,4.655,4.655h.388a4.66,4.66,0,0,0,4.655-4.655V223.9a4.66,4.66,0,0,0-4.655-4.655Z" transform="translate(-746.451 -216.138)" fill="#282d33"/>
    </g>
    <g id="그룹_5696" data-name="그룹 5696" transform="translate(8.316 3.118)">
      <path id="패스_6304" data-name="패스 6304" d="M770.318,200.863a18.448,18.448,0,0,1-18.449,18.45h0a18.448,18.448,0,0,1-18.449-18.45V186.1a18.447,18.447,0,0,1,18.449-18.447h0A18.447,18.447,0,0,1,770.318,186.1Z" transform="translate(-731.868 -166.105)" fill="#fff"/>
      <path id="패스_6305" data-name="패스 6305" d="M751.42,220.416a20.023,20.023,0,0,1-20-20V185.656a20,20,0,0,1,40,0v14.758A20.023,20.023,0,0,1,751.42,220.416Zm0-51.655a16.916,16.916,0,0,0-16.9,16.9v14.758a16.9,16.9,0,1,0,33.795,0V185.656A16.916,16.916,0,0,0,751.42,168.76Z" transform="translate(-731.42 -165.657)" fill="#282d33"/>
    </g>
    <g id="그룹_5697" data-name="그룹 5697" transform="translate(3.685 0)">
      <path id="패스_6306" data-name="패스 6306" d="M734.409,196.609V182.488c0-.2.022-.391.03-.587a81.7,81.7,0,0,0,32.183,0c.008.2.03.389.03.587v14.121h5.208a21.61,21.61,0,0,0,1.75-8.534V185.36a21.722,21.722,0,0,0-21.722-21.722h-2.715a21.722,21.722,0,0,0-21.722,21.722v2.715a21.611,21.611,0,0,0,1.749,8.534Z" transform="translate(-725.899 -162.086)" fill="#5eb4e7"/>
      <path id="패스_6307" data-name="패스 6307" d="M772.436,197.712h-7.784v-14.38a84.088,84.088,0,0,1-29.14,0v14.379h-7.784l-.4-.94a23.1,23.1,0,0,1-1.874-9.145v-2.715a23.3,23.3,0,0,1,23.273-23.273h2.715a23.3,23.3,0,0,1,23.273,23.273v2.715a23.1,23.1,0,0,1-1.874,9.144Zm-4.681-3.1h2.607a20.009,20.009,0,0,0,1.248-6.982v-2.715a20.194,20.194,0,0,0-20.17-20.17h-2.715a20.193,20.193,0,0,0-20.17,20.17v2.715a20,20,0,0,0,1.248,6.982h2.607V182.04c0-.154.009-.3.019-.456l.011-.188.068-1.841,1.8.379a80.157,80.157,0,0,0,31.545,0l1.8-.379.079,2.029c.01.151.019.3.019.456Z" transform="translate(-725.451 -161.638)" fill="#282d33"/>
    </g>
    <g id="그룹_5698" data-name="그룹 5698" transform="translate(42.863 30.82)">
      <path id="패스_6308" data-name="패스 6308" d="M777.952,207.008a3.642,3.642,0,0,1,3.643-3.642h.3a3.643,3.643,0,0,1,3.642,3.642v4.424a3.643,3.643,0,0,1-3.642,3.643h-.3a3.644,3.644,0,0,1-3.334-2.172" transform="translate(-776.4 -201.814)" fill="#fff"/>
      <path id="패스_6309" data-name="패스 6309" d="M781.451,216.178h-.3a5.2,5.2,0,0,1-4.753-3.1l2.838-1.254a2.1,2.1,0,0,0,1.915,1.247h.3a2.093,2.093,0,0,0,2.091-2.092V206.56a2.093,2.093,0,0,0-2.091-2.091h-.3a2.093,2.093,0,0,0-2.091,2.091h-3.1a5.2,5.2,0,0,1,5.195-5.194h.3a5.2,5.2,0,0,1,5.194,5.194v4.424A5.2,5.2,0,0,1,781.451,216.178Z" transform="translate(-775.952 -201.366)" fill="#282d33"/>
    </g>
    <g id="그룹_5699" data-name="그룹 5699" transform="translate(5.474 30.65)">
      <path id="패스_6310" data-name="패스 6310" d="M734.911,203.365c-1.959.2-5.154,1.842-5.154,3.856v4.654c0,2.015,3.2,3.652,5.154,3.856Z" transform="translate(-728.205 -201.644)" fill="#fff"/>
      <path id="패스_6311" data-name="패스 6311" d="M736.014,216.955l-1.712-.178c-2.675-.278-6.545-2.361-6.545-5.4v-4.654c0-3.037,3.87-5.12,6.545-5.4l1.712-.178Zm-3.1-12.041c-1.125.521-2.051,1.312-2.051,1.809v4.654c0,.534.95,1.3,2.051,1.8Z" transform="translate(-727.757 -201.146)" fill="#282d33"/>
    </g>
    <g id="그룹_5700" data-name="그룹 5700" transform="translate(22.696 38.789)">
      <path id="패스_6312" data-name="패스 6312" d="M758.551,211.638a3.3,3.3,0,1,1-6.594,0" transform="translate(-750.405 -211.638)" fill="#fff"/>
      <path id="패스_6313" data-name="패스 6313" d="M754.806,216.487a4.854,4.854,0,0,1-4.849-4.849h3.1a1.746,1.746,0,1,0,3.491,0h3.1A4.854,4.854,0,0,1,754.806,216.487Z" transform="translate(-749.957 -211.638)" fill="#282d33"/>
    </g>
    <g id="그룹_5701" data-name="그룹 5701" transform="translate(18.817 31.419)">
      <rect id="사각형_2619" data-name="사각형 2619" width="3.362" height="3.103" fill="#282d33"/>
    </g>
    <g id="그룹_5702" data-name="그룹 5702" transform="translate(32.781 31.419)">
      <rect id="사각형_2620" data-name="사각형 2620" width="3.362" height="3.103" fill="#282d33"/>
    </g>
    <g id="그룹_5703" data-name="그룹 5703" transform="translate(17.047 45.125)">
      <path id="패스_6314" data-name="패스 6314" d="M746.559,221.8a10.131,10.131,0,0,0,16.521,0Z" transform="translate(-743.546 -220.253)" fill="#fff"/>
      <path id="패스_6315" data-name="패스 6315" d="M753.949,227.174a11.727,11.727,0,0,1-9.523-4.917l-1.75-2.452h22.547l-1.75,2.452A11.728,11.728,0,0,1,753.949,227.174Zm-4.3-4.266a8.544,8.544,0,0,0,8.607,0Z" transform="translate(-742.675 -219.805)" fill="#282d33"/>
    </g>
  </g>
</svg>
