<svg xmlns="http://www.w3.org/2000/svg" width="170.634" height="198.786" viewBox="0 0 170.634 198.786">
  <g id="그룹_5693" data-name="그룹 5693" transform="translate(-469.891 -271.716)">
    <rect id="사각형_2607" data-name="사각형 2607" width="9.136" height="18.263" transform="translate(529.963 453.127) rotate(-17.953)" fill="#fff"/>
    <rect id="사각형_2608" data-name="사각형 2608" width="9.135" height="18.263" transform="translate(515.643 438.569) rotate(-17.952)" fill="#fff"/>
    <rect id="사각형_2609" data-name="사각형 2609" width="9.128" height="18.264" transform="translate(501.33 424.008) rotate(-17.952)" fill="#fff"/>
    <path id="패스_6293" data-name="패스 6293" d="M507.409,921.888l-2.813-8.683-34.7,11.245L481.149,959.2l8.684-2.813-8.443-26.058Z" transform="translate(0 -538.247)" fill="#fff"/>
    <rect id="사각형_2610" data-name="사각형 2610" width="9.128" height="9.128" transform="translate(489.833 418.138) rotate(-17.954)" fill="#fff"/>
    <path id="패스_6294" data-name="패스 6294" d="M1395.66,668.438l-8.691,2.816q7.171,22.132,14.347,44.278l8.691-2.816Z" transform="translate(-769.482 -332.873)" fill="#fff"/>
    <path id="패스_6295" data-name="패스 6295" d="M1190.1,601.147q5.625,17.364,11.259,34.749l8.684-2.814-8.446-26.065,8.684-2.813-2.813-8.684Z" transform="translate(-604.296 -271.69)" fill="#fff"/>
    <rect id="사각형_2611" data-name="사각형 2611" width="9.135" height="9.128" transform="translate(605.984 332.513) rotate(-17.952)" fill="#fff"/>
    <path id="패스_6296" data-name="패스 6296" d="M601.569,455.432l-8.684,2.813,2.816,8.691,8.684-2.814,8.44,26.05,8.676-2.811L580.436,360.62l-8.676,2.811Z" transform="translate(-85.474 -74.596)" fill="#fff"/>
    <path id="패스_6297" data-name="패스 6297" d="M1010.693,584.928l11.259,34.749,8.684-2.814-8.443-26.058,17.374-5.63-2.816-8.691Z" transform="translate(-453.764 -255.719)" fill="#fff"/>
    <path id="패스_6298" data-name="패스 6298" d="M757.952,356.772l-15.743-48.566-8.675,2.811,29.809,92,8.676-2.811-11.252-34.751,17.374-5.63-2.813-8.684Z" transform="translate(-221.211 -30.617)" fill="#fff"/>
    <path id="패스_6299" data-name="패스 6299" d="M608.186,277.341,611,286.024l17.36-5.625-2.814-8.684Z" transform="translate(-116.038 0)" fill="#fff"/>
  </g>
</svg>
