<svg xmlns="http://www.w3.org/2000/svg" width="75.874" height="74.054" viewBox="0 0 75.874 74.054">
  <g id="그룹_19345" data-name="그룹 19345" transform="translate(1086.014 198.303)">
    <g id="그룹_19317" data-name="그룹 19317">
      <g id="그룹_19316" data-name="그룹 19316">
        <g id="그룹_19315" data-name="그룹 19315">
          <g id="그룹_19312" data-name="그룹 19312">
            <g id="그룹_19311" data-name="그룹 19311">
              <path id="패스_29436" data-name="패스 29436" d="M-1014.37-124.283h-43.752a4.234,4.234,0,0,1-4.229-4.23v-.223a4.245,4.245,0,0,1,2.147-3.681v-22.466a18.792,18.792,0,0,1-.074-1.921c0-9.962,6.708-23.87,16.5-28.866l-2.363-8.564a2.589,2.589,0,0,1,.361-2.163,3.772,3.772,0,0,1,2.744-1.545,4.392,4.392,0,0,1,2.321.338,4.159,4.159,0,0,1,2.208-.695l.181,0a4.235,4.235,0,0,1,2.089.529,4.234,4.234,0,0,1,2.089-.528l.167,0a4.219,4.219,0,0,1,2.208.7,4.324,4.324,0,0,1,2.328-.338,3.766,3.766,0,0,1,2.744,1.55,2.583,2.583,0,0,1,.351,2.175l-2.354,8.543c9.785,4.992,16.5,18.9,16.495,28.892.007.578-.016,1.2-.072,1.87v22.494a4.247,4.247,0,0,1,2.145,3.681v.223A4.235,4.235,0,0,1-1014.37-124.283Zm-28.7-70.473,2.628,9.525a1.55,1.55,0,0,1-.893,1.841c-9.818,4.137-15.843,18.286-15.84,26.609a15.9,15.9,0,0,0,.068,1.691c0,.046.006.092.006.139v23.588a1.551,1.551,0,0,1-1.244,1.52,1.132,1.132,0,0,0-.9,1.107v.223a1.129,1.129,0,0,0,1.128,1.129h43.752a1.13,1.13,0,0,0,1.129-1.129v-.223a1.131,1.131,0,0,0-.9-1.107,1.55,1.55,0,0,1-1.243-1.52v-23.614c0-.045,0-.089.005-.133a16.371,16.371,0,0,0,.067-1.652c0-8.347-6.023-22.5-15.838-26.631a1.552,1.552,0,0,1-.894-1.841l2.624-9.522a1.29,1.29,0,0,0-.4-.106,1.226,1.226,0,0,0-.717.1,1.55,1.55,0,0,1-1.708,1.142,1.542,1.542,0,0,1-1.341-1.457,1.238,1.238,0,0,0-.519-.125,1.343,1.343,0,0,0-.614.122,1.562,1.562,0,0,1-1.53,1.308h0a1.541,1.541,0,0,1-1.531-1.314,1.191,1.191,0,0,0-.549-.117,1.394,1.394,0,0,0-.583.126,1.561,1.561,0,0,1-1.341,1.457,1.543,1.543,0,0,1-1.707-1.142,1.3,1.3,0,0,0-.715-.1A1.29,1.29,0,0,0-1043.072-194.756Z" fill="#282d33"/>
            </g>
          </g>
          <g id="그룹_19314" data-name="그룹 19314">
            <g id="그룹_19313" data-name="그룹 19313">
              <path id="패스_29437" data-name="패스 29437" d="M-1028.475-183.762h-15.808a1.55,1.55,0,0,1-1.55-1.55,1.55,1.55,0,0,1,1.55-1.551h15.808a1.551,1.551,0,0,1,1.551,1.551A1.551,1.551,0,0,1-1028.475-183.762Z" fill="#282d33"/>
            </g>
          </g>
        </g>
      </g>
    </g>
    <g id="그룹_19318" data-name="그룹 19318">
      <path id="패스_29438" data-name="패스 29438" d="M-1036.238-146.26a12.965,12.965,0,0,1-12.969-12.963,12.96,12.96,0,0,1,12.969-12.954,12.95,12.95,0,0,1,12.954,12.954A12.954,12.954,0,0,1-1036.238-146.26Z" fill="#5eb4e7"/>
    </g>
    <g id="그룹_19329" data-name="그룹 19329">
      <g id="그룹_19320" data-name="그룹 19320">
        <g id="그룹_19319" data-name="그룹 19319">
          <rect id="사각형_3831" data-name="사각형 3831" width="10.166" height="3.101" transform="translate(-1072.923 -158.375)" fill="#282d33"/>
        </g>
      </g>
      <g id="그룹_19322" data-name="그룹 19322">
        <g id="그룹_19321" data-name="그룹 19321">
          <rect id="사각형_3832" data-name="사각형 3832" width="10.166" height="3.101" transform="translate(-1072.923 -152.689)" fill="#282d33"/>
        </g>
      </g>
      <g id="그룹_19324" data-name="그룹 19324">
        <g id="그룹_19323" data-name="그룹 19323">
          <rect id="사각형_3833" data-name="사각형 3833" width="10.166" height="3.101" transform="translate(-1072.923 -147.004)" fill="#282d33"/>
        </g>
      </g>
      <g id="그룹_19326" data-name="그룹 19326">
        <g id="그룹_19325" data-name="그룹 19325">
          <rect id="사각형_3834" data-name="사각형 3834" width="10.166" height="3.101" transform="translate(-1072.923 -141.318)" fill="#282d33"/>
        </g>
      </g>
      <g id="그룹_19328" data-name="그룹 19328">
        <g id="그룹_19327" data-name="그룹 19327">
          <rect id="사각형_3835" data-name="사각형 3835" width="10.166" height="3.101" transform="translate(-1072.923 -135.633)" fill="#282d33"/>
        </g>
      </g>
    </g>
    <g id="그룹_19336" data-name="그룹 19336">
      <g id="그룹_19331" data-name="그룹 19331">
        <g id="그룹_19330" data-name="그룹 19330">
          <rect id="사각형_3836" data-name="사각형 3836" width="10.166" height="3.101" transform="translate(-1086.014 -147.004)" fill="#282d33"/>
        </g>
      </g>
      <g id="그룹_19333" data-name="그룹 19333">
        <g id="그룹_19332" data-name="그룹 19332">
          <rect id="사각형_3837" data-name="사각형 3837" width="10.166" height="3.101" transform="translate(-1086.014 -141.318)" fill="#282d33"/>
        </g>
      </g>
      <g id="그룹_19335" data-name="그룹 19335">
        <g id="그룹_19334" data-name="그룹 19334">
          <rect id="사각형_3838" data-name="사각형 3838" width="10.166" height="3.101" transform="translate(-1086.014 -135.633)" fill="#282d33"/>
        </g>
      </g>
    </g>
    <g id="그룹_19341" data-name="그룹 19341">
      <g id="그룹_19337" data-name="그룹 19337">
        <path id="패스_29439" data-name="패스 29439" d="M-1065.762-131.939a7.692,7.692,0,0,1-7.691,7.69,7.691,7.691,0,0,1-7.689-7.69,7.69,7.69,0,0,1,7.689-7.689A7.69,7.69,0,0,1-1065.762-131.939Z" fill="#f8c44f"/>
      </g>
      <g id="그룹_19340" data-name="그룹 19340">
        <g id="그룹_19339" data-name="그룹 19339">
          <g id="그룹_19338" data-name="그룹 19338">
            <rect id="사각형_3839" data-name="사각형 3839" width="3.101" height="7.094" transform="translate(-1075.003 -135.486)" fill="#282d33"/>
          </g>
        </g>
      </g>
    </g>
    <g id="그룹_19344" data-name="그룹 19344">
      <g id="그룹_19342" data-name="그룹 19342">
        <path id="패스_29440" data-name="패스 29440" d="M-1032.034-152.8h-3.027l-1.184-5.337-1.184,5.337h-3.027l-2.7-12.16,3.027-.672,1.184,5.336,1.184-5.336h3.027l1.184,5.337,1.184-5.337,3.027.672Z" fill="#282d33"/>
      </g>
      <g id="그룹_19343" data-name="그룹 19343">
        <rect id="사각형_3840" data-name="사각형 3840" width="15.126" height="3.101" transform="translate(-1043.809 -160.769)" fill="#282d33"/>
      </g>
    </g>
  </g>
</svg>
