<svg xmlns="http://www.w3.org/2000/svg" width="120.467" height="81.596" viewBox="0 0 120.467 81.596">
  <g id="그룹_19899" data-name="그룹 19899" transform="translate(1298.767 -2538.73)">
    <g id="그룹_19890" data-name="그룹 19890">
      <g id="그룹_19879" data-name="그룹 19879">
        <path id="사각형_3952" data-name="사각형 3952" d="M-1250.045,2575.029h2.684a2.981,2.981,0,0,1,2.981,2.981h0v5.666a2.982,2.982,0,0,1-2.982,2.982h-2.683a2.982,2.982,0,0,1-2.982-2.982h0v-5.665a2.982,2.982,0,0,1,2.982-2.982Z" fill="#fff"/>
        <path id="패스_29697" data-name="패스 29697" d="M-1247.362,2588.208h-2.684a4.537,4.537,0,0,1-4.531-4.532v-5.665a4.538,4.538,0,0,1,4.531-4.532h2.684a4.538,4.538,0,0,1,4.533,4.532v5.665A4.537,4.537,0,0,1-1247.362,2588.208Zm-2.684-11.628a1.433,1.433,0,0,0-1.43,1.431v5.665a1.433,1.433,0,0,0,1.43,1.431h2.684a1.432,1.432,0,0,0,1.432-1.431v-5.665a1.432,1.432,0,0,0-1.432-1.431Z" fill="gray"/>
      </g>
      <g id="그룹_19880" data-name="그룹 19880">
        <path id="사각형_3953" data-name="사각형 3953" d="M-1294.234,2575.029h2.684a2.981,2.981,0,0,1,2.981,2.981h0v5.666a2.982,2.982,0,0,1-2.982,2.982h-2.683a2.982,2.982,0,0,1-2.982-2.982h0v-5.665a2.983,2.983,0,0,1,2.982-2.982Z" fill="#fff"/>
        <path id="패스_29698" data-name="패스 29698" d="M-1291.551,2588.208h-2.684a4.537,4.537,0,0,1-4.532-4.532v-5.665a4.538,4.538,0,0,1,4.532-4.532h2.684a4.538,4.538,0,0,1,4.533,4.532v5.665A4.537,4.537,0,0,1-1291.551,2588.208Zm-2.684-11.628a1.433,1.433,0,0,0-1.431,1.431v5.665a1.433,1.433,0,0,0,1.431,1.431h2.684a1.433,1.433,0,0,0,1.432-1.431v-5.665a1.433,1.433,0,0,0-1.432-1.431Z" fill="gray"/>
      </g>
      <g id="그룹_19881" data-name="그룹 19881">
        <path id="패스_29699" data-name="패스 29699" d="M-1290.9,2619.606l4.651-8.916h39.15l4.651,8.916" fill="#ccc"/>
        <path id="패스_29700" data-name="패스 29700" d="M-1243.816,2620.326l-4.217-8.082h-37.27l-4.217,8.082-2.749-1.435,5.086-9.749h41.03l5.086,9.749Z" fill="gray"/>
      </g>
      <g id="그룹_19882" data-name="그룹 19882">
        <rect id="사각형_3954" data-name="사각형 3954" width="12.086" height="26.737" rx="5.86" transform="translate(-1275.321 2588.218)" fill="#fff"/>
        <path id="패스_29701" data-name="패스 29701" d="M-1269.094,2616.506h-.367a7.42,7.42,0,0,1-7.41-7.411v-15.016a7.418,7.418,0,0,1,7.41-7.411h.367a7.417,7.417,0,0,1,7.41,7.411v15.016A7.419,7.419,0,0,1-1269.094,2616.506Zm-.367-26.738a4.316,4.316,0,0,0-4.309,4.311v15.016a4.315,4.315,0,0,0,4.309,4.31h.367a4.314,4.314,0,0,0,4.309-4.31v-15.016a4.313,4.313,0,0,0-4.309-4.31Z" fill="gray"/>
      </g>
      <g id="그룹_19883" data-name="그룹 19883">
        <path id="패스_29702" data-name="패스 29702" d="M-1246.7,2562.256a21.975,21.975,0,0,1-21.976,21.975,21.975,21.975,0,0,1-21.975-21.975,21.975,21.975,0,0,1,21.975-21.976A21.976,21.976,0,0,1-1246.7,2562.256Z" fill="#ccc"/>
        <path id="패스_29703" data-name="패스 29703" d="M-1268.681,2585.782a23.552,23.552,0,0,1-23.526-23.526,23.553,23.553,0,0,1,23.526-23.526,23.552,23.552,0,0,1,23.526,23.526A23.552,23.552,0,0,1-1268.681,2585.782Zm0-43.951a20.448,20.448,0,0,0-20.425,20.425,20.448,20.448,0,0,0,20.425,20.425,20.449,20.449,0,0,0,20.425-20.425,20.448,20.448,0,0,0-20.425-20.425Z" fill="gray"/>
      </g>
      <g id="그룹_19884" data-name="그룹 19884">
        <path id="패스_29704" data-name="패스 29704" d="M-1252.566,2573.793a17.4,17.4,0,0,1-17.4,17.4h0a17.4,17.4,0,0,1-17.4-17.4h0a17.4,17.4,0,0,1,17.4-17.4h0a17.4,17.4,0,0,1,17.4,17.4Z" fill="#ccc"/>
        <path id="패스_29705" data-name="패스 29705" d="M-1269.963,2592.741a18.969,18.969,0,0,1-18.948-18.948,18.971,18.971,0,0,1,18.948-18.948,18.969,18.969,0,0,1,18.948,18.948A18.968,18.968,0,0,1-1269.963,2592.741Zm0-34.795a15.865,15.865,0,0,0-15.847,15.847,15.864,15.864,0,0,0,15.847,15.847,15.864,15.864,0,0,0,15.847-15.847,15.865,15.865,0,0,0-15.847-15.847Z" fill="gray"/>
      </g>
      <g id="그룹_19885" data-name="그룹 19885">
        <path id="패스_29706" data-name="패스 29706" d="M-1248.9,2584.048a22.159,22.159,0,0,1-22.159,22.159h0a22.158,22.158,0,0,1-22.158-22.158h0a22.158,22.158,0,0,1,22.156-22.158h0a22.158,22.158,0,0,1,22.159,22.157Z" fill="#fff"/>
        <path id="패스_29707" data-name="패스 29707" d="M-1271.062,2607.758a23.736,23.736,0,0,1-23.709-23.709,23.735,23.735,0,0,1,23.709-23.709,23.735,23.735,0,0,1,23.709,23.709A23.734,23.734,0,0,1-1271.062,2607.758Zm0-44.318a20.634,20.634,0,0,0-20.608,20.609,20.633,20.633,0,0,0,20.608,20.609,20.632,20.632,0,0,0,20.608-20.609A20.634,20.634,0,0,0-1271.062,2563.44Z" fill="gray"/>
      </g>
      <g id="그룹_19886" data-name="그룹 19886">
        <path id="패스_29708" data-name="패스 29708" d="M-1275.289,2577.363h-3.1a2.981,2.981,0,0,0-2.977-2.978,2.981,2.981,0,0,0-2.978,2.978h-3.1a6.087,6.087,0,0,1,6.079-6.079A6.086,6.086,0,0,1-1275.289,2577.363Z" fill="gray"/>
      </g>
      <g id="그룹_19887" data-name="그룹 19887">
        <path id="패스_29709" data-name="패스 29709" d="M-1257.241,2577.363h-3.1a2.981,2.981,0,0,0-2.978-2.978,2.981,2.981,0,0,0-2.978,2.978h-3.1a6.087,6.087,0,0,1,6.079-6.079A6.086,6.086,0,0,1-1257.241,2577.363Z" fill="gray"/>
      </g>
      <g id="그룹_19888" data-name="그룹 19888">
        <path id="패스_29710" data-name="패스 29710" d="M-1271.241,2590.352h-2.038a4.278,4.278,0,0,1-4.274-4.274,4.282,4.282,0,0,1,3.329-4.168v-7.934h3.1v10.931h-2.156a1.173,1.173,0,0,0-1.173,1.172,1.175,1.175,0,0,0,1.173,1.173h2.038Z" fill="gray"/>
      </g>
      <g id="그룹_19889" data-name="그룹 19889">
        <path id="패스_29711" data-name="패스 29711" d="M-1274.841,2597.219a10.544,10.544,0,0,0,9.418,1.234,10.542,10.542,0,0,0,6.587-6.846Z" fill="#fff"/>
        <path id="패스_29712" data-name="패스 29712" d="M-1268.9,2600.6h0a12.11,12.11,0,0,1-6.808-2.095l-2.554-1.727,21.824-7.652-.916,2.943a12.008,12.008,0,0,1-7.554,7.849A12.007,12.007,0,0,1-1268.9,2600.6Zm-1.626-3.248a9.011,9.011,0,0,0,4.593-.36,8.922,8.922,0,0,0,3.821-2.591Z" fill="gray"/>
      </g>
    </g>
    <g id="그룹_19898" data-name="그룹 19898">
      <g id="그룹_19891" data-name="그룹 19891">
        <path id="패스_29713" data-name="패스 29713" d="M-1180.276,2613.831a22.726,22.726,0,0,0,.426-4.393v-40.959c0-11.989-9.3-21.707-20.768-21.707h-15.575c-11.468,0-20.766,9.718-20.766,21.707v40.959a22.649,22.649,0,0,0,.426,4.393Z" fill="#ccc"/>
        <path id="패스_29714" data-name="패스 29714" d="M-1179,2615.382h-58.809l-.246-1.252a24.389,24.389,0,0,1-.454-4.691V2568.48c0-12.824,10.011-23.258,22.317-23.258h15.575c12.306,0,22.318,10.434,22.318,23.258v40.959a24.31,24.31,0,0,1-.455,4.692Zm-56.219-3.1h53.629a21.112,21.112,0,0,0,.19-2.842V2568.48c0-11.115-8.62-20.157-19.217-20.157h-15.575c-10.6,0-19.217,9.042-19.217,20.157v40.959a21.577,21.577,0,0,0,.19,2.841Z" fill="gray"/>
      </g>
      <g id="그룹_19892" data-name="그룹 19892">
        <path id="패스_29715" data-name="패스 29715" d="M-1231.146,2620.291v-14.73a6.2,6.2,0,0,1,6.2-6.2h32.173a6.2,6.2,0,0,1,6.2,6.2v14.73" fill="#fff"/>
        <path id="패스_29716" data-name="패스 29716" d="M-1185.019,2620.291h-3.1v-14.73a4.656,4.656,0,0,0-4.651-4.651h-32.171a4.657,4.657,0,0,0-4.652,4.651v14.73h-3.1v-14.73a7.762,7.762,0,0,1,7.753-7.752h32.173a7.76,7.76,0,0,1,7.752,7.752Z" fill="gray"/>
      </g>
      <rect id="사각형_3955" data-name="사각형 3955" width="41.476" height="5.233" transform="translate(-1229.596 2605.755)" fill="#ccc"/>
      <rect id="사각형_3956" data-name="사각형 3956" width="41.476" height="5.233" transform="translate(-1229.596 2615.091)" fill="#ccc"/>
      <g id="그룹_19893" data-name="그룹 19893">
        <path id="패스_29717" data-name="패스 29717" d="M-1209.38,2605.755a6.59,6.59,0,0,1-6.59-6.589v-35.274a6.591,6.591,0,0,1,6.59-6.59h0a6.59,6.59,0,0,1,6.59,6.59v35.274A6.588,6.588,0,0,1-1209.38,2605.755Z" fill="#fff"/>
        <path id="패스_29718" data-name="패스 29718" d="M-1209.38,2607.306a8.15,8.15,0,0,1-8.14-8.14v-35.274a8.15,8.15,0,0,1,8.14-8.14,8.149,8.149,0,0,1,8.14,8.14v35.274A8.148,8.148,0,0,1-1209.38,2607.306Zm0-48.453a5.045,5.045,0,0,0-5.039,5.039v35.274a5.045,5.045,0,0,0,5.039,5.039,5.046,5.046,0,0,0,5.039-5.039v-35.274A5.045,5.045,0,0,0-1209.38,2558.853Z" fill="gray"/>
      </g>
      <g id="그룹_19894" data-name="그룹 19894">
        <path id="패스_29719" data-name="패스 29719" d="M-1210.009,2550.565a22.162,22.162,0,0,1-20.432,13.561c-.169,0-.336-.008-.5-.012a22.115,22.115,0,0,0-.982,6.537,22.158,22.158,0,0,0,22.157,22.159h0a22.158,22.158,0,0,0,22.158-22.159C-1187.6,2558.411-1207.062,2559-1210.009,2550.565Z" fill="#fff"/>
        <path id="패스_29720" data-name="패스 29720" d="M-1209.762,2594.359a23.736,23.736,0,0,1-23.71-23.71,23.728,23.728,0,0,1,1.051-6.995l.346-1.121,1.354.035c.095,0,.19.007.285.007a20.578,20.578,0,0,0,19-12.613l1.564-3.711,1.328,3.8c1.055,3.02,5.086,4.83,9.353,6.747,6.158,2.766,13.139,5.9,13.139,13.849A23.735,23.735,0,0,1-1209.762,2594.359Zm-20-28.694a20.727,20.727,0,0,0-.608,4.984,20.632,20.632,0,0,0,20.609,20.609,20.631,20.631,0,0,0,20.608-20.609c0-5.939-5.493-8.407-11.308-11.02-3.566-1.6-7.223-3.244-9.423-5.829a23.655,23.655,0,0,1-19.879,11.865Z" fill="gray"/>
      </g>
      <g id="그룹_19895" data-name="그룹 19895">
        <rect id="사각형_3957" data-name="사각형 3957" width="2.585" height="3.101" transform="translate(-1218.354 2566.928)" fill="gray"/>
      </g>
      <g id="그룹_19896" data-name="그룹 19896">
        <rect id="사각형_3958" data-name="사각형 3958" width="2.585" height="3.101" transform="translate(-1206.984 2566.928)" fill="gray"/>
      </g>
      <g id="그룹_19897" data-name="그룹 19897">
        <path id="패스_29721" data-name="패스 29721" d="M-1209.762,2584.89a16.121,16.121,0,0,1-8.407-2.36l1.615-2.647a13.031,13.031,0,0,0,6.792,1.906,13.026,13.026,0,0,0,6.791-1.906l1.615,2.647A16.124,16.124,0,0,1-1209.762,2584.89Z" fill="gray"/>
      </g>
    </g>
  </g>
</svg>
