<svg xmlns="http://www.w3.org/2000/svg" width="75.284" height="71.955" viewBox="0 0 75.284 71.955">
  <g id="그룹_19486" data-name="그룹 19486" transform="translate(729.137 1039.181)">
    <g id="그룹_19496" data-name="그룹 19496">
      <g id="그룹_19495" data-name="그룹 19495">
        <rect id="사각형_3874" data-name="사각형 3874" width="54.422" height="3.101" transform="matrix(0.966, -0.259, 0.259, 0.966, -718.18, -1025.096)" fill="gray"/>
      </g>
    </g>
    <g id="그룹_19499" data-name="그룹 19499">
      <g id="그룹_19497" data-name="그룹 19497">
        <path id="패스_29480" data-name="패스 29480" d="M-684.848-1029.81a6.647,6.647,0,0,0-6.647-6.647,6.648,6.648,0,0,0-6.647,6.647,6.645,6.645,0,0,0,3.531,5.87v43.151h6.232v-43.151A6.643,6.643,0,0,0-684.848-1029.81Z" fill="#fff"/>
      </g>
      <g id="그룹_19498" data-name="그룹 19498">
        <path id="패스_29481" data-name="패스 29481" d="M-686.828-979.238h-9.333v-43.834a8.179,8.179,0,0,1-3.531-6.738,8.206,8.206,0,0,1,8.2-8.2,8.207,8.207,0,0,1,8.2,8.2,8.18,8.18,0,0,1-3.531,6.738Zm-6.232-3.1h3.131v-42.532l.822-.438a5.089,5.089,0,0,0,2.709-4.5,5.1,5.1,0,0,0-5.1-5.1,5.1,5.1,0,0,0-5.1,5.1,5.091,5.091,0,0,0,2.708,4.5l.823.438Z" fill="gray"/>
      </g>
    </g>
    <g id="그룹_19501" data-name="그룹 19501">
      <g id="그룹_19500" data-name="그룹 19500">
        <path id="패스_29482" data-name="패스 29482" d="M-677.014-978.587h-3.1a.731.731,0,0,0-.285-.652h-22.2a.752.752,0,0,0-.274.651h-3.1a3.583,3.583,0,0,1,3.375-3.752h22.212A3.583,3.583,0,0,1-677.014-978.587Z" fill="gray"/>
      </g>
    </g>
    <g id="그룹_19503" data-name="그룹 19503">
      <g id="그룹_19502" data-name="그룹 19502">
        <path id="패스_29483" data-name="패스 29483" d="M-673.144-967.226h-36.7v-9.369h36.7Zm-33.6-3.1h30.5v-3.167h-30.5Z" fill="gray"/>
      </g>
    </g>
    <g id="그룹_19505" data-name="그룹 19505">
      <g id="그룹_19504" data-name="그룹 19504">
        <path id="패스_29484" data-name="패스 29484" d="M-673.144-967.226h-36.7v-9.369h36.7Zm-33.6-3.1h30.5v-3.167h-30.5Z" fill="gray"/>
      </g>
    </g>
    <g id="그룹_19506" data-name="그룹 19506">
      <path id="패스_29485" data-name="패스 29485" d="M-689.417-1029.81a2.077,2.077,0,0,1-2.078,2.077,2.076,2.076,0,0,1-2.077-2.077,2.077,2.077,0,0,1,2.077-2.077A2.077,2.077,0,0,1-689.417-1029.81Z" fill="#ccc"/>
    </g>
    <g id="그룹_19515" data-name="그룹 19515">
      <g id="그룹_19510" data-name="그룹 19510">
        <g id="그룹_19508" data-name="그룹 19508">
          <g id="그룹_19507" data-name="그룹 19507">
            <path id="패스_29486" data-name="패스 29486" d="M-709.845-996.232l-7.2-19.786-7.2,19.786-2.914-1.06,10.113-27.8,10.113,27.8Z" fill="gray"/>
          </g>
        </g>
        <g id="그룹_19509" data-name="그룹 19509">
          <path id="패스_29487" data-name="패스 29487" d="M-729.137-996.991a12.442,12.442,0,0,0,12.093,9.544,12.445,12.445,0,0,0,12.093-9.544Z" fill="#ccc"/>
        </g>
      </g>
      <g id="그룹_19514" data-name="그룹 19514">
        <g id="그룹_19512" data-name="그룹 19512">
          <g id="그룹_19511" data-name="그룹 19511">
            <path id="패스_29488" data-name="패스 29488" d="M-658.747-1009.941l-7.2-19.786-7.2,19.786-2.914-1.06,10.113-27.8,10.112,27.8Z" fill="gray"/>
          </g>
        </g>
        <g id="그룹_19513" data-name="그룹 19513">
          <path id="패스_29489" data-name="패스 29489" d="M-678.038-1010.7a12.439,12.439,0,0,0,12.092,9.543,12.443,12.443,0,0,0,12.093-9.543Z" fill="#ccc"/>
        </g>
      </g>
    </g>
  </g>
</svg>
