<svg xmlns="http://www.w3.org/2000/svg" width="133.013" height="77.652" viewBox="0 0 133.013 77.652">
  <g id="그룹_19876" data-name="그룹 19876" transform="translate(-1181 -802)">
    <g id="그룹_19211" data-name="그룹 19211" transform="translate(1181 804)">
      <g id="그룹_5857" data-name="그룹 5857" transform="translate(0 0)">
        <g id="그룹_5847" data-name="그룹 5847" transform="translate(0 57.657)">
          <path id="패스_6500" data-name="패스 6500" d="M724.7,900.6v-9.136c0-4.036,3.7-7.308,8.257-7.308H769.2c4.561,0,8.257,3.271,8.257,7.308V900.6" transform="translate(-723.149 -882.605)" fill="#ccc"/>
          <path id="패스_6501" data-name="패스 6501" d="M778.557,900.152h-3.1v-9.136c0-3.174-3.008-5.756-6.705-5.756H732.51c-3.7,0-6.706,2.583-6.706,5.756v9.136h-3.1v-9.136c0-4.885,4.4-8.859,9.809-8.859h36.239c5.408,0,9.808,3.974,9.808,8.859Z" transform="translate(-722.701 -882.157)" fill="gray"/>
        </g>
        <g id="그룹_5848" data-name="그룹 5848" transform="translate(19.201 32.242)">
          <rect id="사각형_2649" data-name="사각형 2649" width="14.352" height="31.748" rx="7.176" transform="translate(1.551 1.551)" fill="#fff"/>
          <path id="패스_6502" data-name="패스 6502" d="M756.4,884.248h-.435a8.52,8.52,0,0,1-8.51-8.51V857.907a8.52,8.52,0,0,1,8.51-8.51h.435a8.52,8.52,0,0,1,8.51,8.51v17.831A8.52,8.52,0,0,1,756.4,884.248Zm-.435-31.748a5.412,5.412,0,0,0-5.406,5.407v17.831a5.413,5.413,0,0,0,5.406,5.407h.435a5.414,5.414,0,0,0,5.407-5.407V857.907A5.413,5.413,0,0,0,756.4,852.5Z" transform="translate(-747.451 -849.397)" fill="gray"/>
        </g>
        <g id="그룹_5849" data-name="그룹 5849" transform="translate(40.991 25.601)">
          <rect id="사각형_2650" data-name="사각형 2650" width="7.589" height="13.964" rx="3.795" transform="translate(1.551 1.552)" fill="#fff"/>
          <path id="패스_6503" data-name="패스 6503" d="M781.038,857.9h-.3a5.2,5.2,0,0,1-5.194-5.195v-6.678a5.2,5.2,0,0,1,5.194-5.195h.3a5.2,5.2,0,0,1,5.193,5.195v6.678A5.2,5.2,0,0,1,781.038,857.9Zm-.3-13.964a2.093,2.093,0,0,0-2.091,2.091v6.678a2.093,2.093,0,0,0,2.091,2.091h.3a2.093,2.093,0,0,0,2.09-2.091v-6.678a2.093,2.093,0,0,0-2.09-2.091Z" transform="translate(-775.539 -840.836)" fill="gray"/>
        </g>
        <g id="그룹_5850" data-name="그룹 5850" transform="translate(7.408 1.002)">
          <path id="패스_6504" data-name="패스 6504" d="M771.148,844.334A18.448,18.448,0,0,1,752.7,862.782h0a18.448,18.448,0,0,1-18.449-18.449V829.575A18.448,18.448,0,0,1,752.7,811.127h0a18.448,18.448,0,0,1,18.449,18.448Z" transform="translate(-732.698 -809.575)" fill="#fff"/>
          <path id="패스_6505" data-name="패스 6505" d="M752.25,863.886a20.023,20.023,0,0,1-20-20V829.127a20,20,0,0,1,40,0v14.758A20.023,20.023,0,0,1,752.25,863.886Zm0-51.656a16.916,16.916,0,0,0-16.9,16.9v14.758a16.9,16.9,0,1,0,33.795,0V829.127A16.916,16.916,0,0,0,752.25,812.23Z" transform="translate(-732.25 -809.127)" fill="gray"/>
        </g>
        <g id="그룹_5851" data-name="그룹 5851" transform="translate(12.838 35.76)">
          <path id="패스_6506" data-name="패스 6506" d="M754.268,866.949a13.033,13.033,0,0,1-13.018-13.018" transform="translate(-739.698 -853.931)" fill="#fff"/>
          <path id="패스_6507" data-name="패스 6507" d="M753.82,868.5a14.586,14.586,0,0,1-14.57-14.57h3.1A11.48,11.48,0,0,0,753.82,865.4Z" transform="translate(-739.25 -853.931)" fill="gray"/>
        </g>
        <g id="그룹_5852" data-name="그룹 5852" transform="translate(2.59)">
          <path id="패스_6508" data-name="패스 6508" d="M775.223,819.745a8.483,8.483,0,0,0,.527-2.927v-6.982H744.718a8.526,8.526,0,0,0-7.136,3.859h-2.93a6.614,6.614,0,0,0-6.614,6.614v24.049h4.655V830.006a4.655,4.655,0,0,1,4.655-4.655h.562c4.009,4.575,10.71,7.582,18.319,7.582,10.406,0,19.139-5.611,21.564-13.188Z" transform="translate(-726.487 -808.284)" fill="#ccc"/>
          <path id="패스_6509" data-name="패스 6509" d="M733.8,845.461h-7.758v-25.6A8.174,8.174,0,0,1,734.2,811.7h2.136a10.057,10.057,0,0,1,7.929-3.859h32.583v8.534a9.957,9.957,0,0,1-.1,1.375h2.715l-.649,2.025c-2.689,8.4-12.165,14.267-23.042,14.267-7.477,0-14.52-2.822-19-7.579a3.107,3.107,0,0,0-2.981,3.1Zm-4.655-3.1h1.552v-12.8a6.213,6.213,0,0,1,6.206-6.206h1.265l.464.529c3.87,4.416,10.281,7.053,17.152,7.053,8.612,0,16.179-4.055,19.252-10.085h-2.478l.763-2.085a6.954,6.954,0,0,0,.432-2.393v-5.43H744.27a6.971,6.971,0,0,0-5.839,3.16l-.46.7H734.2a5.068,5.068,0,0,0-5.062,5.062Z" transform="translate(-726.039 -807.836)" fill="gray"/>
        </g>
        <g id="그룹_5853" data-name="그룹 5853" transform="translate(2.59 25.469)">
          <path id="패스_6510" data-name="패스 6510" d="M732.857,842.885c-1.832.191-4.818,1.721-4.818,3.605v6.678c0,1.884,2.986,3.414,4.818,3.605Z" transform="translate(-726.487 -841.164)" fill="#fff"/>
          <path id="패스_6511" data-name="패스 6511" d="M733.961,858l-1.712-.178c-2.538-.264-6.209-2.249-6.209-5.148v-6.678c0-2.9,3.671-4.884,6.209-5.148l1.712-.178Zm-3.1-13.534c-.948.465-1.715,1.119-1.715,1.53v6.678c0,.41.767,1.065,1.715,1.53Z" transform="translate(-726.039 -840.666)" fill="gray"/>
        </g>
        <g id="그룹_5854" data-name="그룹 5854" transform="translate(28.258 25.13)">
          <path id="패스_6512" data-name="패스 6512" d="M761.454,840.609l2.327,12.025h-4.655" transform="translate(-759.127 -840.314)" fill="#fff"/>
          <path id="패스_6513" data-name="패스 6513" d="M765.662,854.1h-6.535V851H761.9l-1.97-10.178,3.046-.589Z" transform="translate(-759.127 -840.229)" fill="gray"/>
        </g>
        <g id="그룹_5855" data-name="그룹 5855" transform="translate(20.888 30.079)">
          <rect id="사각형_2651" data-name="사각형 2651" width="3.879" height="3.103" fill="gray"/>
        </g>
        <g id="그룹_5856" data-name="그룹 5856" transform="translate(35.628 30.079)">
          <rect id="사각형_2652" data-name="사각형 2652" width="3.879" height="3.103" fill="gray"/>
        </g>
      </g>
    </g>
    <g id="그룹_19212" data-name="그룹 19212" transform="translate(1237 802)">
      <g id="그룹_5870" data-name="그룹 5870" transform="translate(0 0)">
        <g id="그룹_5859" data-name="그룹 5859" transform="translate(46.377 20.223)">
          <path id="패스_6514" data-name="패스 6514" d="M870.73,838.09c0,2.617-2.49,4.738-5.562,4.738s-5.562-2.121-5.562-4.738,2.49-4.738,5.562-4.738S870.73,835.473,870.73,838.09Z" transform="translate(-858.054 -831.8)" fill="#fff"/>
          <path id="패스_6515" data-name="패스 6515" d="M864.72,843.931c-3.922,0-7.114-2.822-7.114-6.289s3.192-6.289,7.114-6.289,7.113,2.822,7.113,6.289S868.642,843.931,864.72,843.931Zm0-9.475c-2.212,0-4.011,1.429-4.011,3.186s1.8,3.186,4.011,3.186,4.01-1.43,4.01-3.186S866.932,834.455,864.72,834.455Z" transform="translate(-857.606 -831.352)" fill="gray"/>
        </g>
        <g id="그룹_5860" data-name="그룹 5860" transform="translate(5.589 14.219)">
          <path id="패스_6516" data-name="패스 6516" d="M838.994,825.74a58.223,58.223,0,0,0-31.878,12.6c-.051.92-.086,1.846-.086,2.781,0,22.755,15.371,41.2,34.333,41.2,16.609,0,30.463-14.153,33.645-32.958a28.9,28.9,0,0,1-4.805.41C856.349,849.773,844.42,839.921,838.994,825.74Z" transform="translate(-805.478 -824.089)" fill="#ccc"/>
          <path id="패스_6517" data-name="패스 6517" d="M840.915,883.4c-19.787,0-35.885-19.179-35.885-42.752,0-.867.028-1.779.088-2.867l.037-.677.522-.432c8.735-7.234,20.357-11.834,32.728-12.95l1.169-.105.42,1.1c5.354,13.994,17.035,23.036,29.76,23.036a27.484,27.484,0,0,0,4.548-.389l2.151-.362-.364,2.15C872.731,868.991,857.938,883.4,840.915,883.4Zm-32.733-44.767c-.033.738-.049,1.39-.049,2.015,0,21.862,14.706,39.649,32.781,39.649,14.911,0,27.975-12.321,31.715-29.586-.968.094-1.929.141-2.875.141-13.679,0-26.214-9.35-32.219-23.924A56.889,56.889,0,0,0,808.182,838.629Z" transform="translate(-805.03 -823.612)" fill="gray"/>
        </g>
        <g id="그룹_5861" data-name="그룹 5861" transform="translate(57.056 45.457)">
          <path id="패스_6518" data-name="패스 6518" d="M882.707,868.94a30.649,30.649,0,0,1-11.336-2.177l1.143-2.884a27.134,27.134,0,0,0,14.74,1.569l.514,3.06A30.579,30.579,0,0,1,882.707,868.94Z" transform="translate(-871.371 -863.879)" fill="gray"/>
        </g>
        <g id="그룹_5862" data-name="그룹 5862" transform="translate(6.825 55.379)">
          <path id="패스_6519" data-name="패스 6519" d="M808.623,899.37V884.8a6.134,6.134,0,0,1,6.133-6.134h31.817a6.134,6.134,0,0,1,6.133,6.134V899.37" transform="translate(-807.071 -877.117)" fill="#ccc"/>
          <path id="패스_6520" data-name="패스 6520" d="M853.81,898.922h-3.1V884.355a4.587,4.587,0,0,0-4.582-4.583H814.308a4.588,4.588,0,0,0-4.582,4.583v14.567h-3.1V884.355a7.694,7.694,0,0,1,7.685-7.686h31.817a7.694,7.694,0,0,1,7.685,7.686Z" transform="translate(-806.623 -876.669)" fill="gray"/>
        </g>
        <g id="그룹_5863" data-name="그룹 5863" transform="translate(21.308 11.228)">
          <path id="패스_6521" data-name="패스 6521" d="M827.292,866.253V828.76a7,7,0,0,1,7-7h0a7,7,0,0,1,7,7v49.784C841.3,878.24,827.218,866.326,827.292,866.253Z" transform="translate(-825.74 -820.205)" fill="#fff"/>
          <path id="패스_6522" data-name="패스 6522" d="M840.852,879.647a1.551,1.551,0,0,1-1.265-.652c-.735-.755-5.595-4.937-8.838-7.728-5.429-4.672-5.429-4.672-5.456-5.4V828.312a8.556,8.556,0,0,1,17.111,0V878.1A1.552,1.552,0,0,1,840.852,879.647ZM828.4,865.129c.814.718,2.62,2.272,4.378,3.785,3.028,2.607,5.1,4.393,6.527,5.645V828.312a5.453,5.453,0,0,0-10.905,0Z" transform="translate(-825.292 -819.757)" fill="gray"/>
        </g>
        <g id="그룹_5864" data-name="그룹 5864" transform="translate(0 0.077)">
          <path id="패스_6523" data-name="패스 6523" d="M828.968,807.383a23.56,23.56,0,0,0-22.131,15.478c-2.524-1.048-5.317-.341-6.486,1.755-1.275,2.285-.132,5.351,2.552,6.846a6.326,6.326,0,0,0,2.551.786,23.551,23.551,0,1,0,23.514-24.865Z" transform="translate(-798.275 -805.831)" fill="#fff"/>
          <path id="패스_6524" data-name="패스 6524" d="M828.518,855.591a25.1,25.1,0,0,1-24.965-22.474,8,8,0,0,1-1.856-.749,7.6,7.6,0,0,1-3.458-3.939,5.913,5.913,0,0,1,.306-5.017,6.121,6.121,0,0,1,5.484-3.03,7.517,7.517,0,0,1,1.442.14,25.106,25.106,0,1,1,23.046,35.07ZM804.03,823.484a3.068,3.068,0,0,0-2.773,1.438,2.86,2.86,0,0,0-.109,2.422,4.5,4.5,0,0,0,2.062,2.313,4.8,4.8,0,0,0,1.924.6l1.347.112.074,1.349a21.98,21.98,0,1,0,1.292-8.77l-.556,1.523-1.5-.622A4.653,4.653,0,0,0,804.03,823.484Z" transform="translate(-797.825 -805.383)" fill="gray"/>
        </g>
        <g id="그룹_5865" data-name="그룹 5865" transform="translate(6.851 0.077)">
          <path id="패스_6525" data-name="패스 6525" d="M809.034,822.519a11.327,11.327,0,0,0,7.647,2.4c10.041,0,16.479-8.031,19.868-16.88a23.547,23.547,0,0,0-27.515,14.48Z" transform="translate(-807.189 -805.831)" fill="#ccc"/>
          <path id="패스_6526" data-name="패스 6526" d="M816.148,826.023a12.876,12.876,0,0,1-8.643-2.762l-.849-.711.4-1.034a25.1,25.1,0,0,1,29.325-15.434l1.72.412-.632,1.652C831.509,823.7,821.552,826.023,816.148,826.023Zm-5.749-4.483a10.392,10.392,0,0,0,5.749,1.38c9.756,0,15.117-8.221,17.718-14.172A21.981,21.981,0,0,0,810.4,821.539Z" transform="translate(-806.656 -805.383)" fill="gray"/>
        </g>
        <g id="그룹_5866" data-name="그룹 5866" transform="translate(30.798)">
          <path id="패스_6527" data-name="패스 6527" d="M861.082,826.406A23.559,23.559,0,0,0,840,807.5,23.559,23.559,0,0,0,861.082,826.406Z" transform="translate(-838.08 -805.781)" fill="#ccc"/>
          <path id="패스_6528" data-name="패스 6528" d="M862.445,827.63l-2.05-.175A25.176,25.176,0,0,1,837.922,807.3l-.4-2.019,2.051.175A25.176,25.176,0,0,1,862.05,825.61ZM841.5,808.85a22.1,22.1,0,0,0,16.969,15.213A22.1,22.1,0,0,0,841.5,808.85Z" transform="translate(-837.525 -805.284)" fill="gray"/>
        </g>
        <g id="그룹_5867" data-name="그룹 5867" transform="translate(15.304 25.283)">
          <path id="패스_6529" data-name="패스 6529" d="M822.053,841.93a6.342,6.342,0,0,1-4.5-1.861l2.194-2.195a3.266,3.266,0,0,0,4.613,0l2.194,2.194A6.341,6.341,0,0,1,822.053,841.93Z" transform="translate(-817.552 -837.874)" fill="gray"/>
        </g>
        <g id="그룹_5868" data-name="그룹 5868" transform="translate(34.805 25.283)">
          <path id="패스_6530" data-name="패스 6530" d="M847.19,841.93a6.342,6.342,0,0,1-4.5-1.861l2.194-2.195a3.264,3.264,0,0,0,4.613,0l2.194,2.195A6.343,6.343,0,0,1,847.19,841.93Z" transform="translate(-842.69 -837.874)" fill="gray"/>
        </g>
        <g id="그룹_5869" data-name="그룹 5869" transform="translate(28.661 22.323)">
          <rect id="사각형_2653" data-name="사각형 2653" width="3.103" height="10.163" fill="gray"/>
        </g>
      </g>
    </g>
  </g>
</svg>
