<svg xmlns="http://www.w3.org/2000/svg" width="75.284" height="71.956" viewBox="0 0 75.284 71.956">
  <g id="그룹_19217" data-name="그룹 19217" transform="translate(729.137 372.986)">
    <g id="그룹_19218" data-name="그룹 19218">
      <g id="그룹_19217-2" data-name="그룹 19217">
        <rect id="사각형_3821" data-name="사각형 3821" width="54.422" height="3.101" transform="matrix(0.966, -0.259, 0.259, 0.966, -718.18, -358.901)" fill="#282d33"/>
      </g>
    </g>
    <g id="그룹_19221" data-name="그룹 19221">
      <g id="그룹_19219" data-name="그룹 19219">
        <path id="패스_29375" data-name="패스 29375" d="M-684.848-363.615a6.647,6.647,0,0,0-6.647-6.647,6.648,6.648,0,0,0-6.647,6.647,6.648,6.648,0,0,0,3.531,5.871v43.15h6.232v-43.15A6.646,6.646,0,0,0-684.848-363.615Z" fill="#fff"/>
      </g>
      <g id="그룹_19220" data-name="그룹 19220">
        <path id="패스_29376" data-name="패스 29376" d="M-686.828-313.043h-9.333v-43.834a8.179,8.179,0,0,1-3.531-6.738,8.206,8.206,0,0,1,8.2-8.2,8.207,8.207,0,0,1,8.2,8.2,8.18,8.18,0,0,1-3.531,6.738Zm-6.232-3.1h3.131v-42.532l.822-.437a5.092,5.092,0,0,0,2.709-4.5,5.1,5.1,0,0,0-5.1-5.1,5.1,5.1,0,0,0-5.1,5.1,5.093,5.093,0,0,0,2.708,4.5l.823.437Z" fill="#282d33"/>
      </g>
    </g>
    <g id="그룹_19223" data-name="그룹 19223">
      <g id="그룹_19222" data-name="그룹 19222">
        <path id="패스_29377" data-name="패스 29377" d="M-677.014-312.392h-3.1a.732.732,0,0,0-.285-.652h-22.2a.754.754,0,0,0-.274.651h-3.1a3.583,3.583,0,0,1,3.375-3.752h22.212A3.583,3.583,0,0,1-677.014-312.392Z" fill="#282d33"/>
      </g>
    </g>
    <g id="그룹_19225" data-name="그룹 19225">
      <g id="그룹_19224" data-name="그룹 19224">
        <path id="패스_29378" data-name="패스 29378" d="M-673.144-301.03h-36.7v-9.37h36.7Zm-33.6-3.1h30.5V-307.3h-30.5Z" fill="#282d33"/>
      </g>
    </g>
    <g id="그룹_19227" data-name="그룹 19227">
      <g id="그룹_19226" data-name="그룹 19226">
        <path id="패스_29379" data-name="패스 29379" d="M-673.144-301.03h-36.7v-9.37h36.7Zm-33.6-3.1h30.5V-307.3h-30.5Z" fill="#282d33"/>
      </g>
    </g>
    <g id="그룹_19228" data-name="그룹 19228">
      <path id="패스_29380" data-name="패스 29380" d="M-689.417-363.615a2.078,2.078,0,0,1-2.078,2.078,2.077,2.077,0,0,1-2.077-2.078,2.077,2.077,0,0,1,2.077-2.077A2.077,2.077,0,0,1-689.417-363.615Z" fill="#f8c44f"/>
    </g>
    <g id="그룹_19237" data-name="그룹 19237">
      <g id="그룹_19232" data-name="그룹 19232">
        <g id="그룹_19230" data-name="그룹 19230">
          <g id="그룹_19229" data-name="그룹 19229">
            <path id="패스_29381" data-name="패스 29381" d="M-709.845-330.036l-7.2-19.786-7.2,19.786-2.914-1.06,10.113-27.8,10.113,27.8Z" fill="#282d33"/>
          </g>
        </g>
        <g id="그룹_19231" data-name="그룹 19231">
          <path id="패스_29382" data-name="패스 29382" d="M-729.137-330.8a12.441,12.441,0,0,0,12.093,9.543,12.444,12.444,0,0,0,12.093-9.543Z" fill="#5eb4e7"/>
        </g>
      </g>
      <g id="그룹_19236" data-name="그룹 19236">
        <g id="그룹_19234" data-name="그룹 19234">
          <g id="그룹_19233" data-name="그룹 19233">
            <path id="패스_29383" data-name="패스 29383" d="M-658.747-343.746l-7.2-19.786-7.2,19.786-2.914-1.06,10.113-27.8,10.112,27.8Z" fill="#282d33"/>
          </g>
        </g>
        <g id="그룹_19235" data-name="그룹 19235">
          <path id="패스_29384" data-name="패스 29384" d="M-678.038-344.505a12.44,12.44,0,0,0,12.092,9.544,12.444,12.444,0,0,0,12.093-9.544Z" fill="#5eb4e7"/>
        </g>
      </g>
    </g>
  </g>
</svg>
