<svg xmlns="http://www.w3.org/2000/svg" width="75.648" height="62.725" viewBox="0 0 75.648 62.725">
  <g id="그룹_19448" data-name="그룹 19448" transform="translate(918.253 8.268)">
    <g id="그룹_19427" data-name="그룹 19427">
      <g id="그룹_19426" data-name="그룹 19426">
        <g id="그룹_19398" data-name="그룹 19398">
          <g id="그룹_19396" data-name="그룹 19396">
            <rect id="사각형_3851" data-name="사각형 3851" width="61.051" height="33.544" transform="translate(-916.702 -6.718)" fill="#fff"/>
          </g>
          <g id="그룹_19397" data-name="그룹 19397">
            <path id="패스_29460" data-name="패스 29460" d="M-854.1,28.376h-64.152V-8.268H-854.1Zm-61.051-3.1h57.95V-5.167h-57.95Z" fill="#282d33"/>
          </g>
        </g>
        <g id="그룹_19399" data-name="그룹 19399">
          <path id="패스_29461" data-name="패스 29461" d="M-908.356,22.215a4.474,4.474,0,0,0-3.736-3.627V1.446a4.471,4.471,0,0,0,3.721-3.553h44.388a4.47,4.47,0,0,0,3.719,3.553V18.591A4.464,4.464,0,0,0-864,22.215Z" fill="#5eb4e7"/>
        </g>
        <g id="그룹_19402" data-name="그룹 19402">
          <g id="그룹_19400" data-name="그룹 19400">
            <path id="패스_29462" data-name="패스 29462" d="M-879.082,10.054a7.1,7.1,0,0,1-7.1,7.094,7.1,7.1,0,0,1-7.094-7.094,7.1,7.1,0,0,1,7.094-7.095A7.1,7.1,0,0,1-879.082,10.054Z" fill="#fff"/>
          </g>
          <g id="그룹_19401" data-name="그룹 19401">
            <path id="패스_29463" data-name="패스 29463" d="M-886.178,18.7a8.655,8.655,0,0,1-8.645-8.645,8.655,8.655,0,0,1,8.645-8.645,8.655,8.655,0,0,1,8.646,8.645A8.655,8.655,0,0,1-886.178,18.7Zm0-14.189a5.55,5.55,0,0,0-5.544,5.544,5.55,5.55,0,0,0,5.544,5.544,5.551,5.551,0,0,0,5.545-5.544A5.551,5.551,0,0,0-886.178,4.51Z" fill="#282d33"/>
          </g>
        </g>
        <g id="그룹_19425" data-name="그룹 19425">
          <g id="그룹_19413" data-name="그룹 19413">
            <g id="그룹_19405" data-name="그룹 19405">
              <g id="그룹_19403" data-name="그룹 19403">
                <line id="선_232" data-name="선 232" x2="10.488" transform="translate(-875.279 10.054)" fill="#fff"/>
              </g>
              <g id="그룹_19404" data-name="그룹 19404">
                <rect id="사각형_3852" data-name="사각형 3852" width="10.488" height="3.101" transform="translate(-875.279 8.503)" fill="#282d33"/>
              </g>
            </g>
            <g id="그룹_19412" data-name="그룹 19412">
              <g id="그룹_19408" data-name="그룹 19408">
                <g id="그룹_19406" data-name="그룹 19406">
                  <line id="선_233" data-name="선 233" x2="6.264" transform="translate(-875.279 4.184)" fill="#fff"/>
                </g>
                <g id="그룹_19407" data-name="그룹 19407">
                  <rect id="사각형_3853" data-name="사각형 3853" width="6.264" height="3.101" transform="translate(-875.279 2.634)" fill="#282d33"/>
                </g>
              </g>
              <g id="그룹_19411" data-name="그룹 19411">
                <g id="그룹_19409" data-name="그룹 19409">
                  <line id="선_234" data-name="선 234" x2="6.264" transform="translate(-875.279 15.923)" fill="#fff"/>
                </g>
                <g id="그룹_19410" data-name="그룹 19410">
                  <rect id="사각형_3854" data-name="사각형 3854" width="6.264" height="3.101" transform="translate(-875.279 14.372)" fill="#282d33"/>
                </g>
              </g>
            </g>
          </g>
          <g id="그룹_19424" data-name="그룹 19424">
            <g id="그룹_19416" data-name="그룹 19416">
              <g id="그룹_19414" data-name="그룹 19414">
                <line id="선_235" data-name="선 235" x1="10.487" transform="translate(-907.562 10.054)" fill="#fff"/>
              </g>
              <g id="그룹_19415" data-name="그룹 19415">
                <rect id="사각형_3855" data-name="사각형 3855" width="10.487" height="3.101" transform="translate(-907.562 8.503)" fill="#282d33"/>
              </g>
            </g>
            <g id="그룹_19423" data-name="그룹 19423">
              <g id="그룹_19419" data-name="그룹 19419">
                <g id="그룹_19417" data-name="그룹 19417">
                  <line id="선_236" data-name="선 236" x1="6.263" transform="translate(-903.338 15.923)" fill="#fff"/>
                </g>
                <g id="그룹_19418" data-name="그룹 19418">
                  <rect id="사각형_3856" data-name="사각형 3856" width="6.263" height="3.101" transform="translate(-903.338 14.372)" fill="#282d33"/>
                </g>
              </g>
              <g id="그룹_19422" data-name="그룹 19422">
                <g id="그룹_19420" data-name="그룹 19420">
                  <line id="선_237" data-name="선 237" x1="6.263" transform="translate(-903.338 4.184)" fill="#fff"/>
                </g>
                <g id="그룹_19421" data-name="그룹 19421">
                  <rect id="사각형_3857" data-name="사각형 3857" width="6.263" height="3.101" transform="translate(-903.338 2.634)" fill="#282d33"/>
                </g>
              </g>
            </g>
          </g>
        </g>
      </g>
    </g>
    <g id="그룹_19432" data-name="그룹 19432">
      <g id="그룹_19431" data-name="그룹 19431">
        <g id="그룹_19430" data-name="그룹 19430">
          <g id="그룹_19428" data-name="그룹 19428">
            <line id="선_238" data-name="선 238" x2="64.131" transform="translate(-918.242 33.287)" fill="#fff"/>
          </g>
          <g id="그룹_19429" data-name="그룹 19429">
            <rect id="사각형_3858" data-name="사각형 3858" width="64.131" height="3.101" transform="translate(-918.242 31.736)" fill="#282d33"/>
          </g>
        </g>
      </g>
    </g>
    <g id="그룹_19437" data-name="그룹 19437">
      <g id="그룹_19436" data-name="그룹 19436">
        <g id="그룹_19435" data-name="그룹 19435">
          <g id="그룹_19433" data-name="그룹 19433">
            <line id="선_239" data-name="선 239" x2="64.131" transform="translate(-918.242 39.747)" fill="#fff"/>
          </g>
          <g id="그룹_19434" data-name="그룹 19434">
            <rect id="사각형_3859" data-name="사각형 3859" width="64.131" height="3.101" transform="translate(-918.242 38.197)" fill="#282d33"/>
          </g>
        </g>
      </g>
    </g>
    <g id="그룹_19442" data-name="그룹 19442">
      <g id="그룹_19441" data-name="그룹 19441">
        <g id="그룹_19440" data-name="그룹 19440">
          <g id="그룹_19438" data-name="그룹 19438">
            <line id="선_240" data-name="선 240" x2="64.131" transform="translate(-918.242 46.208)" fill="#fff"/>
          </g>
          <g id="그룹_19439" data-name="그룹 19439">
            <rect id="사각형_3860" data-name="사각형 3860" width="64.131" height="3.101" transform="translate(-918.242 44.657)" fill="#282d33"/>
          </g>
        </g>
      </g>
    </g>
    <g id="그룹_19447" data-name="그룹 19447">
      <g id="그룹_19443" data-name="그룹 19443">
        <path id="패스_29464" data-name="패스 29464" d="M-842.6,42.374a12.085,12.085,0,0,1-12.084,12.083,12.084,12.084,0,0,1-12.082-12.083,12.082,12.082,0,0,1,12.082-12.081A12.083,12.083,0,0,1-842.6,42.374Z" fill="#f8c44f"/>
      </g>
      <g id="그룹_19446" data-name="그룹 19446">
        <g id="그룹_19444" data-name="그룹 19444">
          <path id="패스_29465" data-name="패스 29465" d="M-850.528,48.791h-3.027l-1.184-5.336-1.184,5.336h-3.027l-2.7-12.16,3.027-.672,1.184,5.336,1.184-5.336h3.027l1.184,5.337,1.184-5.337,3.027.672Z" fill="#282d33"/>
        </g>
        <g id="그룹_19445" data-name="그룹 19445">
          <rect id="사각형_3861" data-name="사각형 3861" width="15.126" height="3.101" transform="translate(-862.302 40.824)" fill="#282d33"/>
        </g>
      </g>
    </g>
  </g>
</svg>
