<svg xmlns="http://www.w3.org/2000/svg" width="120.467" height="81.593" viewBox="0 0 120.467 81.593">
  <g id="그룹_19899" data-name="그룹 19899" transform="translate(1189.126 -1978.804)">
    <g id="그룹_19890" data-name="그룹 19890">
      <g id="그룹_19879" data-name="그룹 19879">
        <path id="사각형_3952" data-name="사각형 3952" d="M2.982,0H5.666A2.981,2.981,0,0,1,8.647,2.981V8.647a2.982,2.982,0,0,1-2.982,2.982H2.982A2.982,2.982,0,0,1,0,8.647V2.982A2.982,2.982,0,0,1,2.982,0Z" transform="translate(-1143.386 2015.103)" fill="#fff"/>
        <path id="패스_29697" data-name="패스 29697" d="M-1137.721,2028.282h-2.684a4.537,4.537,0,0,1-4.531-4.532v-5.665a4.537,4.537,0,0,1,4.531-4.532h2.684a4.538,4.538,0,0,1,4.533,4.532v5.665A4.538,4.538,0,0,1-1137.721,2028.282Zm-2.684-11.628a1.432,1.432,0,0,0-1.43,1.431v5.665a1.433,1.433,0,0,0,1.43,1.431h2.684a1.433,1.433,0,0,0,1.432-1.431v-5.665a1.432,1.432,0,0,0-1.432-1.431Z" fill="#282d33"/>
      </g>
      <g id="그룹_19880" data-name="그룹 19880">
        <path id="사각형_3953" data-name="사각형 3953" d="M2.982,0H5.666A2.981,2.981,0,0,1,8.647,2.981V8.647a2.982,2.982,0,0,1-2.982,2.982H2.982A2.982,2.982,0,0,1,0,8.647V2.982A2.982,2.982,0,0,1,2.982,0Z" transform="translate(-1187.575 2015.103)" fill="#fff"/>
        <path id="패스_29698" data-name="패스 29698" d="M-1181.91,2028.282h-2.684a4.537,4.537,0,0,1-4.532-4.532v-5.665a4.537,4.537,0,0,1,4.532-4.532h2.684a4.538,4.538,0,0,1,4.533,4.532v5.665A4.538,4.538,0,0,1-1181.91,2028.282Zm-2.684-11.628a1.432,1.432,0,0,0-1.431,1.431v5.665a1.433,1.433,0,0,0,1.431,1.431h2.684a1.434,1.434,0,0,0,1.432-1.431v-5.665a1.433,1.433,0,0,0-1.432-1.431Z" fill="#282d33"/>
      </g>
      <g id="그룹_19881" data-name="그룹 19881">
        <path id="패스_29699" data-name="패스 29699" d="M-1181.254,2059.68l4.651-8.916h39.15l4.651,8.916" fill="#f8c44f"/>
        <path id="패스_29700" data-name="패스 29700" d="M-1134.175,2060.4l-4.217-8.082h-37.27l-4.217,8.082-2.749-1.435,5.086-9.749h41.03l5.086,9.749Z" fill="#282d33"/>
      </g>
      <g id="그룹_19882" data-name="그룹 19882">
        <rect id="사각형_3954" data-name="사각형 3954" width="12.086" height="26.737" rx="5.86" transform="translate(-1165.68 2028.291)" fill="#fff"/>
        <path id="패스_29701" data-name="패스 29701" d="M-1159.453,2056.579h-.367a7.419,7.419,0,0,1-7.41-7.411v-15.016a7.418,7.418,0,0,1,7.41-7.411h.367a7.418,7.418,0,0,1,7.41,7.411v15.016A7.419,7.419,0,0,1-1159.453,2056.579Zm-.367-26.737a4.314,4.314,0,0,0-4.309,4.31v15.016a4.314,4.314,0,0,0,4.309,4.31h.367a4.314,4.314,0,0,0,4.309-4.31v-15.016a4.314,4.314,0,0,0-4.309-4.31Z" fill="#282d33"/>
      </g>
      <g id="그룹_19883" data-name="그룹 19883">
        <path id="패스_29702" data-name="패스 29702" d="M-1137.064,2002.33a21.976,21.976,0,0,1-21.976,21.975,21.976,21.976,0,0,1-21.976-21.975,21.976,21.976,0,0,1,21.976-21.976A21.976,21.976,0,0,1-1137.064,2002.33Z" fill="#5eb4e7"/>
        <path id="패스_29703" data-name="패스 29703" d="M-1159.04,2025.856a23.552,23.552,0,0,1-23.526-23.526,23.552,23.552,0,0,1,23.526-23.526,23.552,23.552,0,0,1,23.526,23.526A23.553,23.553,0,0,1-1159.04,2025.856Zm0-43.951a20.448,20.448,0,0,0-20.425,20.425,20.449,20.449,0,0,0,20.425,20.425,20.449,20.449,0,0,0,20.425-20.425A20.448,20.448,0,0,0-1159.04,1981.905Z" fill="#282d33"/>
      </g>
      <g id="그룹_19884" data-name="그룹 19884">
        <path id="패스_29704" data-name="패스 29704" d="M-1142.925,2013.867a17.4,17.4,0,0,1-17.4,17.4,17.4,17.4,0,0,1-17.4-17.4,17.4,17.4,0,0,1,17.4-17.4A17.4,17.4,0,0,1-1142.925,2013.867Z" fill="#f8c44f"/>
        <path id="패스_29705" data-name="패스 29705" d="M-1160.322,2032.815a18.969,18.969,0,0,1-18.948-18.948,18.969,18.969,0,0,1,18.948-18.948,18.969,18.969,0,0,1,18.948,18.948A18.969,18.969,0,0,1-1160.322,2032.815Zm0-34.795a15.865,15.865,0,0,0-15.847,15.847,15.865,15.865,0,0,0,15.847,15.847,15.865,15.865,0,0,0,15.847-15.847A15.865,15.865,0,0,0-1160.322,1998.02Z" fill="#282d33"/>
      </g>
      <g id="그룹_19885" data-name="그룹 19885">
        <path id="패스_29706" data-name="패스 29706" d="M-1139.262,2024.122a22.159,22.159,0,0,1-22.159,22.159,22.158,22.158,0,0,1-22.158-22.159,22.157,22.157,0,0,1,22.158-22.158A22.158,22.158,0,0,1-1139.262,2024.122Z" fill="#fff"/>
        <path id="패스_29707" data-name="패스 29707" d="M-1161.421,2047.832a23.736,23.736,0,0,1-23.709-23.71,23.736,23.736,0,0,1,23.709-23.709,23.736,23.736,0,0,1,23.709,23.709A23.736,23.736,0,0,1-1161.421,2047.832Zm0-44.318a20.632,20.632,0,0,0-20.608,20.608,20.632,20.632,0,0,0,20.608,20.609,20.632,20.632,0,0,0,20.608-20.609A20.632,20.632,0,0,0-1161.421,2003.514Z" fill="#282d33"/>
      </g>
      <g id="그룹_19886" data-name="그룹 19886">
        <path id="패스_29708" data-name="패스 29708" d="M-1165.648,2017.437h-3.1a2.981,2.981,0,0,0-2.977-2.978,2.981,2.981,0,0,0-2.978,2.978h-3.1a6.086,6.086,0,0,1,6.079-6.079A6.086,6.086,0,0,1-1165.648,2017.437Z" fill="#282d33"/>
      </g>
      <g id="그룹_19887" data-name="그룹 19887">
        <path id="패스_29709" data-name="패스 29709" d="M-1147.6,2017.437h-3.1a2.981,2.981,0,0,0-2.978-2.978,2.981,2.981,0,0,0-2.978,2.978h-3.1a6.086,6.086,0,0,1,6.079-6.079A6.086,6.086,0,0,1-1147.6,2017.437Z" fill="#282d33"/>
      </g>
      <g id="그룹_19888" data-name="그룹 19888">
        <path id="패스_29710" data-name="패스 29710" d="M-1161.6,2030.426h-2.038a4.278,4.278,0,0,1-4.274-4.274,4.281,4.281,0,0,1,3.329-4.168v-7.934h3.1v10.93h-2.156a1.174,1.174,0,0,0-1.173,1.172,1.174,1.174,0,0,0,1.173,1.173h2.038Z" fill="#282d33"/>
      </g>
      <g id="그룹_19889" data-name="그룹 19889">
        <path id="패스_29711" data-name="패스 29711" d="M-1165.2,2037.293a10.544,10.544,0,0,0,9.418,1.234,10.544,10.544,0,0,0,6.587-6.846Z" fill="#fff"/>
        <path id="패스_29712" data-name="패스 29712" d="M-1159.261,2040.672h0a12.111,12.111,0,0,1-6.808-2.095l-2.554-1.727,21.824-7.652-.916,2.943a12.013,12.013,0,0,1-7.554,7.849A12.032,12.032,0,0,1-1159.261,2040.672Zm-1.626-3.248a9.016,9.016,0,0,0,4.593-.36,8.938,8.938,0,0,0,3.821-2.591Z" fill="#282d33"/>
      </g>
    </g>
    <g id="그룹_19898" data-name="그룹 19898">
      <g id="그룹_19891" data-name="그룹 19891">
        <path id="패스_29713" data-name="패스 29713" d="M-1070.635,2053.905a22.751,22.751,0,0,0,.426-4.393v-40.959c0-11.989-9.3-21.707-20.768-21.707h-15.575c-11.469,0-20.767,9.718-20.767,21.707v40.959a22.751,22.751,0,0,0,.426,4.393Z" fill="#5eb4e7"/>
        <path id="패스_29714" data-name="패스 29714" d="M-1069.36,2055.455h-58.809l-.246-1.252a24.39,24.39,0,0,1-.455-4.691v-40.959c0-12.824,10.012-23.258,22.318-23.258h15.575c12.306,0,22.318,10.434,22.318,23.258v40.959a24.373,24.373,0,0,1-.455,4.692Zm-56.219-3.1h53.629a21.227,21.227,0,0,0,.19-2.842v-40.959c0-11.115-8.62-20.157-19.217-20.157h-15.575c-10.6,0-19.217,9.042-19.217,20.157v40.959A21.426,21.426,0,0,0-1125.579,2052.354Z" fill="#282d33"/>
      </g>
      <g id="그룹_19892" data-name="그룹 19892">
        <path id="패스_29715" data-name="패스 29715" d="M-1121.505,2060.365v-14.73a6.2,6.2,0,0,1,6.2-6.2h32.173a6.2,6.2,0,0,1,6.2,6.2v14.73" fill="#fff"/>
        <path id="패스_29716" data-name="패스 29716" d="M-1075.378,2060.365h-3.1v-14.73a4.656,4.656,0,0,0-4.651-4.651H-1115.3a4.656,4.656,0,0,0-4.652,4.651v14.73h-3.1v-14.73a7.761,7.761,0,0,1,7.753-7.752h32.173a7.76,7.76,0,0,1,7.752,7.752Z" fill="#282d33"/>
      </g>
      <rect id="사각형_3955" data-name="사각형 3955" width="41.476" height="5.233" transform="translate(-1119.955 2045.829)" fill="#f8c44f"/>
      <rect id="사각형_3956" data-name="사각형 3956" width="41.476" height="5.233" transform="translate(-1119.955 2055.164)" fill="#f8c44f"/>
      <g id="그룹_19893" data-name="그룹 19893">
        <path id="패스_29717" data-name="패스 29717" d="M-1099.739,2045.829a6.59,6.59,0,0,1-6.59-6.589v-35.274a6.59,6.59,0,0,1,6.59-6.59h0a6.59,6.59,0,0,1,6.59,6.59v35.274a6.59,6.59,0,0,1-6.59,6.589Z" fill="#fff"/>
        <path id="패스_29718" data-name="패스 29718" d="M-1099.739,2047.38a8.15,8.15,0,0,1-8.14-8.14v-35.274a8.149,8.149,0,0,1,8.14-8.14,8.149,8.149,0,0,1,8.14,8.14v35.274A8.15,8.15,0,0,1-1099.739,2047.38Zm0-48.453a5.044,5.044,0,0,0-5.039,5.039v35.274a5.045,5.045,0,0,0,5.039,5.039,5.046,5.046,0,0,0,5.039-5.039v-35.274A5.045,5.045,0,0,0-1099.739,1998.927Z" fill="#282d33"/>
      </g>
      <g id="그룹_19894" data-name="그룹 19894">
        <path id="패스_29719" data-name="패스 29719" d="M-1100.368,1990.639A22.164,22.164,0,0,1-1120.8,2004.2c-.169,0-.336-.008-.5-.012a22.121,22.121,0,0,0-.982,6.537,22.158,22.158,0,0,0,22.159,22.159,22.159,22.159,0,0,0,22.158-22.159C-1077.963,1998.485-1097.421,1999.074-1100.368,1990.639Z" fill="#fff"/>
        <path id="패스_29720" data-name="패스 29720" d="M-1100.121,2034.433a23.737,23.737,0,0,1-23.71-23.71,23.7,23.7,0,0,1,1.051-6.995l.346-1.122,1.354.035c.095,0,.19.007.285.007a20.577,20.577,0,0,0,19-12.612l1.564-3.711,1.328,3.8c1.055,3.02,5.086,4.83,9.353,6.747,6.158,2.766,13.139,5.9,13.139,13.849A23.736,23.736,0,0,1-1100.121,2034.433Zm-20-28.694a20.668,20.668,0,0,0-.608,4.984,20.632,20.632,0,0,0,20.609,20.609,20.632,20.632,0,0,0,20.608-20.609c0-5.94-5.493-8.408-11.308-11.02-3.566-1.6-7.223-3.244-9.423-5.829A23.66,23.66,0,0,1-1120.122,2005.739Z" fill="#282d33"/>
      </g>
      <g id="그룹_19895" data-name="그룹 19895">
        <rect id="사각형_3957" data-name="사각형 3957" width="2.585" height="3.101" transform="translate(-1108.713 2007.002)" fill="#282d33"/>
      </g>
      <g id="그룹_19896" data-name="그룹 19896">
        <rect id="사각형_3958" data-name="사각형 3958" width="2.585" height="3.101" transform="translate(-1097.343 2007.002)" fill="#282d33"/>
      </g>
      <g id="그룹_19897" data-name="그룹 19897">
        <path id="패스_29721" data-name="패스 29721" d="M-1100.121,2024.964a16.132,16.132,0,0,1-8.407-2.36l1.615-2.647a13.035,13.035,0,0,0,6.792,1.906,13.04,13.04,0,0,0,6.791-1.906l1.615,2.647A16.139,16.139,0,0,1-1100.121,2024.964Z" fill="#282d33"/>
      </g>
    </g>
  </g>
</svg>
