<svg xmlns="http://www.w3.org/2000/svg" width="170.634" height="198.786" viewBox="0 0 170.634 198.786">
    <defs>
        <style>
            .cls-1{fill:#fff}
        </style>
    </defs>
    <g id="그룹_20545" data-name="그룹 20545" transform="translate(-469.891 -271.716)">
        <path id="사각형_2607" data-name="사각형 2607" class="cls-1" transform="rotate(-17.953 1699.254 -1450.917)" d="M0 0h9.136v18.263H0z"/>
        <path id="사각형_2608" data-name="사각형 2608" class="cls-1" transform="rotate(-17.952 1646.093 -1412.961)" d="M0 0h9.135v18.263H0z"/>
        <path id="사각형_2609" data-name="사각형 2609" class="cls-1" transform="rotate(-17.952 1592.844 -1374.934)" d="M0 0h9.128v18.264H0z"/>
        <path id="패스_6293" data-name="패스 6293" class="cls-1" d="m507.409 921.888-2.813-8.683-34.7 11.245 11.253 34.75 8.684-2.813-8.443-26.058z" transform="translate(0 -538.247)"/>
        <path id="사각형_2610" data-name="사각형 2610" class="cls-1" transform="rotate(-17.954 1568.364 -1341.3)" d="M0 0h9.128v9.128H0z"/>
        <path id="패스_6294" data-name="패스 6294" class="cls-1" d="m1395.66 668.438-8.691 2.816 14.347 44.278 8.691-2.816z" transform="translate(-769.482 -332.873)"/>
        <path id="패스_6295" data-name="패스 6295" class="cls-1" d="M1190.1 601.147q5.625 17.364 11.259 34.749l8.684-2.814-8.446-26.065 8.684-2.813-2.813-8.684z" transform="translate(-604.296 -271.69)"/>
        <path id="사각형_2611" data-name="사각형 2611" class="cls-1" transform="rotate(-17.952 1355.548 -1751.96)" d="M0 0h9.135v9.128H0z"/>
        <path id="패스_6296" data-name="패스 6296" class="cls-1" d="m601.569 455.432-8.684 2.813 2.816 8.691 8.684-2.814 8.44 26.05 8.676-2.811-41.065-126.741-8.676 2.811z" transform="translate(-85.474 -74.596)"/>
        <path id="패스_6297" data-name="패스 6297" class="cls-1" d="m1010.693 584.928 11.259 34.749 8.684-2.814-8.443-26.058 17.374-5.63-2.816-8.691z" transform="translate(-453.764 -255.719)"/>
        <path id="패스_6298" data-name="패스 6298" class="cls-1" d="m757.952 356.772-15.743-48.566-8.675 2.811 29.809 92 8.676-2.811-11.252-34.751 17.374-5.63-2.813-8.684z" transform="translate(-221.211 -30.617)"/>
        <path id="패스_6299" data-name="패스 6299" class="cls-1" d="m608.186 277.341 2.814 8.683 17.36-5.625-2.814-8.684z" transform="translate(-116.038)"/>
    </g>
</svg>
