<svg xmlns="http://www.w3.org/2000/svg" width="438.995" height="216.536" viewBox="0 0 438.995 216.536">
    <g data-name="그룹 20439">
        <g data-name="그룹 20432">
            <g data-name="그룹 20431">
                <g data-name="그룹 20427">
                    <path data-name="패스 29689" d="m1439.605 3446.578 6.193.809 4.181-4.644 1.151 6.142 5.7 2.542-5.488 2.99-.648 6.211-4.539-4.3-6.115 1.3 2.687-5.645z" transform="translate(-1334.983 -3253.589)" style="fill:#ffb400"/>
                </g>
                <g data-name="그룹 20428">
                    <path data-name="패스 29690" d="m1499.34 3219.753 4.712 4.1 6.054-1.559-2.448 5.752 3.356 5.274-6.229-.546-3.981 4.819-1.4-6.092-5.813-2.3 5.36-3.214z" transform="translate(-1353.287 -3177.986)" style="fill:#ffb400"/>
                </g>
                <g data-name="그룹 20429">
                    <path data-name="패스 29691" d="m1843.916 3451.3.932 7.532 6.727 3.5-6.878 3.208-1.255 7.484-5.171-5.547-7.505 1.121 3.675-6.638-3.385-6.791 7.451 1.448z" transform="translate(-1467.603 -3256.49)" style="fill:#ffb400"/>
                </g>
                <g data-name="그룹 20430">
                    <path data-name="패스 29692" d="m1768.092 3156.562 3.364 6.8 7.5 1.09-5.431 5.3 1.282 7.477-6.718-3.531-6.711 3.531 1.282-7.476-5.432-5.3 7.5-1.091z" transform="translate(-1442.672 -3156.562)" style="fill:#ffb400"/>
                </g>
            </g>
        </g>
        <g data-name="그룹 20437">
            <path data-name="패스 29693" d="M1589.931 3387.764c-15.622 0-31.37-9.1-48.044-18.735-4.751-2.745-9.606-5.549-14.053-7.855a45.815 45.815 0 0 1-16.638 3.026 30.844 30.844 0 0 1-18.213-5.87c-6.842 7.26-17.685 11.757-28.988 11.757a34.722 34.722 0 0 1-27.318-12.794 35.435 35.435 0 0 1-12.914-3.43 47.532 47.532 0 0 1-17.979 3.507 37.477 37.477 0 0 1-16.117-3.5 43.236 43.236 0 0 1-18.646 4.15 36.936 36.936 0 0 1-12.061-1.947 21.138 21.138 0 0 1-13.186 4.565 24.07 24.07 0 0 1-11.854-3.253c-.389-.209-1.434-.768-6.1-.768-2.984 0-6.7.329-9.158.547-2.009.179-3.323.3-4.682.3-12.636 0-22.163-9.449-22.163-21.978 0-3.091 1.03-7.787 3.143-14.292a32.2 32.2 0 0 1-13.646-26.39c0-15.374 8.962-27.7 24.588-33.806 8.758-3.429 19.986-5.1 34.323-5.1a202.4 202.4 0 0 1 33.3 2.853 24.275 24.275 0 0 1 7.884-6.642c5.935-3.173 18.634-8.46 37.46-8.46 13.086 0 24.561 3.149 33.065 8.878V3238.6l10.287-5.792a211.858 211.858 0 0 1 103.708-27.424 200.693 200.693 0 0 1 83.833 18.081l11.82 5.388v25.385a41.622 41.622 0 0 1 25.531-8.433 34.528 34.528 0 0 1 23.247 9.08c2.992 2.721 9.951 10.1 9.951 19.817a21 21 0 0 1-21.229 21.228 21.586 21.586 0 0 1-5.745-.781c-1.773 2.7-5.207 8.917-10.635 22.62-.437 1.122-.928 2.348-1.418 3.577-.892 2.23-3.041 7.607-3.662 9.966a22.732 22.732 0 0 1 .515 4.826 21.236 21.236 0 0 1-21.6 21.322 33.606 33.606 0 0 1-12.482-2.343q-1.481.527-2.983.936c-5.986 15.547-27.818 31.711-51.141 31.711z" transform="translate(-1281.317 -3173.115)" style="fill:#2f3a89"/>
            <path data-name="패스 29694" d="M1709.554 3258.519a29.489 29.489 0 0 0-19.849-7.764c-13.987 0-23.8 7.013-30.581 15.212V3232l-8.865-4.042a195.673 195.673 0 0 0-81.739-17.625 206.814 206.814 0 0 0-101.23 26.774l-7.715 4.344v22.616c-7.066-9.642-20.664-15.467-38.115-15.467-17.726 0-29.483 4.871-35.038 7.841a17.99 17.99 0 0 0-7.82 7.757 203.375 203.375 0 0 0-35.783-3.349c-13.693 0-24.319 1.552-32.484 4.748-13.585 5.313-21.377 15.922-21.377 29.1 0 11.473 6.712 19.733 14.632 24.3-2.437 6.967-4.13 13.043-4.13 16.381 0 9.65 7.358 16.927 17.114 16.927 1.133 0 2.293-.1 4.216-.273 2.551-.227 6.408-.569 9.624-.569 5.94 0 7.538.859 8.492 1.371a19.157 19.157 0 0 0 9.462 2.65 16.881 16.881 0 0 0 12.185-5.349 31.111 31.111 0 0 0 13.063 2.729 38.417 38.417 0 0 0 18.687-4.79 31.481 31.481 0 0 0 16.076 4.136 42.91 42.91 0 0 0 18.252-4.087c3.8 2.384 8.856 3.953 15.3 4.158a29.4 29.4 0 0 0 24.655 12.646c11.954 0 22.816-5.673 27.936-13.478.268-.051.531-.11.8-.166a25.278 25.278 0 0 0 18.467 7.756 40.236 40.236 0 0 0 16.839-3.537c5.136 2.547 10.821 5.833 16.376 9.043 16.072 9.287 31.252 18.058 45.52 18.058 23.645 0 43.9-17.709 47.208-30.919a37 37 0 0 0 7.039-2.128 28.281 28.281 0 0 0 12.359 2.747 16.239 16.239 0 0 0 16.552-16.271 18.11 18.11 0 0 0-.632-4.717c.293-2.328 2.677-8.29 4.12-11.9.492-1.229.984-2.462 1.432-3.61 8.3-20.96 12.369-25.654 13.727-26.7a17.961 17.961 0 0 0 7.349 1.667 16.006 16.006 0 0 0 16.179-16.178c-.004-7.694-5.808-13.805-8.303-16.075zm-186.516 37.713-.8 2.066a26.9 26.9 0 0 0-15.329-9.242 164.8 164.8 0 0 1 20.722-4.13 69.436 69.436 0 0 0-2.054 4.735c-.894 2.296-1.735 4.484-2.539 6.57z" transform="translate(-1283.907 -3174.791)" style="fill:#fff"/>
            <g data-name="그룹 20436">
                <path data-name="패스 29695" d="M1347.751 3331.523s11.875-3.646 18.046-3.646c1.684 0 2.339.748 2.339 1.5 0 1.309-4.769 7.013-7.107 10.847-.654 1.029-.934 1.4-1.683 1.4-.936 0-6.733-2.993-14.213-3.085 0 0-6.2 14.706-6.2 16.2a.9.9 0 0 0 1.028 1.029c5.8 0 18.514-4.021 24.5-4.021 1.59 0 2.152.655 2.152 1.309 0 1.683-6.641 11.128-8.977 13.746-.562.561-.936.935-1.5.935-2.432 0-4.114-4.021-17.954-4.021-5.8 0-12.437.842-13.839.842s-1.964-.655-1.964-1.778c0-4.955 12.688-36.659 18.86-48.067a15.734 15.734 0 0 1 4.489-4.769c-11.035 1.122-20.947 7.574-20.947 16.27 0 5.891 2.336 7.2 2.336 8.229 0 .562-.468.936-1.5.936-4.489 0-13.746-4.4-13.746-13.279 0-15.055 18.422-18.7 38.712-18.7 34.693 0 58.164 10.754 79.11 10.754 12.437 0 18.8-4.208 18.8-10.1s-8.791-9.913-22.35-9.913c-14.214 0-23.19 5.8-24.779 5.8a1.444 1.444 0 0 1-1.5-1.216c0-.655.561-1.029 1.588-1.59 4.023-2.151 13.28-5.985 27.773-5.985 13.839 0 28.333 5.05 28.333 17.019 0 10.66-10.939 17.3-23.282 17.3-27.211 0-50.215-15.71-73.5-15.71-1.216 0-2.15.748-3.178 2.618-2.898 5.329-7.323 12.694-9.847 19.146z" transform="translate(-1291.678 -3202.191)" style="fill:#e54d51"/>
                <path data-name="패스 29696" d="M1410.563 3385.458c-8.229 0-12.623-4.394-12.623-11.314 0-10.754 13.277-23 25.527-23 7.388 0 10.661 3.086 10.661 7.2 0 5.517-6.641 9.444-11.877 9.444-.841 0-1.5-.467-1.5-1.029 0-.841.562-1.308 1.684-2.9 1.028-1.4 2.244-3.46 2.244-5.049a1.487 1.487 0 0 0-1.683-1.683c-4.207 0-9.257 8.509-9.257 14.026 0 3.74 1.776 5.237 5.05 5.237 6.171 0 8.789-4.3 10.191-4.3a1.622 1.622 0 0 1 1.4 1.59c.007 1.679-6.633 11.778-19.817 11.778z" transform="translate(-1320.857 -3222.531)" style="fill:#e54d51"/>
                <path data-name="패스 29697" d="M1474.515 3350.858c9.349 0 14.494 4.4 14.494 10.94 0 11.315-11.221 22.91-26.09 22.91-7.573 0-13.09-3.553-13.09-10.287 0-8.041 6.639-13 8.789-14.4a5.733 5.733 0 0 1-.094-1.216c0-4.114 7.668-7.947 15.991-7.947zm-9.259 27.117c5.05 0 10.847-12.249 10.847-17.954 0-2.338-.84-3.086-2.618-3.086-2.524 0-5.516 2.806-5.516 6.173 0 1.963.842 2.9.842 3.833a1.325 1.325 0 0 1-1.31 1.216 6.841 6.841 0 0 1-3.834-1.682 18.311 18.311 0 0 0-1.4 6.732c-.003 3.366 1.12 4.768 2.989 4.768z" transform="translate(-1338.45 -3222.435)" style="fill:#e54d51"/>
                <path data-name="패스 29698" d="M1533.33 3359.09c-1.4 0-4.489 2.056-7.2 6.265-3.272 5.142-7.107 13.278-7.107 17.3 0 1.4-.282 2.245-1.778 2.245-4.395 0-10.473-1.122-10.473-4.489 0-6.733 8.51-20.2 8.51-27.679 0-.936.842-1.589 2.618-1.589 8.321 0 8.7 6.826 9.069 6.826s6.641-6.826 15.055-6.826c4.677 0 7.107 2.431 7.107 6.171 0 6.358-7.667 14.681-7.667 23.752 0 4.675 2.992 8.323 8.695 8.323 2.9 0 4.208-1.029 4.957-1.029a1.159 1.159 0 0 1 1.216 1.122c0 1.871-5.891 8.042-15.9 8.042-7.854 0-14.119-5.142-14.119-12.717 0-10.941 8.51-20.478 8.51-24.219a1.375 1.375 0 0 0-1.493-1.498z" transform="translate(-1357.756 -3222.531)" style="fill:#e54d51"/>
                <path data-name="패스 29699" d="M1592.717 3350.858c9.349 0 14.494 4.4 14.494 10.94 0 11.315-11.221 22.91-26.09 22.91-7.573 0-13.09-3.553-13.09-10.287 0-8.041 6.639-13 8.789-14.4a5.733 5.733 0 0 1-.094-1.216c0-4.114 7.674-7.947 15.991-7.947zm-9.259 27.117c5.05 0 10.848-12.249 10.848-17.954 0-2.338-.841-3.086-2.619-3.086-2.524 0-5.516 2.806-5.516 6.173 0 1.963.842 2.9.842 3.833a1.325 1.325 0 0 1-1.31 1.216 6.84 6.84 0 0 1-3.834-1.682 18.309 18.309 0 0 0-1.4 6.732c-.003 3.366 1.12 4.768 2.989 4.768z" transform="translate(-1378.525 -3222.435)" style="fill:#e54d51"/>
                <path data-name="패스 29700" d="M1672.619 3310.262c11.689 0 15.709 5.8 15.709 10.473 0 6.358-9.725 11.969-13.934 11.969a1.423 1.423 0 0 1-1.5-1.5c0-1.4 2.992-3.928 2.992-10.753 0-2.244-1.122-3.74-3.179-3.74-4.3 0-5.89 3.179-10.1 12.9-5.051 11.784-9.071 27.586-17.394 37.872 22.442 6.546 42.828 21.226 67.235 21.226 14.773 0 20.478-7.948 21.974-7.948.747 0 1.308.281 1.308 1.215 0 2.338-12.437 19.357-32.541 19.357-16.644 0-43.2-21.414-62.933-28.988a24.461 24.461 0 0 1-15.8 5.424c-4.676 0-9.071-2.992-9.071-6.733s4.582-6.826 9.539-6.826a63.944 63.944 0 0 1 8.509.654c7.013-8.79 10.565-19.544 16.926-35.813 3.464-8.877 9.541-18.789 22.26-18.789z" transform="translate(-1394.582 -3208.672)" style="fill:#e54d51"/>
                <path data-name="패스 29701" d="M1715.238 3384.9c-7.575 0-10.567-5.237-11.221-5.237-1.122 0-5.891 5.237-14.4 5.237-4.769 0-7.761-3.181-7.761-8.417 0-12.156 12.341-25.34 27.584-25.34 8.041 0 13.84 4.675 13.84 6.826 0 1.776-7.3 10.1-7.3 21.6 0 2.805.654 3.086.654 4.208.007.653-.459 1.123-1.396 1.123zm-19.823-10.661a1.571 1.571 0 0 0 1.684 1.684c4.956 0 12.717-15.242 12.717-17.3 0-.842-.374-1.216-1.122-1.216-5.705-.001-13.279 10.752-13.279 16.83z" transform="translate(-1417.117 -3222.531)" style="fill:#e54d51"/>
                <path data-name="패스 29702" d="M1763.362 3359.744c-1.4 0-3.46.654-6.173 4.863-3.272 5.143-7.666 14.026-7.666 18.048 0 1.4-.28 2.245-1.777 2.245-4.4 0-10.473-1.122-10.473-4.489 0-6.733 8.509-20.2 8.509-27.679 0-.936.84-1.589 2.618-1.589 8.323 0 8.695 6.826 9.071 6.826s6.45-6.826 15.8-6.826c4.114 0 7.2 2.338 7.2 5.8 0 6.358-7.107 15.8-7.107 21.6 0 3.085.654 3.272.654 4.394 0 .842-1.028 1.965-3.461 1.965-5.8 0-10.191-.842-10.191-5.518 0-5.05 5.423-13 5.423-16.739.003-1.873-.837-2.901-2.427-2.901z" transform="translate(-1435.905 -3222.531)" style="fill:#e54d51"/>
                <path data-name="패스 29703" d="M1833.281 3322.555c8.7-21.974 18.514-28.147 28.987-28.147 8.417 0 13 7.3 13 8.7a.9.9 0 0 1-1.03 1.029c-1.12 0-2.992-1.776-6.919-1.776-10.286 0-16.831 7.575-28.241 36.375-2.992 7.667-6.639 15.8-6.639 21.226 0 3.179.654 3.46.654 4.583 0 .654-.466 1.122-1.4 1.122-7.481 0-10.474-5.237-11.127-5.237-1.216 0-6.827 5.237-14.494 5.237-4.676 0-8.137-3.181-8.137-8.417 0-12.53 13-25.34 24.22-25.34a14.619 14.619 0 0 1 6.265 1.589.518.518 0 0 0 .468-.281c.093-.19 2.617-6.175 4.393-10.663zm-22.162 33.009a1.547 1.547 0 0 0 1.59 1.683c4.768 0 12.811-14.587 12.811-17.3 0-.841-.374-1.215-1.216-1.215-4.768.001-13.184 10.754-13.184 16.832z" transform="translate(-1456.472 -3203.296)" style="fill:#e54d51"/>
                <g data-name="그룹 20435">
                    <g data-name="그룹 20434">
                        <g data-name="그룹 20433">
                            <path data-name="패스 29704" d="M1570.013 3282.72c.01-7.578 2.923-11.617 10.144-15.072 7.275-3.4 10.388-2.059 10.378 6.04v2.777c.01 8.16-3.1 11.495-10.378 14.358-7.221 2.921-10.134 2.147-10.144-5.491zm11.624-5.475c0-4.925-.159-5.076-1.48-4.477-1.289.588-1.444.882-1.445 5.763v2.683c0 4.884.156 5.028 1.445 4.489 1.321-.547 1.481-.824 1.48-5.752zm20 6.27q-4.717 1.244-9.374 2.743v-23.61q4.656-1.808 9.374-3.362z" transform="translate(-1379.197 -3191.389)" style="fill:#2f3a89"/>
                            <path data-name="패스 29705" d="M1628.966 3264.218q4.772-1.129 9.586-2v6.456q7.434-1.23 14.938-1.853v7.04a184.146 184.146 0 0 0-33.238 5.271v-6.471q4.336-1.178 8.714-2.141zm12.842-3.538a186.737 186.737 0 0 0-20.25 4.528v-4.908a187.836 187.836 0 0 1 20.749-4.88v-1.065a187.871 187.871 0 0 0-20.749 4.936v-4.907a189.08 189.08 0 0 1 30.627-6.826v5.926l-1.1 10.406q-4.9.508-9.773 1.276.246-2.239.495-4.486z" transform="translate(-1396.23 -3187.413)" style="fill:#2f3a89"/>
                            <path data-name="패스 29706" d="M1684.351 3261.137q-5.324.118-10.637.539v-15.3q4.859-.564 9.73-.872v8.407a186.565 186.565 0 0 1 21.287.284v7.609q-5.312-.465-10.638-.626v4.457q6 .242 11.978.87v7.63a186.812 186.812 0 0 0-33.7-1.049v-7.061q5.978-.456 11.977-.528z" transform="translate(-1413.902 -3186.716)" style="fill:#2f3a89"/>
                            <path data-name="패스 29707" d="M1725.293 3245.531q8.721.568 17.36 1.958v10.911q-4.522-.835-9.074-1.444v1.419q4.551.624 9.074 1.472v4.8q-8.629-1.708-17.36-2.6v-10.611q4.553.356 9.086.936v-1.353q-4.532-.567-9.086-.909zm9.686 23.5a187.866 187.866 0 0 1 23.751 5.584v7.128a189.063 189.063 0 0 0-33.437-7.443v-10.883q4.854.509 9.686 1.271zm23.425 4.024q-3.423-1.026-6.874-1.919v-8.352l-.986-.235v8.334q-3.454-.874-6.93-1.614v-21.627q3.476.578 6.93 1.29v6.43q.493.108.986.219v-6.444q3.45.731 6.874 1.6z" transform="translate(-1431.843 -3186.725)" style="fill:#2f3a89"/>
                            <path data-name="패스 29708" d="M1809.742 3290.189v8.817a191.443 191.443 0 0 0-31.854-13.764V3277a188.671 188.671 0 0 1 31.854 13.189zm-1.233-13.541v7.622a187.138 187.138 0 0 0-29.322-11.829v-17.865a181.86 181.86 0 0 1 29.322 10.7v7.622a183.931 183.931 0 0 0-19.962-8.207v3.6a184.851 184.851 0 0 1 19.963 8.357z" transform="translate(-1449.675 -3189.792)" style="fill:#2f3a89"/>
                        </g>
                        <path data-name="패스 29709" d="M1739.264 3252.938c-53.166-24.615-116.086-22.142-169.251 7.42v-2.282c53.166-29.943 116.086-32.8 169.251-8.563z" transform="translate(-1379.197 -3182.562)" style="fill:#2f3a89"/>
                        <path data-name="패스 29710" d="M1739.264 3321.411c-53.166-29.943-116.086-32.8-169.251-8.562v-2.282c53.166-24.616 116.086-22.142 169.251 7.42z" transform="translate(-1379.197 -3203.087)" style="fill:#2f3a89"/>
                    </g>
                </g>
            </g>
        </g>
        <g data-name="그룹 20438" style="opacity:.2">
            <path data-name="패스 29711" d="M1365.8 3327.877c-6.171 0-18.046 3.646-18.046 3.646 2.525-6.452 6.955-13.817 9.852-19.148 1.028-1.87 1.963-2.618 3.178-2.618 23.284 0 46.289 15.71 73.5 15.71 12.343 0 23.282-6.639 23.282-17.3 0-11.969-14.494-17.019-28.333-17.019-14.493 0-23.75 3.834-27.773 5.985-1.028.561-1.588.935-1.588 1.59a1.444 1.444 0 0 0 1.5 1.216c1.588 0 10.565-5.8 24.779-5.8 13.559 0 22.35 4.021 22.35 9.913s-6.359 10.1-18.8 10.1c-20.947 0-44.417-10.754-79.11-10.754-20.29 0-38.712 3.647-38.712 18.7a11.848 11.848 0 0 0 .389 2.985c4.139 1.2 8.349 2.373 12.677 3.5a17.669 17.669 0 0 1-.161-2.374c0-8.7 9.911-15.147 20.947-16.269a15.727 15.727 0 0 0-4.489 4.769c-2.02 3.734-4.738 9.651-7.481 16.083q14.094 3.43 29.323 6.358c2.338-3.3 5.054-6.793 5.054-7.781-.003-.744-.657-1.492-2.338-1.492z" transform="translate(-1291.678 -3202.192)" style="fill:#fff"/>
            <path data-name="패스 29712" d="M1437.74 3358.342c0-4.114-3.272-7.2-10.661-7.2-6.643 0-13.517 3.652-18.483 8.666q5.944 1.023 12.025 1.967c1.758-2.659 3.966-4.648 5.991-4.648a1.487 1.487 0 0 1 1.683 1.683 8.248 8.248 0 0 1-1.465 3.9q4.161.609 8.386 1.173a7.862 7.862 0 0 0 2.524-5.541z" transform="translate(-1324.47 -3222.532)" style="fill:#fff"/>
            <path data-name="패스 29713" d="M1476.513 3350.857c-8.323 0-15.992 3.834-15.992 7.948a5.743 5.743 0 0 0 .094 1.216 23.131 23.131 0 0 0-4.894 4.367q7.392.953 14.94 1.79a8.36 8.36 0 0 1-.694-3.07c0-3.367 2.992-6.173 5.516-6.173 1.778 0 2.619.748 2.619 3.086a21.053 21.053 0 0 1-1.568 6.768q6.566.673 13.242 1.25a18.753 18.753 0 0 0 1.23-6.241c0-6.546-5.143-10.941-14.493-10.941z" transform="translate(-1340.447 -3222.435)" style="fill:#fff"/>
            <path data-name="패스 29714" d="M1543.881 3351.141c-8.415 0-14.68 6.826-15.056 6.826s-.748-6.826-9.069-6.826c-1.776 0-2.618.653-2.618 1.589 0 4.122-2.573 10.049-4.894 15.679q6.647.547 13.391 1a63.23 63.23 0 0 1 2.35-4.052c2.712-4.209 5.8-6.265 7.2-6.265a1.375 1.375 0 0 1 1.5 1.5c0 1.85-2.083 5.125-4.187 9.278q6.738.4 13.567.686c2.2-4.936 4.925-9.442 4.925-13.237-.003-3.747-2.433-6.178-7.109-6.178z" transform="translate(-1359.611 -3222.532)" style="fill:#fff"/>
            <path data-name="패스 29715" d="M1593.016 3350.857c-8.322 0-15.991 3.834-15.991 7.948a5.736 5.736 0 0 0 .094 1.216c-1.781 1.161-6.59 4.8-8.207 10.568 4.055.158 8.1.3 12.111.4a20.352 20.352 0 0 1 1.145-4.517 6.84 6.84 0 0 0 3.834 1.682 1.325 1.325 0 0 0 1.31-1.215c0-.935-.842-1.87-.842-3.833 0-3.367 2.992-6.173 5.516-6.173 1.778 0 2.619.748 2.619 3.086 0 2.863-1.461 7.37-3.553 11.154q6.952.1 13.8.077a19.732 19.732 0 0 0 2.654-9.455c.004-6.543-5.141-10.938-14.49-10.938z" transform="translate(-1378.823 -3222.435)" style="fill:#fff"/>
            <path data-name="패스 29716" d="M1684.547 3316.714c2.056 0 3.179 1.5 3.179 3.74 0 6.826-2.992 9.352-2.992 10.753a1.423 1.423 0 0 0 1.5 1.5c4.208 0 13.934-5.611 13.934-11.969 0-4.676-4.021-10.473-15.71-10.473-12.718 0-18.8 9.912-22.255 18.8-4.649 11.892-7.807 20.819-11.9 28.2q6.693-.161 13.268-.429c4.319-8.884 7.368-19.01 10.885-27.215 4.2-9.728 5.789-12.907 10.091-12.907z" transform="translate(-1406.416 -3208.672)" style="fill:#fff"/>
            <path data-name="패스 29717" d="M1710.026 3351.141c-12.651 0-23.189 9.1-26.446 19.137q6.847-.357 13.55-.823c2.3-5.7 7.762-12.049 12.147-12.049.748 0 1.122.374 1.122 1.216 0 1.095-2.2 5.917-5.006 10.195q6.965-.569 13.747-1.26c2.1-5.06 4.725-8.522 4.725-9.589 0-2.152-5.798-6.827-13.839-6.827z" transform="translate(-1417.701 -3222.532)" style="fill:#fff"/>
            <path data-name="패스 29718" d="M1775.393 3351.141c-9.351 0-15.429 6.826-15.8 6.826s-.748-6.826-9.071-6.826c-1.778 0-2.619.653-2.619 1.589 0 3.813-2.208 9.179-4.376 14.418q7.826-.847 15.369-1.861c.137-.222.282-.472.415-.682 2.713-4.208 4.77-4.863 6.173-4.863 1.59 0 2.43 1.028 2.43 2.9a6.519 6.519 0 0 1-.209 1.423c4.731-.7 9.345-1.464 13.891-2.259a15.62 15.62 0 0 0 1-4.867c-.003-3.46-3.089-5.798-7.203-5.798z" transform="translate(-1438.025 -3222.532)" style="fill:#fff"/>
            <path data-name="패스 29719" d="M1870.548 3302.357c3.927 0 5.8 1.777 6.919 1.777a.9.9 0 0 0 1.03-1.029c0-1.4-4.583-8.7-13-8.7-10.473 0-20.29 6.173-28.987 28.147-1.776 4.489-4.3 10.473-4.394 10.66a.517.517 0 0 1-.468.281 14.62 14.62 0 0 0-6.265-1.589c-6.316 0-13.118 4.122-17.925 9.9 13.232-2.43 25.62-5.248 37.014-8.427 10.11-24.39 16.459-31.02 26.076-31.02z" transform="translate(-1459.701 -3203.297)" style="fill:#fff"/>
        </g>
    </g>
</svg>
