<?xml version="1.0" encoding="utf-8"?>
<!-- Generator: Adobe Illustrator 25.2.3, SVG Export Plug-In . SVG Version: 6.00 Build 0)  -->
<svg version="1.1" id="Layer_1" xmlns="http://www.w3.org/2000/svg" xmlns:xlink="http://www.w3.org/1999/xlink" x="0px" y="0px"
	 viewBox="0 0 125 152" style="enable-background:new 0 0 125 152;" xml:space="preserve">
<style type="text/css">
	.st0{fill:#FAE600;}
	.st1{opacity:0.15;}
	.st2{opacity:0.7;}
	.st3{fill:#FFFFFF;}
	.st4{fill:#3D1C60;}
	.st5{fill:#D8EBFC;}
	.st6{fill:#32ABE3;}
	.st7{fill:none;}
	.st8{enable-background:new    ;}
	.st9{fill:#3774DF;}
</style>
<g id="그룹_19831" transform="translate(14973.303 1247.699)">
	<g id="그룹_19830" transform="translate(-15310.303 -1558.856)">
		<g id="그룹_19829" transform="translate(337 311.157)">
			<g id="그룹_19799" transform="translate(22.229 20.564)">
				<path id="패스_29596" class="st0" d="M86.3,40.2c0,9.9-3.2,19.5-9.1,27.4c-3.4,4.7-5.3,10.5-5.2,16.3v1.8
					c0,6.1-5,11.1-11.2,11.1c0,0,0,0,0,0H21.1c-6.2,0-11.1-5-11.2-11.1c0-6.4-2.2-12.5-6.1-17.6C-2.5,60-5.9,49.9-5.7,39.5
					C-5.4,15.6,13.9-4.5,37.8-5.7c25.4-1.3,47,18.1,48.4,43.5C86.3,38.6,86.3,39.4,86.3,40.2z"/>
			</g>
			<g id="그룹_19800" transform="translate(45.657 63.678)" class="st1">
				<path id="패스_29597" d="M57.2-8.3c0,9.9-3.2,19.5-9.1,27.5c-3.5,4.7-5.3,10.5-5.2,16.3v1.8c0,6.1-5,11.1-11.1,11.1
					c0,0,0,0,0,0H-7.9c-1.5,0-3-0.3-4.4-0.9c0.5,1.1,1.3,2.1,2.1,3c2.1,2.1,4.9,3.3,7.9,3.3h39.7c6.1,0,11.1-5,11.2-11.1v-1.8
					c-0.1-5.9,1.7-11.6,5.2-16.3c9.1-12.2,11.6-28.1,6.6-42.4C60.3-17.9,57.2-11.6,57.2-8.3z"/>
			</g>
			<g id="그룹_19801" transform="translate(22.236 20.573)" class="st2">
				<path id="패스_29598" class="st3" d="M37.8-5.7C13.9-4.5-5.4,15.5-5.7,39.5c2-11.4,8-21.7,16.7-29.3C18.1,4,27.1,0.3,36.5-0.6
					c0.7,0.8,2.2,1.4,4.1,1.4c1.8,0,3.3-0.5,4-1.3C54,0.4,63,4.3,70.1,10.6c8.3,7.2,14,17.6,16.2,29.6c0-25.4-20.6-46-46-46
					C39.4-5.8,38.6-5.8,37.8-5.7z"/>
			</g>
			<g id="그룹_19802" transform="translate(20.51 18.849)">
				<path id="패스_29599" class="st4" d="M62.5,99.9H22.9c-6.8,0-12.4-5.5-12.4-12.4c0-6.1-2.1-12-5.8-16.8
					C-2,62.3-5.5,51.8-5.2,41.2c0.4-26.1,21.9-46.9,48-46.5c11.9,0.2,23.2,4.8,31.8,13c17.4,16.5,19.6,43.3,5.3,62.4
					c-3.3,4.5-5,10-4.9,15.6v1.8C74.9,94.3,69.3,99.9,62.5,99.9z M42-2.8c-0.8,0-1.6,0-2.4,0.1c-23.5,1.3-42,20.5-42.4,44
					c-0.2,10.1,3.1,20,9.4,28c4.1,5.2,6.3,11.7,6.4,18.3c0,5.5,4.4,9.9,9.9,9.9h39.7c5.5,0,9.9-4.4,9.9-9.9v-1.8
					c-0.1-6.1,1.8-12.1,5.4-17.1C92.7,48.8,88.6,20.8,68.8,6C61,0.3,51.6-2.8,42-2.8L42-2.8z"/>
			</g>
			<g id="그룹_19803" transform="translate(51.111 161.104)">
				<path id="패스_29600" class="st5" d="M-12.6-44.1v20.8c0,1.3,1.1,2.4,2.4,2.4c0,0,0,0,0,0h43.1c1.4,0,2.4-1.1,2.4-2.4l0,0
					v-20.8H-12.6z"/>
				<path id="패스_29601" class="st4" d="M32.9-19.6h-43.1c-2,0-3.7-1.6-3.7-3.7v-20.8c0-0.7,0.6-1.2,1.2-1.2c0,0,0,0,0,0h48
					c0.7,0,1.2,0.6,1.2,1.2c0,0,0,0,0,0v20.8C36.6-21.2,35-19.6,32.9-19.6z M-11.4-42.8v19.6c0,0.7,0.5,1.2,1.2,1.2h43.1
					c0.7,0,1.2-0.5,1.2-1.2v-19.6L-11.4-42.8z"/>
			</g>
			<g id="그룹_19804" transform="translate(55.528 193.48)">
				<path id="패스_29602" class="st6" d="M27.8-53.2L12.5-42.7H1.4l-15.3-10.5H27.8z"/>
				<path id="패스_29603" class="st4" d="M12.5-41.5H1.4c-0.2,0-0.5-0.1-0.7-0.2l-15.3-10.5c-0.6-0.4-0.7-1.2-0.3-1.7
					c0.2-0.3,0.6-0.5,1-0.5h41.6c0.7,0,1.2,0.6,1.2,1.2c0,0.4-0.2,0.8-0.5,1L13.2-41.7C13-41.6,12.8-41.5,12.5-41.5z M1.8-43.9h10.3
					l11.7-8H-9.9L1.8-43.9z"/>
			</g>
			<g id="그룹_19807" transform="translate(51.111 172.195)">
				<g id="그룹_19805">
					<line id="선_277" class="st7" x1="-12.6" y1="-47.2" x2="35.4" y2="-47.2"/>
					<path id="패스_29604" class="st4" d="M35.4-46h-48c-0.7,0-1.2-0.6-1.2-1.2c0-0.7,0.6-1.2,1.2-1.2h48c0.7,0,1.2,0.5,1.2,1.2
						C36.6-46.5,36.1-46,35.4-46C35.4-46,35.4-46,35.4-46z"/>
				</g>
				<g id="그룹_19806" transform="translate(0 10.205)">
					<line id="선_278" class="st7" x1="-12.6" y1="-50.1" x2="35.4" y2="-50.1"/>
					<path id="패스_29605" class="st4" d="M35.4-48.8h-48c-0.7,0-1.2-0.6-1.2-1.2c0-0.7,0.6-1.2,1.2-1.2h48c0.7,0,1.2,0.5,1.2,1.2
						C36.6-49.4,36.1-48.8,35.4-48.8C35.4-48.8,35.4-48.8,35.4-48.8z"/>
				</g>
			</g>
			<g id="그룹_19809" transform="translate(84.651)">
				<g id="그룹_19808">
					<line id="선_279" class="st7" x1="-22.2" y1="15" x2="-22.2" y2="0"/>
					<rect id="사각형_3934" x="-23.2" y="0" class="st4" width="2.2" height="15"/>
				</g>
			</g>
			<g id="그룹_19811" transform="translate(51.793 5.981)">
				<g id="그룹_19810" transform="translate(0 0)">
					<line id="선_280" class="st7" x1="-9.8" y1="6.4" x2="-13" y2="-1.3"/>
					
						<rect id="사각형_3935" x="-12.5" y="-1.6" transform="matrix(0.9239 -0.3825 0.3825 0.9239 -1.8559 -4.1731)" class="st4" width="2.2" height="8.3"/>
				</g>
			</g>
			<g id="그룹_19813" transform="translate(113.303 5.981)">
				<g id="그룹_19812" transform="translate(0 0)">
					<line id="선_281" class="st7" x1="-30.3" y1="6.4" x2="-27.1" y2="-1.3"/>
					
						<rect id="사각형_3936" x="-32.8" y="1.5" transform="matrix(0.3832 -0.9237 0.9237 0.3832 -20.0685 -24.8925)" class="st4" width="8.3" height="2.2"/>
				</g>
			</g>
			<g id="그룹_19816" transform="translate(5.981 51.793)">
				<g id="그룹_19814" transform="translate(148.499 0)">
					<line id="선_282" class="st7" x1="-42.4" y1="-10.4" x2="-34.7" y2="-13.6"/>
					
						<rect id="사각형_3937" x="-42.7" y="-13.1" transform="matrix(0.924 -0.3824 0.3824 0.924 1.6477 -15.6532)" class="st4" width="8.3" height="2.2"/>
				</g>
				<g id="그룹_19815" transform="translate(0 61.508)">
					<line id="선_283" class="st7" x1="-0.8" y1="-27.7" x2="6.9" y2="-30.9"/>
					
						<rect id="사각형_3938" x="-1.1" y="-30.4" transform="matrix(0.924 -0.3824 0.3824 0.924 11.4296 -1.043)" class="st4" width="8.3" height="2.2"/>
				</g>
			</g>
			<g id="그룹_19819" transform="translate(5.984 51.789)">
				<g id="그룹_19817" transform="translate(148.497 61.514)">
					<line id="선_284" class="st7" x1="-42.4" y1="-30.9" x2="-34.7" y2="-27.7"/>
					
						<rect id="사각형_3939" x="-39.6" y="-33.4" transform="matrix(0.3833 -0.9236 0.9236 0.3833 3.262 -53.6588)" class="st4" width="2.2" height="8.3"/>
				</g>
				<g id="그룹_19818" transform="translate(0 0)">
					<line id="선_285" class="st7" x1="-0.8" y1="-13.6" x2="6.9" y2="-10.4"/>
					
						<rect id="사각형_3940" x="2" y="-16.1" transform="matrix(0.3831 -0.9237 0.9237 0.3831 12.9633 -4.5298)" class="st4" width="2.2" height="8.3"/>
				</g>
			</g>
			<g id="그룹_19822" transform="translate(24.167 24.168)">
				<g id="그룹_19820" transform="translate(107.12 0)">
					<line id="선_286" class="st7" x1="-35.5" y1="4.6" x2="-24.9" y2="-6"/>
					<polygon id="사각형_3941" class="st4" points="-36.3,3.8 -25.7,-6.8 -24.2,-5.3 -34.8,5.3 					"/>
				</g>
				<g id="그룹_19821" transform="translate(0 107.119)">
					<line id="선_287" class="st7" x1="-5.5" y1="-25.6" x2="5.1" y2="-36.2"/>
					<polygon id="사각형_3942" class="st4" points="-6.3,-26.3 4.3,-36.9 5.9,-35.4 -4.7,-24.8 					"/>
				</g>
			</g>
			<g id="그룹_19825" transform="translate(0 84.651)">
				<g id="그룹_19823" transform="translate(151.489)">
					<line id="선_288" class="st7" x1="-42" y1="-22.7" x2="-27" y2="-22.7"/>
					<rect id="사각형_3943" x="-42" y="-23.8" class="st4" width="15" height="2.2"/>
				</g>
				<g id="그룹_19824">
					<line id="선_289" class="st7" x1="0.5" y1="-22.7" x2="15.5" y2="-22.7"/>
					<rect id="사각형_3944" x="0.5" y="-23.8" class="st4" width="15" height="2.2"/>
				</g>
			</g>
			<g id="그룹_19828" transform="translate(24.167 24.168)">
				<g id="그룹_19826" transform="translate(107.12 107.117)">
					<line id="선_290" class="st7" x1="-35.5" y1="-36.2" x2="-24.9" y2="-25.6"/>
					<polygon id="사각형_3945" class="st4" points="-36.3,-35.4 -34.8,-36.9 -24.2,-26.3 -25.7,-24.8 					"/>
				</g>
				<g id="그룹_19827" transform="translate(0 0)">
					<line id="선_291" class="st7" x1="-5.5" y1="-6" x2="5.1" y2="4.6"/>
					<polygon id="사각형_3946" class="st4" points="-6.3,-5.3 -4.7,-6.8 5.9,3.8 4.3,5.3 					"/>
				</g>
			</g>
		</g>
	</g>
	<g class="st8">
		<path class="st4" d="M-14936.5-1187.6h1v5.3h-3.1v-5.3h1.1v1.8h1V-1187.6z M-14936.5-1185h-1v1.7h1V-1185z M-14932.1-1188.3v7.8
			h-1.1v-3.9h-0.7v3.6h-1v-7.4h1v2.9h0.7v-3H-14932.1z"/>
		<path class="st4" d="M-14929.4-1183.3c1,0,2-0.1,3-0.3l0.1,0.9c-1.3,0.3-2.4,0.3-3.6,0.3h-0.7v-5.2h1.1V-1183.3z M-14924.4-1188.3
			v7.9h-1.1v-4.5h-2.1v-0.9h2.1v-2.4H-14924.4z"/>
		<path class="st4" d="M-14916-1184.8v0.8h-7.1v-0.8H-14916z M-14921.2-1181.3h4.5v0.8h-5.7v-1.9h4.3v-0.4h-4.3v-0.8h5.4v1.9h-4.3
			V-1181.3z M-14918-1187.4h-4.2v-0.8h5.4v1.8h-4.2v0.4h4.4v0.8h-5.5v-1.9h4.2V-1187.4z"/>
		<path class="st4" d="M-14906.3-1185.3v0.9h-7v-0.9h5c0-0.2,0.1-0.4,0.1-0.6l-4.3,0.2l-0.1-0.9l4.5-0.1c0-0.2,0-0.3,0-0.4h-4.3
			v-0.9h5.4v0.7c0,0.6,0,1.2-0.1,2H-14906.3z M-14911.5-1181.4h4.7v0.8h-5.8v-2.1h4.4v-0.4h-4.4v-0.8h5.5v2.1h-4.4V-1181.4z"/>
		<path class="st4" d="M-14900.7-1184.1c-1.2,0.2-2.2,0.2-3.8,0.2h-0.7v-2.5h2.5v-0.7h-2.5v-0.9h3.6v2.4h-2.5v0.7
			c1.3,0,2.2,0,3.2-0.2L-14900.7-1184.1z M-14904.4-1183.2h5.3v2.7h-1.1v-1.8h-4.2V-1183.2z M-14899-1188.3v4.8h-1.1v-4.8H-14899z"
			/>
		<path class="st4" d="M-14894.9-1187.2h1.7v0.9h-4.6v-0.9h1.7v-1h1.1V-1187.2z M-14893.5-1184c0,1.1-0.8,1.9-2,1.9
			c-1.1,0-2-0.8-2-1.9c0-1.1,0.8-1.9,2-1.9C-14894.3-1185.8-14893.5-1185.1-14893.5-1184z M-14894.6-1184c0-0.6-0.4-1-0.9-1
			s-0.9,0.3-0.9,1c0,0.6,0.4,1,0.9,1S-14894.6-1183.4-14894.6-1184z M-14890.5-1184.4h-1.1v3.8h-1.1v-7.8h1.1v3.1h1.1V-1184.4z"/>
		<path class="st4" d="M-14885.9-1183.9h-3.7v-3.8h3.7v0.6h1.4v-1.2h1.1v5.7h-1.1v-1.9h-1.4V-1183.9z M-14883.2-1181.5v0.9h-5.3
			v-2.5h1.1v1.6H-14883.2z M-14887-1186.8h-1.5v2.1h1.5V-1186.8z M-14885.9-1186.2v0.8h1.4v-0.8H-14885.9z"/>
	</g>
	<g class="st8">
		<path class="st4" d="M-14926.8-1177h1.7v0.9h-4.6v-0.9h1.7v-1h1.1V-1177z M-14925.3-1173.8c0,1.1-0.8,1.9-2,1.9
			c-1.1,0-2-0.8-2-1.9c0-1.1,0.8-1.9,2-1.9C-14926.2-1175.7-14925.3-1174.9-14925.3-1173.8z M-14926.4-1173.8c0-0.6-0.4-1-0.9-1
			s-0.9,0.3-0.9,1c0,0.6,0.4,1,0.9,1S-14926.4-1173.2-14926.4-1173.8z M-14922.3-1174.2h-1.1v3.8h-1.1v-7.8h1.1v3.1h1.1V-1174.2z"/>
		<path class="st4" d="M-14914.7-1172.1v0.9h-7.1v-0.9H-14914.7z M-14915.4-1173.2h-5.5v-4.3h5.4v0.9h-4.3v0.8h4.1v0.9h-4.1v0.9h4.4
			V-1173.2z"/>
		<path class="st4" d="M-14908.9-1177.4v5.4h1.1v0.9h-3.5v-0.9h1.2v-3.5l0-0.6l-1,0.9l-0.7-0.8l1.8-1.6H-14908.9z"/>
		<path class="st4" d="M-14903.5-1177.2c0,2.2-0.6,4-2.8,5.3l-0.7-0.8c1.6-0.9,2.2-2.1,2.4-3.6h-2v-0.9H-14903.5z M-14900.2-1178.1
			v7.8h-1.1v-4h-0.7v3.6h-1v-7.3h1v2.7h0.7v-2.9H-14900.2z"/>
		<path class="st4" d="M-14892-1174.6v0.8h-7.1v-0.8H-14892z M-14897.2-1171.1h4.5v0.8h-5.7v-1.9h4.3v-0.4h-4.3v-0.8h5.4v1.9h-4.3
			V-1171.1z M-14894-1177.2h-4.2v-0.8h5.4v1.8h-4.2v0.4h4.4v0.8h-5.5v-1.9h4.2V-1177.2z"/>
	</g>
	<g class="st8">
		<path class="st4" d="M-14933.4-1163.8h-3.7v-3.7h1.1v1h1.5v-1h1.1V-1163.8z M-14935.2-1161.1h4.2v0.9h-5.3v-2.8h5.1v0.9h-4
			V-1161.1z M-14934.5-1165.6h-1.5v1h1.5V-1165.6z M-14930.2-1166.2v0.9h-1v1.9h-1.1v-4.6h1.1v1.8H-14930.2z"/>
		<path class="st4" d="M-14922.5-1164.8v0.9h-7.1v-0.9H-14922.5z M-14928.9-1166.5c0-0.9,1-1.3,2.8-1.3c1.9,0,2.8,0.5,2.8,1.3
			c0,0.9-1,1.3-2.8,1.3C-14927.9-1165.2-14928.9-1165.6-14928.9-1166.5z M-14927.6-1161h4.5v0.8h-5.6v-2.1h4.3v-0.4h-4.3v-0.8h5.4v2
			h-4.3V-1161z M-14927.7-1166.5c0,0.4,0.5,0.5,1.7,0.5c1.2,0,1.7-0.2,1.7-0.5c0-0.3-0.5-0.5-1.7-0.5
			C-14927.2-1167-14927.7-1166.9-14927.7-1166.5z"/>
		<path class="st4" d="M-14912.7-1162.8h-3v2.7h-1.1v-2.7h-2.9v-0.9h7.1V-1162.8z M-14913.4-1164.3c-1.4-0.2-2.3-0.8-2.8-1.7
			c-0.5,0.8-1.5,1.5-2.9,1.7l-0.4-0.9c1.8-0.2,2.7-1.3,2.7-2.2v-0.4h1.2v0.4c0,0.9,0.9,1.9,2.7,2.2L-14913.4-1164.3z"/>
		<path class="st4" d="M-14910-1165.7c0-1.1,0.9-1.9,2.1-1.9c1.2,0,2.1,0.8,2.1,1.9s-0.9,1.9-2.1,1.9
			C-14909-1163.8-14910-1164.6-14910-1165.7z M-14904.4-1162.9c0,0.8,0.4,1.6,1.5,1.9l-0.6,0.8c-0.7-0.2-1.2-0.7-1.5-1.3
			c-0.3,0.6-0.7,1.1-1.4,1.4c-0.7-0.3-1.2-0.8-1.4-1.4c-0.3,0.6-0.7,1-1.5,1.3l-0.6-0.8c1-0.3,1.5-1.1,1.5-1.9v-0.3h1.1v0.3
			c0,0.6,0.2,1.3,0.9,1.7c0.6-0.5,0.9-1.1,0.9-1.7v-0.3h1.1V-1162.9z M-14908.9-1165.7c0,0.6,0.4,0.9,1,0.9s1-0.4,1-0.9
			s-0.4-0.9-1-0.9S-14908.9-1166.3-14908.9-1165.7z M-14903.6-1163.5h-1.1v-4.4h1.1V-1163.5z"/>
		<path class="st4" d="M-14895.7-1168v7.8h-1.1v-4.1h-1.3c-0.1,1.5-0.9,2.4-2,2.4c-1.2,0-2-1.1-2-2.8c0-1.7,0.9-2.8,2-2.8
			c1.1,0,1.8,0.9,2,2.3h1.3v-2.8H-14895.7z M-14899.1-1164.6c0-1.2-0.4-1.8-1-1.8c-0.6,0-1,0.6-1,1.8s0.4,1.8,1,1.8
			C-14899.5-1162.8-14899.1-1163.5-14899.1-1164.6z"/>
		<path class="st4" d="M-14887.3-1161.9v0.9h-7.1v-0.9h1.6v-1.9c-0.6-0.4-1-0.9-0.9-1.6c0-1.3,1.2-2.1,2.9-2.1
			c1.7,0,2.9,0.8,2.9,2.1c0,0.7-0.4,1.2-0.9,1.6v1.9H-14887.3z M-14892.7-1165.5c0,0.8,0.7,1.2,1.8,1.2s1.8-0.4,1.8-1.2
			c0-0.8-0.7-1.2-1.8-1.2S-14892.7-1166.2-14892.7-1165.5z M-14891.7-1161.9h1.7v-1.5c-0.3,0.1-0.6,0.1-0.9,0.1
			c-0.3,0-0.6,0-0.9-0.1V-1161.9z"/>
		<path class="st4" d="M-14885-1162.7h-0.8l-0.2-3.5l0-1.2h1.3l0,1.2L-14885-1162.7z M-14884.8-1160.7h-1.2v-1.2h1.2V-1160.7z"/>
	</g>
	<g class="st8">
		<path class="st9" d="M-14921-1212.1v1.1h-8.8v-1.1h6.2c0-0.3,0.1-0.5,0.1-0.8l-5.4,0.2l-0.1-1.1l5.6-0.1c0-0.2,0-0.4,0-0.6h-5.3
			v-1.1h6.7v0.9c0,0.8,0,1.6-0.2,2.5H-14921z M-14927.5-1207.3h5.8v1.1h-7.2v-2.6h5.5v-0.5h-5.5v-1h6.9v2.6h-5.5V-1207.3z"/>
		<path class="st9" d="M-14914-1210.6c-1.5,0.2-2.7,0.3-4.7,0.3h-0.9v-3.1h3.1v-0.8h-3.1v-1.1h4.5v3h-3.1v0.9c1.6,0,2.7-0.1,4-0.3
			L-14914-1210.6z M-14918.6-1209.4h6.7v3.3h-1.4v-2.2h-5.2V-1209.4z M-14912-1215.9v6h-1.4v-6H-14912z"/>
		<path class="st9" d="M-14906.8-1214.4h2.1v1.1h-5.7v-1.1h2.2v-1.3h1.4V-1214.4z M-14905.1-1210.4c0,1.4-1,2.3-2.5,2.3
			c-1.4,0-2.5-1-2.5-2.3c0-1.4,1.1-2.3,2.5-2.3C-14906.1-1212.8-14905.1-1211.8-14905.1-1210.4z M-14906.4-1210.4
			c0-0.7-0.5-1.2-1.1-1.2c-0.7,0-1.1,0.4-1.1,1.2c0,0.8,0.5,1.2,1.1,1.2C-14906.8-1209.2-14906.4-1209.7-14906.4-1210.4z
			 M-14901.3-1210.9h-1.4v4.8h-1.4v-9.8h1.4v3.8h1.4V-1210.9z"/>
		<path class="st9" d="M-14891.8-1208.4v1.1h-8.8v-1.1h3.1v-3.4h1.4v3.4H-14891.8z M-14894.4-1209.6c0.4-1.8,0.4-3.2,0.4-4.3h-5.7
			v-1.1h7.1v0.9c0,1.2,0,2.6-0.4,4.7L-14894.4-1209.6z"/>
	</g>
	<g class="st8">
		<path class="st9" d="M-14926.3-1202.7h2.1v1.1h-5.7v-1.1h2.2v-1.3h1.4V-1202.7z M-14924.6-1198.7c0,1.4-1,2.3-2.5,2.3
			c-1.4,0-2.5-1-2.5-2.3c0-1.4,1.1-2.3,2.5-2.3C-14925.6-1201-14924.6-1200-14924.6-1198.7z M-14925.9-1198.7c0-0.7-0.5-1.2-1.1-1.2
			s-1.1,0.4-1.1,1.2c0,0.8,0.5,1.2,1.1,1.2S-14925.9-1197.9-14925.9-1198.7z M-14920.8-1199.1h-1.4v4.8h-1.4v-9.8h1.4v3.8h1.4
			V-1199.1z"/>
		<path class="st9" d="M-14911.3-1196.6v1.1h-8.8v-1.1H-14911.3z M-14912.2-1198h-6.9v-5.4h6.8v1.1h-5.4v1h5.1v1.1h-5.1v1.1h5.4
			V-1198z"/>
		<path class="st9" d="M-14905.4-1198.9h-4.7v-4.6h1.4v1.2h1.9v-1.2h1.4V-1198.9z M-14907.6-1195.6h5.2v1.1h-6.6v-3.5h6.4v1.1h-5
			V-1195.6z M-14906.8-1201.2h-1.9v1.2h1.9V-1201.2z M-14901.4-1201.9v1.2h-1.3v2.3h-1.4v-5.7h1.4v2.2H-14901.4z"/>
		<path class="st9" d="M-14895.4-1203.1c0,3-1,5.4-4.5,7.1l-0.7-1.1c2.5-1.2,3.6-2.7,3.8-4.9h-3.3v-1.1H-14895.4z M-14892.5-1204.1
			v9.8h-1.4v-9.8H-14892.5z"/>
	</g>
</g>
</svg>
