<?xml version="1.0" encoding="utf-8"?>
<!-- Generator: Adobe Illustrator 25.2.3, SVG Export Plug-In . SVG Version: 6.00 Build 0)  -->
<svg version="1.1" id="Layer_1" xmlns="http://www.w3.org/2000/svg" xmlns:xlink="http://www.w3.org/1999/xlink" x="0px" y="0px"
	 viewBox="0 0 484 484" style="enable-background:new 0 0 484 484;" xml:space="preserve">
<style type="text/css">
	.st0{fill:#FFD9DD;}
	.st1{fill:#FFFFFF;}
	.st2{fill:#FFEDEF;}
	.st3{fill:#3774DF;}
	.st4{fill:#EC4041;}
	.st5{enable-background:new    ;}
	.st6{fill:#878080;}
	.st7{fill:#FF919E;}
	.st8{fill:#FF0000;}
</style>
<circle id="타원_710" class="st0" cx="242" cy="242" r="242"/>
<path id="패스_30108" class="st1" d="M27.3,154.9C4.1,211.8,4.5,275.7,28.6,332.3L242,242L27.3,154.9z"/>
<path id="패스_30109" class="st2" d="M28.6,332.3c23.9,56.7,69.3,101.5,126.3,124.5L242,242L28.6,332.3z"/>
<path id="패스_30110" class="st1" d="M329.2,27.3C272.2,4.1,208.4,4.5,151.8,28.6L242,242L329.2,27.3z"/>
<path id="패스_30111" class="st2" d="M151.8,28.6C95.1,52.4,50.3,97.9,27.3,154.9L242,242L151.8,28.6z"/>
<path id="패스_30112" class="st3" d="M154.9,456.8c56.9,23.2,120.8,22.7,177.4-1.3L242,242L154.9,456.8z"/>
<path id="패스_30113" class="st1" d="M456.8,329.2c23.2-56.9,22.7-120.8-1.3-177.4L242,242L456.8,329.2z"/>
<path id="패스_30114" class="st4" d="M329.2,27.3L242,242l213.5-90.2C431.6,95.1,386.2,50.3,329.2,27.3z"/>
<path id="패스_30115" class="st2" d="M332.3,455.5c56.7-23.9,101.5-69.3,124.5-126.3L242,242L332.3,455.5z"/>
<g class="st5">
	<path class="st6" d="M409.9,233.6l0-4.5l-3.7,0l0-1.7l3.7,0l0-4.5l1.4,0l0,10.7L409.9,233.6z M412.4,232.4l0-8.1l4.9,0l0,8l-1.3,0
		l0-6.3l-2.2,0l0,6.4L412.4,232.4z"/>
	<path class="st6" d="M407.7,244.9l-1.3,0l0-8.1l3.7,0l0,1.7l-2.4,0L407.7,244.9z M411,240.8l0-5.6l6.1,0l0,1.7l-1.8,0l0,2.2l1.8,0
		l0,1.7l-2.3,0l0,2.1l3.1,0l0,1.7l-8.7,0l0-1.7l4.2,0l0-2.1L411,240.8z M414.1,239.2l0-2.2l-1.7,0l0,2.2L414.1,239.2z"/>
	<path class="st6" d="M417.9,256.9l-11.8,0l0-1.6l5.9,0l0-0.7l-5.4,0l0-1.6l3.1,0l-1-0.8c0.5-0.6,1.2-1,2.1-1.2
		c-0.9-0.2-1.6-0.7-2.2-1.3c0.6-0.7,1.3-1.1,2.2-1.3c-0.8-0.2-1.6-0.6-2.1-1.2l1.1-0.9c1.1,1.3,3.1,1.4,4.8,1.4l0.6,0l0-1l1.3,0
		l0,2.9l-1.3,0l0-0.4l-0.6,0c-1.2,0-2.6,0-3.8,0.6c1.2,0.6,2.6,0.6,3.8,0.6l0.6,0l0-0.5l1.3,0l0,2.7l-1.3,0l0-0.8l-0.6,0
		c-1.6,0-3.5,0.1-4.7,1.3l7.8,0l0,1.6l-4.4,0l0,0.7l4.6,0L417.9,256.9z"/>
</g>
<g class="st5">
	<path d="M387.5,207.3c5.1,0,8.1,2.9,8,7c0,4.1-3,7-8.1,7c-5.1,0-8.2-2.9-8.2-7C379.3,210.1,382.4,207.3,387.5,207.3z M387.4,218.1
		c3.4,0,5.4-1.4,5.4-3.8c0-2.4-2-3.8-5.4-3.8c-3.3,0-5.5,1.5-5.5,3.8C382,216.6,384.1,218.1,387.4,218.1z"/>
	<path d="M387.6,226.5l7.6-4.1l0,3.5l-3.2,1.6c-0.7,0.4-1.5,0.7-2.5,1.2v0.1c1,0.4,1.7,0.7,2.5,1l3.2,1.5l0,3.3l-7.7-4.1l-7.9,4.4
		l0-3.5l3.5-1.8c0.8-0.4,1.6-0.7,2.6-1.2v-0.1c-1-0.4-1.8-0.7-2.6-1.1l-3.5-1.7l0-3.3L387.6,226.5z"/>
	<path d="M397.2,252.6l-19.5,0l0-2.8l19.5,0L397.2,252.6z M386,248.9c-0.3-1.8-0.4-3.6-0.5-5.3l-6.8,0l0-2.8l6.6,0
		c-0.1-1.6-0.1-3.1-0.1-4.5l2.2-0.4c0,2.5,0,5.2,0.2,8c0.8,0.2,1.6,0.3,2.3,0.4l-0.5-6.9l2.3-0.4l0.3,7.5c0.6,0.1,1.2,0,1.7,0.1l0-7
		l2.2,0l0,9.8l-1.2,0c-1.6,0-3.7,0-6.9-0.6c0.1,0.7,0.1,1.4,0.2,2L386,248.9z"/>
	<path d="M382.2,273.1l-2.3,0l0-17.7l2.3,0L382.2,273.1z M387.3,256.2c0.7,4.3,3.3,6.6,6,6.6l0-5.9l2.2,0l0,14.7l-2.2,0l0-5.9
		c-2.7,0-5.3,2.3-5.9,6.7l-2.2-1.1c0.6-3.6,2.3-5.9,4.5-7.1c-2.3-1.3-4-3.6-4.6-7.1L387.3,256.2z"/>
</g>
<g class="st5">
	<path class="st7" d="M131.1,376.4l7-9.5l1.3,1l-7,9.5L131.1,376.4z M134.5,378.7l-1.3-0.9l6.6-8.9l1.3,0.9l-3.7,5l1.9,1.4l-0.8,1.1
		l-1.9-1.4L134.5,378.7z M142.1,375.1c-0.9-0.6-1.7-1.1-2.7-1.6l0.7-1.3c1.3,0.6,2.4,1.3,3.6,2.2l0.7,0.5l-4.7,6.3l-1.3-1
		L142.1,375.1z"/>
	<path class="st7" d="M129,366.3l4.5,3.3l-3.6,4.9l-1.4-1l1.1-1.4l-1.8-1.3l-1.1,1.4l-1.3-1l1.4-1.9l-1.7-1.3l-1.9,2.5l-1.4-1l5.2-7
		l1.4,1l-2.5,3.4l1.7,1.3L129,366.3z M127.8,361.2l0.8-1.1l6.5,4.8l-2.2,3l-1.4-1l1.4-1.9L127.8,361.2z M128.6,369.7l1.8,1.3l1-1.3
		l-1.8-1.3L128.6,369.7z"/>
	<path class="st7" d="M112,362.3l7-9.5l1.3,0.9l-3.5,4.7l0.6,0.4l3.2-4.3l1.2,0.9L120,358l1.2-0.3c0.2,0.8,0.1,1.6-0.2,2.4
		c0.7-0.6,1.5-0.9,2.4-1c0.2,0.8,0.1,1.7-0.2,2.6c0.7-0.5,1.4-0.9,2.2-0.9l0.1,1.5c-1.7,0.1-3,1.7-4,3l-0.4,0.5l0.8,0.6l-0.8,1.1
		l-2.4-1.7l0.8-1.1l0.4,0.3l0.4-0.5c0.7-0.9,1.5-2.1,1.8-3.4c-1.2,0.6-2,1.7-2.7,2.7l-0.4,0.5l0.4,0.3l-0.8,1.1l-2.2-1.6l0.8-1.1
		l0.7,0.5l0.4-0.5c1-1.3,2-2.9,1.7-4.5l-4.6,6.2l-1.2-0.9l2.6-3.5l-0.6-0.4l-2.7,3.7L112,362.3z"/>
</g>
<g class="st5">
	<path d="M169.8,367.9c-3,4.1-7.1,4.8-10.4,2.3s-3.9-6.6-0.8-10.6c3-4.1,7.2-4.9,10.5-2.4S172.8,363.9,169.8,367.9z M161.1,361.5
		c-2,2.7-2.1,5.2-0.1,6.6c1.9,1.4,4.2,0.7,6.3-2.1c2-2.7,2.1-5.3,0.2-6.7C165.5,358,163.1,358.8,161.1,361.5z"/>
	<path d="M154.2,356.7l-1.2,8.5l-2.8-2.1l0.7-3.5c0.2-0.8,0.3-1.6,0.5-2.7l-0.1-0.1c-0.9,0.6-1.6,1-2.3,1.4l-3.1,1.7l-2.7-2l7.9-3.8
		l1.2-9l2.8,2.1l-0.6,3.8c-0.2,0.9-0.4,1.8-0.5,2.8l0.1,0.1c0.9-0.5,1.6-1,2.5-1.4l3.4-1.8l2.7,2L154.2,356.7z"/>
	<path d="M127.5,348.9l11.6-15.7l2.2,1.7l-11.6,15.7L127.5,348.9z M137.1,342.1c1.6,0.8,3.1,1.8,4.6,2.7l4-5.4l2.2,1.7l-3.9,5.3
		c1.3,0.9,2.5,1.8,3.7,2.6l-1,2c-2-1.5-4.2-3-6.5-4.6c-0.6,0.5-1.2,1.1-1.7,1.6l5.9,3.7l-1.1,2.1l-6.2-4.2c-0.4,0.5-0.7,0.9-1.1,1.3
		l5.7,4.2l-1.3,1.8l-7.9-5.8l0.7-1c1-1.3,2.2-3,4.6-5.2c-0.6-0.4-1.2-0.7-1.7-1L137.1,342.1z"/>
	<path d="M130.5,338.8c-3.9-2-7.3-1.3-8.9,0.9l4.7,3.5L125,345l-11.8-8.7l1.3-1.8l4.7,3.5c1.6-2.2,1.2-5.6-1.9-8.8l2.2-1.1
		c2.5,2.6,3.4,5.3,3,7.9c2.4-1.1,5.3-1.1,8.4,0.5L130.5,338.8z M119.8,324.7l1.3-1.8l14.2,10.5l-1.3,1.8L119.8,324.7z"/>
</g>
<g class="st5">
	<path class="st7" d="M368.3,363l-7.8-8.9l1.2-1.1l7.8,8.9L368.3,363z M371.2,360.2l-1.2,1l-7.3-8.3l1.2-1l3.9,4.4l1.1-1l0.9,1
		l-1.1,1L371.2,360.2z M371.1,356.6c-1.3-1.4-2.9-2.6-4.9-2.3l-0.2-1.6c1.2-0.2,2.3,0.1,3.4,0.8c-0.6-1.3-0.8-2.5-0.4-3.7l1.6,0.3
		c-0.6,1.9,0.3,3.9,1.7,5.4l1.3,1.5l-1.2,1.1L371.1,356.6z"/>
	<path class="st7" d="M352.7,363.1l-0.9-1l6-5.3l2.5,2.8l-1.3,1.1l-1.6-1.8L352.7,363.1z M357.9,363l4.2-3.7l4,4.6l-1.3,1.1
		l-1.2-1.3l-1.7,1.5l1.2,1.3l-1.2,1.1l-1.6-1.8l-1.6,1.4l2.1,2.3l-1.3,1.1l-5.8-6.5l1.3-1.1l2.8,3.2l1.6-1.4L357.9,363z
		 M361.2,364.2l1.7-1.5l-1.1-1.3l-1.7,1.5L361.2,364.2z"/>
	<path class="st7" d="M350.4,378.8l-7.8-8.9l1.2-1l3.9,4.4l0.6-0.5l-3.5-4l1.2-1l2,2.3l0-1.3c0.8,0,1.5,0.3,2.3,0.7
		c-0.4-0.8-0.6-1.7-0.5-2.5c0.9,0,1.7,0.3,2.5,0.8c-0.4-0.8-0.6-1.6-0.5-2.4l1.4,0.2c-0.2,1.7,1,3.3,2.1,4.5l0.4,0.5l0.8-0.7l0.9,1
		l-2.2,1.9l-0.9-1l0.3-0.3l-0.4-0.5c-0.8-0.9-1.7-2-2.9-2.5c0.3,1.3,1.3,2.3,2.1,3.2l0.4,0.5l0.3-0.3l0.9,1l-2.1,1.8l-0.9-1l0.6-0.6
		l-0.4-0.5c-1.1-1.2-2.4-2.6-4.1-2.7l5.1,5.8l-1.2,1l-2.9-3.3l-0.6,0.5l3,3.4L350.4,378.8z"/>
</g>
<g class="st5">
	<path d="M368,322.1c3.4,3.8,3.2,7.9,0.1,10.7c-3.1,2.7-7.2,2.4-10.6-1.4c-3.4-3.8-3.3-8-0.2-10.8
		C360.5,317.8,364.7,318.3,368,322.1z M359.9,329.2c2.3,2.6,4.6,3.1,6.4,1.5s1.6-4-0.7-6.6c-2.2-2.5-4.7-3.1-6.5-1.6
		C357.4,324.1,357.7,326.7,359.9,329.2z"/>
	<path d="M353.7,335l8.1,3l-2.6,2.3l-3.3-1.4c-0.8-0.3-1.5-0.7-2.5-1.1l-0.1,0.1c0.4,1,0.6,1.8,0.9,2.5l1,3.4l-2.5,2.2l-2-8.5
		l-8.5-3l2.6-2.3l3.6,1.4c0.8,0.4,1.6,0.7,2.6,1.1l0.1-0.1c-0.3-1-0.6-1.8-0.8-2.7l-1-3.7l2.5-2.2L353.7,335z"/>
	<path d="M340.5,359.4l-12.9-14.6l2.1-1.8l12.9,14.6L340.5,359.4z M335.9,348.5c1.2-1.4,2.4-2.7,3.7-3.9l-4.5-5.1l2.1-1.8l4.4,5
		c1.2-1.1,2.2-2.1,3.3-3l1.8,1.4c-1.8,1.7-3.8,3.4-5.9,5.4c0.4,0.7,0.8,1.4,1.2,2l4.8-5l1.8,1.5l-5.4,5.2c0.4,0.5,0.8,0.9,1.1,1.3
		l5.3-4.7l1.5,1.7l-7.3,6.5l-0.8-0.9c-1.1-1.2-2.5-2.8-4.1-5.6c-0.5,0.5-0.9,1-1.4,1.5L335.9,348.5z"/>
	<path d="M315.2,361.8l-1.5-1.7l13.2-11.7l1.5,1.7L315.2,361.8z M331.3,354.4c-2.8,3.3-2.8,6.9-1,8.9l4.4-3.9l1.5,1.7l-11,9.7
		l-1.5-1.7l4.4-3.9c-1.8-2-5.2-2.4-9,0l-0.7-2.4c3.1-1.9,5.9-2.2,8.3-1.3c-0.6-2.6,0.1-5.4,2.2-8.1L331.3,354.4z"/>
</g>
<g class="st5">
	<path class="st7" d="M335.6,101.2c1.3,1.1,2.4,1.9,3.7,2.7l-0.8,1.2c-1.6-0.9-2.8-1.9-4.4-3.2l-0.8-0.7l5.1-6l4.2,3.6l-0.9,1
		l-2.9-2.5L335.6,101.2z M343.6,105.5l-1.3-1.1l-3.9,4.6l-1.3-1.1l7.7-9l1.3,1.1l-2.8,3.3l1.3,1.1L343.6,105.5z"/>
	<path class="st7" d="M350.1,113.6l-2.6,3l-6.2-5.3l2.6-3L350.1,113.6z M344.3,110.4l-0.9,1l3.7,3.1l0.9-1L344.3,110.4z
		 M352.5,112.8l-0.9,1l-8.1-6.9l0.9-1L352.5,112.8z M353.6,109.8c-0.9,1.1-2.8,0.7-4.8-1c-2-1.7-2.7-3.4-1.8-4.5
		c0.9-1.1,2.8-0.7,4.7,1C353.8,107,354.5,108.8,353.6,109.8z M348.4,105.4c-0.4,0.5,0.1,1.4,1.3,2.4c1.3,1.1,2.2,1.4,2.6,0.9
		s0-1.3-1.3-2.4C349.8,105.3,348.9,104.9,348.4,105.4z"/>
	<path class="st7" d="M360.9,114.4c-2.3,2.7-5.2,4.2-9.7,3l0.2-1.6c3.2,0.9,5.4,0.3,7.3-1.5l-3-2.6l0.9-1L360.9,114.4z M364.4,115.7
		l-7.7,9l-1.3-1.1l7.7-9L364.4,115.7z"/>
	<path class="st7" d="M364,126.4c0.8,0.6,1.5,1.2,2.3,1.7l-0.7,1c-2.3-1.3-4.4-3.1-6-4.4l0.7-1.2c0.7,0.6,1.4,1.2,2.3,1.9l0.6-0.8
		c-0.8-1-0.9-2.1-0.2-3c0.9-1,2.4-0.9,3.7,0.2c1.3,1.1,1.6,2.6,0.8,3.6c-0.7,0.8-1.8,0.9-3,0.3L364,126.4z M364.8,124.2
		c0.6,0.5,1.2,0.6,1.6,0.1c0.4-0.5,0.2-1-0.4-1.6c-0.6-0.5-1.2-0.6-1.6-0.1C364,123.1,364.2,123.7,364.8,124.2z M369.8,123.8
		l-5.4-4.6l0.9-1l2.1,1.8l0.8-1l1.3,1.1l-0.8,1l2.1,1.7L369.8,123.8z M373.4,123.4l-7.7,9l-1.3-1.1l7.7-9L373.4,123.4z"/>
	<path class="st7" d="M379.4,128.8l1.2,1l-7.2,8.5l-1.2-1l3.6-4.2l-0.7-0.6c-1.6,1.7-3.2,2.1-4.3,1.2c-1.2-1-0.9-2.9,0.8-4.9
		c1.7-2,3.5-2.6,4.7-1.6c1.1,0.9,1,2.4-0.3,4.3l0.7,0.6L379.4,128.8z M374.4,130.9c1.2-1.4,1.5-2.3,1-2.7c-0.5-0.4-1.4,0-2.5,1.4
		c-1.2,1.4-1.5,2.3-1,2.7C372.3,132.7,373.2,132.3,374.4,130.9z M382.6,131.2l-7.7,9l-1.2-1l7.7-9L382.6,131.2z"/>
</g>
<g class="st5">
	<path class="st1" d="M339.6,142.6c-1.5,1.7-4.3,1.1-7.5-1.6c-3.2-2.7-4.3-5.4-2.8-7.1c1.5-1.7,4.3-1.1,7.5,1.6
		C340,138.2,341.1,140.9,339.6,142.6z M340.2,136.1c-3.6-2-7-4.9-9.6-7l1.2-1.9c1.1,0.9,2.4,2,3.8,3.1l2.2-2.6l1.9,1.6l-2.1,2.5
		c1.2,0.9,2.5,1.8,3.7,2.6L340.2,136.1z M337.5,140.8c0.6-0.8,0-2-2-3.7c-2-1.7-3.3-2.2-4-1.4c-0.6,0.8,0,2,2,3.7
		C335.5,141.1,336.8,141.6,337.5,140.8z M334.2,127.1c1.6-1,2.5-1.9,3.3-2.7l-1.4-1.2l1.5-1.7l3.4,2.9l-0.8,1
		c-0.9,1.1-2.1,2.4-4.1,3.7L334.2,127.1z M339.1,131.2c1.4-1,2.3-1.9,3-2.8l-2-1.7l1.5-1.7l4,3.4l-0.8,1c-0.9,1-2,2.4-3.9,3.7
		L339.1,131.2z M348.3,135.6l-1.5,1.8l-1.6-1.4l-3.1,3.7l-2.1-1.8l7.8-9.1l2.1,1.8l-3.2,3.7L348.3,135.6z"/>
	<path class="st1" d="M344.5,149.6l-2.4-2l1.9-2.3l2.4,2L344.5,149.6z M347.2,145.6l-1.5-1.3l5.3-6.9l1.8-2.3l2.4,2l-2,2.2
		L347.2,145.6z"/>
</g>
<g class="st5">
	<path class="st7" d="M113.5,133.2c-1.2,0.7-2.3,0.8-3.4,0.6c0.4,1.1,0.4,2.4-0.3,3.6l-1.5-0.3c0.9-1.7,0.5-3.3-0.5-4.2l0,0
		l-1.6,1.7l-1-0.9l1.6-1.7l-0.9-0.9l1.2-1.2l0.9,0.9l1.6-1.7l1,0.9l-1.6,1.7l0,0c0.9,0.9,2.3,1.1,4,0.1L113.5,133.2z M112.1,129.3
		l-2.3-2.2l1.2-1.2l5.8,5.5l-1.2,1.2l-2.6-2.4l-1.2,1.3l-1-0.9L112.1,129.3z M114.4,133.3c0.9,0.8,2.7,0.9,4.7-0.7l0.5,1.4
		c-1.6,1.2-3.1,1.6-4.4,1.3c0.3,1.3,0,2.9-1.1,4.4l-1.4-0.5c1.5-2,1.3-3.9,0.5-4.7l-0.1-0.1l1.2-1.3L114.4,133.3z"/>
	<path class="st7" d="M121.5,124.9l-3.9,4l-4.4-4.2l1.2-1.2l1.3,1.2l1.6-1.6l-1.3-1.2l1.1-1.2l1.7,1.6l1.5-1.5l-2.3-2.2l1.2-1.2
		l6.3,6l-1.2,1.2l-3.1-2.9l-1.5,1.5L121.5,124.9z M118.2,124l-1.6,1.6l1.2,1.2l1.6-1.6L118.2,124z M126.8,124.3l1,0.9l-5.6,5.8
		l-2.7-2.6l1.2-1.2l1.7,1.6L126.8,124.3z"/>
	<path class="st7" d="M127.7,108.5l8.5,8.2l-1.1,1.1l-4.3-4.1l-0.5,0.5l3.9,3.7l-1.1,1.1l-2.2-2.1l0.2,1.2c-0.8,0.1-1.6-0.1-2.3-0.5
		c0.5,0.8,0.7,1.6,0.7,2.5c-0.9,0.1-1.7-0.1-2.5-0.6c0.4,0.8,0.7,1.5,0.7,2.3l-1.5-0.1c0.1-1.7-1.3-3.2-2.5-4.3l-0.4-0.4l-0.7,0.8
		l-1-0.9l2-2.1l1,0.9l-0.3,0.3l0.4,0.4c0.8,0.8,1.9,1.8,3.1,2.2c-0.4-1.2-1.5-2.2-2.3-3.1l-0.4-0.4l-0.3,0.3l-1-0.9l1.9-2l1,0.9
		L126,114l0.4,0.4c1.2,1.1,2.6,2.4,4.3,2.3l-5.6-5.4l1.1-1.1l3.2,3l0.5-0.5l-3.3-3.2L127.7,108.5z"/>
</g>
<g class="st5">
	<path d="M116.4,164.4c-3.7-3.5-3.9-7.6-1-10.6c2.9-3,7-3,10.7,0.5c3.7,3.5,4,7.7,1.1,10.7C124.3,168,120.1,167.9,116.4,164.4z
		 M123.9,156.6c-2.5-2.4-4.9-2.7-6.5-1c-1.7,1.7-1.2,4.1,1.3,6.5c2.4,2.3,5,2.7,6.6,1C126.8,161.4,126.3,158.9,123.9,156.6z"/>
	<path d="M129.5,150.3l-8.3-2.2l2.4-2.5l3.4,1.1c0.8,0.3,1.5,0.5,2.6,0.9l0.1-0.1c-0.4-1-0.8-1.7-1.1-2.5l-1.3-3.3l2.3-2.4l2.7,8.3
		l8.8,2.3l-2.4,2.5l-3.7-1.1c-0.9-0.3-1.7-0.6-2.7-0.9l-0.1,0.1c0.4,0.9,0.8,1.7,1.1,2.6l1.4,3.6l-2.3,2.4L129.5,150.3z"/>
	<path d="M146.2,135.3c-1,1.5-2.1,2.9-3.3,4.2l4.9,4.7l-1.9,2l-4.8-4.6c-1.1,1.2-2.1,2.3-3.1,3.3l-1.9-1.3c1.7-1.8,3.5-3.8,5.4-5.9
		c-0.4-0.7-0.9-1.3-1.4-1.9l-4.4,5.4l-1.9-1.3l5-5.6c-0.4-0.5-0.8-0.8-1.2-1.2l-4.9,5.1l-1.6-1.5l6.8-7.1l0.9,0.8
		c1.2,1.1,2.7,2.6,4.6,5.2c0.4-0.5,0.8-1.1,1.3-1.6L146.2,135.3z M140.6,124.8l14.1,13.5l-1.9,2l-14.1-13.5L140.6,124.8z"/>
	<path d="M150.2,129.1c2.5-3.6,2.2-7.1,0.2-8.9l-4,4.2l-1.6-1.5l10.1-10.6l1.6,1.5l-4,4.2c1.9,1.9,5.4,1.9,8.9-0.8l0.9,2.3
		c-2.9,2.2-5.7,2.7-8.2,2c0.8,2.5,0.4,5.4-1.5,8.3L150.2,129.1z M165.6,120.3l1.6,1.6L155,134.6l-1.6-1.6L165.6,120.3z"/>
</g>
<g class="st5">
	<path class="st6" d="M237.7,124.7c-2.5,0.4-5.2,0.5-7.3,0.5l-0.2-1.3c0.9,0,1.9,0,3,0l0-0.6c-1.3-0.2-2.1-0.8-2.1-1.7
		c0-1.1,1.2-1.8,2.9-1.8c1.7,0,2.9,0.7,2.9,1.7c0,0.9-0.8,1.5-2.1,1.7l0,0.6c0.9-0.1,1.8-0.1,2.7-0.2L237.7,124.7z M237.5,119.5
		l-6.9,0l0-1.2l2.6,0l0-1l1.7,0l0,1l2.6,0L237.5,119.5z M231.9,125.9l8.2-0.1l0,3.4l-1.7,0l0-2.1l-6.5,0L231.9,125.9z M234,122.2
		c0.8,0,1.3-0.3,1.3-0.7c0-0.4-0.5-0.7-1.3-0.6s-1.3,0.2-1.3,0.7C232.7,122,233.2,122.2,234,122.2z M240,117.4l0.1,8l-1.7,0l-0.1-8
		L240,117.4z"/>
	<path class="st6" d="M252.7,122.9l0,1.4l-10.7,0.1l0-1.4L252.7,122.9z M243.2,125.3l8.3-0.1l0,3.9l-1.7,0l0-2.6l-6.6,0L243.2,125.3
		z M251.5,122l-8.2,0.1l0-4.3l8.1-0.1l0,1.4l-6.4,0l0,1.6l6.5,0L251.5,122z"/>
</g>
<g class="st5">
	<path class="st8" d="M211.4,90.1l4.2,0l0,2.2l-11.3,0.1l0-2.2l4.3,0l0-2.5l2.8,0L211.4,90.1z M214.9,98c0,2.8-2.1,4.7-4.9,4.7
		c-2.8,0-5-1.9-5-4.6c0-2.7,2.1-4.6,4.9-4.7C212.8,93.4,214.9,95.3,214.9,98z M212.3,98c0-1.5-0.9-2.4-2.3-2.4
		c-1.4,0-2.3,0.9-2.3,2.4c0,1.5,0.9,2.4,2.3,2.4C211.4,100.4,212.3,99.5,212.3,98z M222.5,97l-2.8,0l0.1,9.6l-2.8,0l-0.1-19.5l2.8,0
		l0.1,7.6l2.8,0L222.5,97z"/>
	<path class="st8" d="M241.6,102l0,2.3l-17.6,0.1l0-2.3L241.6,102z M239.7,99.3L226,99.3l-0.1-10.8l13.5-0.1l0,2.2l-10.7,0.1l0,2.1
		l10.3-0.1l0,2.2l-10.3,0.1l0,2.2l10.9-0.1L239.7,99.3z"/>
	<path class="st8" d="M258.4,91.3l-5.9,0l-0.5,3.1c0.7-0.1,1.2-0.2,1.8-0.2c3.4,0,5.2,2.1,5.2,4.9c0,3.4-2.5,5.7-5.9,5.8
		c-1.9,0-3.7-0.9-4.8-1.9l1.5-2.2c1,0.8,2.1,1.5,3.5,1.5c1.9,0,3-1.2,3-3.1c0-1.7-1-2.7-3-2.6c-0.8,0.1-1.5,0.2-2.3,0.5l-1.8-0.5
		c0.6-4.1,1-6.6,1.3-7.9l8-0.1L258.4,91.3z"/>
	<path class="st8" d="M269.1,89.2c0,5.5-1.5,9.9-7,13.1l-1.6-1.9c3.9-2.3,5.6-5.2,5.9-9l-4.9,0l0-2.2L269.1,89.2z M277.4,86.7
		l0.1,19.5l-2.7,0l-0.1-9.9l-1.7,0l0.1,9.1l-2.6,0l-0.1-18.2l2.6,0l0,6.8l1.7,0l-0.1-7.3L277.4,86.7z"/>
</g>
<path id="패스_30116" class="st2" d="M308.1,214.6c-15.2-36.5-57-53.8-93.6-38.7c-36.5,15.2-53.8,57-38.7,93.6
	c15.2,36.5,57,53.8,93.6,38.7c26.7-11.1,44.1-37.2,44.1-66.1C313.6,232.6,311.7,223.3,308.1,214.6z"/>
<g class="st5">
	<path class="st1" d="M258.7,406.8l0-2.3l2.6,0l0-6.3l2.8,0l0.1,14.6l-2.8,0l0-5.9L258.7,406.8z M271,395.7l-10.5,0.1l0-2.2
		l13.3-0.1l0,5.7l-2.8,0L271,395.7z M265.2,408.4l11.5-0.1l0,2.2l-4.3,0l0,2.1l-2.8,0l0-2.1l-4.4,0L265.2,408.4z M270.9,400.2
		c2.8,0,4.8,1.5,4.8,3.7c0,2.2-1.9,3.8-4.8,3.8c-2.8,0-4.8-1.5-4.8-3.7C266.1,401.8,268.1,400.2,270.9,400.2z M270.9,402.3
		c-1.3,0-2.1,0.6-2.1,1.7c0,1.1,0.9,1.6,2.1,1.6c1.3,0,2.1-0.6,2.1-1.6C273,402.9,272.1,402.3,270.9,402.3z"/>
	<path class="st1" d="M240.4,395.9l0-2.2l13.3-0.1l0,6.2l-2.8,0l0-3.9L240.4,395.9z M247.1,401.4l9.2-0.1l0.1,10.1l-2.8,0l0-3
		l-3.7,0l0,2.9l-2.7,0l0-3.9l-3.5,0l0,5.2l-2.8,0l-0.1-14.4l2.8,0l0,7l3.5,0L247.1,401.4z M249.9,406.4l3.7,0l0-2.8l-3.7,0
		L249.9,406.4z"/>
	<path class="st1" d="M216.6,413l-0.1-19.6l2.8,0l0.1,10.6l4.8,0l0,2.2l-4.8,0l0,6.7L216.6,413z M229.1,400.4c-2.8,0-4.8,0.2-7,0.6
		l-0.3-2.3c2.6-0.5,4.9-0.6,8.5-0.6l1.6,0l0.1,13.1l-8.8,0.1l0-2.2l6,0L229.1,400.4z"/>
	<path class="st1" d="M208.8,395.1l3.1,0l0,3l-3.1,0L208.8,395.1z M209.3,399.9l2,0l0.5,8.7l0.1,2.9l-3.1,0l0.1-2.9L209.3,399.9z"/>
</g>
<path id="패스_8515" class="st8" d="M228.8,53.3c4.8-3.1,10-1.3,12.6,3c2.6-4.2,7.8-6.1,12.6-3c7.3,4.7,4.9,20-12.6,27.4
	C223.9,73.3,221.5,58,228.8,53.3z"/>
<g class="st5">
	<path class="st6" d="M120.7,245.5l0.1,6.9l-1.2,0l0-2.6l-1,0l0-1.7l1,0l0-2.6L120.7,245.5z M118.6,243l8-0.1l0,1.7l-8,0.1
		L118.6,243z M125.9,245.2c0.4,2.5,0.5,5.2,0.6,7.3l-1.3,0.2c0-0.9,0-1.9-0.1-3l-0.6,0c-0.2,1.3-0.8,2.1-1.7,2.1
		c-1.1,0-1.8-1.2-1.8-2.9c0-1.7,0.6-2.9,1.7-2.9c0.9,0,1.5,0.8,1.7,2l0.6,0c-0.1-0.9-0.2-1.8-0.3-2.7L125.9,245.2z M123.5,248.9
		c0-0.8-0.3-1.3-0.7-1.3c-0.4,0-0.6,0.5-0.6,1.3c0,0.8,0.2,1.3,0.7,1.3C123.2,250.2,123.5,249.7,123.5,248.9z M127.2,251l-0.1-8.2
		l3.4,0l0,1.7l-2.1,0l0.1,6.5L127.2,251z"/>
	<path class="st6" d="M123.1,231.5l0.1,8.2l-4.3,0.1l-0.1-8.1l1.4,0l0.1,6.4l1.6,0l-0.1-6.5L123.1,231.5z M124,230.3l1.4,0l0.1,10.7
		l-1.4,0L124,230.3z M126.5,239.8l-0.1-8.3l3.9-0.1l0,1.7l-2.6,0l0.1,6.6L126.5,239.8z"/>
</g>
<g class="st5">
	<path class="st8" d="M98.3,260.6l0,2.8l9.6-0.1l0,2.8l-19.5,0.3l0-2.8l7.6-0.1l0-2.8L98.3,260.6z M91.4,271.8l-0.1-4.2l2.2,0
		l0.2,11.3l-2.2,0l-0.1-4.3l-2.5,0l0-2.8L91.4,271.8z M99.4,268.2c2.8,0,4.7,2,4.7,4.8c0,2.8-1.8,5-4.6,5c-2.7,0-4.7-2.1-4.7-4.9
		C94.7,270.3,96.6,268.2,99.4,268.2z M99.4,270.8c-1.5,0-2.4,0.9-2.3,2.3c0,1.4,0.9,2.3,2.4,2.3c1.5,0,2.4-1,2.3-2.3
		C101.8,271.7,100.9,270.8,99.4,270.8z"/>
	<path class="st8" d="M100.4,243.4l0.2,13.7l-10.8,0.2l-0.2-13.5l2.2,0l0.1,10.7l2.1,0l-0.1-10.3l2.2,0l0.1,10.3l2.2,0l-0.2-10.9
		L100.4,243.4z M103.1,241.5l2.3,0l0.2,17.6l-2.3,0L103.1,241.5z"/>
	<path class="st8" d="M89.8,227.3l13.5-0.2l0-2.7l2.3,0l0.1,8.7l-2.3,0l0-3.1l-8.6,0.1l-1.4-0.1l2.4,2.5l-1.9,1.7l-4-4.5L89.8,227.3
		z"/>
	<path class="st8" d="M87.7,205.8l19.5-0.3l0,2.7l-9.9,0.1l0,1.7l9.1-0.1l0,2.6l-18.2,0.3l0-2.6l6.8-0.1l0-1.7l-7.3,0.1L87.7,205.8z
		 M90.2,214c5.5-0.1,9.9,1.5,13.2,6.9l-1.9,1.7c-2.3-3.9-5.2-5.5-9-5.8l0.1,4.9l-2.2,0L90.2,214z"/>
</g>
<path id="패스_8515_1_" class="st8" d="M54.5,254.6c-3.1-4.8-1.3-9.9,2.9-12.6c-4.3-2.6-6.1-7.7-3.1-12.6
	c4.7-7.3,20-5.1,27.5,12.4C74.6,259.4,59.3,261.8,54.5,254.6z"/>
</svg>
