<svg xmlns="http://www.w3.org/2000/svg" width="771.044" height="771.044" viewBox="0 0 771.044 771.044">
    <g data-name="그룹 20648">
        <g data-name="그룹 20648" transform="translate(-154.479 -586.641)">
            <circle data-name="타원 685" cx="385.522" cy="385.522" r="385.522" transform="translate(154.479 586.641)" style="fill:#ffd9dd"/>
            <path data-name="패스 29608" d="M197.917 833.359a368.021 368.021 0 0 0 2.044 282.546L540 972.165z" style="fill:#fff"/>
            <path data-name="패스 29609" d="M199.961 1115.9A368.025 368.025 0 0 0 401.2 1314.247L540 972.164z" style="fill:#1b4284"/>
            <path data-name="패스 29610" d="M678.8 630.079a368.007 368.007 0 0 0-282.544 2.044L540 972.164z" style="fill:#fff"/>
            <path data-name="패스 29611" d="M396.262 632.123a368.01 368.01 0 0 0-198.345 201.235L540 972.164z" style="fill:#009ead"/>
            <path data-name="패스 29612" d="M401.2 1314.247a368.023 368.023 0 0 0 282.545-2.045L540 972.164z" style="fill:#fff"/>
            <path data-name="패스 29613" d="M882.084 1110.966a368.011 368.011 0 0 0-2.043-282.542L540 972.164z" style="fill:#ee7d00"/>
            <path data-name="패스 29614" d="m678.806 630.08-138.8 342.084 340.035-143.738A368.015 368.015 0 0 0 678.806 630.08z" style="fill:#3774df"/>
            <path data-name="패스 29615" d="M683.743 1312.2a368.008 368.008 0 0 0 198.342-201.235L540 972.167z" style="fill:#ffedef"/>
            <path data-name="패스 29675" d="M645.267 928.407a114.024 114.024 0 1 0 8.709 43.758 114.024 114.024 0 0 0-8.709-43.758z" style="fill:#ffedef"/>
            <path data-name="패스 29676" d="M625.761 936.514a92.9 92.9 0 1 0 7.1 35.65 92.9 92.9 0 0 0-7.1-35.65z" style="fill:#2b2929"/>
        </g>
        <g data-name="그룹 20655">
            <g data-name="그룹 20651">
                <g data-name="그룹 20649">
                    <path data-name="패스 30936" d="M512.584 771.115c-4.324 0-7.585-3.063-7.585-8.347 0-5.3 3.261-8.348 7.585-8.348s7.594 3.047 7.594 8.348-3.285 8.347-7.594 8.347zm0-2.992c2.516 0 4.174-1.888 4.174-5.355s-1.658-5.356-4.174-5.356-4.166 1.888-4.166 5.356 1.659 5.355 4.166 5.355z" style="fill:#cd8da9" transform="translate(-154.479 -586.641)"/>
                    <path data-name="패스 30937" d="M528.327 760.229h.127l3.332-5.586h3.814l-4.967 8.125 5.078 8.125h-3.888l-3.372-5.586h-.127l-3.365 5.586h-3.869l5.094-8.125-5.006-8.125h3.848z" style="fill:#cd8da9" transform="translate(-154.479 -586.641)"/>
                    <path data-name="패스 30938" d="M548.8 755.119a36.192 36.192 0 0 1-.626 7.212 92.719 92.719 0 0 0 2.158-.19l.206 2.119a73.515 73.515 0 0 1-5.705.547v7.038h-2.88v-6.911c-1.69.047-3.317.063-4.84.063l-.349-2.309c2.6-.024 5.57-.047 8.537-.182.191-.9.325-1.714.421-2.476l-7.364.643-.388-2.38 7.958-.334c.04-.658.055-1.262.064-1.8h-7.53v-2.3H548.8zm2.7-2.6h2.9v20.44h-2.9z" style="fill:#cd8da9" transform="translate(-154.479 -586.641)"/>
                    <path data-name="패스 30939" d="M575.467 770.488h-18.678v-2.325h18.678zm-10.886-13.925v-.008h-6.237v-2.278h15.489v2.278H567.6v.008c-.008 2.864 2.571 5.554 7.189 6.245l-1.135 2.268c-3.57-.627-6.229-2.38-7.538-4.8a10.067 10.067 0 0 1-7.442 4.919l-1.127-2.3c4.463-.683 7.034-3.468 7.034-6.332z" style="fill:#cd8da9" transform="translate(-154.479 -586.641)"/>
                </g>
                <g data-name="그룹 20650">
                    <path data-name="패스 30940" d="M509.476 728.824H505.5v-2.8h-6.386v-3.2h6.386v-2.7h-6.121c-1.767 4.5-5.811 7.589-12.064 9.29l-1.557-3.137c6.54-1.713 9.743-4.85 10.318-8.75h-8.794v-3.2h13.125a18.8 18.8 0 0 1-.188 2.651h5.281v-4.548h3.977zm-9.479.331c5.767.011 9.666 2.221 9.689 5.756-.023 3.557-3.922 5.8-9.689 5.8-5.833 0-9.733-2.243-9.722-5.8-.011-3.535 3.889-5.745 9.725-5.756zm0 8.4c3.535 0 5.678-.9 5.689-2.64-.011-1.757-2.154-2.663-5.689-2.651-3.6-.012-5.745.894-5.734 2.651-.011 1.741 2.137 2.636 5.737 2.636z" style="fill:#2b2929" transform="translate(-154.479 -586.641)"/>
                    <path data-name="패스 30941" d="M518.33 720.008v-1.514h-4.662V715.3h12.815v3.192h-4.308v1.514c-.011 4.739 1.469 9.512 5.623 11.887l-2.331 2.927a12.024 12.024 0 0 1-5.17-7.092c-.995 3.326-2.707 6.131-5.3 7.745l-2.409-2.939c4.184-2.584 5.742-7.687 5.742-12.526zm6.131 2.143h3.746v-9.291h3.733v26.658h-3.733v-14.164h-3.746zm13.29 18.693h-3.767v-28.458h3.767z" style="fill:#2b2929" transform="translate(-154.479 -586.641)"/>
                    <path data-name="패스 30942" d="m557.709 725.013-2.11 3.1a10.518 10.518 0 0 1-6.352-5.425 10.924 10.924 0 0 1-6.684 6.22l-2.143-3.126a9.482 9.482 0 0 0 6.794-9.3v-2.572h3.986v2.96c0 3.447 2.012 6.762 6.509 8.143zm-3.635 4.839c5.9-.012 9.6 2.032 9.6 5.467 0 3.5-3.7 5.525-9.6 5.513-5.988.012-9.743-2.011-9.732-5.513-.011-3.435 3.744-5.479 9.732-5.467zm0 7.865c3.7-.011 5.668-.774 5.668-2.4 0-1.535-1.967-2.364-5.668-2.364-3.722 0-5.755.829-5.744 2.364-.011 1.626 2.022 2.389 5.744 2.4zm5.336-25.331h4v6.661h3.823v3.3h-3.823v6.916h-4z" style="fill:#2b2929" transform="translate(-154.479 -586.641)"/>
                    <path data-name="패스 30943" d="m586.084 724.824-1.966 3.138a10.935 10.935 0 0 1-6.761-5.667 11.269 11.269 0 0 1-6.949 6.12l-2-3.126c4.761-1.536 6.849-5.226 6.86-8.86V713.7h4.132v2.729c-.022 3.546 2.012 6.993 6.684 8.395zm-13.312 5.768h19.543v10.252h-4v-7.06h-15.543zm15.544-18.206h4v16.979h-4z" style="fill:#2b2929" transform="translate(-154.479 -586.641)"/>
                </g>
            </g>
            <g data-name="그룹 20654">
                <g data-name="그룹 20652">
                    <path data-name="패스 30944" d="M567.416 1173.131c4.324 0 7.585 3.063 7.585 8.348 0 5.3-3.261 8.347-7.585 8.347s-7.594-3.047-7.594-8.347 3.285-8.348 7.594-8.348zm0 2.992c-2.516 0-4.174 1.888-4.174 5.356s1.658 5.355 4.174 5.355 4.166-1.888 4.166-5.355-1.659-5.356-4.166-5.356z" style="fill:#cd8da9" transform="translate(-154.479 -586.641)"/>
                    <path data-name="패스 30945" d="M551.673 1184.018h-.127l-3.332 5.586H544.4l4.967-8.125-5.078-8.125h3.888l3.372 5.585h.127l3.365-5.585h3.872l-5.094 8.125 5.006 8.125h-3.848z" style="fill:#cd8da9" transform="translate(-154.479 -586.641)"/>
                    <path data-name="패스 30946" d="M528.5 1191.722h-2.9v-20.44h2.9zm2.7-2.6a36.2 36.2 0 0 1 .626-7.212c-.729.056-1.451.119-2.158.19l-.206-2.119a73.515 73.515 0 0 1 5.705-.547v-7.034h2.88v6.912c1.69-.048 3.317-.064 4.84-.064l.349 2.309c-2.6.024-5.57.047-8.537.182-.191.9-.325 1.714-.421 2.476l7.364-.643.388 2.38-7.958.334c-.04.658-.055 1.262-.064 1.8h7.53v2.3H531.2z" style="fill:#cd8da9" transform="translate(-154.479 -586.641)"/>
                    <path data-name="패스 30947" d="M504.533 1173.758h18.678v2.325h-18.678zm10.886 13.926v.007h6.237v2.278h-15.489v-2.278h6.233v-.007c.008-2.865-2.571-5.555-7.189-6.246l1.135-2.268c3.57.627 6.229 2.38 7.538 4.8a10.067 10.067 0 0 1 7.442-4.919l1.127 2.3c-4.463.683-7.034 3.468-7.034 6.333z" style="fill:#cd8da9" transform="translate(-154.479 -586.641)"/>
                </g>
                <g data-name="그룹 20653">
                    <path data-name="패스 30948" d="M580 1215.088c-5.767-.011-9.667-2.221-9.689-5.756.022-3.557 3.922-5.8 9.689-5.8 5.833 0 9.732 2.243 9.722 5.8.014 3.535-3.885 5.745-9.722 5.756zm-9.479.331h3.979v2.8h6.386v3.2H574.5v2.7h6.12c1.768-4.5 5.811-7.589 12.064-9.29l1.558 3.137c-6.54 1.713-9.744 4.851-10.319 8.75h8.794v3.2h-13.122a18.65 18.65 0 0 1 .188-2.651H574.5v4.551h-3.977zm9.479-8.727c-3.535 0-5.679.9-5.69 2.64.011 1.757 2.155 2.663 5.69 2.651 3.6.012 5.744-.894 5.733-2.651.015-1.745-2.133-2.64-5.733-2.64z" style="fill:#2b2929" transform="translate(-154.479 -586.641)"/>
                    <path data-name="패스 30949" d="M542.249 1203.4h3.767v28.458h-3.767zm13.29 18.693h-3.745v9.291h-3.734v-26.657h3.734v14.163h3.745zm6.131 2.143v1.514h4.662v3.192h-12.815v-3.192h4.309v-1.514c.011-4.739-1.47-9.511-5.623-11.886l2.331-2.928a12.028 12.028 0 0 1 5.17 7.092c.994-3.325 2.706-6.131 5.3-7.744l2.409 2.938c-4.185 2.585-5.743 7.692-5.743 12.527z" style="fill:#2b2929" transform="translate(-154.479 -586.641)"/>
                    <path data-name="패스 30950" d="M520.59 1231.857h-4v-6.657h-3.822v-3.3h3.822v-6.916h4zm5.336-17.465c-5.9.011-9.6-2.033-9.6-5.468 0-3.5 3.7-5.525 9.6-5.513 5.988-.012 9.744 2.011 9.733 5.513.011 3.435-3.745 5.476-9.733 5.468zm0-7.866c-3.7.011-5.667.774-5.667 2.4 0 1.535 1.966 2.364 5.667 2.364 3.723 0 5.756-.829 5.745-2.364.011-1.626-2.022-2.389-5.745-2.4zm-3.634 12.7 2.109-3.1a10.52 10.52 0 0 1 6.353 5.425 10.924 10.924 0 0 1 6.684-6.22l2.143 3.126a9.48 9.48 0 0 0-6.794 9.3v2.573H528.8v-2.96c0-3.444-2.012-6.759-6.508-8.14z" style="fill:#2b2929" transform="translate(-154.479 -586.641)"/>
                    <path data-name="패스 30951" d="M507.228 1213.651h-19.542V1203.4h4v7.06h15.543zm-15.543 18.206h-4v-16.979h4zm2.231-12.438 1.966-3.138a10.94 10.94 0 0 1 6.762 5.667 11.268 11.268 0 0 1 6.948-6.12l2 3.126c-4.761 1.536-6.849 5.226-6.861 8.86v2.729H500.6v-2.729c.022-3.545-2.011-6.993-6.684-8.395z" style="fill:#2b2929" transform="translate(-154.479 -586.641)"/>
                </g>
            </g>
        </g>
        <g data-name="그룹 20659">
            <g data-name="그룹 20656">
                <path data-name="패스 30952" d="m325.791 778.2-4.855 4.984-1.61-1.567 6.9-7.076c4.427 4.326 6.6 9.477 3.968 17.108l-2.67-.52c1.876-5.516 1.197-9.429-1.733-12.929zm17.8 4.725L341.568 785l-14.638-14.264 2.021-2.074z" style="fill:#fff" transform="translate(-154.479 -586.641)"/>
                <path data-name="패스 30953" d="M340.832 760.438a33.922 33.922 0 0 1 3.963 4.516l-2.153 1.834a27.352 27.352 0 0 0-3.015-3.6l-5.383 5.522-1.67-1.628 7.342-7.535zm-.2 10.882-2.871-2.8 1.988-2.04 2.8 2.73c1.361-1.521 2.7-3.126 3.846-4.7l1.576 1.337a73.441 73.441 0 0 1-8.157 9.611l-1.8-1.413c.795-.81 1.686-1.736 2.617-2.725zm-.343-14.292 2.044-2.1 4.466 4.353 1.733-1.779 1.709 1.666-1.732 1.779 4.779 4.657-2.043 2.1zm2.452 17.447 2.005-2.058 2.754 2.683 8.013-8.223 1.653 1.611-10.017 10.28z" style="fill:#fff" transform="translate(-154.479 -586.641)"/>
            </g>
            <g data-name="그룹 20657">
                <path data-name="패스 30954" d="M376.908 850.714c-3.017 3.1-7.487 3.295-11.271-.393s-3.7-8.161-.686-11.258 7.483-3.313 11.278.387 3.687 8.179.679 11.264zm-2.142-2.088c1.755-1.8 1.56-4.307-.923-6.727s-4.993-2.549-6.749-.748-1.555 4.3.929 6.721 4.993 2.549 6.743.754z" style="fill:#fff" transform="translate(-154.479 -586.641)"/>
                <path data-name="패스 30955" d="m380.1 831.842.089-.091-1.676-6.285 2.664-2.734 2.352 9.228 9.363 2.034-2.713 2.785-6.354-1.484-.089.091 1.653 6.308-2.7 2.773-2.264-9.319-9.313-2.085 2.686-2.756z" style="fill:#fff" transform="translate(-154.479 -586.641)"/>
                <path data-name="패스 30956" d="M390.73 813.61a36.171 36.171 0 0 1 4.729 5.482 87.32 87.32 0 0 0 1.369-1.678l1.662 1.331a72.66 72.66 0 0 1-3.59 4.467l5.04 4.913-2.009 2.062-4.951-4.824a165.296 165.296 0 0 1-3.332 3.512l-1.9-1.362c1.8-1.88 3.853-4.022 5.827-6.242a29.45 29.45 0 0 0-1.478-2.028l-4.679 5.722-1.976-1.383 5.315-5.933c-.444-.487-.865-.92-1.245-1.3l-5.255 5.393-1.649-1.606 7.216-7.4zm.025-3.743 2.021-2.074 14.638 14.265-2.021 2.074z" style="fill:#fff" transform="translate(-154.479 -586.641)"/>
                <path data-name="패스 30957" d="m402.775 803.319-.005-.006-4.354 4.467-1.631-1.59L407.6 795.1l1.631 1.589-4.354 4.466.006.006c2.046 2.005 5.773 2.035 9.49-.789l.833 2.4c-2.94 2.12-6.052 2.8-8.7 2.049a10.068 10.068 0 0 1-1.672 8.763l-2.434-.8c2.627-3.684 2.426-7.467.375-9.465zm17.571 1.922-13.035 13.377-1.666-1.623 13.037-13.377z" style="fill:#fff" transform="translate(-154.479 -586.641)"/>
            </g>
            <g data-name="그룹 20658">
                <path data-name="패스 30958" d="m319.9 829.291 11.307 11.018c3.141 3.076 2.944 7.219-.232 10.479-2.853 2.928-6.631 3.719-9.829.587l3.27-3.354a2.645 2.645 0 0 0 4-.036c1.249-1.281 1.119-2.8-.455-4.345l-11.307-11.018z" style="fill:#fff" transform="translate(-154.479 -586.641)"/>
                <path data-name="패스 30959" d="m337.888 843.251-10.745-21.392 4.217-4.328 21.662 10.189-3.515 3.608-4.923-2.421-5.729 5.878 2.548 4.859zm3.221-16.049-8.144-4-.124.126 4.214 8.039z" style="fill:#fff" transform="translate(-154.479 -586.641)"/>
                <path data-name="패스 30960" d="m343.754 804.813 3.277-3.363 7.184 7 .209-.214-1.448-12.887 3.94-4.043 1.373 13.107 14.9 2.612-3.932 4.035-11.057-2.043.407 3.712 4.628 4.511-3.276 3.363z" style="fill:#fff" transform="translate(-154.479 -586.641)"/>
                <path data-name="패스 30961" d="M367.309 801c-3.766-3.67-4.045-8.416-.461-12.1s8.322-3.506 12.088.164c3.743 3.647 4.038 8.393.46 12.064s-8.344 3.516-12.087-.128zm9.531-2.389c1.65-1.692.931-4.121-1.2-6.2s-4.591-2.745-6.24-1.052c-1.689 1.733-.955 4.177 1.174 6.251s4.578 2.731 6.266.998z" style="fill:#fff" transform="translate(-154.479 -586.641)"/>
                <path data-name="패스 30962" d="m374.85 781.007 3.13-3.213 2.113 2.059.123-.127a4.133 4.133 0 0 1 .567-5.155 8.807 8.807 0 0 1 1.135-.96l2.96 2.883a8.31 8.31 0 0 0-1.563 1.239 3.456 3.456 0 0 0 .011 5.07l6.907 6.731L387 792.85z" style="fill:#fff" transform="translate(-154.479 -586.641)"/>
                <path data-name="패스 30963" d="M388.84 778.918c-3.75-3.654-4.03-8.447-.561-12.007 3.108-3.189 7.576-3.74 11.722.3l.926.9-8.1 8.308c1.844 1.8 4.039 1.806 5.7.1a3.286 3.286 0 0 0 1.01-3.458l3.069-3.149c1.777 2.657 1.274 6.085-1.648 9.083-3.632 3.735-8.265 3.678-12.118-.077zm6.969-9.7a3.411 3.411 0 0 0-4.992.041 3.669 3.669 0 0 0-.059 5.141z" style="fill:#fff" transform="translate(-154.479 -586.641)"/>
                <path data-name="패스 30964" d="M404.883 760.208c.784-.916 2.316-2.631 2.794-3.153l-.982-.956c-1.035-.994-2.3-.869-3.494.358-1.111 1.139-1.291 2.353-.637 3.344l-3.06 3.141c-1.928-2.249-1.8-5.7 1.346-8.931 2.582-2.65 6.213-3.986 9.14-1.133l8.189 7.979-3.062 3.143-1.685-1.643-.092.1a5.2 5.2 0 0 1-1.547 5.419c-2.259 2.319-5.166 2.848-7.563.512-2.722-2.66-1.472-5.699.653-8.18zm5.525 4.476a3.283 3.283 0 0 0 .227-4.777l-.886-.863c-.454.514-1.77 2.023-2.27 2.647-1.031 1.247-1.194 2.507-.26 3.417s2.156.636 3.189-.424z" style="fill:#fff" transform="translate(-154.479 -586.641)"/>
            </g>
        </g>
        <g data-name="그룹 20663">
            <g data-name="그룹 20660">
                <path data-name="패스 30965" d="M812.18 970v-2.9h20.439v2.9zm16.044-9.038V954h2.246v9.879c-6.19-.008-11.339-2.182-14.782-9.482l2.276-1.492c2.5 5.273 5.722 7.595 10.26 8.058z" style="fill:#fff" transform="translate(-154.479 -586.641)"/>
                <path data-name="패스 30966" d="M818.687 975.462v2.873h-3.841v11.48h-2.309v-14.353zm13.932 10.783v2.928h-6.236v2.483h-2.388v-2.483h-6.674v-2.928zm-10.22-10h4.008v2.855h-3.912c.087 2.039.246 4.126.524 6.046l-2.063.142a73.524 73.524 0 0 1-.865-12.576l2.277-.246c0 1.134.008 2.425.032 3.782zm7.452 7.935a34.106 34.106 0 0 1-5.992-.469l.263-2.817a27.079 27.079 0 0 0 4.673.476v-7.712h2.333v10.522z" style="fill:#fff" transform="translate(-154.479 -586.641)"/>
            </g>
            <g data-name="그룹 20661">
                <path data-name="패스 30967" d="M741.008 944.706c0-4.325 3.063-7.585 8.347-7.585 5.3 0 8.348 3.26 8.348 7.585 0 4.308-3.047 7.593-8.348 7.593s-8.347-3.285-8.347-7.593zm2.992 0c0 2.515 1.888 4.173 5.355 4.173s5.356-1.658 5.356-4.173-1.888-4.166-5.356-4.166S744 942.2 744 944.706z" style="fill:#fff" transform="translate(-154.479 -586.641)"/>
                <path data-name="패스 30968" d="M751.9 960.448v.127l5.585 3.333v3.817l-8.125-4.967-8.125 5.078v-3.889l5.586-3.372v-.127l-5.586-3.364v-3.872l8.125 5.094 8.125-5.007v3.848z" style="fill:#fff" transform="translate(-154.479 -586.641)"/>
                <path data-name="패스 30969" d="M759.6 983.624v2.9h-20.44v-2.9zm-2.595-2.7a36.2 36.2 0 0 1-7.212-.626c.056.729.119 1.451.19 2.158l-2.119.206a73.515 73.515 0 0 1-.547-5.705h-7.038v-2.88h6.911c-.047-1.69-.063-3.317-.063-4.841l2.309-.348c.024 2.6.047 5.57.182 8.537.9.19 1.714.325 2.476.421l-.643-7.364 2.38-.388.334 7.958c.658.04 1.262.055 1.8.063v-7.529h2.3v10.338z" style="fill:#fff" transform="translate(-154.479 -586.641)"/>
                <path data-name="패스 30970" d="M741.635 1007.589v-18.678h2.325v18.678zm13.926-10.889h.007v-6.237h2.278v15.488h-2.278v-6.236h-.007c-2.865-.008-5.555 2.571-6.246 7.188l-2.268-1.134c.627-3.571 2.38-6.229 4.8-7.538a10.069 10.069 0 0 1-4.919-7.442l2.3-1.127c.683 4.47 3.472 7.038 6.333 7.038z" style="fill:#fff" transform="translate(-154.479 -586.641)"/>
            </g>
            <g data-name="그룹 20662">
                <path data-name="패스 30971" d="M796.787 947.956v4.7h-10.031v.3l10.031 8.22v5.644l-10.131-8.429-12.494 8.529v-5.634l9.346-6.253-2.883-2.375h-6.463v-4.7z" style="fill:#fff" transform="translate(-154.479 -586.641)"/>
                <path data-name="패스 30972" d="M774.162 969.171h22.625v8.054c0 6.816-4.242 10.981-11.29 10.981-7.07 0-11.335-4.165-11.335-11.059zm4.032 7.777c0 4.3 2.232 6.563 7.3 6.563 5.037 0 7.258-2.265 7.258-6.54v-3.1h-14.558z" style="fill:#fff" transform="translate(-154.479 -586.641)"/>
                <path data-name="패스 30973" d="M774.162 996.286v-4.7h22.625v4.7z" style="fill:#fff" transform="translate(-154.479 -586.641)"/>
            </g>
        </g>
        <g data-name="그룹 20666">
            <g data-name="그룹 20664">
                <path data-name="패스 30974" d="M338.991 999.538c0 4.324-3.063 7.585-8.347 7.585-5.3 0-8.348-3.261-8.348-7.585s3.047-7.594 8.348-7.594 8.347 3.285 8.347 7.594zm-2.992 0c0-2.516-1.888-4.174-5.355-4.174s-5.356 1.658-5.356 4.174 1.888 4.165 5.356 4.165 5.356-1.658 5.356-4.165z" style="fill:#cd8da9" transform="translate(-154.479 -586.641)"/>
                <path data-name="패스 30975" d="M328.1 983.795v-.127l-5.585-3.332v-3.816l8.125 4.966 8.125-5.078v3.892l-5.586 3.371v.127l5.586 3.365v3.871l-8.125-5.093-8.125 5.006V987.1z" style="fill:#cd8da9" transform="translate(-154.479 -586.641)"/>
                <path data-name="패스 30976" d="M320.4 960.62v-2.9h20.44v2.9zm2.6 2.7a36.2 36.2 0 0 1 7.212.626 92.24 92.24 0 0 0-.19-2.158l2.119-.206c.261 1.889.435 3.809.547 5.7h7.038v2.88h-6.916c.047 1.69.063 3.317.063 4.841l-2.309.348c-.024-2.6-.047-5.57-.182-8.538-.9-.189-1.714-.324-2.476-.42l.643 7.364-2.38.388-.334-7.959a40.173 40.173 0 0 0-1.8-.062v7.529h-2.3v-10.335z" style="fill:#cd8da9" transform="translate(-154.479 -586.641)"/>
                <path data-name="패스 30977" d="M324.438 947.541h-.007v6.237h-2.278V938.29h2.278v6.236h.007c2.865.008 5.555-2.571 6.246-7.189l2.268 1.135c-.627 3.57-2.38 6.229-4.8 7.538a10.067 10.067 0 0 1 4.919 7.442l-2.3 1.127c-.683-4.467-3.471-7.038-6.333-7.038zm13.926-10.886v18.678h-2.325v-18.678z" style="fill:#cd8da9" transform="translate(-154.479 -586.641)"/>
            </g>
            <g data-name="그룹 20665">
                <path data-name="패스 30978" d="M296.7 1002.646v3.978h-2.8v6.386h-3.2v-6.386H288v6.12c4.5 1.768 7.589 5.811 9.29 12.065l-3.137 1.556c-1.713-6.539-4.85-9.743-8.75-10.318v8.8h-3.2v-13.125a18.8 18.8 0 0 1 2.651.187v-5.28h-4.551v-3.978zm.331 9.48c.011-5.767 2.221-9.667 5.756-9.688 3.557.021 5.8 3.921 5.8 9.688 0 5.833-2.243 9.732-5.8 9.722-3.532.01-5.742-3.889-5.753-9.722zm8.4 0c0-3.535-.895-5.679-2.64-5.689-1.757.01-2.663 2.154-2.651 5.689-.012 3.6.894 5.744 2.651 5.733 1.744.011 2.639-2.132 2.639-5.733z" style="fill:#2b2929" transform="translate(-154.479 -586.641)"/>
                <path data-name="패스 30979" d="M308.723 974.371v3.768h-28.458v-3.768zm-18.693 13.29v-3.745h-9.291v-3.734H307.4v3.734h-14.167v3.745zm-2.143 6.132h-1.514v4.661h-3.192v-12.815h3.192v4.308h1.514c4.739.012 9.511-1.468 11.886-5.623l2.928 2.332a12.028 12.028 0 0 1-7.092 5.17c3.326.994 6.131 2.706 7.745 5.3l-2.939 2.408c-2.586-4.184-7.689-5.741-12.528-5.741z" style="fill:#2b2929" transform="translate(-154.479 -586.641)"/>
                <path data-name="패스 30980" d="M280.265 952.712v-4h6.661v-3.822h3.3v3.822h6.916v4zm12.627 1.7 3.1 2.109a10.52 10.52 0 0 1-5.425 6.353 10.924 10.924 0 0 1 6.22 6.684l-3.126 2.143a9.483 9.483 0 0 0-9.3-6.795h-2.573v-3.986h2.96c3.452 0 6.763-2.01 8.144-6.506zm4.838 3.634c-.011-5.9 2.033-9.6 5.468-9.6 3.5 0 5.525 3.7 5.513 9.6.012 5.988-2.011 9.744-5.513 9.733-3.435.013-5.479-3.743-5.468-9.731zm7.866 0c-.011-3.7-.774-5.667-2.4-5.667-1.535 0-2.364 1.966-2.364 5.667 0 3.723.829 5.756 2.364 5.745 1.626.009 2.389-2.02 2.404-5.743z" style="fill:#2b2929" transform="translate(-154.479 -586.641)"/>
                <path data-name="패스 30981" d="M280.265 923.807v-4h16.979v4zm12.438 2.231 3.138 1.962a10.94 10.94 0 0 1-5.667 6.762 11.268 11.268 0 0 1 6.12 6.948l-3.126 2c-1.536-4.761-5.226-6.849-8.86-6.86h-2.729v-4.132h2.729c3.546.026 6.992-2.007 8.392-6.68zm5.768 13.312v-19.542h10.252v4h-7.06v15.542z" style="fill:#2b2929" transform="translate(-154.479 -586.641)"/>
            </g>
        </g>
        <g data-name="그룹 20668">
            <g data-name="그룹 20667">
                <path data-name="패스 30982" d="m675.24 768.654 2.848 2.776-3.57 3.663 11.093 10.807-2.244 2.3-13.941-13.585zm11.8-5.9c2.942 2.869 3.465 6.463 1.16 8.829-2.282 2.342-5.858 1.88-8.794-.995-2.982-2.891-3.56-6.478-1.27-8.812 2.296-2.376 5.927-1.923 8.903.975zm-5.521 5.666c1.361 1.327 2.881 1.634 3.976.526 1.1-1.147.777-2.681-.576-4.016-1.376-1.324-2.9-1.587-4.005-.447-1.088 1.112-.765 2.6.604 3.934zm2.359-14.531 4.628 4.511 2.113-2.167 2.848 2.775-2.112 2.167 4.612 4.495-2.189 2.247-12.089-11.78zm12.163 19.858 2.737 2.668-2.282 2.342-2.738-2.668-6.453 6.622-2.864-2.791 14.818-15.206 2.865 2.79z" style="fill:#fff" transform="translate(-154.479 -586.641)"/>
                <path data-name="패스 30983" d="m696.206 788.1 2.888 2.814-4.064 4.17 11.109 10.825-2.244 2.3-14-13.638zm12.1 14.71-2.849-2.775 7.147-7.334-3.75-3.656-4.016 4.123-9.7-9.454 10.208-10.474 2.864 2.791-3.046 3.126 4.011 3.909 3.046-3.127 2.825 2.753-3.964 4.067 3.75 3.655 5.259-5.4 2.848 2.776zm-4.1-14.642 2.86-2.936-4.011-3.908-2.861 2.935z" style="fill:#fff" transform="translate(-154.479 -586.641)"/>
                <path data-name="패스 30984" d="m737.144 809.621-6.416-6.254-8.806 9.036a56.783 56.783 0 0 0 8.087 6.708l-1.951 2.588a61.164 61.164 0 0 1-9.636-8.142l-1.653-1.611 13.353-13.7 9.289 9.052zm-3.857 1.947 5.1 4.973 6.877-7.057 2.848 2.775-19.907 20.429-2.848-2.776 10.764-11.045-5.1-4.973z" style="fill:#fff" transform="translate(-154.479 -586.641)"/>
                <path data-name="패스 30985" d="M739.248 832.417a2.613 2.613 0 1 1-3.647 3.743 2.613 2.613 0 1 1 3.647-3.743zm2.7.083-2.864-2.792 10.763-11.646 3.466 3.377z" style="fill:#fff" transform="translate(-154.479 -586.641)"/>
            </g>
        </g>
        <g data-name="그룹 20672">
            <g data-name="그룹 20669">
                <path data-name="패스 30986" d="m351.563 1168.533 2.074 2.022-14.265 14.638-2.074-2.021zm-4.725 17.8 4.984 4.856-1.568 1.609-7.075-6.9c4.326-4.427 9.477-6.6 17.108-3.968l-.52 2.67c-5.518-1.882-9.432-1.2-12.929 1.732z" style="fill:#fff" transform="translate(-154.479 -586.641)"/>
                <path data-name="패스 30987" d="m325.664 1171.835-2.1-2.044 4.352-4.466-1.778-1.733 1.666-1.709 1.778 1.732 4.658-4.779 2.1 2.043zm3.409-.544a34.006 34.006 0 0 1 4.517-3.963l1.834 2.153a27.45 27.45 0 0 0-3.6 3.015l5.523 5.383-1.628 1.67-7.535-7.342zm10.883.2-2.8 2.871-2.04-1.988 2.73-2.8c-1.521-1.361-3.126-2.7-4.7-3.845l1.337-1.577a73.445 73.445 0 0 1 9.611 8.157l-1.413 1.8c-.81-.795-1.736-1.685-2.725-2.617zm3.154-2.109-2.057-2.005 2.68-2.751-8.222-8.013 1.611-1.653 10.28 10.018z" style="fill:#fff" transform="translate(-154.479 -586.641)"/>
            </g>
            <g data-name="그룹 20670">
                <path data-name="패스 30988" d="M419.349 1135.217c3.1 3.017 3.3 7.487-.393 11.271s-8.162 3.7-11.259.686-3.312-7.483.388-11.278 8.179-3.687 11.264-.679zm-2.088 2.142c-1.8-1.755-4.307-1.56-6.727.923s-2.55 4.993-.748 6.749 4.3 1.555 6.721-.929 2.549-4.993.754-6.743z" style="fill:#fff" transform="translate(-154.479 -586.641)"/>
                <path data-name="패스 30989" d="m400.477 1132.026-.091-.088-6.285 1.675-2.734-2.664 9.228-2.352 2.034-9.363 2.785 2.713-1.484 6.354.091.089 6.308-1.653 2.773 2.7-9.319 2.264-2.085 9.313-2.756-2.686z" style="fill:#fff" transform="translate(-154.479 -586.641)"/>
                <path data-name="패스 30990" d="m378.5 1121.37-2.074-2.021 14.264-14.638 2.075 2.021zm3.743.025a36.175 36.175 0 0 1 5.482-4.729 84.374 84.374 0 0 0-1.679-1.369l1.331-1.662a72.38 72.38 0 0 1 4.468 3.59l4.912-5.04 2.063 2.009-4.82 4.951a165.163 165.163 0 0 1 3.511 3.332l-1.361 1.9c-1.88-1.8-4.023-3.853-6.242-5.827-.762.508-1.428 1-2.029 1.478l5.723 4.679-1.383 1.976-5.933-5.315c-.488.444-.92.865-1.3 1.245l5.393 5.255-1.606 1.649-7.4-7.216z" style="fill:#fff" transform="translate(-154.479 -586.641)"/>
                <path data-name="패스 30991" d="m371.954 1109.35-.006.005 4.467 4.354-1.59 1.631-11.093-10.811 1.59-1.631 4.466 4.354.006-.006c2-2.046 2.035-5.773-.79-9.49l2.395-.833c2.121 2.94 2.8 6.052 2.05 8.7a10.068 10.068 0 0 1 8.763 1.672l-.8 2.434c-3.675-2.629-7.46-2.429-9.458-.379zm1.921-17.571 13.378 13.035-1.623 1.666-13.378-13.037z" style="fill:#fff" transform="translate(-154.479 -586.641)"/>
            </g>
            <g data-name="그룹 20671">
                <path data-name="패스 30992" d="m382.154 1158.018 2.849 2.775-1.951 2 4.573 4.456-2.236 2.294-4.573-4.456-1.881 1.931 4.383 4.271c4.4-1.986 9.458-1.38 15.123 1.766l-1.073 3.334c-5.879-3.338-10.364-3.327-13.5-.936l6.3 6.139-2.235 2.293-9.4-9.159a18.546 18.546 0 0 1 1.986-1.769l-3.782-3.686-3.177 3.26-2.849-2.775zm7.02 6.377c-4.123-4.033-5.373-8.336-2.922-10.883 2.5-2.533 6.857-1.418 10.987 2.607 4.177 4.07 5.4 8.4 2.914 10.939-2.459 2.542-6.795 1.4-10.979-2.658zm5.859-6.012c-2.532-2.468-4.691-3.322-5.916-2.08-1.219 1.265-.316 3.41 2.223 5.869 2.572 2.521 4.739 3.368 5.957 2.1 1.226-1.24.315-3.372-2.264-5.889z" style="fill:#fff" transform="translate(-154.479 -586.641)"/>
                <path data-name="패스 30993" d="M354.813 1146.984a67.257 67.257 0 0 1 9.9-8.651l2.555 3a64.436 64.436 0 0 0-9.317 8.168l12.185 11.874-2.213 2.271-15.048-14.665zm28.379 4.657-3.948-3.848L373 1154.2l-2.849-2.776 6.245-6.408-2.248-2.19-6.244 6.408-2.804-2.734 6.244-6.408-6.725-6.555 2.26-2.318 18.577 18.1z" style="fill:#fff" transform="translate(-154.479 -586.641)"/>
                <path data-name="패스 30994" d="m344.833 1128.281-2.778-2.707-1.68 1.725 2.729 2.66-2.228 2.287-2.73-2.66-4.248 4.359-2.848-2.775 11.827-12.137 2.849 2.776-1.442 1.478 2.778 2.707zm-4.06 4.53 11.315 11.025-2.189 2.246-4.383-4.271-1.882 1.931-2.841-2.767 1.882-1.932-4.091-3.986zm16.587-1.161-2.856-2.783 1.465-1.5-8.046-7.841-1.465 1.5-2.833-2.759 7.062-7.247 13.735 13.384zm-10.477 5.971c-2.793-2.721-3.338-6.2-1.217-8.406 2.166-2.192 5.633-1.713 8.426 1.009 2.817 2.745 3.338 6.152 1.171 8.344-2.12 2.207-5.563 1.799-8.38-.947zm5.2-5.332c-1.274-1.241-2.755-1.512-3.764-.49-.98 1.019-.633 2.453.641 3.7 1.289 1.256 2.668 1.5 3.647.483 1.007-1.025.762-2.436-.527-3.693zm-.711-16.3-1.38 1.416 8.046 7.842 1.38-1.416z" style="fill:#fff" transform="translate(-154.479 -586.641)"/>
            </g>
        </g>
        <g data-name="그룹 20675">
            <g data-name="그룹 20673">
                <path data-name="패스 30995" d="M703.094 1092.771c3.017-3.1 7.487-3.294 11.271.393s3.7 8.162.686 11.259-7.483 3.311-11.279-.388-3.686-8.179-.678-11.264zm2.142 2.088c-1.756 1.8-1.56 4.307.923 6.727s4.993 2.55 6.749.748 1.555-4.3-.929-6.721-4.993-2.549-6.743-.754z" style="fill:#cd8da9" transform="translate(-154.479 -586.641)"/>
                <path data-name="패스 30996" d="m699.9 1111.644-.089.09 1.676 6.286-2.664 2.733-2.352-9.228-9.363-2.034 2.713-2.784 6.354 1.482.089-.089-1.653-6.309 2.7-2.773 2.264 9.319 9.313 2.085-2.686 2.756z" style="fill:#cd8da9" transform="translate(-154.479 -586.641)"/>
                <path data-name="패스 30997" d="m689.247 1133.618-2.021 2.074-14.638-14.264 2.021-2.074zm.024-3.743a36.232 36.232 0 0 1-4.728-5.482 87.35 87.35 0 0 0-1.369 1.679l-1.662-1.332a72.963 72.963 0 0 1 3.59-4.467l-5.04-4.912 2.009-2.062 4.95 4.823a165.25 165.25 0 0 1 3.333-3.511l1.9 1.362c-1.8 1.88-3.854 4.021-5.827 6.241.508.763 1 1.429 1.478 2.028l4.679-5.721 1.976 1.382-5.315 5.933c.444.488.865.92 1.245 1.3l5.255-5.393 1.649 1.606-7.216 7.4z" style="fill:#cd8da9" transform="translate(-154.479 -586.641)"/>
                <path data-name="패스 30998" d="m659.656 1138.244 13.035-13.377 1.666 1.623-13.037 13.377zm17.571 1.922.005.006 4.354-4.467 1.631 1.59-10.811 11.093-1.631-1.589 4.354-4.467-.006-.006c-2.046-2-5.773-2.035-9.49.789l-.833-2.394c2.94-2.12 6.052-2.8 8.7-2.049a10.07 10.07 0 0 1 1.672-8.764l2.434.8c-2.631 3.675-2.43 7.46-.379 9.458z" style="fill:#cd8da9" transform="translate(-154.479 -586.641)"/>
            </g>
            <g data-name="그룹 20674">
                <path data-name="패스 30999" d="M741.93 1113.04c-4.034 4.123-8.337 5.373-10.885 2.922-2.531-2.5-1.416-6.857 2.608-10.987 4.072-4.178 8.4-5.405 10.939-2.914 2.539 2.459 1.4 6.794-2.662 10.979zm-6.014-5.859c-2.467 2.532-3.322 4.691-2.08 5.917 1.266 1.218 3.411.315 5.869-2.225 2.523-2.57 3.369-4.738 2.1-5.957-1.239-1.225-3.375-.316-5.889 2.265zm-.365 12.879 2.775-2.849 2 1.951 4.457-4.573 2.3 2.235-4.457 4.574 1.93 1.881 4.271-4.383c-1.986-4.4-1.379-9.458 1.767-15.124l3.333 1.074c-3.337 5.879-3.326 10.363-.934 13.5l6.137-6.3 2.295 2.235-9.16 9.4a18.639 18.639 0 0 1-1.768-1.986l-3.685 3.783 3.259 3.176-2.775 2.849z" style="fill:#2b2929" transform="translate(-154.479 -586.641)"/>
                <path data-name="패스 31000" d="m707.209 1131.922 2.629-2.7 20.381 19.861-2.629 2.7zm22.662 3.527-2.613 2.683 6.654 6.484-2.606 2.674-19.092-18.6 2.606-2.674 10.143 9.884 2.614-2.682zm5.815-2.894 1.084 1.055 3.253-3.339 2.287 2.229-8.945 9.178-2.286-2.229 3.007-3.085-1.086-1.055c-3.386-3.317-7.837-5.587-12.438-4.27l-.469-3.713a12.029 12.029 0 0 1 8.687 1.246c-1.687-3.032-2.5-6.217-1.845-9.2l3.786.325c-1.069 4.803 1.5 9.48 4.965 12.858z" style="fill:#2b2929" transform="translate(-154.479 -586.641)"/>
                <path data-name="패스 31001" d="M703.689 1151.283c-4.109 4.234-8.155 5.457-10.615 3.061-2.509-2.446-1.375-6.507 2.751-10.724 4.171-4.3 8.24-5.575 10.741-3.122 2.468 2.389 1.311 6.502-2.877 10.785zm-5.632-5.488c-2.577 2.658-3.4 4.6-2.239 5.732 1.1 1.071 3.066.242 5.649-2.41s3.423-4.7 2.316-5.763c-1.156-1.142-3.121-.218-5.726 2.446zm14.418 21.5-2.791 2.863-4.772-4.648-2.668 2.738-2.365-2.306 2.668-2.737-4.953-4.827 2.791-2.864zm-7.857-10.031-.751-3.678a10.526 10.526 0 0 1 8.319-.764 10.923 10.923 0 0 1 .21-9.127l3.735.647a9.481 9.481 0 0 0 1.92 11.358l1.844 1.8-2.784 2.857-2.121-2.066c-2.469-2.41-6.245-3.283-10.372-1.027z" style="fill:#2b2929" transform="translate(-154.479 -586.641)"/>
                <path data-name="패스 31002" d="m690.109 1164.158-13.638 14-7.342-7.158 2.791-2.865 5.056 4.928 10.848-11.132zM692.3 1188l-2.791 2.865-12.16-11.85 2.791-2.865zm-7.352-10.279-.875-3.6a10.94 10.94 0 0 1 8.778-.887 11.268 11.268 0 0 1 .466-9.248l3.635.75c-2.223 4.483-1.038 8.552 1.558 11.1l1.954 1.9-2.884 2.959-1.954-1.9c-2.526-2.495-6.411-3.445-10.677-1.078z" style="fill:#2b2929" transform="translate(-154.479 -586.641)"/>
            </g>
        </g>
        <g data-name="그룹 20676">
            <path data-name="패스 31003" d="M520.244 967.18H511.4v2.091h12.237v3.493h-28.876v-3.493h12.188v-2.091h-8.585v-9.741H520v3.542h-17.208v2.719h17.452zm-22.15 7.293h22.014v8.055h-17.636v1.907h18.46v3.37h-22.813v-8.351h17.611v-1.722h-17.636z" style="fill:#fff" transform="translate(-154.479 -586.641)"/>
            <path data-name="패스 31004" d="M527.224 959.039h15.041v12.2h-10.441v5.818a82.1 82.1 0 0 0 13.565-1.07l.382 3.6a85.622 85.622 0 0 1-15.681 1.12h-2.841v-12.961h10.49v-5.129h-10.515zm24.843 29.086h-4.415V956.37h4.415z" style="fill:#fff" transform="translate(-154.479 -586.641)"/>
            <path data-name="패스 31005" d="M568.923 963.183h-10.786V959.7h15.312c-.012 9.592-3.382 17.574-14.7 22.912l-2.312-3.53c8.169-3.871 11.772-8.864 12.486-15.899zm14.008 24.868h-4.489V956.37h4.489z" style="fill:#fff" transform="translate(-154.479 -586.641)"/>
        </g>
    </g>
</svg>
