<svg xmlns="http://www.w3.org/2000/svg" xmlns:xlink="http://www.w3.org/1999/xlink" width="150" height="150" viewBox="0 0 150 150">
  <defs>
    <clipPath id="clip-path">
      <rect id="사각형_448" data-name="사각형 448" width="73.573" height="68.441" fill="none"/>
    </clipPath>
    <clipPath id="clip-path-2">
      <path id="패스_453" data-name="패스 453" d="M80.549,23.628A19.229,19.229,0,1,0,99.777,4.4a19.221,19.221,0,0,0-19.228,19.23" transform="translate(-80.549 -4.398)" fill="none"/>
    </clipPath>
  </defs>
  <g id="그룹_5316" data-name="그룹 5316" transform="translate(-272 -812)">
    <circle id="타원_3" data-name="타원 3" cx="75" cy="75" r="75" transform="translate(272 812)" fill="#fff"/>
    <g id="그룹_492" data-name="그룹 492" transform="translate(309.889 850.617)">
      <g id="그룹_487" data-name="그룹 487">
        <g id="그룹_486" data-name="그룹 486" clip-path="url(#clip-path)">
          <path id="패스_388" data-name="패스 388" d="M116.52,20.187A20.191,20.191,0,1,1,96.332,0,20.194,20.194,0,0,1,116.52,20.187" transform="translate(-59.543)" fill="#fff"/>
          <path id="패스_389" data-name="패스 389" d="M99.781,42.856A19.229,19.229,0,1,0,80.549,23.628,19.227,19.227,0,0,0,99.781,42.856" transform="translate(-62.992 -3.439)" fill="#006ab9"/>
        </g>
      </g>
      <g id="그룹_489" data-name="그룹 489" transform="translate(17.557 0.959)">
        <g id="그룹_488" data-name="그룹 488" clip-path="url(#clip-path-2)">
          <path id="패스_390" data-name="패스 390" d="M95.9,56.079c8.448,0,15.688,2.357,18.8,5.7a19.389,19.389,0,0,0,1.614-7.785,20.414,20.414,0,0,0-40.819,0,19.4,19.4,0,0,0,1.617,7.783c3.094-3.343,10.343-5.7,18.79-5.7" transform="translate(-76.594 -27.566)" fill="#006ab9"/>
          <path id="패스_391" data-name="패스 391" d="M96.075,56.713c8.426,0,15.648,2.337,18.75,5.653a19.139,19.139,0,0,0,1.609-7.723,20.364,20.364,0,0,0-40.714,0,19.161,19.161,0,0,0,1.613,7.721c3.086-3.316,10.317-5.653,18.742-5.653" transform="translate(-76.773 -28.178)" fill="#006cbb"/>
          <path id="패스_392" data-name="패스 392" d="M96.253,57.348c8.4,0,15.608,2.318,18.7,5.608a18.894,18.894,0,0,0,1.606-7.66c0-10.856-9.1-19.707-20.307-19.705S75.95,44.442,75.95,55.3a18.919,18.919,0,0,0,1.608,7.658c3.078-3.289,10.291-5.608,18.694-5.608" transform="translate(-76.952 -28.791)" fill="#006ebc"/>
          <path id="패스_393" data-name="패스 393" d="M96.429,57.98c8.382,0,15.568,2.3,18.653,5.562a18.652,18.652,0,0,0,1.6-7.6c0-10.767-9.074-19.574-20.254-19.573s-20.25,8.808-20.25,19.574a18.681,18.681,0,0,0,1.6,7.6c3.07-3.263,10.265-5.562,18.647-5.562" transform="translate(-77.132 -29.403)" fill="#0070be"/>
          <path id="패스_394" data-name="패스 394" d="M96.6,58.615c8.36,0,15.528,2.28,18.6,5.516a18.4,18.4,0,0,0,1.6-7.535c0-10.679-9.051-19.441-20.2-19.439s-20.2,8.763-20.2,19.441a18.436,18.436,0,0,0,1.6,7.533c3.062-3.236,10.238-5.516,18.6-5.516" transform="translate(-77.31 -30.017)" fill="#0072c0"/>
          <path id="패스_395" data-name="패스 395" d="M96.781,59.249c8.338,0,15.488,2.261,18.556,5.47a18.165,18.165,0,0,0,1.593-7.472c0-10.59-9.027-19.308-20.15-19.307S76.635,46.659,76.635,57.248a18.2,18.2,0,0,0,1.6,7.471c3.054-3.209,10.212-5.47,18.55-5.47" transform="translate(-77.488 -30.629)" fill="#0074c1"/>
          <path id="패스_396" data-name="패스 396" d="M96.958,59.883c8.316,0,15.447,2.241,18.508,5.424a17.922,17.922,0,0,0,1.589-7.409c0-10.5-9-19.175-20.1-19.174S76.864,47.4,76.864,57.9a17.961,17.961,0,0,0,1.591,7.408c3.046-3.182,10.186-5.424,18.5-5.424" transform="translate(-77.667 -31.241)" fill="#0077c3"/>
          <path id="패스_397" data-name="패스 397" d="M97.134,60.517c8.294,0,15.408,2.222,18.459,5.377a17.677,17.677,0,0,0,1.585-7.346c0-10.414-8.979-19.043-20.045-19.041s-20.041,8.63-20.041,19.043a17.718,17.718,0,0,0,1.586,7.345c3.038-3.155,10.16-5.377,18.455-5.377" transform="translate(-77.846 -31.854)" fill="#0079c5"/>
          <path id="패스_398" data-name="패스 398" d="M97.31,61.151c8.272,0,15.368,2.2,18.411,5.331A17.44,17.44,0,0,0,117.3,59.2c0-10.325-8.956-18.91-19.992-18.909S77.321,48.876,77.321,59.2A17.481,17.481,0,0,0,78.9,66.482c3.03-3.128,10.133-5.331,18.407-5.331" transform="translate(-78.025 -32.467)" fill="#007bc7"/>
          <path id="패스_399" data-name="패스 399" d="M97.486,61.785c8.251,0,15.327,2.184,18.362,5.285a17.2,17.2,0,0,0,1.577-7.221c0-10.237-8.932-18.777-19.939-18.776S77.55,49.614,77.55,59.85a17.249,17.249,0,0,0,1.577,7.22c3.023-3.1,10.107-5.285,18.359-5.285" transform="translate(-78.204 -33.079)" fill="#007dc9"/>
          <path id="패스_400" data-name="패스 400" d="M97.663,62.418c8.229,0,15.288,2.164,18.314,5.239A16.96,16.96,0,0,0,117.55,60.5c0-10.148-8.908-18.644-19.887-18.643S77.779,50.353,77.779,60.5a17.015,17.015,0,0,0,1.573,7.157c3.014-3.075,10.081-5.239,18.311-5.239" transform="translate(-78.383 -33.691)" fill="#007fca"/>
          <path id="패스_401" data-name="패스 401" d="M97.84,63.053c8.207,0,15.248,2.145,18.266,5.193a16.727,16.727,0,0,0,1.569-7.1c0-10.06-8.884-18.511-19.835-18.51S78.008,51.093,78.008,61.152a16.781,16.781,0,0,0,1.569,7.095c3.007-3.048,10.055-5.193,18.263-5.193" transform="translate(-78.562 -34.305)" fill="#0082cc"/>
          <path id="패스_402" data-name="패스 402" d="M98.015,63.686c8.185,0,15.207,2.126,18.217,5.147A16.49,16.49,0,0,0,117.8,61.8c0-9.971-8.861-18.379-19.782-18.378S78.236,51.831,78.236,61.8A16.549,16.549,0,0,0,79.8,68.833c3-3.021,10.028-5.147,18.215-5.147" transform="translate(-78.74 -34.917)" fill="#0084ce"/>
          <path id="패스_403" data-name="패스 403" d="M98.192,64.321c8.163,0,15.167,2.107,18.169,5.1a16.256,16.256,0,0,0,1.561-6.97c0-9.883-8.837-18.246-19.73-18.245S78.465,52.571,78.465,62.453a16.315,16.315,0,0,0,1.56,6.969c2.991-2.994,10-5.1,18.167-5.1" transform="translate(-78.919 -35.53)" fill="#0086d0"/>
          <path id="패스_404" data-name="패스 404" d="M98.368,64.955c8.141,0,15.127,2.087,18.12,5.055a16.024,16.024,0,0,0,1.557-6.907c0-9.794-8.813-18.113-19.677-18.112S78.693,53.309,78.693,63.1a16.084,16.084,0,0,0,1.556,6.906c2.983-2.967,9.976-5.055,18.119-5.055" transform="translate(-79.098 -36.142)" fill="#0089d1"/>
          <path id="패스_405" data-name="패스 405" d="M98.545,65.588c8.119,0,15.087,2.068,18.072,5.009a15.787,15.787,0,0,0,1.553-6.845c0-9.706-8.789-17.98-19.625-17.979s-19.622,8.275-19.622,17.98A15.855,15.855,0,0,0,80.474,70.6c2.975-2.941,9.95-5.009,18.071-5.009" transform="translate(-79.277 -36.755)" fill="#008bd3"/>
          <path id="패스_406" data-name="패스 406" d="M98.721,66.222c8.1,0,15.047,2.049,18.023,4.963a15.562,15.562,0,0,0,1.549-6.782c0-9.617-8.766-17.847-19.572-17.847S79.151,54.787,79.151,64.4A15.63,15.63,0,0,0,80.7,71.185c2.967-2.914,9.924-4.963,18.023-4.963" transform="translate(-79.456 -37.367)" fill="#008dd5"/>
          <path id="패스_407" data-name="패스 407" d="M98.9,66.857c8.075,0,15.008,2.03,17.975,4.917a15.333,15.333,0,0,0,1.545-6.72c0-9.529-8.742-17.714-19.52-17.713S79.38,55.527,79.38,65.055a15.406,15.406,0,0,0,1.543,6.719c2.959-2.887,9.9-4.917,17.975-4.917" transform="translate(-79.635 -37.981)" fill="#0090d6"/>
          <path id="패스_408" data-name="패스 408" d="M99.074,67.49c8.053,0,14.967,2.011,17.926,4.871a15.109,15.109,0,0,0,1.541-6.657c0-9.441-8.718-17.582-19.467-17.581S79.608,56.265,79.608,65.7a15.177,15.177,0,0,0,1.538,6.656C84.1,69.5,91.017,67.49,99.074,67.49" transform="translate(-79.813 -38.592)" fill="#0092d8"/>
          <path id="패스_409" data-name="패스 409" d="M99.25,68.124c8.032,0,14.927,1.991,17.878,4.825a14.876,14.876,0,0,0,1.537-6.594c0-9.352-8.695-17.449-19.415-17.448S79.837,57,79.837,66.356a14.953,14.953,0,0,0,1.534,6.593c2.943-2.834,9.845-4.825,17.879-4.825" transform="translate(-79.992 -39.206)" fill="#0095da"/>
          <path id="패스_410" data-name="패스 410" d="M99.427,68.758c8.009,0,14.887,1.972,17.83,4.779a14.656,14.656,0,0,0,1.533-6.531c0-9.264-8.671-17.316-19.362-17.316S80.066,57.743,80.066,67.006a14.733,14.733,0,0,0,1.529,6.53c2.935-2.807,9.818-4.779,17.831-4.779" transform="translate(-80.171 -39.818)" fill="#0097db"/>
          <path id="패스_411" data-name="패스 411" d="M99.6,69.391c7.988,0,14.847,1.953,17.781,4.733a14.429,14.429,0,0,0,1.529-6.469c0-9.175-8.647-17.183-19.31-17.183S80.295,58.481,80.295,67.656a14.507,14.507,0,0,0,1.525,6.468c2.927-2.78,9.792-4.733,17.783-4.733" transform="translate(-80.35 -40.43)" fill="#009add"/>
          <path id="패스_412" data-name="패스 412" d="M99.779,70.026c7.966,0,14.807,1.934,17.733,4.687a14.206,14.206,0,0,0,1.525-6.406c0-9.087-8.624-17.05-19.257-17.05s-19.256,7.964-19.256,17.05a14.29,14.29,0,0,0,1.521,6.405c2.919-2.753,9.766-4.687,17.735-4.687" transform="translate(-80.529 -41.043)" fill="#009cdf"/>
          <path id="패스_413" data-name="패스 413" d="M99.956,70.659c7.944,0,14.767,1.914,17.684,4.641a13.981,13.981,0,0,0,1.521-6.343c0-9-8.6-16.918-19.2-16.917s-19.2,7.92-19.2,16.918A14.067,14.067,0,0,0,82.268,75.3c2.911-2.726,9.74-4.641,17.687-4.641" transform="translate(-80.708 -41.655)" fill="#009fe1"/>
          <path id="패스_414" data-name="패스 414" d="M100.133,71.294c7.922,0,14.727,1.9,17.636,4.595a13.768,13.768,0,0,0,1.517-6.28c0-8.91-8.576-16.785-19.152-16.784S80.981,60.7,80.981,69.609a13.849,13.849,0,0,0,1.512,6.28c2.9-2.7,9.713-4.595,17.64-4.595" transform="translate(-80.887 -42.269)" fill="#00a2e2"/>
          <path id="패스_415" data-name="패스 415" d="M100.308,71.928c7.9,0,14.687,1.876,17.587,4.549a13.544,13.544,0,0,0,1.513-6.218c0-8.821-8.552-16.652-19.1-16.652s-19.1,7.831-19.1,16.652a13.635,13.635,0,0,0,1.508,6.217c2.9-2.673,9.687-4.549,17.592-4.549" transform="translate(-81.065 -42.881)" fill="#00a4e4"/>
          <path id="패스_416" data-name="패스 416" d="M100.485,72.562c7.878,0,14.647,1.857,17.539,4.5a13.331,13.331,0,0,0,1.509-6.155c0-8.733-8.529-16.519-19.048-16.519S81.438,62.178,81.438,70.91a13.415,13.415,0,0,0,1.5,6.155c2.887-2.646,9.661-4.5,17.543-4.5" transform="translate(-81.244 -43.494)" fill="#00a7e6"/>
          <path id="패스_417" data-name="패스 417" d="M100.661,73.2c7.856,0,14.607,1.837,17.49,4.457a13.111,13.111,0,0,0,1.5-6.092c0-8.644-8.5-16.386-18.995-16.386S81.666,62.915,81.666,71.559a13.206,13.206,0,0,0,1.5,6.092c2.88-2.619,9.635-4.457,17.5-4.457" transform="translate(-81.423 -44.106)" fill="#00aae7"/>
          <path id="패스_418" data-name="패스 418" d="M100.838,73.829c7.834,0,14.567,1.818,17.442,4.41a12.9,12.9,0,0,0,1.5-6.03c0-8.556-8.481-16.253-18.942-16.253S81.9,63.655,81.9,72.21A12.989,12.989,0,0,0,83.39,78.24c2.871-2.592,9.609-4.41,17.448-4.41" transform="translate(-81.602 -44.719)" fill="#00ade9"/>
          <path id="패스_419" data-name="패스 419" d="M101.014,74.462c7.813,0,14.527,1.8,17.394,4.364a12.685,12.685,0,0,0,1.5-5.967c0-8.467-8.457-16.121-18.89-16.121s-18.89,7.654-18.89,16.121a12.776,12.776,0,0,0,1.49,5.967c2.864-2.565,9.582-4.364,17.4-4.364" transform="translate(-81.781 -45.33)" fill="#12afeb"/>
          <path id="패스_420" data-name="패스 420" d="M101.19,75.1c7.79,0,14.487,1.78,17.345,4.318a12.471,12.471,0,0,0,1.493-5.9c0-8.379-8.434-15.988-18.837-15.988S82.352,65.132,82.352,73.511a12.568,12.568,0,0,0,1.486,5.9c2.856-2.539,9.556-4.318,17.352-4.318" transform="translate(-81.959 -45.944)" fill="#1bb2ed"/>
          <path id="패스_421" data-name="패스 421" d="M101.366,75.732c7.768,0,14.447,1.76,17.3,4.272a12.26,12.26,0,0,0,1.489-5.841c0-8.29-8.41-15.855-18.785-15.855S82.581,65.873,82.581,74.163A12.36,12.36,0,0,0,84.063,80c2.848-2.512,9.53-4.272,17.3-4.272" transform="translate(-82.138 -46.557)" fill="#23b5ee"/>
          <path id="패스_422" data-name="패스 422" d="M101.459,76.341c7.758,0,14.428,1.749,17.273,4.245a12.137,12.137,0,0,0,1.486-5.8c0-8.236-8.4-15.758-18.759-15.758S82.7,66.546,82.7,74.783a12.228,12.228,0,0,0,1.479,5.8c2.844-2.5,9.517-4.245,17.281-4.245" transform="translate(-82.23 -47.118)" fill="#30b7ef"/>
          <path id="패스_423" data-name="패스 423" d="M101.549,76.952c7.748,0,14.408,1.738,17.249,4.217a12.012,12.012,0,0,0,1.484-5.765c0-8.183-8.387-15.661-18.734-15.661S82.814,67.221,82.814,75.4a12.1,12.1,0,0,0,1.477,5.765c2.84-2.479,9.505-4.217,17.258-4.217" transform="translate(-82.32 -47.68)" fill="#3cbaf0"/>
          <path id="패스_424" data-name="패스 424" d="M101.639,77.563c7.737,0,14.389,1.726,17.226,4.189a11.887,11.887,0,0,0,1.483-5.727c0-8.129-8.377-15.563-18.708-15.563S82.93,67.9,82.93,76.025A11.968,11.968,0,0,0,84.4,81.753c2.837-2.463,9.492-4.189,17.235-4.189" transform="translate(-82.411 -48.242)" fill="#46bcf0"/>
          <path id="패스_425" data-name="패스 425" d="M101.73,78.173c7.727,0,14.369,1.715,17.2,4.161a11.762,11.762,0,0,0,1.48-5.689c0-8.075-8.365-15.466-18.683-15.466S83.046,68.57,83.046,76.645a11.841,11.841,0,0,0,1.473,5.69c2.833-2.447,9.48-4.161,17.211-4.162" transform="translate(-82.502 -48.803)" fill="#50bff1"/>
          <path id="패스_426" data-name="패스 426" d="M101.822,78.784c7.717,0,14.35,1.7,17.179,4.133a11.637,11.637,0,0,0,1.479-5.651c0-8.021-8.354-15.369-18.657-15.369S83.163,69.246,83.163,77.267a11.709,11.709,0,0,0,1.47,5.651c2.829-2.43,9.467-4.133,17.188-4.134" transform="translate(-82.593 -49.365)" fill="#59c2f2"/>
          <path id="패스_427" data-name="패스 427" d="M101.913,79.394c7.706,0,14.33,1.692,17.155,4.106a11.514,11.514,0,0,0,1.476-5.613c0-7.967-8.343-15.271-18.631-15.271S83.28,69.92,83.28,77.886A11.583,11.583,0,0,0,84.748,83.5c2.826-2.414,9.454-4.106,17.165-4.106" transform="translate(-82.685 -49.926)" fill="#61c4f3"/>
          <path id="패스_428" data-name="패스 428" d="M102,80c7.7,0,14.311,1.681,17.132,4.078a11.392,11.392,0,0,0,1.474-5.575c0-7.913-8.332-15.174-18.606-15.174S83.4,70.6,83.4,78.508a11.455,11.455,0,0,0,1.466,5.575C87.684,81.686,94.3,80.006,102,80" transform="translate(-82.775 -50.488)" fill="#69c7f4"/>
          <path id="패스_429" data-name="패스 429" d="M102.095,80.616c7.686,0,14.291,1.67,17.108,4.05a11.269,11.269,0,0,0,1.473-5.537c0-7.859-8.321-15.076-18.58-15.076S83.512,71.271,83.512,79.129a11.33,11.33,0,0,0,1.464,5.537c2.819-2.381,9.429-4.05,17.119-4.051" transform="translate(-82.866 -51.05)" fill="#71c9f4"/>
          <path id="패스_430" data-name="패스 430" d="M102.186,81.226c7.675,0,14.272,1.658,17.085,4.022a11.147,11.147,0,0,0,1.47-5.5c0-7.806-8.309-14.979-18.555-14.979S83.628,71.945,83.628,79.749a11.205,11.205,0,0,0,1.461,5.5c2.815-2.365,9.417-4.022,17.1-4.023" transform="translate(-82.957 -51.611)" fill="#78cbf5"/>
          <path id="패스_431" data-name="패스 431" d="M102.278,81.837c7.665,0,14.252,1.647,17.061,3.994a11.024,11.024,0,0,0,1.469-5.46c0-7.751-8.3-14.882-18.529-14.882S83.746,72.62,83.746,80.371a11.075,11.075,0,0,0,1.459,5.461c2.811-2.349,9.4-3.994,17.073-4" transform="translate(-83.049 -52.173)" fill="#7fcef6"/>
          <path id="패스_432" data-name="패스 432" d="M102.369,82.446c7.655,0,14.232,1.635,17.037,3.967a10.9,10.9,0,0,0,1.466-5.423c0-7.7-8.287-14.785-18.5-14.785S83.862,73.294,83.862,80.991a10.955,10.955,0,0,0,1.457,5.423c2.807-2.332,9.392-3.967,17.05-3.968" transform="translate(-83.14 -52.734)" fill="#86d0f6"/>
          <path id="패스_433" data-name="패스 433" d="M102.46,83.057c7.644,0,14.213,1.624,17.014,3.939a10.785,10.785,0,0,0,1.464-5.384c0-7.644-8.276-14.687-18.478-14.687S83.978,73.969,83.978,81.611A10.829,10.829,0,0,0,85.433,87c2.8-2.316,9.379-3.939,17.027-3.94" transform="translate(-83.231 -53.296)" fill="#8dd3f7"/>
          <path id="패스_434" data-name="패스 434" d="M102.55,83.668c7.634,0,14.193,1.613,16.99,3.911A10.661,10.661,0,0,0,121,82.233c0-7.59-8.265-14.59-18.453-14.59s-18.456,7-18.456,14.59a10.7,10.7,0,0,0,1.453,5.347c2.8-2.3,9.366-3.911,17-3.912" transform="translate(-83.321 -53.858)" fill="#94d5f8"/>
          <path id="패스_435" data-name="패스 435" d="M102.642,84.278c7.623,0,14.174,1.6,16.967,3.883a10.545,10.545,0,0,0,1.46-5.308c0-7.536-8.253-14.493-18.427-14.493S84.211,75.319,84.211,82.854a10.581,10.581,0,0,0,1.45,5.309c2.8-2.283,9.354-3.883,16.981-3.885" transform="translate(-83.413 -54.419)" fill="#9ad8f8"/>
          <path id="패스_436" data-name="패스 436" d="M102.734,84.89c7.613,0,14.154,1.59,16.943,3.855a10.427,10.427,0,0,0,1.458-5.27c0-7.482-8.242-14.4-18.4-14.4s-18.406,6.914-18.406,14.4a10.459,10.459,0,0,0,1.448,5.271c2.793-2.267,9.341-3.855,16.958-3.857" transform="translate(-83.504 -54.982)" fill="#a1daf9"/>
          <path id="패스_437" data-name="패스 437" d="M102.824,85.5c7.6,0,14.135,1.579,16.919,3.828A10.309,10.309,0,0,0,121.2,84.1c0-7.428-8.231-14.3-18.376-14.3s-18.38,6.871-18.38,14.3a10.336,10.336,0,0,0,1.446,5.233c2.789-2.251,9.328-3.828,16.935-3.829" transform="translate(-83.595 -55.543)" fill="#a7dcf9"/>
          <path id="패스_438" data-name="패스 438" d="M102.915,86.11c7.592,0,14.115,1.567,16.9,3.8a10.192,10.192,0,0,0,1.454-5.194c0-7.374-8.22-14.2-18.35-14.2S84.56,77.343,84.56,84.716A10.217,10.217,0,0,0,86,89.911c2.785-2.235,9.316-3.8,16.912-3.8" transform="translate(-83.686 -56.104)" fill="#aedffa"/>
          <path id="패스_439" data-name="패스 439" d="M103.007,86.721c7.582,0,14.1,1.556,16.872,3.772a10.074,10.074,0,0,0,1.452-5.156c0-7.321-8.209-14.1-18.325-14.1s-18.33,6.784-18.33,14.1a10.093,10.093,0,0,0,1.441,5.157c2.781-2.218,9.3-3.772,16.888-3.774" transform="translate(-83.777 -56.666)" fill="#b4e1fb"/>
          <path id="패스_440" data-name="패스 440" d="M103.1,87.33c7.571,0,14.076,1.544,16.849,3.744a9.958,9.958,0,0,0,1.45-5.118c0-7.267-8.2-14.006-18.3-14.006s-18.3,6.741-18.3,14.006a9.976,9.976,0,0,0,1.439,5.119c2.778-2.2,9.291-3.745,16.866-3.746" transform="translate(-83.868 -57.227)" fill="#bae4fb"/>
          <path id="패스_441" data-name="패스 441" d="M103.189,87.942c7.561,0,14.057,1.533,16.825,3.717a9.842,9.842,0,0,0,1.449-5.08c0-7.213-8.187-13.909-18.274-13.909S84.91,79.368,84.91,86.58a9.856,9.856,0,0,0,1.437,5.081c2.774-2.186,9.278-3.717,16.842-3.719" transform="translate(-83.959 -57.79)" fill="#c0e6fc"/>
          <path id="패스_442" data-name="패스 442" d="M103.28,88.553c7.551,0,14.037,1.521,16.8,3.689a9.728,9.728,0,0,0,1.447-5.042c0-7.159-8.175-13.811-18.248-13.811S85.026,80.043,85.026,87.2a9.739,9.739,0,0,0,1.435,5.043c2.771-2.169,9.266-3.689,16.819-3.691" transform="translate(-84.05 -58.351)" fill="#c6e8fc"/>
          <path id="패스_443" data-name="패스 443" d="M103.372,89.163c7.54,0,14.018,1.51,16.778,3.661a9.613,9.613,0,0,0,1.444-5c0-7.105-8.164-13.714-18.222-13.714S85.143,80.718,85.143,87.821a9.621,9.621,0,0,0,1.432,5.005c2.767-2.153,9.253-3.661,16.8-3.663" transform="translate(-84.142 -58.913)" fill="#cceafc"/>
          <path id="패스_444" data-name="패스 444" d="M103.462,89.774c7.53,0,14,1.5,16.754,3.633a9.5,9.5,0,0,0,1.442-4.965c0-7.051-8.153-13.617-18.2-13.617s-18.2,6.568-18.2,13.617a9.5,9.5,0,0,0,1.43,4.967c2.764-2.136,9.241-3.633,16.773-3.635" transform="translate(-84.232 -59.474)" fill="#d2edfd"/>
          <path id="패스_445" data-name="패스 445" d="M103.554,90.384c7.52,0,13.979,1.487,16.731,3.606a9.385,9.385,0,0,0,1.44-4.927c0-7-8.141-13.52-18.171-13.52s-18.178,6.524-18.178,13.52A9.387,9.387,0,0,0,86.8,93.992c2.76-2.12,9.228-3.606,16.75-3.608" transform="translate(-84.324 -60.036)" fill="#d8effd"/>
          <path id="패스_446" data-name="패스 446" d="M103.645,90.994c7.509,0,13.959,1.476,16.707,3.578a9.271,9.271,0,0,0,1.439-4.889c0-6.943-8.131-13.422-18.146-13.422-10.031,0-18.153,6.481-18.153,13.422a9.27,9.27,0,0,0,1.426,4.891c2.756-2.1,9.215-3.578,16.727-3.58" transform="translate(-84.415 -60.597)" fill="#ddf2fe"/>
          <path id="패스_447" data-name="패스 447" d="M103.736,91.6c7.5,0,13.94,1.465,16.684,3.55a9.159,9.159,0,0,0,1.436-4.851c0-6.889-8.119-13.325-18.12-13.325-10.017,0-18.128,6.438-18.128,13.325a9.153,9.153,0,0,0,1.424,4.853c2.752-2.087,9.2-3.55,16.7-3.552" transform="translate(-84.505 -61.159)" fill="#e3f4fe"/>
          <path id="패스_448" data-name="패스 448" d="M103.827,92.216c7.488,0,13.92,1.453,16.66,3.522a9.048,9.048,0,0,0,1.434-4.813c0-6.836-8.108-13.227-18.094-13.227-10,0-18.1,6.394-18.1,13.227a9.04,9.04,0,0,0,1.421,4.815c2.749-2.071,9.191-3.522,16.681-3.525" transform="translate(-84.597 -61.721)" fill="#e9f6fe"/>
          <path id="패스_449" data-name="패스 449" d="M103.918,92.826c7.478,0,13.9,1.442,16.636,3.494a8.937,8.937,0,0,0,1.432-4.775c0-6.782-8.1-13.13-18.069-13.13-9.99,0-18.077,6.351-18.077,13.13a8.926,8.926,0,0,0,1.419,4.777c2.745-2.055,9.178-3.495,16.658-3.5" transform="translate(-84.688 -62.283)" fill="#eef9ff"/>
          <path id="패스_450" data-name="패스 450" d="M104.009,93.437c7.468,0,13.881,1.43,16.613,3.467a8.827,8.827,0,0,0,1.431-4.737c0-6.728-8.086-13.033-18.043-13.033-9.977,0-18.051,6.307-18.051,13.033a8.81,8.81,0,0,0,1.417,4.739c2.742-2.039,9.165-3.467,16.635-3.469" transform="translate(-84.779 -62.844)" fill="#f4fbff"/>
          <path id="패스_451" data-name="패스 451" d="M104.1,94.047c7.457,0,13.862,1.419,16.589,3.439a8.715,8.715,0,0,0,1.429-4.7c0-6.674-8.075-12.936-18.018-12.936-9.963,0-18.026,6.264-18.026,12.936a8.7,8.7,0,0,0,1.415,4.7c2.738-2.022,9.153-3.439,16.612-3.441" transform="translate(-84.87 -63.406)" fill="#fafdff"/>
          <path id="패스_452" data-name="패스 452" d="M104.192,94.658c7.447,0,13.842,1.408,16.566,3.411a8.606,8.606,0,0,0,1.426-4.66c0-6.62-8.063-12.838-17.992-12.838-9.95,0-18,6.221-18,12.838A8.585,8.585,0,0,0,87.6,98.071c2.734-2.006,9.14-3.411,16.589-3.414" transform="translate(-84.961 -63.967)" fill="#fff"/>
        </g>
      </g>
      <g id="그룹_491" data-name="그룹 491">
        <g id="그룹_490" data-name="그룹 490" clip-path="url(#clip-path)">
          <path id="패스_454" data-name="패스 454" d="M105.738,114.886a50.6,50.6,0,0,0-17.567,2.974,19.236,19.236,0,0,0,35.136,0,50.581,50.581,0,0,0-17.569-2.974" transform="translate(-68.953 -89.845)" fill="#006ab9"/>
          <path id="패스_455" data-name="패스 455" d="M174.856,274.033h2.515a.666.666,0,0,1,.555.34,2.57,2.57,0,0,1,.1.855v4.528c.032.427.237,1.167,1.793,1.227h11.547v-1.6H181.52c-.615.037-.681-.265-.695-.642v-3.794a.966.966,0,0,0-.375-.917h12.179v-1.585H174.856Z" transform="translate(-136.743 -213.064)" fill="#004487"/>
          <path id="패스_456" data-name="패스 456" d="M194.817,230.783c3.508,0,6.342-1.912,6.342-4.748s-2.835-4.745-6.342-4.745-6.342,1.914-6.342,4.745,2.837,4.748,6.342,4.748m0-7.872a3.145,3.145,0,1,1-3.477,3.125,3.2,3.2,0,0,1,3.477-3.125" transform="translate(-147.394 -173.056)" fill="#004487"/>
          <path id="패스_457" data-name="패스 457" d="M0,276.738H7.566v6.826h2.9v-6.826h7.573v-1.657H0Z" transform="translate(0 -215.123)" fill="#004487"/>
          <path id="패스_458" data-name="패스 458" d="M17.477,231.153c3.681,0,6.663-2.008,6.663-4.983s-2.982-4.981-6.663-4.981-6.662,2.007-6.662,4.981,2.984,4.983,6.662,4.983m0-8.262a3.3,3.3,0,1,1,0,6.567,3.3,3.3,0,1,1,0-6.567" transform="translate(-8.458 -172.977)" fill="#004487"/>
          <path id="패스_459" data-name="패스 459" d="M264.4,222.169v.579h-3.988v1.582h1.9a3.831,3.831,0,0,0-1.632,3.15c0,2.481,2.208,4.154,4.942,4.154s4.926-1.673,4.926-4.154a3.82,3.82,0,0,0-1.632-3.15h1.765v-1.582h-3.785v-.895c0-.438-.137-.677-.738-.677h-1.984s.229.136.229.993m-1.178,5.313a2.4,2.4,0,1,1,2.393,2.594,2.406,2.406,0,0,1-2.393-2.594" transform="translate(-203.653 -172.967)" fill="#004487"/>
          <path id="패스_460" data-name="패스 460" d="M287.3,272.012c-3.382,0-6.121,1.82-6.121,4.525s2.739,4.533,6.121,4.533,6.119-1.825,6.119-4.533-2.745-4.525-6.119-4.525m0,7.483a2.969,2.969,0,1,1,3.277-2.956A3.017,3.017,0,0,1,287.3,279.5" transform="translate(-219.895 -212.723)" fill="#004487"/>
          <path id="패스_461" data-name="패스 461" d="M314.133,224.306v2.279h-1.056v-3.219c0-.424-.144-.649-.774-.649h-1.755s.237.209.237,1.589v8.272h2.291v-4.351h1.056v4.351h2.3v-9.212c0-.424-.142-.649-.779-.649h-1.759s.238.226.238,1.589" transform="translate(-242.859 -174.172)" fill="#004487"/>
          <path id="패스_462" data-name="패스 462" d="M105.517,222.716h-2.038s.241.186.241,1.613v9.564c-.03,1.467-2.3,1.439-2.3,1.439H94.747c-.622.039-.683-.265-.7-.643v-4.028H99.81c.637,0,.778-.238.778-.664V223.97c0-.43-.141-.656-.781-.656H90.9v1.6h6.849v4.14H90.966a1.991,1.991,0,0,1,.241,1.148v5.5c.031.425.235,1.169,1.8,1.231h7.811s2.287.066,2.9-.541v5.69h2.721v-18.7c0-.431-.285-.662-.925-.662" transform="translate(-71.091 -174.172)" fill="#004487"/>
        </g>
      </g>
    </g>
  </g>
</svg>
