<svg xmlns="http://www.w3.org/2000/svg" xmlns:xlink="http://www.w3.org/1999/xlink" width="150" height="150" viewBox="0 0 150 150">
  <defs>
    <clipPath id="clip-path">
      <rect id="사각형_461" data-name="사각형 461" width="72.87" height="41.368" fill="none"/>
    </clipPath>
  </defs>
  <g id="그룹_5317" data-name="그룹 5317" transform="translate(-452 -812)">
    <circle id="타원_9" data-name="타원 9" cx="75" cy="75" r="75" transform="translate(452 812)" fill="#fff"/>
    <g id="그룹_515" data-name="그룹 515" transform="translate(490.372 865.941)">
      <g id="그룹_514" data-name="그룹 514" clip-path="url(#clip-path)">
        <path id="패스_546" data-name="패스 546" d="M6.254,0H0V29.412H8.989V12.253l7.205,6.882c.523.5.954.324.954-.4V9.013L8.989,1.219A3.664,3.664,0,0,0,6.254,0" fill="#ea5c00"/>
        <path id="패스_547" data-name="패스 547" d="M74.845,0a3.646,3.646,0,0,0-2.729,1.219L63.952,9.013v9.721c0,.724.426.9.951.4l7.208-6.882V29.412H81.1V0Z" transform="translate(-45.156)" fill="#ea5c00"/>
        <path id="패스_548" data-name="패스 548" d="M155.167,14.119S168.866,1.184,169.211.854c.262-.25.534-.756-.2-.765-1.283-.015-10.028,0-10.028,0a2.89,2.89,0,0,0-1.735.6l-9.8,9.148V.09H138.47V29.542h8.978V18.415l11.144,10.5a2.8,2.8,0,0,0,1.735.63h9.848c.466,0,.622-.25.291-.677-.449-.582-15.3-14.746-15.3-14.746" transform="translate(-97.772 -0.059)" fill="#ea5c00"/>
        <path id="패스_549" data-name="패스 549" d="M97.3,113.2a.088.088,0,0,0,.088.088v.006a.38.38,0,0,1,.379.379v1.686H96.505c-.187.006-.207.083-.138.19l.387.632h1.013v4.842h.62a.724.724,0,0,0,.689-.754v-7.166H97.389a.1.1,0,0,0-.088.1m2.046-.1a.1.1,0,0,0-.088.1.089.089,0,0,0,.088.088v.006a.38.38,0,0,1,.38.379v7.35h.6a.755.755,0,0,0,.718-.792v-7.128Zm-2.317,4.278a6.881,6.881,0,0,1-1.4-1.133,7.99,7.99,0,0,0,1.094-2.7.421.421,0,0,0-.392-.443h-3.1c-.187.006-.207.084-.139.192l.408.661h1.649a6.728,6.728,0,0,1-2.438,4.485c-.091.065-.113.127-.075.19s.1.054.212.036a4.67,4.67,0,0,0,2.451-1.906c.109.209,1.2,1.739,1.422,1.994s.37.322.434.071v-1.256a.172.172,0,0,0-.123-.193" transform="translate(-65.395 -79.864)" fill="#565355"/>
        <path id="패스_550" data-name="패스 550" d="M19.818,113.108a.1.1,0,0,0-.089.1.089.089,0,0,0,.089.088v.006a.378.378,0,0,1,.377.379v1.34h-.651v-1.909H17.87a.1.1,0,0,0-.088.1.088.088,0,0,0,.088.088v.006a.375.375,0,0,1,.374.379v7.35h.609a.723.723,0,0,0,.688-.754v-4.421h.651v5.175h.6a.756.756,0,0,0,.718-.791v-7.128Z" transform="translate(-12.556 -79.864)" fill="#565355"/>
        <path id="패스_551" data-name="패스 551" d="M2,113.2a.089.089,0,0,0,.089.089v0a.4.4,0,0,1,.384.379v4.093a.883.883,0,0,0,.91.919H5.4a.848.848,0,0,0,.846-.851v-4.725l-4.152,0A.089.089,0,0,0,2,113.2m1.8.758H4.912v3.86H3.8Z" transform="translate(-1.413 -79.867)" fill="#565355"/>
        <path id="패스_552" data-name="패스 552" d="M67.917,113.739c.085-.406-.139-.622-.374-.622H63.6c-.187.006-.207.084-.139.192l.407.661h2.463a4.105,4.105,0,0,1-2.987,2.845.138.138,0,0,0-.116.167c.014.065.1.1.161.1a4.421,4.421,0,0,0,4.524-3.347m.346,1.618c-.187.005-.207.085-.139.193l.388.631h1.154v.937h.611a.8.8,0,0,0,.762-.838v-3.162H69.281a.091.091,0,0,0-.088.092.088.088,0,0,0,.088.088v.006a.386.386,0,0,1,.387.379v.412h-1.4c-.187.005-.207.084-.139.193l.388.631h1.154v.438Zm-.378,1.748c-1.871,0-3.174.926-3.174,2.067s1.3,2.066,3.174,2.066,3.174-.925,3.174-2.066-1.3-2.067-3.174-2.067m0,3.312c-.949,0-1.719-.557-1.719-1.245s.77-1.246,1.719-1.246,1.718.558,1.718,1.246-.769,1.245-1.718,1.245" transform="translate(-44.645 -79.871)" fill="#565355"/>
        <path id="패스_553" data-name="패스 553" d="M39.784,112.707v.005a.387.387,0,0,1,.388.379v3.239h.608a.8.8,0,0,0,.762-.838v-2.966H39.784a.091.091,0,0,0-.089.091.089.089,0,0,0,.089.089m-.816,1.536c0-1.071-1.07-1.939-2.662-1.939s-2.662.868-2.662,1.939,1.07,1.94,2.662,1.94,2.662-.868,2.662-1.94m-3.928,0a1.271,1.271,0,1,1,1.266,1.164,1.219,1.219,0,0,1-1.266-1.164m1.721,5.352v-.652h4.013a.813.813,0,0,0,.771-.849v-1.412H35.094c-.149,0-.17.084-.1.193l.392.637h4.767v.579H34.976a.087.087,0,0,0-.09.086.09.09,0,0,0,.09.09v.006a.384.384,0,0,1,.383.383v.945a.841.841,0,0,0,.925.858h5.382v-.864Z" transform="translate(-23.756 -79.297)" fill="#565355"/>
        <path id="패스_554" data-name="패스 554" d="M141.5,113.061H139.88v7.681h2.329V116.26l1.867,1.8c.135.13.248.085.248-.1v-2.539l-2.115-2.035a.943.943,0,0,0-.708-.318" transform="translate(-98.768 -79.831)" fill="#565355"/>
        <path id="패스_555" data-name="패스 555" d="M159.27,113.061a.941.941,0,0,0-.707.318l-2.116,2.035v2.539c0,.189.111.234.247.1l1.867-1.8v4.481h2.328v-7.681Z" transform="translate(-110.466 -79.831)" fill="#565355"/>
        <path id="패스_556" data-name="패스 556" d="M214.94,113.023h-2.332v4.259l-3.061-3.846-.1-.116a.881.881,0,0,0-.672-.3h-1.855v7.692h2.325v-4.26s3.118,3.873,3.127,3.88.034.039.046.05.06.057.075.071a1.042,1.042,0,0,0,.659.255h.166l1.622,0Z" transform="translate(-146.105 -79.804)" fill="#565355"/>
        <path id="패스_557" data-name="패스 557" d="M183.065,116.758a2.091,2.091,0,0,0,.783-1.63,2.17,2.17,0,0,0-2.021-2.077c-.016,0-.034-.005-.088-.01s-.113-.006-.123-.006h-5.652v7.688h5.965c-.081,0,.013,0,.139-.008.03,0,.059,0,.092,0h.04a2.092,2.092,0,0,0,.865-3.954m-4.766-2.114h2.582a.642.642,0,1,1,0,1.285H178.3Zm2.879,4.443H178.3V117.71h2.879a.688.688,0,1,1,0,1.377" transform="translate(-124.246 -79.814)" fill="#565355"/>
      </g>
    </g>
  </g>
</svg>
