<svg xmlns="http://www.w3.org/2000/svg" xmlns:xlink="http://www.w3.org/1999/xlink" width="150" height="150" viewBox="0 0 150 150">
  <defs>
    <clipPath id="clip-path">
      <rect id="사각형_465" data-name="사각형 465" width="95.647" height="31.966" fill="none"/>
    </clipPath>
  </defs>
  <g id="그룹_5323" data-name="그룹 5323" transform="translate(-1172 -812)">
    <circle id="타원_13" data-name="타원 13" cx="75" cy="75" r="75" transform="translate(1172 812)" fill="#fff"/>
    <g id="그룹_528" data-name="그룹 528" transform="translate(338.5 -377.854)">
      <g id="그룹_527" data-name="그룹 527" transform="translate(863 1251)">
        <g id="그룹_526" data-name="그룹 526" transform="translate(0 0)" clip-path="url(#clip-path)">
          <path id="패스_592" data-name="패스 592" d="M52.1,11.689a5.919,5.919,0,0,1-.849,1.76A3.167,3.167,0,0,1,50,14.467a3.36,3.36,0,0,1-1.482.34,3.8,3.8,0,0,1-1.465-.3,3.11,3.11,0,0,1-1.274-1.038,5.493,5.493,0,0,1-.869-1.76,9.429,9.429,0,0,1-.319-2.654,9.724,9.724,0,0,1,.34-2.67A5.016,5.016,0,0,1,45.8,4.6,3.584,3.584,0,0,1,47.05,3.584a3.691,3.691,0,0,1,1.465-.3,3.569,3.569,0,0,1,1.463.319,3.333,3.333,0,0,1,1.25,1.018,5.326,5.326,0,0,1,.849,1.781,9.431,9.431,0,0,1,.338,2.631,9.12,9.12,0,0,1-.317,2.652m2.566-9.27A8.034,8.034,0,0,0,48.493,0a7.965,7.965,0,0,0-6.152,2.44,9.394,9.394,0,0,0-2.228,6.616,9.45,9.45,0,0,0,2.228,6.6,7.9,7.9,0,0,0,6.152,2.44,8.034,8.034,0,0,0,6.172-2.418,9.4,9.4,0,0,0,2.228-6.62,9.487,9.487,0,0,0-2.228-6.638" transform="translate(38.755 -0.001)" fill="#0070b9" fill-rule="evenodd"/>
          <path id="패스_593" data-name="패스 593" d="M15.543,17.545H10.262L5.531,10.5,4.682,11.67v5.875H.313V.194H4.682V7.915L10.24.194h5.027L9.094,8.234Z" transform="translate(0.303 0.187)" fill="#0070b9" fill-rule="evenodd"/>
          <path id="패스_594" data-name="패스 594" d="M19.676,11.689a5.476,5.476,0,0,1-.869,1.76,3.122,3.122,0,0,1-1.231,1.018,3.362,3.362,0,0,1-1.484.34,4.011,4.011,0,0,1-1.486-.3,3.192,3.192,0,0,1-1.25-1.038,5.049,5.049,0,0,1-.869-1.76,9.357,9.357,0,0,1-.319-2.654,8.959,8.959,0,0,1,.34-2.67A5.015,5.015,0,0,1,13.375,4.6a3.435,3.435,0,0,1,1.252-1.018,3.54,3.54,0,0,1,1.465-.3,3.464,3.464,0,0,1,1.441.319,3.575,3.575,0,0,1,1.274,1.018,5.363,5.363,0,0,1,.847,1.781,9.488,9.488,0,0,1,.319,2.631,9.137,9.137,0,0,1-.3,2.652m2.546-9.27A7.958,7.958,0,0,0,16.07,0,7.968,7.968,0,0,0,9.918,2.44,9.3,9.3,0,0,0,7.671,9.056a9.36,9.36,0,0,0,2.247,6.6,7.9,7.9,0,0,0,6.152,2.44,7.958,7.958,0,0,0,6.152-2.418,9.309,9.309,0,0,0,2.249-6.62,9.4,9.4,0,0,0-2.249-6.638" transform="translate(7.411 -0.001)" fill="#0070b9" fill-rule="evenodd"/>
          <path id="패스_595" data-name="패스 595" d="M42.295,11.033l-2.1-.488a16.265,16.265,0,0,1-2.037-.615,6.489,6.489,0,0,1-3.075-1.972.076.076,0,0,0-.022-.043,4.583,4.583,0,0,1-.934-2.947A4.741,4.741,0,0,1,35.083,2V.194H30.034l-3.818,8.57L22.375.194H17.348V17.545h4.1V6.049l3.16,7.424h2.969l3.162-7.424v11.5h4.349V13.621a10.979,10.979,0,0,0,2.269,1.168,9.732,9.732,0,0,0,3.437.678,9.02,9.02,0,0,0,1.125-.106,3.741,3.741,0,0,0,1.144-.3,2.323,2.323,0,0,0,.912-.659,1.721,1.721,0,0,0,.4-1.166c.043-.678-.212-1.7-2.078-2.206" transform="translate(16.761 0.187)" fill="#0070b9" fill-rule="evenodd"/>
          <path id="패스_596" data-name="패스 596" d="M41.692,4.624A4.256,4.256,0,0,1,43.2,3.584a4.955,4.955,0,0,1,1.718-.3,4.589,4.589,0,0,1,1.528.256,6.551,6.551,0,0,1,1.337.635,8.709,8.709,0,0,1,1.079.743,9.935,9.935,0,0,1,.786.657h.444V1.443A12.143,12.143,0,0,0,48.969.934a10.849,10.849,0,0,0-1.3-.488Q46.912.255,46.082.128A12.058,12.058,0,0,0,44.217,0a8.094,8.094,0,0,0-6.193,2.46l-.383.446a7.874,7.874,0,0,0-.806,1.188A10.988,10.988,0,0,0,34.9,3.075a8.622,8.622,0,0,0-3.246-.635,9.579,9.579,0,0,0-1.168.085,5.117,5.117,0,0,0-1.1.36,2.35,2.35,0,0,0-.849.659,1.615,1.615,0,0,0-.381,1.04A1.582,1.582,0,0,0,28.753,5.9a5.5,5.5,0,0,0,2.1.828l1.868.425a17.791,17.791,0,0,1,1.886.551,9.493,9.493,0,0,1,1.146.509,5.353,5.353,0,0,1,1.718,1.359,4.724,4.724,0,0,1,.934,3.053,5.585,5.585,0,0,1-.68,2.759,4.035,4.035,0,0,0,.3.319,8.164,8.164,0,0,0,6.193,2.375,11.591,11.591,0,0,0,1.95-.128,11.4,11.4,0,0,0,1.528-.381,9.5,9.5,0,0,0,1.294-.488c.425-.191.785-.362,1.1-.509V12.493H49.71c-.234.193-.488.4-.784.659a10.616,10.616,0,0,1-1.018.722,6.956,6.956,0,0,1-1.315.635,5.254,5.254,0,0,1-1.654.277,5.048,5.048,0,0,1-1.655-.3,4.2,4.2,0,0,1-1.506-.934,4.689,4.689,0,0,1-1.125-1.781,7.207,7.207,0,0,1-.444-2.717,7.655,7.655,0,0,1,.423-2.65,5.175,5.175,0,0,1,1.062-1.781" transform="translate(27.206 -0.001)" fill="#0070b9" fill-rule="evenodd"/>
          <path id="패스_597" data-name="패스 597" d="M12.628,14.837a14.31,14.31,0,0,0,.678-1.634,12.344,12.344,0,0,0,.509-1.929s-1.506.106-2.078.126c-.594.022-1.528.022-2.843.022a5.867,5.867,0,0,1-.806-.041,5.689,5.689,0,0,0-.657-.065l-.191.277,1.484.529a1.053,1.053,0,0,1,.381-.191,2.585,2.585,0,0,1,.34-.063c.147,0,.613-.022,1.4-.043s1.422-.041,1.909-.063c-.043.488-.128,1.018-.212,1.612a11.68,11.68,0,0,1-.362,1.484c-.21,0-.529,0-.741.022h-.657c-.68,0-1.315,0-1.868.022H7.431c-.234,0-.574-.022-1-.065s-.722-.085-.849-.106l-.234.34,1.827.572a.964.964,0,0,1,.4-.169c.149-.041.277-.063.381-.085.108,0,.34-.022.68-.063.34-.024.784-.043,1.335-.043v2.163H8.7a6.573,6.573,0,0,1-.828-.063,5.519,5.519,0,0,0-.657-.063l-.191.254,1.506.551a1.563,1.563,0,0,1,.381-.189,1.679,1.679,0,0,1,.34-.043c.147-.022.741-.043,1.441-.043.7-.022,1.506-.022,1.994-.022l.043,2.249.043,1h.488c.02-.128.147-.319.191-.551a2.858,2.858,0,0,0,.085-.68l.022-2.12v-.468s-2.249.169-2.715.169V15.261c.743,0,1.528,0,2.334.022.828,0,1.632.043,2.206.063v-.72c-.4.041-.849.085-1.359.126-.488.022-.912.063-1.4.085" transform="translate(5.17 10.892)" fill="#0070b9" fill-rule="evenodd"/>
          <path id="패스_598" data-name="패스 598" d="M29.863,14.61a8.549,8.549,0,0,0,.657-1.315,4.972,4.972,0,0,0,.34-1.229l-1.675-.49-.234.212c.381.191.594.362.657.529a.87.87,0,0,1,.043.531,9.379,9.379,0,0,1-1.04,2.44,6.091,6.091,0,0,1-1.931,2.1l.275.171a5.959,5.959,0,0,0,1.486-1.1,10.511,10.511,0,0,0,1.209-1.506c.254.256.615.637,1.081,1.146.444.488.849.956,1.168,1.359l.657-.659c-.425-.3-.891-.657-1.465-1.123-.551-.468-.975-.828-1.229-1.062" transform="translate(25.777 11.183)" fill="#0070b9" fill-rule="evenodd"/>
          <path id="패스_599" data-name="패스 599" d="M33.746,15.117c-.36.041-.722.085-1.081.106-.381.02-.7.02-.975.041l.02-3.2a3.52,3.52,0,0,1,.022-.466c.022-.191.022-.319.043-.425l-1.591-.36-.256.275a1.779,1.779,0,0,1,.7.383.79.79,0,0,1,.234.592l.02,8.336.087,1.1h.466c.043-.128.085-.34.147-.637a3.772,3.772,0,0,0,.087-.786L31.69,15.8c.275.022.594.022.954.043.338,0,.784.02,1.1.043Z" transform="translate(28.915 10.444)" fill="#0070b9" fill-rule="evenodd"/>
          <path id="패스_600" data-name="패스 600" d="M5.009,14.734l.022-2.672a3.743,3.743,0,0,1,.041-.468c.022-.191.022-.319.043-.423L3.5,10.81l-.234.277a2.076,2.076,0,0,1,.7.4.785.785,0,0,1,.212.574l.043,5.812.085,1.038h.466c.043-.126.085-.319.149-.615a4.868,4.868,0,0,0,.063-.741l.022-2.291c.275,0,.594,0,.954.02.362,0,.784.024,1.1.043v-.741c-.36.041-.72.085-1.081.106-.381.02-.7.02-.975.041" transform="translate(3.158 10.443)" fill="#0070b9" fill-rule="evenodd"/>
          <path id="패스_601" data-name="패스 601" d="M1.612,12.74a1.671,1.671,0,0,1,.275-.041c.128-.022.3-.043.509-.065a4.6,4.6,0,0,1,.891-.063c.531,0,1.018.022,1.422.022s.891.022,1.335.063v-.637c-.466.043-.932.087-1.378.108-.444.041-.891.041-1.357.063-.362,0-.659,0-.934.02-.254,0-.552.022-.891.022a4.942,4.942,0,0,1-.743-.063A5.693,5.693,0,0,1,.169,12.1L0,12.337l1.272.552a3.556,3.556,0,0,1,.34-.149" transform="translate(0 11.61)" fill="#0070b9" fill-rule="evenodd"/>
          <path id="패스_602" data-name="패스 602" d="M3.617,16.911a.726.726,0,0,1-.468-.128A.437.437,0,0,1,3,16.421V15.68a3.4,3.4,0,0,1,.022-.446,2.628,2.628,0,0,0,.02-.36l-1.632-.191-.149.256a1.668,1.668,0,0,1,.743.338,1.133,1.133,0,0,1,.128.657v.934a.453.453,0,0,0,.169.362.593.593,0,0,0,.466.147c.065,0,.552-.022,1.484-.063.914-.022,1.994,0,3.224.063v-.635c-.763.063-1.526.126-2.418.126-.91.022-1.4.043-1.441.043" transform="translate(1.219 14.185)" fill="#0070b9" fill-rule="evenodd"/>
          <path id="패스_603" data-name="패스 603" d="M2.23,12.1c.085-.022.191-.022.275-.041.338,0,.572-.022.743-.022s.466.022.678.022v-.574c-.275.022-.572.041-.891.041a8.084,8.084,0,0,1-.849-.063c-.275-.041-.531-.063-.741-.1-.193-.043-.34-.087-.425-.108l-.234.256,1.1.678a2.591,2.591,0,0,1,.34-.085" transform="translate(0.76 10.87)" fill="#0070b9" fill-rule="evenodd"/>
          <path id="패스_604" data-name="패스 604" d="M4.347,15.506a1.736,1.736,0,0,0,.531-.592v-.043A1.2,1.2,0,0,0,5,14.318v-.063a1.5,1.5,0,0,0-.657-1.209,2.66,2.66,0,0,0-1.591-.466,2.542,2.542,0,0,0-1.569.466,1.744,1.744,0,0,0-.531.615c0,.022,0,.022-.022.041a1.527,1.527,0,0,0-.106.552v.063a1.384,1.384,0,0,0,.659,1.188A2.425,2.425,0,0,0,2.757,16a2.535,2.535,0,0,0,1.591-.49M1.357,14.277a1.147,1.147,0,0,1,.4-.869,1.355,1.355,0,0,1,1-.383,1.367,1.367,0,0,1,1.017.383,1.15,1.15,0,0,1,.405.869,1.164,1.164,0,0,1-.405.891,1.366,1.366,0,0,1-1.017.381,1.353,1.353,0,0,1-1-.381,1.161,1.161,0,0,1-.4-.891" transform="translate(0.511 12.153)" fill="#0070b9" fill-rule="evenodd"/>
          <path id="패스_605" data-name="패스 605" d="M24.134,11.889a2.009,2.009,0,0,1,.34-.041c.147-.022.637-.043,1.484-.065.828-.02,1.506-.043,1.994-.043a10.037,10.037,0,0,1-.169,1.465,12.254,12.254,0,0,1-.319,1.315l.425.085c.212-.444.423-.934.635-1.506a10.5,10.5,0,0,0,.468-1.846s-3.521.149-5.09.149c-.234,0-.509-.022-.806-.043-.3-.041-.509-.063-.637-.085l-.212.277,1.484.529a2.429,2.429,0,0,1,.4-.191" transform="translate(21.493 10.87)" fill="#0070b9" fill-rule="evenodd"/>
          <path id="패스_606" data-name="패스 606" d="M26.77,14.631h-.338v-1.4a3.76,3.76,0,0,1,.041-.446c.022-.169.043-.319.063-.4l-1.484-.191-.147.234a1.4,1.4,0,0,1,.594.338,1.115,1.115,0,0,1,.126.615v1.252c-.423.022-.891.022-1.25.022-.36.02-.678.02-.956.02-.232,0-.572-.02-1-.063-.444-.043-.72-.085-.869-.085l-.234.3,1.825.594a1.8,1.8,0,0,1,.425-.171,1.23,1.23,0,0,1,.381-.063c.149-.02.446-.041.912-.085q.731-.062,1.846-.063c.763,0,1.569.022,2.4.022.847.022,1.677.022,2.269.063V14.4a21.8,21.8,0,0,1-2.291.169c-.847.043-1.634.065-2.312.065" transform="translate(20.596 11.778)" fill="#0070b9" fill-rule="evenodd"/>
          <path id="패스_607" data-name="패스 607" d="M27.124,14.61a2.882,2.882,0,0,0-1.825-.574,2.917,2.917,0,0,0-1.825.574,1.985,1.985,0,0,0-.615.741.076.076,0,0,0-.022.043,1.651,1.651,0,0,0-.128.657v.085a1.711,1.711,0,0,0,.765,1.422,3.1,3.1,0,0,0,3.649,0,1.778,1.778,0,0,0,.613-.722c0-.022.022-.022.022-.043a1.651,1.651,0,0,0,.128-.657v-.085a1.772,1.772,0,0,0-.763-1.441m-.574,2.629a1.707,1.707,0,0,1-1.25.488,1.655,1.655,0,0,1-1.231-.488,1.555,1.555,0,0,1-.488-1.146,1.523,1.523,0,0,1,.488-1.144,1.655,1.655,0,0,1,1.231-.488,1.707,1.707,0,0,1,1.25.488,1.587,1.587,0,0,1,.468,1.144,1.62,1.62,0,0,1-.468,1.146" transform="translate(21.941 13.56)" fill="#0070b9" fill-rule="evenodd"/>
          <path id="패스_608" data-name="패스 608" d="M16.237,15.993V14.806a3.505,3.505,0,0,1,.022-.466c.022-.191.043-.319.063-.425l-1.463-.171L14.688,14c.32.106.509.212.572.34a1.361,1.361,0,0,1,.108.615v1.038c-.531,0-1.083.022-1.528.022H12.675a9.135,9.135,0,0,1-1-.043c-.423-.041-.722-.085-.847-.085l-.256.319L12.4,16.8a1.965,1.965,0,0,1,.425-.191c.147-.022.256-.041.383-.063.147-.022.444-.043.91-.087q.731-.062,1.846-.063c.763,0,1.569.022,2.4.022.847.022,1.675.041,2.269.085v-.743a20.438,20.438,0,0,1-2.206.171c-.828.041-1.506.063-2.184.063" transform="translate(10.215 13.278)" fill="#0070b9" fill-rule="evenodd"/>
          <path id="패스_609" data-name="패스 609" d="M11.156,15.956l.275.21a10.508,10.508,0,0,0,3.881-1.823c.574.275,1.294.594,1.846.871a13.2,13.2,0,0,1,1.591.847l.468-.722c-.552-.169-1.125-.381-1.783-.594-.551-.191-1.229-.468-1.76-.659A7.956,7.956,0,0,0,17.986,11.5s-1.612.065-2.1.106c-.468.022-1.252.043-2.314.043-.232,0-.507-.022-.8-.043a6.444,6.444,0,0,0-.678-.065l-.193.277,1.486.531a1.048,1.048,0,0,1,.36-.169q.192-.032.319-.065a9.134,9.134,0,0,1,.975-.041c.488-.022,1.081-.043,1.528-.043a9.975,9.975,0,0,1-5.409,3.924" transform="translate(10.778 11.111)" fill="#0070b9" fill-rule="evenodd"/>
          <path id="패스_610" data-name="패스 610" d="M17.881,12.644a1.324,1.324,0,0,1,.234-.085c.106-.022.232-.043.381-.065a1.791,1.791,0,0,1,.488-.041h.891c.234,0,.594.022,1,.063v-.594c-.572.085-2.735.147-3.075.147a5.7,5.7,0,0,1-.743-.063c-.275-.041-.488-.063-.613-.085l-.171.3,1.359.572a1.537,1.537,0,0,1,.254-.147" transform="translate(15.718 11.518)" fill="#0070b9" fill-rule="evenodd"/>
          <path id="패스_611" data-name="패스 611" d="M16.658,12.707a5.225,5.225,0,0,1,.405,2.44c0,.468.783.319.783-.275a3.458,3.458,0,0,0-.891-2.271Z" transform="translate(16.094 12.174)" fill="#0070b9" fill-rule="evenodd"/>
          <path id="패스_612" data-name="패스 612" d="M19.916,11.077a1.288,1.288,0,0,1,.615.381.862.862,0,0,1,.169.594l.022,8.358.106,1.1h.446a4.139,4.139,0,0,0,.126-.637,3.541,3.541,0,0,0,.085-.763l.022-8.04a4.032,4.032,0,0,1,.043-.488c.022-.191.022-.319.043-.425l-1.486-.34Z" transform="translate(19.242 10.454)" fill="#0070b9" fill-rule="evenodd"/>
          <path id="패스_613" data-name="패스 613" d="M19.489,11.314a1.444,1.444,0,0,1,.615.4.878.878,0,0,1,.169.572v1.825a5.149,5.149,0,0,1-1.549-.106l-.147.256.847.466a2.758,2.758,0,0,1,.849-.147L20.295,16a6.24,6.24,0,0,1-1.718-.106l-.149.234.912.468a4.45,4.45,0,0,1,.956-.128v3.244l.106,1.1h.444a3.781,3.781,0,0,0,.128-.635,3.558,3.558,0,0,0,.085-.765l.022-7.106c0-.128.022-.3.043-.488.02-.171.02-.319.041-.4l-1.484-.34Z" transform="translate(17.803 10.704)" fill="#0070b9" fill-rule="evenodd"/>
          <path id="패스_614" data-name="패스 614" d="M19.737,15.886l.574-2.291c.041-.126.063-.275.1-.4a1.626,1.626,0,0,1,.106-.3l-1.294-.423-.212.232c.3.149.468.275.509.4a1.329,1.329,0,0,1,0,.594l-.381,2.247a12.642,12.642,0,0,1-2.8-.085l-.149.3,1.337.592a4.786,4.786,0,0,1,.891-.21c.531-.065,1.018-.128,1.465-.212a8.061,8.061,0,0,0,1.272-.3l-.085-.36c-.488.085-.912.147-1.337.21" transform="translate(15.646 12.05)" fill="#0070b9" fill-rule="evenodd"/>
        </g>
      </g>
    </g>
  </g>
</svg>
