<svg xmlns="http://www.w3.org/2000/svg" xmlns:xlink="http://www.w3.org/1999/xlink" width="150" height="150" viewBox="0 0 150 150">
  <defs>
    <clipPath id="clip-path">
      <rect id="사각형_464" data-name="사각형 464" width="105.298" height="33.536" fill="none"/>
    </clipPath>
  </defs>
  <g id="그룹_5310" data-name="그룹 5310" transform="translate(-992 -812)">
    <g id="그룹_5320" data-name="그룹 5320">
      <circle id="타원_12" data-name="타원 12" cx="75" cy="75" r="75" transform="translate(992 812)" fill="#fff"/>
      <g id="그룹_525" data-name="그룹 525" transform="translate(365.599 -333.854)">
        <g id="그룹_524" data-name="그룹 524" transform="translate(649 1204)">
          <g id="그룹_523" data-name="그룹 523" clip-path="url(#clip-path)">
            <path id="패스_583" data-name="패스 583" d="M167.092,0a16.858,16.858,0,0,1,16.743,16.768,16.858,16.858,0,0,1-16.743,16.768V24.26a7.429,7.429,0,1,0,0-14.857Zm-.127,0h.127V9.4a7.429,7.429,0,1,0,0,14.857v9.276h-.127a16.768,16.768,0,1,1,0-33.536" transform="translate(-96.987)" fill="#003e84" fill-rule="evenodd"/>
            <path id="패스_584" data-name="패스 584" d="M52.453,24.736h.076c3.262.28,2.523,3.236-.076,3.542v3.287h.076c3.262.306,2.523,3.262-.076,3.568v4.052c3.975.127,6.957-1.427,7.161-4.995-.1-2.956-.892-3.593-2.446-4.307a4.438,4.438,0,0,0,2.268-3.9c-.28-3.95-3.084-5.555-6.651-5.352h-.331Zm-2.217,0h2.217v-4.1H45.216V39.185h7.237V35.133H50.236V31.565h2.217V28.278c-.1,0-.229.025-.357.025h-1.86Z" transform="translate(-29.212 -13.319)" fill="#003e84" fill-rule="evenodd"/>
            <path id="패스_585" data-name="패스 585" d="M0,20.088h12.41V24.42H4.842v3.16h6.524v3.772H4.842v3.287h7.569v4.1H0Z" transform="translate(0 -12.978)" fill="#003e84" fill-rule="evenodd"/>
            <path id="패스_586" data-name="패스 586" d="M104.962,19.738v4.256c-3.44-.535-6.422-.841-6.855.612-.408,1.682,2.6,1.937,4.511,2.727,2.523.968,3.338,2.064,3.389,5.148-.076,3.058-1.733,4.791-4.383,5.734a20.765,20.765,0,0,1-8.129-.076V33.346c2.243.484,4.485.917,6.855.229,1.274-.612.968-1.758-.79-2.472-5.785-1.325-6.243-3.313-6.32-5.785A6.233,6.233,0,0,1,96.6,19.559a13.822,13.822,0,0,1,8.359.178" transform="translate(-60.238 -12.271)" fill="#003e84" fill-rule="evenodd"/>
            <path id="패스_587" data-name="패스 587" d="M262.825,26.568a7.428,7.428,0,1,1-7.441,7.441,7.455,7.455,0,0,1,7.441-7.441" transform="translate(-164.994 -17.165)" fill="#003e84" fill-rule="evenodd"/>
            <path id="패스_588" data-name="패스 588" d="M215.814,26.64a7.416,7.416,0,1,1,0,14.831,7.657,7.657,0,0,1-4.638-1.58,7.339,7.339,0,0,0,0-11.7,7.637,7.637,0,0,1,4.638-1.554" transform="translate(-136.433 -17.211)" fill="#f27c00" fill-rule="evenodd"/>
            <path id="패스_589" data-name="패스 589" d="M198.648,26.64h0Zm.2,0h0Zm.229.025h0Zm.178,0a1.1,1.1,0,0,0,.127.025,1.1,1.1,0,0,1-.127-.025m.917.153c.051.025.1.025.127.051-.025-.025-.076-.025-.127-.051m.331.1a.648.648,0,0,1,.178.051Zm.586.178a.193.193,0,0,1,.1.051.193.193,0,0,0-.1-.051m.127.051a.362.362,0,0,0,.153.051.362.362,0,0,1-.153-.051m.306.127c.127.051.229.1.331.153-.1-.051-.2-.1-.331-.153m.331.153c.051.025.127.076.178.1h.025c.025.025.051.025.076.051a.089.089,0,0,0,.051.025c.025.025.051.025.076.051.025,0,.025.025.051.025a.025.025,0,0,1,.025.025c.025,0,.025,0,.051.025s.076.025.1.051Zm.663.382c.153.1.28.178.433.28-.153-.1-.28-.178-.433-.28m.433.306c.051.025.076.051.127.076-.051-.025-.076-.051-.127-.076m.127,11.773h0c-.025,0-.025.025-.051.025.025,0,.025-.025.051-.025m-1.988,1.1h0Zm-.127.051a.094.094,0,0,0-.076.025.094.094,0,0,1,.076-.025m-1.2.306a.193.193,0,0,0-.1.025.193.193,0,0,1,.1-.025m-.637.076c-.025,0-.051,0-.051.025,0-.025.025-.025.051-.025m-.331.025h0Z" transform="translate(-128.339 -17.211)" fill="#002b6d" fill-rule="evenodd"/>
            <path id="패스_590" data-name="패스 590" d="M205.873,31.032a7.34,7.34,0,0,1,0,11.7,7.339,7.339,0,0,1,0-11.7" transform="translate(-131.13 -20.049)" fill="#fff" fill-rule="evenodd"/>
            <path id="패스_591" data-name="패스 591" d="M184.35,26.568a7.657,7.657,0,0,1,4.638,1.58,7.339,7.339,0,0,0,0,11.7,7.657,7.657,0,0,1-4.638,1.58,7.429,7.429,0,1,1,0-14.857" transform="translate(-114.244 -17.165)" fill="#adbf00" fill-rule="evenodd"/>
          </g>
        </g>
      </g>
    </g>
  </g>
</svg>
