<svg xmlns="http://www.w3.org/2000/svg" xmlns:xlink="http://www.w3.org/1999/xlink" width="150" height="150" viewBox="0 0 150 150">
  <defs>
    <clipPath id="clip-path">
      <rect id="사각형_463" data-name="사각형 463" width="104.659" height="44.523" fill="none"/>
    </clipPath>
  </defs>
  <g id="그룹_5311" data-name="그룹 5311" transform="translate(-812 -812)">
    <g id="그룹_5319" data-name="그룹 5319">
      <circle id="타원_11" data-name="타원 11" cx="75" cy="75" r="75" transform="translate(812 812)" fill="#fff"/>
      <g id="그룹_522" data-name="그룹 522" transform="translate(96.145 -543.999)">
        <g id="그룹_521" data-name="그룹 521" transform="translate(735.631 1403.158)">
          <path id="패스_563" data-name="패스 563" d="M20.676,0,0,21.493,22.75,2.2Z" transform="translate(0)" fill="#e13505"/>
          <path id="패스_564" data-name="패스 564" d="M4.754,26.246,27.5,6.953l-2.074-2.2Z" transform="translate(-2.209 -2.208)" fill="#d9000d"/>
          <path id="패스_565" data-name="패스 565" d="M9.508,31l22.75-19.293-2.074-2.2Z" transform="translate(-4.417 -4.417)" fill="#d8006b"/>
          <path id="패스_566" data-name="패스 566" d="M14.144,35.636l22.75-19.293-2.074-2.2Z" transform="translate(-6.571 -6.571)" fill="#a2006e"/>
          <path id="패스_567" data-name="패스 567" d="M58.317,30.049,35.567,49.342l2.074,2.2Z" transform="translate(-16.524 -13.96)" fill="#3da786"/>
          <path id="패스_568" data-name="패스 568" d="M53.563,25.295,30.813,44.588l2.074,2.2Z" transform="translate(-14.315 -11.752)" fill="#0097bd"/>
          <path id="패스_569" data-name="패스 569" d="M48.809,20.541,26.059,39.834l2.074,2.2Z" transform="translate(-12.107 -9.543)" fill="#0090df"/>
          <path id="패스_570" data-name="패스 570" d="M44.172,15.9,21.422,35.2,23.5,37.4Z" transform="translate(-9.953 -7.389)" fill="#004f9d"/>
          <path id="패스_571" data-name="패스 571" d="M64.385,55.064H66.97v1.6h2.146v1.1H61.963v-1.1h2.422Z" transform="translate(-28.788 -25.583)" fill="#161615"/>
          <g id="그룹_520" data-name="그룹 520" transform="translate(0 0)">
            <g id="그룹_519" data-name="그룹 519" clip-path="url(#clip-path)">
              <path id="패스_572" data-name="패스 572" d="M65.646,60.827a3.223,3.223,0,1,1-3.695,3.187,3.47,3.47,0,0,1,3.695-3.187m-.041,5.321c.835,0,1.511-.97,1.511-2.169s-.676-2.169-1.511-2.169-1.511.972-1.511,2.169.676,2.169,1.511,2.169" transform="translate(-28.782 -28.26)" fill="#161615"/>
              <path id="패스_573" data-name="패스 573" d="M76.978,55.064h2.636v5.374h1.242v1.094H79.609v5.421H76.978Z" transform="translate(-35.764 -25.583)" fill="#161615"/>
              <path id="패스_574" data-name="패스 574" d="M64.539,73.471h2.622v4.1l6.505,0v1.088l-8.335,0a.942.942,0,0,1-.792-1.037Z" transform="translate(-29.984 -34.134)" fill="#161615"/>
              <path id="패스_575" data-name="패스 575" d="M85.991,56.1H94.6s.677.027.677.884v4.478h.858l-.007,1.1H91.824V64.54h3.532v6.042H92.732V65.607H86V64.52h3.39V62.557H85.229v-1.1h7.393V57.176H85.991Z" transform="translate(-39.597 -26.063)" fill="#161615"/>
              <path id="패스_576" data-name="패스 576" d="M107.708,71.121h10.44v1.1h-3.8v5.337h-2.583V72.225H107.7Z" transform="translate(-50.038 -33.043)" fill="#161615"/>
              <path id="패스_577" data-name="패스 577" d="M109.465,56.1h7.58a1.05,1.05,0,0,1,1.05,1.116v5.343H109.31s-.827.028-.827-.967l.017-4.7s-.241-.789.965-.789m1.664,1.8v2.876a.616.616,0,0,0,.69.691h3.645V58.087c0-.884-.676-.912-.676-.912H111.6c-.49,0-.468.717-.468.717" transform="translate(-50.399 -26.062)" fill="#161615"/>
              <path id="패스_578" data-name="패스 578" d="M137.273,55.043V57.11H135.7a3.876,3.876,0,1,0,.05,3.46h1.571V64.04h-6.2v1.065h6.152v4.976h2.584l.007-15.037Zm.052,4.368h-1.218a7.75,7.75,0,0,0-.032-1.242h1.249Zm-6.515-.495c0-1.65.64-2.989,1.43-2.989s1.43,1.339,1.43,2.989-.64,2.989-1.43,2.989-1.43-1.339-1.43-2.989" transform="translate(-59.601 -25.561)" fill="#161615"/>
              <path id="패스_579" data-name="패스 579" d="M155.2,55.078h2.585V56.2h2.145v1.1h-6.953V56.2H155.2Z" transform="translate(-71.074 -25.589)" fill="#161615"/>
              <path id="패스_580" data-name="패스 580" d="M178.675,55.064h2.584V56.33h2.3v1.088H176.2V56.33h2.471Z" transform="translate(-81.863 -25.583)" fill="#161615"/>
              <path id="패스_581" data-name="패스 581" d="M161.083,55.065V58.7h-1.994a3.894,3.894,0,0,0-2.8-1.139,3.3,3.3,0,1,0,0,6.553,3.772,3.772,0,0,0,3.284-1.778h1.6v3.589h-3.819v-1.47H154.97l-.008,4.893a.74.74,0,0,0,.756.756H163.6V55.065Zm-4.832,7.964c-.835,0-1.511-1-1.511-2.23s.677-2.229,1.511-2.229,1.511,1,1.511,2.229-.677,2.23-1.511,2.23m3.7-1.745a2.966,2.966,0,0,0,.039-.449,2.922,2.922,0,0,0-.206-1.071h1.336v1.519ZM161.174,69l-3.819.013V66.992h3.819Z" transform="translate(-70.896 -25.583)" fill="#161615"/>
              <path id="패스_582" data-name="패스 582" d="M186.533,70.1l0-15.037h-2.254v10.3H181.4v-1.57a3.219,3.219,0,0,0,2.25-2.935,3.736,3.736,0,0,0-7.391,0,3.286,3.286,0,0,0,2.607,3.048v1.457h-2.637v1.073h8.049V70.1Zm-6.621-11.448c.835,0,1.511.97,1.511,2.169s-.676,2.169-1.511,2.169-1.511-.972-1.511-2.169.676-2.169,1.511-2.169" transform="translate(-81.874 -25.583)" fill="#161615"/>
            </g>
          </g>
        </g>
      </g>
    </g>
  </g>
</svg>
