<svg xmlns="http://www.w3.org/2000/svg" xmlns:xlink="http://www.w3.org/1999/xlink" width="150" height="150" viewBox="0 0 150 150">
  <defs>
    <clipPath id="clip-path">
      <rect id="사각형_462" data-name="사각형 462" width="88.591" height="46.349" fill="none"/>
    </clipPath>
  </defs>
  <g id="그룹_5318" data-name="그룹 5318" transform="translate(-632 -812)">
    <circle id="타원_10" data-name="타원 10" cx="75" cy="75" r="75" transform="translate(632 812)" fill="#fff"/>
    <g id="그룹_518" data-name="그룹 518" transform="translate(662.462 863.334)">
      <path id="패스_558" data-name="패스 558" d="M0,36.858V49.721H12.875V46.508H3.214v-9.65Z" transform="translate(0 -3.373)" fill="#8d8d88"/>
      <path id="패스_559" data-name="패스 559" d="M83.339,0V3.213H93v9.65h3.215V0Z" transform="translate(-7.626 0)" fill="#f36a10"/>
      <g id="그룹_517" data-name="그룹 517" transform="translate(0 0)">
        <g id="그룹_516" data-name="그룹 516" clip-path="url(#clip-path)">
          <path id="패스_560" data-name="패스 560" d="M70.422,23.978a15.985,15.985,0,0,0-2.028-8.238,11.237,11.237,0,0,0-6.348-5.133,15.372,15.372,0,0,0-4.968-.737H47.332l0,0c-.229,0-.553,0-1.018,0a2.484,2.484,0,0,0-2.62,2.519V38.353H58.549a10.525,10.525,0,0,0,8.934-4.27,16.415,16.415,0,0,0,2.939-10.105m-8.7.017q0,4.092-1.471,5.952c-.976,1.24-2.893,1.859-5.058,1.859H52.043V16.4H54.81a6.559,6.559,0,0,1,5.269,2.156A8.264,8.264,0,0,1,61.723,24" transform="translate(-3.998 -0.903)" fill="#51504a"/>
          <path id="패스_561" data-name="패스 561" d="M86.824,9.87V35.827a2.484,2.484,0,0,1-2.62,2.522c-1,0-1.039,0-1.039,0H78.152V12.4a2.488,2.488,0,0,1,2.626-2.522Z" transform="translate(-7.151 -0.903)" fill="#51504a"/>
          <path id="패스_562" data-name="패스 562" d="M37.814,38.353,27.328,23.206,37.752,9.87H27.914L18.48,21.823V9.87l-6.049,0A2.487,2.487,0,0,0,9.81,12.4V38.353h4.668s.384,0,1.385,0a2.482,2.482,0,0,0,2.617-2.521V24.78l9.327,13.573Z" transform="translate(-0.898 -0.903)" fill="#51504a"/>
        </g>
      </g>
    </g>
  </g>
</svg>
