<svg xmlns="http://www.w3.org/2000/svg" width="116.585" height="116.585" viewBox="0 0 116.585 116.585">
    <g>
        <path fill="#2b2929" d="M4431.925 1367.027a58.319 58.319 0 1 0 4.454 22.38 58.305 58.305 0 0 0-4.454-22.38z" transform="translate(-4319.794 -1331.114)"/>
        <path fill="#fff" stroke="rgba(0,0,0,0)" stroke-miterlimit="10" d="M11282.722 13005.742a8.016 8.016 0 0 1-2.634-1.694l1.8-2.157a7.153 7.153 0 0 0 1.893 1.26 5.043 5.043 0 0 0 2.09.477 3.014 3.014 0 0 0 1.86-.489 1.565 1.565 0 0 0 .637-1.312 1.515 1.515 0 0 0-.17-.741 1.877 1.877 0 0 0-.48-.528 3.6 3.6 0 0 0-.744-.422l-.969-.424-2.105-.892a7.9 7.9 0 0 1-1.156-.613 4.378 4.378 0 0 1-1.008-.878 4.213 4.213 0 0 1-.715-1.185 4 4 0 0 1-.277-1.534 4.118 4.118 0 0 1 .4-1.789 4.278 4.278 0 0 1 1.116-1.439 5.307 5.307 0 0 1 1.7-.953 6.57 6.57 0 0 1 2.18-.35 7.075 7.075 0 0 1 2.667.52 6.432 6.432 0 0 1 2.242 1.491l-1.586 1.969a6.317 6.317 0 0 0-1.547-.953 4.524 4.524 0 0 0-1.776-.337 2.8 2.8 0 0 0-1.651.435 1.4 1.4 0 0 0-.613 1.214 1.25 1.25 0 0 0 .2.722 2.06 2.06 0 0 0 .535.529 4.1 4.1 0 0 0 .773.424c.3.127.617.255.96.382l2.063.868a7.585 7.585 0 0 1 1.3.676 4.3 4.3 0 0 1 1 .892 3.6 3.6 0 0 1 .637 1.172 4.756 4.756 0 0 1 .222 1.515 4.382 4.382 0 0 1-.392 1.821 4.455 4.455 0 0 1-1.133 1.515 5.62 5.62 0 0 1-1.812 1.024 7.264 7.264 0 0 1-2.422.382 8.289 8.289 0 0 1-3.085-.598zm52 .3V12993h-4.4v-2.625h11.979v2.625h-4.445v13.04zm-8.086 0l-3.218-5.928h-2.181v5.928h-3.131v-15.665h5.461a11.033 11.033 0 0 1 2.3.232 5.231 5.231 0 0 1 1.877.783 3.84 3.84 0 0 1 1.247 1.462 5.024 5.024 0 0 1 .454 2.263 4.734 4.734 0 0 1-.813 2.882 4.805 4.805 0 0 1-2.17 1.629l3.662 6.414zm-5.4-8.405h2.033a3.676 3.676 0 0 0 2.317-.623 2.266 2.266 0 0 0 .794-1.9 1.92 1.92 0 0 0-.794-1.767 4.388 4.388 0 0 0-2.317-.5h-2.033zm-7.727 8.405l-1.1-4.021h-5.082l-1.1 4.021h-3.176l5.021-15.665h3.682l5.036 15.665zm-4.338-10.7c-.226.865-.46 1.711-.7 2.53l-.467 1.714h3.728l-.467-1.714q-.362-1.229-.688-2.54t-.689-2.582h-.084q-.29 1.285-.629 2.589zm-12.746 10.7V12993h-4.4v-2.625h11.979v2.625h-4.446v13.04z" transform="translate(-4319.794 -1331.114) translate(-6933.722 -11609.393)"/>
    </g>
</svg>
