<svg xmlns="http://www.w3.org/2000/svg" width="343.996" height="153.712" viewBox="0 0 343.996 153.712">
    <defs>
        <style>
            .cls-2{fill:#fece46;opacity:.096}
        </style>
    </defs>
    <g id="그룹_20931" data-name="그룹 20931" transform="translate(-1155 -919.143)">
        <path id="패스_29936" data-name="패스 29936" d="M1246.985 149.881a3.521 3.521 0 0 1-.67 4.924l-20.754 15.781a3.52 3.52 0 0 1-4.923-.67l-13.563-17.835a4.54 4.54 0 0 1 7.215-5.487l2.866 3.77 11.918-9.062-2.866-3.77a4.54 4.54 0 0 1 7.215-5.487zm-9.588 2.366-3.946-5.189-11.917 9.063 3.946 5.188z" transform="translate(251.297 884.455)" style="opacity:.251;fill:#1e78f0"/>
        <path id="패스_29937" data-name="패스 29937" class="cls-2" d="M1147.064 146.871c-1.861-6.575-7.112-11.772-12.681-12.735l-3.663-.633a4.59 4.59 0 0 1 1.561-9.032l3.663.633c5.57.963 12.261-2.17 16.222-7.738a4.042 4.042 0 0 1 4.212-1.648 4.087 4.087 0 0 1 3.353 4.817 5.46 5.46 0 0 1-.807 1.979 22.9 22.9 0 0 1-12.219 9.1 23.123 23.123 0 0 1 8.453 12.676 5.46 5.46 0 0 1 .1 2.136 4.087 4.087 0 0 1-4.776 3.411 4.042 4.042 0 0 1-3.414-2.967" transform="translate(260.412 886.154)"/>
        <path id="패스_29939" data-name="패스 29939" d="M1187.024 63.644c.462-4.827-1.363-9.428-4.8-11.5l-.217-.131-3.114 5.168a2.711 2.711 0 0 1-4.643-2.8l9.55-15.845a2.71 2.71 0 1 1 4.642 2.8l-3.078 5.106.217.13c3.435 2.07 8.2 1.442 12.254-1.221a2.869 2.869 0 0 1 3.21-.006 2.9 2.9 0 0 1 .978 4.048 3.877 3.877 0 0 1-1.043 1.1 16.167 16.167 0 0 1-10.082 3.078 16.074 16.074 0 0 1 2.142 10.446 3.9 3.9 0 0 1-.486 1.437 2.9 2.9 0 0 1-4.036 1.026 2.868 2.868 0 0 1-1.494-2.841" transform="translate(255.023 888.428)" style="opacity:.397;fill:#fece46"/>
        <path id="패스_29940" data-name="패스 29940" class="cls-2" d="M948.726 52.8c2.49 7.153 6.756 12.666 12.683 14.234l1.177-10.3A4.741 4.741 0 0 1 972 57.819L970.8 68.3l2.009.229c3.076.352 4.672 3.079 4.314 6.218-.373 3.264-2.53 5.435-5.606 5.082l-2.009-.229-1.185 10.359a4.739 4.739 0 1 1-9.416-1.077l1.17-10.233c-6.072.259-11.215 4.632-15.262 11.1a5.014 5.014 0 0 1-5.1 2.342 5.071 5.071 0 0 1-4.5-5.729 6.762 6.762 0 0 1 .859-2.509c2.765-4.708 6.7-9.664 12.921-12.324-5.584-4.009-8.489-9.748-10.119-14.959a6.755 6.755 0 0 1-.271-2.638 5.072 5.072 0 0 1 5.673-4.567 5.017 5.017 0 0 1 4.441 3.433" transform="translate(282.551 893.803)"/>
        <path id="패스_29941" data-name="패스 29941" d="M1067.863 151.587a4.739 4.739 0 1 1 8.675 3.817l-12.851 29.208a5.284 5.284 0 0 1-7.079 2.753l-24.408-10.739a5.693 5.693 0 0 1 4.581-10.411l5.61 2.468 10.815-24.581a4.739 4.739 0 0 1 8.676 3.817l-10.815 24.581 6.363 2.8z" transform="translate(271.733 883.203)" style="fill:#fece46;opacity:.251"/>
        <path id="패스_29943" data-name="패스 29943" d="m1053.31 81.656-16.454-39.362a5.685 5.685 0 0 1 10.487-4.384l1.561 3.735 12.875-6.141c3.5-1.717 6.876.5 8.377 4.093s.5 7.048-3.033 8.693l-12.935 6 2.733 6.537 13.415-4.848c3.651-1.358 6.785.286 8.287 3.877s.74 7.623-2.943 8.909l-13.445 4.776 1.561 3.735a5.685 5.685 0 0 1-10.487 4.384m15.009-51.5a5.841 5.841 0 0 1 10.775-4.5l15.733 37.639a5.841 5.841 0 0 1-10.775 4.5z" transform="translate(270.872 896.928)" style="opacity:.355;fill:#1e78f0"/>
        <path id="패스_29944" data-name="패스 29944" d="m898.769 190.085-10.869-4.463-.384.935c-1.224 2.981-4.138 3.425-7.061 2.225s-4.686-3.563-3.462-6.544l.384-.935-10.815-4.439c-2.1-.863-2.785-3.534-1.922-5.639s3.224-3.526 5.328-2.663l32.212 13.222c2.1.864 2.785 3.534 1.921 5.638s-3.224 3.527-5.328 2.664m-2.511-14.351-17.889-7.343c-5.086-2.088-7.352-8.55-5.073-14.1 2.208-5.379 8.409-8.5 13.495-6.415l17.889 7.342c5.144 2.112 7.362 8.692 5.154 14.07-2.28 5.554-8.432 8.561-13.576 6.45m2.177-13.793-11.868-4.871a2.5 2.5 0 1 0-1.895 4.618l11.867 4.871a2.505 2.505 0 1 0 1.9-4.618" transform="translate(290.729 882.514)" style="opacity:.602;fill:#1e78f0"/>
    </g>
</svg>
