<svg xmlns="http://www.w3.org/2000/svg" width="21" height="21" viewBox="0 0 21 21">
    <defs>
        <style>
            .cls-1{fill:#3774df}
        </style>
    </defs>
    <g id="그룹_21032" data-name="그룹 21032" transform="translate(-342 -2098)">
        <g id="Icon_ionic-ios-checkbox-outline" data-name="Icon ionic-ios-checkbox-outline" transform="translate(337.5 2093.5)">
            <path id="패스_29945" data-name="패스 29945" class="cls-1" d="M23.75 4.5H6.25A1.748 1.748 0 0 0 4.5 6.25v17.5a1.748 1.748 0 0 0 1.75 1.75h17.5a1.748 1.748 0 0 0 1.75-1.75V6.25a1.748 1.748 0 0 0-1.75-1.75zm.219 19.031a.439.439 0 0 1-.437.438H6.469a.439.439 0 0 1-.437-.437V6.469a.439.439 0 0 1 .438-.437h17.061a.439.439 0 0 1 .438.438z"/>
            <path id="패스_29946" data-name="패스 29946" class="cls-1" d="m22.219 13.262-.962-.99a.207.207 0 0 0-.153-.066.2.2 0 0 0-.153.066l-6.672 6.721-2.429-2.428a.211.211 0 0 0-.306 0l-.973.973a.218.218 0 0 0 0 .312l3.063 3.063a.969.969 0 0 0 .64.312 1.015 1.015 0 0 0 .634-.3h.005l7.312-7.35a.234.234 0 0 0-.006-.313z" transform="translate(-1.334 -1.712)"/>
        </g>
    </g>
</svg>
